%
M48
M72
T01C0.01378
T02C0.03622
T03C0.03937
T04C0.04000
T05C0.04331
T06C0.06000
T07C0.06300
%
T01
X54933Y139817
X69308Y156567
X74197Y164817
X80433Y162317
X69933Y175317
X64308Y169692
X72433Y189692
X61808Y210317
X76183Y212192
X79933Y230942
X78683Y249692
X107433Y206567
X108933Y197317
X107433Y181567
X107433Y171567
X101808Y166567
X92308Y163942
X101433Y130317
X118058Y127192
X123683Y222817
X126808Y225317
X131444Y250317
T02
X114313Y97655
X104470Y97655
X96596Y97655
X86754Y97655
T03
X116433Y191317
X116433Y201317
T04
X36033Y82017
X36033Y107617
X53833Y107617
X53833Y82017
X37433Y162817
X37433Y172817
X37433Y182817
X37433Y192817
X37433Y202817
X37433Y212817
X37433Y222817
T05
X91675Y89387
X109391Y89387
T06
X45433Y249817
T07
X55433Y259817
X55433Y239817
X35433Y239817
X35433Y259817
M30
