G75*
%MOIN*%
%OFA0B0*%
%FSLAX25Y25*%
%IPPOS*%
%LPD*%
%AMOC8*
5,1,8,0,0,1.08239X$1,22.5*
%
%ADD10C,0.09800*%
%ADD11C,0.10250*%
%ADD12C,0.08200*%
%ADD13C,0.07400*%
%ADD14C,0.05131*%
%ADD15C,0.06422*%
%ADD16R,0.06422X0.06422*%
%ADD17C,0.03778*%
D10*
X0045433Y0249817D03*
D11*
X0055433Y0259817D03*
X0055433Y0239817D03*
X0035433Y0239817D03*
X0035433Y0259817D03*
D12*
X0036033Y0082017D03*
X0036033Y0107617D03*
X0053833Y0107617D03*
X0053833Y0082017D03*
X0037433Y0162817D03*
X0037433Y0172817D03*
X0037433Y0182817D03*
X0037433Y0192817D03*
X0037433Y0202817D03*
X0037433Y0212817D03*
X0037433Y0222817D03*
D13*
X0116433Y0201317D03*
X0116433Y0191317D03*
D14*
X0109391Y0089387D03*
X0091675Y0089387D03*
D15*
X0096596Y0097655D03*
X0104470Y0097655D03*
X0086754Y0097655D03*
D16*
X0114313Y0097655D03*
D17*
X0118058Y0127192D03*
X0101433Y0130317D03*
X0092308Y0163942D03*
X0101808Y0166567D03*
X0107433Y0171567D03*
X0107433Y0181567D03*
X0108933Y0197317D03*
X0107433Y0206567D03*
X0123683Y0222817D03*
X0126808Y0225317D03*
X0131444Y0250317D03*
X0079933Y0230942D03*
X0076183Y0212192D03*
X0072433Y0189692D03*
X0069933Y0175317D03*
X0064308Y0169692D03*
X0069308Y0156567D03*
X0074197Y0164817D03*
X0080433Y0162317D03*
X0061808Y0210317D03*
X0078683Y0249692D03*
X0054933Y0139817D03*
M02*
