G75*
%MOIN*%
%OFA0B0*%
%FSLAX25Y25*%
%IPPOS*%
%LPD*%
%AMOC8*
5,1,8,0,0,1.08239X$1,22.5*
%
%ADD10R,0.05118X0.05906*%
%ADD11R,0.08780X0.09331*%
%ADD12R,0.03150X0.04724*%
%ADD13R,0.04724X0.03150*%
%ADD14R,0.03268X0.02480*%
%ADD15R,0.05500X0.01370*%
%ADD16R,0.03937X0.04331*%
%ADD17C,0.09000*%
%ADD18C,0.09450*%
%ADD19R,0.04724X0.04724*%
%ADD20R,0.02100X0.07800*%
%ADD21R,0.06299X0.05906*%
%ADD22R,0.05000X0.50000*%
%ADD23R,0.05000X0.47500*%
%ADD24C,0.07400*%
%ADD25R,0.05807X0.01181*%
%ADD26C,0.06600*%
%ADD27C,0.05622*%
%ADD28R,0.05622X0.05622*%
%ADD29C,0.00600*%
%ADD30C,0.02978*%
D10*
X0037693Y0147317D03*
X0045173Y0147317D03*
X0056193Y0164317D03*
X0063673Y0164317D03*
X0114193Y0119317D03*
X0121673Y0119317D03*
X0123673Y0215317D03*
X0116193Y0215317D03*
D11*
X0061933Y0202541D03*
X0061933Y0183092D03*
D12*
X0044476Y0121817D03*
X0037390Y0121817D03*
X0114390Y0130817D03*
X0121476Y0130817D03*
X0122476Y0227817D03*
X0115390Y0227817D03*
D13*
X0096933Y0252773D03*
X0096933Y0259860D03*
X0096433Y0238360D03*
X0096433Y0231273D03*
X0070433Y0253773D03*
X0070433Y0260860D03*
D14*
X0082933Y0258844D03*
X0082933Y0249789D03*
D15*
X0092827Y0150950D03*
X0092827Y0148391D03*
X0092827Y0145832D03*
X0092827Y0143273D03*
X0092827Y0140714D03*
X0092827Y0138155D03*
X0092827Y0135596D03*
X0092827Y0133037D03*
X0092827Y0130478D03*
X0092827Y0127919D03*
X0092827Y0125360D03*
X0092827Y0122801D03*
X0092827Y0120242D03*
X0092827Y0117683D03*
X0064039Y0117683D03*
X0064039Y0120242D03*
X0064039Y0122801D03*
X0064039Y0125360D03*
X0064039Y0127919D03*
X0064039Y0130478D03*
X0064039Y0133037D03*
X0064039Y0135596D03*
X0064039Y0138155D03*
X0064039Y0140714D03*
X0064039Y0143273D03*
X0064039Y0145832D03*
X0064039Y0148391D03*
X0064039Y0150950D03*
D16*
X0069933Y0235970D03*
X0069933Y0242663D03*
D17*
X0045433Y0249817D03*
D18*
X0055433Y0259817D03*
X0055433Y0239817D03*
X0035433Y0239817D03*
X0035433Y0259817D03*
D19*
X0054248Y0225254D03*
X0054248Y0217380D03*
X0045567Y0133817D03*
X0037299Y0133817D03*
X0114299Y0142317D03*
X0122567Y0142317D03*
X0122567Y0154817D03*
X0114299Y0154817D03*
D20*
X0111933Y0240617D03*
X0116933Y0240617D03*
X0121933Y0240617D03*
X0126933Y0240617D03*
X0126933Y0260017D03*
X0121933Y0260017D03*
X0116933Y0260017D03*
X0111933Y0260017D03*
D21*
X0067339Y0221317D03*
D22*
X0085433Y0046817D03*
X0115433Y0046817D03*
D23*
X0104683Y0048067D03*
X0096183Y0048067D03*
D24*
X0053833Y0082017D03*
X0053833Y0107617D03*
X0036033Y0107617D03*
X0036033Y0082017D03*
X0037433Y0162817D03*
X0037433Y0172817D03*
X0037433Y0182817D03*
X0037433Y0192817D03*
X0037433Y0202817D03*
X0037433Y0212817D03*
X0037433Y0222817D03*
D25*
X0078866Y0205033D03*
X0078866Y0203065D03*
X0078866Y0201096D03*
X0078866Y0199128D03*
X0078866Y0197159D03*
X0078866Y0195191D03*
X0078866Y0193222D03*
X0078866Y0191254D03*
X0078866Y0189285D03*
X0078866Y0187317D03*
X0078866Y0185348D03*
X0078866Y0183380D03*
X0078866Y0181411D03*
X0078866Y0179443D03*
X0078866Y0177474D03*
X0078866Y0175506D03*
X0078866Y0173537D03*
X0078866Y0171569D03*
X0078866Y0169600D03*
X0102000Y0169600D03*
X0102000Y0171569D03*
X0102000Y0173537D03*
X0102000Y0175506D03*
X0102000Y0177474D03*
X0102000Y0179443D03*
X0102000Y0181411D03*
X0102000Y0183380D03*
X0102000Y0185348D03*
X0102000Y0187317D03*
X0102000Y0189285D03*
X0102000Y0191254D03*
X0102000Y0193222D03*
X0102000Y0195191D03*
X0102000Y0197159D03*
X0102000Y0199128D03*
X0102000Y0201096D03*
X0102000Y0203065D03*
X0102000Y0205033D03*
D26*
X0116433Y0201317D03*
X0116433Y0191317D03*
D27*
X0104470Y0097655D03*
X0096596Y0097655D03*
X0086754Y0097655D03*
D28*
X0114313Y0097655D03*
D29*
X0029333Y0077191D02*
X0029333Y0076617D01*
X0072633Y0076617D01*
X0072633Y0081182D01*
X0072076Y0081739D01*
X0071383Y0083412D01*
X0071383Y0095222D01*
X0072076Y0096894D01*
X0073356Y0098174D01*
X0074249Y0098544D01*
X0074249Y0100523D01*
X0074183Y0100589D01*
X0074183Y0101044D01*
X0074505Y0101367D01*
X0083161Y0101367D01*
X0083483Y0101044D01*
X0083483Y0100148D01*
X0083618Y0100333D01*
X0084075Y0100791D01*
X0084599Y0101171D01*
X0085175Y0101465D01*
X0085791Y0101665D01*
X0086430Y0101766D01*
X0086454Y0101766D01*
X0086454Y0098067D01*
X0087054Y0098067D01*
X0087054Y0101766D01*
X0087077Y0101766D01*
X0087716Y0101665D01*
X0088332Y0101465D01*
X0088908Y0101171D01*
X0089432Y0100791D01*
X0089889Y0100333D01*
X0090270Y0099810D01*
X0090563Y0099233D01*
X0090763Y0098618D01*
X0090851Y0098067D01*
X0092885Y0098067D01*
X0092885Y0098393D01*
X0093450Y0099757D01*
X0094494Y0100801D01*
X0095608Y0101263D01*
X0095608Y0116098D01*
X0089704Y0116098D01*
X0089177Y0116625D01*
X0089177Y0118741D01*
X0089398Y0118962D01*
X0089177Y0119184D01*
X0089177Y0120992D01*
X0075430Y0120992D01*
X0056758Y0102320D01*
X0056758Y0102320D01*
X0056055Y0101617D01*
X0051311Y0101617D01*
X0041311Y0111617D01*
X0040608Y0112320D01*
X0040608Y0137689D01*
X0046383Y0143464D01*
X0042383Y0143464D01*
X0042383Y0141695D01*
X0041680Y0140992D01*
X0038633Y0137945D01*
X0038633Y0137079D01*
X0040034Y0137079D01*
X0040561Y0136552D01*
X0040561Y0131082D01*
X0040034Y0130554D01*
X0034883Y0130554D01*
X0034883Y0125814D01*
X0035618Y0125079D01*
X0039337Y0125079D01*
X0039865Y0124552D01*
X0039865Y0119082D01*
X0039337Y0118554D01*
X0038008Y0118554D01*
X0038008Y0111778D01*
X0038639Y0111516D01*
X0039933Y0110222D01*
X0040633Y0108532D01*
X0040633Y0106702D01*
X0039933Y0105011D01*
X0038639Y0103717D01*
X0036948Y0103017D01*
X0035118Y0103017D01*
X0033427Y0103717D01*
X0032133Y0105011D01*
X0031433Y0106702D01*
X0031433Y0108532D01*
X0032133Y0110222D01*
X0033427Y0111516D01*
X0035118Y0112217D01*
X0035608Y0112217D01*
X0035608Y0118554D01*
X0035442Y0118554D01*
X0034915Y0119082D01*
X0034915Y0122388D01*
X0032483Y0124820D01*
X0032483Y0137064D01*
X0033186Y0137767D01*
X0036233Y0140814D01*
X0036233Y0143464D01*
X0034761Y0143464D01*
X0034234Y0143991D01*
X0034234Y0150642D01*
X0034761Y0151169D01*
X0039983Y0151169D01*
X0039983Y0151695D01*
X0031936Y0159742D01*
X0031233Y0160445D01*
X0031233Y0205189D01*
X0034358Y0208314D01*
X0034922Y0208878D01*
X0034827Y0208917D01*
X0033533Y0210211D01*
X0032833Y0211902D01*
X0032833Y0213732D01*
X0033533Y0215422D01*
X0034827Y0216716D01*
X0036518Y0217417D01*
X0038348Y0217417D01*
X0040039Y0216716D01*
X0041333Y0215422D01*
X0042033Y0213732D01*
X0042033Y0211902D01*
X0041333Y0210211D01*
X0040039Y0208917D01*
X0039944Y0208878D01*
X0056680Y0192142D01*
X0057383Y0191439D01*
X0057383Y0189058D01*
X0061633Y0189058D01*
X0061633Y0183392D01*
X0062233Y0183392D01*
X0067623Y0183392D01*
X0067623Y0187929D01*
X0067534Y0188259D01*
X0067363Y0188556D01*
X0067121Y0188798D01*
X0066825Y0188969D01*
X0066494Y0189058D01*
X0062233Y0189058D01*
X0062233Y0183392D01*
X0062233Y0182792D01*
X0062233Y0177127D01*
X0066494Y0177127D01*
X0066825Y0177215D01*
X0067121Y0177387D01*
X0067363Y0177629D01*
X0067534Y0177925D01*
X0067623Y0178256D01*
X0067623Y0182792D01*
X0062233Y0182792D01*
X0061633Y0182792D01*
X0061633Y0177127D01*
X0057383Y0177127D01*
X0057383Y0168169D01*
X0059125Y0168169D01*
X0059652Y0167642D01*
X0059652Y0160991D01*
X0059125Y0160464D01*
X0053261Y0160464D01*
X0052734Y0160991D01*
X0052734Y0167642D01*
X0053261Y0168169D01*
X0054983Y0168169D01*
X0054983Y0190445D01*
X0042033Y0203395D01*
X0042033Y0201902D01*
X0041451Y0200496D01*
X0046133Y0195814D01*
X0046133Y0151169D01*
X0048105Y0151169D01*
X0048632Y0150642D01*
X0048632Y0145814D01*
X0049180Y0145267D01*
X0049805Y0144642D01*
X0060522Y0144642D01*
X0060389Y0144774D01*
X0060389Y0146890D01*
X0060611Y0147112D01*
X0060389Y0147334D01*
X0060389Y0149449D01*
X0060611Y0149671D01*
X0060389Y0149893D01*
X0060389Y0152008D01*
X0060917Y0152535D01*
X0063492Y0152535D01*
X0063637Y0152592D01*
X0066919Y0155875D01*
X0066919Y0157556D01*
X0068319Y0158956D01*
X0070298Y0158956D01*
X0071697Y0157556D01*
X0071697Y0155577D01*
X0070298Y0154178D01*
X0068616Y0154178D01*
X0066974Y0152535D01*
X0067162Y0152535D01*
X0067689Y0152008D01*
X0067689Y0149893D01*
X0067468Y0149671D01*
X0067689Y0149449D01*
X0067689Y0147334D01*
X0067468Y0147112D01*
X0067689Y0146890D01*
X0067689Y0144774D01*
X0067468Y0144553D01*
X0067689Y0144331D01*
X0067689Y0142215D01*
X0067468Y0141994D01*
X0067689Y0141772D01*
X0067689Y0139656D01*
X0067468Y0139435D01*
X0067689Y0139213D01*
X0067689Y0137220D01*
X0067830Y0137079D01*
X0068001Y0136783D01*
X0068089Y0136452D01*
X0068089Y0135639D01*
X0064082Y0135639D01*
X0064082Y0135554D01*
X0068089Y0135554D01*
X0068089Y0134740D01*
X0068001Y0134409D01*
X0067830Y0134113D01*
X0067689Y0133973D01*
X0067689Y0131979D01*
X0067468Y0131758D01*
X0067689Y0131536D01*
X0067689Y0129420D01*
X0067468Y0129198D01*
X0067689Y0128977D01*
X0067689Y0126861D01*
X0067468Y0126639D01*
X0067689Y0126418D01*
X0067689Y0124302D01*
X0067468Y0124080D01*
X0067689Y0123859D01*
X0067689Y0121743D01*
X0067468Y0121521D01*
X0067689Y0121300D01*
X0067689Y0119184D01*
X0067468Y0118962D01*
X0067689Y0118741D01*
X0067689Y0116645D01*
X0074436Y0123392D01*
X0089177Y0123392D01*
X0089177Y0123736D01*
X0089037Y0123877D01*
X0088865Y0124173D01*
X0088777Y0124504D01*
X0088777Y0125317D01*
X0092784Y0125317D01*
X0092784Y0125402D01*
X0088777Y0125402D01*
X0088777Y0126216D01*
X0088865Y0126547D01*
X0089037Y0126843D01*
X0089177Y0126983D01*
X0089177Y0128977D01*
X0089398Y0129198D01*
X0089177Y0129420D01*
X0089177Y0131414D01*
X0089037Y0131554D01*
X0088865Y0131850D01*
X0088777Y0132181D01*
X0088777Y0132995D01*
X0092784Y0132995D01*
X0092784Y0133080D01*
X0088777Y0133080D01*
X0088777Y0133893D01*
X0088865Y0134224D01*
X0089037Y0134520D01*
X0089177Y0134661D01*
X0089177Y0135001D01*
X0088733Y0135445D01*
X0086233Y0137945D01*
X0086233Y0152689D01*
X0086936Y0153392D01*
X0093186Y0159642D01*
X0117305Y0159642D01*
X0118008Y0158939D01*
X0119258Y0157689D01*
X0119258Y0151695D01*
X0118555Y0150992D01*
X0115508Y0147945D01*
X0115508Y0145579D01*
X0117034Y0145579D01*
X0117561Y0145052D01*
X0117561Y0139582D01*
X0117034Y0139054D01*
X0111564Y0139054D01*
X0111037Y0139582D01*
X0111037Y0145052D01*
X0111564Y0145579D01*
X0113108Y0145579D01*
X0113108Y0148939D01*
X0115724Y0151554D01*
X0111564Y0151554D01*
X0111037Y0152082D01*
X0111037Y0153492D01*
X0092305Y0153492D01*
X0091349Y0152535D01*
X0095950Y0152535D01*
X0096477Y0152008D01*
X0096477Y0149893D01*
X0096255Y0149671D01*
X0096477Y0149449D01*
X0096477Y0147456D01*
X0096617Y0147316D01*
X0096788Y0147019D01*
X0096877Y0146689D01*
X0096877Y0145875D01*
X0092869Y0145875D01*
X0092869Y0145790D01*
X0092869Y0143316D01*
X0092784Y0143316D01*
X0092784Y0145258D01*
X0092784Y0145790D01*
X0092869Y0145790D01*
X0096877Y0145790D01*
X0096877Y0144976D01*
X0096788Y0144646D01*
X0096735Y0144553D01*
X0096788Y0144460D01*
X0096877Y0144129D01*
X0096877Y0143316D01*
X0092869Y0143316D01*
X0092869Y0143231D01*
X0096877Y0143231D01*
X0096877Y0142417D01*
X0096788Y0142086D01*
X0096617Y0141790D01*
X0096477Y0141650D01*
X0096477Y0139656D01*
X0096255Y0139435D01*
X0096477Y0139213D01*
X0096477Y0137097D01*
X0096255Y0136876D01*
X0096477Y0136654D01*
X0096477Y0134661D01*
X0096617Y0134520D01*
X0096788Y0134224D01*
X0096877Y0133893D01*
X0096877Y0133080D01*
X0092869Y0133080D01*
X0092869Y0132995D01*
X0096877Y0132995D01*
X0096877Y0132181D01*
X0096788Y0131850D01*
X0096617Y0131554D01*
X0096580Y0131517D01*
X0099255Y0131517D01*
X0100444Y0132706D01*
X0102423Y0132706D01*
X0103822Y0131306D01*
X0103822Y0129327D01*
X0102423Y0127928D01*
X0100444Y0127928D01*
X0099255Y0129117D01*
X0096337Y0129117D01*
X0096477Y0128977D01*
X0096477Y0126983D01*
X0096617Y0126843D01*
X0096788Y0126547D01*
X0096877Y0126216D01*
X0096877Y0125402D01*
X0092869Y0125402D01*
X0092869Y0125317D01*
X0096877Y0125317D01*
X0096877Y0124504D01*
X0096788Y0124173D01*
X0096617Y0123877D01*
X0096477Y0123736D01*
X0096477Y0123392D01*
X0111680Y0123392D01*
X0111902Y0123169D01*
X0117125Y0123169D01*
X0117652Y0122642D01*
X0117652Y0115991D01*
X0117125Y0115464D01*
X0111261Y0115464D01*
X0110734Y0115991D01*
X0110734Y0120944D01*
X0110686Y0120992D01*
X0100455Y0120992D01*
X0104630Y0116817D01*
X0105333Y0116114D01*
X0105333Y0101314D01*
X0106572Y0100801D01*
X0107616Y0099757D01*
X0108181Y0098393D01*
X0108181Y0098067D01*
X0110602Y0098067D01*
X0110602Y0100839D01*
X0111129Y0101366D01*
X0117496Y0101366D01*
X0118024Y0100839D01*
X0118024Y0098067D01*
X0118148Y0098067D01*
X0118256Y0098174D01*
X0119928Y0098867D01*
X0120783Y0098867D01*
X0120783Y0101044D01*
X0121105Y0101367D01*
X0121561Y0101367D01*
X0121661Y0101267D01*
X0126040Y0101267D01*
X0126115Y0101341D01*
X0126526Y0101341D01*
X0126817Y0101050D01*
X0126817Y0101010D01*
X0126883Y0100944D01*
X0126883Y0100489D01*
X0126817Y0100423D01*
X0126817Y0098504D01*
X0127710Y0098135D01*
X0128990Y0096855D01*
X0129683Y0095182D01*
X0129683Y0083412D01*
X0128990Y0081739D01*
X0127733Y0080482D01*
X0127733Y0076617D01*
X0132633Y0076617D01*
X0132633Y0248127D01*
X0132434Y0247928D01*
X0130455Y0247928D01*
X0129055Y0249327D01*
X0129055Y0251306D01*
X0130244Y0252495D01*
X0130244Y0255009D01*
X0128883Y0256370D01*
X0128883Y0255744D01*
X0128356Y0255217D01*
X0125510Y0255217D01*
X0124983Y0255744D01*
X0124983Y0264289D01*
X0125510Y0264817D01*
X0128356Y0264817D01*
X0128883Y0264289D01*
X0128883Y0259764D01*
X0131941Y0256706D01*
X0132633Y0256014D01*
X0132633Y0265517D01*
X0029233Y0265517D01*
X0029233Y0077433D01*
X0029333Y0077191D01*
X0029329Y0077201D02*
X0072633Y0077201D01*
X0072633Y0077799D02*
X0055672Y0077799D01*
X0056439Y0078117D02*
X0057733Y0079411D01*
X0058433Y0081102D01*
X0058433Y0082932D01*
X0057733Y0084622D01*
X0056439Y0085916D01*
X0054748Y0086617D01*
X0052918Y0086617D01*
X0051227Y0085916D01*
X0049933Y0084622D01*
X0049233Y0082932D01*
X0049233Y0081102D01*
X0049933Y0079411D01*
X0051227Y0078117D01*
X0052918Y0077417D01*
X0054748Y0077417D01*
X0056439Y0078117D01*
X0056720Y0078398D02*
X0072633Y0078398D01*
X0072633Y0078997D02*
X0057318Y0078997D01*
X0057809Y0079595D02*
X0072633Y0079595D01*
X0072633Y0080194D02*
X0058057Y0080194D01*
X0058305Y0080792D02*
X0072633Y0080792D01*
X0072424Y0081391D02*
X0058433Y0081391D01*
X0058433Y0081989D02*
X0071972Y0081989D01*
X0071724Y0082588D02*
X0058433Y0082588D01*
X0058328Y0083186D02*
X0071476Y0083186D01*
X0071383Y0083785D02*
X0058080Y0083785D01*
X0057832Y0084383D02*
X0071383Y0084383D01*
X0071383Y0084982D02*
X0057373Y0084982D01*
X0056775Y0085580D02*
X0071383Y0085580D01*
X0071383Y0086179D02*
X0055805Y0086179D01*
X0051861Y0086179D02*
X0038005Y0086179D01*
X0038639Y0085916D02*
X0036948Y0086617D01*
X0035118Y0086617D01*
X0033427Y0085916D01*
X0032133Y0084622D01*
X0031433Y0082932D01*
X0031433Y0081102D01*
X0032133Y0079411D01*
X0033427Y0078117D01*
X0035118Y0077417D01*
X0036948Y0077417D01*
X0038639Y0078117D01*
X0039933Y0079411D01*
X0040633Y0081102D01*
X0040633Y0082932D01*
X0039933Y0084622D01*
X0038639Y0085916D01*
X0038975Y0085580D02*
X0050891Y0085580D01*
X0050293Y0084982D02*
X0039573Y0084982D01*
X0040032Y0084383D02*
X0049834Y0084383D01*
X0049586Y0083785D02*
X0040280Y0083785D01*
X0040528Y0083186D02*
X0049338Y0083186D01*
X0049233Y0082588D02*
X0040633Y0082588D01*
X0040633Y0081989D02*
X0049233Y0081989D01*
X0049233Y0081391D02*
X0040633Y0081391D01*
X0040505Y0080792D02*
X0049361Y0080792D01*
X0049609Y0080194D02*
X0040257Y0080194D01*
X0040009Y0079595D02*
X0049857Y0079595D01*
X0050348Y0078997D02*
X0039518Y0078997D01*
X0038920Y0078398D02*
X0050946Y0078398D01*
X0051994Y0077799D02*
X0037872Y0077799D01*
X0034194Y0077799D02*
X0029233Y0077799D01*
X0029233Y0078398D02*
X0033146Y0078398D01*
X0032548Y0078997D02*
X0029233Y0078997D01*
X0029233Y0079595D02*
X0032057Y0079595D01*
X0031809Y0080194D02*
X0029233Y0080194D01*
X0029233Y0080792D02*
X0031561Y0080792D01*
X0031433Y0081391D02*
X0029233Y0081391D01*
X0029233Y0081989D02*
X0031433Y0081989D01*
X0031433Y0082588D02*
X0029233Y0082588D01*
X0029233Y0083186D02*
X0031538Y0083186D01*
X0031786Y0083785D02*
X0029233Y0083785D01*
X0029233Y0084383D02*
X0032034Y0084383D01*
X0032493Y0084982D02*
X0029233Y0084982D01*
X0029233Y0085580D02*
X0033091Y0085580D01*
X0034061Y0086179D02*
X0029233Y0086179D01*
X0029233Y0086777D02*
X0071383Y0086777D01*
X0071383Y0087376D02*
X0029233Y0087376D01*
X0029233Y0087974D02*
X0071383Y0087974D01*
X0071383Y0088573D02*
X0029233Y0088573D01*
X0029233Y0089171D02*
X0071383Y0089171D01*
X0071383Y0089770D02*
X0029233Y0089770D01*
X0029233Y0090368D02*
X0071383Y0090368D01*
X0071383Y0090967D02*
X0029233Y0090967D01*
X0029233Y0091565D02*
X0071383Y0091565D01*
X0071383Y0092164D02*
X0029233Y0092164D01*
X0029233Y0092762D02*
X0071383Y0092762D01*
X0071383Y0093361D02*
X0029233Y0093361D01*
X0029233Y0093959D02*
X0071383Y0093959D01*
X0071383Y0094558D02*
X0029233Y0094558D01*
X0029233Y0095156D02*
X0071383Y0095156D01*
X0071604Y0095755D02*
X0029233Y0095755D01*
X0029233Y0096353D02*
X0071852Y0096353D01*
X0072134Y0096952D02*
X0029233Y0096952D01*
X0029233Y0097550D02*
X0072732Y0097550D01*
X0073331Y0098149D02*
X0029233Y0098149D01*
X0029233Y0098747D02*
X0074249Y0098747D01*
X0074249Y0099346D02*
X0029233Y0099346D01*
X0029233Y0099944D02*
X0074249Y0099944D01*
X0074229Y0100543D02*
X0029233Y0100543D01*
X0029233Y0101141D02*
X0074280Y0101141D01*
X0067550Y0113112D02*
X0095608Y0113112D01*
X0095608Y0113710D02*
X0068149Y0113710D01*
X0068747Y0114309D02*
X0095608Y0114309D01*
X0095608Y0114907D02*
X0069346Y0114907D01*
X0069944Y0115506D02*
X0095608Y0115506D01*
X0096808Y0117342D02*
X0096433Y0117717D01*
X0096433Y0117683D01*
X0092827Y0117683D01*
X0092827Y0120242D02*
X0099508Y0120242D01*
X0104133Y0115617D01*
X0104133Y0099854D01*
X0104470Y0099517D01*
X0104470Y0097655D01*
X0104470Y0097354D01*
X0104308Y0097192D01*
X0104308Y0094067D01*
X0102433Y0092192D01*
X0102433Y0050317D01*
X0104683Y0048067D01*
X0098058Y0050317D02*
X0096183Y0048442D01*
X0096183Y0048067D01*
X0098058Y0050317D02*
X0098058Y0092192D01*
X0096808Y0093442D01*
X0096808Y0097192D01*
X0096596Y0097404D01*
X0096596Y0097655D01*
X0096808Y0097655D01*
X0096808Y0117342D01*
X0095608Y0112513D02*
X0066952Y0112513D01*
X0066353Y0111915D02*
X0095608Y0111915D01*
X0095608Y0111316D02*
X0065755Y0111316D01*
X0065156Y0110718D02*
X0095608Y0110718D01*
X0095608Y0110119D02*
X0064558Y0110119D01*
X0063959Y0109521D02*
X0095608Y0109521D01*
X0095608Y0108922D02*
X0063361Y0108922D01*
X0062762Y0108324D02*
X0095608Y0108324D01*
X0095608Y0107725D02*
X0062164Y0107725D01*
X0061565Y0107127D02*
X0095608Y0107127D01*
X0095608Y0106528D02*
X0060967Y0106528D01*
X0060368Y0105930D02*
X0095608Y0105930D01*
X0095608Y0105331D02*
X0059770Y0105331D01*
X0059171Y0104733D02*
X0095608Y0104733D01*
X0095608Y0104134D02*
X0058573Y0104134D01*
X0057974Y0103535D02*
X0095608Y0103535D01*
X0095608Y0102937D02*
X0057375Y0102937D01*
X0056777Y0102338D02*
X0095608Y0102338D01*
X0095608Y0101740D02*
X0087243Y0101740D01*
X0087054Y0101740D02*
X0086454Y0101740D01*
X0086264Y0101740D02*
X0056178Y0101740D01*
X0055558Y0102817D02*
X0051808Y0102817D01*
X0041808Y0112817D01*
X0041808Y0137192D01*
X0048683Y0144067D01*
X0049308Y0143442D01*
X0063683Y0143442D01*
X0064039Y0143273D01*
X0064308Y0140942D02*
X0064039Y0140714D01*
X0055831Y0140714D01*
X0054933Y0139817D01*
X0053122Y0138249D02*
X0044563Y0138249D01*
X0045161Y0138848D02*
X0052544Y0138848D01*
X0052544Y0138827D02*
X0053944Y0137428D01*
X0055923Y0137428D01*
X0057322Y0138827D01*
X0057322Y0139514D01*
X0060532Y0139514D01*
X0060611Y0139435D01*
X0060389Y0139213D01*
X0060389Y0137220D01*
X0060249Y0137079D01*
X0060078Y0136783D01*
X0059989Y0136452D01*
X0059989Y0135639D01*
X0063997Y0135639D01*
X0063997Y0135554D01*
X0059989Y0135554D01*
X0059989Y0134740D01*
X0060078Y0134409D01*
X0060249Y0134113D01*
X0060389Y0133973D01*
X0060389Y0131979D01*
X0060611Y0131758D01*
X0060389Y0131536D01*
X0060389Y0129420D01*
X0060611Y0129198D01*
X0060389Y0128977D01*
X0060389Y0126861D01*
X0060611Y0126639D01*
X0060389Y0126418D01*
X0060389Y0124302D01*
X0060611Y0124080D01*
X0060389Y0123859D01*
X0060389Y0121743D01*
X0060611Y0121521D01*
X0060389Y0121300D01*
X0060389Y0119184D01*
X0060611Y0118962D01*
X0060389Y0118741D01*
X0060389Y0116625D01*
X0060917Y0116098D01*
X0067142Y0116098D01*
X0058361Y0107317D01*
X0054133Y0107317D01*
X0054133Y0107917D01*
X0053533Y0107917D01*
X0053533Y0112617D01*
X0053440Y0112617D01*
X0052662Y0112493D01*
X0051914Y0112250D01*
X0051212Y0111893D01*
X0050576Y0111430D01*
X0050019Y0110874D01*
X0049557Y0110237D01*
X0049199Y0109536D01*
X0048956Y0108787D01*
X0048833Y0108010D01*
X0048833Y0107917D01*
X0053533Y0107917D01*
X0053533Y0107317D01*
X0049005Y0107317D01*
X0043008Y0113314D01*
X0043008Y0118154D01*
X0044176Y0118154D01*
X0044176Y0121517D01*
X0044776Y0121517D01*
X0044776Y0122117D01*
X0044176Y0122117D01*
X0044176Y0125479D01*
X0043008Y0125479D01*
X0043008Y0130161D01*
X0043034Y0130154D01*
X0045267Y0130154D01*
X0045267Y0133517D01*
X0045867Y0133517D01*
X0045867Y0134117D01*
X0045267Y0134117D01*
X0045267Y0137479D01*
X0043792Y0137479D01*
X0048683Y0142370D01*
X0048811Y0142242D01*
X0060389Y0142242D01*
X0060389Y0142215D01*
X0060611Y0141994D01*
X0060532Y0141914D01*
X0056214Y0141914D01*
X0055923Y0142206D01*
X0053944Y0142206D01*
X0052544Y0140806D01*
X0052544Y0138827D01*
X0052544Y0139446D02*
X0045760Y0139446D01*
X0046358Y0140045D02*
X0052544Y0140045D01*
X0052544Y0140643D02*
X0046957Y0140643D01*
X0047555Y0141242D02*
X0052980Y0141242D01*
X0053578Y0141840D02*
X0048154Y0141840D01*
X0048683Y0144067D02*
X0045558Y0147192D01*
X0045173Y0147317D01*
X0044933Y0147817D01*
X0044933Y0195317D01*
X0037433Y0202817D01*
X0039308Y0207817D02*
X0035558Y0207817D01*
X0032433Y0204692D01*
X0032433Y0160942D01*
X0041183Y0152192D01*
X0041183Y0142192D01*
X0037433Y0138442D01*
X0037433Y0134067D01*
X0037299Y0133817D01*
X0038633Y0137651D02*
X0040608Y0137651D01*
X0040608Y0137052D02*
X0040061Y0137052D01*
X0040561Y0136454D02*
X0040608Y0136454D01*
X0040608Y0135855D02*
X0040561Y0135855D01*
X0040561Y0135257D02*
X0040608Y0135257D01*
X0040608Y0134658D02*
X0040561Y0134658D01*
X0040561Y0134060D02*
X0040608Y0134060D01*
X0040608Y0133461D02*
X0040561Y0133461D01*
X0040561Y0132863D02*
X0040608Y0132863D01*
X0040608Y0132264D02*
X0040561Y0132264D01*
X0040561Y0131666D02*
X0040608Y0131666D01*
X0040608Y0131067D02*
X0040547Y0131067D01*
X0040608Y0130468D02*
X0034883Y0130468D01*
X0034883Y0129870D02*
X0040608Y0129870D01*
X0040608Y0129271D02*
X0034883Y0129271D01*
X0034883Y0128673D02*
X0040608Y0128673D01*
X0040608Y0128074D02*
X0034883Y0128074D01*
X0034883Y0127476D02*
X0040608Y0127476D01*
X0040608Y0126877D02*
X0034883Y0126877D01*
X0034883Y0126279D02*
X0040608Y0126279D01*
X0040608Y0125680D02*
X0035016Y0125680D01*
X0035615Y0125082D02*
X0040608Y0125082D01*
X0040608Y0124483D02*
X0039865Y0124483D01*
X0039865Y0123885D02*
X0040608Y0123885D01*
X0040608Y0123286D02*
X0039865Y0123286D01*
X0039865Y0122688D02*
X0040608Y0122688D01*
X0040608Y0122089D02*
X0039865Y0122089D01*
X0039865Y0121491D02*
X0040608Y0121491D01*
X0040608Y0120892D02*
X0039865Y0120892D01*
X0039865Y0120294D02*
X0040608Y0120294D01*
X0040608Y0119695D02*
X0039865Y0119695D01*
X0039865Y0119097D02*
X0040608Y0119097D01*
X0040608Y0118498D02*
X0038008Y0118498D01*
X0038008Y0117900D02*
X0040608Y0117900D01*
X0040608Y0117301D02*
X0038008Y0117301D01*
X0038008Y0116703D02*
X0040608Y0116703D01*
X0040608Y0116104D02*
X0038008Y0116104D01*
X0038008Y0115506D02*
X0040608Y0115506D01*
X0040608Y0114907D02*
X0038008Y0114907D01*
X0038008Y0114309D02*
X0040608Y0114309D01*
X0040608Y0113710D02*
X0038008Y0113710D01*
X0038008Y0113112D02*
X0040608Y0113112D01*
X0040608Y0112513D02*
X0038008Y0112513D01*
X0038008Y0111915D02*
X0041013Y0111915D01*
X0041611Y0111316D02*
X0038839Y0111316D01*
X0039437Y0110718D02*
X0042210Y0110718D01*
X0042808Y0110119D02*
X0039975Y0110119D01*
X0040223Y0109521D02*
X0043407Y0109521D01*
X0044006Y0108922D02*
X0040471Y0108922D01*
X0040633Y0108324D02*
X0044604Y0108324D01*
X0045203Y0107725D02*
X0040633Y0107725D01*
X0040633Y0107127D02*
X0045801Y0107127D01*
X0046400Y0106528D02*
X0040561Y0106528D01*
X0040313Y0105930D02*
X0046998Y0105930D01*
X0047597Y0105331D02*
X0040065Y0105331D01*
X0039654Y0104733D02*
X0048195Y0104733D01*
X0048794Y0104134D02*
X0039056Y0104134D01*
X0038201Y0103535D02*
X0049392Y0103535D01*
X0049991Y0102937D02*
X0029233Y0102937D01*
X0029233Y0103535D02*
X0033865Y0103535D01*
X0033010Y0104134D02*
X0029233Y0104134D01*
X0029233Y0104733D02*
X0032412Y0104733D01*
X0032001Y0105331D02*
X0029233Y0105331D01*
X0029233Y0105930D02*
X0031753Y0105930D01*
X0031505Y0106528D02*
X0029233Y0106528D01*
X0029233Y0107127D02*
X0031433Y0107127D01*
X0031433Y0107725D02*
X0029233Y0107725D01*
X0029233Y0108324D02*
X0031433Y0108324D01*
X0031595Y0108922D02*
X0029233Y0108922D01*
X0029233Y0109521D02*
X0031843Y0109521D01*
X0032091Y0110119D02*
X0029233Y0110119D01*
X0029233Y0110718D02*
X0032629Y0110718D01*
X0033227Y0111316D02*
X0029233Y0111316D01*
X0029233Y0111915D02*
X0034389Y0111915D01*
X0035608Y0112513D02*
X0029233Y0112513D01*
X0029233Y0113112D02*
X0035608Y0113112D01*
X0035608Y0113710D02*
X0029233Y0113710D01*
X0029233Y0114309D02*
X0035608Y0114309D01*
X0035608Y0114907D02*
X0029233Y0114907D01*
X0029233Y0115506D02*
X0035608Y0115506D01*
X0035608Y0116104D02*
X0029233Y0116104D01*
X0029233Y0116703D02*
X0035608Y0116703D01*
X0035608Y0117301D02*
X0029233Y0117301D01*
X0029233Y0117900D02*
X0035608Y0117900D01*
X0035608Y0118498D02*
X0029233Y0118498D01*
X0029233Y0119097D02*
X0034915Y0119097D01*
X0034915Y0119695D02*
X0029233Y0119695D01*
X0029233Y0120294D02*
X0034915Y0120294D01*
X0034915Y0120892D02*
X0029233Y0120892D01*
X0029233Y0121491D02*
X0034915Y0121491D01*
X0034915Y0122089D02*
X0029233Y0122089D01*
X0029233Y0122688D02*
X0034615Y0122688D01*
X0034016Y0123286D02*
X0029233Y0123286D01*
X0029233Y0123885D02*
X0033418Y0123885D01*
X0032819Y0124483D02*
X0029233Y0124483D01*
X0029233Y0125082D02*
X0032483Y0125082D01*
X0032483Y0125680D02*
X0029233Y0125680D01*
X0029233Y0126279D02*
X0032483Y0126279D01*
X0032483Y0126877D02*
X0029233Y0126877D01*
X0029233Y0127476D02*
X0032483Y0127476D01*
X0032483Y0128074D02*
X0029233Y0128074D01*
X0029233Y0128673D02*
X0032483Y0128673D01*
X0032483Y0129271D02*
X0029233Y0129271D01*
X0029233Y0129870D02*
X0032483Y0129870D01*
X0032483Y0130468D02*
X0029233Y0130468D01*
X0029233Y0131067D02*
X0032483Y0131067D01*
X0032483Y0131666D02*
X0029233Y0131666D01*
X0029233Y0132264D02*
X0032483Y0132264D01*
X0032483Y0132863D02*
X0029233Y0132863D01*
X0029233Y0133461D02*
X0032483Y0133461D01*
X0032483Y0134060D02*
X0029233Y0134060D01*
X0029233Y0134658D02*
X0032483Y0134658D01*
X0032483Y0135257D02*
X0029233Y0135257D01*
X0029233Y0135855D02*
X0032483Y0135855D01*
X0032483Y0136454D02*
X0029233Y0136454D01*
X0029233Y0137052D02*
X0032483Y0137052D01*
X0033070Y0137651D02*
X0029233Y0137651D01*
X0029233Y0138249D02*
X0033669Y0138249D01*
X0034267Y0138848D02*
X0029233Y0138848D01*
X0029233Y0139446D02*
X0034866Y0139446D01*
X0035464Y0140045D02*
X0029233Y0140045D01*
X0029233Y0140643D02*
X0036063Y0140643D01*
X0036233Y0141242D02*
X0029233Y0141242D01*
X0029233Y0141840D02*
X0036233Y0141840D01*
X0036233Y0142439D02*
X0029233Y0142439D01*
X0029233Y0143037D02*
X0036233Y0143037D01*
X0034589Y0143636D02*
X0029233Y0143636D01*
X0029233Y0144234D02*
X0034234Y0144234D01*
X0034234Y0144833D02*
X0029233Y0144833D01*
X0029233Y0145431D02*
X0034234Y0145431D01*
X0034234Y0146030D02*
X0029233Y0146030D01*
X0029233Y0146628D02*
X0034234Y0146628D01*
X0034234Y0147227D02*
X0029233Y0147227D01*
X0029233Y0147825D02*
X0034234Y0147825D01*
X0034234Y0148424D02*
X0029233Y0148424D01*
X0029233Y0149022D02*
X0034234Y0149022D01*
X0034234Y0149621D02*
X0029233Y0149621D01*
X0029233Y0150219D02*
X0034234Y0150219D01*
X0034410Y0150818D02*
X0029233Y0150818D01*
X0029233Y0151416D02*
X0039983Y0151416D01*
X0039663Y0152015D02*
X0029233Y0152015D01*
X0029233Y0152613D02*
X0039064Y0152613D01*
X0038466Y0153212D02*
X0029233Y0153212D01*
X0029233Y0153810D02*
X0037867Y0153810D01*
X0037269Y0154409D02*
X0029233Y0154409D01*
X0029233Y0155007D02*
X0036670Y0155007D01*
X0036072Y0155606D02*
X0029233Y0155606D01*
X0029233Y0156204D02*
X0035473Y0156204D01*
X0034875Y0156803D02*
X0029233Y0156803D01*
X0029233Y0157402D02*
X0034276Y0157402D01*
X0033678Y0158000D02*
X0029233Y0158000D01*
X0029233Y0158599D02*
X0033079Y0158599D01*
X0032481Y0159197D02*
X0029233Y0159197D01*
X0029233Y0159796D02*
X0031882Y0159796D01*
X0031284Y0160394D02*
X0029233Y0160394D01*
X0029233Y0160993D02*
X0031233Y0160993D01*
X0031233Y0161591D02*
X0029233Y0161591D01*
X0029233Y0162190D02*
X0031233Y0162190D01*
X0031233Y0162788D02*
X0029233Y0162788D01*
X0029233Y0163387D02*
X0031233Y0163387D01*
X0031233Y0163985D02*
X0029233Y0163985D01*
X0029233Y0164584D02*
X0031233Y0164584D01*
X0031233Y0165182D02*
X0029233Y0165182D01*
X0029233Y0165781D02*
X0031233Y0165781D01*
X0031233Y0166379D02*
X0029233Y0166379D01*
X0029233Y0166978D02*
X0031233Y0166978D01*
X0031233Y0167576D02*
X0029233Y0167576D01*
X0029233Y0168175D02*
X0031233Y0168175D01*
X0031233Y0168773D02*
X0029233Y0168773D01*
X0029233Y0169372D02*
X0031233Y0169372D01*
X0031233Y0169970D02*
X0029233Y0169970D01*
X0029233Y0170569D02*
X0031233Y0170569D01*
X0031233Y0171167D02*
X0029233Y0171167D01*
X0029233Y0171766D02*
X0031233Y0171766D01*
X0031233Y0172364D02*
X0029233Y0172364D01*
X0029233Y0172963D02*
X0031233Y0172963D01*
X0031233Y0173561D02*
X0029233Y0173561D01*
X0029233Y0174160D02*
X0031233Y0174160D01*
X0031233Y0174758D02*
X0029233Y0174758D01*
X0029233Y0175357D02*
X0031233Y0175357D01*
X0031233Y0175955D02*
X0029233Y0175955D01*
X0029233Y0176554D02*
X0031233Y0176554D01*
X0031233Y0177152D02*
X0029233Y0177152D01*
X0029233Y0177751D02*
X0031233Y0177751D01*
X0031233Y0178349D02*
X0029233Y0178349D01*
X0029233Y0178948D02*
X0031233Y0178948D01*
X0031233Y0179546D02*
X0029233Y0179546D01*
X0029233Y0180145D02*
X0031233Y0180145D01*
X0031233Y0180743D02*
X0029233Y0180743D01*
X0029233Y0181342D02*
X0031233Y0181342D01*
X0031233Y0181940D02*
X0029233Y0181940D01*
X0029233Y0182539D02*
X0031233Y0182539D01*
X0031233Y0183137D02*
X0029233Y0183137D01*
X0029233Y0183736D02*
X0031233Y0183736D01*
X0031233Y0184335D02*
X0029233Y0184335D01*
X0029233Y0184933D02*
X0031233Y0184933D01*
X0031233Y0185532D02*
X0029233Y0185532D01*
X0029233Y0186130D02*
X0031233Y0186130D01*
X0031233Y0186729D02*
X0029233Y0186729D01*
X0029233Y0187327D02*
X0031233Y0187327D01*
X0031233Y0187926D02*
X0029233Y0187926D01*
X0029233Y0188524D02*
X0031233Y0188524D01*
X0031233Y0189123D02*
X0029233Y0189123D01*
X0029233Y0189721D02*
X0031233Y0189721D01*
X0031233Y0190320D02*
X0029233Y0190320D01*
X0029233Y0190918D02*
X0031233Y0190918D01*
X0031233Y0191517D02*
X0029233Y0191517D01*
X0029233Y0192115D02*
X0031233Y0192115D01*
X0031233Y0192714D02*
X0029233Y0192714D01*
X0029233Y0193312D02*
X0031233Y0193312D01*
X0031233Y0193911D02*
X0029233Y0193911D01*
X0029233Y0194509D02*
X0031233Y0194509D01*
X0031233Y0195108D02*
X0029233Y0195108D01*
X0029233Y0195706D02*
X0031233Y0195706D01*
X0031233Y0196305D02*
X0029233Y0196305D01*
X0029233Y0196903D02*
X0031233Y0196903D01*
X0031233Y0197502D02*
X0029233Y0197502D01*
X0029233Y0198100D02*
X0031233Y0198100D01*
X0031233Y0198699D02*
X0029233Y0198699D01*
X0029233Y0199297D02*
X0031233Y0199297D01*
X0031233Y0199896D02*
X0029233Y0199896D01*
X0029233Y0200494D02*
X0031233Y0200494D01*
X0031233Y0201093D02*
X0029233Y0201093D01*
X0029233Y0201691D02*
X0031233Y0201691D01*
X0031233Y0202290D02*
X0029233Y0202290D01*
X0029233Y0202888D02*
X0031233Y0202888D01*
X0031233Y0203487D02*
X0029233Y0203487D01*
X0029233Y0204085D02*
X0031233Y0204085D01*
X0031233Y0204684D02*
X0029233Y0204684D01*
X0029233Y0205282D02*
X0031327Y0205282D01*
X0031925Y0205881D02*
X0029233Y0205881D01*
X0029233Y0206479D02*
X0032524Y0206479D01*
X0033122Y0207078D02*
X0029233Y0207078D01*
X0029233Y0207676D02*
X0033721Y0207676D01*
X0034319Y0208275D02*
X0029233Y0208275D01*
X0029233Y0208873D02*
X0034918Y0208873D01*
X0034272Y0209472D02*
X0029233Y0209472D01*
X0029233Y0210070D02*
X0033674Y0210070D01*
X0033344Y0210669D02*
X0029233Y0210669D01*
X0029233Y0211268D02*
X0033096Y0211268D01*
X0032848Y0211866D02*
X0029233Y0211866D01*
X0029233Y0212465D02*
X0032833Y0212465D01*
X0032833Y0213063D02*
X0029233Y0213063D01*
X0029233Y0213662D02*
X0032833Y0213662D01*
X0033052Y0214260D02*
X0029233Y0214260D01*
X0029233Y0214859D02*
X0033300Y0214859D01*
X0033568Y0215457D02*
X0029233Y0215457D01*
X0029233Y0216056D02*
X0034167Y0216056D01*
X0034765Y0216654D02*
X0029233Y0216654D01*
X0029233Y0217253D02*
X0036122Y0217253D01*
X0036262Y0217940D02*
X0037040Y0217817D01*
X0037133Y0217817D01*
X0037133Y0222517D01*
X0032433Y0222517D01*
X0032433Y0222423D01*
X0032556Y0221646D01*
X0032799Y0220897D01*
X0033157Y0220196D01*
X0033619Y0219559D01*
X0034176Y0219003D01*
X0034812Y0218540D01*
X0035514Y0218183D01*
X0036262Y0217940D01*
X0036821Y0217851D02*
X0029233Y0217851D01*
X0029233Y0218450D02*
X0034990Y0218450D01*
X0034130Y0219048D02*
X0029233Y0219048D01*
X0029233Y0219647D02*
X0033556Y0219647D01*
X0033132Y0220245D02*
X0029233Y0220245D01*
X0029233Y0220844D02*
X0032827Y0220844D01*
X0032622Y0221442D02*
X0029233Y0221442D01*
X0029233Y0222041D02*
X0032494Y0222041D01*
X0032433Y0223117D02*
X0037133Y0223117D01*
X0037133Y0227817D01*
X0037040Y0227817D01*
X0036262Y0227693D01*
X0035514Y0227450D01*
X0034812Y0227093D01*
X0034176Y0226630D01*
X0033619Y0226074D01*
X0033157Y0225437D01*
X0032799Y0224736D01*
X0032556Y0223987D01*
X0032433Y0223210D01*
X0032433Y0223117D01*
X0032437Y0223238D02*
X0029233Y0223238D01*
X0029233Y0223836D02*
X0032532Y0223836D01*
X0032702Y0224435D02*
X0029233Y0224435D01*
X0029233Y0225033D02*
X0032951Y0225033D01*
X0033298Y0225632D02*
X0029233Y0225632D01*
X0029233Y0226230D02*
X0033776Y0226230D01*
X0034449Y0226829D02*
X0029233Y0226829D01*
X0029233Y0227427D02*
X0035469Y0227427D01*
X0037133Y0227427D02*
X0037733Y0227427D01*
X0037733Y0227817D02*
X0037827Y0227817D01*
X0038604Y0227693D01*
X0039352Y0227450D01*
X0040054Y0227093D01*
X0040690Y0226630D01*
X0041247Y0226074D01*
X0041709Y0225437D01*
X0042067Y0224736D01*
X0042310Y0223987D01*
X0042433Y0223210D01*
X0042433Y0223117D01*
X0037733Y0223117D01*
X0037133Y0223117D01*
X0037133Y0222517D01*
X0037733Y0222517D01*
X0037733Y0223117D01*
X0037733Y0227817D01*
X0037733Y0226829D02*
X0037133Y0226829D01*
X0037133Y0226230D02*
X0037733Y0226230D01*
X0037733Y0225632D02*
X0037133Y0225632D01*
X0037133Y0225033D02*
X0037733Y0225033D01*
X0037733Y0224435D02*
X0037133Y0224435D01*
X0037133Y0223836D02*
X0037733Y0223836D01*
X0037733Y0223238D02*
X0037133Y0223238D01*
X0037433Y0222817D02*
X0041183Y0219067D01*
X0051183Y0229067D01*
X0053058Y0229067D01*
X0066183Y0242192D01*
X0069933Y0242192D01*
X0069933Y0242663D01*
X0069933Y0245942D01*
X0082433Y0258442D01*
X0082933Y0258844D01*
X0083058Y0259067D01*
X0096183Y0259067D01*
X0096808Y0259692D01*
X0096933Y0259860D01*
X0097433Y0260317D01*
X0100558Y0263442D01*
X0121808Y0242192D01*
X0121808Y0240942D01*
X0121933Y0240617D01*
X0122433Y0240317D01*
X0122433Y0227817D01*
X0122476Y0227817D01*
X0122176Y0228026D02*
X0117865Y0228026D01*
X0117865Y0228624D02*
X0119602Y0228624D01*
X0119602Y0228117D02*
X0119602Y0230350D01*
X0119690Y0230681D01*
X0119861Y0230977D01*
X0120103Y0231219D01*
X0120400Y0231390D01*
X0120730Y0231479D01*
X0122176Y0231479D01*
X0122176Y0228117D01*
X0122776Y0228117D01*
X0122776Y0231479D01*
X0124222Y0231479D01*
X0124553Y0231390D01*
X0124849Y0231219D01*
X0125091Y0230977D01*
X0125263Y0230681D01*
X0125351Y0230350D01*
X0125351Y0228117D01*
X0122776Y0228117D01*
X0122776Y0227517D01*
X0125351Y0227517D01*
X0125351Y0227238D01*
X0125608Y0227495D01*
X0125608Y0235817D01*
X0125510Y0235817D01*
X0124983Y0236344D01*
X0124983Y0244742D01*
X0124269Y0244742D01*
X0124283Y0244688D01*
X0124283Y0240842D01*
X0122158Y0240842D01*
X0121708Y0240842D01*
X0121708Y0245817D01*
X0120712Y0245817D01*
X0120381Y0245728D01*
X0120085Y0245557D01*
X0119843Y0245315D01*
X0119672Y0245018D01*
X0119583Y0244688D01*
X0119583Y0240842D01*
X0121708Y0240842D01*
X0121708Y0240392D01*
X0119583Y0240392D01*
X0119583Y0236545D01*
X0119672Y0236215D01*
X0119843Y0235918D01*
X0120085Y0235676D01*
X0120381Y0235505D01*
X0120712Y0235417D01*
X0121708Y0235417D01*
X0121708Y0240391D01*
X0122158Y0240391D01*
X0122158Y0235417D01*
X0123154Y0235417D01*
X0123485Y0235505D01*
X0123781Y0235676D01*
X0124023Y0235918D01*
X0124194Y0236215D01*
X0124283Y0236545D01*
X0124283Y0240392D01*
X0122158Y0240392D01*
X0122158Y0240842D01*
X0122158Y0245817D01*
X0122736Y0245817D01*
X0113336Y0255217D01*
X0110510Y0255217D01*
X0109983Y0255744D01*
X0109983Y0264289D01*
X0110510Y0264817D01*
X0113356Y0264817D01*
X0113883Y0264289D01*
X0113883Y0258064D01*
X0114583Y0257364D01*
X0114583Y0259792D01*
X0116708Y0259792D01*
X0116708Y0260242D01*
X0116708Y0265217D01*
X0115712Y0265217D01*
X0115381Y0265128D01*
X0115085Y0264957D01*
X0114843Y0264715D01*
X0114672Y0264418D01*
X0114583Y0264088D01*
X0114583Y0260242D01*
X0116708Y0260242D01*
X0117158Y0260242D01*
X0117158Y0265217D01*
X0118154Y0265217D01*
X0118485Y0265128D01*
X0118781Y0264957D01*
X0119023Y0264715D01*
X0119194Y0264418D01*
X0119283Y0264088D01*
X0119283Y0260242D01*
X0117158Y0260242D01*
X0117158Y0259792D01*
X0119283Y0259792D01*
X0119283Y0255945D01*
X0119194Y0255615D01*
X0119023Y0255318D01*
X0118781Y0255076D01*
X0118485Y0254905D01*
X0118154Y0254817D01*
X0117158Y0254817D01*
X0117158Y0259791D01*
X0116708Y0259791D01*
X0116708Y0255239D01*
X0124805Y0247142D01*
X0128555Y0247142D01*
X0129805Y0245892D01*
X0130508Y0245189D01*
X0130508Y0213570D01*
X0120181Y0203243D01*
X0120633Y0202152D01*
X0120633Y0200481D01*
X0119994Y0198937D01*
X0118812Y0197756D01*
X0117269Y0197117D01*
X0115598Y0197117D01*
X0114507Y0197568D01*
X0109180Y0192242D01*
X0105786Y0192242D01*
X0105783Y0192238D01*
X0105804Y0192217D01*
X0105804Y0190892D01*
X0112233Y0190892D01*
X0112233Y0192152D01*
X0112872Y0193696D01*
X0114054Y0194877D01*
X0115598Y0195517D01*
X0117269Y0195517D01*
X0118812Y0194877D01*
X0119994Y0193696D01*
X0120633Y0192152D01*
X0120633Y0190481D01*
X0119994Y0188937D01*
X0118812Y0187756D01*
X0117269Y0187117D01*
X0115598Y0187117D01*
X0114054Y0187756D01*
X0113318Y0188492D01*
X0105804Y0188492D01*
X0105804Y0188322D01*
X0105783Y0188301D01*
X0105804Y0188280D01*
X0105804Y0186353D01*
X0105783Y0186332D01*
X0105804Y0186311D01*
X0105804Y0184385D01*
X0105783Y0184364D01*
X0105804Y0184343D01*
X0105804Y0183316D01*
X0106444Y0183956D01*
X0108423Y0183956D01*
X0109822Y0182556D01*
X0109822Y0180577D01*
X0108423Y0179178D01*
X0106444Y0179178D01*
X0105804Y0179818D01*
X0105804Y0178479D01*
X0105783Y0178458D01*
X0105804Y0178437D01*
X0105804Y0176511D01*
X0105783Y0176490D01*
X0105804Y0176469D01*
X0105804Y0174542D01*
X0105783Y0174521D01*
X0105804Y0174500D01*
X0105804Y0173316D01*
X0106444Y0173956D01*
X0108423Y0173956D01*
X0109822Y0172556D01*
X0109822Y0170577D01*
X0108423Y0169178D01*
X0106444Y0169178D01*
X0105804Y0169818D01*
X0105804Y0168637D01*
X0105276Y0168109D01*
X0103644Y0168109D01*
X0104197Y0167556D01*
X0104197Y0165577D01*
X0102798Y0164178D01*
X0100819Y0164178D01*
X0099419Y0165577D01*
X0099419Y0167556D01*
X0099972Y0168109D01*
X0098724Y0168109D01*
X0098196Y0168637D01*
X0098196Y0170563D01*
X0098217Y0170584D01*
X0098196Y0170605D01*
X0098196Y0172532D01*
X0098217Y0172553D01*
X0098196Y0172574D01*
X0098196Y0174500D01*
X0098217Y0174521D01*
X0098196Y0174542D01*
X0098196Y0176469D01*
X0098217Y0176490D01*
X0098196Y0176511D01*
X0098196Y0178437D01*
X0098217Y0178458D01*
X0098196Y0178479D01*
X0098196Y0180406D01*
X0098217Y0180427D01*
X0098196Y0180448D01*
X0098196Y0182374D01*
X0098217Y0182395D01*
X0098196Y0182416D01*
X0098196Y0183133D01*
X0097383Y0182320D01*
X0097383Y0167320D01*
X0096680Y0166617D01*
X0094697Y0164634D01*
X0094697Y0162952D01*
X0093298Y0161553D01*
X0091319Y0161553D01*
X0089919Y0162952D01*
X0089919Y0164931D01*
X0091319Y0166331D01*
X0093000Y0166331D01*
X0094983Y0168314D01*
X0094983Y0181795D01*
X0089883Y0176695D01*
X0089883Y0170070D01*
X0082822Y0163009D01*
X0082822Y0161327D01*
X0081423Y0159928D01*
X0079444Y0159928D01*
X0078044Y0161327D01*
X0078044Y0163306D01*
X0079444Y0164706D01*
X0081125Y0164706D01*
X0087483Y0171064D01*
X0087483Y0177689D01*
X0097483Y0187689D01*
X0098186Y0188392D01*
X0098196Y0188392D01*
X0098196Y0190248D01*
X0098217Y0190269D01*
X0098196Y0190290D01*
X0098196Y0192217D01*
X0098217Y0192238D01*
X0098196Y0192259D01*
X0098196Y0194185D01*
X0098217Y0194206D01*
X0098196Y0194227D01*
X0098196Y0196154D01*
X0098217Y0196175D01*
X0098196Y0196196D01*
X0098196Y0198122D01*
X0098217Y0198143D01*
X0098196Y0198164D01*
X0098196Y0200091D01*
X0098217Y0200112D01*
X0098196Y0200133D01*
X0098196Y0200633D01*
X0091680Y0194117D01*
X0082670Y0194117D01*
X0082670Y0192259D01*
X0082649Y0192238D01*
X0082670Y0192217D01*
X0082670Y0191945D01*
X0083227Y0191389D01*
X0083870Y0190745D01*
X0083870Y0168140D01*
X0083342Y0167612D01*
X0082640Y0166909D01*
X0077987Y0166909D01*
X0076586Y0165509D01*
X0076586Y0163827D01*
X0075187Y0162428D01*
X0073207Y0162428D01*
X0071808Y0163827D01*
X0071808Y0165806D01*
X0073207Y0167206D01*
X0074889Y0167206D01*
X0075793Y0168109D01*
X0075590Y0168109D01*
X0075063Y0168637D01*
X0075063Y0170563D01*
X0075084Y0170584D01*
X0075063Y0170605D01*
X0075063Y0172532D01*
X0075084Y0172553D01*
X0075063Y0172574D01*
X0075063Y0174117D01*
X0072112Y0174117D01*
X0070923Y0172928D01*
X0068944Y0172928D01*
X0067544Y0174327D01*
X0067544Y0176306D01*
X0068944Y0177706D01*
X0070923Y0177706D01*
X0072112Y0176517D01*
X0075063Y0176517D01*
X0075063Y0178437D01*
X0075084Y0178458D01*
X0075063Y0178479D01*
X0075063Y0180406D01*
X0075084Y0180427D01*
X0075063Y0180448D01*
X0075063Y0182374D01*
X0075084Y0182395D01*
X0075063Y0182416D01*
X0075063Y0183819D01*
X0074922Y0183959D01*
X0074751Y0184256D01*
X0074663Y0184586D01*
X0074663Y0185348D01*
X0078866Y0185348D01*
X0078866Y0185348D01*
X0074663Y0185348D01*
X0074663Y0185992D01*
X0070686Y0185992D01*
X0061936Y0194742D01*
X0061233Y0195445D01*
X0061233Y0196976D01*
X0057171Y0196976D01*
X0056643Y0197503D01*
X0056643Y0207579D01*
X0057171Y0208106D01*
X0060608Y0208106D01*
X0060608Y0208138D01*
X0059419Y0209327D01*
X0059419Y0211306D01*
X0060819Y0212706D01*
X0062798Y0212706D01*
X0064197Y0211306D01*
X0064197Y0209327D01*
X0063008Y0208138D01*
X0063008Y0208106D01*
X0066696Y0208106D01*
X0067223Y0207579D01*
X0067223Y0197503D01*
X0066696Y0196976D01*
X0063633Y0196976D01*
X0063633Y0196439D01*
X0070044Y0190028D01*
X0070044Y0190681D01*
X0071444Y0192081D01*
X0073423Y0192081D01*
X0074612Y0190892D01*
X0075063Y0190892D01*
X0075063Y0192217D01*
X0075084Y0192238D01*
X0075063Y0192259D01*
X0075063Y0194185D01*
X0075084Y0194206D01*
X0075063Y0194227D01*
X0075063Y0196154D01*
X0075084Y0196175D01*
X0075063Y0196196D01*
X0075063Y0198122D01*
X0075084Y0198143D01*
X0075063Y0198164D01*
X0075063Y0200091D01*
X0075084Y0200112D01*
X0075063Y0200133D01*
X0075063Y0202059D01*
X0075084Y0202080D01*
X0075063Y0202101D01*
X0075063Y0204028D01*
X0075084Y0204049D01*
X0075063Y0204070D01*
X0075063Y0205996D01*
X0075590Y0206524D01*
X0082142Y0206524D01*
X0082670Y0205996D01*
X0082670Y0204070D01*
X0082649Y0204049D01*
X0082670Y0204028D01*
X0082670Y0202101D01*
X0082649Y0202080D01*
X0082670Y0202059D01*
X0082670Y0200133D01*
X0082649Y0200112D01*
X0082670Y0200091D01*
X0082670Y0198164D01*
X0082649Y0198143D01*
X0082670Y0198122D01*
X0082670Y0196517D01*
X0090686Y0196517D01*
X0097483Y0203314D01*
X0098186Y0204017D01*
X0098196Y0204017D01*
X0098196Y0204028D01*
X0098217Y0204049D01*
X0098196Y0204070D01*
X0098196Y0205996D01*
X0098724Y0206524D01*
X0098904Y0206524D01*
X0072399Y0233029D01*
X0072274Y0232905D01*
X0071093Y0232905D01*
X0057510Y0219322D01*
X0057510Y0214645D01*
X0056983Y0214117D01*
X0051513Y0214117D01*
X0050986Y0214645D01*
X0050986Y0220115D01*
X0051513Y0220642D01*
X0055436Y0220642D01*
X0056786Y0221991D01*
X0051513Y0221991D01*
X0050986Y0222519D01*
X0050986Y0227989D01*
X0051513Y0228516D01*
X0056983Y0228516D01*
X0057510Y0227989D01*
X0057510Y0222716D01*
X0067699Y0232905D01*
X0067592Y0232905D01*
X0067065Y0233432D01*
X0067065Y0238508D01*
X0067592Y0239035D01*
X0072274Y0239035D01*
X0072802Y0238508D01*
X0072802Y0236517D01*
X0092797Y0236517D01*
X0092771Y0236614D01*
X0092771Y0238060D01*
X0096133Y0238060D01*
X0096133Y0238660D01*
X0096133Y0241235D01*
X0093900Y0241235D01*
X0093569Y0241146D01*
X0093273Y0240975D01*
X0093031Y0240733D01*
X0092859Y0240436D01*
X0092771Y0240106D01*
X0092771Y0238660D01*
X0096133Y0238660D01*
X0096733Y0238660D01*
X0096733Y0241235D01*
X0097318Y0241235D01*
X0090061Y0248492D01*
X0085467Y0248492D01*
X0085467Y0248176D01*
X0084940Y0247649D01*
X0080926Y0247649D01*
X0080473Y0248103D01*
X0079673Y0247303D01*
X0077694Y0247303D01*
X0076294Y0248702D01*
X0076294Y0250681D01*
X0077694Y0252081D01*
X0079673Y0252081D01*
X0080399Y0251354D01*
X0080399Y0251402D01*
X0080926Y0251929D01*
X0084940Y0251929D01*
X0085467Y0251402D01*
X0085467Y0250892D01*
X0091055Y0250892D01*
X0100430Y0241517D01*
X0101133Y0240814D01*
X0101133Y0236070D01*
X0099883Y0234820D01*
X0099180Y0234117D01*
X0074705Y0234117D01*
X0077544Y0231278D01*
X0077544Y0231931D01*
X0078944Y0233331D01*
X0080923Y0233331D01*
X0082112Y0232142D01*
X0093171Y0232142D01*
X0093171Y0233221D01*
X0093698Y0233748D01*
X0099168Y0233748D01*
X0099695Y0233221D01*
X0099695Y0232767D01*
X0114358Y0232767D01*
X0114358Y0239564D01*
X0114983Y0240189D01*
X0114983Y0244889D01*
X0115510Y0245417D01*
X0118356Y0245417D01*
X0118883Y0244889D01*
X0118883Y0236344D01*
X0118356Y0235817D01*
X0116758Y0235817D01*
X0116758Y0231079D01*
X0117337Y0231079D01*
X0117865Y0230552D01*
X0117865Y0225082D01*
X0117337Y0224554D01*
X0113442Y0224554D01*
X0112915Y0225082D01*
X0112915Y0230367D01*
X0099695Y0230367D01*
X0099695Y0229326D01*
X0099168Y0228798D01*
X0093698Y0228798D01*
X0093171Y0229326D01*
X0093171Y0229742D01*
X0082112Y0229742D01*
X0080923Y0228553D01*
X0080269Y0228553D01*
X0102298Y0206524D01*
X0105044Y0206524D01*
X0105044Y0207556D01*
X0106444Y0208956D01*
X0108125Y0208956D01*
X0112734Y0213564D01*
X0112734Y0218642D01*
X0113261Y0219169D01*
X0119125Y0219169D01*
X0119652Y0218642D01*
X0119652Y0211991D01*
X0119125Y0211464D01*
X0114027Y0211464D01*
X0109822Y0207259D01*
X0109822Y0205577D01*
X0108423Y0204178D01*
X0106444Y0204178D01*
X0105804Y0204818D01*
X0105804Y0204070D01*
X0105783Y0204049D01*
X0105804Y0204028D01*
X0105804Y0202142D01*
X0112233Y0202142D01*
X0112233Y0202152D01*
X0112872Y0203696D01*
X0114054Y0204877D01*
X0115598Y0205517D01*
X0117269Y0205517D01*
X0118536Y0204992D01*
X0125008Y0211464D01*
X0120741Y0211464D01*
X0120214Y0211991D01*
X0120214Y0218642D01*
X0120741Y0219169D01*
X0122483Y0219169D01*
X0122483Y0220638D01*
X0121294Y0221827D01*
X0121294Y0223806D01*
X0121642Y0224154D01*
X0120730Y0224154D01*
X0120400Y0224243D01*
X0120103Y0224414D01*
X0119861Y0224656D01*
X0119690Y0224953D01*
X0119602Y0225283D01*
X0119602Y0227517D01*
X0122176Y0227517D01*
X0122176Y0228117D01*
X0119602Y0228117D01*
X0119602Y0227427D02*
X0117865Y0227427D01*
X0117865Y0226829D02*
X0119602Y0226829D01*
X0119602Y0226230D02*
X0117865Y0226230D01*
X0117865Y0225632D02*
X0119602Y0225632D01*
X0119669Y0225033D02*
X0117816Y0225033D01*
X0120083Y0224435D02*
X0084387Y0224435D01*
X0083788Y0225033D02*
X0112963Y0225033D01*
X0112915Y0225632D02*
X0083190Y0225632D01*
X0082591Y0226230D02*
X0112915Y0226230D01*
X0112915Y0226829D02*
X0081993Y0226829D01*
X0081394Y0227427D02*
X0112915Y0227427D01*
X0112915Y0228026D02*
X0080796Y0228026D01*
X0080994Y0228624D02*
X0112915Y0228624D01*
X0112915Y0229223D02*
X0099592Y0229223D01*
X0099695Y0229821D02*
X0112915Y0229821D01*
X0115558Y0231567D02*
X0115558Y0227817D01*
X0115390Y0227817D01*
X0117865Y0229223D02*
X0119602Y0229223D01*
X0119602Y0229821D02*
X0117865Y0229821D01*
X0117865Y0230420D02*
X0119620Y0230420D01*
X0119903Y0231018D02*
X0117398Y0231018D01*
X0116758Y0231617D02*
X0125608Y0231617D01*
X0125608Y0232215D02*
X0116758Y0232215D01*
X0116758Y0232814D02*
X0125608Y0232814D01*
X0125608Y0233412D02*
X0116758Y0233412D01*
X0116758Y0234011D02*
X0125608Y0234011D01*
X0125608Y0234609D02*
X0116758Y0234609D01*
X0116758Y0235208D02*
X0125608Y0235208D01*
X0125608Y0235806D02*
X0123911Y0235806D01*
X0124245Y0236405D02*
X0124983Y0236405D01*
X0124983Y0237004D02*
X0124283Y0237004D01*
X0124283Y0237602D02*
X0124983Y0237602D01*
X0124983Y0238201D02*
X0124283Y0238201D01*
X0124283Y0238799D02*
X0124983Y0238799D01*
X0124983Y0239398D02*
X0124283Y0239398D01*
X0124283Y0239996D02*
X0124983Y0239996D01*
X0124983Y0240595D02*
X0122158Y0240595D01*
X0121708Y0240595D02*
X0118883Y0240595D01*
X0118883Y0241193D02*
X0119583Y0241193D01*
X0119583Y0241792D02*
X0118883Y0241792D01*
X0118883Y0242390D02*
X0119583Y0242390D01*
X0119583Y0242989D02*
X0118883Y0242989D01*
X0118883Y0243587D02*
X0119583Y0243587D01*
X0119583Y0244186D02*
X0118883Y0244186D01*
X0118883Y0244784D02*
X0119609Y0244784D01*
X0119911Y0245383D02*
X0118390Y0245383D01*
X0119579Y0248974D02*
X0105473Y0248974D01*
X0104874Y0249572D02*
X0118980Y0249572D01*
X0118382Y0250171D02*
X0104276Y0250171D01*
X0103677Y0250769D02*
X0117783Y0250769D01*
X0117185Y0251368D02*
X0103079Y0251368D01*
X0102480Y0251966D02*
X0116586Y0251966D01*
X0115988Y0252565D02*
X0101882Y0252565D01*
X0101283Y0253163D02*
X0115389Y0253163D01*
X0114791Y0253762D02*
X0100195Y0253762D01*
X0100195Y0253392D02*
X0100195Y0254721D01*
X0099668Y0255248D01*
X0094198Y0255248D01*
X0093671Y0254721D01*
X0093671Y0250826D01*
X0094198Y0250298D01*
X0099668Y0250298D01*
X0100195Y0250826D01*
X0100195Y0250857D01*
X0109983Y0241070D01*
X0109983Y0236344D01*
X0110510Y0235817D01*
X0113356Y0235817D01*
X0113883Y0236344D01*
X0113883Y0244889D01*
X0113356Y0245417D01*
X0110510Y0245417D01*
X0109983Y0244889D01*
X0109983Y0244464D01*
X0101055Y0253392D01*
X0100195Y0253392D01*
X0100195Y0254360D02*
X0114192Y0254360D01*
X0113594Y0254959D02*
X0099957Y0254959D01*
X0099466Y0256985D02*
X0099797Y0257074D01*
X0100093Y0257245D01*
X0100336Y0257487D01*
X0100507Y0257783D01*
X0100595Y0258114D01*
X0100595Y0259560D01*
X0097233Y0259560D01*
X0097233Y0260160D01*
X0096633Y0260160D01*
X0096633Y0262735D01*
X0094400Y0262735D01*
X0094069Y0262646D01*
X0093773Y0262475D01*
X0093531Y0262233D01*
X0093359Y0261936D01*
X0093271Y0261606D01*
X0093271Y0260160D01*
X0096633Y0260160D01*
X0096633Y0259560D01*
X0093271Y0259560D01*
X0093271Y0258114D01*
X0093359Y0257783D01*
X0093531Y0257487D01*
X0093773Y0257245D01*
X0094069Y0257074D01*
X0094400Y0256985D01*
X0096633Y0256985D01*
X0096633Y0259560D01*
X0097233Y0259560D01*
X0097233Y0256985D01*
X0099466Y0256985D01*
X0100202Y0257353D02*
X0109983Y0257353D01*
X0109983Y0257951D02*
X0100552Y0257951D01*
X0100595Y0258550D02*
X0109983Y0258550D01*
X0109983Y0259148D02*
X0100595Y0259148D01*
X0100595Y0260160D02*
X0100595Y0261606D01*
X0100507Y0261936D01*
X0100336Y0262233D01*
X0100093Y0262475D01*
X0099797Y0262646D01*
X0099466Y0262735D01*
X0097233Y0262735D01*
X0097233Y0260160D01*
X0100595Y0260160D01*
X0100595Y0260345D02*
X0109983Y0260345D01*
X0109983Y0259747D02*
X0097233Y0259747D01*
X0097233Y0260345D02*
X0096633Y0260345D01*
X0096633Y0259747D02*
X0085867Y0259747D01*
X0085867Y0260255D02*
X0085778Y0260586D01*
X0085607Y0260883D01*
X0085365Y0261125D01*
X0085069Y0261296D01*
X0084738Y0261384D01*
X0083233Y0261384D01*
X0083233Y0259144D01*
X0085867Y0259144D01*
X0085867Y0260255D01*
X0085843Y0260345D02*
X0093271Y0260345D01*
X0093271Y0260944D02*
X0085546Y0260944D01*
X0085867Y0259148D02*
X0093271Y0259148D01*
X0093271Y0258550D02*
X0083233Y0258550D01*
X0083233Y0258544D02*
X0083233Y0259144D01*
X0082633Y0259144D01*
X0082633Y0258544D01*
X0083233Y0258544D01*
X0083233Y0256304D01*
X0084738Y0256304D01*
X0085069Y0256393D01*
X0085365Y0256564D01*
X0085607Y0256806D01*
X0085778Y0257102D01*
X0085867Y0257433D01*
X0085867Y0258544D01*
X0083233Y0258544D01*
X0083233Y0257951D02*
X0082633Y0257951D01*
X0082633Y0258544D02*
X0082633Y0256304D01*
X0081128Y0256304D01*
X0080797Y0256393D01*
X0080501Y0256564D01*
X0080259Y0256806D01*
X0080088Y0257102D01*
X0079999Y0257433D01*
X0079999Y0258544D01*
X0082633Y0258544D01*
X0082633Y0258550D02*
X0073333Y0258550D01*
X0073168Y0258385D02*
X0073695Y0258912D01*
X0073695Y0262807D01*
X0073168Y0263335D01*
X0067698Y0263335D01*
X0067171Y0262807D01*
X0067171Y0261517D01*
X0060817Y0261517D01*
X0060202Y0263003D01*
X0058619Y0264585D01*
X0056552Y0265442D01*
X0054314Y0265442D01*
X0052247Y0264585D01*
X0050664Y0263003D01*
X0049808Y0260935D01*
X0049808Y0258698D01*
X0050664Y0256630D01*
X0052247Y0255048D01*
X0054314Y0254192D01*
X0054358Y0254192D01*
X0054358Y0245442D01*
X0054314Y0245442D01*
X0052247Y0244585D01*
X0050664Y0243003D01*
X0050049Y0241517D01*
X0040817Y0241517D01*
X0040202Y0243003D01*
X0038619Y0244585D01*
X0036758Y0245356D01*
X0036758Y0254277D01*
X0038619Y0255048D01*
X0040202Y0256630D01*
X0041058Y0258698D01*
X0041058Y0260935D01*
X0040202Y0263003D01*
X0038619Y0264585D01*
X0036552Y0265442D01*
X0034314Y0265442D01*
X0032247Y0264585D01*
X0030664Y0263003D01*
X0029808Y0260935D01*
X0029808Y0258698D01*
X0030664Y0256630D01*
X0032247Y0255048D01*
X0034314Y0254192D01*
X0034358Y0254192D01*
X0034358Y0245442D01*
X0034314Y0245442D01*
X0032247Y0244585D01*
X0030664Y0243003D01*
X0029808Y0240935D01*
X0029808Y0238698D01*
X0030664Y0236630D01*
X0032247Y0235048D01*
X0034314Y0234192D01*
X0036552Y0234192D01*
X0038619Y0235048D01*
X0040202Y0236630D01*
X0041058Y0238698D01*
X0041058Y0239117D01*
X0049808Y0239117D01*
X0049808Y0238698D01*
X0050664Y0236630D01*
X0052247Y0235048D01*
X0054314Y0234192D01*
X0056552Y0234192D01*
X0058619Y0235048D01*
X0060202Y0236630D01*
X0061058Y0238698D01*
X0061058Y0240935D01*
X0060202Y0243003D01*
X0058619Y0244585D01*
X0056758Y0245356D01*
X0056758Y0254277D01*
X0058619Y0255048D01*
X0060202Y0256630D01*
X0061058Y0258698D01*
X0061058Y0259117D01*
X0067171Y0259117D01*
X0067171Y0258912D01*
X0067698Y0258385D01*
X0073168Y0258385D01*
X0073695Y0259148D02*
X0079999Y0259148D01*
X0079999Y0259144D02*
X0079999Y0260255D01*
X0080088Y0260586D01*
X0080259Y0260883D01*
X0080501Y0261125D01*
X0080797Y0261296D01*
X0081128Y0261384D01*
X0082633Y0261384D01*
X0082633Y0259144D01*
X0079999Y0259144D01*
X0079999Y0259747D02*
X0073695Y0259747D01*
X0073695Y0260345D02*
X0080023Y0260345D01*
X0080320Y0260944D02*
X0073695Y0260944D01*
X0073695Y0261542D02*
X0093271Y0261542D01*
X0093478Y0262141D02*
X0073695Y0262141D01*
X0073695Y0262739D02*
X0109983Y0262739D01*
X0109983Y0262141D02*
X0100389Y0262141D01*
X0100595Y0261542D02*
X0109983Y0261542D01*
X0109983Y0260944D02*
X0100595Y0260944D01*
X0100558Y0263442D02*
X0102433Y0265317D01*
X0113058Y0265317D01*
X0116808Y0261567D01*
X0116808Y0260317D01*
X0116933Y0260017D01*
X0117433Y0260317D01*
X0121808Y0260317D01*
X0121933Y0260017D01*
X0121708Y0260242D02*
X0121708Y0259792D01*
X0119583Y0259792D01*
X0119583Y0255945D01*
X0119672Y0255615D01*
X0119843Y0255318D01*
X0120085Y0255076D01*
X0120381Y0254905D01*
X0120712Y0254817D01*
X0121708Y0254817D01*
X0121708Y0259791D01*
X0122158Y0259791D01*
X0122158Y0254817D01*
X0123154Y0254817D01*
X0123485Y0254905D01*
X0123781Y0255076D01*
X0124023Y0255318D01*
X0124194Y0255615D01*
X0124283Y0255945D01*
X0124283Y0259792D01*
X0122158Y0259792D01*
X0122158Y0260242D01*
X0121708Y0260242D01*
X0121708Y0265217D01*
X0120712Y0265217D01*
X0120381Y0265128D01*
X0120085Y0264957D01*
X0119843Y0264715D01*
X0119672Y0264418D01*
X0119583Y0264088D01*
X0119583Y0260242D01*
X0121708Y0260242D01*
X0121708Y0260345D02*
X0122158Y0260345D01*
X0122158Y0260242D02*
X0122158Y0265217D01*
X0123154Y0265217D01*
X0123485Y0265128D01*
X0123781Y0264957D01*
X0124023Y0264715D01*
X0124194Y0264418D01*
X0124283Y0264088D01*
X0124283Y0260242D01*
X0122158Y0260242D01*
X0122158Y0259747D02*
X0121708Y0259747D01*
X0121708Y0259148D02*
X0122158Y0259148D01*
X0122158Y0258550D02*
X0121708Y0258550D01*
X0121708Y0257951D02*
X0122158Y0257951D01*
X0122158Y0257353D02*
X0121708Y0257353D01*
X0121708Y0256754D02*
X0122158Y0256754D01*
X0122158Y0256156D02*
X0121708Y0256156D01*
X0121708Y0255557D02*
X0122158Y0255557D01*
X0122158Y0254959D02*
X0121708Y0254959D01*
X0120288Y0254959D02*
X0118578Y0254959D01*
X0119161Y0255557D02*
X0119705Y0255557D01*
X0119583Y0256156D02*
X0119283Y0256156D01*
X0119283Y0256754D02*
X0119583Y0256754D01*
X0119583Y0257353D02*
X0119283Y0257353D01*
X0119283Y0257951D02*
X0119583Y0257951D01*
X0119583Y0258550D02*
X0119283Y0258550D01*
X0119283Y0259148D02*
X0119583Y0259148D01*
X0119583Y0259747D02*
X0119283Y0259747D01*
X0119283Y0260345D02*
X0119583Y0260345D01*
X0119583Y0260944D02*
X0119283Y0260944D01*
X0119283Y0261542D02*
X0119583Y0261542D01*
X0119583Y0262141D02*
X0119283Y0262141D01*
X0119283Y0262739D02*
X0119583Y0262739D01*
X0119583Y0263338D02*
X0119283Y0263338D01*
X0119283Y0263937D02*
X0119583Y0263937D01*
X0119739Y0264535D02*
X0119127Y0264535D01*
X0118464Y0265134D02*
X0120402Y0265134D01*
X0121708Y0265134D02*
X0122158Y0265134D01*
X0122158Y0264535D02*
X0121708Y0264535D01*
X0121708Y0263937D02*
X0122158Y0263937D01*
X0122158Y0263338D02*
X0121708Y0263338D01*
X0121708Y0262739D02*
X0122158Y0262739D01*
X0122158Y0262141D02*
X0121708Y0262141D01*
X0121708Y0261542D02*
X0122158Y0261542D01*
X0122158Y0260944D02*
X0121708Y0260944D01*
X0124283Y0260944D02*
X0124983Y0260944D01*
X0124983Y0261542D02*
X0124283Y0261542D01*
X0124283Y0262141D02*
X0124983Y0262141D01*
X0124983Y0262739D02*
X0124283Y0262739D01*
X0124283Y0263338D02*
X0124983Y0263338D01*
X0124983Y0263937D02*
X0124283Y0263937D01*
X0124127Y0264535D02*
X0125229Y0264535D01*
X0123464Y0265134D02*
X0132633Y0265134D01*
X0132633Y0264535D02*
X0128637Y0264535D01*
X0128883Y0263937D02*
X0132633Y0263937D01*
X0132633Y0263338D02*
X0128883Y0263338D01*
X0128883Y0262739D02*
X0132633Y0262739D01*
X0132633Y0262141D02*
X0128883Y0262141D01*
X0128883Y0261542D02*
X0132633Y0261542D01*
X0132633Y0260944D02*
X0128883Y0260944D01*
X0128883Y0260345D02*
X0132633Y0260345D01*
X0132633Y0259747D02*
X0128900Y0259747D01*
X0129498Y0259148D02*
X0132633Y0259148D01*
X0132633Y0258550D02*
X0130097Y0258550D01*
X0130695Y0257951D02*
X0132633Y0257951D01*
X0132633Y0257353D02*
X0131294Y0257353D01*
X0131892Y0256754D02*
X0132633Y0256754D01*
X0132633Y0256156D02*
X0132491Y0256156D01*
X0131444Y0255506D02*
X0131444Y0250317D01*
X0129715Y0251966D02*
X0119980Y0251966D01*
X0119382Y0252565D02*
X0130244Y0252565D01*
X0130244Y0253163D02*
X0118783Y0253163D01*
X0118185Y0253762D02*
X0130244Y0253762D01*
X0130244Y0254360D02*
X0117586Y0254360D01*
X0117158Y0254959D02*
X0116988Y0254959D01*
X0117158Y0255557D02*
X0116708Y0255557D01*
X0116708Y0256156D02*
X0117158Y0256156D01*
X0117158Y0256754D02*
X0116708Y0256754D01*
X0116708Y0257353D02*
X0117158Y0257353D01*
X0117158Y0257951D02*
X0116708Y0257951D01*
X0116708Y0258550D02*
X0117158Y0258550D01*
X0117158Y0259148D02*
X0116708Y0259148D01*
X0116708Y0259747D02*
X0117158Y0259747D01*
X0117158Y0260345D02*
X0116708Y0260345D01*
X0116708Y0260944D02*
X0117158Y0260944D01*
X0117158Y0261542D02*
X0116708Y0261542D01*
X0116708Y0262141D02*
X0117158Y0262141D01*
X0117158Y0262739D02*
X0116708Y0262739D01*
X0116708Y0263338D02*
X0117158Y0263338D01*
X0117158Y0263937D02*
X0116708Y0263937D01*
X0116708Y0264535D02*
X0117158Y0264535D01*
X0117158Y0265134D02*
X0116708Y0265134D01*
X0115402Y0265134D02*
X0057296Y0265134D01*
X0058670Y0264535D02*
X0110229Y0264535D01*
X0109983Y0263937D02*
X0059268Y0263937D01*
X0059867Y0263338D02*
X0109983Y0263338D01*
X0111933Y0260017D02*
X0112433Y0259692D01*
X0112433Y0257817D01*
X0124308Y0245942D01*
X0128058Y0245942D01*
X0129308Y0244692D01*
X0129308Y0214067D01*
X0116808Y0201567D01*
X0116433Y0201317D01*
X0116183Y0200942D01*
X0102433Y0200942D01*
X0102000Y0201096D01*
X0101808Y0202817D02*
X0102000Y0203065D01*
X0101808Y0202817D02*
X0098683Y0202817D01*
X0091183Y0195317D01*
X0079308Y0195317D01*
X0078866Y0195191D01*
X0078866Y0191254D02*
X0079228Y0190892D01*
X0082027Y0190892D01*
X0082670Y0190248D01*
X0082670Y0168637D01*
X0082142Y0168109D01*
X0077490Y0168109D01*
X0074197Y0164817D01*
X0072381Y0166379D02*
X0067132Y0166379D01*
X0067132Y0165781D02*
X0071808Y0165781D01*
X0071808Y0165942D02*
X0071808Y0133442D01*
X0092433Y0133442D01*
X0092827Y0133037D01*
X0105338Y0133037D01*
X0113683Y0124692D01*
X0119308Y0124692D01*
X0121183Y0126567D01*
X0121183Y0130317D01*
X0121476Y0130817D01*
X0121176Y0131067D02*
X0116865Y0131067D01*
X0116865Y0131666D02*
X0118602Y0131666D01*
X0118602Y0131117D02*
X0121176Y0131117D01*
X0121176Y0134479D01*
X0119730Y0134479D01*
X0119400Y0134390D01*
X0119103Y0134219D01*
X0118861Y0133977D01*
X0118690Y0133681D01*
X0118602Y0133350D01*
X0118602Y0131117D01*
X0118602Y0130517D02*
X0118602Y0129581D01*
X0117366Y0129581D01*
X0116865Y0130082D01*
X0116865Y0133552D01*
X0116337Y0134079D01*
X0112442Y0134079D01*
X0111915Y0133552D01*
X0111915Y0128082D01*
X0112442Y0127554D01*
X0115669Y0127554D01*
X0115669Y0126202D01*
X0117069Y0124803D01*
X0119048Y0124803D01*
X0120447Y0126202D01*
X0120447Y0127154D01*
X0121176Y0127154D01*
X0121176Y0130517D01*
X0118602Y0130517D01*
X0118602Y0130468D02*
X0116865Y0130468D01*
X0117077Y0129870D02*
X0118602Y0129870D01*
X0118602Y0132264D02*
X0116865Y0132264D01*
X0116865Y0132863D02*
X0118602Y0132863D01*
X0118631Y0133461D02*
X0116865Y0133461D01*
X0116357Y0134060D02*
X0118944Y0134060D01*
X0121176Y0134060D02*
X0121776Y0134060D01*
X0121776Y0134479D02*
X0121776Y0131117D01*
X0121176Y0131117D01*
X0121176Y0130517D01*
X0121776Y0130517D01*
X0121776Y0127154D01*
X0121949Y0127154D01*
X0120608Y0125814D01*
X0120608Y0123169D01*
X0118741Y0123169D01*
X0118214Y0122642D01*
X0118214Y0115991D01*
X0118741Y0115464D01*
X0124605Y0115464D01*
X0125132Y0115991D01*
X0125132Y0122642D01*
X0124605Y0123169D01*
X0123008Y0123169D01*
X0123008Y0124820D01*
X0125508Y0127320D01*
X0125508Y0139261D01*
X0125829Y0139582D01*
X0125829Y0145052D01*
X0125302Y0145579D01*
X0123633Y0145579D01*
X0123633Y0151554D01*
X0125302Y0151554D01*
X0125829Y0152082D01*
X0125829Y0157552D01*
X0125302Y0158079D01*
X0119832Y0158079D01*
X0119305Y0157552D01*
X0119305Y0152082D01*
X0119832Y0151554D01*
X0121233Y0151554D01*
X0121233Y0145579D01*
X0119832Y0145579D01*
X0119305Y0145052D01*
X0119305Y0139582D01*
X0119832Y0139054D01*
X0123108Y0139054D01*
X0123108Y0134479D01*
X0121776Y0134479D01*
X0121776Y0133461D02*
X0121176Y0133461D01*
X0121176Y0132863D02*
X0121776Y0132863D01*
X0121776Y0132264D02*
X0121176Y0132264D01*
X0121176Y0131666D02*
X0121776Y0131666D01*
X0121776Y0130468D02*
X0121176Y0130468D01*
X0121176Y0129870D02*
X0121776Y0129870D01*
X0121776Y0129271D02*
X0121176Y0129271D01*
X0121176Y0128673D02*
X0121776Y0128673D01*
X0121776Y0128074D02*
X0121176Y0128074D01*
X0121176Y0127476D02*
X0121776Y0127476D01*
X0121672Y0126877D02*
X0120447Y0126877D01*
X0120447Y0126279D02*
X0121073Y0126279D01*
X0120608Y0125680D02*
X0119925Y0125680D01*
X0119327Y0125082D02*
X0120608Y0125082D01*
X0120608Y0124483D02*
X0096871Y0124483D01*
X0096877Y0125082D02*
X0116789Y0125082D01*
X0116191Y0125680D02*
X0096877Y0125680D01*
X0096860Y0126279D02*
X0115669Y0126279D01*
X0115669Y0126877D02*
X0096583Y0126877D01*
X0096477Y0127476D02*
X0115669Y0127476D01*
X0118058Y0127192D02*
X0114933Y0130317D01*
X0114390Y0130817D01*
X0111915Y0131067D02*
X0103822Y0131067D01*
X0103822Y0130468D02*
X0111915Y0130468D01*
X0111915Y0129870D02*
X0103822Y0129870D01*
X0103766Y0129271D02*
X0111915Y0129271D01*
X0111915Y0128673D02*
X0103168Y0128673D01*
X0102569Y0128074D02*
X0111922Y0128074D01*
X0111915Y0131666D02*
X0103463Y0131666D01*
X0102864Y0132264D02*
X0111915Y0132264D01*
X0111915Y0132863D02*
X0096877Y0132863D01*
X0096877Y0133461D02*
X0111915Y0133461D01*
X0112423Y0134060D02*
X0096832Y0134060D01*
X0096479Y0134658D02*
X0123108Y0134658D01*
X0123108Y0135257D02*
X0096477Y0135257D01*
X0096477Y0135855D02*
X0123108Y0135855D01*
X0123108Y0136454D02*
X0096477Y0136454D01*
X0096432Y0137052D02*
X0123108Y0137052D01*
X0123108Y0137651D02*
X0096477Y0137651D01*
X0096477Y0138249D02*
X0123108Y0138249D01*
X0123108Y0138848D02*
X0096477Y0138848D01*
X0096267Y0139446D02*
X0111172Y0139446D01*
X0111037Y0140045D02*
X0096477Y0140045D01*
X0096477Y0140643D02*
X0111037Y0140643D01*
X0111037Y0141242D02*
X0096477Y0141242D01*
X0096646Y0141840D02*
X0111037Y0141840D01*
X0111037Y0142439D02*
X0096877Y0142439D01*
X0096877Y0143037D02*
X0111037Y0143037D01*
X0111037Y0143636D02*
X0096877Y0143636D01*
X0096849Y0144234D02*
X0111037Y0144234D01*
X0111037Y0144833D02*
X0096838Y0144833D01*
X0096877Y0145431D02*
X0111417Y0145431D01*
X0113108Y0146030D02*
X0096877Y0146030D01*
X0096877Y0146628D02*
X0113108Y0146628D01*
X0113108Y0147227D02*
X0096668Y0147227D01*
X0096477Y0147825D02*
X0113108Y0147825D01*
X0113108Y0148424D02*
X0096477Y0148424D01*
X0096477Y0149022D02*
X0113192Y0149022D01*
X0113790Y0149621D02*
X0096305Y0149621D01*
X0096477Y0150219D02*
X0114389Y0150219D01*
X0114987Y0150818D02*
X0096477Y0150818D01*
X0096477Y0151416D02*
X0115586Y0151416D01*
X0118058Y0152192D02*
X0114308Y0148442D01*
X0114308Y0142817D01*
X0114299Y0142317D01*
X0117561Y0142439D02*
X0119305Y0142439D01*
X0119305Y0143037D02*
X0117561Y0143037D01*
X0117561Y0143636D02*
X0119305Y0143636D01*
X0119305Y0144234D02*
X0117561Y0144234D01*
X0117561Y0144833D02*
X0119305Y0144833D01*
X0119684Y0145431D02*
X0117182Y0145431D01*
X0117561Y0141840D02*
X0119305Y0141840D01*
X0119305Y0141242D02*
X0117561Y0141242D01*
X0117561Y0140643D02*
X0119305Y0140643D01*
X0119305Y0140045D02*
X0117561Y0140045D01*
X0117426Y0139446D02*
X0119440Y0139446D01*
X0122567Y0142317D02*
X0122433Y0142817D01*
X0122433Y0154692D01*
X0122567Y0154817D01*
X0123633Y0151416D02*
X0132633Y0151416D01*
X0132633Y0150818D02*
X0123633Y0150818D01*
X0123633Y0150219D02*
X0132633Y0150219D01*
X0132633Y0149621D02*
X0123633Y0149621D01*
X0123633Y0149022D02*
X0132633Y0149022D01*
X0132633Y0148424D02*
X0123633Y0148424D01*
X0123633Y0147825D02*
X0132633Y0147825D01*
X0132633Y0147227D02*
X0123633Y0147227D01*
X0123633Y0146628D02*
X0132633Y0146628D01*
X0132633Y0146030D02*
X0123633Y0146030D01*
X0125449Y0145431D02*
X0132633Y0145431D01*
X0132633Y0144833D02*
X0125829Y0144833D01*
X0125829Y0144234D02*
X0132633Y0144234D01*
X0132633Y0143636D02*
X0125829Y0143636D01*
X0125829Y0143037D02*
X0132633Y0143037D01*
X0132633Y0142439D02*
X0125829Y0142439D01*
X0125829Y0141840D02*
X0132633Y0141840D01*
X0132633Y0141242D02*
X0125829Y0141242D01*
X0125829Y0140643D02*
X0132633Y0140643D01*
X0132633Y0140045D02*
X0125829Y0140045D01*
X0125694Y0139446D02*
X0132633Y0139446D01*
X0132633Y0138848D02*
X0125508Y0138848D01*
X0125508Y0138249D02*
X0132633Y0138249D01*
X0132633Y0137651D02*
X0125508Y0137651D01*
X0125508Y0137052D02*
X0132633Y0137052D01*
X0132633Y0136454D02*
X0125508Y0136454D01*
X0125508Y0135855D02*
X0132633Y0135855D01*
X0132633Y0135257D02*
X0125508Y0135257D01*
X0125508Y0134658D02*
X0132633Y0134658D01*
X0132633Y0134060D02*
X0125508Y0134060D01*
X0125508Y0133461D02*
X0132633Y0133461D01*
X0132633Y0132863D02*
X0125508Y0132863D01*
X0125508Y0132264D02*
X0132633Y0132264D01*
X0132633Y0131666D02*
X0125508Y0131666D01*
X0125508Y0131067D02*
X0132633Y0131067D01*
X0132633Y0130468D02*
X0125508Y0130468D01*
X0125508Y0129870D02*
X0132633Y0129870D01*
X0132633Y0129271D02*
X0125508Y0129271D01*
X0125508Y0128673D02*
X0132633Y0128673D01*
X0132633Y0128074D02*
X0125508Y0128074D01*
X0125508Y0127476D02*
X0132633Y0127476D01*
X0132633Y0126877D02*
X0125066Y0126877D01*
X0124467Y0126279D02*
X0132633Y0126279D01*
X0132633Y0125680D02*
X0123869Y0125680D01*
X0123270Y0125082D02*
X0132633Y0125082D01*
X0132633Y0124483D02*
X0123008Y0124483D01*
X0123008Y0123885D02*
X0132633Y0123885D01*
X0132633Y0123286D02*
X0123008Y0123286D01*
X0125087Y0122688D02*
X0132633Y0122688D01*
X0132633Y0122089D02*
X0125132Y0122089D01*
X0125132Y0121491D02*
X0132633Y0121491D01*
X0132633Y0120892D02*
X0125132Y0120892D01*
X0125132Y0120294D02*
X0132633Y0120294D01*
X0132633Y0119695D02*
X0125132Y0119695D01*
X0125132Y0119097D02*
X0132633Y0119097D01*
X0132633Y0118498D02*
X0125132Y0118498D01*
X0125132Y0117900D02*
X0132633Y0117900D01*
X0132633Y0117301D02*
X0125132Y0117301D01*
X0125132Y0116703D02*
X0132633Y0116703D01*
X0132633Y0116104D02*
X0125132Y0116104D01*
X0124647Y0115506D02*
X0132633Y0115506D01*
X0132633Y0114907D02*
X0105333Y0114907D01*
X0105333Y0114309D02*
X0132633Y0114309D01*
X0132633Y0113710D02*
X0105333Y0113710D01*
X0105333Y0113112D02*
X0132633Y0113112D01*
X0132633Y0112513D02*
X0105333Y0112513D01*
X0105333Y0111915D02*
X0132633Y0111915D01*
X0132633Y0111316D02*
X0105333Y0111316D01*
X0105333Y0110718D02*
X0132633Y0110718D01*
X0132633Y0110119D02*
X0105333Y0110119D01*
X0105333Y0109521D02*
X0132633Y0109521D01*
X0132633Y0108922D02*
X0105333Y0108922D01*
X0105333Y0108324D02*
X0132633Y0108324D01*
X0132633Y0107725D02*
X0105333Y0107725D01*
X0105333Y0107127D02*
X0132633Y0107127D01*
X0132633Y0106528D02*
X0105333Y0106528D01*
X0105333Y0105930D02*
X0132633Y0105930D01*
X0132633Y0105331D02*
X0105333Y0105331D01*
X0105333Y0104733D02*
X0132633Y0104733D01*
X0132633Y0104134D02*
X0105333Y0104134D01*
X0105333Y0103535D02*
X0132633Y0103535D01*
X0132633Y0102937D02*
X0105333Y0102937D01*
X0105333Y0102338D02*
X0132633Y0102338D01*
X0132633Y0101740D02*
X0105333Y0101740D01*
X0105751Y0101141D02*
X0110904Y0101141D01*
X0110602Y0100543D02*
X0106830Y0100543D01*
X0107429Y0099944D02*
X0110602Y0099944D01*
X0110602Y0099346D02*
X0107787Y0099346D01*
X0108034Y0098747D02*
X0110602Y0098747D01*
X0110602Y0098149D02*
X0108181Y0098149D01*
X0114313Y0097655D02*
X0114313Y0070037D01*
X0114833Y0069517D01*
X0114833Y0052017D01*
X0114833Y0066617D01*
X0114313Y0066617D01*
X0114313Y0065896D01*
X0114233Y0065817D01*
X0127733Y0077201D02*
X0132633Y0077201D01*
X0132633Y0077799D02*
X0127733Y0077799D01*
X0127733Y0078398D02*
X0132633Y0078398D01*
X0132633Y0078997D02*
X0127733Y0078997D01*
X0127733Y0079595D02*
X0132633Y0079595D01*
X0132633Y0080194D02*
X0127733Y0080194D01*
X0128043Y0080792D02*
X0132633Y0080792D01*
X0132633Y0081391D02*
X0128642Y0081391D01*
X0129094Y0081989D02*
X0132633Y0081989D01*
X0132633Y0082588D02*
X0129342Y0082588D01*
X0129590Y0083186D02*
X0132633Y0083186D01*
X0132633Y0083785D02*
X0129683Y0083785D01*
X0129683Y0084383D02*
X0132633Y0084383D01*
X0132633Y0084982D02*
X0129683Y0084982D01*
X0129683Y0085580D02*
X0132633Y0085580D01*
X0132633Y0086179D02*
X0129683Y0086179D01*
X0129683Y0086777D02*
X0132633Y0086777D01*
X0132633Y0087376D02*
X0129683Y0087376D01*
X0129683Y0087974D02*
X0132633Y0087974D01*
X0132633Y0088573D02*
X0129683Y0088573D01*
X0129683Y0089171D02*
X0132633Y0089171D01*
X0132633Y0089770D02*
X0129683Y0089770D01*
X0129683Y0090368D02*
X0132633Y0090368D01*
X0132633Y0090967D02*
X0129683Y0090967D01*
X0129683Y0091565D02*
X0132633Y0091565D01*
X0132633Y0092164D02*
X0129683Y0092164D01*
X0129683Y0092762D02*
X0132633Y0092762D01*
X0132633Y0093361D02*
X0129683Y0093361D01*
X0129683Y0093959D02*
X0132633Y0093959D01*
X0132633Y0094558D02*
X0129683Y0094558D01*
X0129683Y0095156D02*
X0132633Y0095156D01*
X0132633Y0095755D02*
X0129446Y0095755D01*
X0129198Y0096353D02*
X0132633Y0096353D01*
X0132633Y0096952D02*
X0128893Y0096952D01*
X0128295Y0097550D02*
X0132633Y0097550D01*
X0132633Y0098149D02*
X0127676Y0098149D01*
X0126817Y0098747D02*
X0132633Y0098747D01*
X0132633Y0099346D02*
X0126817Y0099346D01*
X0126817Y0099944D02*
X0132633Y0099944D01*
X0132633Y0100543D02*
X0126883Y0100543D01*
X0126726Y0101141D02*
X0132633Y0101141D01*
X0121673Y0119317D02*
X0121808Y0119692D01*
X0121808Y0125317D01*
X0124308Y0127817D01*
X0124308Y0140942D01*
X0123058Y0142192D01*
X0122567Y0142317D01*
X0121233Y0146030D02*
X0115508Y0146030D01*
X0115508Y0146628D02*
X0121233Y0146628D01*
X0121233Y0147227D02*
X0115508Y0147227D01*
X0115508Y0147825D02*
X0121233Y0147825D01*
X0121233Y0148424D02*
X0115987Y0148424D01*
X0116586Y0149022D02*
X0121233Y0149022D01*
X0121233Y0149621D02*
X0117184Y0149621D01*
X0117783Y0150219D02*
X0121233Y0150219D01*
X0121233Y0150818D02*
X0118381Y0150818D01*
X0118980Y0151416D02*
X0121233Y0151416D01*
X0119371Y0152015D02*
X0119258Y0152015D01*
X0119258Y0152613D02*
X0119305Y0152613D01*
X0119305Y0153212D02*
X0119258Y0153212D01*
X0119258Y0153810D02*
X0119305Y0153810D01*
X0119305Y0154409D02*
X0119258Y0154409D01*
X0119258Y0155007D02*
X0119305Y0155007D01*
X0119305Y0155606D02*
X0119258Y0155606D01*
X0119258Y0156204D02*
X0119305Y0156204D01*
X0119305Y0156803D02*
X0119258Y0156803D01*
X0119258Y0157402D02*
X0119305Y0157402D01*
X0118947Y0158000D02*
X0119753Y0158000D01*
X0118348Y0158599D02*
X0132633Y0158599D01*
X0132633Y0159197D02*
X0117750Y0159197D01*
X0116808Y0158442D02*
X0118058Y0157192D01*
X0118058Y0152192D01*
X0114299Y0154817D02*
X0113683Y0154692D01*
X0091808Y0154692D01*
X0088683Y0151567D01*
X0088683Y0139692D01*
X0089933Y0138442D01*
X0092433Y0138442D01*
X0092827Y0138155D01*
X0092433Y0135942D02*
X0092827Y0135596D01*
X0092433Y0135942D02*
X0089933Y0135942D01*
X0087433Y0138442D01*
X0087433Y0152192D01*
X0093683Y0158442D01*
X0116808Y0158442D01*
X0111037Y0153212D02*
X0092025Y0153212D01*
X0091427Y0152613D02*
X0111037Y0152613D01*
X0111104Y0152015D02*
X0096470Y0152015D01*
X0092827Y0145832D02*
X0093058Y0145317D01*
X0093058Y0143442D01*
X0092827Y0143273D01*
X0093058Y0142817D01*
X0095558Y0142817D01*
X0105338Y0133037D01*
X0101433Y0130317D02*
X0092433Y0130317D01*
X0092827Y0130478D01*
X0093058Y0132817D02*
X0092827Y0133037D01*
X0093058Y0132817D02*
X0095558Y0132817D01*
X0096877Y0132264D02*
X0100002Y0132264D01*
X0099403Y0131666D02*
X0096682Y0131666D01*
X0096477Y0128673D02*
X0099698Y0128673D01*
X0100297Y0128074D02*
X0096477Y0128074D01*
X0096622Y0123885D02*
X0120608Y0123885D01*
X0120608Y0123286D02*
X0111785Y0123286D01*
X0111183Y0122192D02*
X0113683Y0119692D01*
X0114193Y0119317D01*
X0117652Y0119097D02*
X0118214Y0119097D01*
X0118214Y0119695D02*
X0117652Y0119695D01*
X0117652Y0120294D02*
X0118214Y0120294D01*
X0118214Y0120892D02*
X0117652Y0120892D01*
X0117652Y0121491D02*
X0118214Y0121491D01*
X0118214Y0122089D02*
X0117652Y0122089D01*
X0117606Y0122688D02*
X0118260Y0122688D01*
X0118214Y0118498D02*
X0117652Y0118498D01*
X0117652Y0117900D02*
X0118214Y0117900D01*
X0118214Y0117301D02*
X0117652Y0117301D01*
X0117652Y0116703D02*
X0118214Y0116703D01*
X0118214Y0116104D02*
X0117652Y0116104D01*
X0117167Y0115506D02*
X0118699Y0115506D01*
X0113683Y0124692D02*
X0093683Y0124692D01*
X0093058Y0125317D01*
X0092827Y0125360D01*
X0092827Y0122801D02*
X0092433Y0122192D01*
X0074933Y0122192D01*
X0055558Y0102817D01*
X0053833Y0107617D02*
X0053683Y0107817D01*
X0044933Y0116567D01*
X0044933Y0121567D01*
X0044476Y0121817D01*
X0044933Y0122192D01*
X0044933Y0132817D01*
X0045558Y0133442D01*
X0045567Y0133817D01*
X0046183Y0134067D01*
X0047433Y0135317D01*
X0063683Y0135317D01*
X0064039Y0135596D01*
X0064308Y0135317D01*
X0066808Y0135317D01*
X0068683Y0133442D01*
X0071808Y0133442D01*
X0068067Y0134658D02*
X0089174Y0134658D01*
X0088921Y0135257D02*
X0068089Y0135257D01*
X0068089Y0135855D02*
X0088323Y0135855D01*
X0087724Y0136454D02*
X0068089Y0136454D01*
X0067845Y0137052D02*
X0087125Y0137052D01*
X0086527Y0137651D02*
X0067689Y0137651D01*
X0067689Y0138249D02*
X0086233Y0138249D01*
X0086233Y0138848D02*
X0067689Y0138848D01*
X0067479Y0139446D02*
X0086233Y0139446D01*
X0086233Y0140045D02*
X0067689Y0140045D01*
X0067689Y0140643D02*
X0086233Y0140643D01*
X0086233Y0141242D02*
X0067689Y0141242D01*
X0067621Y0141840D02*
X0086233Y0141840D01*
X0086233Y0142439D02*
X0067689Y0142439D01*
X0067689Y0143037D02*
X0086233Y0143037D01*
X0086233Y0143636D02*
X0067689Y0143636D01*
X0067689Y0144234D02*
X0086233Y0144234D01*
X0086233Y0144833D02*
X0067689Y0144833D01*
X0067689Y0145431D02*
X0086233Y0145431D01*
X0086233Y0146030D02*
X0067689Y0146030D01*
X0067689Y0146628D02*
X0086233Y0146628D01*
X0086233Y0147227D02*
X0067583Y0147227D01*
X0067689Y0147825D02*
X0086233Y0147825D01*
X0086233Y0148424D02*
X0067689Y0148424D01*
X0067689Y0149022D02*
X0086233Y0149022D01*
X0086233Y0149621D02*
X0067518Y0149621D01*
X0067689Y0150219D02*
X0086233Y0150219D01*
X0086233Y0150818D02*
X0067689Y0150818D01*
X0067689Y0151416D02*
X0086233Y0151416D01*
X0086233Y0152015D02*
X0067683Y0152015D01*
X0067052Y0152613D02*
X0086233Y0152613D01*
X0086756Y0153212D02*
X0067650Y0153212D01*
X0068249Y0153810D02*
X0087355Y0153810D01*
X0087953Y0154409D02*
X0070529Y0154409D01*
X0071127Y0155007D02*
X0088552Y0155007D01*
X0089150Y0155606D02*
X0071697Y0155606D01*
X0071697Y0156204D02*
X0089749Y0156204D01*
X0090347Y0156803D02*
X0071697Y0156803D01*
X0071697Y0157402D02*
X0090946Y0157402D01*
X0091544Y0158000D02*
X0071253Y0158000D01*
X0070655Y0158599D02*
X0092143Y0158599D01*
X0092741Y0159197D02*
X0046133Y0159197D01*
X0046133Y0158599D02*
X0067961Y0158599D01*
X0067363Y0158000D02*
X0046133Y0158000D01*
X0046133Y0157402D02*
X0066919Y0157402D01*
X0066919Y0156803D02*
X0046133Y0156803D01*
X0046133Y0156204D02*
X0066919Y0156204D01*
X0066650Y0155606D02*
X0046133Y0155606D01*
X0046133Y0155007D02*
X0066052Y0155007D01*
X0065453Y0154409D02*
X0046133Y0154409D01*
X0046133Y0153810D02*
X0064855Y0153810D01*
X0064256Y0153212D02*
X0046133Y0153212D01*
X0046133Y0152613D02*
X0063658Y0152613D01*
X0064308Y0151567D02*
X0064039Y0150950D01*
X0064308Y0151567D02*
X0069308Y0156567D01*
X0066605Y0160464D02*
X0067132Y0160991D01*
X0067132Y0167642D01*
X0066605Y0168169D01*
X0066164Y0168169D01*
X0066697Y0168702D01*
X0066697Y0170681D01*
X0065298Y0172081D01*
X0063319Y0172081D01*
X0061919Y0170681D01*
X0061919Y0168702D01*
X0062452Y0168169D01*
X0060741Y0168169D01*
X0060214Y0167642D01*
X0060214Y0160991D01*
X0060741Y0160464D01*
X0066605Y0160464D01*
X0067132Y0160993D02*
X0078379Y0160993D01*
X0078044Y0161591D02*
X0067132Y0161591D01*
X0067132Y0162190D02*
X0078044Y0162190D01*
X0078044Y0162788D02*
X0075547Y0162788D01*
X0076146Y0163387D02*
X0078125Y0163387D01*
X0078723Y0163985D02*
X0076586Y0163985D01*
X0076586Y0164584D02*
X0079322Y0164584D01*
X0081602Y0165182D02*
X0076586Y0165182D01*
X0076858Y0165781D02*
X0082200Y0165781D01*
X0082799Y0166379D02*
X0077457Y0166379D01*
X0075260Y0167576D02*
X0067132Y0167576D01*
X0067132Y0166978D02*
X0072980Y0166978D01*
X0071808Y0165942D02*
X0062433Y0175317D01*
X0062433Y0182817D01*
X0061933Y0183092D01*
X0064308Y0185317D01*
X0064308Y0189692D01*
X0042433Y0211567D01*
X0042433Y0217817D01*
X0041183Y0219067D01*
X0040736Y0219048D02*
X0050986Y0219048D01*
X0050986Y0218450D02*
X0039876Y0218450D01*
X0040054Y0218540D02*
X0040690Y0219003D01*
X0041247Y0219559D01*
X0041709Y0220196D01*
X0042067Y0220897D01*
X0042310Y0221646D01*
X0042433Y0222423D01*
X0042433Y0222517D01*
X0037733Y0222517D01*
X0037733Y0217817D01*
X0037827Y0217817D01*
X0038604Y0217940D01*
X0039352Y0218183D01*
X0040054Y0218540D01*
X0041310Y0219647D02*
X0050986Y0219647D01*
X0051116Y0220245D02*
X0041735Y0220245D01*
X0042039Y0220844D02*
X0055638Y0220844D01*
X0056237Y0221442D02*
X0042244Y0221442D01*
X0042372Y0222041D02*
X0051464Y0222041D01*
X0050986Y0222639D02*
X0037733Y0222639D01*
X0037733Y0222041D02*
X0037133Y0222041D01*
X0037133Y0222639D02*
X0029233Y0222639D01*
X0029233Y0228026D02*
X0051023Y0228026D01*
X0050986Y0227427D02*
X0039397Y0227427D01*
X0040417Y0226829D02*
X0050986Y0226829D01*
X0050986Y0226230D02*
X0041090Y0226230D01*
X0041568Y0225632D02*
X0050986Y0225632D01*
X0050986Y0225033D02*
X0041915Y0225033D01*
X0042165Y0224435D02*
X0050986Y0224435D01*
X0050986Y0223836D02*
X0042334Y0223836D01*
X0042429Y0223238D02*
X0050986Y0223238D01*
X0050986Y0217851D02*
X0038045Y0217851D01*
X0037733Y0217851D02*
X0037133Y0217851D01*
X0037133Y0218450D02*
X0037733Y0218450D01*
X0037733Y0219048D02*
X0037133Y0219048D01*
X0037133Y0219647D02*
X0037733Y0219647D01*
X0037733Y0220245D02*
X0037133Y0220245D01*
X0037133Y0220844D02*
X0037733Y0220844D01*
X0037733Y0221442D02*
X0037133Y0221442D01*
X0038744Y0217253D02*
X0050986Y0217253D01*
X0050986Y0216654D02*
X0040101Y0216654D01*
X0040699Y0216056D02*
X0050986Y0216056D01*
X0050986Y0215457D02*
X0041298Y0215457D01*
X0041566Y0214859D02*
X0050986Y0214859D01*
X0051370Y0214260D02*
X0041814Y0214260D01*
X0042033Y0213662D02*
X0073016Y0213662D01*
X0072418Y0214260D02*
X0057126Y0214260D01*
X0057510Y0214859D02*
X0071819Y0214859D01*
X0071220Y0215457D02*
X0057510Y0215457D01*
X0057510Y0216056D02*
X0070622Y0216056D01*
X0070023Y0216654D02*
X0057510Y0216654D01*
X0057510Y0217253D02*
X0069425Y0217253D01*
X0069214Y0217464D02*
X0073794Y0212884D01*
X0073794Y0211202D01*
X0075194Y0209803D01*
X0077173Y0209803D01*
X0078572Y0211202D01*
X0078572Y0213181D01*
X0077173Y0214581D01*
X0075491Y0214581D01*
X0071388Y0218684D01*
X0071388Y0224642D01*
X0070861Y0225169D01*
X0063816Y0225169D01*
X0063289Y0224642D01*
X0063289Y0217991D01*
X0063816Y0217464D01*
X0069214Y0217464D01*
X0071622Y0218450D02*
X0086978Y0218450D01*
X0086379Y0219048D02*
X0071388Y0219048D01*
X0071388Y0219647D02*
X0085781Y0219647D01*
X0085182Y0220245D02*
X0071388Y0220245D01*
X0071388Y0220844D02*
X0084584Y0220844D01*
X0083985Y0221442D02*
X0071388Y0221442D01*
X0071388Y0222041D02*
X0083387Y0222041D01*
X0082788Y0222639D02*
X0071388Y0222639D01*
X0071388Y0223238D02*
X0082190Y0223238D01*
X0081591Y0223836D02*
X0071388Y0223836D01*
X0071388Y0224435D02*
X0080993Y0224435D01*
X0080394Y0225033D02*
X0070997Y0225033D01*
X0067339Y0221317D02*
X0067433Y0220942D01*
X0076183Y0212192D01*
X0078039Y0210669D02*
X0094759Y0210669D01*
X0095357Y0210070D02*
X0077441Y0210070D01*
X0078572Y0211268D02*
X0094160Y0211268D01*
X0093562Y0211866D02*
X0078572Y0211866D01*
X0078572Y0212465D02*
X0092963Y0212465D01*
X0092365Y0213063D02*
X0078572Y0213063D01*
X0078092Y0213662D02*
X0091766Y0213662D01*
X0091168Y0214260D02*
X0077493Y0214260D01*
X0075213Y0214859D02*
X0090569Y0214859D01*
X0089971Y0215457D02*
X0074615Y0215457D01*
X0074016Y0216056D02*
X0089372Y0216056D01*
X0088773Y0216654D02*
X0073418Y0216654D01*
X0072819Y0217253D02*
X0088175Y0217253D01*
X0087576Y0217851D02*
X0072221Y0217851D01*
X0073615Y0213063D02*
X0042033Y0213063D01*
X0042033Y0212465D02*
X0060578Y0212465D01*
X0059979Y0211866D02*
X0042018Y0211866D01*
X0041770Y0211268D02*
X0059419Y0211268D01*
X0059419Y0210669D02*
X0041523Y0210669D01*
X0041192Y0210070D02*
X0059419Y0210070D01*
X0059419Y0209472D02*
X0040594Y0209472D01*
X0039948Y0208873D02*
X0059873Y0208873D01*
X0060471Y0208275D02*
X0040547Y0208275D01*
X0041145Y0207676D02*
X0056741Y0207676D01*
X0056643Y0207078D02*
X0041744Y0207078D01*
X0042342Y0206479D02*
X0056643Y0206479D01*
X0056643Y0205881D02*
X0042941Y0205881D01*
X0043539Y0205282D02*
X0056643Y0205282D01*
X0056643Y0204684D02*
X0044138Y0204684D01*
X0044736Y0204085D02*
X0056643Y0204085D01*
X0056643Y0203487D02*
X0045335Y0203487D01*
X0045933Y0202888D02*
X0056643Y0202888D01*
X0056643Y0202290D02*
X0046532Y0202290D01*
X0047130Y0201691D02*
X0056643Y0201691D01*
X0056643Y0201093D02*
X0047729Y0201093D01*
X0048327Y0200494D02*
X0056643Y0200494D01*
X0056643Y0199896D02*
X0048926Y0199896D01*
X0049524Y0199297D02*
X0056643Y0199297D01*
X0056643Y0198699D02*
X0050123Y0198699D01*
X0050721Y0198100D02*
X0056643Y0198100D01*
X0056644Y0197502D02*
X0051320Y0197502D01*
X0051918Y0196903D02*
X0061233Y0196903D01*
X0061233Y0196305D02*
X0052517Y0196305D01*
X0053115Y0195706D02*
X0061233Y0195706D01*
X0061570Y0195108D02*
X0053714Y0195108D01*
X0054312Y0194509D02*
X0062168Y0194509D01*
X0062767Y0193911D02*
X0054911Y0193911D01*
X0055510Y0193312D02*
X0063365Y0193312D01*
X0063964Y0192714D02*
X0056108Y0192714D01*
X0056707Y0192115D02*
X0064562Y0192115D01*
X0065161Y0191517D02*
X0057305Y0191517D01*
X0057383Y0190918D02*
X0065759Y0190918D01*
X0066358Y0190320D02*
X0057383Y0190320D01*
X0057383Y0189721D02*
X0066956Y0189721D01*
X0067555Y0189123D02*
X0057383Y0189123D01*
X0056183Y0190942D02*
X0056183Y0164692D01*
X0056193Y0164317D01*
X0057383Y0168175D02*
X0062446Y0168175D01*
X0061919Y0168773D02*
X0057383Y0168773D01*
X0057383Y0169372D02*
X0061919Y0169372D01*
X0061919Y0169970D02*
X0057383Y0169970D01*
X0057383Y0170569D02*
X0061919Y0170569D01*
X0062405Y0171167D02*
X0057383Y0171167D01*
X0057383Y0171766D02*
X0063004Y0171766D01*
X0064308Y0169692D02*
X0064308Y0165317D01*
X0063683Y0164692D01*
X0063673Y0164317D01*
X0060214Y0164584D02*
X0059652Y0164584D01*
X0059652Y0165182D02*
X0060214Y0165182D01*
X0060214Y0165781D02*
X0059652Y0165781D01*
X0059652Y0166379D02*
X0060214Y0166379D01*
X0060214Y0166978D02*
X0059652Y0166978D01*
X0059652Y0167576D02*
X0060214Y0167576D01*
X0060214Y0163985D02*
X0059652Y0163985D01*
X0059652Y0163387D02*
X0060214Y0163387D01*
X0060214Y0162788D02*
X0059652Y0162788D01*
X0059652Y0162190D02*
X0060214Y0162190D01*
X0060214Y0161591D02*
X0059652Y0161591D01*
X0059652Y0160993D02*
X0060214Y0160993D01*
X0060396Y0152015D02*
X0046133Y0152015D01*
X0046133Y0151416D02*
X0060389Y0151416D01*
X0060389Y0150818D02*
X0048457Y0150818D01*
X0048632Y0150219D02*
X0060389Y0150219D01*
X0060561Y0149621D02*
X0048632Y0149621D01*
X0048632Y0149022D02*
X0060389Y0149022D01*
X0060389Y0148424D02*
X0048632Y0148424D01*
X0048632Y0147825D02*
X0060389Y0147825D01*
X0060496Y0147227D02*
X0048632Y0147227D01*
X0048632Y0146628D02*
X0060389Y0146628D01*
X0060389Y0146030D02*
X0048632Y0146030D01*
X0049015Y0145431D02*
X0060389Y0145431D01*
X0060389Y0144833D02*
X0049614Y0144833D01*
X0045957Y0143037D02*
X0042383Y0143037D01*
X0042383Y0142439D02*
X0045358Y0142439D01*
X0044760Y0141840D02*
X0042383Y0141840D01*
X0041930Y0141242D02*
X0044161Y0141242D01*
X0043563Y0140643D02*
X0041332Y0140643D01*
X0040733Y0140045D02*
X0042964Y0140045D01*
X0042366Y0139446D02*
X0040135Y0139446D01*
X0039536Y0138848D02*
X0041767Y0138848D01*
X0041169Y0138249D02*
X0038938Y0138249D01*
X0037433Y0140317D02*
X0033683Y0136567D01*
X0033683Y0125317D01*
X0036808Y0122192D01*
X0037390Y0121817D01*
X0036808Y0121567D01*
X0036808Y0108442D01*
X0036183Y0107817D01*
X0036033Y0107617D01*
X0029233Y0102338D02*
X0050589Y0102338D01*
X0051188Y0101740D02*
X0029233Y0101740D01*
X0043210Y0113112D02*
X0064156Y0113112D01*
X0064755Y0113710D02*
X0043008Y0113710D01*
X0043008Y0114309D02*
X0065353Y0114309D01*
X0065952Y0114907D02*
X0043008Y0114907D01*
X0043008Y0115506D02*
X0066550Y0115506D01*
X0067689Y0116703D02*
X0067747Y0116703D01*
X0067689Y0117301D02*
X0068346Y0117301D01*
X0068944Y0117900D02*
X0067689Y0117900D01*
X0067689Y0118498D02*
X0069543Y0118498D01*
X0070141Y0119097D02*
X0067602Y0119097D01*
X0067689Y0119695D02*
X0070740Y0119695D01*
X0071338Y0120294D02*
X0067689Y0120294D01*
X0067689Y0120892D02*
X0071937Y0120892D01*
X0072535Y0121491D02*
X0067498Y0121491D01*
X0067689Y0122089D02*
X0073134Y0122089D01*
X0073732Y0122688D02*
X0067689Y0122688D01*
X0067689Y0123286D02*
X0074331Y0123286D01*
X0075331Y0120892D02*
X0089177Y0120892D01*
X0089177Y0120294D02*
X0074732Y0120294D01*
X0074134Y0119695D02*
X0089177Y0119695D01*
X0089264Y0119097D02*
X0073535Y0119097D01*
X0072937Y0118498D02*
X0089177Y0118498D01*
X0089177Y0117900D02*
X0072338Y0117900D01*
X0071740Y0117301D02*
X0089177Y0117301D01*
X0089177Y0116703D02*
X0071141Y0116703D01*
X0070543Y0116104D02*
X0089697Y0116104D01*
X0093058Y0122192D02*
X0092827Y0122801D01*
X0093058Y0122192D02*
X0111183Y0122192D01*
X0110734Y0120892D02*
X0100554Y0120892D01*
X0101153Y0120294D02*
X0110734Y0120294D01*
X0110734Y0119695D02*
X0101751Y0119695D01*
X0102350Y0119097D02*
X0110734Y0119097D01*
X0110734Y0118498D02*
X0102948Y0118498D01*
X0103547Y0117900D02*
X0110734Y0117900D01*
X0110734Y0117301D02*
X0104145Y0117301D01*
X0104744Y0116703D02*
X0110734Y0116703D01*
X0110734Y0116104D02*
X0105333Y0116104D01*
X0105333Y0115506D02*
X0111219Y0115506D01*
X0117721Y0101141D02*
X0120880Y0101141D01*
X0120783Y0100543D02*
X0118024Y0100543D01*
X0118024Y0099944D02*
X0120783Y0099944D01*
X0120783Y0099346D02*
X0118024Y0099346D01*
X0118024Y0098747D02*
X0119640Y0098747D01*
X0118231Y0098149D02*
X0118024Y0098149D01*
X0095315Y0101141D02*
X0088949Y0101141D01*
X0089680Y0100543D02*
X0094236Y0100543D01*
X0093637Y0099944D02*
X0090172Y0099944D01*
X0090506Y0099346D02*
X0093280Y0099346D01*
X0093032Y0098747D02*
X0090721Y0098747D01*
X0090838Y0098149D02*
X0092885Y0098149D01*
X0087054Y0098149D02*
X0086454Y0098149D01*
X0086754Y0097655D02*
X0086183Y0097085D01*
X0086183Y0093442D01*
X0084933Y0092192D01*
X0084933Y0047192D01*
X0085433Y0046817D01*
X0086183Y0097085D02*
X0086754Y0097655D01*
X0086454Y0098747D02*
X0087054Y0098747D01*
X0087054Y0099346D02*
X0086454Y0099346D01*
X0086454Y0099944D02*
X0087054Y0099944D01*
X0087054Y0100543D02*
X0086454Y0100543D01*
X0086454Y0101141D02*
X0087054Y0101141D01*
X0084558Y0101141D02*
X0083386Y0101141D01*
X0083483Y0100543D02*
X0083827Y0100543D01*
X0089032Y0123885D02*
X0067663Y0123885D01*
X0067689Y0124483D02*
X0088782Y0124483D01*
X0088777Y0125082D02*
X0067689Y0125082D01*
X0067689Y0125680D02*
X0088777Y0125680D01*
X0088794Y0126279D02*
X0067689Y0126279D01*
X0067689Y0126877D02*
X0089071Y0126877D01*
X0089177Y0127476D02*
X0067689Y0127476D01*
X0067689Y0128074D02*
X0089177Y0128074D01*
X0089177Y0128673D02*
X0067689Y0128673D01*
X0067541Y0129271D02*
X0089325Y0129271D01*
X0089177Y0129870D02*
X0067689Y0129870D01*
X0067689Y0130468D02*
X0089177Y0130468D01*
X0089177Y0131067D02*
X0067689Y0131067D01*
X0067560Y0131666D02*
X0088972Y0131666D01*
X0088777Y0132264D02*
X0067689Y0132264D01*
X0067689Y0132863D02*
X0088777Y0132863D01*
X0088777Y0133461D02*
X0067689Y0133461D01*
X0067776Y0134060D02*
X0088821Y0134060D01*
X0092784Y0143636D02*
X0092869Y0143636D01*
X0092869Y0144234D02*
X0092784Y0144234D01*
X0092784Y0144833D02*
X0092869Y0144833D01*
X0092869Y0145431D02*
X0092784Y0145431D01*
X0093336Y0161591D02*
X0132633Y0161591D01*
X0132633Y0160993D02*
X0082488Y0160993D01*
X0082822Y0161591D02*
X0091280Y0161591D01*
X0090682Y0162190D02*
X0082822Y0162190D01*
X0082822Y0162788D02*
X0090083Y0162788D01*
X0089919Y0163387D02*
X0083200Y0163387D01*
X0083799Y0163985D02*
X0089919Y0163985D01*
X0089919Y0164584D02*
X0084397Y0164584D01*
X0084996Y0165182D02*
X0090170Y0165182D01*
X0090769Y0165781D02*
X0085594Y0165781D01*
X0086193Y0166379D02*
X0093049Y0166379D01*
X0093647Y0166978D02*
X0086791Y0166978D01*
X0087390Y0167576D02*
X0094246Y0167576D01*
X0094844Y0168175D02*
X0087988Y0168175D01*
X0088587Y0168773D02*
X0094983Y0168773D01*
X0094983Y0169372D02*
X0089185Y0169372D01*
X0089784Y0169970D02*
X0094983Y0169970D01*
X0094983Y0170569D02*
X0089883Y0170569D01*
X0089883Y0171167D02*
X0094983Y0171167D01*
X0094983Y0171766D02*
X0089883Y0171766D01*
X0089883Y0172364D02*
X0094983Y0172364D01*
X0094983Y0172963D02*
X0089883Y0172963D01*
X0089883Y0173561D02*
X0094983Y0173561D01*
X0094983Y0174160D02*
X0089883Y0174160D01*
X0089883Y0174758D02*
X0094983Y0174758D01*
X0094983Y0175357D02*
X0089883Y0175357D01*
X0089883Y0175955D02*
X0094983Y0175955D01*
X0094983Y0176554D02*
X0089883Y0176554D01*
X0090341Y0177152D02*
X0094983Y0177152D01*
X0094983Y0177751D02*
X0090939Y0177751D01*
X0091538Y0178349D02*
X0094983Y0178349D01*
X0094983Y0178948D02*
X0092136Y0178948D01*
X0092735Y0179546D02*
X0094983Y0179546D01*
X0094983Y0180145D02*
X0093333Y0180145D01*
X0093932Y0180743D02*
X0094983Y0180743D01*
X0094983Y0181342D02*
X0094530Y0181342D01*
X0096183Y0182817D02*
X0096183Y0167817D01*
X0092308Y0163942D01*
X0094697Y0163985D02*
X0132633Y0163985D01*
X0132633Y0163387D02*
X0094697Y0163387D01*
X0094533Y0162788D02*
X0132633Y0162788D01*
X0132633Y0162190D02*
X0093935Y0162190D01*
X0094697Y0164584D02*
X0100412Y0164584D01*
X0099814Y0165182D02*
X0095246Y0165182D01*
X0095844Y0165781D02*
X0099419Y0165781D01*
X0099419Y0166379D02*
X0096443Y0166379D01*
X0097041Y0166978D02*
X0099419Y0166978D01*
X0099439Y0167576D02*
X0097383Y0167576D01*
X0097383Y0168175D02*
X0098658Y0168175D01*
X0098196Y0168773D02*
X0097383Y0168773D01*
X0097383Y0169372D02*
X0098196Y0169372D01*
X0098196Y0169970D02*
X0097383Y0169970D01*
X0097383Y0170569D02*
X0098202Y0170569D01*
X0098196Y0171167D02*
X0097383Y0171167D01*
X0097383Y0171766D02*
X0098196Y0171766D01*
X0098196Y0172364D02*
X0097383Y0172364D01*
X0097383Y0172963D02*
X0098196Y0172963D01*
X0098196Y0173561D02*
X0097383Y0173561D01*
X0097383Y0174160D02*
X0098196Y0174160D01*
X0098196Y0174758D02*
X0097383Y0174758D01*
X0097383Y0175357D02*
X0098196Y0175357D01*
X0098196Y0175955D02*
X0097383Y0175955D01*
X0097383Y0176554D02*
X0098196Y0176554D01*
X0098196Y0177152D02*
X0097383Y0177152D01*
X0097383Y0177751D02*
X0098196Y0177751D01*
X0098196Y0178349D02*
X0097383Y0178349D01*
X0097383Y0178948D02*
X0098196Y0178948D01*
X0098196Y0179546D02*
X0097383Y0179546D01*
X0097383Y0180145D02*
X0098196Y0180145D01*
X0098196Y0180743D02*
X0097383Y0180743D01*
X0097383Y0181342D02*
X0098196Y0181342D01*
X0098196Y0181940D02*
X0097383Y0181940D01*
X0097602Y0182539D02*
X0098196Y0182539D01*
X0096183Y0182817D02*
X0098683Y0185317D01*
X0101808Y0185317D01*
X0102000Y0185348D01*
X0101808Y0187192D02*
X0102000Y0187317D01*
X0101808Y0187192D02*
X0098683Y0187192D01*
X0088683Y0177192D01*
X0088683Y0170567D01*
X0080433Y0162317D01*
X0078977Y0160394D02*
X0046133Y0160394D01*
X0046133Y0159796D02*
X0132633Y0159796D01*
X0132633Y0160394D02*
X0081889Y0160394D01*
X0082708Y0166978D02*
X0083397Y0166978D01*
X0083306Y0167576D02*
X0083996Y0167576D01*
X0083870Y0168175D02*
X0084594Y0168175D01*
X0085193Y0168773D02*
X0083870Y0168773D01*
X0083870Y0169372D02*
X0085791Y0169372D01*
X0086390Y0169970D02*
X0083870Y0169970D01*
X0083870Y0170569D02*
X0086988Y0170569D01*
X0087483Y0171167D02*
X0083870Y0171167D01*
X0083870Y0171766D02*
X0087483Y0171766D01*
X0087483Y0172364D02*
X0083870Y0172364D01*
X0083870Y0172963D02*
X0087483Y0172963D01*
X0087483Y0173561D02*
X0083870Y0173561D01*
X0083870Y0174160D02*
X0087483Y0174160D01*
X0087483Y0174758D02*
X0083870Y0174758D01*
X0083870Y0175357D02*
X0087483Y0175357D01*
X0087483Y0175955D02*
X0083870Y0175955D01*
X0083870Y0176554D02*
X0087483Y0176554D01*
X0087483Y0177152D02*
X0083870Y0177152D01*
X0083870Y0177751D02*
X0087545Y0177751D01*
X0088144Y0178349D02*
X0083870Y0178349D01*
X0083870Y0178948D02*
X0088742Y0178948D01*
X0089341Y0179546D02*
X0083870Y0179546D01*
X0083870Y0180145D02*
X0089939Y0180145D01*
X0090538Y0180743D02*
X0083870Y0180743D01*
X0083870Y0181342D02*
X0091136Y0181342D01*
X0091735Y0181940D02*
X0083870Y0181940D01*
X0083870Y0182539D02*
X0092333Y0182539D01*
X0092932Y0183137D02*
X0083870Y0183137D01*
X0083870Y0183736D02*
X0093530Y0183736D01*
X0094129Y0184335D02*
X0083870Y0184335D01*
X0083870Y0184933D02*
X0094727Y0184933D01*
X0095326Y0185532D02*
X0083870Y0185532D01*
X0083870Y0186130D02*
X0095924Y0186130D01*
X0096523Y0186729D02*
X0083870Y0186729D01*
X0083870Y0187327D02*
X0097122Y0187327D01*
X0097720Y0187926D02*
X0083870Y0187926D01*
X0083870Y0188524D02*
X0098196Y0188524D01*
X0098196Y0189123D02*
X0083870Y0189123D01*
X0083870Y0189721D02*
X0098196Y0189721D01*
X0098196Y0190320D02*
X0083870Y0190320D01*
X0083697Y0190918D02*
X0098196Y0190918D01*
X0098196Y0191517D02*
X0083098Y0191517D01*
X0082670Y0192115D02*
X0098196Y0192115D01*
X0098196Y0192714D02*
X0082670Y0192714D01*
X0082670Y0193312D02*
X0098196Y0193312D01*
X0098196Y0193911D02*
X0082670Y0193911D01*
X0082670Y0196903D02*
X0091073Y0196903D01*
X0091671Y0197502D02*
X0082670Y0197502D01*
X0082670Y0198100D02*
X0092270Y0198100D01*
X0092868Y0198699D02*
X0082670Y0198699D01*
X0082670Y0199297D02*
X0093467Y0199297D01*
X0094065Y0199896D02*
X0082670Y0199896D01*
X0082670Y0200494D02*
X0094664Y0200494D01*
X0095262Y0201093D02*
X0082670Y0201093D01*
X0082670Y0201691D02*
X0095861Y0201691D01*
X0096459Y0202290D02*
X0082670Y0202290D01*
X0082670Y0202888D02*
X0097058Y0202888D01*
X0097656Y0203487D02*
X0082670Y0203487D01*
X0082670Y0204085D02*
X0098196Y0204085D01*
X0098196Y0204684D02*
X0082670Y0204684D01*
X0082670Y0205282D02*
X0098196Y0205282D01*
X0098196Y0205881D02*
X0082670Y0205881D01*
X0082187Y0206479D02*
X0098679Y0206479D01*
X0098350Y0207078D02*
X0067223Y0207078D01*
X0067223Y0206479D02*
X0075546Y0206479D01*
X0075063Y0205881D02*
X0067223Y0205881D01*
X0067223Y0205282D02*
X0075063Y0205282D01*
X0075063Y0204684D02*
X0067223Y0204684D01*
X0067223Y0204085D02*
X0075063Y0204085D01*
X0075063Y0203487D02*
X0067223Y0203487D01*
X0067223Y0202888D02*
X0075063Y0202888D01*
X0075063Y0202290D02*
X0067223Y0202290D01*
X0067223Y0201691D02*
X0075063Y0201691D01*
X0075063Y0201093D02*
X0067223Y0201093D01*
X0067223Y0200494D02*
X0075063Y0200494D01*
X0075063Y0199896D02*
X0067223Y0199896D01*
X0067223Y0199297D02*
X0075063Y0199297D01*
X0075063Y0198699D02*
X0067223Y0198699D01*
X0067223Y0198100D02*
X0075063Y0198100D01*
X0075063Y0197502D02*
X0067222Y0197502D01*
X0064964Y0195108D02*
X0075063Y0195108D01*
X0075063Y0195706D02*
X0064365Y0195706D01*
X0063767Y0196305D02*
X0075063Y0196305D01*
X0075063Y0196903D02*
X0063633Y0196903D01*
X0062433Y0195942D02*
X0062433Y0202192D01*
X0061933Y0202541D01*
X0061808Y0202817D01*
X0061808Y0210317D01*
X0063637Y0211866D02*
X0073794Y0211866D01*
X0073794Y0211268D02*
X0064197Y0211268D01*
X0064197Y0210669D02*
X0074327Y0210669D01*
X0074926Y0210070D02*
X0064197Y0210070D01*
X0064197Y0209472D02*
X0095956Y0209472D01*
X0096554Y0208873D02*
X0063743Y0208873D01*
X0063145Y0208275D02*
X0097153Y0208275D01*
X0097751Y0207676D02*
X0067126Y0207676D01*
X0063039Y0212465D02*
X0073794Y0212465D01*
X0079796Y0225632D02*
X0063820Y0225632D01*
X0063680Y0225033D02*
X0063222Y0225033D01*
X0063289Y0224435D02*
X0062623Y0224435D01*
X0062025Y0223836D02*
X0063289Y0223836D01*
X0063289Y0223238D02*
X0061426Y0223238D01*
X0060828Y0222639D02*
X0063289Y0222639D01*
X0063289Y0222041D02*
X0060229Y0222041D01*
X0059631Y0221442D02*
X0063289Y0221442D01*
X0063289Y0220844D02*
X0059032Y0220844D01*
X0058434Y0220245D02*
X0063289Y0220245D01*
X0063289Y0219647D02*
X0057835Y0219647D01*
X0057510Y0219048D02*
X0063289Y0219048D01*
X0063289Y0218450D02*
X0057510Y0218450D01*
X0057510Y0217851D02*
X0063429Y0217851D01*
X0058631Y0223836D02*
X0057510Y0223836D01*
X0057510Y0223238D02*
X0058032Y0223238D01*
X0057510Y0224435D02*
X0059229Y0224435D01*
X0059828Y0225033D02*
X0057510Y0225033D01*
X0057510Y0225632D02*
X0060426Y0225632D01*
X0061025Y0226230D02*
X0057510Y0226230D01*
X0057510Y0226829D02*
X0061623Y0226829D01*
X0062222Y0227427D02*
X0057510Y0227427D01*
X0057473Y0228026D02*
X0062820Y0228026D01*
X0063419Y0228624D02*
X0029233Y0228624D01*
X0029233Y0229223D02*
X0064017Y0229223D01*
X0064616Y0229821D02*
X0029233Y0229821D01*
X0029233Y0230420D02*
X0065214Y0230420D01*
X0065813Y0231018D02*
X0029233Y0231018D01*
X0029233Y0231617D02*
X0066411Y0231617D01*
X0067010Y0232215D02*
X0029233Y0232215D01*
X0029233Y0232814D02*
X0067608Y0232814D01*
X0067084Y0233412D02*
X0029233Y0233412D01*
X0029233Y0234011D02*
X0067065Y0234011D01*
X0067065Y0234609D02*
X0057561Y0234609D01*
X0058779Y0235208D02*
X0067065Y0235208D01*
X0067065Y0235806D02*
X0059378Y0235806D01*
X0059976Y0236405D02*
X0067065Y0236405D01*
X0067065Y0237004D02*
X0060356Y0237004D01*
X0060604Y0237602D02*
X0067065Y0237602D01*
X0067065Y0238201D02*
X0060852Y0238201D01*
X0061058Y0238799D02*
X0067355Y0238799D01*
X0067463Y0239286D02*
X0067793Y0239198D01*
X0069633Y0239198D01*
X0069633Y0242363D01*
X0066665Y0242363D01*
X0066665Y0240327D01*
X0066753Y0239996D01*
X0061058Y0239996D01*
X0061058Y0239398D02*
X0067270Y0239398D01*
X0067166Y0239457D02*
X0067463Y0239286D01*
X0067166Y0239457D02*
X0066924Y0239699D01*
X0066753Y0239996D01*
X0066665Y0240595D02*
X0061058Y0240595D01*
X0060951Y0241193D02*
X0066665Y0241193D01*
X0066665Y0241792D02*
X0060703Y0241792D01*
X0060456Y0242390D02*
X0069633Y0242390D01*
X0069633Y0242363D02*
X0069633Y0242963D01*
X0066665Y0242963D01*
X0066665Y0245000D01*
X0066753Y0245330D01*
X0066924Y0245627D01*
X0067166Y0245869D01*
X0067463Y0246040D01*
X0067793Y0246128D01*
X0069633Y0246128D01*
X0069633Y0242963D01*
X0070233Y0242963D01*
X0070233Y0246128D01*
X0072073Y0246128D01*
X0072403Y0246040D01*
X0072700Y0245869D01*
X0072942Y0245627D01*
X0073113Y0245330D01*
X0073202Y0245000D01*
X0073202Y0242963D01*
X0070233Y0242963D01*
X0070233Y0242363D01*
X0070233Y0239198D01*
X0072073Y0239198D01*
X0072403Y0239286D01*
X0072700Y0239457D01*
X0072942Y0239699D01*
X0073113Y0239996D01*
X0092771Y0239996D01*
X0092771Y0239398D02*
X0072596Y0239398D01*
X0072511Y0238799D02*
X0092771Y0238799D01*
X0092771Y0237602D02*
X0072802Y0237602D01*
X0072802Y0237004D02*
X0092771Y0237004D01*
X0093362Y0233412D02*
X0075409Y0233412D01*
X0076008Y0232814D02*
X0078427Y0232814D01*
X0077828Y0232215D02*
X0076606Y0232215D01*
X0077205Y0231617D02*
X0077544Y0231617D01*
X0075606Y0229821D02*
X0068010Y0229821D01*
X0067411Y0229223D02*
X0076205Y0229223D01*
X0076803Y0228624D02*
X0066813Y0228624D01*
X0066214Y0228026D02*
X0077402Y0228026D01*
X0078000Y0227427D02*
X0065616Y0227427D01*
X0065017Y0226829D02*
X0078599Y0226829D01*
X0079197Y0226230D02*
X0064419Y0226230D01*
X0068608Y0230420D02*
X0075008Y0230420D01*
X0074409Y0231018D02*
X0069207Y0231018D01*
X0069805Y0231617D02*
X0073811Y0231617D01*
X0073212Y0232215D02*
X0070404Y0232215D01*
X0071002Y0232814D02*
X0072614Y0232814D01*
X0071808Y0235317D02*
X0070558Y0235317D01*
X0069933Y0235942D01*
X0069933Y0235970D01*
X0071808Y0235317D01*
X0101808Y0205317D01*
X0102000Y0205033D01*
X0101744Y0207078D02*
X0105044Y0207078D01*
X0105164Y0207676D02*
X0101145Y0207676D01*
X0100547Y0208275D02*
X0105763Y0208275D01*
X0106361Y0208873D02*
X0099948Y0208873D01*
X0099350Y0209472D02*
X0108641Y0209472D01*
X0109240Y0210070D02*
X0098751Y0210070D01*
X0098153Y0210669D02*
X0109838Y0210669D01*
X0110437Y0211268D02*
X0097554Y0211268D01*
X0096956Y0211866D02*
X0111035Y0211866D01*
X0111634Y0212465D02*
X0096357Y0212465D01*
X0095759Y0213063D02*
X0112232Y0213063D01*
X0112734Y0213662D02*
X0095160Y0213662D01*
X0094562Y0214260D02*
X0112734Y0214260D01*
X0112734Y0214859D02*
X0093963Y0214859D01*
X0093365Y0215457D02*
X0112734Y0215457D01*
X0112734Y0216056D02*
X0092766Y0216056D01*
X0092168Y0216654D02*
X0112734Y0216654D01*
X0112734Y0217253D02*
X0091569Y0217253D01*
X0090971Y0217851D02*
X0112734Y0217851D01*
X0112734Y0218450D02*
X0090372Y0218450D01*
X0089774Y0219048D02*
X0113140Y0219048D01*
X0116183Y0215317D02*
X0107433Y0206567D01*
X0105937Y0204684D02*
X0105804Y0204684D01*
X0105804Y0204085D02*
X0113262Y0204085D01*
X0112786Y0203487D02*
X0105804Y0203487D01*
X0105804Y0202888D02*
X0112538Y0202888D01*
X0112290Y0202290D02*
X0105804Y0202290D01*
X0108929Y0204684D02*
X0113861Y0204684D01*
X0115032Y0205282D02*
X0109527Y0205282D01*
X0109822Y0205881D02*
X0119425Y0205881D01*
X0118827Y0205282D02*
X0117834Y0205282D01*
X0120024Y0206479D02*
X0109822Y0206479D01*
X0109822Y0207078D02*
X0120622Y0207078D01*
X0121221Y0207676D02*
X0110240Y0207676D01*
X0110838Y0208275D02*
X0121819Y0208275D01*
X0122418Y0208873D02*
X0111437Y0208873D01*
X0112036Y0209472D02*
X0123016Y0209472D01*
X0123615Y0210070D02*
X0112634Y0210070D01*
X0113233Y0210669D02*
X0124213Y0210669D01*
X0124812Y0211268D02*
X0113831Y0211268D01*
X0116183Y0215317D02*
X0116193Y0215317D01*
X0119652Y0215457D02*
X0120214Y0215457D01*
X0120214Y0214859D02*
X0119652Y0214859D01*
X0119652Y0214260D02*
X0120214Y0214260D01*
X0120214Y0213662D02*
X0119652Y0213662D01*
X0119652Y0213063D02*
X0120214Y0213063D01*
X0120214Y0212465D02*
X0119652Y0212465D01*
X0119527Y0211866D02*
X0120339Y0211866D01*
X0120214Y0216056D02*
X0119652Y0216056D01*
X0119652Y0216654D02*
X0120214Y0216654D01*
X0120214Y0217253D02*
X0119652Y0217253D01*
X0119652Y0217851D02*
X0120214Y0217851D01*
X0120214Y0218450D02*
X0119652Y0218450D01*
X0119246Y0219048D02*
X0120620Y0219048D01*
X0122483Y0219647D02*
X0089175Y0219647D01*
X0088577Y0220245D02*
X0122483Y0220245D01*
X0122277Y0220844D02*
X0087978Y0220844D01*
X0087379Y0221442D02*
X0121679Y0221442D01*
X0121294Y0222041D02*
X0086781Y0222041D01*
X0086182Y0222639D02*
X0121294Y0222639D01*
X0121294Y0223238D02*
X0085584Y0223238D01*
X0084985Y0223836D02*
X0121324Y0223836D01*
X0122776Y0228026D02*
X0125608Y0228026D01*
X0125608Y0228624D02*
X0125351Y0228624D01*
X0125351Y0229223D02*
X0125608Y0229223D01*
X0125608Y0229821D02*
X0125351Y0229821D01*
X0125332Y0230420D02*
X0125608Y0230420D01*
X0125608Y0231018D02*
X0125050Y0231018D01*
X0125351Y0227427D02*
X0125540Y0227427D01*
X0126808Y0225317D02*
X0126808Y0240317D01*
X0126933Y0240617D01*
X0124983Y0241193D02*
X0124283Y0241193D01*
X0124283Y0241792D02*
X0124983Y0241792D01*
X0124983Y0242390D02*
X0124283Y0242390D01*
X0124283Y0242989D02*
X0124983Y0242989D01*
X0124983Y0243587D02*
X0124283Y0243587D01*
X0124283Y0244186D02*
X0124983Y0244186D01*
X0124768Y0247178D02*
X0132633Y0247178D01*
X0132633Y0246580D02*
X0129117Y0246580D01*
X0129716Y0245981D02*
X0132633Y0245981D01*
X0132633Y0245383D02*
X0130314Y0245383D01*
X0130508Y0244784D02*
X0132633Y0244784D01*
X0132633Y0244186D02*
X0130508Y0244186D01*
X0130508Y0243587D02*
X0132633Y0243587D01*
X0132633Y0242989D02*
X0130508Y0242989D01*
X0130508Y0242390D02*
X0132633Y0242390D01*
X0132633Y0241792D02*
X0130508Y0241792D01*
X0130508Y0241193D02*
X0132633Y0241193D01*
X0132633Y0240595D02*
X0130508Y0240595D01*
X0130508Y0239996D02*
X0132633Y0239996D01*
X0132633Y0239398D02*
X0130508Y0239398D01*
X0130508Y0238799D02*
X0132633Y0238799D01*
X0132633Y0238201D02*
X0130508Y0238201D01*
X0130508Y0237602D02*
X0132633Y0237602D01*
X0132633Y0237004D02*
X0130508Y0237004D01*
X0130508Y0236405D02*
X0132633Y0236405D01*
X0132633Y0235806D02*
X0130508Y0235806D01*
X0130508Y0235208D02*
X0132633Y0235208D01*
X0132633Y0234609D02*
X0130508Y0234609D01*
X0130508Y0234011D02*
X0132633Y0234011D01*
X0132633Y0233412D02*
X0130508Y0233412D01*
X0130508Y0232814D02*
X0132633Y0232814D01*
X0132633Y0232215D02*
X0130508Y0232215D01*
X0130508Y0231617D02*
X0132633Y0231617D01*
X0132633Y0231018D02*
X0130508Y0231018D01*
X0130508Y0230420D02*
X0132633Y0230420D01*
X0132633Y0229821D02*
X0130508Y0229821D01*
X0130508Y0229223D02*
X0132633Y0229223D01*
X0132633Y0228624D02*
X0130508Y0228624D01*
X0130508Y0228026D02*
X0132633Y0228026D01*
X0132633Y0227427D02*
X0130508Y0227427D01*
X0130508Y0226829D02*
X0132633Y0226829D01*
X0132633Y0226230D02*
X0130508Y0226230D01*
X0130508Y0225632D02*
X0132633Y0225632D01*
X0132633Y0225033D02*
X0130508Y0225033D01*
X0130508Y0224435D02*
X0132633Y0224435D01*
X0132633Y0223836D02*
X0130508Y0223836D01*
X0130508Y0223238D02*
X0132633Y0223238D01*
X0132633Y0222639D02*
X0130508Y0222639D01*
X0130508Y0222041D02*
X0132633Y0222041D01*
X0132633Y0221442D02*
X0130508Y0221442D01*
X0130508Y0220844D02*
X0132633Y0220844D01*
X0132633Y0220245D02*
X0130508Y0220245D01*
X0130508Y0219647D02*
X0132633Y0219647D01*
X0132633Y0219048D02*
X0130508Y0219048D01*
X0130508Y0218450D02*
X0132633Y0218450D01*
X0132633Y0217851D02*
X0130508Y0217851D01*
X0130508Y0217253D02*
X0132633Y0217253D01*
X0132633Y0216654D02*
X0130508Y0216654D01*
X0130508Y0216056D02*
X0132633Y0216056D01*
X0132633Y0215457D02*
X0130508Y0215457D01*
X0130508Y0214859D02*
X0132633Y0214859D01*
X0132633Y0214260D02*
X0130508Y0214260D01*
X0130508Y0213662D02*
X0132633Y0213662D01*
X0132633Y0213063D02*
X0130002Y0213063D01*
X0129403Y0212465D02*
X0132633Y0212465D01*
X0132633Y0211866D02*
X0128805Y0211866D01*
X0128206Y0211268D02*
X0132633Y0211268D01*
X0132633Y0210669D02*
X0127608Y0210669D01*
X0127009Y0210070D02*
X0132633Y0210070D01*
X0132633Y0209472D02*
X0126411Y0209472D01*
X0125812Y0208873D02*
X0132633Y0208873D01*
X0132633Y0208275D02*
X0125213Y0208275D01*
X0124615Y0207676D02*
X0132633Y0207676D01*
X0132633Y0207078D02*
X0124016Y0207078D01*
X0123418Y0206479D02*
X0132633Y0206479D01*
X0132633Y0205881D02*
X0122819Y0205881D01*
X0122221Y0205282D02*
X0132633Y0205282D01*
X0132633Y0204684D02*
X0121622Y0204684D01*
X0121024Y0204085D02*
X0132633Y0204085D01*
X0132633Y0203487D02*
X0120425Y0203487D01*
X0120328Y0202888D02*
X0132633Y0202888D01*
X0132633Y0202290D02*
X0120576Y0202290D01*
X0120633Y0201691D02*
X0132633Y0201691D01*
X0132633Y0201093D02*
X0120633Y0201093D01*
X0120633Y0200494D02*
X0132633Y0200494D01*
X0132633Y0199896D02*
X0120391Y0199896D01*
X0120143Y0199297D02*
X0132633Y0199297D01*
X0132633Y0198699D02*
X0119755Y0198699D01*
X0119156Y0198100D02*
X0132633Y0198100D01*
X0132633Y0197502D02*
X0118198Y0197502D01*
X0118256Y0195108D02*
X0132633Y0195108D01*
X0132633Y0195706D02*
X0112645Y0195706D01*
X0113243Y0196305D02*
X0132633Y0196305D01*
X0132633Y0196903D02*
X0113842Y0196903D01*
X0114440Y0197502D02*
X0114668Y0197502D01*
X0114611Y0195108D02*
X0112046Y0195108D01*
X0111448Y0194509D02*
X0113686Y0194509D01*
X0113087Y0193911D02*
X0110849Y0193911D01*
X0110251Y0193312D02*
X0112714Y0193312D01*
X0112466Y0192714D02*
X0109652Y0192714D01*
X0108683Y0193442D02*
X0116183Y0200942D01*
X0119180Y0194509D02*
X0132633Y0194509D01*
X0132633Y0193911D02*
X0119779Y0193911D01*
X0120153Y0193312D02*
X0132633Y0193312D01*
X0132633Y0192714D02*
X0120400Y0192714D01*
X0120633Y0192115D02*
X0132633Y0192115D01*
X0132633Y0191517D02*
X0120633Y0191517D01*
X0120633Y0190918D02*
X0132633Y0190918D01*
X0132633Y0190320D02*
X0120566Y0190320D01*
X0120318Y0189721D02*
X0132633Y0189721D01*
X0132633Y0189123D02*
X0120070Y0189123D01*
X0119580Y0188524D02*
X0132633Y0188524D01*
X0132633Y0187926D02*
X0118982Y0187926D01*
X0117777Y0187327D02*
X0132633Y0187327D01*
X0132633Y0186729D02*
X0105804Y0186729D01*
X0105804Y0187327D02*
X0115089Y0187327D01*
X0113884Y0187926D02*
X0105804Y0187926D01*
X0105804Y0186130D02*
X0132633Y0186130D01*
X0132633Y0185532D02*
X0105804Y0185532D01*
X0105804Y0184933D02*
X0132633Y0184933D01*
X0132633Y0184335D02*
X0105804Y0184335D01*
X0105804Y0183736D02*
X0106224Y0183736D01*
X0107433Y0181567D02*
X0102433Y0181567D01*
X0102000Y0181411D01*
X0102000Y0189285D02*
X0102433Y0189692D01*
X0114933Y0189692D01*
X0116183Y0190942D01*
X0116433Y0191317D01*
X0112233Y0191517D02*
X0105804Y0191517D01*
X0105804Y0192115D02*
X0112233Y0192115D01*
X0112233Y0190918D02*
X0105804Y0190918D01*
X0108683Y0193442D02*
X0102433Y0193442D01*
X0102000Y0193222D01*
X0102000Y0197159D02*
X0102157Y0197317D01*
X0108933Y0197317D01*
X0102000Y0197159D02*
X0101808Y0197192D01*
X0098196Y0196903D02*
X0094467Y0196903D01*
X0093868Y0196305D02*
X0098196Y0196305D01*
X0098196Y0195706D02*
X0093270Y0195706D01*
X0092671Y0195108D02*
X0098196Y0195108D01*
X0098196Y0194509D02*
X0092073Y0194509D01*
X0095065Y0197502D02*
X0098196Y0197502D01*
X0098196Y0198100D02*
X0095664Y0198100D01*
X0096262Y0198699D02*
X0098196Y0198699D01*
X0098196Y0199297D02*
X0096861Y0199297D01*
X0097459Y0199896D02*
X0098196Y0199896D01*
X0098196Y0200494D02*
X0098058Y0200494D01*
X0105804Y0179546D02*
X0106075Y0179546D01*
X0105804Y0178948D02*
X0132633Y0178948D01*
X0132633Y0179546D02*
X0108791Y0179546D01*
X0109390Y0180145D02*
X0132633Y0180145D01*
X0132633Y0180743D02*
X0109822Y0180743D01*
X0109822Y0181342D02*
X0132633Y0181342D01*
X0132633Y0181940D02*
X0109822Y0181940D01*
X0109822Y0182539D02*
X0132633Y0182539D01*
X0132633Y0183137D02*
X0109241Y0183137D01*
X0108642Y0183736D02*
X0132633Y0183736D01*
X0132633Y0178349D02*
X0105804Y0178349D01*
X0105804Y0177751D02*
X0132633Y0177751D01*
X0132633Y0177152D02*
X0105804Y0177152D01*
X0105804Y0176554D02*
X0132633Y0176554D01*
X0132633Y0175955D02*
X0105804Y0175955D01*
X0105804Y0175357D02*
X0132633Y0175357D01*
X0132633Y0174758D02*
X0105804Y0174758D01*
X0105804Y0174160D02*
X0132633Y0174160D01*
X0132633Y0173561D02*
X0108817Y0173561D01*
X0109415Y0172963D02*
X0132633Y0172963D01*
X0132633Y0172364D02*
X0109822Y0172364D01*
X0109822Y0171766D02*
X0132633Y0171766D01*
X0132633Y0171167D02*
X0109822Y0171167D01*
X0109814Y0170569D02*
X0132633Y0170569D01*
X0132633Y0169970D02*
X0109215Y0169970D01*
X0108617Y0169372D02*
X0132633Y0169372D01*
X0132633Y0168773D02*
X0105804Y0168773D01*
X0105804Y0169372D02*
X0106249Y0169372D01*
X0105342Y0168175D02*
X0132633Y0168175D01*
X0132633Y0167576D02*
X0104177Y0167576D01*
X0104197Y0166978D02*
X0132633Y0166978D01*
X0132633Y0166379D02*
X0104197Y0166379D01*
X0104197Y0165781D02*
X0132633Y0165781D01*
X0132633Y0165182D02*
X0103802Y0165182D01*
X0103204Y0164584D02*
X0132633Y0164584D01*
X0132633Y0158000D02*
X0125381Y0158000D01*
X0125829Y0157402D02*
X0132633Y0157402D01*
X0132633Y0156803D02*
X0125829Y0156803D01*
X0125829Y0156204D02*
X0132633Y0156204D01*
X0132633Y0155606D02*
X0125829Y0155606D01*
X0125829Y0155007D02*
X0132633Y0155007D01*
X0132633Y0154409D02*
X0125829Y0154409D01*
X0125829Y0153810D02*
X0132633Y0153810D01*
X0132633Y0153212D02*
X0125829Y0153212D01*
X0125829Y0152613D02*
X0132633Y0152613D01*
X0132633Y0152015D02*
X0125762Y0152015D01*
X0107433Y0171567D02*
X0102433Y0171567D01*
X0102000Y0171569D01*
X0102000Y0169600D02*
X0101808Y0169067D01*
X0101808Y0166567D01*
X0105804Y0173561D02*
X0106049Y0173561D01*
X0123673Y0215317D02*
X0123683Y0215317D01*
X0123683Y0222817D01*
X0122776Y0228624D02*
X0122176Y0228624D01*
X0122176Y0229223D02*
X0122776Y0229223D01*
X0122776Y0229821D02*
X0122176Y0229821D01*
X0122176Y0230420D02*
X0122776Y0230420D01*
X0122776Y0231018D02*
X0122176Y0231018D01*
X0122158Y0235806D02*
X0121708Y0235806D01*
X0121708Y0236405D02*
X0122158Y0236405D01*
X0122158Y0237004D02*
X0121708Y0237004D01*
X0121708Y0237602D02*
X0122158Y0237602D01*
X0122158Y0238201D02*
X0121708Y0238201D01*
X0121708Y0238799D02*
X0122158Y0238799D01*
X0122158Y0239398D02*
X0121708Y0239398D01*
X0121708Y0239996D02*
X0122158Y0239996D01*
X0122158Y0241193D02*
X0121708Y0241193D01*
X0121708Y0241792D02*
X0122158Y0241792D01*
X0122158Y0242390D02*
X0121708Y0242390D01*
X0121708Y0242989D02*
X0122158Y0242989D01*
X0122158Y0243587D02*
X0121708Y0243587D01*
X0121708Y0244186D02*
X0122158Y0244186D01*
X0122158Y0244784D02*
X0121708Y0244784D01*
X0121708Y0245383D02*
X0122158Y0245383D01*
X0122571Y0245981D02*
X0108466Y0245981D01*
X0109064Y0245383D02*
X0110476Y0245383D01*
X0109983Y0244784D02*
X0109663Y0244784D01*
X0108064Y0242989D02*
X0098958Y0242989D01*
X0098360Y0243587D02*
X0107465Y0243587D01*
X0106867Y0244186D02*
X0097761Y0244186D01*
X0097163Y0244784D02*
X0106268Y0244784D01*
X0105670Y0245383D02*
X0096564Y0245383D01*
X0095966Y0245981D02*
X0105071Y0245981D01*
X0104473Y0246580D02*
X0095367Y0246580D01*
X0094768Y0247178D02*
X0103874Y0247178D01*
X0103276Y0247777D02*
X0094170Y0247777D01*
X0093571Y0248375D02*
X0102677Y0248375D01*
X0102079Y0248974D02*
X0092973Y0248974D01*
X0092374Y0249572D02*
X0101480Y0249572D01*
X0100882Y0250171D02*
X0091776Y0250171D01*
X0091177Y0250769D02*
X0093727Y0250769D01*
X0093671Y0251368D02*
X0085467Y0251368D01*
X0085467Y0248375D02*
X0090177Y0248375D01*
X0090776Y0247777D02*
X0085068Y0247777D01*
X0083058Y0249692D02*
X0082933Y0249789D01*
X0082433Y0249692D01*
X0078683Y0249692D01*
X0076981Y0251368D02*
X0073803Y0251368D01*
X0073836Y0251400D02*
X0074007Y0251697D01*
X0074095Y0252027D01*
X0074095Y0253473D01*
X0070733Y0253473D01*
X0070733Y0250898D01*
X0072966Y0250898D01*
X0073297Y0250987D01*
X0073593Y0251158D01*
X0073836Y0251400D01*
X0074079Y0251966D02*
X0077579Y0251966D01*
X0076382Y0250769D02*
X0056758Y0250769D01*
X0056758Y0250171D02*
X0076294Y0250171D01*
X0076294Y0249572D02*
X0056758Y0249572D01*
X0056758Y0248974D02*
X0076294Y0248974D01*
X0076621Y0248375D02*
X0056758Y0248375D01*
X0056758Y0247777D02*
X0077219Y0247777D01*
X0080147Y0247777D02*
X0080799Y0247777D01*
X0083058Y0249692D02*
X0090558Y0249692D01*
X0099933Y0240317D01*
X0099933Y0236567D01*
X0098683Y0235317D01*
X0071808Y0235317D01*
X0054308Y0217817D01*
X0054248Y0217380D01*
X0053305Y0234609D02*
X0037561Y0234609D01*
X0038779Y0235208D02*
X0052087Y0235208D01*
X0051488Y0235806D02*
X0039378Y0235806D01*
X0039976Y0236405D02*
X0050890Y0236405D01*
X0050510Y0237004D02*
X0040356Y0237004D01*
X0040604Y0237602D02*
X0050262Y0237602D01*
X0050014Y0238201D02*
X0040852Y0238201D01*
X0041058Y0238799D02*
X0049808Y0238799D01*
X0050163Y0241792D02*
X0040703Y0241792D01*
X0040456Y0242390D02*
X0050411Y0242390D01*
X0050659Y0242989D02*
X0040208Y0242989D01*
X0039617Y0243587D02*
X0051249Y0243587D01*
X0051847Y0244186D02*
X0039019Y0244186D01*
X0038139Y0244784D02*
X0043472Y0244784D01*
X0044359Y0244417D02*
X0042374Y0245239D01*
X0040855Y0246758D01*
X0040033Y0248742D01*
X0040033Y0250891D01*
X0040855Y0252875D01*
X0042374Y0254394D01*
X0044359Y0255217D01*
X0046507Y0255217D01*
X0048492Y0254394D01*
X0050011Y0252875D01*
X0050833Y0250891D01*
X0050833Y0248742D01*
X0050011Y0246758D01*
X0048492Y0245239D01*
X0046507Y0244417D01*
X0044359Y0244417D01*
X0042230Y0245383D02*
X0036758Y0245383D01*
X0036758Y0245981D02*
X0041632Y0245981D01*
X0041033Y0246580D02*
X0036758Y0246580D01*
X0036758Y0247178D02*
X0040681Y0247178D01*
X0040433Y0247777D02*
X0036758Y0247777D01*
X0036758Y0248375D02*
X0040185Y0248375D01*
X0040033Y0248974D02*
X0036758Y0248974D01*
X0036758Y0249572D02*
X0040033Y0249572D01*
X0040033Y0250171D02*
X0036758Y0250171D01*
X0036758Y0250769D02*
X0040033Y0250769D01*
X0040231Y0251368D02*
X0036758Y0251368D01*
X0036758Y0251966D02*
X0040479Y0251966D01*
X0040727Y0252565D02*
X0036758Y0252565D01*
X0036758Y0253163D02*
X0041143Y0253163D01*
X0041742Y0253762D02*
X0036758Y0253762D01*
X0036959Y0254360D02*
X0042340Y0254360D01*
X0043737Y0254959D02*
X0038404Y0254959D01*
X0039129Y0255557D02*
X0051737Y0255557D01*
X0051139Y0256156D02*
X0039727Y0256156D01*
X0040253Y0256754D02*
X0050613Y0256754D01*
X0050365Y0257353D02*
X0040501Y0257353D01*
X0040749Y0257951D02*
X0050117Y0257951D01*
X0049869Y0258550D02*
X0040997Y0258550D01*
X0041058Y0259148D02*
X0049808Y0259148D01*
X0049808Y0259747D02*
X0041058Y0259747D01*
X0041058Y0260345D02*
X0049808Y0260345D01*
X0049812Y0260944D02*
X0041055Y0260944D01*
X0040807Y0261542D02*
X0050060Y0261542D01*
X0050307Y0262141D02*
X0040559Y0262141D01*
X0040311Y0262739D02*
X0050555Y0262739D01*
X0051000Y0263338D02*
X0039867Y0263338D01*
X0039268Y0263937D02*
X0051598Y0263937D01*
X0052197Y0264535D02*
X0038670Y0264535D01*
X0037296Y0265134D02*
X0053571Y0265134D01*
X0055558Y0260317D02*
X0055433Y0259817D01*
X0055558Y0259692D01*
X0055558Y0240317D01*
X0055433Y0239817D01*
X0054933Y0240317D01*
X0035558Y0240317D01*
X0035433Y0239817D01*
X0035558Y0240317D02*
X0035558Y0259692D01*
X0035433Y0259817D01*
X0033571Y0265134D02*
X0029233Y0265134D01*
X0029233Y0264535D02*
X0032197Y0264535D01*
X0031598Y0263937D02*
X0029233Y0263937D01*
X0029233Y0263338D02*
X0031000Y0263338D01*
X0030555Y0262739D02*
X0029233Y0262739D01*
X0029233Y0262141D02*
X0030307Y0262141D01*
X0030060Y0261542D02*
X0029233Y0261542D01*
X0029233Y0260944D02*
X0029812Y0260944D01*
X0029808Y0260345D02*
X0029233Y0260345D01*
X0029233Y0259747D02*
X0029808Y0259747D01*
X0029808Y0259148D02*
X0029233Y0259148D01*
X0029233Y0258550D02*
X0029869Y0258550D01*
X0030117Y0257951D02*
X0029233Y0257951D01*
X0029233Y0257353D02*
X0030365Y0257353D01*
X0030613Y0256754D02*
X0029233Y0256754D01*
X0029233Y0256156D02*
X0031139Y0256156D01*
X0031737Y0255557D02*
X0029233Y0255557D01*
X0029233Y0254959D02*
X0032462Y0254959D01*
X0033907Y0254360D02*
X0029233Y0254360D01*
X0029233Y0253762D02*
X0034358Y0253762D01*
X0034358Y0253163D02*
X0029233Y0253163D01*
X0029233Y0252565D02*
X0034358Y0252565D01*
X0034358Y0251966D02*
X0029233Y0251966D01*
X0029233Y0251368D02*
X0034358Y0251368D01*
X0034358Y0250769D02*
X0029233Y0250769D01*
X0029233Y0250171D02*
X0034358Y0250171D01*
X0034358Y0249572D02*
X0029233Y0249572D01*
X0029233Y0248974D02*
X0034358Y0248974D01*
X0034358Y0248375D02*
X0029233Y0248375D01*
X0029233Y0247777D02*
X0034358Y0247777D01*
X0034358Y0247178D02*
X0029233Y0247178D01*
X0029233Y0246580D02*
X0034358Y0246580D01*
X0034358Y0245981D02*
X0029233Y0245981D01*
X0029233Y0245383D02*
X0034172Y0245383D01*
X0032727Y0244784D02*
X0029233Y0244784D01*
X0029233Y0244186D02*
X0031847Y0244186D01*
X0031249Y0243587D02*
X0029233Y0243587D01*
X0029233Y0242989D02*
X0030659Y0242989D01*
X0030411Y0242390D02*
X0029233Y0242390D01*
X0029233Y0241792D02*
X0030163Y0241792D01*
X0029915Y0241193D02*
X0029233Y0241193D01*
X0029233Y0240595D02*
X0029808Y0240595D01*
X0029808Y0239996D02*
X0029233Y0239996D01*
X0029233Y0239398D02*
X0029808Y0239398D01*
X0029808Y0238799D02*
X0029233Y0238799D01*
X0029233Y0238201D02*
X0030014Y0238201D01*
X0030262Y0237602D02*
X0029233Y0237602D01*
X0029233Y0237004D02*
X0030510Y0237004D01*
X0030890Y0236405D02*
X0029233Y0236405D01*
X0029233Y0235806D02*
X0031488Y0235806D01*
X0032087Y0235208D02*
X0029233Y0235208D01*
X0029233Y0234609D02*
X0033305Y0234609D01*
X0039308Y0207817D02*
X0056183Y0190942D01*
X0054983Y0190320D02*
X0046133Y0190320D01*
X0046133Y0190918D02*
X0054509Y0190918D01*
X0053911Y0191517D02*
X0046133Y0191517D01*
X0046133Y0192115D02*
X0053312Y0192115D01*
X0052714Y0192714D02*
X0046133Y0192714D01*
X0046133Y0193312D02*
X0052115Y0193312D01*
X0051517Y0193911D02*
X0046133Y0193911D01*
X0046133Y0194509D02*
X0050918Y0194509D01*
X0050320Y0195108D02*
X0046133Y0195108D01*
X0046133Y0195706D02*
X0049721Y0195706D01*
X0049123Y0196305D02*
X0045642Y0196305D01*
X0045043Y0196903D02*
X0048524Y0196903D01*
X0047926Y0197502D02*
X0044445Y0197502D01*
X0043846Y0198100D02*
X0047327Y0198100D01*
X0046729Y0198699D02*
X0043248Y0198699D01*
X0042649Y0199297D02*
X0046130Y0199297D01*
X0045532Y0199896D02*
X0042051Y0199896D01*
X0041452Y0200494D02*
X0044933Y0200494D01*
X0044335Y0201093D02*
X0041698Y0201093D01*
X0041946Y0201691D02*
X0043736Y0201691D01*
X0043138Y0202290D02*
X0042033Y0202290D01*
X0042033Y0202888D02*
X0042539Y0202888D01*
X0046133Y0189721D02*
X0054983Y0189721D01*
X0054983Y0189123D02*
X0046133Y0189123D01*
X0046133Y0188524D02*
X0054983Y0188524D01*
X0054983Y0187926D02*
X0046133Y0187926D01*
X0046133Y0187327D02*
X0054983Y0187327D01*
X0054983Y0186729D02*
X0046133Y0186729D01*
X0046133Y0186130D02*
X0054983Y0186130D01*
X0054983Y0185532D02*
X0046133Y0185532D01*
X0046133Y0184933D02*
X0054983Y0184933D01*
X0054983Y0184335D02*
X0046133Y0184335D01*
X0046133Y0183736D02*
X0054983Y0183736D01*
X0054983Y0183137D02*
X0046133Y0183137D01*
X0046133Y0182539D02*
X0054983Y0182539D01*
X0054983Y0181940D02*
X0046133Y0181940D01*
X0046133Y0181342D02*
X0054983Y0181342D01*
X0054983Y0180743D02*
X0046133Y0180743D01*
X0046133Y0180145D02*
X0054983Y0180145D01*
X0054983Y0179546D02*
X0046133Y0179546D01*
X0046133Y0178948D02*
X0054983Y0178948D01*
X0054983Y0178349D02*
X0046133Y0178349D01*
X0046133Y0177751D02*
X0054983Y0177751D01*
X0054983Y0177152D02*
X0046133Y0177152D01*
X0046133Y0176554D02*
X0054983Y0176554D01*
X0054983Y0175955D02*
X0046133Y0175955D01*
X0046133Y0175357D02*
X0054983Y0175357D01*
X0054983Y0174758D02*
X0046133Y0174758D01*
X0046133Y0174160D02*
X0054983Y0174160D01*
X0054983Y0173561D02*
X0046133Y0173561D01*
X0046133Y0172963D02*
X0054983Y0172963D01*
X0054983Y0172364D02*
X0046133Y0172364D01*
X0046133Y0171766D02*
X0054983Y0171766D01*
X0054983Y0171167D02*
X0046133Y0171167D01*
X0046133Y0170569D02*
X0054983Y0170569D01*
X0054983Y0169970D02*
X0046133Y0169970D01*
X0046133Y0169372D02*
X0054983Y0169372D01*
X0054983Y0168773D02*
X0046133Y0168773D01*
X0046133Y0168175D02*
X0054983Y0168175D01*
X0052734Y0167576D02*
X0046133Y0167576D01*
X0046133Y0166978D02*
X0052734Y0166978D01*
X0052734Y0166379D02*
X0046133Y0166379D01*
X0046133Y0165781D02*
X0052734Y0165781D01*
X0052734Y0165182D02*
X0046133Y0165182D01*
X0046133Y0164584D02*
X0052734Y0164584D01*
X0052734Y0163985D02*
X0046133Y0163985D01*
X0046133Y0163387D02*
X0052734Y0163387D01*
X0052734Y0162788D02*
X0046133Y0162788D01*
X0046133Y0162190D02*
X0052734Y0162190D01*
X0052734Y0161591D02*
X0046133Y0161591D01*
X0046133Y0160993D02*
X0052734Y0160993D01*
X0057383Y0172364D02*
X0075063Y0172364D01*
X0075063Y0171766D02*
X0065612Y0171766D01*
X0066211Y0171167D02*
X0075063Y0171167D01*
X0075068Y0170569D02*
X0066697Y0170569D01*
X0066697Y0169970D02*
X0075063Y0169970D01*
X0075063Y0169372D02*
X0066697Y0169372D01*
X0066697Y0168773D02*
X0075063Y0168773D01*
X0075525Y0168175D02*
X0066170Y0168175D01*
X0067132Y0165182D02*
X0071808Y0165182D01*
X0071808Y0164584D02*
X0067132Y0164584D01*
X0067132Y0163985D02*
X0071808Y0163985D01*
X0072248Y0163387D02*
X0067132Y0163387D01*
X0067132Y0162788D02*
X0072847Y0162788D01*
X0070958Y0172963D02*
X0075063Y0172963D01*
X0075063Y0173561D02*
X0071556Y0173561D01*
X0069933Y0175317D02*
X0078683Y0175317D01*
X0078866Y0175506D01*
X0075063Y0176554D02*
X0072074Y0176554D01*
X0071476Y0177152D02*
X0075063Y0177152D01*
X0075063Y0177751D02*
X0067434Y0177751D01*
X0067623Y0178349D02*
X0075063Y0178349D01*
X0075063Y0178948D02*
X0067623Y0178948D01*
X0067623Y0179546D02*
X0075063Y0179546D01*
X0075063Y0180145D02*
X0067623Y0180145D01*
X0067623Y0180743D02*
X0075063Y0180743D01*
X0075063Y0181342D02*
X0067623Y0181342D01*
X0067623Y0181940D02*
X0075063Y0181940D01*
X0075063Y0182539D02*
X0067623Y0182539D01*
X0067623Y0183736D02*
X0075063Y0183736D01*
X0075063Y0183137D02*
X0062233Y0183137D01*
X0061933Y0183092D02*
X0062433Y0183442D01*
X0064308Y0185317D01*
X0078683Y0185317D01*
X0078866Y0185348D01*
X0078683Y0187192D02*
X0078866Y0187317D01*
X0078683Y0187192D02*
X0071183Y0187192D01*
X0062433Y0195942D01*
X0065562Y0194509D02*
X0075063Y0194509D01*
X0075063Y0193911D02*
X0066161Y0193911D01*
X0066760Y0193312D02*
X0075063Y0193312D01*
X0075063Y0192714D02*
X0067358Y0192714D01*
X0067957Y0192115D02*
X0075063Y0192115D01*
X0075063Y0191517D02*
X0073987Y0191517D01*
X0074585Y0190918D02*
X0075063Y0190918D01*
X0072433Y0189692D02*
X0078683Y0189692D01*
X0078866Y0189285D01*
X0074663Y0185532D02*
X0067623Y0185532D01*
X0067623Y0186130D02*
X0070548Y0186130D01*
X0069949Y0186729D02*
X0067623Y0186729D01*
X0067623Y0187327D02*
X0069351Y0187327D01*
X0068752Y0187926D02*
X0067623Y0187926D01*
X0067381Y0188524D02*
X0068154Y0188524D01*
X0069752Y0190320D02*
X0070044Y0190320D01*
X0070281Y0190918D02*
X0069154Y0190918D01*
X0068555Y0191517D02*
X0070880Y0191517D01*
X0067623Y0184933D02*
X0074663Y0184933D01*
X0074730Y0184335D02*
X0067623Y0184335D01*
X0068390Y0177152D02*
X0066589Y0177152D01*
X0067792Y0176554D02*
X0057383Y0176554D01*
X0057383Y0175955D02*
X0067544Y0175955D01*
X0067544Y0175357D02*
X0057383Y0175357D01*
X0057383Y0174758D02*
X0067544Y0174758D01*
X0067711Y0174160D02*
X0057383Y0174160D01*
X0057383Y0173561D02*
X0068310Y0173561D01*
X0068908Y0172963D02*
X0057383Y0172963D01*
X0061633Y0177152D02*
X0062233Y0177152D01*
X0062233Y0177751D02*
X0061633Y0177751D01*
X0061633Y0178349D02*
X0062233Y0178349D01*
X0062233Y0178948D02*
X0061633Y0178948D01*
X0061633Y0179546D02*
X0062233Y0179546D01*
X0062233Y0180145D02*
X0061633Y0180145D01*
X0061633Y0180743D02*
X0062233Y0180743D01*
X0062233Y0181342D02*
X0061633Y0181342D01*
X0061633Y0181940D02*
X0062233Y0181940D01*
X0062233Y0182539D02*
X0061633Y0182539D01*
X0061633Y0183736D02*
X0062233Y0183736D01*
X0062233Y0184335D02*
X0061633Y0184335D01*
X0061633Y0184933D02*
X0062233Y0184933D01*
X0062233Y0185532D02*
X0061633Y0185532D01*
X0061633Y0186130D02*
X0062233Y0186130D01*
X0062233Y0186729D02*
X0061633Y0186729D01*
X0061633Y0187327D02*
X0062233Y0187327D01*
X0062233Y0187926D02*
X0061633Y0187926D01*
X0061633Y0188524D02*
X0062233Y0188524D01*
X0081593Y0229223D02*
X0093274Y0229223D01*
X0093171Y0232215D02*
X0082038Y0232215D01*
X0081439Y0232814D02*
X0093171Y0232814D01*
X0096183Y0230942D02*
X0096433Y0231273D01*
X0096808Y0231567D01*
X0115558Y0231567D01*
X0115558Y0239067D01*
X0116808Y0240317D01*
X0116933Y0240617D01*
X0114983Y0240595D02*
X0113883Y0240595D01*
X0113883Y0241193D02*
X0114983Y0241193D01*
X0114983Y0241792D02*
X0113883Y0241792D01*
X0113883Y0242390D02*
X0114983Y0242390D01*
X0114983Y0242989D02*
X0113883Y0242989D01*
X0113883Y0243587D02*
X0114983Y0243587D01*
X0114983Y0244186D02*
X0113883Y0244186D01*
X0113883Y0244784D02*
X0114983Y0244784D01*
X0115476Y0245383D02*
X0113390Y0245383D01*
X0111808Y0240942D02*
X0111933Y0240617D01*
X0111808Y0240942D02*
X0100558Y0252192D01*
X0097433Y0252192D01*
X0096933Y0252773D01*
X0096633Y0257353D02*
X0097233Y0257353D01*
X0097233Y0257951D02*
X0096633Y0257951D01*
X0096633Y0258550D02*
X0097233Y0258550D01*
X0097233Y0259148D02*
X0096633Y0259148D01*
X0096633Y0260944D02*
X0097233Y0260944D01*
X0097233Y0261542D02*
X0096633Y0261542D01*
X0096633Y0262141D02*
X0097233Y0262141D01*
X0093314Y0257951D02*
X0085867Y0257951D01*
X0085845Y0257353D02*
X0093665Y0257353D01*
X0093909Y0254959D02*
X0074095Y0254959D01*
X0074095Y0255519D02*
X0074095Y0254073D01*
X0070733Y0254073D01*
X0070733Y0253473D01*
X0070133Y0253473D01*
X0070133Y0250898D01*
X0067900Y0250898D01*
X0067569Y0250987D01*
X0067273Y0251158D01*
X0067031Y0251400D01*
X0066859Y0251697D01*
X0066771Y0252027D01*
X0066771Y0253473D01*
X0070133Y0253473D01*
X0070133Y0254073D01*
X0066771Y0254073D01*
X0066771Y0255519D01*
X0066859Y0255850D01*
X0067031Y0256146D01*
X0067273Y0256388D01*
X0067569Y0256559D01*
X0067900Y0256648D01*
X0070133Y0256648D01*
X0070133Y0254073D01*
X0070733Y0254073D01*
X0070733Y0256648D01*
X0072966Y0256648D01*
X0073297Y0256559D01*
X0073593Y0256388D01*
X0073836Y0256146D01*
X0074007Y0255850D01*
X0074095Y0255519D01*
X0074085Y0255557D02*
X0110170Y0255557D01*
X0109983Y0256156D02*
X0073826Y0256156D01*
X0074095Y0254360D02*
X0093671Y0254360D01*
X0093671Y0253762D02*
X0070733Y0253762D01*
X0070433Y0253773D02*
X0069933Y0253442D01*
X0069933Y0245942D01*
X0069633Y0245981D02*
X0070233Y0245981D01*
X0070233Y0245383D02*
X0069633Y0245383D01*
X0069633Y0244784D02*
X0070233Y0244784D01*
X0070233Y0244186D02*
X0069633Y0244186D01*
X0069633Y0243587D02*
X0070233Y0243587D01*
X0070233Y0242989D02*
X0069633Y0242989D01*
X0069633Y0242363D02*
X0070233Y0242363D01*
X0073202Y0242363D01*
X0073202Y0240327D01*
X0073113Y0239996D01*
X0073202Y0240595D02*
X0092951Y0240595D01*
X0093744Y0241193D02*
X0073202Y0241193D01*
X0073202Y0241792D02*
X0096761Y0241792D01*
X0096733Y0241193D02*
X0096133Y0241193D01*
X0096133Y0240595D02*
X0096733Y0240595D01*
X0096733Y0239996D02*
X0096133Y0239996D01*
X0096133Y0239398D02*
X0096733Y0239398D01*
X0096733Y0238799D02*
X0096133Y0238799D01*
X0096183Y0238442D02*
X0096433Y0238360D01*
X0096183Y0238442D02*
X0073683Y0238442D01*
X0069933Y0242192D01*
X0070233Y0242390D02*
X0096162Y0242390D01*
X0095564Y0242989D02*
X0073202Y0242989D01*
X0073202Y0243587D02*
X0094965Y0243587D01*
X0094367Y0244186D02*
X0073202Y0244186D01*
X0073202Y0244784D02*
X0093768Y0244784D01*
X0093170Y0245383D02*
X0073083Y0245383D01*
X0072505Y0245981D02*
X0092571Y0245981D01*
X0091973Y0246580D02*
X0056758Y0246580D01*
X0056758Y0247178D02*
X0091374Y0247178D01*
X0093671Y0251966D02*
X0079787Y0251966D01*
X0080385Y0251368D02*
X0080399Y0251368D01*
X0080310Y0256754D02*
X0060253Y0256754D01*
X0060501Y0257353D02*
X0080021Y0257353D01*
X0079999Y0257951D02*
X0060749Y0257951D01*
X0060997Y0258550D02*
X0067533Y0258550D01*
X0067040Y0256156D02*
X0059727Y0256156D01*
X0059129Y0255557D02*
X0066781Y0255557D01*
X0066771Y0254959D02*
X0058404Y0254959D01*
X0056959Y0254360D02*
X0066771Y0254360D01*
X0066771Y0253163D02*
X0056758Y0253163D01*
X0056758Y0252565D02*
X0066771Y0252565D01*
X0066787Y0251966D02*
X0056758Y0251966D01*
X0056758Y0251368D02*
X0067063Y0251368D01*
X0070133Y0251368D02*
X0070733Y0251368D01*
X0070733Y0251966D02*
X0070133Y0251966D01*
X0070133Y0252565D02*
X0070733Y0252565D01*
X0070733Y0253163D02*
X0070133Y0253163D01*
X0070133Y0253762D02*
X0056758Y0253762D01*
X0054358Y0253762D02*
X0049125Y0253762D01*
X0049723Y0253163D02*
X0054358Y0253163D01*
X0054358Y0252565D02*
X0050140Y0252565D01*
X0050388Y0251966D02*
X0054358Y0251966D01*
X0054358Y0251368D02*
X0050635Y0251368D01*
X0050833Y0250769D02*
X0054358Y0250769D01*
X0054358Y0250171D02*
X0050833Y0250171D01*
X0050833Y0249572D02*
X0054358Y0249572D01*
X0054358Y0248974D02*
X0050833Y0248974D01*
X0050681Y0248375D02*
X0054358Y0248375D01*
X0054358Y0247777D02*
X0050433Y0247777D01*
X0050185Y0247178D02*
X0054358Y0247178D01*
X0054358Y0246580D02*
X0049833Y0246580D01*
X0049234Y0245981D02*
X0054358Y0245981D01*
X0054172Y0245383D02*
X0048636Y0245383D01*
X0047395Y0244784D02*
X0052727Y0244784D01*
X0056758Y0245383D02*
X0066783Y0245383D01*
X0066665Y0244784D02*
X0058139Y0244784D01*
X0059019Y0244186D02*
X0066665Y0244186D01*
X0066665Y0243587D02*
X0059617Y0243587D01*
X0060208Y0242989D02*
X0066665Y0242989D01*
X0067361Y0245981D02*
X0056758Y0245981D01*
X0053907Y0254360D02*
X0048526Y0254360D01*
X0047129Y0254959D02*
X0052462Y0254959D01*
X0055558Y0260317D02*
X0069933Y0260317D01*
X0070433Y0260860D01*
X0070133Y0256156D02*
X0070733Y0256156D01*
X0070733Y0255557D02*
X0070133Y0255557D01*
X0070133Y0254959D02*
X0070733Y0254959D01*
X0070733Y0254360D02*
X0070133Y0254360D01*
X0074095Y0253163D02*
X0093671Y0253163D01*
X0093671Y0252565D02*
X0074095Y0252565D01*
X0070233Y0241792D02*
X0069633Y0241792D01*
X0069633Y0241193D02*
X0070233Y0241193D01*
X0070233Y0240595D02*
X0069633Y0240595D01*
X0069633Y0239996D02*
X0070233Y0239996D01*
X0070233Y0239398D02*
X0069633Y0239398D01*
X0072802Y0238201D02*
X0096133Y0238201D01*
X0099504Y0233412D02*
X0114358Y0233412D01*
X0114358Y0232814D02*
X0099695Y0232814D01*
X0099673Y0234609D02*
X0114358Y0234609D01*
X0114358Y0234011D02*
X0074811Y0234011D01*
X0079933Y0230942D02*
X0096183Y0230942D01*
X0100272Y0235208D02*
X0114358Y0235208D01*
X0114358Y0235806D02*
X0100870Y0235806D01*
X0101133Y0236405D02*
X0109983Y0236405D01*
X0109983Y0237004D02*
X0101133Y0237004D01*
X0101133Y0237602D02*
X0109983Y0237602D01*
X0109983Y0238201D02*
X0101133Y0238201D01*
X0101133Y0238799D02*
X0109983Y0238799D01*
X0109983Y0239398D02*
X0101133Y0239398D01*
X0101133Y0239996D02*
X0109983Y0239996D01*
X0109983Y0240595D02*
X0101133Y0240595D01*
X0100754Y0241193D02*
X0109860Y0241193D01*
X0109261Y0241792D02*
X0100155Y0241792D01*
X0099557Y0242390D02*
X0108662Y0242390D01*
X0107867Y0246580D02*
X0121973Y0246580D01*
X0121374Y0247178D02*
X0107268Y0247178D01*
X0106670Y0247777D02*
X0120776Y0247777D01*
X0120177Y0248375D02*
X0106071Y0248375D01*
X0109983Y0256754D02*
X0085556Y0256754D01*
X0083233Y0256754D02*
X0082633Y0256754D01*
X0082633Y0257353D02*
X0083233Y0257353D01*
X0083233Y0259148D02*
X0082633Y0259148D01*
X0082633Y0259747D02*
X0083233Y0259747D01*
X0083233Y0260345D02*
X0082633Y0260345D01*
X0082633Y0260944D02*
X0083233Y0260944D01*
X0067171Y0261542D02*
X0060807Y0261542D01*
X0060559Y0262141D02*
X0067171Y0262141D01*
X0067171Y0262739D02*
X0060311Y0262739D01*
X0100139Y0250769D02*
X0100283Y0250769D01*
X0113995Y0257951D02*
X0114583Y0257951D01*
X0114583Y0258550D02*
X0113883Y0258550D01*
X0113883Y0259148D02*
X0114583Y0259148D01*
X0114583Y0259747D02*
X0113883Y0259747D01*
X0113883Y0260345D02*
X0114583Y0260345D01*
X0114583Y0260944D02*
X0113883Y0260944D01*
X0113883Y0261542D02*
X0114583Y0261542D01*
X0114583Y0262141D02*
X0113883Y0262141D01*
X0113883Y0262739D02*
X0114583Y0262739D01*
X0114583Y0263338D02*
X0113883Y0263338D01*
X0113883Y0263937D02*
X0114583Y0263937D01*
X0114739Y0264535D02*
X0113637Y0264535D01*
X0120579Y0251368D02*
X0129117Y0251368D01*
X0129055Y0250769D02*
X0121177Y0250769D01*
X0121776Y0250171D02*
X0129055Y0250171D01*
X0129055Y0249572D02*
X0122374Y0249572D01*
X0122973Y0248974D02*
X0129408Y0248974D01*
X0130007Y0248375D02*
X0123571Y0248375D01*
X0124170Y0247777D02*
X0132633Y0247777D01*
X0130244Y0254959D02*
X0123578Y0254959D01*
X0124161Y0255557D02*
X0125170Y0255557D01*
X0124983Y0256156D02*
X0124283Y0256156D01*
X0124283Y0256754D02*
X0124983Y0256754D01*
X0124983Y0257353D02*
X0124283Y0257353D01*
X0124283Y0257951D02*
X0124983Y0257951D01*
X0124983Y0258550D02*
X0124283Y0258550D01*
X0124283Y0259148D02*
X0124983Y0259148D01*
X0124983Y0259747D02*
X0124283Y0259747D01*
X0124283Y0260345D02*
X0124983Y0260345D01*
X0126933Y0260017D02*
X0131444Y0255506D01*
X0129695Y0255557D02*
X0128697Y0255557D01*
X0128883Y0256156D02*
X0129097Y0256156D01*
X0119583Y0239996D02*
X0118883Y0239996D01*
X0118883Y0239398D02*
X0119583Y0239398D01*
X0119583Y0238799D02*
X0118883Y0238799D01*
X0118883Y0238201D02*
X0119583Y0238201D01*
X0119583Y0237602D02*
X0118883Y0237602D01*
X0118883Y0237004D02*
X0119583Y0237004D01*
X0119621Y0236405D02*
X0118883Y0236405D01*
X0119955Y0235806D02*
X0116758Y0235806D01*
X0114358Y0236405D02*
X0113883Y0236405D01*
X0113883Y0237004D02*
X0114358Y0237004D01*
X0114358Y0237602D02*
X0113883Y0237602D01*
X0113883Y0238201D02*
X0114358Y0238201D01*
X0114358Y0238799D02*
X0113883Y0238799D01*
X0113883Y0239398D02*
X0114358Y0239398D01*
X0114791Y0239996D02*
X0113883Y0239996D01*
X0060600Y0139446D02*
X0057322Y0139446D01*
X0057322Y0138848D02*
X0060389Y0138848D01*
X0060389Y0138249D02*
X0056744Y0138249D01*
X0056146Y0137651D02*
X0060389Y0137651D01*
X0060233Y0137052D02*
X0048894Y0137052D01*
X0048969Y0136977D02*
X0048727Y0137219D01*
X0048431Y0137390D01*
X0048100Y0137479D01*
X0045867Y0137479D01*
X0045867Y0134117D01*
X0049229Y0134117D01*
X0049229Y0136350D01*
X0049141Y0136681D01*
X0048969Y0136977D01*
X0049201Y0136454D02*
X0059990Y0136454D01*
X0059989Y0135855D02*
X0049229Y0135855D01*
X0049229Y0135257D02*
X0059989Y0135257D01*
X0060011Y0134658D02*
X0049229Y0134658D01*
X0049229Y0133517D02*
X0049229Y0131283D01*
X0049141Y0130953D01*
X0048969Y0130656D01*
X0048727Y0130414D01*
X0048431Y0130243D01*
X0048100Y0130154D01*
X0045867Y0130154D01*
X0045867Y0133517D01*
X0049229Y0133517D01*
X0049229Y0133461D02*
X0060389Y0133461D01*
X0060389Y0132863D02*
X0049229Y0132863D01*
X0049229Y0132264D02*
X0060389Y0132264D01*
X0060519Y0131666D02*
X0049229Y0131666D01*
X0049171Y0131067D02*
X0060389Y0131067D01*
X0060389Y0130468D02*
X0048782Y0130468D01*
X0046553Y0125390D02*
X0046849Y0125219D01*
X0047091Y0124977D01*
X0047263Y0124681D01*
X0047351Y0124350D01*
X0047351Y0122117D01*
X0044776Y0122117D01*
X0044776Y0125479D01*
X0046222Y0125479D01*
X0046553Y0125390D01*
X0046987Y0125082D02*
X0060389Y0125082D01*
X0060389Y0125680D02*
X0043008Y0125680D01*
X0043008Y0126279D02*
X0060389Y0126279D01*
X0060389Y0126877D02*
X0043008Y0126877D01*
X0043008Y0127476D02*
X0060389Y0127476D01*
X0060389Y0128074D02*
X0043008Y0128074D01*
X0043008Y0128673D02*
X0060389Y0128673D01*
X0060538Y0129271D02*
X0043008Y0129271D01*
X0043008Y0129870D02*
X0060389Y0129870D01*
X0060302Y0134060D02*
X0045867Y0134060D01*
X0045867Y0134658D02*
X0045267Y0134658D01*
X0045267Y0135257D02*
X0045867Y0135257D01*
X0045867Y0135855D02*
X0045267Y0135855D01*
X0045267Y0136454D02*
X0045867Y0136454D01*
X0045867Y0137052D02*
X0045267Y0137052D01*
X0043964Y0137651D02*
X0053720Y0137651D01*
X0045867Y0133461D02*
X0045267Y0133461D01*
X0045267Y0132863D02*
X0045867Y0132863D01*
X0045867Y0132264D02*
X0045267Y0132264D01*
X0045267Y0131666D02*
X0045867Y0131666D01*
X0045867Y0131067D02*
X0045267Y0131067D01*
X0045267Y0130468D02*
X0045867Y0130468D01*
X0044776Y0125082D02*
X0044176Y0125082D01*
X0044176Y0124483D02*
X0044776Y0124483D01*
X0044776Y0123885D02*
X0044176Y0123885D01*
X0044176Y0123286D02*
X0044776Y0123286D01*
X0044776Y0122688D02*
X0044176Y0122688D01*
X0044776Y0122089D02*
X0060389Y0122089D01*
X0060389Y0122688D02*
X0047351Y0122688D01*
X0047351Y0123286D02*
X0060389Y0123286D01*
X0060416Y0123885D02*
X0047351Y0123885D01*
X0047315Y0124483D02*
X0060389Y0124483D01*
X0060581Y0121491D02*
X0047351Y0121491D01*
X0047351Y0121517D02*
X0044776Y0121517D01*
X0044776Y0118154D01*
X0046222Y0118154D01*
X0046553Y0118243D01*
X0046849Y0118414D01*
X0047091Y0118656D01*
X0047263Y0118953D01*
X0047351Y0119283D01*
X0047351Y0121517D01*
X0047351Y0120892D02*
X0060389Y0120892D01*
X0060389Y0120294D02*
X0047351Y0120294D01*
X0047351Y0119695D02*
X0060389Y0119695D01*
X0060477Y0119097D02*
X0047301Y0119097D01*
X0046934Y0118498D02*
X0060389Y0118498D01*
X0060389Y0117900D02*
X0043008Y0117900D01*
X0043008Y0117301D02*
X0060389Y0117301D01*
X0060389Y0116703D02*
X0043008Y0116703D01*
X0043008Y0116104D02*
X0060910Y0116104D01*
X0063558Y0112513D02*
X0054880Y0112513D01*
X0055004Y0112493D02*
X0054227Y0112617D01*
X0054133Y0112617D01*
X0054133Y0107917D01*
X0058833Y0107917D01*
X0058833Y0108010D01*
X0058710Y0108787D01*
X0058467Y0109536D01*
X0058109Y0110237D01*
X0057647Y0110874D01*
X0057090Y0111430D01*
X0056454Y0111893D01*
X0055752Y0112250D01*
X0055004Y0112493D01*
X0054133Y0112513D02*
X0053533Y0112513D01*
X0053533Y0111915D02*
X0054133Y0111915D01*
X0054133Y0111316D02*
X0053533Y0111316D01*
X0053533Y0110718D02*
X0054133Y0110718D01*
X0054133Y0110119D02*
X0053533Y0110119D01*
X0053533Y0109521D02*
X0054133Y0109521D01*
X0054133Y0108922D02*
X0053533Y0108922D01*
X0053533Y0108324D02*
X0054133Y0108324D01*
X0054133Y0107725D02*
X0058770Y0107725D01*
X0058783Y0108324D02*
X0059368Y0108324D01*
X0059967Y0108922D02*
X0058666Y0108922D01*
X0058472Y0109521D02*
X0060565Y0109521D01*
X0061164Y0110119D02*
X0058170Y0110119D01*
X0057760Y0110718D02*
X0061762Y0110718D01*
X0062361Y0111316D02*
X0057205Y0111316D01*
X0056411Y0111915D02*
X0062959Y0111915D01*
X0052787Y0112513D02*
X0043809Y0112513D01*
X0044407Y0111915D02*
X0051255Y0111915D01*
X0050462Y0111316D02*
X0045006Y0111316D01*
X0045604Y0110718D02*
X0049906Y0110718D01*
X0049497Y0110119D02*
X0046203Y0110119D01*
X0046801Y0109521D02*
X0049194Y0109521D01*
X0049000Y0108922D02*
X0047400Y0108922D01*
X0047998Y0108324D02*
X0048883Y0108324D01*
X0048597Y0107725D02*
X0053533Y0107725D01*
X0044776Y0118498D02*
X0044176Y0118498D01*
X0044176Y0119097D02*
X0044776Y0119097D01*
X0044776Y0119695D02*
X0044176Y0119695D01*
X0044176Y0120294D02*
X0044776Y0120294D01*
X0044776Y0120892D02*
X0044176Y0120892D01*
X0044176Y0121491D02*
X0044776Y0121491D01*
X0037433Y0140317D02*
X0037433Y0147192D01*
X0037693Y0147317D01*
D30*
X0054933Y0139817D03*
X0069308Y0156567D03*
X0074197Y0164817D03*
X0080433Y0162317D03*
X0069933Y0175317D03*
X0064308Y0169692D03*
X0072433Y0189692D03*
X0061808Y0210317D03*
X0076183Y0212192D03*
X0079933Y0230942D03*
X0078683Y0249692D03*
X0107433Y0206567D03*
X0108933Y0197317D03*
X0107433Y0181567D03*
X0107433Y0171567D03*
X0101808Y0166567D03*
X0092308Y0163942D03*
X0101433Y0130317D03*
X0118058Y0127192D03*
X0123683Y0222817D03*
X0126808Y0225317D03*
X0131444Y0250317D03*
M02*
