G75*
%MOIN*%
%OFA0B0*%
%FSLAX25Y25*%
%IPPOS*%
%LPD*%
%AMOC8*
5,1,8,0,0,1.08239X$1,22.5*
%
%ADD10C,0.00512*%
%ADD11C,0.00400*%
%ADD12R,0.03150X0.04724*%
%ADD13R,0.09331X0.08780*%
%ADD14R,0.02480X0.03268*%
%ADD15C,0.03700*%
%ADD16C,0.05622*%
%ADD17R,0.05622X0.05622*%
%ADD18C,0.06693*%
%ADD19R,0.03150X0.03150*%
%ADD20R,0.03937X0.04331*%
%ADD21R,0.04331X0.03937*%
%ADD22C,0.09000*%
%ADD23C,0.09450*%
%ADD24C,0.07400*%
%ADD25R,0.05906X0.06299*%
%ADD26R,0.04724X0.04724*%
%ADD27R,0.06600X0.01400*%
%ADD28R,0.02100X0.07800*%
%ADD29R,0.05500X0.01370*%
%ADD30C,0.00600*%
%ADD31C,0.02978*%
D10*
X0002285Y0059583D02*
X0034962Y0059583D01*
X0009962Y0059839D02*
X0011219Y0069819D01*
X0008705Y0069819D01*
X0009962Y0059839D01*
X0010985Y0069819D01*
X0010474Y0069819D02*
X0009962Y0059839D01*
X0008938Y0069819D01*
X0009450Y0069819D02*
X0009962Y0059839D01*
X0009962Y0234287D01*
X0010985Y0224307D01*
X0011219Y0224307D02*
X0008705Y0224307D01*
X0009962Y0234287D01*
X0008938Y0224307D01*
X0009450Y0224307D02*
X0009962Y0234287D01*
X0010474Y0224307D01*
X0011219Y0224307D02*
X0009962Y0234287D01*
X0002285Y0234543D02*
X0034962Y0234543D01*
X0034962Y0247260D01*
X0035218Y0239583D02*
X0045198Y0238559D01*
X0045198Y0238326D02*
X0045198Y0240840D01*
X0035218Y0239583D01*
X0045198Y0240606D01*
X0045198Y0240094D02*
X0035218Y0239583D01*
X0045198Y0239071D01*
X0045198Y0238326D02*
X0035218Y0239583D01*
X0163407Y0239583D01*
X0153426Y0238559D01*
X0153426Y0238326D02*
X0153426Y0240840D01*
X0163407Y0239583D01*
X0153426Y0240606D01*
X0153426Y0240094D02*
X0163407Y0239583D01*
X0153426Y0239071D01*
X0153426Y0238326D02*
X0163407Y0239583D01*
X0163663Y0234543D02*
X0163663Y0247260D01*
D11*
X0108407Y0244867D02*
X0108407Y0243589D01*
X0106873Y0243589D01*
X0108406Y0243589D02*
X0108404Y0243500D01*
X0108398Y0243411D01*
X0108389Y0243322D01*
X0108375Y0243234D01*
X0108358Y0243147D01*
X0108336Y0243060D01*
X0108311Y0242974D01*
X0108283Y0242890D01*
X0108250Y0242807D01*
X0108214Y0242725D01*
X0108175Y0242645D01*
X0108132Y0242567D01*
X0108086Y0242491D01*
X0108036Y0242417D01*
X0107984Y0242345D01*
X0107928Y0242275D01*
X0107869Y0242208D01*
X0107807Y0242144D01*
X0107743Y0242082D01*
X0107676Y0242023D01*
X0107606Y0241967D01*
X0107534Y0241915D01*
X0107460Y0241865D01*
X0107384Y0241819D01*
X0107306Y0241776D01*
X0107226Y0241737D01*
X0107144Y0241701D01*
X0107061Y0241668D01*
X0106977Y0241640D01*
X0106891Y0241615D01*
X0106804Y0241593D01*
X0106717Y0241576D01*
X0106629Y0241562D01*
X0106540Y0241553D01*
X0106451Y0241547D01*
X0106362Y0241545D01*
X0103907Y0242822D02*
X0103907Y0243078D01*
X0103906Y0243078D02*
X0103904Y0243140D01*
X0103899Y0243201D01*
X0103889Y0243262D01*
X0103876Y0243323D01*
X0103860Y0243382D01*
X0103840Y0243440D01*
X0103816Y0243497D01*
X0103789Y0243553D01*
X0103759Y0243607D01*
X0103725Y0243659D01*
X0103689Y0243708D01*
X0103649Y0243756D01*
X0103607Y0243801D01*
X0103562Y0243843D01*
X0103514Y0243883D01*
X0103465Y0243919D01*
X0103413Y0243953D01*
X0103359Y0243983D01*
X0103303Y0244010D01*
X0103246Y0244034D01*
X0103188Y0244054D01*
X0103129Y0244070D01*
X0103068Y0244083D01*
X0103007Y0244093D01*
X0102946Y0244098D01*
X0102884Y0244100D01*
X0101351Y0244100D01*
X0101351Y0242822D01*
X0101353Y0242752D01*
X0101359Y0242681D01*
X0101368Y0242612D01*
X0101382Y0242543D01*
X0101399Y0242474D01*
X0101420Y0242407D01*
X0101445Y0242341D01*
X0101473Y0242277D01*
X0101505Y0242214D01*
X0101540Y0242153D01*
X0101579Y0242094D01*
X0101620Y0242037D01*
X0101665Y0241983D01*
X0101713Y0241931D01*
X0101763Y0241882D01*
X0101817Y0241835D01*
X0101872Y0241792D01*
X0101930Y0241752D01*
X0101990Y0241715D01*
X0102052Y0241682D01*
X0102116Y0241652D01*
X0102181Y0241625D01*
X0102247Y0241602D01*
X0102315Y0241583D01*
X0102384Y0241568D01*
X0102453Y0241556D01*
X0102523Y0241548D01*
X0102594Y0241544D01*
X0102664Y0241544D01*
X0102735Y0241548D01*
X0102805Y0241556D01*
X0102874Y0241568D01*
X0102943Y0241583D01*
X0103011Y0241602D01*
X0103077Y0241625D01*
X0103142Y0241652D01*
X0103206Y0241682D01*
X0103268Y0241715D01*
X0103328Y0241752D01*
X0103386Y0241792D01*
X0103441Y0241835D01*
X0103495Y0241882D01*
X0103545Y0241931D01*
X0103593Y0241983D01*
X0103638Y0242037D01*
X0103679Y0242094D01*
X0103718Y0242153D01*
X0103753Y0242214D01*
X0103785Y0242277D01*
X0103813Y0242341D01*
X0103838Y0242407D01*
X0103859Y0242474D01*
X0103876Y0242543D01*
X0103890Y0242612D01*
X0103899Y0242681D01*
X0103905Y0242752D01*
X0103907Y0242822D01*
X0101352Y0244100D02*
X0101354Y0244189D01*
X0101360Y0244278D01*
X0101369Y0244367D01*
X0101383Y0244455D01*
X0101400Y0244542D01*
X0101422Y0244629D01*
X0101447Y0244715D01*
X0101475Y0244799D01*
X0101508Y0244882D01*
X0101544Y0244964D01*
X0101583Y0245044D01*
X0101626Y0245122D01*
X0101672Y0245198D01*
X0101722Y0245272D01*
X0101774Y0245344D01*
X0101830Y0245414D01*
X0101889Y0245481D01*
X0101951Y0245545D01*
X0102015Y0245607D01*
X0102082Y0245666D01*
X0102152Y0245722D01*
X0102224Y0245774D01*
X0102298Y0245824D01*
X0102374Y0245870D01*
X0102452Y0245913D01*
X0102532Y0245952D01*
X0102614Y0245988D01*
X0102697Y0246021D01*
X0102781Y0246049D01*
X0102867Y0246074D01*
X0102954Y0246096D01*
X0103041Y0246113D01*
X0103129Y0246127D01*
X0103218Y0246136D01*
X0103307Y0246142D01*
X0103396Y0246144D01*
X0105851Y0244867D02*
X0105851Y0244611D01*
X0105853Y0244549D01*
X0105858Y0244488D01*
X0105868Y0244427D01*
X0105881Y0244366D01*
X0105897Y0244307D01*
X0105917Y0244249D01*
X0105941Y0244192D01*
X0105968Y0244136D01*
X0105998Y0244082D01*
X0106032Y0244030D01*
X0106068Y0243981D01*
X0106108Y0243933D01*
X0106150Y0243888D01*
X0106195Y0243846D01*
X0106243Y0243806D01*
X0106292Y0243770D01*
X0106344Y0243736D01*
X0106398Y0243706D01*
X0106454Y0243679D01*
X0106511Y0243655D01*
X0106569Y0243635D01*
X0106628Y0243619D01*
X0106689Y0243606D01*
X0106750Y0243596D01*
X0106811Y0243591D01*
X0106873Y0243589D01*
X0105851Y0244867D02*
X0105853Y0244937D01*
X0105859Y0245008D01*
X0105868Y0245077D01*
X0105882Y0245146D01*
X0105899Y0245215D01*
X0105920Y0245282D01*
X0105945Y0245348D01*
X0105973Y0245412D01*
X0106005Y0245475D01*
X0106040Y0245536D01*
X0106079Y0245595D01*
X0106120Y0245652D01*
X0106165Y0245706D01*
X0106213Y0245758D01*
X0106263Y0245807D01*
X0106317Y0245854D01*
X0106372Y0245897D01*
X0106430Y0245937D01*
X0106490Y0245974D01*
X0106552Y0246007D01*
X0106616Y0246037D01*
X0106681Y0246064D01*
X0106747Y0246087D01*
X0106815Y0246106D01*
X0106884Y0246121D01*
X0106953Y0246133D01*
X0107023Y0246141D01*
X0107094Y0246145D01*
X0107164Y0246145D01*
X0107235Y0246141D01*
X0107305Y0246133D01*
X0107374Y0246121D01*
X0107443Y0246106D01*
X0107511Y0246087D01*
X0107577Y0246064D01*
X0107642Y0246037D01*
X0107706Y0246007D01*
X0107768Y0245974D01*
X0107828Y0245937D01*
X0107886Y0245897D01*
X0107941Y0245854D01*
X0107995Y0245807D01*
X0108045Y0245758D01*
X0108093Y0245706D01*
X0108138Y0245652D01*
X0108179Y0245595D01*
X0108218Y0245536D01*
X0108253Y0245475D01*
X0108285Y0245412D01*
X0108313Y0245348D01*
X0108338Y0245282D01*
X0108359Y0245215D01*
X0108376Y0245146D01*
X0108390Y0245077D01*
X0108399Y0245008D01*
X0108405Y0244937D01*
X0108407Y0244867D01*
X0099607Y0241800D02*
X0099607Y0241544D01*
X0099351Y0241544D01*
X0099351Y0241800D01*
X0099607Y0241800D01*
X0097607Y0241544D02*
X0095051Y0241544D01*
X0097223Y0244100D01*
X0096457Y0246144D02*
X0096383Y0246142D01*
X0096309Y0246137D01*
X0096235Y0246127D01*
X0096162Y0246114D01*
X0096089Y0246098D01*
X0096018Y0246077D01*
X0095948Y0246053D01*
X0095879Y0246026D01*
X0095811Y0245995D01*
X0095745Y0245961D01*
X0095681Y0245924D01*
X0095619Y0245883D01*
X0095559Y0245839D01*
X0095501Y0245793D01*
X0095445Y0245743D01*
X0095392Y0245691D01*
X0095342Y0245636D01*
X0095295Y0245579D01*
X0095251Y0245519D01*
X0095209Y0245457D01*
X0095171Y0245394D01*
X0095136Y0245328D01*
X0095105Y0245261D01*
X0095077Y0245192D01*
X0095052Y0245122D01*
X0097223Y0244100D02*
X0097270Y0244147D01*
X0097314Y0244197D01*
X0097356Y0244249D01*
X0097395Y0244303D01*
X0097430Y0244359D01*
X0097463Y0244417D01*
X0097493Y0244477D01*
X0097519Y0244538D01*
X0097542Y0244601D01*
X0097561Y0244665D01*
X0097577Y0244729D01*
X0097590Y0244795D01*
X0097599Y0244861D01*
X0097604Y0244927D01*
X0097606Y0244994D01*
X0097607Y0244994D02*
X0097605Y0245061D01*
X0097599Y0245128D01*
X0097590Y0245194D01*
X0097576Y0245259D01*
X0097559Y0245324D01*
X0097538Y0245387D01*
X0097513Y0245449D01*
X0097485Y0245510D01*
X0097453Y0245569D01*
X0097418Y0245626D01*
X0097379Y0245681D01*
X0097338Y0245733D01*
X0097293Y0245783D01*
X0097246Y0245830D01*
X0097196Y0245875D01*
X0097144Y0245916D01*
X0097089Y0245955D01*
X0097032Y0245990D01*
X0096973Y0246022D01*
X0096912Y0246050D01*
X0096850Y0246075D01*
X0096787Y0246096D01*
X0096722Y0246113D01*
X0096657Y0246127D01*
X0096591Y0246136D01*
X0096524Y0246142D01*
X0096457Y0246144D01*
X0092085Y0246144D02*
X0090551Y0246144D01*
X0092085Y0246144D02*
X0092148Y0246142D01*
X0092211Y0246136D01*
X0092273Y0246127D01*
X0092334Y0246113D01*
X0092395Y0246096D01*
X0092454Y0246075D01*
X0092512Y0246050D01*
X0092569Y0246022D01*
X0092623Y0245991D01*
X0092675Y0245956D01*
X0092726Y0245918D01*
X0092774Y0245877D01*
X0092819Y0245833D01*
X0092861Y0245787D01*
X0092901Y0245738D01*
X0092937Y0245687D01*
X0092970Y0245633D01*
X0093000Y0245578D01*
X0093026Y0245520D01*
X0093049Y0245462D01*
X0093068Y0245402D01*
X0093083Y0245341D01*
X0093095Y0245279D01*
X0093103Y0245216D01*
X0093107Y0245153D01*
X0093107Y0245091D01*
X0093103Y0245028D01*
X0093095Y0244965D01*
X0093083Y0244903D01*
X0093068Y0244842D01*
X0093049Y0244782D01*
X0093026Y0244724D01*
X0093000Y0244666D01*
X0092970Y0244611D01*
X0092937Y0244557D01*
X0092901Y0244506D01*
X0092861Y0244457D01*
X0092819Y0244411D01*
X0092774Y0244367D01*
X0092726Y0244326D01*
X0092675Y0244288D01*
X0092623Y0244253D01*
X0092569Y0244222D01*
X0092512Y0244194D01*
X0092454Y0244169D01*
X0092395Y0244148D01*
X0092334Y0244131D01*
X0092273Y0244117D01*
X0092211Y0244108D01*
X0092148Y0244102D01*
X0092085Y0244100D01*
X0091062Y0244100D01*
X0091829Y0244100D02*
X0091899Y0244098D01*
X0091970Y0244092D01*
X0092039Y0244083D01*
X0092108Y0244069D01*
X0092177Y0244052D01*
X0092244Y0244031D01*
X0092310Y0244006D01*
X0092374Y0243978D01*
X0092437Y0243946D01*
X0092498Y0243911D01*
X0092557Y0243872D01*
X0092614Y0243831D01*
X0092668Y0243786D01*
X0092720Y0243738D01*
X0092769Y0243688D01*
X0092816Y0243634D01*
X0092859Y0243579D01*
X0092899Y0243521D01*
X0092936Y0243461D01*
X0092969Y0243399D01*
X0092999Y0243335D01*
X0093026Y0243270D01*
X0093049Y0243204D01*
X0093068Y0243136D01*
X0093083Y0243067D01*
X0093095Y0242998D01*
X0093103Y0242928D01*
X0093107Y0242857D01*
X0093107Y0242787D01*
X0093103Y0242716D01*
X0093095Y0242646D01*
X0093083Y0242577D01*
X0093068Y0242508D01*
X0093049Y0242440D01*
X0093026Y0242374D01*
X0092999Y0242309D01*
X0092969Y0242245D01*
X0092936Y0242183D01*
X0092899Y0242123D01*
X0092859Y0242065D01*
X0092816Y0242010D01*
X0092769Y0241956D01*
X0092720Y0241906D01*
X0092668Y0241858D01*
X0092614Y0241813D01*
X0092557Y0241772D01*
X0092498Y0241733D01*
X0092437Y0241698D01*
X0092374Y0241666D01*
X0092310Y0241638D01*
X0092244Y0241613D01*
X0092177Y0241592D01*
X0092108Y0241575D01*
X0092039Y0241561D01*
X0091970Y0241552D01*
X0091899Y0241546D01*
X0091829Y0241544D01*
X0090551Y0241544D01*
X0008000Y0155391D02*
X0005956Y0155391D01*
X0006978Y0156157D02*
X0006978Y0153602D01*
X0003400Y0154624D01*
X0003400Y0150124D02*
X0006978Y0149102D01*
X0006978Y0151657D01*
X0005956Y0150891D02*
X0008000Y0150891D01*
X0008000Y0147358D02*
X0008000Y0147102D01*
X0007744Y0147102D01*
X0007744Y0147358D01*
X0008000Y0147358D01*
X0006978Y0145358D02*
X0006978Y0142802D01*
X0003400Y0143824D01*
X0005956Y0144591D02*
X0008000Y0144591D01*
X0006978Y0140858D02*
X0006978Y0138302D01*
X0003400Y0139324D01*
X0005956Y0140091D02*
X0008000Y0140091D01*
D12*
X0046419Y0134583D03*
X0053505Y0134583D03*
X0053505Y0154583D03*
X0046419Y0154583D03*
X0046419Y0174583D03*
X0053505Y0174583D03*
X0091419Y0199583D03*
X0098505Y0199583D03*
X0136419Y0189583D03*
X0143505Y0189583D03*
D13*
X0069686Y0114583D03*
X0050237Y0114583D03*
D14*
X0110434Y0204583D03*
X0119489Y0204583D03*
D15*
X0144962Y0089583D03*
X0144962Y0084583D03*
X0144962Y0079583D03*
X0144962Y0074583D03*
X0144962Y0069583D03*
X0149962Y0069583D03*
X0149962Y0074583D03*
X0149962Y0079583D03*
X0149962Y0084583D03*
X0149962Y0089583D03*
D16*
X0108899Y0080921D03*
X0101025Y0080921D03*
X0091182Y0080921D03*
D17*
X0118741Y0080921D03*
D18*
X0127403Y0076000D02*
X0127403Y0069307D01*
X0082521Y0069307D02*
X0082521Y0076000D01*
D19*
X0069962Y0151630D03*
X0069962Y0157535D03*
X0142009Y0129583D03*
X0147915Y0129583D03*
X0147915Y0119583D03*
X0142009Y0119583D03*
D20*
X0141615Y0104583D03*
X0148308Y0104583D03*
X0129962Y0136236D03*
X0129962Y0142929D03*
D21*
X0073308Y0174583D03*
X0066615Y0174583D03*
X0069962Y0137929D03*
X0069962Y0131236D03*
X0111615Y0219583D03*
X0118308Y0219583D03*
D22*
X0139962Y0214583D03*
D23*
X0129962Y0224583D03*
X0129962Y0204583D03*
X0149962Y0204583D03*
X0149962Y0224583D03*
D24*
X0064962Y0224583D03*
X0064962Y0214583D03*
X0064962Y0204583D03*
X0064962Y0194583D03*
X0054962Y0194583D03*
X0054962Y0204583D03*
X0054962Y0214583D03*
X0054962Y0224583D03*
X0063862Y0097383D03*
X0046062Y0097383D03*
X0046062Y0071783D03*
X0063862Y0071783D03*
D25*
X0094962Y0213677D03*
D26*
X0098899Y0226768D03*
X0091025Y0226768D03*
D27*
X0085512Y0187614D03*
X0085512Y0185055D03*
X0085512Y0182496D03*
X0085512Y0179937D03*
X0085512Y0177378D03*
X0085512Y0174819D03*
X0085512Y0172260D03*
X0085512Y0169701D03*
X0085512Y0167142D03*
X0085512Y0164583D03*
X0085512Y0162024D03*
X0085512Y0159465D03*
X0085512Y0156906D03*
X0085512Y0154346D03*
X0085512Y0151787D03*
X0085512Y0149228D03*
X0085512Y0146669D03*
X0085512Y0144110D03*
X0085512Y0141551D03*
X0114412Y0141551D03*
X0114412Y0144110D03*
X0114412Y0146669D03*
X0114412Y0149228D03*
X0114412Y0151787D03*
X0114412Y0154346D03*
X0114412Y0156906D03*
X0114412Y0159465D03*
X0114412Y0162024D03*
X0114412Y0164583D03*
X0114412Y0167142D03*
X0114412Y0169701D03*
X0114412Y0172260D03*
X0114412Y0174819D03*
X0114412Y0177378D03*
X0114412Y0179937D03*
X0114412Y0182496D03*
X0114412Y0185055D03*
X0114412Y0187614D03*
D28*
X0132462Y0174283D03*
X0137462Y0174283D03*
X0142462Y0174283D03*
X0147462Y0174283D03*
X0147462Y0154883D03*
X0142462Y0154883D03*
X0137462Y0154883D03*
X0132462Y0154883D03*
D29*
X0119356Y0126217D03*
X0119356Y0123657D03*
X0119356Y0121098D03*
X0119356Y0118539D03*
X0119356Y0115980D03*
X0119356Y0113421D03*
X0119356Y0110862D03*
X0119356Y0108303D03*
X0119356Y0105744D03*
X0119356Y0103185D03*
X0119356Y0100626D03*
X0119356Y0098067D03*
X0119356Y0095508D03*
X0119356Y0092949D03*
X0090568Y0092949D03*
X0090568Y0095508D03*
X0090568Y0098067D03*
X0090568Y0100626D03*
X0090568Y0103185D03*
X0090568Y0105744D03*
X0090568Y0108303D03*
X0090568Y0110862D03*
X0090568Y0113421D03*
X0090568Y0115980D03*
X0090568Y0118539D03*
X0090568Y0121098D03*
X0090568Y0123657D03*
X0090568Y0126217D03*
D30*
X0091162Y0126183D01*
X0097762Y0126183D01*
X0100162Y0124983D02*
X0100162Y0157983D01*
X0088762Y0169383D01*
X0085762Y0169383D01*
X0085512Y0169701D01*
X0085162Y0167583D02*
X0085512Y0167142D01*
X0085762Y0166983D01*
X0088762Y0166983D01*
X0089962Y0165783D01*
X0089962Y0140583D01*
X0091162Y0139383D01*
X0089962Y0140583D02*
X0086362Y0136983D01*
X0086362Y0125583D01*
X0088162Y0123783D01*
X0090562Y0123783D01*
X0090568Y0123657D01*
X0091162Y0121383D02*
X0090568Y0121098D01*
X0091162Y0121383D02*
X0096562Y0121383D01*
X0104362Y0113583D01*
X0104362Y0096783D01*
X0112762Y0088383D01*
X0134962Y0088383D01*
X0136162Y0087183D01*
X0136162Y0072183D01*
X0142762Y0065583D01*
X0149962Y0065583D01*
X0152962Y0068583D01*
X0152962Y0081183D01*
X0149962Y0084183D01*
X0149962Y0084583D01*
X0150087Y0089708D02*
X0149837Y0089708D01*
X0149837Y0092733D01*
X0149652Y0092733D01*
X0149043Y0092612D01*
X0148470Y0092374D01*
X0147954Y0092029D01*
X0147515Y0091591D01*
X0147246Y0091188D01*
X0146520Y0091914D01*
X0145509Y0092333D01*
X0144415Y0092333D01*
X0143404Y0091914D01*
X0143362Y0091872D01*
X0143362Y0099783D01*
X0150065Y0099783D01*
X0152962Y0096886D01*
X0152962Y0090571D01*
X0152753Y0091075D01*
X0152409Y0091591D01*
X0151970Y0092029D01*
X0151454Y0092374D01*
X0150881Y0092612D01*
X0150272Y0092733D01*
X0150087Y0092733D01*
X0150087Y0089708D01*
X0150087Y0090107D02*
X0149837Y0090107D01*
X0149837Y0090705D02*
X0150087Y0090705D01*
X0150087Y0091304D02*
X0149837Y0091304D01*
X0149837Y0091902D02*
X0150087Y0091902D01*
X0150087Y0092501D02*
X0149837Y0092501D01*
X0148775Y0092501D02*
X0143362Y0092501D01*
X0143362Y0093099D02*
X0152962Y0093099D01*
X0152962Y0092501D02*
X0151148Y0092501D01*
X0152097Y0091902D02*
X0152962Y0091902D01*
X0152962Y0091304D02*
X0152600Y0091304D01*
X0152906Y0090705D02*
X0152962Y0090705D01*
X0152962Y0093698D02*
X0143362Y0093698D01*
X0143362Y0094296D02*
X0152962Y0094296D01*
X0152962Y0094895D02*
X0143362Y0094895D01*
X0143362Y0095493D02*
X0152962Y0095493D01*
X0152962Y0096092D02*
X0143362Y0096092D01*
X0143362Y0096690D02*
X0152962Y0096690D01*
X0152559Y0097289D02*
X0143362Y0097289D01*
X0143362Y0097887D02*
X0151960Y0097887D01*
X0151362Y0098486D02*
X0143362Y0098486D01*
X0143362Y0099084D02*
X0150763Y0099084D01*
X0150164Y0099683D02*
X0143362Y0099683D01*
X0142162Y0100983D02*
X0150562Y0100983D01*
X0154162Y0097383D01*
X0154162Y0067983D01*
X0150562Y0064383D01*
X0142162Y0064383D01*
X0134962Y0071583D01*
X0134962Y0081183D01*
X0131362Y0084783D01*
X0093562Y0084783D01*
X0086362Y0091983D01*
X0086362Y0118383D01*
X0090562Y0118383D01*
X0090568Y0118539D01*
X0090568Y0115980D02*
X0091162Y0115383D01*
X0093562Y0115383D01*
X0103162Y0105783D01*
X0103162Y0096183D01*
X0113362Y0085983D01*
X0133762Y0085983D01*
X0130252Y0083583D02*
X0130252Y0079673D01*
X0129838Y0079974D01*
X0129186Y0080306D01*
X0128491Y0080532D01*
X0127768Y0080646D01*
X0127703Y0080646D01*
X0127703Y0072954D01*
X0127103Y0072954D01*
X0127103Y0080646D01*
X0127037Y0080646D01*
X0126315Y0080532D01*
X0125619Y0080306D01*
X0124967Y0079974D01*
X0124376Y0079544D01*
X0123859Y0079027D01*
X0123429Y0078435D01*
X0123097Y0077784D01*
X0122871Y0077088D01*
X0122756Y0076366D01*
X0122756Y0072954D01*
X0127103Y0072954D01*
X0127103Y0072354D01*
X0122756Y0072354D01*
X0122756Y0068941D01*
X0122871Y0068219D01*
X0123097Y0067523D01*
X0123429Y0066872D01*
X0123859Y0066280D01*
X0124376Y0065763D01*
X0124967Y0065333D01*
X0125619Y0065001D01*
X0126315Y0064775D01*
X0127037Y0064661D01*
X0127103Y0064661D01*
X0127103Y0072353D01*
X0127703Y0072353D01*
X0127703Y0064661D01*
X0127768Y0064661D01*
X0128491Y0064775D01*
X0129186Y0065001D01*
X0129838Y0065333D01*
X0130252Y0065634D01*
X0130252Y0063883D01*
X0079671Y0063883D01*
X0079671Y0065634D01*
X0080086Y0065333D01*
X0080737Y0065001D01*
X0081433Y0064775D01*
X0082155Y0064661D01*
X0082221Y0064661D01*
X0082221Y0072353D01*
X0082821Y0072353D01*
X0082821Y0064661D01*
X0082887Y0064661D01*
X0083609Y0064775D01*
X0084304Y0065001D01*
X0084956Y0065333D01*
X0085548Y0065763D01*
X0086065Y0066280D01*
X0086495Y0066872D01*
X0086827Y0067523D01*
X0087053Y0068219D01*
X0087167Y0068941D01*
X0087167Y0072354D01*
X0082821Y0072354D01*
X0082821Y0072954D01*
X0082221Y0072954D01*
X0082221Y0080646D01*
X0082155Y0080646D01*
X0081433Y0080532D01*
X0080737Y0080306D01*
X0080086Y0079974D01*
X0079671Y0079673D01*
X0079671Y0083613D01*
X0088061Y0083613D01*
X0088047Y0083599D01*
X0087666Y0083076D01*
X0087372Y0082499D01*
X0087172Y0081884D01*
X0087071Y0081245D01*
X0087071Y0081221D01*
X0090882Y0081221D01*
X0090882Y0080621D01*
X0087071Y0080621D01*
X0087071Y0080598D01*
X0087172Y0079959D01*
X0087372Y0079343D01*
X0087666Y0078767D01*
X0088047Y0078243D01*
X0088504Y0077786D01*
X0089028Y0077405D01*
X0089604Y0077111D01*
X0090220Y0076911D01*
X0090859Y0076810D01*
X0090882Y0076810D01*
X0090882Y0080621D01*
X0091482Y0080621D01*
X0091482Y0077176D01*
X0090622Y0076316D01*
X0089638Y0073940D01*
X0089638Y0071367D01*
X0090622Y0068991D01*
X0092441Y0067172D01*
X0094817Y0066188D01*
X0097390Y0066188D01*
X0099766Y0067172D01*
X0101585Y0068991D01*
X0102569Y0071367D01*
X0102569Y0073940D01*
X0101585Y0076316D01*
X0100690Y0077210D01*
X0101763Y0077210D01*
X0103127Y0077775D01*
X0104171Y0078819D01*
X0104736Y0080183D01*
X0104736Y0081659D01*
X0104171Y0083023D01*
X0103612Y0083583D01*
X0106312Y0083583D01*
X0105753Y0083023D01*
X0105188Y0081659D01*
X0105188Y0080183D01*
X0105753Y0078819D01*
X0106797Y0077775D01*
X0108161Y0077210D01*
X0109233Y0077210D01*
X0108339Y0076316D01*
X0107355Y0073940D01*
X0107355Y0071367D01*
X0108339Y0068991D01*
X0110158Y0067172D01*
X0112534Y0066188D01*
X0115106Y0066188D01*
X0117482Y0067172D01*
X0119301Y0068991D01*
X0120285Y0071367D01*
X0120285Y0073940D01*
X0119301Y0076316D01*
X0118407Y0077210D01*
X0121925Y0077210D01*
X0122452Y0077737D01*
X0122452Y0083583D01*
X0130252Y0083583D01*
X0130252Y0083523D02*
X0122452Y0083523D01*
X0122452Y0082925D02*
X0130252Y0082925D01*
X0130252Y0082326D02*
X0122452Y0082326D01*
X0122452Y0081728D02*
X0130252Y0081728D01*
X0130252Y0081129D02*
X0122452Y0081129D01*
X0122452Y0080531D02*
X0126310Y0080531D01*
X0127103Y0080531D02*
X0127703Y0080531D01*
X0127703Y0079932D02*
X0127103Y0079932D01*
X0127103Y0079334D02*
X0127703Y0079334D01*
X0127703Y0078735D02*
X0127103Y0078735D01*
X0127103Y0078137D02*
X0127703Y0078137D01*
X0127703Y0077538D02*
X0127103Y0077538D01*
X0127103Y0076940D02*
X0127703Y0076940D01*
X0127703Y0076341D02*
X0127103Y0076341D01*
X0127103Y0075742D02*
X0127703Y0075742D01*
X0127703Y0075144D02*
X0127103Y0075144D01*
X0127103Y0074545D02*
X0127703Y0074545D01*
X0127703Y0073947D02*
X0127103Y0073947D01*
X0127103Y0073348D02*
X0127703Y0073348D01*
X0127103Y0072750D02*
X0120285Y0072750D01*
X0120285Y0073348D02*
X0122756Y0073348D01*
X0122756Y0073947D02*
X0120282Y0073947D01*
X0120034Y0074545D02*
X0122756Y0074545D01*
X0122756Y0075144D02*
X0119787Y0075144D01*
X0119539Y0075742D02*
X0122756Y0075742D01*
X0122756Y0076341D02*
X0119276Y0076341D01*
X0118677Y0076940D02*
X0122847Y0076940D01*
X0123017Y0077538D02*
X0122253Y0077538D01*
X0122452Y0078137D02*
X0123277Y0078137D01*
X0123647Y0078735D02*
X0122452Y0078735D01*
X0122452Y0079334D02*
X0124165Y0079334D01*
X0124910Y0079932D02*
X0122452Y0079932D01*
X0128495Y0080531D02*
X0130252Y0080531D01*
X0130252Y0079932D02*
X0129896Y0079932D01*
X0127703Y0072151D02*
X0127103Y0072151D01*
X0127103Y0071553D02*
X0127703Y0071553D01*
X0127703Y0070954D02*
X0127103Y0070954D01*
X0127103Y0070356D02*
X0127703Y0070356D01*
X0127703Y0069757D02*
X0127103Y0069757D01*
X0127103Y0069159D02*
X0127703Y0069159D01*
X0127703Y0068560D02*
X0127103Y0068560D01*
X0127103Y0067962D02*
X0127703Y0067962D01*
X0127703Y0067363D02*
X0127103Y0067363D01*
X0127103Y0066765D02*
X0127703Y0066765D01*
X0127703Y0066166D02*
X0127103Y0066166D01*
X0127103Y0065568D02*
X0127703Y0065568D01*
X0127703Y0064969D02*
X0127103Y0064969D01*
X0125717Y0064969D02*
X0084207Y0064969D01*
X0085279Y0065568D02*
X0124644Y0065568D01*
X0123972Y0066166D02*
X0085951Y0066166D01*
X0086417Y0066765D02*
X0093425Y0066765D01*
X0092250Y0067363D02*
X0086745Y0067363D01*
X0086969Y0067962D02*
X0091652Y0067962D01*
X0091053Y0068560D02*
X0087107Y0068560D01*
X0087167Y0069159D02*
X0090553Y0069159D01*
X0090305Y0069757D02*
X0087167Y0069757D01*
X0087167Y0070356D02*
X0090057Y0070356D01*
X0089809Y0070954D02*
X0087167Y0070954D01*
X0087167Y0071553D02*
X0089638Y0071553D01*
X0089638Y0072151D02*
X0087167Y0072151D01*
X0087167Y0072954D02*
X0087167Y0076366D01*
X0087053Y0077088D01*
X0086827Y0077784D01*
X0086495Y0078435D01*
X0086065Y0079027D01*
X0085548Y0079544D01*
X0084956Y0079974D01*
X0084304Y0080306D01*
X0083609Y0080532D01*
X0082887Y0080646D01*
X0082821Y0080646D01*
X0082821Y0072954D01*
X0087167Y0072954D01*
X0087167Y0073348D02*
X0089638Y0073348D01*
X0089638Y0072750D02*
X0082821Y0072750D01*
X0082821Y0073348D02*
X0082221Y0073348D01*
X0082221Y0073947D02*
X0082821Y0073947D01*
X0082821Y0074545D02*
X0082221Y0074545D01*
X0082221Y0075144D02*
X0082821Y0075144D01*
X0082821Y0075742D02*
X0082221Y0075742D01*
X0082221Y0076341D02*
X0082821Y0076341D01*
X0082821Y0076940D02*
X0082221Y0076940D01*
X0082221Y0077538D02*
X0082821Y0077538D01*
X0082821Y0078137D02*
X0082221Y0078137D01*
X0082221Y0078735D02*
X0082821Y0078735D01*
X0082821Y0079334D02*
X0082221Y0079334D01*
X0082221Y0079932D02*
X0082821Y0079932D01*
X0082821Y0080531D02*
X0082221Y0080531D01*
X0081428Y0080531D02*
X0079671Y0080531D01*
X0079671Y0081129D02*
X0090882Y0081129D01*
X0090882Y0080531D02*
X0091482Y0080531D01*
X0091482Y0080621D02*
X0091482Y0081221D01*
X0095293Y0081221D01*
X0095293Y0081245D01*
X0095192Y0081884D01*
X0094992Y0082499D01*
X0094698Y0083076D01*
X0094330Y0083583D01*
X0098438Y0083583D01*
X0097879Y0083023D01*
X0097314Y0081659D01*
X0097314Y0080183D01*
X0097830Y0078936D01*
X0097390Y0079119D01*
X0094878Y0079119D01*
X0094992Y0079343D01*
X0095192Y0079959D01*
X0095293Y0080598D01*
X0095293Y0080621D01*
X0091482Y0080621D01*
X0091482Y0081129D02*
X0097314Y0081129D01*
X0097314Y0080531D02*
X0095283Y0080531D01*
X0095183Y0079932D02*
X0097418Y0079932D01*
X0097666Y0079334D02*
X0094987Y0079334D01*
X0095217Y0081728D02*
X0097342Y0081728D01*
X0097590Y0082326D02*
X0095048Y0082326D01*
X0094775Y0082925D02*
X0097838Y0082925D01*
X0098379Y0083523D02*
X0094373Y0083523D01*
X0094059Y0085983D02*
X0111665Y0085983D01*
X0101962Y0095686D01*
X0101962Y0105286D01*
X0094218Y0113029D01*
X0094218Y0112486D01*
X0094358Y0112345D01*
X0094530Y0112049D01*
X0094618Y0111718D01*
X0094618Y0110905D01*
X0090611Y0110905D01*
X0090611Y0110820D01*
X0094618Y0110820D01*
X0094618Y0110006D01*
X0094530Y0109675D01*
X0094358Y0109379D01*
X0094218Y0109239D01*
X0094218Y0107245D01*
X0093996Y0107024D01*
X0094218Y0106802D01*
X0094218Y0104686D01*
X0093996Y0104465D01*
X0094218Y0104243D01*
X0094218Y0102127D01*
X0093996Y0101906D01*
X0094218Y0101684D01*
X0094218Y0099568D01*
X0093996Y0099346D01*
X0094218Y0099125D01*
X0094218Y0097009D01*
X0093996Y0096787D01*
X0094218Y0096566D01*
X0094218Y0094450D01*
X0093996Y0094228D01*
X0094218Y0094007D01*
X0094218Y0091891D01*
X0093691Y0091364D01*
X0088678Y0091364D01*
X0094059Y0085983D01*
X0093526Y0086516D02*
X0111132Y0086516D01*
X0110533Y0087114D02*
X0092927Y0087114D01*
X0092329Y0087713D02*
X0109935Y0087713D01*
X0109336Y0088311D02*
X0091730Y0088311D01*
X0091132Y0088910D02*
X0108738Y0088910D01*
X0108139Y0089508D02*
X0090533Y0089508D01*
X0089935Y0090107D02*
X0107541Y0090107D01*
X0106942Y0090705D02*
X0089336Y0090705D01*
X0088738Y0091304D02*
X0106344Y0091304D01*
X0105745Y0091902D02*
X0094218Y0091902D01*
X0094218Y0092501D02*
X0105147Y0092501D01*
X0104548Y0093099D02*
X0094218Y0093099D01*
X0094218Y0093698D02*
X0103950Y0093698D01*
X0103351Y0094296D02*
X0094064Y0094296D01*
X0094218Y0094895D02*
X0102753Y0094895D01*
X0102154Y0095493D02*
X0094218Y0095493D01*
X0094218Y0096092D02*
X0101962Y0096092D01*
X0101962Y0096690D02*
X0094093Y0096690D01*
X0094218Y0097289D02*
X0101962Y0097289D01*
X0101962Y0097887D02*
X0094218Y0097887D01*
X0094218Y0098486D02*
X0101962Y0098486D01*
X0101962Y0099084D02*
X0094218Y0099084D01*
X0094218Y0099683D02*
X0101962Y0099683D01*
X0101962Y0100281D02*
X0094218Y0100281D01*
X0094218Y0100880D02*
X0101962Y0100880D01*
X0101962Y0101478D02*
X0094218Y0101478D01*
X0094168Y0102077D02*
X0101962Y0102077D01*
X0101962Y0102675D02*
X0094218Y0102675D01*
X0094218Y0103274D02*
X0101962Y0103274D01*
X0101962Y0103873D02*
X0094218Y0103873D01*
X0094003Y0104471D02*
X0101962Y0104471D01*
X0101962Y0105070D02*
X0094218Y0105070D01*
X0094218Y0105668D02*
X0101579Y0105668D01*
X0100981Y0106267D02*
X0094218Y0106267D01*
X0094155Y0106865D02*
X0100382Y0106865D01*
X0099784Y0107464D02*
X0094218Y0107464D01*
X0094218Y0108062D02*
X0099185Y0108062D01*
X0098587Y0108661D02*
X0094218Y0108661D01*
X0094239Y0109259D02*
X0097988Y0109259D01*
X0097390Y0109858D02*
X0094578Y0109858D01*
X0094618Y0110456D02*
X0096791Y0110456D01*
X0096193Y0111055D02*
X0094618Y0111055D01*
X0094618Y0111653D02*
X0095594Y0111653D01*
X0094996Y0112252D02*
X0094413Y0112252D01*
X0094397Y0112850D02*
X0094218Y0112850D01*
X0100648Y0118994D02*
X0101151Y0118994D01*
X0102551Y0120393D01*
X0102551Y0122075D01*
X0115162Y0134686D01*
X0115162Y0139951D01*
X0118085Y0139951D01*
X0118116Y0139983D01*
X0118865Y0139983D01*
X0126562Y0132286D01*
X0127265Y0131583D01*
X0132459Y0131583D01*
X0133659Y0132783D01*
X0134362Y0133486D01*
X0134362Y0139280D01*
X0133762Y0139880D01*
X0133059Y0140583D01*
X0132830Y0140583D01*
X0132830Y0145467D01*
X0132303Y0145994D01*
X0131362Y0145994D01*
X0131362Y0150083D01*
X0133885Y0150083D01*
X0134412Y0150610D01*
X0134412Y0159155D01*
X0133885Y0159683D01*
X0131039Y0159683D01*
X0130512Y0159155D01*
X0130512Y0154630D01*
X0128962Y0153080D01*
X0128962Y0145994D01*
X0127621Y0145994D01*
X0127093Y0145467D01*
X0127093Y0141748D01*
X0121162Y0147680D01*
X0121162Y0160280D01*
X0119362Y0162080D01*
X0118659Y0162783D01*
X0118612Y0162783D01*
X0118612Y0163096D01*
X0118405Y0163303D01*
X0118612Y0163510D01*
X0118612Y0165655D01*
X0118405Y0165862D01*
X0118612Y0166069D01*
X0118612Y0166383D01*
X0125859Y0166383D01*
X0130512Y0171036D01*
X0130512Y0170010D01*
X0131039Y0169483D01*
X0132573Y0169483D01*
X0132573Y0167793D01*
X0133972Y0166394D01*
X0135654Y0166394D01*
X0141965Y0160083D01*
X0141241Y0160083D01*
X0140910Y0159994D01*
X0140614Y0159823D01*
X0140372Y0159581D01*
X0140200Y0159284D01*
X0140112Y0158954D01*
X0140112Y0155108D01*
X0142237Y0155108D01*
X0142237Y0154658D01*
X0140112Y0154658D01*
X0140112Y0150812D01*
X0140200Y0150481D01*
X0140372Y0150184D01*
X0140614Y0149942D01*
X0140910Y0149771D01*
X0141241Y0149683D01*
X0142237Y0149683D01*
X0142237Y0154658D01*
X0142687Y0154658D01*
X0142687Y0155108D01*
X0144812Y0155108D01*
X0144812Y0157236D01*
X0145512Y0156536D01*
X0145512Y0150610D01*
X0146039Y0150083D01*
X0148885Y0150083D01*
X0149412Y0150610D01*
X0149412Y0158036D01*
X0150562Y0156886D01*
X0150562Y0107648D01*
X0149362Y0107648D01*
X0149362Y0117108D01*
X0149862Y0117108D01*
X0150389Y0117635D01*
X0150389Y0121530D01*
X0149862Y0122057D01*
X0149362Y0122057D01*
X0149362Y0127108D01*
X0149862Y0127108D01*
X0150389Y0127635D01*
X0150389Y0131530D01*
X0149862Y0132057D01*
X0145967Y0132057D01*
X0145440Y0131530D01*
X0145440Y0127635D01*
X0145967Y0127108D01*
X0146962Y0127108D01*
X0146962Y0122057D01*
X0145967Y0122057D01*
X0145762Y0121852D01*
X0145762Y0122480D01*
X0145059Y0123183D01*
X0143362Y0124880D01*
X0143362Y0127108D01*
X0143957Y0127108D01*
X0144484Y0127635D01*
X0144484Y0131530D01*
X0143957Y0132057D01*
X0140061Y0132057D01*
X0139534Y0131530D01*
X0139534Y0127635D01*
X0140061Y0127108D01*
X0140962Y0127108D01*
X0140962Y0123886D01*
X0142790Y0122057D01*
X0140061Y0122057D01*
X0139534Y0121530D01*
X0139534Y0120783D01*
X0127265Y0120783D01*
X0123005Y0116523D01*
X0123005Y0116916D01*
X0123146Y0117056D01*
X0123317Y0117353D01*
X0123405Y0117683D01*
X0123405Y0118497D01*
X0119398Y0118497D01*
X0119398Y0118582D01*
X0119313Y0118582D01*
X0119313Y0120524D01*
X0119313Y0121056D01*
X0115306Y0121056D01*
X0115306Y0120242D01*
X0115394Y0119912D01*
X0115448Y0119819D01*
X0115394Y0119726D01*
X0115306Y0119396D01*
X0115305Y0118582D01*
X0119313Y0118582D01*
X0119313Y0118497D01*
X0115306Y0118497D01*
X0115306Y0117683D01*
X0115394Y0117353D01*
X0115565Y0117056D01*
X0115706Y0116916D01*
X0115706Y0114922D01*
X0115927Y0114701D01*
X0115706Y0114479D01*
X0115706Y0112363D01*
X0115927Y0112142D01*
X0115706Y0111920D01*
X0115706Y0109927D01*
X0115565Y0109786D01*
X0115394Y0109490D01*
X0115306Y0109159D01*
X0115305Y0108346D01*
X0119313Y0108346D01*
X0119313Y0108261D01*
X0115306Y0108261D01*
X0115306Y0107447D01*
X0115394Y0107116D01*
X0115565Y0106820D01*
X0115706Y0106680D01*
X0115706Y0106223D01*
X0114654Y0105172D01*
X0112972Y0105172D01*
X0111573Y0103772D01*
X0111573Y0101793D01*
X0112972Y0100394D01*
X0114951Y0100394D01*
X0115306Y0100748D01*
X0115305Y0100669D01*
X0119313Y0100669D01*
X0119313Y0100583D01*
X0115306Y0100583D01*
X0115306Y0099770D01*
X0115394Y0099439D01*
X0115565Y0099143D01*
X0115706Y0099002D01*
X0115706Y0097009D01*
X0115927Y0096787D01*
X0115706Y0096566D01*
X0115706Y0096183D01*
X0112865Y0096183D01*
X0112254Y0095572D01*
X0110572Y0095572D01*
X0109173Y0094172D01*
X0109173Y0093669D01*
X0105562Y0097280D01*
X0105562Y0114080D01*
X0100648Y0118994D01*
X0100806Y0118835D02*
X0115306Y0118835D01*
X0115306Y0118237D02*
X0101405Y0118237D01*
X0102003Y0117638D02*
X0115318Y0117638D01*
X0115582Y0117040D02*
X0102602Y0117040D01*
X0103200Y0116441D02*
X0115706Y0116441D01*
X0115706Y0115843D02*
X0103799Y0115843D01*
X0104397Y0115244D02*
X0115706Y0115244D01*
X0115872Y0114646D02*
X0104996Y0114646D01*
X0105562Y0114047D02*
X0115706Y0114047D01*
X0115706Y0113449D02*
X0105562Y0113449D01*
X0105562Y0112850D02*
X0115706Y0112850D01*
X0115817Y0112252D02*
X0105562Y0112252D01*
X0105562Y0111653D02*
X0115706Y0111653D01*
X0115706Y0111055D02*
X0105562Y0111055D01*
X0105562Y0110456D02*
X0115706Y0110456D01*
X0115636Y0109858D02*
X0105562Y0109858D01*
X0105562Y0109259D02*
X0115332Y0109259D01*
X0115306Y0108661D02*
X0105562Y0108661D01*
X0105562Y0108062D02*
X0115306Y0108062D01*
X0115306Y0107464D02*
X0105562Y0107464D01*
X0105562Y0106865D02*
X0115539Y0106865D01*
X0115706Y0106267D02*
X0105562Y0106267D01*
X0105562Y0105668D02*
X0115150Y0105668D01*
X0116362Y0105183D02*
X0113962Y0102783D01*
X0112272Y0104471D02*
X0105562Y0104471D01*
X0105562Y0103873D02*
X0111673Y0103873D01*
X0111573Y0103274D02*
X0105562Y0103274D01*
X0105562Y0102675D02*
X0111573Y0102675D01*
X0111573Y0102077D02*
X0105562Y0102077D01*
X0105562Y0101478D02*
X0111887Y0101478D01*
X0112486Y0100880D02*
X0105562Y0100880D01*
X0105562Y0100281D02*
X0115306Y0100281D01*
X0115329Y0099683D02*
X0105562Y0099683D01*
X0105562Y0099084D02*
X0115624Y0099084D01*
X0115706Y0098486D02*
X0105562Y0098486D01*
X0105562Y0097887D02*
X0115706Y0097887D01*
X0115706Y0097289D02*
X0105562Y0097289D01*
X0106151Y0096690D02*
X0115830Y0096690D01*
X0113362Y0094983D02*
X0111562Y0093183D01*
X0109895Y0094895D02*
X0107947Y0094895D01*
X0108545Y0094296D02*
X0109297Y0094296D01*
X0109173Y0093698D02*
X0109144Y0093698D01*
X0110494Y0095493D02*
X0107348Y0095493D01*
X0106750Y0096092D02*
X0112774Y0096092D01*
X0113362Y0094983D02*
X0118762Y0094983D01*
X0119356Y0095508D01*
X0119356Y0098067D02*
X0119362Y0098583D01*
X0122362Y0098583D01*
X0128362Y0104583D01*
X0141615Y0104583D01*
X0142162Y0104583D01*
X0142162Y0100983D01*
X0142162Y0067983D01*
X0143362Y0066783D01*
X0146362Y0066783D01*
X0148762Y0069183D01*
X0149962Y0069183D01*
X0149962Y0069583D01*
X0150087Y0074708D02*
X0149837Y0074708D01*
X0149837Y0079458D01*
X0150087Y0079458D01*
X0150087Y0076433D01*
X0150087Y0074708D01*
X0150087Y0075144D02*
X0149837Y0075144D01*
X0149837Y0075742D02*
X0150087Y0075742D01*
X0150087Y0076341D02*
X0149837Y0076341D01*
X0149837Y0076940D02*
X0150087Y0076940D01*
X0150087Y0077538D02*
X0149837Y0077538D01*
X0149837Y0078137D02*
X0150087Y0078137D01*
X0150087Y0078735D02*
X0149837Y0078735D01*
X0149837Y0079334D02*
X0150087Y0079334D01*
X0155362Y0079334D02*
X0159363Y0079334D01*
X0159363Y0079932D02*
X0155362Y0079932D01*
X0155362Y0080531D02*
X0159363Y0080531D01*
X0159363Y0081129D02*
X0155362Y0081129D01*
X0155362Y0081728D02*
X0159363Y0081728D01*
X0159363Y0082326D02*
X0155362Y0082326D01*
X0155362Y0082925D02*
X0159363Y0082925D01*
X0159363Y0083523D02*
X0155362Y0083523D01*
X0155362Y0084122D02*
X0159363Y0084122D01*
X0159363Y0084720D02*
X0155362Y0084720D01*
X0155362Y0085319D02*
X0159363Y0085319D01*
X0159363Y0085917D02*
X0155362Y0085917D01*
X0155362Y0086516D02*
X0159363Y0086516D01*
X0159363Y0087114D02*
X0155362Y0087114D01*
X0155362Y0087713D02*
X0159363Y0087713D01*
X0159363Y0088311D02*
X0155362Y0088311D01*
X0155362Y0088910D02*
X0159363Y0088910D01*
X0159363Y0089508D02*
X0155362Y0089508D01*
X0155362Y0090107D02*
X0159363Y0090107D01*
X0159363Y0090705D02*
X0155362Y0090705D01*
X0155362Y0091304D02*
X0159363Y0091304D01*
X0159363Y0091902D02*
X0155362Y0091902D01*
X0155362Y0092501D02*
X0159363Y0092501D01*
X0159363Y0093099D02*
X0155362Y0093099D01*
X0155362Y0093698D02*
X0159363Y0093698D01*
X0159363Y0094296D02*
X0155362Y0094296D01*
X0155362Y0094895D02*
X0159363Y0094895D01*
X0159363Y0095493D02*
X0155362Y0095493D01*
X0155362Y0096092D02*
X0159363Y0096092D01*
X0159363Y0096690D02*
X0155362Y0096690D01*
X0155362Y0097289D02*
X0159363Y0097289D01*
X0159363Y0097887D02*
X0155354Y0097887D01*
X0155362Y0097880D02*
X0152259Y0100983D01*
X0152962Y0101686D01*
X0152962Y0157880D01*
X0152259Y0158583D01*
X0143962Y0166880D01*
X0143962Y0169560D01*
X0144412Y0170010D01*
X0144412Y0177436D01*
X0145512Y0176336D01*
X0145512Y0170010D01*
X0146039Y0169483D01*
X0148885Y0169483D01*
X0149412Y0170010D01*
X0149412Y0178555D01*
X0148885Y0179083D01*
X0146159Y0179083D01*
X0145162Y0180080D01*
X0145162Y0186320D01*
X0145453Y0186320D01*
X0145980Y0186848D01*
X0145980Y0192318D01*
X0145453Y0192845D01*
X0141558Y0192845D01*
X0141030Y0192318D01*
X0141030Y0186848D01*
X0141558Y0186320D01*
X0142762Y0186320D01*
X0142762Y0179086D01*
X0142765Y0179083D01*
X0141039Y0179083D01*
X0140512Y0178555D01*
X0140512Y0170010D01*
X0141039Y0169483D01*
X0141562Y0169483D01*
X0141562Y0165886D01*
X0147765Y0159683D01*
X0146039Y0159683D01*
X0145899Y0159543D01*
X0137351Y0168091D01*
X0137351Y0169772D01*
X0137237Y0169886D01*
X0137237Y0174058D01*
X0135112Y0174058D01*
X0135112Y0171172D01*
X0134412Y0171172D01*
X0134412Y0178555D01*
X0133885Y0179083D01*
X0131039Y0179083D01*
X0130512Y0178555D01*
X0130512Y0174430D01*
X0124865Y0168783D01*
X0119962Y0168783D01*
X0119962Y0184280D01*
X0119259Y0184983D01*
X0118612Y0185630D01*
X0118612Y0186128D01*
X0118405Y0186335D01*
X0118612Y0186541D01*
X0118612Y0188687D01*
X0118085Y0189214D01*
X0115762Y0189214D01*
X0115762Y0198886D01*
X0118925Y0202049D01*
X0121102Y0202049D01*
X0121630Y0202576D01*
X0121630Y0206589D01*
X0121102Y0207117D01*
X0120562Y0207117D01*
X0120562Y0213183D01*
X0134697Y0213183D01*
X0135384Y0211524D01*
X0136903Y0210005D01*
X0138888Y0209183D01*
X0141036Y0209183D01*
X0143021Y0210005D01*
X0144540Y0211524D01*
X0145362Y0213509D01*
X0145362Y0215657D01*
X0144540Y0217642D01*
X0143021Y0219161D01*
X0141036Y0219983D01*
X0138888Y0219983D01*
X0136903Y0219161D01*
X0135384Y0217642D01*
X0134562Y0215657D01*
X0134562Y0215583D01*
X0120562Y0215583D01*
X0120562Y0216714D01*
X0120846Y0216714D01*
X0121374Y0217241D01*
X0121374Y0221924D01*
X0120846Y0222451D01*
X0117190Y0222451D01*
X0112059Y0227583D01*
X0102161Y0227583D01*
X0102161Y0229503D01*
X0101634Y0230030D01*
X0096164Y0230030D01*
X0095637Y0229503D01*
X0095637Y0224033D01*
X0096164Y0223506D01*
X0101634Y0223506D01*
X0102161Y0224033D01*
X0102161Y0225183D01*
X0111065Y0225183D01*
X0113396Y0222851D01*
X0111915Y0222851D01*
X0111915Y0219883D01*
X0111315Y0219883D01*
X0111315Y0222851D01*
X0109279Y0222851D01*
X0108948Y0222763D01*
X0108652Y0222591D01*
X0108410Y0222349D01*
X0108239Y0222053D01*
X0108150Y0221722D01*
X0108150Y0219883D01*
X0111315Y0219883D01*
X0111315Y0219283D01*
X0108150Y0219283D01*
X0108150Y0217443D01*
X0108239Y0217112D01*
X0108410Y0216816D01*
X0108652Y0216574D01*
X0108948Y0216403D01*
X0109279Y0216314D01*
X0111315Y0216314D01*
X0111315Y0219283D01*
X0111915Y0219283D01*
X0111915Y0216314D01*
X0113952Y0216314D01*
X0114282Y0216403D01*
X0114579Y0216574D01*
X0114821Y0216816D01*
X0114992Y0217112D01*
X0115081Y0217443D01*
X0115081Y0219283D01*
X0111915Y0219283D01*
X0111915Y0219883D01*
X0115081Y0219883D01*
X0115081Y0221167D01*
X0115243Y0221005D01*
X0115243Y0217241D01*
X0115770Y0216714D01*
X0118162Y0216714D01*
X0118162Y0207117D01*
X0117876Y0207117D01*
X0117349Y0206589D01*
X0117349Y0203867D01*
X0113362Y0199880D01*
X0113362Y0189214D01*
X0110739Y0189214D01*
X0110212Y0188687D01*
X0110212Y0186541D01*
X0110419Y0186335D01*
X0110212Y0186128D01*
X0110212Y0183982D01*
X0110419Y0183776D01*
X0110212Y0183569D01*
X0110212Y0181423D01*
X0110419Y0181217D01*
X0110212Y0181010D01*
X0110212Y0180230D01*
X0109162Y0181280D01*
X0109162Y0201649D01*
X0110134Y0201649D01*
X0110134Y0204283D01*
X0110734Y0204283D01*
X0110734Y0204883D01*
X0110134Y0204883D01*
X0110134Y0207517D01*
X0109162Y0207517D01*
X0109162Y0208880D01*
X0108459Y0209583D01*
X0094148Y0223894D01*
X0094287Y0224033D01*
X0094287Y0229503D01*
X0093760Y0230030D01*
X0088290Y0230030D01*
X0087763Y0229503D01*
X0087763Y0224033D01*
X0088290Y0223506D01*
X0091142Y0223506D01*
X0096921Y0217727D01*
X0091636Y0217727D01*
X0091109Y0217200D01*
X0091109Y0210155D01*
X0091636Y0209628D01*
X0098287Y0209628D01*
X0098815Y0210155D01*
X0098815Y0215833D01*
X0106762Y0207886D01*
X0106762Y0180286D01*
X0109762Y0177286D01*
X0110212Y0176836D01*
X0110212Y0176305D01*
X0110419Y0176098D01*
X0110212Y0175892D01*
X0110212Y0175430D01*
X0073300Y0212342D01*
X0074351Y0213393D01*
X0074351Y0215372D01*
X0072951Y0216772D01*
X0070972Y0216772D01*
X0070762Y0216561D01*
X0070762Y0217280D01*
X0067762Y0220280D01*
X0067420Y0220622D01*
X0067567Y0220683D01*
X0068861Y0221977D01*
X0069562Y0223668D01*
X0069562Y0225286D01*
X0089962Y0204886D01*
X0089962Y0202845D01*
X0089471Y0202845D01*
X0088944Y0202318D01*
X0088944Y0196848D01*
X0089471Y0196320D01*
X0093366Y0196320D01*
X0093893Y0196848D01*
X0093893Y0202318D01*
X0093366Y0202845D01*
X0092362Y0202845D01*
X0092362Y0205880D01*
X0068362Y0229880D01*
X0067998Y0230243D01*
X0127886Y0230243D01*
X0127649Y0230166D01*
X0126804Y0229736D01*
X0126037Y0229178D01*
X0125366Y0228508D01*
X0124809Y0227740D01*
X0124378Y0226895D01*
X0124085Y0225994D01*
X0123937Y0225057D01*
X0123937Y0224883D01*
X0129662Y0224883D01*
X0129662Y0224283D01*
X0123937Y0224283D01*
X0123937Y0224108D01*
X0124085Y0223172D01*
X0124378Y0222270D01*
X0124809Y0221425D01*
X0125366Y0220658D01*
X0126037Y0219987D01*
X0126804Y0219430D01*
X0127649Y0218999D01*
X0128551Y0218706D01*
X0129488Y0218558D01*
X0129662Y0218558D01*
X0129662Y0224283D01*
X0130262Y0224283D01*
X0130262Y0224883D01*
X0135987Y0224883D01*
X0135987Y0225057D01*
X0135838Y0225994D01*
X0135545Y0226895D01*
X0135115Y0227740D01*
X0134557Y0228508D01*
X0133887Y0229178D01*
X0133120Y0229736D01*
X0132275Y0230166D01*
X0132037Y0230243D01*
X0147886Y0230243D01*
X0147649Y0230166D01*
X0146804Y0229736D01*
X0146037Y0229178D01*
X0145366Y0228508D01*
X0144809Y0227740D01*
X0144378Y0226895D01*
X0144085Y0225994D01*
X0143937Y0225057D01*
X0143937Y0224883D01*
X0149662Y0224883D01*
X0149662Y0224283D01*
X0143937Y0224283D01*
X0143937Y0224108D01*
X0144085Y0223172D01*
X0144378Y0222270D01*
X0144809Y0221425D01*
X0145366Y0220658D01*
X0146037Y0219987D01*
X0146804Y0219430D01*
X0147649Y0218999D01*
X0148551Y0218706D01*
X0149488Y0218558D01*
X0149662Y0218558D01*
X0149662Y0224283D01*
X0150262Y0224283D01*
X0150262Y0224883D01*
X0155987Y0224883D01*
X0155987Y0225057D01*
X0155838Y0225994D01*
X0155545Y0226895D01*
X0155115Y0227740D01*
X0154557Y0228508D01*
X0153887Y0229178D01*
X0153120Y0229736D01*
X0152275Y0230166D01*
X0152037Y0230243D01*
X0159363Y0230243D01*
X0159363Y0063883D01*
X0151759Y0063883D01*
X0154659Y0066783D01*
X0155362Y0067486D01*
X0155362Y0097880D01*
X0154756Y0098486D02*
X0159363Y0098486D01*
X0159363Y0099084D02*
X0154157Y0099084D01*
X0153559Y0099683D02*
X0159363Y0099683D01*
X0159363Y0100281D02*
X0152960Y0100281D01*
X0152362Y0100880D02*
X0159363Y0100880D01*
X0159363Y0101478D02*
X0152755Y0101478D01*
X0152962Y0102077D02*
X0159363Y0102077D01*
X0159363Y0102675D02*
X0152962Y0102675D01*
X0152962Y0103274D02*
X0159363Y0103274D01*
X0159363Y0103873D02*
X0152962Y0103873D01*
X0152962Y0104471D02*
X0159363Y0104471D01*
X0159363Y0105070D02*
X0152962Y0105070D01*
X0152962Y0105668D02*
X0159363Y0105668D01*
X0159363Y0106267D02*
X0152962Y0106267D01*
X0152962Y0106865D02*
X0159363Y0106865D01*
X0159363Y0107464D02*
X0152962Y0107464D01*
X0152962Y0108062D02*
X0159363Y0108062D01*
X0159363Y0108661D02*
X0152962Y0108661D01*
X0152962Y0109259D02*
X0159363Y0109259D01*
X0159363Y0109858D02*
X0152962Y0109858D01*
X0152962Y0110456D02*
X0159363Y0110456D01*
X0159363Y0111055D02*
X0152962Y0111055D01*
X0152962Y0111653D02*
X0159363Y0111653D01*
X0159363Y0112252D02*
X0152962Y0112252D01*
X0152962Y0112850D02*
X0159363Y0112850D01*
X0159363Y0113449D02*
X0152962Y0113449D01*
X0152962Y0114047D02*
X0159363Y0114047D01*
X0159363Y0114646D02*
X0152962Y0114646D01*
X0152962Y0115244D02*
X0159363Y0115244D01*
X0159363Y0115843D02*
X0152962Y0115843D01*
X0152962Y0116441D02*
X0159363Y0116441D01*
X0159363Y0117040D02*
X0152962Y0117040D01*
X0152962Y0117638D02*
X0159363Y0117638D01*
X0159363Y0118237D02*
X0152962Y0118237D01*
X0152962Y0118835D02*
X0159363Y0118835D01*
X0159363Y0119434D02*
X0152962Y0119434D01*
X0152962Y0120032D02*
X0159363Y0120032D01*
X0159363Y0120631D02*
X0152962Y0120631D01*
X0152962Y0121229D02*
X0159363Y0121229D01*
X0159363Y0121828D02*
X0152962Y0121828D01*
X0152962Y0122426D02*
X0159363Y0122426D01*
X0159363Y0123025D02*
X0152962Y0123025D01*
X0152962Y0123623D02*
X0159363Y0123623D01*
X0159363Y0124222D02*
X0152962Y0124222D01*
X0152962Y0124820D02*
X0159363Y0124820D01*
X0159363Y0125419D02*
X0152962Y0125419D01*
X0152962Y0126017D02*
X0159363Y0126017D01*
X0159363Y0126616D02*
X0152962Y0126616D01*
X0152962Y0127214D02*
X0159363Y0127214D01*
X0159363Y0127813D02*
X0152962Y0127813D01*
X0152962Y0128411D02*
X0159363Y0128411D01*
X0159363Y0129010D02*
X0152962Y0129010D01*
X0152962Y0129609D02*
X0159363Y0129609D01*
X0159363Y0130207D02*
X0152962Y0130207D01*
X0152962Y0130806D02*
X0159363Y0130806D01*
X0159363Y0131404D02*
X0152962Y0131404D01*
X0152962Y0132003D02*
X0159363Y0132003D01*
X0159363Y0132601D02*
X0152962Y0132601D01*
X0152962Y0133200D02*
X0159363Y0133200D01*
X0159363Y0133798D02*
X0152962Y0133798D01*
X0152962Y0134397D02*
X0159363Y0134397D01*
X0159363Y0134995D02*
X0152962Y0134995D01*
X0152962Y0135594D02*
X0159363Y0135594D01*
X0159363Y0136192D02*
X0152962Y0136192D01*
X0152962Y0136791D02*
X0159363Y0136791D01*
X0159363Y0137389D02*
X0152962Y0137389D01*
X0152962Y0137988D02*
X0159363Y0137988D01*
X0159363Y0138586D02*
X0152962Y0138586D01*
X0152962Y0139185D02*
X0159363Y0139185D01*
X0159363Y0139783D02*
X0152962Y0139783D01*
X0152962Y0140382D02*
X0159363Y0140382D01*
X0159363Y0140980D02*
X0152962Y0140980D01*
X0152962Y0141579D02*
X0159363Y0141579D01*
X0159363Y0142177D02*
X0152962Y0142177D01*
X0152962Y0142776D02*
X0159363Y0142776D01*
X0159363Y0143374D02*
X0152962Y0143374D01*
X0152962Y0143973D02*
X0159363Y0143973D01*
X0159363Y0144571D02*
X0152962Y0144571D01*
X0152962Y0145170D02*
X0159363Y0145170D01*
X0159363Y0145768D02*
X0152962Y0145768D01*
X0152962Y0146367D02*
X0159363Y0146367D01*
X0159363Y0146965D02*
X0152962Y0146965D01*
X0152962Y0147564D02*
X0159363Y0147564D01*
X0159363Y0148162D02*
X0152962Y0148162D01*
X0152962Y0148761D02*
X0159363Y0148761D01*
X0159363Y0149359D02*
X0152962Y0149359D01*
X0152962Y0149958D02*
X0159363Y0149958D01*
X0159363Y0150556D02*
X0152962Y0150556D01*
X0152962Y0151155D02*
X0159363Y0151155D01*
X0159363Y0151753D02*
X0152962Y0151753D01*
X0152962Y0152352D02*
X0159363Y0152352D01*
X0159363Y0152950D02*
X0152962Y0152950D01*
X0152962Y0153549D02*
X0159363Y0153549D01*
X0159363Y0154147D02*
X0152962Y0154147D01*
X0152962Y0154746D02*
X0159363Y0154746D01*
X0159363Y0155344D02*
X0152962Y0155344D01*
X0152962Y0155943D02*
X0159363Y0155943D01*
X0159363Y0156542D02*
X0152962Y0156542D01*
X0152962Y0157140D02*
X0159363Y0157140D01*
X0159363Y0157739D02*
X0152962Y0157739D01*
X0152504Y0158337D02*
X0159363Y0158337D01*
X0159363Y0158936D02*
X0151906Y0158936D01*
X0151307Y0159534D02*
X0159363Y0159534D01*
X0159363Y0160133D02*
X0150709Y0160133D01*
X0150110Y0160731D02*
X0159363Y0160731D01*
X0159363Y0161330D02*
X0149512Y0161330D01*
X0148913Y0161928D02*
X0159363Y0161928D01*
X0159363Y0162527D02*
X0148315Y0162527D01*
X0147716Y0163125D02*
X0159363Y0163125D01*
X0159363Y0163724D02*
X0147118Y0163724D01*
X0146519Y0164322D02*
X0159363Y0164322D01*
X0159363Y0164921D02*
X0145921Y0164921D01*
X0145322Y0165519D02*
X0159363Y0165519D01*
X0159363Y0166118D02*
X0144724Y0166118D01*
X0144125Y0166716D02*
X0159363Y0166716D01*
X0159363Y0167315D02*
X0143962Y0167315D01*
X0143962Y0167913D02*
X0159363Y0167913D01*
X0159363Y0168512D02*
X0143962Y0168512D01*
X0143962Y0169110D02*
X0159363Y0169110D01*
X0159363Y0169709D02*
X0149111Y0169709D01*
X0149412Y0170307D02*
X0159363Y0170307D01*
X0159363Y0170906D02*
X0149412Y0170906D01*
X0149412Y0171504D02*
X0159363Y0171504D01*
X0159363Y0172103D02*
X0149412Y0172103D01*
X0149412Y0172701D02*
X0159363Y0172701D01*
X0159363Y0173300D02*
X0149412Y0173300D01*
X0149412Y0173898D02*
X0159363Y0173898D01*
X0159363Y0174497D02*
X0149412Y0174497D01*
X0149412Y0175095D02*
X0159363Y0175095D01*
X0159363Y0175694D02*
X0149412Y0175694D01*
X0149412Y0176292D02*
X0159363Y0176292D01*
X0159363Y0176891D02*
X0149412Y0176891D01*
X0149412Y0177489D02*
X0159363Y0177489D01*
X0159363Y0178088D02*
X0149412Y0178088D01*
X0149281Y0178686D02*
X0159363Y0178686D01*
X0159363Y0179285D02*
X0145957Y0179285D01*
X0145358Y0179883D02*
X0159363Y0179883D01*
X0159363Y0180482D02*
X0145162Y0180482D01*
X0145162Y0181080D02*
X0159363Y0181080D01*
X0159363Y0181679D02*
X0145162Y0181679D01*
X0145162Y0182277D02*
X0159363Y0182277D01*
X0159363Y0182876D02*
X0145162Y0182876D01*
X0145162Y0183475D02*
X0159363Y0183475D01*
X0159363Y0184073D02*
X0145162Y0184073D01*
X0145162Y0184672D02*
X0159363Y0184672D01*
X0159363Y0185270D02*
X0145162Y0185270D01*
X0145162Y0185869D02*
X0159363Y0185869D01*
X0159363Y0186467D02*
X0145599Y0186467D01*
X0145980Y0187066D02*
X0159363Y0187066D01*
X0159363Y0187664D02*
X0145980Y0187664D01*
X0145980Y0188263D02*
X0159363Y0188263D01*
X0159363Y0188861D02*
X0145980Y0188861D01*
X0145980Y0189460D02*
X0159363Y0189460D01*
X0159363Y0190058D02*
X0145980Y0190058D01*
X0145980Y0190657D02*
X0159363Y0190657D01*
X0159363Y0191255D02*
X0145980Y0191255D01*
X0145980Y0191854D02*
X0159363Y0191854D01*
X0159363Y0192452D02*
X0145845Y0192452D01*
X0143505Y0189583D02*
X0143962Y0189183D01*
X0143962Y0179583D01*
X0146962Y0176583D01*
X0146962Y0174783D01*
X0147462Y0174283D01*
X0145512Y0174497D02*
X0144412Y0174497D01*
X0144412Y0175095D02*
X0145512Y0175095D01*
X0145512Y0175694D02*
X0144412Y0175694D01*
X0144412Y0176292D02*
X0145512Y0176292D01*
X0144957Y0176891D02*
X0144412Y0176891D01*
X0142762Y0179285D02*
X0139203Y0179285D01*
X0139310Y0179223D02*
X0139014Y0179394D01*
X0138683Y0179483D01*
X0137687Y0179483D01*
X0137687Y0174508D01*
X0137237Y0174508D01*
X0137237Y0179483D01*
X0136241Y0179483D01*
X0135910Y0179394D01*
X0135614Y0179223D01*
X0135372Y0178981D01*
X0135200Y0178684D01*
X0135112Y0178354D01*
X0135112Y0174508D01*
X0137237Y0174508D01*
X0137237Y0174058D01*
X0137687Y0174058D01*
X0137687Y0174508D01*
X0139812Y0174508D01*
X0139812Y0178354D01*
X0139723Y0178684D01*
X0139552Y0178981D01*
X0139310Y0179223D01*
X0139722Y0178686D02*
X0140643Y0178686D01*
X0140512Y0178088D02*
X0139812Y0178088D01*
X0139812Y0177489D02*
X0140512Y0177489D01*
X0140512Y0176891D02*
X0139812Y0176891D01*
X0139812Y0176292D02*
X0140512Y0176292D01*
X0140512Y0175694D02*
X0139812Y0175694D01*
X0139812Y0175095D02*
X0140512Y0175095D01*
X0140512Y0174497D02*
X0137687Y0174497D01*
X0137687Y0174058D02*
X0139812Y0174058D01*
X0139812Y0170212D01*
X0139723Y0169881D01*
X0139552Y0169584D01*
X0139310Y0169342D01*
X0139014Y0169171D01*
X0138683Y0169083D01*
X0137687Y0169083D01*
X0137687Y0174058D01*
X0137687Y0173898D02*
X0137237Y0173898D01*
X0137237Y0173300D02*
X0137687Y0173300D01*
X0137687Y0172701D02*
X0137237Y0172701D01*
X0137237Y0172103D02*
X0137687Y0172103D01*
X0137687Y0171504D02*
X0137237Y0171504D01*
X0137237Y0170906D02*
X0137687Y0170906D01*
X0137687Y0170307D02*
X0137237Y0170307D01*
X0137351Y0169709D02*
X0137687Y0169709D01*
X0137687Y0169110D02*
X0137351Y0169110D01*
X0137351Y0168512D02*
X0141562Y0168512D01*
X0141562Y0169110D02*
X0138786Y0169110D01*
X0139624Y0169709D02*
X0140813Y0169709D01*
X0140512Y0170307D02*
X0139812Y0170307D01*
X0139812Y0170906D02*
X0140512Y0170906D01*
X0140512Y0171504D02*
X0139812Y0171504D01*
X0139812Y0172103D02*
X0140512Y0172103D01*
X0140512Y0172701D02*
X0139812Y0172701D01*
X0139812Y0173300D02*
X0140512Y0173300D01*
X0140512Y0173898D02*
X0139812Y0173898D01*
X0137687Y0175095D02*
X0137237Y0175095D01*
X0137237Y0174497D02*
X0134412Y0174497D01*
X0134412Y0175095D02*
X0135112Y0175095D01*
X0135112Y0175694D02*
X0134412Y0175694D01*
X0134412Y0176292D02*
X0135112Y0176292D01*
X0135112Y0176891D02*
X0134412Y0176891D01*
X0134412Y0177489D02*
X0135112Y0177489D01*
X0135112Y0178088D02*
X0134412Y0178088D01*
X0134281Y0178686D02*
X0135202Y0178686D01*
X0135721Y0179285D02*
X0119962Y0179285D01*
X0119962Y0179883D02*
X0142762Y0179883D01*
X0142762Y0180482D02*
X0119962Y0180482D01*
X0119962Y0181080D02*
X0142762Y0181080D01*
X0142762Y0181679D02*
X0119962Y0181679D01*
X0119962Y0182277D02*
X0142762Y0182277D01*
X0142762Y0182876D02*
X0119962Y0182876D01*
X0119962Y0183475D02*
X0142762Y0183475D01*
X0142762Y0184073D02*
X0119962Y0184073D01*
X0119570Y0184672D02*
X0142762Y0184672D01*
X0142762Y0185270D02*
X0118971Y0185270D01*
X0118612Y0185869D02*
X0142762Y0185869D01*
X0141411Y0186467D02*
X0139059Y0186467D01*
X0139034Y0186422D02*
X0139205Y0186719D01*
X0139293Y0187049D01*
X0139293Y0189283D01*
X0136719Y0189283D01*
X0136719Y0189883D01*
X0139293Y0189883D01*
X0139293Y0192116D01*
X0139205Y0192447D01*
X0139034Y0192743D01*
X0138792Y0192985D01*
X0138495Y0193156D01*
X0138164Y0193245D01*
X0136718Y0193245D01*
X0136718Y0189883D01*
X0136119Y0189883D01*
X0136119Y0193245D01*
X0134673Y0193245D01*
X0134342Y0193156D01*
X0134045Y0192985D01*
X0133803Y0192743D01*
X0133632Y0192447D01*
X0133544Y0192116D01*
X0133544Y0189883D01*
X0136118Y0189883D01*
X0136118Y0189283D01*
X0133544Y0189283D01*
X0133544Y0187049D01*
X0133632Y0186719D01*
X0133803Y0186422D01*
X0134045Y0186180D01*
X0134342Y0186009D01*
X0134673Y0185920D01*
X0136119Y0185920D01*
X0136119Y0189283D01*
X0136718Y0189283D01*
X0136718Y0185920D01*
X0138164Y0185920D01*
X0138495Y0186009D01*
X0138792Y0186180D01*
X0139034Y0186422D01*
X0139293Y0187066D02*
X0141030Y0187066D01*
X0141030Y0187664D02*
X0139293Y0187664D01*
X0139293Y0188263D02*
X0141030Y0188263D01*
X0141030Y0188861D02*
X0139293Y0188861D01*
X0139293Y0190058D02*
X0141030Y0190058D01*
X0141030Y0189460D02*
X0136719Y0189460D01*
X0136718Y0190058D02*
X0136119Y0190058D01*
X0136118Y0189460D02*
X0115762Y0189460D01*
X0115762Y0190058D02*
X0133544Y0190058D01*
X0133544Y0190657D02*
X0115762Y0190657D01*
X0115762Y0191255D02*
X0133544Y0191255D01*
X0133544Y0191854D02*
X0115762Y0191854D01*
X0115762Y0192452D02*
X0133635Y0192452D01*
X0134159Y0193051D02*
X0115762Y0193051D01*
X0115762Y0193649D02*
X0159363Y0193649D01*
X0159363Y0193051D02*
X0138678Y0193051D01*
X0139202Y0192452D02*
X0141165Y0192452D01*
X0141030Y0191854D02*
X0139293Y0191854D01*
X0139293Y0191255D02*
X0141030Y0191255D01*
X0141030Y0190657D02*
X0139293Y0190657D01*
X0136718Y0190657D02*
X0136119Y0190657D01*
X0136119Y0191255D02*
X0136718Y0191255D01*
X0136718Y0191854D02*
X0136119Y0191854D01*
X0136119Y0192452D02*
X0136718Y0192452D01*
X0136718Y0193051D02*
X0136119Y0193051D01*
X0136119Y0188861D02*
X0136718Y0188861D01*
X0136718Y0188263D02*
X0136119Y0188263D01*
X0136119Y0187664D02*
X0136718Y0187664D01*
X0136718Y0187066D02*
X0136119Y0187066D01*
X0136119Y0186467D02*
X0136718Y0186467D01*
X0133778Y0186467D02*
X0118537Y0186467D01*
X0118612Y0187066D02*
X0133544Y0187066D01*
X0133544Y0187664D02*
X0118612Y0187664D01*
X0118612Y0188263D02*
X0133544Y0188263D01*
X0133544Y0188861D02*
X0118438Y0188861D01*
X0114562Y0187983D02*
X0114412Y0187614D01*
X0114562Y0187983D02*
X0114562Y0199383D01*
X0119362Y0204183D01*
X0119489Y0204583D01*
X0119362Y0204783D01*
X0119362Y0214383D01*
X0139762Y0214383D01*
X0139962Y0214583D01*
X0134867Y0216393D02*
X0120562Y0216393D01*
X0120562Y0215794D02*
X0134619Y0215794D01*
X0135115Y0216991D02*
X0121123Y0216991D01*
X0121374Y0217590D02*
X0135362Y0217590D01*
X0135931Y0218188D02*
X0121374Y0218188D01*
X0121374Y0218787D02*
X0128303Y0218787D01*
X0129662Y0218787D02*
X0130262Y0218787D01*
X0130262Y0218558D02*
X0130436Y0218558D01*
X0131373Y0218706D01*
X0132275Y0218999D01*
X0133120Y0219430D01*
X0133887Y0219987D01*
X0134557Y0220658D01*
X0135115Y0221425D01*
X0135545Y0222270D01*
X0135838Y0223172D01*
X0135987Y0224108D01*
X0135987Y0224283D01*
X0130262Y0224283D01*
X0130262Y0218558D01*
X0130262Y0219385D02*
X0129662Y0219385D01*
X0129662Y0219984D02*
X0130262Y0219984D01*
X0130262Y0220582D02*
X0129662Y0220582D01*
X0129662Y0221181D02*
X0130262Y0221181D01*
X0130262Y0221779D02*
X0129662Y0221779D01*
X0129662Y0222378D02*
X0130262Y0222378D01*
X0130262Y0222976D02*
X0129662Y0222976D01*
X0129662Y0223575D02*
X0130262Y0223575D01*
X0130262Y0224173D02*
X0129662Y0224173D01*
X0129662Y0224772D02*
X0114870Y0224772D01*
X0115468Y0224173D02*
X0123937Y0224173D01*
X0124021Y0223575D02*
X0116067Y0223575D01*
X0116665Y0222976D02*
X0124149Y0222976D01*
X0124343Y0222378D02*
X0120920Y0222378D01*
X0121374Y0221779D02*
X0124628Y0221779D01*
X0124986Y0221181D02*
X0121374Y0221181D01*
X0121374Y0220582D02*
X0125442Y0220582D01*
X0126041Y0219984D02*
X0121374Y0219984D01*
X0121374Y0219385D02*
X0126891Y0219385D01*
X0130262Y0224772D02*
X0149662Y0224772D01*
X0149662Y0224173D02*
X0150262Y0224173D01*
X0150262Y0224283D02*
X0150262Y0218558D01*
X0150436Y0218558D01*
X0151373Y0218706D01*
X0152275Y0218999D01*
X0153120Y0219430D01*
X0153887Y0219987D01*
X0154557Y0220658D01*
X0155115Y0221425D01*
X0155545Y0222270D01*
X0155838Y0223172D01*
X0155987Y0224108D01*
X0155987Y0224283D01*
X0150262Y0224283D01*
X0150262Y0224772D02*
X0159363Y0224772D01*
X0159363Y0225370D02*
X0155937Y0225370D01*
X0155842Y0225969D02*
X0159363Y0225969D01*
X0159363Y0226567D02*
X0155652Y0226567D01*
X0155408Y0227166D02*
X0159363Y0227166D01*
X0159363Y0227764D02*
X0155097Y0227764D01*
X0154663Y0228363D02*
X0159363Y0228363D01*
X0159363Y0228961D02*
X0154104Y0228961D01*
X0153362Y0229560D02*
X0159363Y0229560D01*
X0159363Y0230158D02*
X0152290Y0230158D01*
X0150262Y0223575D02*
X0149662Y0223575D01*
X0149662Y0222976D02*
X0150262Y0222976D01*
X0150262Y0222378D02*
X0149662Y0222378D01*
X0149662Y0221779D02*
X0150262Y0221779D01*
X0150262Y0221181D02*
X0149662Y0221181D01*
X0149662Y0220582D02*
X0150262Y0220582D01*
X0150262Y0219984D02*
X0149662Y0219984D01*
X0149662Y0219385D02*
X0150262Y0219385D01*
X0150262Y0218787D02*
X0149662Y0218787D01*
X0148303Y0218787D02*
X0143395Y0218787D01*
X0143993Y0218188D02*
X0159363Y0218188D01*
X0159363Y0217590D02*
X0144561Y0217590D01*
X0144809Y0216991D02*
X0159363Y0216991D01*
X0159363Y0216393D02*
X0145057Y0216393D01*
X0145305Y0215794D02*
X0159363Y0215794D01*
X0159363Y0215196D02*
X0145362Y0215196D01*
X0145362Y0214597D02*
X0159363Y0214597D01*
X0159363Y0213999D02*
X0145362Y0213999D01*
X0145317Y0213400D02*
X0159363Y0213400D01*
X0159363Y0212802D02*
X0145069Y0212802D01*
X0144821Y0212203D02*
X0159363Y0212203D01*
X0159363Y0211605D02*
X0144573Y0211605D01*
X0144022Y0211006D02*
X0159363Y0211006D01*
X0159363Y0210408D02*
X0151532Y0210408D01*
X0151373Y0210459D02*
X0152275Y0210166D01*
X0153120Y0209736D01*
X0153887Y0209178D01*
X0154557Y0208508D01*
X0155115Y0207740D01*
X0155545Y0206895D01*
X0155838Y0205994D01*
X0155987Y0205057D01*
X0155987Y0204883D01*
X0150262Y0204883D01*
X0149662Y0204883D01*
X0149662Y0210608D01*
X0149488Y0210608D01*
X0148551Y0210459D01*
X0147649Y0210166D01*
X0146804Y0209736D01*
X0146037Y0209178D01*
X0145366Y0208508D01*
X0144809Y0207740D01*
X0144378Y0206895D01*
X0144085Y0205994D01*
X0143937Y0205057D01*
X0143937Y0204883D01*
X0149662Y0204883D01*
X0149662Y0204283D01*
X0143937Y0204283D01*
X0143937Y0204108D01*
X0144085Y0203172D01*
X0144378Y0202270D01*
X0144809Y0201425D01*
X0145366Y0200658D01*
X0146037Y0199987D01*
X0146804Y0199430D01*
X0147649Y0198999D01*
X0148551Y0198706D01*
X0149488Y0198558D01*
X0149662Y0198558D01*
X0149662Y0204283D01*
X0150262Y0204283D01*
X0150262Y0204883D01*
X0150262Y0210608D01*
X0150436Y0210608D01*
X0151373Y0210459D01*
X0150262Y0210408D02*
X0149662Y0210408D01*
X0149662Y0209809D02*
X0150262Y0209809D01*
X0150262Y0209211D02*
X0149662Y0209211D01*
X0149662Y0208612D02*
X0150262Y0208612D01*
X0150262Y0208013D02*
X0149662Y0208013D01*
X0149662Y0207415D02*
X0150262Y0207415D01*
X0150262Y0206816D02*
X0149662Y0206816D01*
X0149662Y0206218D02*
X0150262Y0206218D01*
X0150262Y0205619D02*
X0149662Y0205619D01*
X0149662Y0205021D02*
X0150262Y0205021D01*
X0150262Y0204422D02*
X0159363Y0204422D01*
X0159363Y0203824D02*
X0155942Y0203824D01*
X0155987Y0204108D02*
X0155987Y0204283D01*
X0150262Y0204283D01*
X0150262Y0198558D01*
X0150436Y0198558D01*
X0151373Y0198706D01*
X0152275Y0198999D01*
X0153120Y0199430D01*
X0153887Y0199987D01*
X0154557Y0200658D01*
X0155115Y0201425D01*
X0155545Y0202270D01*
X0155838Y0203172D01*
X0155987Y0204108D01*
X0155847Y0203225D02*
X0159363Y0203225D01*
X0159363Y0202627D02*
X0155661Y0202627D01*
X0155422Y0202028D02*
X0159363Y0202028D01*
X0159363Y0201430D02*
X0155117Y0201430D01*
X0154684Y0200831D02*
X0159363Y0200831D01*
X0159363Y0200233D02*
X0154133Y0200233D01*
X0153401Y0199634D02*
X0159363Y0199634D01*
X0159363Y0199036D02*
X0152347Y0199036D01*
X0150262Y0199036D02*
X0149662Y0199036D01*
X0149662Y0199634D02*
X0150262Y0199634D01*
X0150262Y0200233D02*
X0149662Y0200233D01*
X0149662Y0200831D02*
X0150262Y0200831D01*
X0150262Y0201430D02*
X0149662Y0201430D01*
X0149662Y0202028D02*
X0150262Y0202028D01*
X0150262Y0202627D02*
X0149662Y0202627D01*
X0149662Y0203225D02*
X0150262Y0203225D01*
X0150262Y0203824D02*
X0149662Y0203824D01*
X0149662Y0204422D02*
X0130262Y0204422D01*
X0130262Y0204283D02*
X0130262Y0204883D01*
X0129662Y0204883D01*
X0129662Y0210608D01*
X0129488Y0210608D01*
X0128551Y0210459D01*
X0127649Y0210166D01*
X0126804Y0209736D01*
X0126037Y0209178D01*
X0125366Y0208508D01*
X0124809Y0207740D01*
X0124378Y0206895D01*
X0124085Y0205994D01*
X0123937Y0205057D01*
X0123937Y0204883D01*
X0129662Y0204883D01*
X0129662Y0204283D01*
X0123937Y0204283D01*
X0123937Y0204108D01*
X0124085Y0203172D01*
X0124378Y0202270D01*
X0124809Y0201425D01*
X0125366Y0200658D01*
X0126037Y0199987D01*
X0126804Y0199430D01*
X0127649Y0198999D01*
X0128551Y0198706D01*
X0129488Y0198558D01*
X0129662Y0198558D01*
X0129662Y0204283D01*
X0130262Y0204283D01*
X0135987Y0204283D01*
X0135987Y0204108D01*
X0135838Y0203172D01*
X0135545Y0202270D01*
X0135115Y0201425D01*
X0134557Y0200658D01*
X0133887Y0199987D01*
X0133120Y0199430D01*
X0132275Y0198999D01*
X0131373Y0198706D01*
X0130436Y0198558D01*
X0130262Y0198558D01*
X0130262Y0204283D01*
X0130262Y0203824D02*
X0129662Y0203824D01*
X0129662Y0204422D02*
X0121630Y0204422D01*
X0121630Y0203824D02*
X0123982Y0203824D01*
X0124077Y0203225D02*
X0121630Y0203225D01*
X0121630Y0202627D02*
X0124262Y0202627D01*
X0124501Y0202028D02*
X0118905Y0202028D01*
X0118306Y0201430D02*
X0124806Y0201430D01*
X0125240Y0200831D02*
X0117708Y0200831D01*
X0117109Y0200233D02*
X0125791Y0200233D01*
X0126522Y0199634D02*
X0116511Y0199634D01*
X0115912Y0199036D02*
X0127577Y0199036D01*
X0129662Y0199036D02*
X0130262Y0199036D01*
X0130262Y0199634D02*
X0129662Y0199634D01*
X0129662Y0200233D02*
X0130262Y0200233D01*
X0130262Y0200831D02*
X0129662Y0200831D01*
X0129662Y0201430D02*
X0130262Y0201430D01*
X0130262Y0202028D02*
X0129662Y0202028D01*
X0129662Y0202627D02*
X0130262Y0202627D01*
X0130262Y0203225D02*
X0129662Y0203225D01*
X0130262Y0204883D02*
X0135987Y0204883D01*
X0135987Y0205057D01*
X0135838Y0205994D01*
X0135545Y0206895D01*
X0135115Y0207740D01*
X0134557Y0208508D01*
X0133887Y0209178D01*
X0133120Y0209736D01*
X0132275Y0210166D01*
X0131373Y0210459D01*
X0130436Y0210608D01*
X0130262Y0210608D01*
X0130262Y0204883D01*
X0130262Y0205021D02*
X0129662Y0205021D01*
X0129662Y0205619D02*
X0130262Y0205619D01*
X0130262Y0206218D02*
X0129662Y0206218D01*
X0129662Y0206816D02*
X0130262Y0206816D01*
X0130262Y0207415D02*
X0129662Y0207415D01*
X0129662Y0208013D02*
X0130262Y0208013D01*
X0130262Y0208612D02*
X0129662Y0208612D01*
X0129662Y0209211D02*
X0130262Y0209211D01*
X0130262Y0209809D02*
X0129662Y0209809D01*
X0129662Y0210408D02*
X0130262Y0210408D01*
X0131532Y0210408D02*
X0136500Y0210408D01*
X0135902Y0211006D02*
X0120562Y0211006D01*
X0120562Y0210408D02*
X0128392Y0210408D01*
X0126948Y0209809D02*
X0120562Y0209809D01*
X0120562Y0209211D02*
X0126081Y0209211D01*
X0125470Y0208612D02*
X0120562Y0208612D01*
X0120562Y0208013D02*
X0125007Y0208013D01*
X0124643Y0207415D02*
X0120562Y0207415D01*
X0121402Y0206816D02*
X0124353Y0206816D01*
X0124158Y0206218D02*
X0121630Y0206218D01*
X0121630Y0205619D02*
X0124026Y0205619D01*
X0123937Y0205021D02*
X0121630Y0205021D01*
X0118162Y0207415D02*
X0112199Y0207415D01*
X0112176Y0207428D02*
X0112473Y0207257D01*
X0112715Y0207015D01*
X0112886Y0206718D01*
X0112974Y0206388D01*
X0112974Y0204883D01*
X0110734Y0204883D01*
X0110734Y0207517D01*
X0111846Y0207517D01*
X0112176Y0207428D01*
X0112829Y0206816D02*
X0117576Y0206816D01*
X0117349Y0206218D02*
X0112974Y0206218D01*
X0112974Y0205619D02*
X0117349Y0205619D01*
X0117349Y0205021D02*
X0112974Y0205021D01*
X0112974Y0204283D02*
X0110734Y0204283D01*
X0110734Y0201649D01*
X0111846Y0201649D01*
X0112176Y0201737D01*
X0112473Y0201909D01*
X0112715Y0202151D01*
X0112886Y0202447D01*
X0112974Y0202778D01*
X0112974Y0204283D01*
X0112974Y0203824D02*
X0117306Y0203824D01*
X0117349Y0204422D02*
X0110734Y0204422D01*
X0110734Y0203824D02*
X0110134Y0203824D01*
X0110134Y0203225D02*
X0110734Y0203225D01*
X0110734Y0202627D02*
X0110134Y0202627D01*
X0110134Y0202028D02*
X0110734Y0202028D01*
X0109162Y0201430D02*
X0114912Y0201430D01*
X0115510Y0202028D02*
X0112592Y0202028D01*
X0112934Y0202627D02*
X0116109Y0202627D01*
X0116707Y0203225D02*
X0112974Y0203225D01*
X0114313Y0200831D02*
X0109162Y0200831D01*
X0109162Y0200233D02*
X0113715Y0200233D01*
X0113362Y0199634D02*
X0109162Y0199634D01*
X0109162Y0199036D02*
X0113362Y0199036D01*
X0113362Y0198437D02*
X0109162Y0198437D01*
X0109162Y0197839D02*
X0113362Y0197839D01*
X0113362Y0197240D02*
X0109162Y0197240D01*
X0109162Y0196642D02*
X0113362Y0196642D01*
X0113362Y0196043D02*
X0109162Y0196043D01*
X0109162Y0195445D02*
X0113362Y0195445D01*
X0113362Y0194846D02*
X0109162Y0194846D01*
X0109162Y0194248D02*
X0113362Y0194248D01*
X0113362Y0193649D02*
X0109162Y0193649D01*
X0109162Y0193051D02*
X0113362Y0193051D01*
X0113362Y0192452D02*
X0109162Y0192452D01*
X0109162Y0191854D02*
X0113362Y0191854D01*
X0113362Y0191255D02*
X0109162Y0191255D01*
X0109162Y0190657D02*
X0113362Y0190657D01*
X0113362Y0190058D02*
X0109162Y0190058D01*
X0109162Y0189460D02*
X0113362Y0189460D01*
X0110386Y0188861D02*
X0109162Y0188861D01*
X0109162Y0188263D02*
X0110212Y0188263D01*
X0110212Y0187664D02*
X0109162Y0187664D01*
X0109162Y0187066D02*
X0110212Y0187066D01*
X0110286Y0186467D02*
X0109162Y0186467D01*
X0109162Y0185869D02*
X0110212Y0185869D01*
X0110212Y0185270D02*
X0109162Y0185270D01*
X0109162Y0184672D02*
X0110212Y0184672D01*
X0110212Y0184073D02*
X0109162Y0184073D01*
X0109162Y0183475D02*
X0110212Y0183475D01*
X0110212Y0182876D02*
X0109162Y0182876D01*
X0109162Y0182277D02*
X0110212Y0182277D01*
X0110212Y0181679D02*
X0109162Y0181679D01*
X0109361Y0181080D02*
X0110283Y0181080D01*
X0110212Y0180482D02*
X0109960Y0180482D01*
X0107962Y0180783D02*
X0110962Y0177783D01*
X0113962Y0177783D01*
X0114412Y0177378D01*
X0113962Y0172383D02*
X0111562Y0172383D01*
X0071962Y0211983D01*
X0071962Y0214383D01*
X0073759Y0212802D02*
X0082046Y0212802D01*
X0081447Y0213400D02*
X0074351Y0213400D01*
X0074351Y0213999D02*
X0080849Y0213999D01*
X0080250Y0214597D02*
X0074351Y0214597D01*
X0074351Y0215196D02*
X0079652Y0215196D01*
X0079053Y0215794D02*
X0073929Y0215794D01*
X0073330Y0216393D02*
X0078455Y0216393D01*
X0077856Y0216991D02*
X0070762Y0216991D01*
X0070452Y0217590D02*
X0077258Y0217590D01*
X0076659Y0218188D02*
X0069853Y0218188D01*
X0069255Y0218787D02*
X0076061Y0218787D01*
X0075462Y0219385D02*
X0068656Y0219385D01*
X0068058Y0219984D02*
X0074864Y0219984D01*
X0074265Y0220582D02*
X0067459Y0220582D01*
X0068065Y0221181D02*
X0073667Y0221181D01*
X0073068Y0221779D02*
X0068664Y0221779D01*
X0069027Y0222378D02*
X0072470Y0222378D01*
X0071871Y0222976D02*
X0069275Y0222976D01*
X0069523Y0223575D02*
X0071273Y0223575D01*
X0070674Y0224173D02*
X0069562Y0224173D01*
X0069562Y0224772D02*
X0070076Y0224772D01*
X0071674Y0226567D02*
X0087763Y0226567D01*
X0087763Y0225969D02*
X0072273Y0225969D01*
X0072871Y0225370D02*
X0087763Y0225370D01*
X0087763Y0224772D02*
X0073470Y0224772D01*
X0074068Y0224173D02*
X0087763Y0224173D01*
X0088221Y0223575D02*
X0074667Y0223575D01*
X0075265Y0222976D02*
X0091671Y0222976D01*
X0092270Y0222378D02*
X0075864Y0222378D01*
X0076462Y0221779D02*
X0092868Y0221779D01*
X0093467Y0221181D02*
X0077061Y0221181D01*
X0077659Y0220582D02*
X0094065Y0220582D01*
X0094664Y0219984D02*
X0078258Y0219984D01*
X0078856Y0219385D02*
X0095262Y0219385D01*
X0095861Y0218787D02*
X0079455Y0218787D01*
X0080053Y0218188D02*
X0096459Y0218188D01*
X0098058Y0219984D02*
X0108150Y0219984D01*
X0108150Y0220582D02*
X0097459Y0220582D01*
X0096861Y0221181D02*
X0108150Y0221181D01*
X0108165Y0221779D02*
X0096262Y0221779D01*
X0095664Y0222378D02*
X0108438Y0222378D01*
X0108150Y0218787D02*
X0099255Y0218787D01*
X0098656Y0219385D02*
X0111315Y0219385D01*
X0111315Y0218787D02*
X0111915Y0218787D01*
X0111915Y0219385D02*
X0115243Y0219385D01*
X0115243Y0218787D02*
X0115081Y0218787D01*
X0115081Y0218188D02*
X0115243Y0218188D01*
X0115243Y0217590D02*
X0115081Y0217590D01*
X0114922Y0216991D02*
X0115493Y0216991D01*
X0114245Y0216393D02*
X0118162Y0216393D01*
X0118162Y0215794D02*
X0102247Y0215794D01*
X0101649Y0216393D02*
X0108986Y0216393D01*
X0108309Y0216991D02*
X0101050Y0216991D01*
X0100452Y0217590D02*
X0108150Y0217590D01*
X0108150Y0218188D02*
X0099853Y0218188D01*
X0098853Y0215794D02*
X0098815Y0215794D01*
X0098815Y0215196D02*
X0099452Y0215196D01*
X0100050Y0214597D02*
X0098815Y0214597D01*
X0098815Y0213999D02*
X0100649Y0213999D01*
X0101247Y0213400D02*
X0098815Y0213400D01*
X0098815Y0212802D02*
X0101846Y0212802D01*
X0102444Y0212203D02*
X0098815Y0212203D01*
X0098815Y0211605D02*
X0103043Y0211605D01*
X0103641Y0211006D02*
X0098815Y0211006D01*
X0098815Y0210408D02*
X0104240Y0210408D01*
X0104838Y0209809D02*
X0098469Y0209809D01*
X0098205Y0203245D02*
X0096759Y0203245D01*
X0096429Y0203156D01*
X0096132Y0202985D01*
X0095890Y0202743D01*
X0095719Y0202447D01*
X0095630Y0202116D01*
X0095630Y0199883D01*
X0098205Y0199883D01*
X0098205Y0203245D01*
X0098205Y0203225D02*
X0098805Y0203225D01*
X0098805Y0203245D02*
X0100251Y0203245D01*
X0100582Y0203156D01*
X0100878Y0202985D01*
X0101120Y0202743D01*
X0101291Y0202447D01*
X0101380Y0202116D01*
X0101380Y0199883D01*
X0098805Y0199883D01*
X0098205Y0199883D01*
X0098205Y0199283D01*
X0095630Y0199283D01*
X0095630Y0197049D01*
X0095719Y0196719D01*
X0095890Y0196422D01*
X0096132Y0196180D01*
X0096429Y0196009D01*
X0096759Y0195920D01*
X0098205Y0195920D01*
X0098205Y0199283D01*
X0098805Y0199283D01*
X0098805Y0199883D01*
X0098805Y0203245D01*
X0098805Y0202627D02*
X0098205Y0202627D01*
X0098205Y0202028D02*
X0098805Y0202028D01*
X0098805Y0201430D02*
X0098205Y0201430D01*
X0098205Y0200831D02*
X0098805Y0200831D01*
X0098805Y0200233D02*
X0098205Y0200233D01*
X0098205Y0199634D02*
X0093893Y0199634D01*
X0093893Y0199036D02*
X0095630Y0199036D01*
X0095630Y0198437D02*
X0093893Y0198437D01*
X0093893Y0197839D02*
X0095630Y0197839D01*
X0095630Y0197240D02*
X0093893Y0197240D01*
X0093687Y0196642D02*
X0095763Y0196642D01*
X0096369Y0196043D02*
X0089598Y0196043D01*
X0089150Y0196642D02*
X0089000Y0196642D01*
X0088944Y0197240D02*
X0088401Y0197240D01*
X0088944Y0197839D02*
X0087803Y0197839D01*
X0087204Y0198437D02*
X0088944Y0198437D01*
X0088944Y0199036D02*
X0086606Y0199036D01*
X0086007Y0199634D02*
X0088944Y0199634D01*
X0088944Y0200233D02*
X0085409Y0200233D01*
X0084810Y0200831D02*
X0088944Y0200831D01*
X0088944Y0201430D02*
X0084212Y0201430D01*
X0083613Y0202028D02*
X0088944Y0202028D01*
X0089253Y0202627D02*
X0083015Y0202627D01*
X0082416Y0203225D02*
X0089962Y0203225D01*
X0089962Y0203824D02*
X0081818Y0203824D01*
X0081219Y0204422D02*
X0089962Y0204422D01*
X0089827Y0205021D02*
X0080621Y0205021D01*
X0080022Y0205619D02*
X0089228Y0205619D01*
X0088629Y0206218D02*
X0079424Y0206218D01*
X0078825Y0206816D02*
X0088031Y0206816D01*
X0087432Y0207415D02*
X0078227Y0207415D01*
X0077628Y0208013D02*
X0086834Y0208013D01*
X0086235Y0208612D02*
X0077030Y0208612D01*
X0076431Y0209211D02*
X0085637Y0209211D01*
X0085038Y0209809D02*
X0075832Y0209809D01*
X0075234Y0210408D02*
X0084440Y0210408D01*
X0083841Y0211006D02*
X0074635Y0211006D01*
X0074037Y0211605D02*
X0083243Y0211605D01*
X0082644Y0212203D02*
X0073438Y0212203D01*
X0069562Y0212583D02*
X0069562Y0216783D01*
X0066562Y0219783D01*
X0059962Y0219783D01*
X0055162Y0224583D01*
X0054962Y0224583D01*
X0050362Y0226983D02*
X0052762Y0229383D01*
X0067162Y0229383D01*
X0091162Y0205383D01*
X0091162Y0199983D01*
X0091419Y0199583D01*
X0093893Y0200233D02*
X0095630Y0200233D01*
X0095630Y0200831D02*
X0093893Y0200831D01*
X0093893Y0201430D02*
X0095630Y0201430D01*
X0095630Y0202028D02*
X0093893Y0202028D01*
X0093584Y0202627D02*
X0095823Y0202627D01*
X0096686Y0203225D02*
X0092362Y0203225D01*
X0092362Y0203824D02*
X0106762Y0203824D01*
X0106762Y0204422D02*
X0092362Y0204422D01*
X0092362Y0205021D02*
X0106762Y0205021D01*
X0106762Y0205619D02*
X0092362Y0205619D01*
X0092024Y0206218D02*
X0106762Y0206218D01*
X0106762Y0206816D02*
X0091425Y0206816D01*
X0090827Y0207415D02*
X0106762Y0207415D01*
X0106634Y0208013D02*
X0090228Y0208013D01*
X0089630Y0208612D02*
X0106035Y0208612D01*
X0105437Y0209211D02*
X0089031Y0209211D01*
X0088433Y0209809D02*
X0091455Y0209809D01*
X0091109Y0210408D02*
X0087834Y0210408D01*
X0087235Y0211006D02*
X0091109Y0211006D01*
X0091109Y0211605D02*
X0086637Y0211605D01*
X0086038Y0212203D02*
X0091109Y0212203D01*
X0091109Y0212802D02*
X0085440Y0212802D01*
X0084841Y0213400D02*
X0091109Y0213400D01*
X0091109Y0213999D02*
X0084243Y0213999D01*
X0083644Y0214597D02*
X0091109Y0214597D01*
X0091109Y0215196D02*
X0083046Y0215196D01*
X0082447Y0215794D02*
X0091109Y0215794D01*
X0091109Y0216393D02*
X0081849Y0216393D01*
X0081250Y0216991D02*
X0091109Y0216991D01*
X0091499Y0217590D02*
X0080652Y0217590D01*
X0087763Y0227166D02*
X0071076Y0227166D01*
X0070477Y0227764D02*
X0087763Y0227764D01*
X0087763Y0228363D02*
X0069879Y0228363D01*
X0069280Y0228961D02*
X0087763Y0228961D01*
X0087820Y0229560D02*
X0068682Y0229560D01*
X0068362Y0229880D02*
X0068362Y0229880D01*
X0068083Y0230158D02*
X0127634Y0230158D01*
X0126562Y0229560D02*
X0102104Y0229560D01*
X0102161Y0228961D02*
X0125820Y0228961D01*
X0125261Y0228363D02*
X0102161Y0228363D01*
X0102161Y0227764D02*
X0124826Y0227764D01*
X0124516Y0227166D02*
X0112476Y0227166D01*
X0113074Y0226567D02*
X0124272Y0226567D01*
X0124081Y0225969D02*
X0113673Y0225969D01*
X0114271Y0225370D02*
X0123986Y0225370D01*
X0118162Y0219783D02*
X0118308Y0219583D01*
X0118762Y0219183D01*
X0119362Y0218583D01*
X0119362Y0214383D01*
X0118162Y0214597D02*
X0103444Y0214597D01*
X0102846Y0215196D02*
X0118162Y0215196D01*
X0118162Y0213999D02*
X0104043Y0213999D01*
X0104641Y0213400D02*
X0118162Y0213400D01*
X0118162Y0212802D02*
X0105240Y0212802D01*
X0105838Y0212203D02*
X0118162Y0212203D01*
X0118162Y0211605D02*
X0106437Y0211605D01*
X0107035Y0211006D02*
X0118162Y0211006D01*
X0118162Y0210408D02*
X0107634Y0210408D01*
X0108233Y0209809D02*
X0118162Y0209809D01*
X0118162Y0209211D02*
X0108831Y0209211D01*
X0109162Y0208612D02*
X0118162Y0208612D01*
X0118162Y0208013D02*
X0109162Y0208013D01*
X0110134Y0207415D02*
X0110734Y0207415D01*
X0110734Y0206816D02*
X0110134Y0206816D01*
X0110134Y0206218D02*
X0110734Y0206218D01*
X0110734Y0205619D02*
X0110134Y0205619D01*
X0110134Y0205021D02*
X0110734Y0205021D01*
X0107962Y0208383D02*
X0107962Y0180783D01*
X0107164Y0179883D02*
X0105758Y0179883D01*
X0106357Y0179285D02*
X0107762Y0179285D01*
X0108361Y0178686D02*
X0106955Y0178686D01*
X0107554Y0178088D02*
X0108960Y0178088D01*
X0109558Y0177489D02*
X0108152Y0177489D01*
X0108751Y0176891D02*
X0110157Y0176891D01*
X0110225Y0176292D02*
X0109349Y0176292D01*
X0109948Y0175694D02*
X0110212Y0175694D01*
X0106762Y0180482D02*
X0105160Y0180482D01*
X0104561Y0181080D02*
X0106762Y0181080D01*
X0106762Y0181679D02*
X0103963Y0181679D01*
X0103364Y0182277D02*
X0106762Y0182277D01*
X0106762Y0182876D02*
X0102766Y0182876D01*
X0102167Y0183475D02*
X0106762Y0183475D01*
X0106762Y0184073D02*
X0101568Y0184073D01*
X0100970Y0184672D02*
X0106762Y0184672D01*
X0106762Y0185270D02*
X0100371Y0185270D01*
X0099773Y0185869D02*
X0106762Y0185869D01*
X0106762Y0186467D02*
X0099174Y0186467D01*
X0098576Y0187066D02*
X0106762Y0187066D01*
X0106762Y0187664D02*
X0097977Y0187664D01*
X0097379Y0188263D02*
X0106762Y0188263D01*
X0106762Y0188861D02*
X0096780Y0188861D01*
X0096182Y0189460D02*
X0106762Y0189460D01*
X0106762Y0190058D02*
X0095583Y0190058D01*
X0094985Y0190657D02*
X0106762Y0190657D01*
X0106762Y0191255D02*
X0094386Y0191255D01*
X0093788Y0191854D02*
X0106762Y0191854D01*
X0106762Y0192452D02*
X0093189Y0192452D01*
X0092591Y0193051D02*
X0106762Y0193051D01*
X0106762Y0193649D02*
X0091992Y0193649D01*
X0091394Y0194248D02*
X0106762Y0194248D01*
X0106762Y0194846D02*
X0090795Y0194846D01*
X0090197Y0195445D02*
X0106762Y0195445D01*
X0106762Y0196043D02*
X0100641Y0196043D01*
X0100582Y0196009D02*
X0100878Y0196180D01*
X0101120Y0196422D01*
X0101291Y0196719D01*
X0101380Y0197049D01*
X0101380Y0199283D01*
X0098805Y0199283D01*
X0098805Y0195920D01*
X0100251Y0195920D01*
X0100582Y0196009D01*
X0101247Y0196642D02*
X0106762Y0196642D01*
X0106762Y0197240D02*
X0101380Y0197240D01*
X0101380Y0197839D02*
X0106762Y0197839D01*
X0106762Y0198437D02*
X0101380Y0198437D01*
X0101380Y0199036D02*
X0106762Y0199036D01*
X0106762Y0199634D02*
X0098805Y0199634D01*
X0098805Y0199036D02*
X0098205Y0199036D01*
X0098205Y0198437D02*
X0098805Y0198437D01*
X0098805Y0197839D02*
X0098205Y0197839D01*
X0098205Y0197240D02*
X0098805Y0197240D01*
X0098805Y0196642D02*
X0098205Y0196642D01*
X0098205Y0196043D02*
X0098805Y0196043D01*
X0101380Y0200233D02*
X0106762Y0200233D01*
X0106762Y0200831D02*
X0101380Y0200831D01*
X0101380Y0201430D02*
X0106762Y0201430D01*
X0106762Y0202028D02*
X0101380Y0202028D01*
X0101187Y0202627D02*
X0106762Y0202627D01*
X0106762Y0203225D02*
X0100324Y0203225D01*
X0107962Y0208383D02*
X0091162Y0225183D01*
X0091162Y0226383D01*
X0091025Y0226768D01*
X0094287Y0226567D02*
X0095637Y0226567D01*
X0095637Y0225969D02*
X0094287Y0225969D01*
X0094287Y0225370D02*
X0095637Y0225370D01*
X0095637Y0224772D02*
X0094287Y0224772D01*
X0094287Y0224173D02*
X0095637Y0224173D01*
X0096095Y0223575D02*
X0094467Y0223575D01*
X0095065Y0222976D02*
X0113271Y0222976D01*
X0112673Y0223575D02*
X0101703Y0223575D01*
X0102161Y0224173D02*
X0112074Y0224173D01*
X0111476Y0224772D02*
X0102161Y0224772D01*
X0098962Y0226383D02*
X0098899Y0226768D01*
X0098962Y0226383D02*
X0111562Y0226383D01*
X0118162Y0219783D01*
X0115243Y0219984D02*
X0115081Y0219984D01*
X0115081Y0220582D02*
X0115243Y0220582D01*
X0111915Y0220582D02*
X0111315Y0220582D01*
X0111315Y0219984D02*
X0111915Y0219984D01*
X0111915Y0221181D02*
X0111315Y0221181D01*
X0111315Y0221779D02*
X0111915Y0221779D01*
X0111915Y0222378D02*
X0111315Y0222378D01*
X0111315Y0218188D02*
X0111915Y0218188D01*
X0111915Y0217590D02*
X0111315Y0217590D01*
X0111315Y0216991D02*
X0111915Y0216991D01*
X0111915Y0216393D02*
X0111315Y0216393D01*
X0120562Y0212802D02*
X0134855Y0212802D01*
X0135103Y0212203D02*
X0120562Y0212203D01*
X0120562Y0211605D02*
X0135350Y0211605D01*
X0137376Y0209809D02*
X0132976Y0209809D01*
X0133842Y0209211D02*
X0138820Y0209211D01*
X0141103Y0209211D02*
X0146081Y0209211D01*
X0145470Y0208612D02*
X0134453Y0208612D01*
X0134916Y0208013D02*
X0145007Y0208013D01*
X0144643Y0207415D02*
X0135281Y0207415D01*
X0135571Y0206816D02*
X0144353Y0206816D01*
X0144158Y0206218D02*
X0135766Y0206218D01*
X0135898Y0205619D02*
X0144026Y0205619D01*
X0143937Y0205021D02*
X0135987Y0205021D01*
X0135942Y0203824D02*
X0143982Y0203824D01*
X0144077Y0203225D02*
X0135847Y0203225D01*
X0135661Y0202627D02*
X0144262Y0202627D01*
X0144501Y0202028D02*
X0135422Y0202028D01*
X0135117Y0201430D02*
X0144806Y0201430D01*
X0145240Y0200831D02*
X0134684Y0200831D01*
X0134133Y0200233D02*
X0145791Y0200233D01*
X0146522Y0199634D02*
X0133401Y0199634D01*
X0132347Y0199036D02*
X0147577Y0199036D01*
X0146948Y0209809D02*
X0142548Y0209809D01*
X0143423Y0210408D02*
X0148392Y0210408D01*
X0152976Y0209809D02*
X0159363Y0209809D01*
X0159363Y0209211D02*
X0153842Y0209211D01*
X0154453Y0208612D02*
X0159363Y0208612D01*
X0159363Y0208013D02*
X0154916Y0208013D01*
X0155281Y0207415D02*
X0159363Y0207415D01*
X0159363Y0206816D02*
X0155571Y0206816D01*
X0155766Y0206218D02*
X0159363Y0206218D01*
X0159363Y0205619D02*
X0155898Y0205619D01*
X0155987Y0205021D02*
X0159363Y0205021D01*
X0159363Y0198437D02*
X0115762Y0198437D01*
X0115762Y0197839D02*
X0159363Y0197839D01*
X0159363Y0197240D02*
X0115762Y0197240D01*
X0115762Y0196642D02*
X0159363Y0196642D01*
X0159363Y0196043D02*
X0115762Y0196043D01*
X0115762Y0195445D02*
X0159363Y0195445D01*
X0159363Y0194846D02*
X0115762Y0194846D01*
X0115762Y0194248D02*
X0159363Y0194248D01*
X0145512Y0173898D02*
X0144412Y0173898D01*
X0144412Y0173300D02*
X0145512Y0173300D01*
X0145512Y0172701D02*
X0144412Y0172701D01*
X0144412Y0172103D02*
X0145512Y0172103D01*
X0145512Y0171504D02*
X0144412Y0171504D01*
X0144412Y0170906D02*
X0145512Y0170906D01*
X0145512Y0170307D02*
X0144412Y0170307D01*
X0144111Y0169709D02*
X0145813Y0169709D01*
X0142762Y0166383D02*
X0151762Y0157383D01*
X0151762Y0102183D01*
X0150562Y0100983D01*
X0148308Y0104583D02*
X0148162Y0104583D01*
X0148162Y0119583D01*
X0147915Y0119583D01*
X0148162Y0119583D02*
X0148162Y0129183D01*
X0147915Y0129583D01*
X0150389Y0129609D02*
X0150562Y0129609D01*
X0150562Y0130207D02*
X0150389Y0130207D01*
X0150389Y0130806D02*
X0150562Y0130806D01*
X0150562Y0131404D02*
X0150389Y0131404D01*
X0150562Y0132003D02*
X0149917Y0132003D01*
X0150562Y0132601D02*
X0133477Y0132601D01*
X0132879Y0132003D02*
X0140007Y0132003D01*
X0139534Y0131404D02*
X0111880Y0131404D01*
X0111282Y0130806D02*
X0139534Y0130806D01*
X0139534Y0130207D02*
X0110683Y0130207D01*
X0110085Y0129609D02*
X0139534Y0129609D01*
X0139534Y0129010D02*
X0109486Y0129010D01*
X0108888Y0128411D02*
X0139534Y0128411D01*
X0139534Y0127813D02*
X0108289Y0127813D01*
X0107691Y0127214D02*
X0115706Y0127214D01*
X0115706Y0127274D02*
X0115706Y0125159D01*
X0115927Y0124937D01*
X0115706Y0124715D01*
X0115706Y0122722D01*
X0115565Y0122582D01*
X0115394Y0122285D01*
X0115306Y0121955D01*
X0115305Y0121141D01*
X0119313Y0121141D01*
X0119313Y0121056D01*
X0119398Y0121056D01*
X0119398Y0121141D01*
X0123405Y0121141D01*
X0123405Y0121955D01*
X0123317Y0122285D01*
X0123146Y0122582D01*
X0123005Y0122722D01*
X0123005Y0124715D01*
X0122784Y0124937D01*
X0123005Y0125159D01*
X0123005Y0127274D01*
X0122478Y0127802D01*
X0116233Y0127802D01*
X0115706Y0127274D01*
X0115706Y0126616D02*
X0107092Y0126616D01*
X0106494Y0126017D02*
X0115706Y0126017D01*
X0115706Y0125419D02*
X0105895Y0125419D01*
X0105297Y0124820D02*
X0115811Y0124820D01*
X0115706Y0124222D02*
X0104698Y0124222D01*
X0104100Y0123623D02*
X0115706Y0123623D01*
X0115706Y0123025D02*
X0103501Y0123025D01*
X0102903Y0122426D02*
X0115476Y0122426D01*
X0115306Y0121828D02*
X0102551Y0121828D01*
X0102551Y0121229D02*
X0115306Y0121229D01*
X0115306Y0120631D02*
X0102551Y0120631D01*
X0102190Y0120032D02*
X0115362Y0120032D01*
X0115316Y0119434D02*
X0101591Y0119434D01*
X0100162Y0121383D02*
X0113962Y0135183D01*
X0113962Y0141183D01*
X0114412Y0141551D01*
X0114562Y0141183D01*
X0119362Y0141183D01*
X0127762Y0132783D01*
X0131962Y0132783D01*
X0133162Y0133983D01*
X0133162Y0138783D01*
X0132562Y0139383D01*
X0127762Y0139383D01*
X0119962Y0147183D01*
X0119962Y0159783D01*
X0118162Y0161583D01*
X0114562Y0161583D01*
X0114412Y0162024D01*
X0114412Y0164583D02*
X0111562Y0164583D01*
X0109762Y0162783D01*
X0109762Y0145983D01*
X0111562Y0144183D01*
X0114412Y0144110D01*
X0113962Y0144183D01*
X0111562Y0144183D01*
X0103162Y0135783D01*
X0112479Y0132003D02*
X0126845Y0132003D01*
X0126246Y0132601D02*
X0113077Y0132601D01*
X0113676Y0133200D02*
X0125648Y0133200D01*
X0125049Y0133798D02*
X0114274Y0133798D01*
X0114873Y0134397D02*
X0124451Y0134397D01*
X0123852Y0134995D02*
X0115162Y0134995D01*
X0115162Y0135594D02*
X0123254Y0135594D01*
X0122655Y0136192D02*
X0115162Y0136192D01*
X0115162Y0136791D02*
X0122057Y0136791D01*
X0121458Y0137389D02*
X0115162Y0137389D01*
X0115162Y0137988D02*
X0120860Y0137988D01*
X0120261Y0138586D02*
X0115162Y0138586D01*
X0115162Y0139185D02*
X0119663Y0139185D01*
X0119064Y0139783D02*
X0115162Y0139783D01*
X0118762Y0146583D02*
X0118762Y0155583D01*
X0117562Y0156783D01*
X0114562Y0156783D01*
X0114412Y0156906D01*
X0119513Y0161928D02*
X0140119Y0161928D01*
X0139521Y0162527D02*
X0118915Y0162527D01*
X0118583Y0163125D02*
X0138922Y0163125D01*
X0138324Y0163724D02*
X0118612Y0163724D01*
X0118612Y0164322D02*
X0137725Y0164322D01*
X0137127Y0164921D02*
X0118612Y0164921D01*
X0118612Y0165519D02*
X0136528Y0165519D01*
X0135930Y0166118D02*
X0118612Y0166118D01*
X0118762Y0167583D02*
X0118762Y0183783D01*
X0117562Y0184983D01*
X0114562Y0184983D01*
X0114412Y0185055D01*
X0119962Y0178686D02*
X0130643Y0178686D01*
X0130512Y0178088D02*
X0119962Y0178088D01*
X0119962Y0177489D02*
X0130512Y0177489D01*
X0130512Y0176891D02*
X0119962Y0176891D01*
X0119962Y0176292D02*
X0130512Y0176292D01*
X0130512Y0175694D02*
X0119962Y0175694D01*
X0119962Y0175095D02*
X0130512Y0175095D01*
X0130512Y0174497D02*
X0119962Y0174497D01*
X0119962Y0173898D02*
X0129980Y0173898D01*
X0129382Y0173300D02*
X0119962Y0173300D01*
X0119962Y0172701D02*
X0128783Y0172701D01*
X0128185Y0172103D02*
X0119962Y0172103D01*
X0119962Y0171504D02*
X0127586Y0171504D01*
X0126988Y0170906D02*
X0119962Y0170906D01*
X0119962Y0170307D02*
X0126389Y0170307D01*
X0125791Y0169709D02*
X0119962Y0169709D01*
X0119962Y0169110D02*
X0125192Y0169110D01*
X0125362Y0167583D02*
X0131962Y0174183D01*
X0132462Y0174283D01*
X0134412Y0173898D02*
X0135112Y0173898D01*
X0135112Y0173300D02*
X0134412Y0173300D01*
X0134412Y0172701D02*
X0135112Y0172701D01*
X0135112Y0172103D02*
X0134412Y0172103D01*
X0134412Y0171504D02*
X0135112Y0171504D01*
X0134962Y0168783D02*
X0146962Y0156783D01*
X0146962Y0154983D01*
X0147462Y0154883D01*
X0149412Y0154746D02*
X0150562Y0154746D01*
X0150562Y0155344D02*
X0149412Y0155344D01*
X0149412Y0155943D02*
X0150562Y0155943D01*
X0150562Y0156542D02*
X0149412Y0156542D01*
X0149412Y0157140D02*
X0150307Y0157140D01*
X0149709Y0157739D02*
X0149412Y0157739D01*
X0147315Y0160133D02*
X0145309Y0160133D01*
X0144710Y0160731D02*
X0146716Y0160731D01*
X0146118Y0161330D02*
X0144112Y0161330D01*
X0143513Y0161928D02*
X0145519Y0161928D01*
X0144921Y0162527D02*
X0142915Y0162527D01*
X0142316Y0163125D02*
X0144322Y0163125D01*
X0143724Y0163724D02*
X0141718Y0163724D01*
X0141119Y0164322D02*
X0143125Y0164322D01*
X0142527Y0164921D02*
X0140521Y0164921D01*
X0139922Y0165519D02*
X0141928Y0165519D01*
X0141562Y0166118D02*
X0139324Y0166118D01*
X0138725Y0166716D02*
X0141562Y0166716D01*
X0141562Y0167315D02*
X0138127Y0167315D01*
X0137528Y0167913D02*
X0141562Y0167913D01*
X0142762Y0166383D02*
X0142762Y0174183D01*
X0142462Y0174283D01*
X0137687Y0175694D02*
X0137237Y0175694D01*
X0137237Y0176292D02*
X0137687Y0176292D01*
X0137687Y0176891D02*
X0137237Y0176891D01*
X0137237Y0177489D02*
X0137687Y0177489D01*
X0137687Y0178088D02*
X0137237Y0178088D01*
X0137237Y0178686D02*
X0137687Y0178686D01*
X0137687Y0179285D02*
X0137237Y0179285D01*
X0130512Y0170906D02*
X0130382Y0170906D01*
X0130512Y0170307D02*
X0129783Y0170307D01*
X0129185Y0169709D02*
X0130813Y0169709D01*
X0132573Y0169110D02*
X0128586Y0169110D01*
X0127988Y0168512D02*
X0132573Y0168512D01*
X0132573Y0167913D02*
X0127389Y0167913D01*
X0126791Y0167315D02*
X0133051Y0167315D01*
X0133650Y0166716D02*
X0126192Y0166716D01*
X0125362Y0167583D02*
X0118762Y0167583D01*
X0114562Y0167583D01*
X0114412Y0167142D01*
X0113962Y0167583D01*
X0108562Y0167583D01*
X0109762Y0169983D02*
X0108562Y0171183D01*
X0109762Y0169983D02*
X0113962Y0169983D01*
X0114412Y0169701D01*
X0114412Y0172260D02*
X0113962Y0172383D01*
X0120112Y0161330D02*
X0140718Y0161330D01*
X0141316Y0160731D02*
X0120710Y0160731D01*
X0121162Y0160133D02*
X0141915Y0160133D01*
X0140345Y0159534D02*
X0139579Y0159534D01*
X0139552Y0159581D02*
X0139310Y0159823D01*
X0139014Y0159994D01*
X0138683Y0160083D01*
X0137687Y0160083D01*
X0137687Y0155108D01*
X0137237Y0155108D01*
X0137237Y0160083D01*
X0136241Y0160083D01*
X0135910Y0159994D01*
X0135614Y0159823D01*
X0135372Y0159581D01*
X0135200Y0159284D01*
X0135112Y0158954D01*
X0135112Y0155108D01*
X0137237Y0155108D01*
X0137237Y0154658D01*
X0135112Y0154658D01*
X0135112Y0150812D01*
X0135200Y0150481D01*
X0135372Y0150184D01*
X0135614Y0149942D01*
X0135910Y0149771D01*
X0136241Y0149683D01*
X0137237Y0149683D01*
X0137237Y0154658D01*
X0137687Y0154658D01*
X0137687Y0155108D01*
X0139812Y0155108D01*
X0139812Y0158954D01*
X0139723Y0159284D01*
X0139552Y0159581D01*
X0139812Y0158936D02*
X0140112Y0158936D01*
X0140112Y0158337D02*
X0139812Y0158337D01*
X0139812Y0157739D02*
X0140112Y0157739D01*
X0140112Y0157140D02*
X0139812Y0157140D01*
X0139812Y0156542D02*
X0140112Y0156542D01*
X0140112Y0155943D02*
X0139812Y0155943D01*
X0139812Y0155344D02*
X0140112Y0155344D01*
X0139812Y0154658D02*
X0139812Y0150812D01*
X0139723Y0150481D01*
X0139552Y0150184D01*
X0139310Y0149942D01*
X0139014Y0149771D01*
X0138683Y0149683D01*
X0137687Y0149683D01*
X0137687Y0154658D01*
X0139812Y0154658D01*
X0139812Y0154147D02*
X0140112Y0154147D01*
X0140112Y0153549D02*
X0139812Y0153549D01*
X0139812Y0152950D02*
X0140112Y0152950D01*
X0140112Y0152352D02*
X0139812Y0152352D01*
X0139812Y0151753D02*
X0140112Y0151753D01*
X0140112Y0151155D02*
X0139812Y0151155D01*
X0139743Y0150556D02*
X0140180Y0150556D01*
X0140598Y0149958D02*
X0139325Y0149958D01*
X0137687Y0149958D02*
X0137237Y0149958D01*
X0137237Y0150556D02*
X0137687Y0150556D01*
X0137687Y0151155D02*
X0137237Y0151155D01*
X0137237Y0151753D02*
X0137687Y0151753D01*
X0137687Y0152352D02*
X0137237Y0152352D01*
X0137237Y0152950D02*
X0137687Y0152950D01*
X0137687Y0153549D02*
X0137237Y0153549D01*
X0137237Y0154147D02*
X0137687Y0154147D01*
X0137687Y0154746D02*
X0142237Y0154746D01*
X0142687Y0154746D02*
X0145512Y0154746D01*
X0145512Y0155344D02*
X0144812Y0155344D01*
X0144812Y0155943D02*
X0145512Y0155943D01*
X0145506Y0156542D02*
X0144812Y0156542D01*
X0144812Y0157140D02*
X0144907Y0157140D01*
X0144812Y0154658D02*
X0142687Y0154658D01*
X0142687Y0149683D01*
X0143683Y0149683D01*
X0144014Y0149771D01*
X0144310Y0149942D01*
X0144552Y0150184D01*
X0144723Y0150481D01*
X0144812Y0150812D01*
X0144812Y0154658D01*
X0144812Y0154147D02*
X0145512Y0154147D01*
X0145512Y0153549D02*
X0144812Y0153549D01*
X0144812Y0152950D02*
X0145512Y0152950D01*
X0145512Y0152352D02*
X0144812Y0152352D01*
X0144812Y0151753D02*
X0145512Y0151753D01*
X0145512Y0151155D02*
X0144812Y0151155D01*
X0144743Y0150556D02*
X0145565Y0150556D01*
X0144325Y0149958D02*
X0150562Y0149958D01*
X0150562Y0150556D02*
X0149358Y0150556D01*
X0149412Y0151155D02*
X0150562Y0151155D01*
X0150562Y0151753D02*
X0149412Y0151753D01*
X0149412Y0152352D02*
X0150562Y0152352D01*
X0150562Y0152950D02*
X0149412Y0152950D01*
X0149412Y0153549D02*
X0150562Y0153549D01*
X0150562Y0154147D02*
X0149412Y0154147D01*
X0150562Y0149359D02*
X0131362Y0149359D01*
X0131362Y0148761D02*
X0150562Y0148761D01*
X0150562Y0148162D02*
X0131362Y0148162D01*
X0131362Y0147564D02*
X0150562Y0147564D01*
X0150562Y0146965D02*
X0131362Y0146965D01*
X0131362Y0146367D02*
X0150562Y0146367D01*
X0150562Y0145768D02*
X0132529Y0145768D01*
X0132830Y0145170D02*
X0150562Y0145170D01*
X0150562Y0144571D02*
X0132830Y0144571D01*
X0132830Y0143973D02*
X0150562Y0143973D01*
X0150562Y0143374D02*
X0132830Y0143374D01*
X0132830Y0142776D02*
X0150562Y0142776D01*
X0150562Y0142177D02*
X0132830Y0142177D01*
X0132830Y0141579D02*
X0150562Y0141579D01*
X0150562Y0140980D02*
X0132830Y0140980D01*
X0133260Y0140382D02*
X0150562Y0140382D01*
X0150562Y0139783D02*
X0133858Y0139783D01*
X0134362Y0139185D02*
X0150562Y0139185D01*
X0150562Y0138586D02*
X0134362Y0138586D01*
X0134362Y0137988D02*
X0150562Y0137988D01*
X0150562Y0137389D02*
X0134362Y0137389D01*
X0134362Y0136791D02*
X0150562Y0136791D01*
X0150562Y0136192D02*
X0134362Y0136192D01*
X0134362Y0135594D02*
X0150562Y0135594D01*
X0150562Y0134995D02*
X0134362Y0134995D01*
X0134362Y0134397D02*
X0150562Y0134397D01*
X0150562Y0133798D02*
X0134362Y0133798D01*
X0134076Y0133200D02*
X0150562Y0133200D01*
X0150562Y0129010D02*
X0150389Y0129010D01*
X0150389Y0128411D02*
X0150562Y0128411D01*
X0150562Y0127813D02*
X0150389Y0127813D01*
X0150562Y0127214D02*
X0149969Y0127214D01*
X0150562Y0126616D02*
X0149362Y0126616D01*
X0149362Y0126017D02*
X0150562Y0126017D01*
X0150562Y0125419D02*
X0149362Y0125419D01*
X0149362Y0124820D02*
X0150562Y0124820D01*
X0150562Y0124222D02*
X0149362Y0124222D01*
X0149362Y0123623D02*
X0150562Y0123623D01*
X0150562Y0123025D02*
X0149362Y0123025D01*
X0149362Y0122426D02*
X0150562Y0122426D01*
X0150562Y0121828D02*
X0150092Y0121828D01*
X0150389Y0121229D02*
X0150562Y0121229D01*
X0150562Y0120631D02*
X0150389Y0120631D01*
X0150389Y0120032D02*
X0150562Y0120032D01*
X0150562Y0119434D02*
X0150389Y0119434D01*
X0150389Y0118835D02*
X0150562Y0118835D01*
X0150562Y0118237D02*
X0150389Y0118237D01*
X0150389Y0117638D02*
X0150562Y0117638D01*
X0150562Y0117040D02*
X0149362Y0117040D01*
X0149362Y0116441D02*
X0150562Y0116441D01*
X0150562Y0115843D02*
X0149362Y0115843D01*
X0149362Y0115244D02*
X0150562Y0115244D01*
X0150562Y0114646D02*
X0149362Y0114646D01*
X0149362Y0114047D02*
X0150562Y0114047D01*
X0150562Y0113449D02*
X0149362Y0113449D01*
X0149362Y0112850D02*
X0150562Y0112850D01*
X0150562Y0112252D02*
X0149362Y0112252D01*
X0149362Y0111653D02*
X0150562Y0111653D01*
X0150562Y0111055D02*
X0149362Y0111055D01*
X0149362Y0110456D02*
X0150562Y0110456D01*
X0150562Y0109858D02*
X0149362Y0109858D01*
X0149362Y0109259D02*
X0150562Y0109259D01*
X0150562Y0108661D02*
X0149362Y0108661D01*
X0149362Y0108062D02*
X0150562Y0108062D01*
X0146962Y0108062D02*
X0123405Y0108062D01*
X0123405Y0108261D02*
X0119398Y0108261D01*
X0119398Y0108346D01*
X0123405Y0108346D01*
X0123405Y0109159D01*
X0123317Y0109490D01*
X0123146Y0109786D01*
X0123005Y0109927D01*
X0123005Y0109983D01*
X0139059Y0109983D01*
X0139762Y0110686D01*
X0145762Y0116686D01*
X0145762Y0117313D01*
X0145967Y0117108D01*
X0146962Y0117108D01*
X0146962Y0107648D01*
X0145967Y0107648D01*
X0145440Y0107121D01*
X0145440Y0102183D01*
X0144484Y0102183D01*
X0144484Y0107121D01*
X0143957Y0107648D01*
X0139274Y0107648D01*
X0138747Y0107121D01*
X0138747Y0105783D01*
X0127865Y0105783D01*
X0123405Y0101323D01*
X0123405Y0101482D01*
X0123317Y0101813D01*
X0123146Y0102109D01*
X0123005Y0102249D01*
X0123005Y0104243D01*
X0122784Y0104465D01*
X0123005Y0104686D01*
X0123005Y0106680D01*
X0123146Y0106820D01*
X0123317Y0107116D01*
X0123405Y0107447D01*
X0123405Y0108261D01*
X0123405Y0108661D02*
X0146962Y0108661D01*
X0146962Y0109259D02*
X0123379Y0109259D01*
X0123075Y0109858D02*
X0146962Y0109858D01*
X0146962Y0110456D02*
X0139532Y0110456D01*
X0140131Y0111055D02*
X0146962Y0111055D01*
X0146962Y0111653D02*
X0140729Y0111653D01*
X0141328Y0112252D02*
X0146962Y0112252D01*
X0146962Y0112850D02*
X0141926Y0112850D01*
X0142525Y0113449D02*
X0146962Y0113449D01*
X0146962Y0114047D02*
X0143123Y0114047D01*
X0143722Y0114646D02*
X0146962Y0114646D01*
X0146962Y0115244D02*
X0144320Y0115244D01*
X0144919Y0115843D02*
X0146962Y0115843D01*
X0146962Y0116441D02*
X0145517Y0116441D01*
X0145762Y0117040D02*
X0146962Y0117040D01*
X0144562Y0117183D02*
X0138562Y0111183D01*
X0119362Y0111183D01*
X0119356Y0110862D01*
X0119356Y0113421D02*
X0119362Y0113583D01*
X0121762Y0113583D01*
X0127762Y0119583D01*
X0142009Y0119583D01*
X0142421Y0122426D02*
X0123235Y0122426D01*
X0123405Y0121828D02*
X0139832Y0121828D01*
X0139534Y0121229D02*
X0123405Y0121229D01*
X0123405Y0121056D02*
X0119398Y0121056D01*
X0119398Y0118582D01*
X0123405Y0118582D01*
X0123405Y0119396D01*
X0123317Y0119726D01*
X0123263Y0119819D01*
X0123317Y0119912D01*
X0123405Y0120242D01*
X0123405Y0121056D01*
X0123405Y0120631D02*
X0127113Y0120631D01*
X0126514Y0120032D02*
X0123349Y0120032D01*
X0123395Y0119434D02*
X0125916Y0119434D01*
X0125317Y0118835D02*
X0123405Y0118835D01*
X0123405Y0118237D02*
X0124719Y0118237D01*
X0124120Y0117638D02*
X0123393Y0117638D01*
X0123522Y0117040D02*
X0123129Y0117040D01*
X0119398Y0118835D02*
X0119313Y0118835D01*
X0119313Y0119434D02*
X0119398Y0119434D01*
X0119398Y0120032D02*
X0119313Y0120032D01*
X0119313Y0120631D02*
X0119398Y0120631D01*
X0123005Y0123025D02*
X0141823Y0123025D01*
X0141224Y0123623D02*
X0123005Y0123623D01*
X0123005Y0124222D02*
X0140962Y0124222D01*
X0140962Y0124820D02*
X0122900Y0124820D01*
X0123005Y0125419D02*
X0140962Y0125419D01*
X0140962Y0126017D02*
X0123005Y0126017D01*
X0123005Y0126616D02*
X0140962Y0126616D01*
X0139955Y0127214D02*
X0123005Y0127214D01*
X0129562Y0136383D02*
X0129962Y0136236D01*
X0129562Y0136383D02*
X0127762Y0138183D01*
X0127162Y0138183D01*
X0118762Y0146583D01*
X0121278Y0147564D02*
X0128962Y0147564D01*
X0128962Y0148162D02*
X0121162Y0148162D01*
X0121162Y0148761D02*
X0128962Y0148761D01*
X0128962Y0149359D02*
X0121162Y0149359D01*
X0121162Y0149958D02*
X0128962Y0149958D01*
X0128962Y0150556D02*
X0121162Y0150556D01*
X0121162Y0151155D02*
X0128962Y0151155D01*
X0128962Y0151753D02*
X0121162Y0151753D01*
X0121162Y0152352D02*
X0128962Y0152352D01*
X0128962Y0152950D02*
X0121162Y0152950D01*
X0121162Y0153549D02*
X0129431Y0153549D01*
X0130030Y0154147D02*
X0121162Y0154147D01*
X0121162Y0154746D02*
X0130512Y0154746D01*
X0130512Y0155344D02*
X0121162Y0155344D01*
X0121162Y0155943D02*
X0130512Y0155943D01*
X0130512Y0156542D02*
X0121162Y0156542D01*
X0121162Y0157140D02*
X0130512Y0157140D01*
X0130512Y0157739D02*
X0121162Y0157739D01*
X0121162Y0158337D02*
X0130512Y0158337D01*
X0130512Y0158936D02*
X0121162Y0158936D01*
X0121162Y0159534D02*
X0130890Y0159534D01*
X0134033Y0159534D02*
X0135345Y0159534D01*
X0135112Y0158936D02*
X0134412Y0158936D01*
X0134412Y0158337D02*
X0135112Y0158337D01*
X0135112Y0157739D02*
X0134412Y0157739D01*
X0134412Y0157140D02*
X0135112Y0157140D01*
X0135112Y0156542D02*
X0134412Y0156542D01*
X0134412Y0155943D02*
X0135112Y0155943D01*
X0135112Y0155344D02*
X0134412Y0155344D01*
X0134412Y0154746D02*
X0137237Y0154746D01*
X0137237Y0155344D02*
X0137687Y0155344D01*
X0137687Y0155943D02*
X0137237Y0155943D01*
X0137237Y0156542D02*
X0137687Y0156542D01*
X0137687Y0157140D02*
X0137237Y0157140D01*
X0137237Y0157739D02*
X0137687Y0157739D01*
X0137687Y0158337D02*
X0137237Y0158337D01*
X0137237Y0158936D02*
X0137687Y0158936D01*
X0137687Y0159534D02*
X0137237Y0159534D01*
X0135112Y0154147D02*
X0134412Y0154147D01*
X0134412Y0153549D02*
X0135112Y0153549D01*
X0135112Y0152950D02*
X0134412Y0152950D01*
X0134412Y0152352D02*
X0135112Y0152352D01*
X0135112Y0151753D02*
X0134412Y0151753D01*
X0134412Y0151155D02*
X0135112Y0151155D01*
X0135180Y0150556D02*
X0134358Y0150556D01*
X0135598Y0149958D02*
X0131362Y0149958D01*
X0130162Y0152583D02*
X0132462Y0154883D01*
X0130162Y0152583D02*
X0130162Y0142983D01*
X0129962Y0142929D01*
X0127093Y0142776D02*
X0126066Y0142776D01*
X0125467Y0143374D02*
X0127093Y0143374D01*
X0127093Y0143973D02*
X0124869Y0143973D01*
X0124270Y0144571D02*
X0127093Y0144571D01*
X0127093Y0145170D02*
X0123672Y0145170D01*
X0123073Y0145768D02*
X0127394Y0145768D01*
X0128962Y0146367D02*
X0122475Y0146367D01*
X0121876Y0146965D02*
X0128962Y0146965D01*
X0127093Y0142177D02*
X0126664Y0142177D01*
X0142009Y0129583D02*
X0142162Y0129183D01*
X0142162Y0124383D01*
X0144562Y0121983D01*
X0144562Y0117183D01*
X0145762Y0122426D02*
X0146962Y0122426D01*
X0146962Y0123025D02*
X0145217Y0123025D01*
X0144618Y0123623D02*
X0146962Y0123623D01*
X0146962Y0124222D02*
X0144020Y0124222D01*
X0143421Y0124820D02*
X0146962Y0124820D01*
X0146962Y0125419D02*
X0143362Y0125419D01*
X0143362Y0126017D02*
X0146962Y0126017D01*
X0146962Y0126616D02*
X0143362Y0126616D01*
X0144063Y0127214D02*
X0145860Y0127214D01*
X0145440Y0127813D02*
X0144484Y0127813D01*
X0144484Y0128411D02*
X0145440Y0128411D01*
X0145440Y0129010D02*
X0144484Y0129010D01*
X0144484Y0129609D02*
X0145440Y0129609D01*
X0145440Y0130207D02*
X0144484Y0130207D01*
X0144484Y0130806D02*
X0145440Y0130806D01*
X0145440Y0131404D02*
X0144484Y0131404D01*
X0144012Y0132003D02*
X0145912Y0132003D01*
X0142687Y0149958D02*
X0142237Y0149958D01*
X0142237Y0150556D02*
X0142687Y0150556D01*
X0142687Y0151155D02*
X0142237Y0151155D01*
X0142237Y0151753D02*
X0142687Y0151753D01*
X0142687Y0152352D02*
X0142237Y0152352D01*
X0142237Y0152950D02*
X0142687Y0152950D01*
X0142687Y0153549D02*
X0142237Y0153549D01*
X0142237Y0154147D02*
X0142687Y0154147D01*
X0144141Y0107464D02*
X0145783Y0107464D01*
X0145440Y0106865D02*
X0144484Y0106865D01*
X0144484Y0106267D02*
X0145440Y0106267D01*
X0145440Y0105668D02*
X0144484Y0105668D01*
X0144484Y0105070D02*
X0145440Y0105070D01*
X0145440Y0104471D02*
X0144484Y0104471D01*
X0144484Y0103873D02*
X0145440Y0103873D01*
X0145440Y0103274D02*
X0144484Y0103274D01*
X0144484Y0102675D02*
X0145440Y0102675D01*
X0138747Y0106267D02*
X0123005Y0106267D01*
X0123005Y0105668D02*
X0127750Y0105668D01*
X0127152Y0105070D02*
X0123005Y0105070D01*
X0122790Y0104471D02*
X0126553Y0104471D01*
X0125955Y0103873D02*
X0123005Y0103873D01*
X0123005Y0103274D02*
X0125356Y0103274D01*
X0124758Y0102675D02*
X0123005Y0102675D01*
X0123164Y0102077D02*
X0124159Y0102077D01*
X0123561Y0101478D02*
X0123405Y0101478D01*
X0123172Y0106865D02*
X0138747Y0106865D01*
X0139090Y0107464D02*
X0123405Y0107464D01*
X0119356Y0105744D02*
X0118762Y0105183D01*
X0116362Y0105183D01*
X0112870Y0105070D02*
X0105562Y0105070D01*
X0116362Y0092583D02*
X0114562Y0090783D01*
X0116362Y0092583D02*
X0118762Y0092583D01*
X0119356Y0092949D01*
X0106253Y0083523D02*
X0103671Y0083523D01*
X0104212Y0082925D02*
X0105712Y0082925D01*
X0105464Y0082326D02*
X0104460Y0082326D01*
X0104708Y0081728D02*
X0105216Y0081728D01*
X0105188Y0081129D02*
X0104736Y0081129D01*
X0104736Y0080531D02*
X0105188Y0080531D01*
X0105292Y0079932D02*
X0104632Y0079932D01*
X0104384Y0079334D02*
X0105540Y0079334D01*
X0105837Y0078735D02*
X0104087Y0078735D01*
X0103488Y0078137D02*
X0106435Y0078137D01*
X0107369Y0077538D02*
X0102554Y0077538D01*
X0101559Y0076341D02*
X0108364Y0076341D01*
X0108102Y0075742D02*
X0101822Y0075742D01*
X0102070Y0075144D02*
X0107854Y0075144D01*
X0107606Y0074545D02*
X0102318Y0074545D01*
X0102566Y0073947D02*
X0107358Y0073947D01*
X0107355Y0073348D02*
X0102569Y0073348D01*
X0102569Y0072750D02*
X0107355Y0072750D01*
X0107355Y0072151D02*
X0102569Y0072151D01*
X0102569Y0071553D02*
X0107355Y0071553D01*
X0107526Y0070954D02*
X0102398Y0070954D01*
X0102150Y0070356D02*
X0107774Y0070356D01*
X0108022Y0069757D02*
X0101902Y0069757D01*
X0101654Y0069159D02*
X0108270Y0069159D01*
X0108770Y0068560D02*
X0101154Y0068560D01*
X0100555Y0067962D02*
X0109368Y0067962D01*
X0109967Y0067363D02*
X0099957Y0067363D01*
X0098782Y0066765D02*
X0111142Y0066765D01*
X0116498Y0066765D02*
X0123506Y0066765D01*
X0123178Y0067363D02*
X0117673Y0067363D01*
X0118272Y0067962D02*
X0122954Y0067962D01*
X0122817Y0068560D02*
X0118870Y0068560D01*
X0119371Y0069159D02*
X0122756Y0069159D01*
X0122756Y0069757D02*
X0119618Y0069757D01*
X0119866Y0070356D02*
X0122756Y0070356D01*
X0122756Y0070954D02*
X0120114Y0070954D01*
X0120285Y0071553D02*
X0122756Y0071553D01*
X0122756Y0072151D02*
X0120285Y0072151D01*
X0129089Y0064969D02*
X0130252Y0064969D01*
X0130252Y0064371D02*
X0079671Y0064371D01*
X0079671Y0064969D02*
X0080835Y0064969D01*
X0079763Y0065568D02*
X0079671Y0065568D01*
X0078678Y0065568D02*
X0039262Y0065568D01*
X0039262Y0066166D02*
X0078678Y0066166D01*
X0078678Y0066692D02*
X0078678Y0063883D01*
X0039262Y0063883D01*
X0039262Y0230243D01*
X0051925Y0230243D01*
X0049865Y0228183D01*
X0049162Y0227480D01*
X0049162Y0191686D01*
X0055865Y0184983D01*
X0049762Y0178880D01*
X0049762Y0177886D01*
X0049762Y0174080D01*
X0049293Y0173611D01*
X0049293Y0174283D01*
X0046719Y0174283D01*
X0046719Y0174883D01*
X0049293Y0174883D01*
X0049293Y0177116D01*
X0049205Y0177447D01*
X0049034Y0177743D01*
X0048792Y0177985D01*
X0048495Y0178156D01*
X0048164Y0178245D01*
X0046718Y0178245D01*
X0046718Y0174883D01*
X0046119Y0174883D01*
X0046119Y0178245D01*
X0044673Y0178245D01*
X0044342Y0178156D01*
X0044045Y0177985D01*
X0043803Y0177743D01*
X0043632Y0177447D01*
X0043544Y0177116D01*
X0043544Y0174883D01*
X0046118Y0174883D01*
X0046118Y0174283D01*
X0043544Y0174283D01*
X0043544Y0172049D01*
X0043632Y0171719D01*
X0043803Y0171422D01*
X0044045Y0171180D01*
X0044342Y0171009D01*
X0044673Y0170920D01*
X0046119Y0170920D01*
X0046119Y0174283D01*
X0046718Y0174283D01*
X0046718Y0171036D01*
X0042562Y0166880D01*
X0042562Y0110086D01*
X0043265Y0109383D01*
X0044362Y0108286D01*
X0044362Y0101658D01*
X0043456Y0101282D01*
X0042162Y0099988D01*
X0041462Y0098298D01*
X0041462Y0096468D01*
X0042162Y0094777D01*
X0043456Y0093483D01*
X0045147Y0092783D01*
X0046977Y0092783D01*
X0048667Y0093483D01*
X0049961Y0094777D01*
X0050662Y0096468D01*
X0050662Y0098298D01*
X0049961Y0099988D01*
X0048667Y0101282D01*
X0046977Y0101983D01*
X0046762Y0101983D01*
X0046762Y0108893D01*
X0049937Y0108893D01*
X0049937Y0114283D01*
X0050537Y0114283D01*
X0050537Y0108893D01*
X0055074Y0108893D01*
X0055405Y0108982D01*
X0055701Y0109153D01*
X0055943Y0109395D01*
X0056114Y0109691D01*
X0056203Y0110022D01*
X0056203Y0114283D01*
X0050537Y0114283D01*
X0050537Y0114883D01*
X0049937Y0114883D01*
X0049937Y0120272D01*
X0045401Y0120272D01*
X0045070Y0120184D01*
X0044962Y0120121D01*
X0044962Y0130920D01*
X0046119Y0130920D01*
X0046119Y0134283D01*
X0046718Y0134283D01*
X0046718Y0130920D01*
X0048164Y0130920D01*
X0048495Y0131009D01*
X0048792Y0131180D01*
X0049034Y0131422D01*
X0049205Y0131719D01*
X0049293Y0132049D01*
X0049293Y0134283D01*
X0046719Y0134283D01*
X0046719Y0134883D01*
X0049293Y0134883D01*
X0049293Y0137116D01*
X0049205Y0137447D01*
X0049034Y0137743D01*
X0048792Y0137985D01*
X0048495Y0138156D01*
X0048164Y0138245D01*
X0046718Y0138245D01*
X0046718Y0134883D01*
X0046119Y0134883D01*
X0046119Y0138245D01*
X0044962Y0138245D01*
X0044962Y0150920D01*
X0046119Y0150920D01*
X0046119Y0154283D01*
X0046718Y0154283D01*
X0046718Y0150920D01*
X0048164Y0150920D01*
X0048495Y0151009D01*
X0048792Y0151180D01*
X0049034Y0151422D01*
X0049205Y0151719D01*
X0049293Y0152049D01*
X0049293Y0154283D01*
X0046719Y0154283D01*
X0046719Y0154883D01*
X0049293Y0154883D01*
X0049293Y0157116D01*
X0049205Y0157447D01*
X0049034Y0157743D01*
X0048792Y0157985D01*
X0048495Y0158156D01*
X0048164Y0158245D01*
X0046718Y0158245D01*
X0046718Y0154883D01*
X0046119Y0154883D01*
X0046119Y0158245D01*
X0044962Y0158245D01*
X0044962Y0165886D01*
X0051030Y0171954D01*
X0051030Y0171848D01*
X0051558Y0171320D01*
X0052162Y0171320D01*
X0052162Y0157845D01*
X0051558Y0157845D01*
X0051030Y0157318D01*
X0051030Y0151848D01*
X0051558Y0151320D01*
X0052162Y0151320D01*
X0052162Y0137845D01*
X0051558Y0137845D01*
X0051030Y0137318D01*
X0051030Y0131848D01*
X0051558Y0131320D01*
X0055453Y0131320D01*
X0055490Y0131358D01*
X0066975Y0119872D01*
X0064648Y0119872D01*
X0064121Y0119345D01*
X0064121Y0109820D01*
X0064648Y0109293D01*
X0074724Y0109293D01*
X0075252Y0109820D01*
X0075252Y0117183D01*
X0085162Y0117183D01*
X0085162Y0091486D01*
X0091636Y0085012D01*
X0091506Y0085032D01*
X0091482Y0085032D01*
X0091482Y0084607D01*
X0090882Y0084607D01*
X0090882Y0085032D01*
X0090859Y0085032D01*
X0090220Y0084931D01*
X0089604Y0084731D01*
X0089361Y0084607D01*
X0078969Y0084607D01*
X0078678Y0084316D01*
X0078678Y0078615D01*
X0078547Y0078435D01*
X0078215Y0077784D01*
X0077989Y0077088D01*
X0077874Y0076366D01*
X0077874Y0072954D01*
X0078678Y0072954D01*
X0078678Y0072354D01*
X0077874Y0072354D01*
X0077874Y0068941D01*
X0077989Y0068219D01*
X0078215Y0067523D01*
X0078547Y0066872D01*
X0078678Y0066692D01*
X0078625Y0066765D02*
X0039262Y0066765D01*
X0039262Y0067363D02*
X0044711Y0067363D01*
X0045147Y0067183D02*
X0043456Y0067883D01*
X0042162Y0069177D01*
X0041462Y0070868D01*
X0041462Y0072698D01*
X0042162Y0074388D01*
X0043456Y0075682D01*
X0045147Y0076383D01*
X0046977Y0076383D01*
X0048667Y0075682D01*
X0049961Y0074388D01*
X0050662Y0072698D01*
X0050662Y0070868D01*
X0049961Y0069177D01*
X0048667Y0067883D01*
X0046977Y0067183D01*
X0045147Y0067183D01*
X0043377Y0067962D02*
X0039262Y0067962D01*
X0039262Y0068560D02*
X0042779Y0068560D01*
X0042180Y0069159D02*
X0039262Y0069159D01*
X0039262Y0069757D02*
X0041922Y0069757D01*
X0041674Y0070356D02*
X0039262Y0070356D01*
X0039262Y0070954D02*
X0041462Y0070954D01*
X0041462Y0071553D02*
X0039262Y0071553D01*
X0039262Y0072151D02*
X0041462Y0072151D01*
X0041483Y0072750D02*
X0039262Y0072750D01*
X0039262Y0073348D02*
X0041731Y0073348D01*
X0041979Y0073947D02*
X0039262Y0073947D01*
X0039262Y0074545D02*
X0042319Y0074545D01*
X0042918Y0075144D02*
X0039262Y0075144D01*
X0039262Y0075742D02*
X0043601Y0075742D01*
X0045046Y0076341D02*
X0039262Y0076341D01*
X0039262Y0076940D02*
X0077965Y0076940D01*
X0077874Y0076341D02*
X0064877Y0076341D01*
X0064777Y0076383D02*
X0062947Y0076383D01*
X0061256Y0075682D01*
X0059962Y0074388D01*
X0059262Y0072698D01*
X0059262Y0070868D01*
X0059962Y0069177D01*
X0061256Y0067883D01*
X0062947Y0067183D01*
X0064777Y0067183D01*
X0066467Y0067883D01*
X0067761Y0069177D01*
X0068462Y0070868D01*
X0068462Y0072698D01*
X0067761Y0074388D01*
X0066467Y0075682D01*
X0064777Y0076383D01*
X0066322Y0075742D02*
X0077874Y0075742D01*
X0077874Y0075144D02*
X0067006Y0075144D01*
X0067604Y0074545D02*
X0077874Y0074545D01*
X0077874Y0073947D02*
X0067944Y0073947D01*
X0068192Y0073348D02*
X0077874Y0073348D01*
X0078678Y0072750D02*
X0068440Y0072750D01*
X0068462Y0072151D02*
X0077874Y0072151D01*
X0077874Y0071553D02*
X0068462Y0071553D01*
X0068462Y0070954D02*
X0077874Y0070954D01*
X0077874Y0070356D02*
X0068250Y0070356D01*
X0068002Y0069757D02*
X0077874Y0069757D01*
X0077874Y0069159D02*
X0067743Y0069159D01*
X0067145Y0068560D02*
X0077935Y0068560D01*
X0078072Y0067962D02*
X0066546Y0067962D01*
X0065213Y0067363D02*
X0078296Y0067363D01*
X0078678Y0064969D02*
X0039262Y0064969D01*
X0039262Y0064371D02*
X0078678Y0064371D01*
X0082221Y0064969D02*
X0082821Y0064969D01*
X0082821Y0065568D02*
X0082221Y0065568D01*
X0082221Y0066166D02*
X0082821Y0066166D01*
X0082821Y0066765D02*
X0082221Y0066765D01*
X0082221Y0067363D02*
X0082821Y0067363D01*
X0082821Y0067962D02*
X0082221Y0067962D01*
X0082221Y0068560D02*
X0082821Y0068560D01*
X0082821Y0069159D02*
X0082221Y0069159D01*
X0082221Y0069757D02*
X0082821Y0069757D01*
X0082821Y0070356D02*
X0082221Y0070356D01*
X0082221Y0070954D02*
X0082821Y0070954D01*
X0082821Y0071553D02*
X0082221Y0071553D01*
X0082221Y0072151D02*
X0082821Y0072151D01*
X0087167Y0073947D02*
X0089641Y0073947D01*
X0089889Y0074545D02*
X0087167Y0074545D01*
X0087167Y0075144D02*
X0090137Y0075144D01*
X0090385Y0075742D02*
X0087167Y0075742D01*
X0087167Y0076341D02*
X0090648Y0076341D01*
X0090882Y0076940D02*
X0091246Y0076940D01*
X0091482Y0077538D02*
X0090882Y0077538D01*
X0090882Y0078137D02*
X0091482Y0078137D01*
X0091482Y0078735D02*
X0090882Y0078735D01*
X0090882Y0079334D02*
X0091482Y0079334D01*
X0091482Y0079932D02*
X0090882Y0079932D01*
X0090133Y0076940D02*
X0087076Y0076940D01*
X0086907Y0077538D02*
X0088845Y0077538D01*
X0088153Y0078137D02*
X0086647Y0078137D01*
X0086277Y0078735D02*
X0087689Y0078735D01*
X0087377Y0079334D02*
X0085758Y0079334D01*
X0085014Y0079932D02*
X0087181Y0079932D01*
X0087082Y0080531D02*
X0083613Y0080531D01*
X0080028Y0079932D02*
X0079671Y0079932D01*
X0078678Y0079932D02*
X0039262Y0079932D01*
X0039262Y0079334D02*
X0078678Y0079334D01*
X0078678Y0078735D02*
X0039262Y0078735D01*
X0039262Y0078137D02*
X0078395Y0078137D01*
X0078135Y0077538D02*
X0039262Y0077538D01*
X0039262Y0080531D02*
X0078678Y0080531D01*
X0078678Y0081129D02*
X0039262Y0081129D01*
X0039262Y0081728D02*
X0078678Y0081728D01*
X0078678Y0082326D02*
X0039262Y0082326D01*
X0039262Y0082925D02*
X0078678Y0082925D01*
X0078678Y0083523D02*
X0039262Y0083523D01*
X0039262Y0084122D02*
X0078678Y0084122D01*
X0079671Y0083523D02*
X0087991Y0083523D01*
X0087589Y0082925D02*
X0079671Y0082925D01*
X0079671Y0082326D02*
X0087316Y0082326D01*
X0087148Y0081728D02*
X0079671Y0081728D01*
X0087139Y0089508D02*
X0039262Y0089508D01*
X0039262Y0088910D02*
X0087738Y0088910D01*
X0088336Y0088311D02*
X0039262Y0088311D01*
X0039262Y0087713D02*
X0088935Y0087713D01*
X0089533Y0087114D02*
X0039262Y0087114D01*
X0039262Y0086516D02*
X0090132Y0086516D01*
X0090730Y0085917D02*
X0039262Y0085917D01*
X0039262Y0085319D02*
X0091329Y0085319D01*
X0091482Y0084720D02*
X0090882Y0084720D01*
X0089583Y0084720D02*
X0039262Y0084720D01*
X0039262Y0090107D02*
X0086541Y0090107D01*
X0085942Y0090705D02*
X0039262Y0090705D01*
X0039262Y0091304D02*
X0085344Y0091304D01*
X0085162Y0091902D02*
X0039262Y0091902D01*
X0039262Y0092501D02*
X0062723Y0092501D01*
X0062691Y0092506D02*
X0063468Y0092383D01*
X0063562Y0092383D01*
X0063562Y0097083D01*
X0058862Y0097083D01*
X0058862Y0096989D01*
X0058985Y0096212D01*
X0059228Y0095463D01*
X0059585Y0094762D01*
X0060048Y0094125D01*
X0060605Y0093569D01*
X0061241Y0093106D01*
X0061942Y0092749D01*
X0062691Y0092506D01*
X0063562Y0092501D02*
X0064162Y0092501D01*
X0064162Y0092383D02*
X0064255Y0092383D01*
X0065033Y0092506D01*
X0065781Y0092749D01*
X0066482Y0093106D01*
X0067119Y0093569D01*
X0067676Y0094125D01*
X0068138Y0094762D01*
X0068495Y0095463D01*
X0068739Y0096212D01*
X0068862Y0096989D01*
X0068862Y0097083D01*
X0064162Y0097083D01*
X0064162Y0097683D01*
X0063562Y0097683D01*
X0063562Y0102383D01*
X0063468Y0102383D01*
X0062691Y0102260D01*
X0061942Y0102016D01*
X0061241Y0101659D01*
X0060605Y0101196D01*
X0060048Y0100640D01*
X0059585Y0100003D01*
X0059228Y0099302D01*
X0058985Y0098554D01*
X0058862Y0097776D01*
X0058862Y0097683D01*
X0063562Y0097683D01*
X0063562Y0097083D01*
X0064162Y0097083D01*
X0064162Y0092383D01*
X0064162Y0093099D02*
X0063562Y0093099D01*
X0063562Y0093698D02*
X0064162Y0093698D01*
X0064162Y0094296D02*
X0063562Y0094296D01*
X0063562Y0094895D02*
X0064162Y0094895D01*
X0064162Y0095493D02*
X0063562Y0095493D01*
X0063562Y0096092D02*
X0064162Y0096092D01*
X0064162Y0096690D02*
X0063562Y0096690D01*
X0063562Y0097289D02*
X0050662Y0097289D01*
X0050662Y0097887D02*
X0058879Y0097887D01*
X0058974Y0098486D02*
X0050584Y0098486D01*
X0050336Y0099084D02*
X0059157Y0099084D01*
X0059422Y0099683D02*
X0050088Y0099683D01*
X0049668Y0100281D02*
X0059788Y0100281D01*
X0060288Y0100880D02*
X0049070Y0100880D01*
X0048194Y0101478D02*
X0060993Y0101478D01*
X0062129Y0102077D02*
X0046762Y0102077D01*
X0046762Y0102675D02*
X0085162Y0102675D01*
X0085162Y0102077D02*
X0065595Y0102077D01*
X0065781Y0102016D02*
X0065033Y0102260D01*
X0064255Y0102383D01*
X0064162Y0102383D01*
X0064162Y0097683D01*
X0068862Y0097683D01*
X0068862Y0097776D01*
X0068739Y0098554D01*
X0068495Y0099302D01*
X0068138Y0100003D01*
X0067676Y0100640D01*
X0067119Y0101196D01*
X0066482Y0101659D01*
X0065781Y0102016D01*
X0066731Y0101478D02*
X0085162Y0101478D01*
X0085162Y0100880D02*
X0067436Y0100880D01*
X0067936Y0100281D02*
X0085162Y0100281D01*
X0085162Y0099683D02*
X0068301Y0099683D01*
X0068566Y0099084D02*
X0085162Y0099084D01*
X0085162Y0098486D02*
X0068749Y0098486D01*
X0068844Y0097887D02*
X0085162Y0097887D01*
X0085162Y0097289D02*
X0064162Y0097289D01*
X0064162Y0097887D02*
X0063562Y0097887D01*
X0063562Y0098486D02*
X0064162Y0098486D01*
X0064162Y0099084D02*
X0063562Y0099084D01*
X0063562Y0099683D02*
X0064162Y0099683D01*
X0064162Y0100281D02*
X0063562Y0100281D01*
X0063562Y0100880D02*
X0064162Y0100880D01*
X0064162Y0101478D02*
X0063562Y0101478D01*
X0063562Y0102077D02*
X0064162Y0102077D01*
X0068814Y0096690D02*
X0085162Y0096690D01*
X0085162Y0096092D02*
X0068700Y0096092D01*
X0068505Y0095493D02*
X0085162Y0095493D01*
X0085162Y0094895D02*
X0068206Y0094895D01*
X0067800Y0094296D02*
X0085162Y0094296D01*
X0085162Y0093698D02*
X0067248Y0093698D01*
X0066469Y0093099D02*
X0085162Y0093099D01*
X0085162Y0092501D02*
X0065001Y0092501D01*
X0061255Y0093099D02*
X0047741Y0093099D01*
X0048882Y0093698D02*
X0060476Y0093698D01*
X0059924Y0094296D02*
X0049481Y0094296D01*
X0050010Y0094895D02*
X0059518Y0094895D01*
X0059218Y0095493D02*
X0050258Y0095493D01*
X0050506Y0096092D02*
X0059024Y0096092D01*
X0058909Y0096690D02*
X0050662Y0096690D01*
X0046062Y0097383D02*
X0045562Y0097383D01*
X0045562Y0108783D01*
X0043762Y0110583D01*
X0043762Y0166383D01*
X0050962Y0173583D01*
X0050962Y0178383D01*
X0057562Y0184983D01*
X0050362Y0192183D01*
X0050362Y0226983D01*
X0049446Y0227764D02*
X0039262Y0227764D01*
X0039262Y0227166D02*
X0049162Y0227166D01*
X0049162Y0226567D02*
X0039262Y0226567D01*
X0039262Y0225969D02*
X0049162Y0225969D01*
X0049162Y0225370D02*
X0039262Y0225370D01*
X0039262Y0224772D02*
X0049162Y0224772D01*
X0049162Y0224173D02*
X0039262Y0224173D01*
X0039262Y0223575D02*
X0049162Y0223575D01*
X0049162Y0222976D02*
X0039262Y0222976D01*
X0039262Y0222378D02*
X0049162Y0222378D01*
X0049162Y0221779D02*
X0039262Y0221779D01*
X0039262Y0221181D02*
X0049162Y0221181D01*
X0049162Y0220582D02*
X0039262Y0220582D01*
X0039262Y0219984D02*
X0049162Y0219984D01*
X0049162Y0219385D02*
X0039262Y0219385D01*
X0039262Y0218787D02*
X0049162Y0218787D01*
X0049162Y0218188D02*
X0039262Y0218188D01*
X0039262Y0217590D02*
X0049162Y0217590D01*
X0049162Y0216991D02*
X0039262Y0216991D01*
X0039262Y0216393D02*
X0049162Y0216393D01*
X0049162Y0215794D02*
X0039262Y0215794D01*
X0039262Y0215196D02*
X0049162Y0215196D01*
X0049162Y0214597D02*
X0039262Y0214597D01*
X0039262Y0213999D02*
X0049162Y0213999D01*
X0049162Y0213400D02*
X0039262Y0213400D01*
X0039262Y0212802D02*
X0049162Y0212802D01*
X0049162Y0212203D02*
X0039262Y0212203D01*
X0039262Y0211605D02*
X0049162Y0211605D01*
X0049162Y0211006D02*
X0039262Y0211006D01*
X0039262Y0210408D02*
X0049162Y0210408D01*
X0049162Y0209809D02*
X0039262Y0209809D01*
X0039262Y0209211D02*
X0049162Y0209211D01*
X0049162Y0208612D02*
X0039262Y0208612D01*
X0039262Y0208013D02*
X0049162Y0208013D01*
X0049162Y0207415D02*
X0039262Y0207415D01*
X0039262Y0206816D02*
X0049162Y0206816D01*
X0049162Y0206218D02*
X0039262Y0206218D01*
X0039262Y0205619D02*
X0049162Y0205619D01*
X0049162Y0205021D02*
X0039262Y0205021D01*
X0039262Y0204422D02*
X0049162Y0204422D01*
X0049162Y0203824D02*
X0039262Y0203824D01*
X0039262Y0203225D02*
X0049162Y0203225D01*
X0049162Y0202627D02*
X0039262Y0202627D01*
X0039262Y0202028D02*
X0049162Y0202028D01*
X0049162Y0201430D02*
X0039262Y0201430D01*
X0039262Y0200831D02*
X0049162Y0200831D01*
X0049162Y0200233D02*
X0039262Y0200233D01*
X0039262Y0199634D02*
X0049162Y0199634D01*
X0049162Y0199036D02*
X0039262Y0199036D01*
X0039262Y0198437D02*
X0049162Y0198437D01*
X0049162Y0197839D02*
X0039262Y0197839D01*
X0039262Y0197240D02*
X0049162Y0197240D01*
X0049162Y0196642D02*
X0039262Y0196642D01*
X0039262Y0196043D02*
X0049162Y0196043D01*
X0049162Y0195445D02*
X0039262Y0195445D01*
X0039262Y0194846D02*
X0049162Y0194846D01*
X0049162Y0194248D02*
X0039262Y0194248D01*
X0039262Y0193649D02*
X0049162Y0193649D01*
X0049162Y0193051D02*
X0039262Y0193051D01*
X0039262Y0192452D02*
X0049162Y0192452D01*
X0049162Y0191854D02*
X0039262Y0191854D01*
X0039262Y0191255D02*
X0049592Y0191255D01*
X0050191Y0190657D02*
X0039262Y0190657D01*
X0039262Y0190058D02*
X0050789Y0190058D01*
X0051388Y0189460D02*
X0039262Y0189460D01*
X0039262Y0188861D02*
X0051986Y0188861D01*
X0052585Y0188263D02*
X0039262Y0188263D01*
X0039262Y0187664D02*
X0053183Y0187664D01*
X0053782Y0187066D02*
X0039262Y0187066D01*
X0039262Y0186467D02*
X0054380Y0186467D01*
X0054979Y0185869D02*
X0039262Y0185869D01*
X0039262Y0185270D02*
X0055577Y0185270D01*
X0055554Y0184672D02*
X0039262Y0184672D01*
X0039262Y0184073D02*
X0054955Y0184073D01*
X0054357Y0183475D02*
X0039262Y0183475D01*
X0039262Y0182876D02*
X0053758Y0182876D01*
X0053160Y0182277D02*
X0039262Y0182277D01*
X0039262Y0181679D02*
X0052561Y0181679D01*
X0051963Y0181080D02*
X0039262Y0181080D01*
X0039262Y0180482D02*
X0051364Y0180482D01*
X0050766Y0179883D02*
X0039262Y0179883D01*
X0039262Y0179285D02*
X0050167Y0179285D01*
X0049762Y0178686D02*
X0039262Y0178686D01*
X0039262Y0178088D02*
X0044224Y0178088D01*
X0043657Y0177489D02*
X0039262Y0177489D01*
X0039262Y0176891D02*
X0043544Y0176891D01*
X0043544Y0176292D02*
X0039262Y0176292D01*
X0039262Y0175694D02*
X0043544Y0175694D01*
X0043544Y0175095D02*
X0039262Y0175095D01*
X0039262Y0174497D02*
X0046118Y0174497D01*
X0046119Y0175095D02*
X0046718Y0175095D01*
X0046719Y0174497D02*
X0049762Y0174497D01*
X0049762Y0175095D02*
X0049293Y0175095D01*
X0049293Y0175694D02*
X0049762Y0175694D01*
X0049762Y0176292D02*
X0049293Y0176292D01*
X0049293Y0176891D02*
X0049762Y0176891D01*
X0049762Y0177489D02*
X0049180Y0177489D01*
X0048613Y0178088D02*
X0049762Y0178088D01*
X0049580Y0173898D02*
X0049293Y0173898D01*
X0050580Y0171504D02*
X0051374Y0171504D01*
X0052162Y0170906D02*
X0049982Y0170906D01*
X0049383Y0170307D02*
X0052162Y0170307D01*
X0052162Y0169709D02*
X0048785Y0169709D01*
X0048186Y0169110D02*
X0052162Y0169110D01*
X0052162Y0168512D02*
X0047588Y0168512D01*
X0046989Y0167913D02*
X0052162Y0167913D01*
X0052162Y0167315D02*
X0046391Y0167315D01*
X0045792Y0166716D02*
X0052162Y0166716D01*
X0052162Y0166118D02*
X0045194Y0166118D01*
X0044962Y0165519D02*
X0052162Y0165519D01*
X0052162Y0164921D02*
X0044962Y0164921D01*
X0044962Y0164322D02*
X0052162Y0164322D01*
X0052162Y0163724D02*
X0044962Y0163724D01*
X0044962Y0163125D02*
X0052162Y0163125D01*
X0052162Y0162527D02*
X0044962Y0162527D01*
X0044962Y0161928D02*
X0052162Y0161928D01*
X0052162Y0161330D02*
X0044962Y0161330D01*
X0044962Y0160731D02*
X0052162Y0160731D01*
X0052162Y0160133D02*
X0044962Y0160133D01*
X0044962Y0159534D02*
X0052162Y0159534D01*
X0052162Y0158936D02*
X0044962Y0158936D01*
X0044962Y0158337D02*
X0052162Y0158337D01*
X0051451Y0157739D02*
X0049036Y0157739D01*
X0049287Y0157140D02*
X0051030Y0157140D01*
X0051030Y0156542D02*
X0049293Y0156542D01*
X0049293Y0155943D02*
X0051030Y0155943D01*
X0051030Y0155344D02*
X0049293Y0155344D01*
X0049293Y0154147D02*
X0051030Y0154147D01*
X0051030Y0153549D02*
X0049293Y0153549D01*
X0049293Y0152950D02*
X0051030Y0152950D01*
X0051030Y0152352D02*
X0049293Y0152352D01*
X0049214Y0151753D02*
X0051125Y0151753D01*
X0052162Y0151155D02*
X0048748Y0151155D01*
X0052162Y0150556D02*
X0044962Y0150556D01*
X0044962Y0149958D02*
X0052162Y0149958D01*
X0052162Y0149359D02*
X0044962Y0149359D01*
X0044962Y0148761D02*
X0052162Y0148761D01*
X0052162Y0148162D02*
X0044962Y0148162D01*
X0044962Y0147564D02*
X0052162Y0147564D01*
X0052162Y0146965D02*
X0044962Y0146965D01*
X0044962Y0146367D02*
X0052162Y0146367D01*
X0052162Y0145768D02*
X0044962Y0145768D01*
X0044962Y0145170D02*
X0052162Y0145170D01*
X0052162Y0144571D02*
X0044962Y0144571D01*
X0044962Y0143973D02*
X0052162Y0143973D01*
X0052162Y0143374D02*
X0044962Y0143374D01*
X0044962Y0142776D02*
X0052162Y0142776D01*
X0052162Y0142177D02*
X0044962Y0142177D01*
X0044962Y0141579D02*
X0052162Y0141579D01*
X0052162Y0140980D02*
X0044962Y0140980D01*
X0044962Y0140382D02*
X0052162Y0140382D01*
X0052162Y0139783D02*
X0044962Y0139783D01*
X0044962Y0139185D02*
X0052162Y0139185D01*
X0052162Y0138586D02*
X0044962Y0138586D01*
X0046119Y0137988D02*
X0046718Y0137988D01*
X0046718Y0137389D02*
X0046119Y0137389D01*
X0046119Y0136791D02*
X0046718Y0136791D01*
X0046718Y0136192D02*
X0046119Y0136192D01*
X0046119Y0135594D02*
X0046718Y0135594D01*
X0046718Y0134995D02*
X0046119Y0134995D01*
X0046719Y0134397D02*
X0051030Y0134397D01*
X0051030Y0134995D02*
X0049293Y0134995D01*
X0049293Y0135594D02*
X0051030Y0135594D01*
X0051030Y0136192D02*
X0049293Y0136192D01*
X0049293Y0136791D02*
X0051030Y0136791D01*
X0051102Y0137389D02*
X0049220Y0137389D01*
X0048787Y0137988D02*
X0052162Y0137988D01*
X0054562Y0137988D02*
X0066896Y0137988D01*
X0066896Y0138586D02*
X0054562Y0138586D01*
X0054562Y0139185D02*
X0066896Y0139185D01*
X0066896Y0139783D02*
X0054562Y0139783D01*
X0054562Y0140382D02*
X0067008Y0140382D01*
X0066896Y0140270D02*
X0066896Y0135588D01*
X0067424Y0135061D01*
X0071943Y0135061D01*
X0070987Y0134105D01*
X0067424Y0134105D01*
X0066896Y0133578D01*
X0066896Y0128895D01*
X0067424Y0128368D01*
X0072500Y0128368D01*
X0073027Y0128895D01*
X0073027Y0132751D01*
X0081312Y0141036D01*
X0081312Y0140478D01*
X0081839Y0139951D01*
X0087633Y0139951D01*
X0085162Y0137480D01*
X0085162Y0136486D01*
X0085162Y0125086D01*
X0085865Y0124383D01*
X0086918Y0123329D01*
X0086918Y0122600D01*
X0087140Y0122378D01*
X0086918Y0122156D01*
X0086918Y0120041D01*
X0087140Y0119819D01*
X0086918Y0119597D01*
X0086918Y0119583D01*
X0075014Y0119583D01*
X0074724Y0119872D01*
X0070369Y0119872D01*
X0055980Y0134262D01*
X0055980Y0137318D01*
X0055453Y0137845D01*
X0054562Y0137845D01*
X0054562Y0151320D01*
X0055453Y0151320D01*
X0055980Y0151848D01*
X0055980Y0157318D01*
X0055453Y0157845D01*
X0054562Y0157845D01*
X0054562Y0171320D01*
X0055453Y0171320D01*
X0055980Y0171848D01*
X0055980Y0173583D01*
X0063550Y0173583D01*
X0063550Y0172241D01*
X0064077Y0171714D01*
X0067933Y0171714D01*
X0076265Y0163383D01*
X0081091Y0163383D01*
X0081000Y0163225D01*
X0080912Y0162895D01*
X0080912Y0162074D01*
X0085462Y0162074D01*
X0085462Y0161974D01*
X0080912Y0161974D01*
X0080912Y0161152D01*
X0081000Y0160822D01*
X0081172Y0160525D01*
X0081312Y0160385D01*
X0081312Y0158392D01*
X0081519Y0158185D01*
X0081312Y0157978D01*
X0081312Y0155833D01*
X0081519Y0155626D01*
X0081312Y0155419D01*
X0081312Y0153274D01*
X0081519Y0153067D01*
X0081312Y0152860D01*
X0081312Y0152230D01*
X0080962Y0151880D01*
X0079762Y0150680D01*
X0079762Y0142880D01*
X0073027Y0136145D01*
X0073027Y0140270D01*
X0072500Y0140798D01*
X0071362Y0140798D01*
X0071362Y0149155D01*
X0071909Y0149155D01*
X0072437Y0149682D01*
X0072437Y0153578D01*
X0071909Y0154105D01*
X0068014Y0154105D01*
X0067487Y0153578D01*
X0067487Y0149682D01*
X0068014Y0149155D01*
X0068962Y0149155D01*
X0068962Y0140798D01*
X0067424Y0140798D01*
X0066896Y0140270D01*
X0068962Y0140980D02*
X0054562Y0140980D01*
X0054562Y0141579D02*
X0068962Y0141579D01*
X0068962Y0142177D02*
X0054562Y0142177D01*
X0054562Y0142776D02*
X0068962Y0142776D01*
X0068962Y0143374D02*
X0054562Y0143374D01*
X0054562Y0143973D02*
X0068962Y0143973D01*
X0068962Y0144571D02*
X0054562Y0144571D01*
X0054562Y0145170D02*
X0068962Y0145170D01*
X0068962Y0145768D02*
X0054562Y0145768D01*
X0054562Y0146367D02*
X0068962Y0146367D01*
X0068962Y0146965D02*
X0054562Y0146965D01*
X0054562Y0147564D02*
X0068962Y0147564D01*
X0068962Y0148162D02*
X0054562Y0148162D01*
X0054562Y0148761D02*
X0068962Y0148761D01*
X0067810Y0149359D02*
X0054562Y0149359D01*
X0054562Y0149958D02*
X0067487Y0149958D01*
X0067487Y0150556D02*
X0054562Y0150556D01*
X0054562Y0151155D02*
X0067487Y0151155D01*
X0067487Y0151753D02*
X0055886Y0151753D01*
X0055980Y0152352D02*
X0067487Y0152352D01*
X0067487Y0152950D02*
X0055980Y0152950D01*
X0055980Y0153549D02*
X0067487Y0153549D01*
X0067885Y0154749D02*
X0068216Y0154661D01*
X0069662Y0154661D01*
X0069662Y0157235D01*
X0070262Y0157235D01*
X0070262Y0154661D01*
X0071708Y0154661D01*
X0072038Y0154749D01*
X0072335Y0154920D01*
X0072577Y0155162D01*
X0072748Y0155459D01*
X0072837Y0155789D01*
X0072837Y0157235D01*
X0070262Y0157235D01*
X0070262Y0157835D01*
X0072837Y0157835D01*
X0072837Y0159281D01*
X0072748Y0159612D01*
X0072577Y0159908D01*
X0072335Y0160150D01*
X0072038Y0160322D01*
X0071708Y0160410D01*
X0070262Y0160410D01*
X0070262Y0157835D01*
X0069662Y0157835D01*
X0069662Y0157235D01*
X0067087Y0157235D01*
X0067087Y0155789D01*
X0067176Y0155459D01*
X0067347Y0155162D01*
X0067589Y0154920D01*
X0067885Y0154749D01*
X0067897Y0154746D02*
X0055980Y0154746D01*
X0055980Y0155344D02*
X0067242Y0155344D01*
X0067087Y0155943D02*
X0055980Y0155943D01*
X0055980Y0156542D02*
X0067087Y0156542D01*
X0067087Y0157140D02*
X0055980Y0157140D01*
X0055559Y0157739D02*
X0069662Y0157739D01*
X0069662Y0157835D02*
X0067087Y0157835D01*
X0067087Y0159281D01*
X0067176Y0159612D01*
X0067347Y0159908D01*
X0067589Y0160150D01*
X0067885Y0160322D01*
X0068216Y0160410D01*
X0069662Y0160410D01*
X0069662Y0157835D01*
X0069662Y0158337D02*
X0070262Y0158337D01*
X0070262Y0157739D02*
X0081312Y0157739D01*
X0081312Y0157140D02*
X0072837Y0157140D01*
X0072837Y0156542D02*
X0081312Y0156542D01*
X0081312Y0155943D02*
X0072837Y0155943D01*
X0072682Y0155344D02*
X0081312Y0155344D01*
X0081312Y0154746D02*
X0072026Y0154746D01*
X0072437Y0153549D02*
X0081312Y0153549D01*
X0081312Y0154147D02*
X0055980Y0154147D01*
X0053505Y0154583D02*
X0053362Y0154983D01*
X0053362Y0174183D01*
X0053505Y0174583D01*
X0053962Y0174783D01*
X0066562Y0174783D01*
X0066615Y0174583D01*
X0067162Y0174183D01*
X0076762Y0164583D01*
X0085512Y0164583D01*
X0085162Y0167583D02*
X0082162Y0167583D01*
X0075562Y0174183D01*
X0073762Y0174183D01*
X0073308Y0174583D01*
X0073162Y0174783D01*
X0070162Y0177783D01*
X0064762Y0177783D01*
X0057562Y0184983D01*
X0058373Y0185869D02*
X0081312Y0185869D01*
X0081312Y0186128D02*
X0081312Y0183982D01*
X0081519Y0183776D01*
X0081312Y0183569D01*
X0081312Y0181423D01*
X0081519Y0181217D01*
X0081312Y0181010D01*
X0081312Y0178864D01*
X0081519Y0178657D01*
X0081312Y0178451D01*
X0081312Y0176305D01*
X0081519Y0176098D01*
X0081312Y0175892D01*
X0081312Y0173746D01*
X0081519Y0173539D01*
X0081312Y0173333D01*
X0081312Y0171187D01*
X0081519Y0170980D01*
X0081312Y0170774D01*
X0081312Y0170130D01*
X0076374Y0175068D01*
X0076374Y0176924D01*
X0075846Y0177451D01*
X0072190Y0177451D01*
X0070659Y0178983D01*
X0065259Y0178983D01*
X0058762Y0185480D01*
X0058059Y0186183D01*
X0054259Y0189983D01*
X0055877Y0189983D01*
X0057567Y0190683D01*
X0058861Y0191977D01*
X0059562Y0193668D01*
X0059562Y0195498D01*
X0058861Y0197188D01*
X0057567Y0198482D01*
X0055877Y0199183D01*
X0054047Y0199183D01*
X0052356Y0198482D01*
X0051562Y0197688D01*
X0051562Y0201477D01*
X0052356Y0200683D01*
X0054047Y0199983D01*
X0055877Y0199983D01*
X0057567Y0200683D01*
X0058861Y0201977D01*
X0058981Y0202266D01*
X0062362Y0198886D01*
X0062372Y0198875D01*
X0062341Y0198859D01*
X0061705Y0198396D01*
X0061148Y0197840D01*
X0060685Y0197203D01*
X0060328Y0196502D01*
X0060085Y0195754D01*
X0059962Y0194976D01*
X0059962Y0194883D01*
X0064662Y0194883D01*
X0064662Y0194283D01*
X0059962Y0194283D01*
X0059962Y0194189D01*
X0060085Y0193412D01*
X0060328Y0192663D01*
X0060685Y0191962D01*
X0061148Y0191325D01*
X0061705Y0190769D01*
X0062341Y0190306D01*
X0063042Y0189949D01*
X0063791Y0189706D01*
X0064568Y0189583D01*
X0064662Y0189583D01*
X0064662Y0194283D01*
X0065262Y0194283D01*
X0065262Y0194883D01*
X0069962Y0194883D01*
X0069962Y0194976D01*
X0069839Y0195754D01*
X0069595Y0196502D01*
X0069238Y0197203D01*
X0068776Y0197840D01*
X0068433Y0198183D01*
X0076265Y0198183D01*
X0082773Y0191675D01*
X0082773Y0189993D01*
X0083552Y0189214D01*
X0081839Y0189214D01*
X0081312Y0188687D01*
X0081312Y0186541D01*
X0081519Y0186335D01*
X0081312Y0186128D01*
X0081386Y0186467D02*
X0057774Y0186467D01*
X0058059Y0186183D02*
X0058059Y0186183D01*
X0058762Y0185480D02*
X0058762Y0185480D01*
X0058971Y0185270D02*
X0081312Y0185270D01*
X0081312Y0184672D02*
X0059570Y0184672D01*
X0060168Y0184073D02*
X0081312Y0184073D01*
X0081312Y0183475D02*
X0060767Y0183475D01*
X0061366Y0182876D02*
X0081312Y0182876D01*
X0081312Y0182277D02*
X0061964Y0182277D01*
X0062563Y0181679D02*
X0081312Y0181679D01*
X0081382Y0181080D02*
X0063161Y0181080D01*
X0063760Y0180482D02*
X0081312Y0180482D01*
X0081312Y0179883D02*
X0064358Y0179883D01*
X0064957Y0179285D02*
X0081312Y0179285D01*
X0081490Y0178686D02*
X0070955Y0178686D01*
X0071554Y0178088D02*
X0081312Y0178088D01*
X0081312Y0177489D02*
X0072152Y0177489D01*
X0076374Y0176891D02*
X0081312Y0176891D01*
X0081325Y0176292D02*
X0076374Y0176292D01*
X0076374Y0175694D02*
X0081312Y0175694D01*
X0081312Y0175095D02*
X0076374Y0175095D01*
X0076945Y0174497D02*
X0081312Y0174497D01*
X0081312Y0173898D02*
X0077543Y0173898D01*
X0078142Y0173300D02*
X0081312Y0173300D01*
X0081312Y0172701D02*
X0078740Y0172701D01*
X0079339Y0172103D02*
X0081312Y0172103D01*
X0081312Y0171504D02*
X0079937Y0171504D01*
X0080536Y0170906D02*
X0081444Y0170906D01*
X0081312Y0170307D02*
X0081134Y0170307D01*
X0085512Y0174819D02*
X0085762Y0175383D01*
X0085762Y0177183D01*
X0085512Y0177378D01*
X0085762Y0177783D01*
X0088762Y0177783D01*
X0091162Y0180183D01*
X0091162Y0190983D01*
X0069562Y0212583D01*
X0070162Y0209583D02*
X0059962Y0209583D01*
X0054962Y0214583D01*
X0054962Y0204583D02*
X0055162Y0204183D01*
X0058762Y0204183D01*
X0063562Y0199383D01*
X0076762Y0199383D01*
X0085162Y0190983D01*
X0083306Y0189460D02*
X0054782Y0189460D01*
X0055380Y0188861D02*
X0081486Y0188861D01*
X0081312Y0188263D02*
X0055979Y0188263D01*
X0056577Y0187664D02*
X0081312Y0187664D01*
X0081312Y0187066D02*
X0057176Y0187066D01*
X0056059Y0190058D02*
X0062828Y0190058D01*
X0061859Y0190657D02*
X0057504Y0190657D01*
X0058140Y0191255D02*
X0061218Y0191255D01*
X0060764Y0191854D02*
X0058738Y0191854D01*
X0059058Y0192452D02*
X0060436Y0192452D01*
X0060202Y0193051D02*
X0059306Y0193051D01*
X0059554Y0193649D02*
X0060047Y0193649D01*
X0059962Y0194248D02*
X0059562Y0194248D01*
X0059562Y0194846D02*
X0064662Y0194846D01*
X0064662Y0194248D02*
X0065262Y0194248D01*
X0065262Y0194283D02*
X0065262Y0189583D01*
X0065355Y0189583D01*
X0066133Y0189706D01*
X0066881Y0189949D01*
X0067582Y0190306D01*
X0068219Y0190769D01*
X0068776Y0191325D01*
X0069238Y0191962D01*
X0069595Y0192663D01*
X0069839Y0193412D01*
X0069962Y0194189D01*
X0069962Y0194283D01*
X0065262Y0194283D01*
X0065262Y0194846D02*
X0079601Y0194846D01*
X0080200Y0194248D02*
X0069962Y0194248D01*
X0069876Y0193649D02*
X0080798Y0193649D01*
X0081397Y0193051D02*
X0069721Y0193051D01*
X0069488Y0192452D02*
X0081995Y0192452D01*
X0082594Y0191854D02*
X0069159Y0191854D01*
X0068705Y0191255D02*
X0082773Y0191255D01*
X0082773Y0190657D02*
X0068065Y0190657D01*
X0067095Y0190058D02*
X0082773Y0190058D01*
X0085512Y0185055D02*
X0088762Y0184983D01*
X0089962Y0186183D01*
X0089962Y0189783D01*
X0070162Y0209583D01*
X0062212Y0199036D02*
X0056231Y0199036D01*
X0056481Y0200233D02*
X0061015Y0200233D01*
X0061613Y0199634D02*
X0051562Y0199634D01*
X0051562Y0199036D02*
X0053692Y0199036D01*
X0053443Y0200233D02*
X0051562Y0200233D01*
X0051562Y0200831D02*
X0052208Y0200831D01*
X0051609Y0201430D02*
X0051562Y0201430D01*
X0051562Y0198437D02*
X0052311Y0198437D01*
X0051713Y0197839D02*
X0051562Y0197839D01*
X0057613Y0198437D02*
X0061761Y0198437D01*
X0061147Y0197839D02*
X0058211Y0197839D01*
X0058810Y0197240D02*
X0060712Y0197240D01*
X0060399Y0196642D02*
X0059088Y0196642D01*
X0059336Y0196043D02*
X0060179Y0196043D01*
X0060036Y0195445D02*
X0059562Y0195445D01*
X0064662Y0193649D02*
X0065262Y0193649D01*
X0065262Y0193051D02*
X0064662Y0193051D01*
X0064662Y0192452D02*
X0065262Y0192452D01*
X0065262Y0191854D02*
X0064662Y0191854D01*
X0064662Y0191255D02*
X0065262Y0191255D01*
X0065262Y0190657D02*
X0064662Y0190657D01*
X0064662Y0190058D02*
X0065262Y0190058D01*
X0069888Y0195445D02*
X0079003Y0195445D01*
X0078404Y0196043D02*
X0069745Y0196043D01*
X0069524Y0196642D02*
X0077806Y0196642D01*
X0077207Y0197240D02*
X0069211Y0197240D01*
X0068776Y0197839D02*
X0076609Y0197839D01*
X0085512Y0185055D02*
X0085762Y0184983D01*
X0088762Y0184983D01*
X0089962Y0183783D01*
X0089962Y0181383D01*
X0088762Y0180183D01*
X0085762Y0180183D01*
X0085512Y0179937D01*
X0080974Y0163125D02*
X0054562Y0163125D01*
X0054562Y0162527D02*
X0080912Y0162527D01*
X0080912Y0161928D02*
X0054562Y0161928D01*
X0054562Y0161330D02*
X0080912Y0161330D01*
X0081053Y0160731D02*
X0054562Y0160731D01*
X0054562Y0160133D02*
X0067571Y0160133D01*
X0067155Y0159534D02*
X0054562Y0159534D01*
X0054562Y0158936D02*
X0067087Y0158936D01*
X0067087Y0158337D02*
X0054562Y0158337D01*
X0053505Y0154583D02*
X0053362Y0154383D01*
X0053362Y0134583D01*
X0053505Y0134583D01*
X0053962Y0134583D01*
X0071962Y0116583D01*
X0069686Y0114583D01*
X0070162Y0114783D01*
X0071962Y0116583D01*
X0073762Y0118383D01*
X0086362Y0118383D01*
X0086926Y0120032D02*
X0070209Y0120032D01*
X0069611Y0120631D02*
X0086918Y0120631D01*
X0086918Y0121229D02*
X0069012Y0121229D01*
X0068414Y0121828D02*
X0086918Y0121828D01*
X0087091Y0122426D02*
X0067815Y0122426D01*
X0067217Y0123025D02*
X0086918Y0123025D01*
X0086624Y0123623D02*
X0066618Y0123623D01*
X0066020Y0124222D02*
X0086026Y0124222D01*
X0085427Y0124820D02*
X0065421Y0124820D01*
X0064823Y0125419D02*
X0085162Y0125419D01*
X0085162Y0126017D02*
X0064224Y0126017D01*
X0063626Y0126616D02*
X0085162Y0126616D01*
X0085162Y0127214D02*
X0063027Y0127214D01*
X0062429Y0127813D02*
X0085162Y0127813D01*
X0085162Y0128411D02*
X0072544Y0128411D01*
X0073027Y0129010D02*
X0085162Y0129010D01*
X0085162Y0129609D02*
X0073027Y0129609D01*
X0073027Y0130207D02*
X0085162Y0130207D01*
X0085162Y0130806D02*
X0073027Y0130806D01*
X0073027Y0131404D02*
X0085162Y0131404D01*
X0085162Y0132003D02*
X0073027Y0132003D01*
X0073027Y0132601D02*
X0085162Y0132601D01*
X0085162Y0133200D02*
X0073476Y0133200D01*
X0074074Y0133798D02*
X0085162Y0133798D01*
X0085162Y0134397D02*
X0074673Y0134397D01*
X0075271Y0134995D02*
X0085162Y0134995D01*
X0085162Y0135594D02*
X0075870Y0135594D01*
X0076468Y0136192D02*
X0085162Y0136192D01*
X0085162Y0136791D02*
X0077067Y0136791D01*
X0077665Y0137389D02*
X0085162Y0137389D01*
X0085670Y0137988D02*
X0078264Y0137988D01*
X0078862Y0138586D02*
X0086268Y0138586D01*
X0086867Y0139185D02*
X0079461Y0139185D01*
X0080059Y0139783D02*
X0087465Y0139783D01*
X0081408Y0140382D02*
X0080658Y0140382D01*
X0081256Y0140980D02*
X0081312Y0140980D01*
X0080962Y0142383D02*
X0080962Y0150183D01*
X0082162Y0151383D01*
X0085162Y0151383D01*
X0085512Y0151787D01*
X0081312Y0152352D02*
X0072437Y0152352D01*
X0072437Y0152950D02*
X0081402Y0152950D01*
X0080836Y0151753D02*
X0072437Y0151753D01*
X0072437Y0151155D02*
X0080237Y0151155D01*
X0079762Y0150556D02*
X0072437Y0150556D01*
X0072437Y0149958D02*
X0079762Y0149958D01*
X0079762Y0149359D02*
X0072114Y0149359D01*
X0071362Y0148761D02*
X0079762Y0148761D01*
X0079762Y0148162D02*
X0071362Y0148162D01*
X0071362Y0147564D02*
X0079762Y0147564D01*
X0079762Y0146965D02*
X0071362Y0146965D01*
X0071362Y0146367D02*
X0079762Y0146367D01*
X0079762Y0145768D02*
X0071362Y0145768D01*
X0071362Y0145170D02*
X0079762Y0145170D01*
X0079762Y0144571D02*
X0071362Y0144571D01*
X0071362Y0143973D02*
X0079762Y0143973D01*
X0079762Y0143374D02*
X0071362Y0143374D01*
X0071362Y0142776D02*
X0079658Y0142776D01*
X0079059Y0142177D02*
X0071362Y0142177D01*
X0071362Y0141579D02*
X0078461Y0141579D01*
X0077862Y0140980D02*
X0071362Y0140980D01*
X0072916Y0140382D02*
X0077264Y0140382D01*
X0076665Y0139783D02*
X0073027Y0139783D01*
X0073027Y0139185D02*
X0076067Y0139185D01*
X0075468Y0138586D02*
X0073027Y0138586D01*
X0073027Y0137988D02*
X0074870Y0137988D01*
X0074271Y0137389D02*
X0073027Y0137389D01*
X0073027Y0136791D02*
X0073673Y0136791D01*
X0073074Y0136192D02*
X0073027Y0136192D01*
X0071877Y0134995D02*
X0055980Y0134995D01*
X0055980Y0134397D02*
X0071279Y0134397D01*
X0070162Y0131583D02*
X0069962Y0131236D01*
X0070162Y0131583D02*
X0080962Y0142383D01*
X0070162Y0138183D02*
X0069962Y0137929D01*
X0070162Y0138183D02*
X0070162Y0151383D01*
X0069962Y0151630D01*
X0069662Y0154746D02*
X0070262Y0154746D01*
X0070262Y0155344D02*
X0069662Y0155344D01*
X0069662Y0155943D02*
X0070262Y0155943D01*
X0070262Y0156542D02*
X0069662Y0156542D01*
X0069662Y0157140D02*
X0070262Y0157140D01*
X0070262Y0158936D02*
X0069662Y0158936D01*
X0069662Y0159534D02*
X0070262Y0159534D01*
X0070262Y0160133D02*
X0069662Y0160133D01*
X0072353Y0160133D02*
X0081312Y0160133D01*
X0081312Y0159534D02*
X0072769Y0159534D01*
X0072837Y0158936D02*
X0081312Y0158936D01*
X0081367Y0158337D02*
X0072837Y0158337D01*
X0075924Y0163724D02*
X0054562Y0163724D01*
X0054562Y0164322D02*
X0075325Y0164322D01*
X0074727Y0164921D02*
X0054562Y0164921D01*
X0054562Y0165519D02*
X0074128Y0165519D01*
X0073530Y0166118D02*
X0054562Y0166118D01*
X0054562Y0166716D02*
X0072931Y0166716D01*
X0072333Y0167315D02*
X0054562Y0167315D01*
X0054562Y0167913D02*
X0071734Y0167913D01*
X0071136Y0168512D02*
X0054562Y0168512D01*
X0054562Y0169110D02*
X0070537Y0169110D01*
X0069939Y0169709D02*
X0054562Y0169709D01*
X0054562Y0170307D02*
X0069340Y0170307D01*
X0068742Y0170906D02*
X0054562Y0170906D01*
X0055637Y0171504D02*
X0068143Y0171504D01*
X0063689Y0172103D02*
X0055980Y0172103D01*
X0055980Y0172701D02*
X0063550Y0172701D01*
X0063550Y0173300D02*
X0055980Y0173300D01*
X0046718Y0173300D02*
X0046119Y0173300D01*
X0046119Y0173898D02*
X0046718Y0173898D01*
X0046718Y0172701D02*
X0046119Y0172701D01*
X0046119Y0172103D02*
X0046718Y0172103D01*
X0046718Y0171504D02*
X0046119Y0171504D01*
X0046588Y0170906D02*
X0039262Y0170906D01*
X0039262Y0171504D02*
X0043756Y0171504D01*
X0043544Y0172103D02*
X0039262Y0172103D01*
X0039262Y0172701D02*
X0043544Y0172701D01*
X0043544Y0173300D02*
X0039262Y0173300D01*
X0039262Y0173898D02*
X0043544Y0173898D01*
X0046119Y0175694D02*
X0046718Y0175694D01*
X0046718Y0176292D02*
X0046119Y0176292D01*
X0046119Y0176891D02*
X0046718Y0176891D01*
X0046718Y0177489D02*
X0046119Y0177489D01*
X0046119Y0178088D02*
X0046718Y0178088D01*
X0045989Y0170307D02*
X0039262Y0170307D01*
X0039262Y0169709D02*
X0045391Y0169709D01*
X0044792Y0169110D02*
X0039262Y0169110D01*
X0039262Y0168512D02*
X0044194Y0168512D01*
X0043595Y0167913D02*
X0039262Y0167913D01*
X0039262Y0167315D02*
X0042997Y0167315D01*
X0042562Y0166716D02*
X0039262Y0166716D01*
X0039262Y0166118D02*
X0042562Y0166118D01*
X0042562Y0165519D02*
X0039262Y0165519D01*
X0039262Y0164921D02*
X0042562Y0164921D01*
X0042562Y0164322D02*
X0039262Y0164322D01*
X0039262Y0163724D02*
X0042562Y0163724D01*
X0042562Y0163125D02*
X0039262Y0163125D01*
X0039262Y0162527D02*
X0042562Y0162527D01*
X0042562Y0161928D02*
X0039262Y0161928D01*
X0039262Y0161330D02*
X0042562Y0161330D01*
X0042562Y0160731D02*
X0039262Y0160731D01*
X0039262Y0160133D02*
X0042562Y0160133D01*
X0042562Y0159534D02*
X0039262Y0159534D01*
X0039262Y0158936D02*
X0042562Y0158936D01*
X0042562Y0158337D02*
X0039262Y0158337D01*
X0039262Y0157739D02*
X0042562Y0157739D01*
X0042562Y0157140D02*
X0039262Y0157140D01*
X0039262Y0156542D02*
X0042562Y0156542D01*
X0042562Y0155943D02*
X0039262Y0155943D01*
X0039262Y0155344D02*
X0042562Y0155344D01*
X0042562Y0154746D02*
X0039262Y0154746D01*
X0039262Y0154147D02*
X0042562Y0154147D01*
X0042562Y0153549D02*
X0039262Y0153549D01*
X0039262Y0152950D02*
X0042562Y0152950D01*
X0042562Y0152352D02*
X0039262Y0152352D01*
X0039262Y0151753D02*
X0042562Y0151753D01*
X0042562Y0151155D02*
X0039262Y0151155D01*
X0039262Y0150556D02*
X0042562Y0150556D01*
X0042562Y0149958D02*
X0039262Y0149958D01*
X0039262Y0149359D02*
X0042562Y0149359D01*
X0042562Y0148761D02*
X0039262Y0148761D01*
X0039262Y0148162D02*
X0042562Y0148162D01*
X0042562Y0147564D02*
X0039262Y0147564D01*
X0039262Y0146965D02*
X0042562Y0146965D01*
X0042562Y0146367D02*
X0039262Y0146367D01*
X0039262Y0145768D02*
X0042562Y0145768D01*
X0042562Y0145170D02*
X0039262Y0145170D01*
X0039262Y0144571D02*
X0042562Y0144571D01*
X0042562Y0143973D02*
X0039262Y0143973D01*
X0039262Y0143374D02*
X0042562Y0143374D01*
X0042562Y0142776D02*
X0039262Y0142776D01*
X0039262Y0142177D02*
X0042562Y0142177D01*
X0042562Y0141579D02*
X0039262Y0141579D01*
X0039262Y0140980D02*
X0042562Y0140980D01*
X0042562Y0140382D02*
X0039262Y0140382D01*
X0039262Y0139783D02*
X0042562Y0139783D01*
X0042562Y0139185D02*
X0039262Y0139185D01*
X0039262Y0138586D02*
X0042562Y0138586D01*
X0042562Y0137988D02*
X0039262Y0137988D01*
X0039262Y0137389D02*
X0042562Y0137389D01*
X0042562Y0136791D02*
X0039262Y0136791D01*
X0039262Y0136192D02*
X0042562Y0136192D01*
X0042562Y0135594D02*
X0039262Y0135594D01*
X0039262Y0134995D02*
X0042562Y0134995D01*
X0042562Y0134397D02*
X0039262Y0134397D01*
X0039262Y0133798D02*
X0042562Y0133798D01*
X0042562Y0133200D02*
X0039262Y0133200D01*
X0039262Y0132601D02*
X0042562Y0132601D01*
X0042562Y0132003D02*
X0039262Y0132003D01*
X0039262Y0131404D02*
X0042562Y0131404D01*
X0042562Y0130806D02*
X0039262Y0130806D01*
X0039262Y0130207D02*
X0042562Y0130207D01*
X0042562Y0129609D02*
X0039262Y0129609D01*
X0039262Y0129010D02*
X0042562Y0129010D01*
X0042562Y0128411D02*
X0039262Y0128411D01*
X0039262Y0127813D02*
X0042562Y0127813D01*
X0042562Y0127214D02*
X0039262Y0127214D01*
X0039262Y0126616D02*
X0042562Y0126616D01*
X0042562Y0126017D02*
X0039262Y0126017D01*
X0039262Y0125419D02*
X0042562Y0125419D01*
X0042562Y0124820D02*
X0039262Y0124820D01*
X0039262Y0124222D02*
X0042562Y0124222D01*
X0042562Y0123623D02*
X0039262Y0123623D01*
X0039262Y0123025D02*
X0042562Y0123025D01*
X0042562Y0122426D02*
X0039262Y0122426D01*
X0039262Y0121828D02*
X0042562Y0121828D01*
X0042562Y0121229D02*
X0039262Y0121229D01*
X0039262Y0120631D02*
X0042562Y0120631D01*
X0042562Y0120032D02*
X0039262Y0120032D01*
X0039262Y0119434D02*
X0042562Y0119434D01*
X0042562Y0118835D02*
X0039262Y0118835D01*
X0039262Y0118237D02*
X0042562Y0118237D01*
X0042562Y0117638D02*
X0039262Y0117638D01*
X0039262Y0117040D02*
X0042562Y0117040D01*
X0042562Y0116441D02*
X0039262Y0116441D01*
X0039262Y0115843D02*
X0042562Y0115843D01*
X0042562Y0115244D02*
X0039262Y0115244D01*
X0039262Y0114646D02*
X0042562Y0114646D01*
X0042562Y0114047D02*
X0039262Y0114047D01*
X0039262Y0113449D02*
X0042562Y0113449D01*
X0042562Y0112850D02*
X0039262Y0112850D01*
X0039262Y0112252D02*
X0042562Y0112252D01*
X0042562Y0111653D02*
X0039262Y0111653D01*
X0039262Y0111055D02*
X0042562Y0111055D01*
X0042562Y0110456D02*
X0039262Y0110456D01*
X0039262Y0109858D02*
X0042790Y0109858D01*
X0043388Y0109259D02*
X0039262Y0109259D01*
X0039262Y0108661D02*
X0043987Y0108661D01*
X0044362Y0108062D02*
X0039262Y0108062D01*
X0039262Y0107464D02*
X0044362Y0107464D01*
X0044362Y0106865D02*
X0039262Y0106865D01*
X0039262Y0106267D02*
X0044362Y0106267D01*
X0044362Y0105668D02*
X0039262Y0105668D01*
X0039262Y0105070D02*
X0044362Y0105070D01*
X0044362Y0104471D02*
X0039262Y0104471D01*
X0039262Y0103873D02*
X0044362Y0103873D01*
X0044362Y0103274D02*
X0039262Y0103274D01*
X0039262Y0102675D02*
X0044362Y0102675D01*
X0044362Y0102077D02*
X0039262Y0102077D01*
X0039262Y0101478D02*
X0043930Y0101478D01*
X0043054Y0100880D02*
X0039262Y0100880D01*
X0039262Y0100281D02*
X0042455Y0100281D01*
X0042036Y0099683D02*
X0039262Y0099683D01*
X0039262Y0099084D02*
X0041788Y0099084D01*
X0041540Y0098486D02*
X0039262Y0098486D01*
X0039262Y0097887D02*
X0041462Y0097887D01*
X0041462Y0097289D02*
X0039262Y0097289D01*
X0039262Y0096690D02*
X0041462Y0096690D01*
X0041617Y0096092D02*
X0039262Y0096092D01*
X0039262Y0095493D02*
X0041865Y0095493D01*
X0042113Y0094895D02*
X0039262Y0094895D01*
X0039262Y0094296D02*
X0042643Y0094296D01*
X0043241Y0093698D02*
X0039262Y0093698D01*
X0039262Y0093099D02*
X0044382Y0093099D01*
X0046762Y0103274D02*
X0085162Y0103274D01*
X0085162Y0103873D02*
X0046762Y0103873D01*
X0046762Y0104471D02*
X0085162Y0104471D01*
X0085162Y0105070D02*
X0046762Y0105070D01*
X0046762Y0105668D02*
X0085162Y0105668D01*
X0085162Y0106267D02*
X0046762Y0106267D01*
X0046762Y0106865D02*
X0085162Y0106865D01*
X0085162Y0107464D02*
X0046762Y0107464D01*
X0046762Y0108062D02*
X0085162Y0108062D01*
X0085162Y0108661D02*
X0046762Y0108661D01*
X0049937Y0109259D02*
X0050537Y0109259D01*
X0050537Y0109858D02*
X0049937Y0109858D01*
X0049937Y0110456D02*
X0050537Y0110456D01*
X0050537Y0111055D02*
X0049937Y0111055D01*
X0049937Y0111653D02*
X0050537Y0111653D01*
X0050537Y0112252D02*
X0049937Y0112252D01*
X0049937Y0112850D02*
X0050537Y0112850D01*
X0050537Y0113449D02*
X0049937Y0113449D01*
X0049937Y0114047D02*
X0050537Y0114047D01*
X0050537Y0114646D02*
X0064121Y0114646D01*
X0064121Y0115244D02*
X0056203Y0115244D01*
X0056203Y0114883D02*
X0056203Y0119144D01*
X0056114Y0119474D01*
X0055943Y0119771D01*
X0055701Y0120013D01*
X0055405Y0120184D01*
X0055074Y0120272D01*
X0050537Y0120272D01*
X0050537Y0114883D01*
X0056203Y0114883D01*
X0056203Y0114047D02*
X0064121Y0114047D01*
X0064121Y0113449D02*
X0056203Y0113449D01*
X0056203Y0112850D02*
X0064121Y0112850D01*
X0064121Y0112252D02*
X0056203Y0112252D01*
X0056203Y0111653D02*
X0064121Y0111653D01*
X0064121Y0111055D02*
X0056203Y0111055D01*
X0056203Y0110456D02*
X0064121Y0110456D01*
X0064121Y0109858D02*
X0056159Y0109858D01*
X0055807Y0109259D02*
X0085162Y0109259D01*
X0085162Y0109858D02*
X0075252Y0109858D01*
X0075252Y0110456D02*
X0085162Y0110456D01*
X0085162Y0111055D02*
X0075252Y0111055D01*
X0075252Y0111653D02*
X0085162Y0111653D01*
X0085162Y0112252D02*
X0075252Y0112252D01*
X0075252Y0112850D02*
X0085162Y0112850D01*
X0085162Y0113449D02*
X0075252Y0113449D01*
X0075252Y0114047D02*
X0085162Y0114047D01*
X0085162Y0114646D02*
X0075252Y0114646D01*
X0075252Y0115244D02*
X0085162Y0115244D01*
X0085162Y0115843D02*
X0075252Y0115843D01*
X0075252Y0116441D02*
X0085162Y0116441D01*
X0085162Y0117040D02*
X0075252Y0117040D01*
X0066815Y0120032D02*
X0055667Y0120032D01*
X0056125Y0119434D02*
X0064209Y0119434D01*
X0064121Y0118835D02*
X0056203Y0118835D01*
X0056203Y0118237D02*
X0064121Y0118237D01*
X0064121Y0117638D02*
X0056203Y0117638D01*
X0056203Y0117040D02*
X0064121Y0117040D01*
X0064121Y0116441D02*
X0056203Y0116441D01*
X0056203Y0115843D02*
X0064121Y0115843D01*
X0066217Y0120631D02*
X0044962Y0120631D01*
X0044962Y0121229D02*
X0065618Y0121229D01*
X0065020Y0121828D02*
X0044962Y0121828D01*
X0044962Y0122426D02*
X0064421Y0122426D01*
X0063823Y0123025D02*
X0044962Y0123025D01*
X0044962Y0123623D02*
X0063224Y0123623D01*
X0062626Y0124222D02*
X0044962Y0124222D01*
X0044962Y0124820D02*
X0062027Y0124820D01*
X0061429Y0125419D02*
X0044962Y0125419D01*
X0044962Y0126017D02*
X0060830Y0126017D01*
X0060231Y0126616D02*
X0044962Y0126616D01*
X0044962Y0127214D02*
X0059633Y0127214D01*
X0059034Y0127813D02*
X0044962Y0127813D01*
X0044962Y0128411D02*
X0058436Y0128411D01*
X0057837Y0129010D02*
X0044962Y0129010D01*
X0044962Y0129609D02*
X0057239Y0129609D01*
X0056640Y0130207D02*
X0044962Y0130207D01*
X0044962Y0130806D02*
X0056042Y0130806D01*
X0057640Y0132601D02*
X0066896Y0132601D01*
X0066896Y0132003D02*
X0058239Y0132003D01*
X0058837Y0131404D02*
X0066896Y0131404D01*
X0066896Y0130806D02*
X0059436Y0130806D01*
X0060035Y0130207D02*
X0066896Y0130207D01*
X0066896Y0129609D02*
X0060633Y0129609D01*
X0061232Y0129010D02*
X0066896Y0129010D01*
X0067380Y0128411D02*
X0061830Y0128411D01*
X0057042Y0133200D02*
X0066896Y0133200D01*
X0067117Y0133798D02*
X0056443Y0133798D01*
X0055980Y0135594D02*
X0066896Y0135594D01*
X0066896Y0136192D02*
X0055980Y0136192D01*
X0055980Y0136791D02*
X0066896Y0136791D01*
X0066896Y0137389D02*
X0055908Y0137389D01*
X0051030Y0133798D02*
X0049293Y0133798D01*
X0049293Y0133200D02*
X0051030Y0133200D01*
X0051030Y0132601D02*
X0049293Y0132601D01*
X0049281Y0132003D02*
X0051030Y0132003D01*
X0051474Y0131404D02*
X0049015Y0131404D01*
X0046718Y0131404D02*
X0046119Y0131404D01*
X0046119Y0132003D02*
X0046718Y0132003D01*
X0046718Y0132601D02*
X0046119Y0132601D01*
X0046119Y0133200D02*
X0046718Y0133200D01*
X0046718Y0133798D02*
X0046119Y0133798D01*
X0049937Y0120032D02*
X0050537Y0120032D01*
X0050537Y0119434D02*
X0049937Y0119434D01*
X0049937Y0118835D02*
X0050537Y0118835D01*
X0050537Y0118237D02*
X0049937Y0118237D01*
X0049937Y0117638D02*
X0050537Y0117638D01*
X0050537Y0117040D02*
X0049937Y0117040D01*
X0049937Y0116441D02*
X0050537Y0116441D01*
X0050537Y0115843D02*
X0049937Y0115843D01*
X0049937Y0115244D02*
X0050537Y0115244D01*
X0046718Y0151155D02*
X0046119Y0151155D01*
X0046119Y0151753D02*
X0046718Y0151753D01*
X0046718Y0152352D02*
X0046119Y0152352D01*
X0046119Y0152950D02*
X0046718Y0152950D01*
X0046718Y0153549D02*
X0046119Y0153549D01*
X0046119Y0154147D02*
X0046718Y0154147D01*
X0046719Y0154746D02*
X0051030Y0154746D01*
X0046718Y0155344D02*
X0046119Y0155344D01*
X0046119Y0155943D02*
X0046718Y0155943D01*
X0046718Y0156542D02*
X0046119Y0156542D01*
X0046119Y0157140D02*
X0046718Y0157140D01*
X0046718Y0157739D02*
X0046119Y0157739D01*
X0057716Y0200831D02*
X0060416Y0200831D01*
X0059818Y0201430D02*
X0058314Y0201430D01*
X0058883Y0202028D02*
X0059219Y0202028D01*
X0050045Y0228363D02*
X0039262Y0228363D01*
X0039262Y0228961D02*
X0050643Y0228961D01*
X0051242Y0229560D02*
X0039262Y0229560D01*
X0039262Y0230158D02*
X0051841Y0230158D01*
X0094230Y0229560D02*
X0095694Y0229560D01*
X0095637Y0228961D02*
X0094287Y0228961D01*
X0094287Y0228363D02*
X0095637Y0228363D01*
X0095637Y0227764D02*
X0094287Y0227764D01*
X0094287Y0227166D02*
X0095637Y0227166D01*
X0132290Y0230158D02*
X0147634Y0230158D01*
X0146562Y0229560D02*
X0133362Y0229560D01*
X0134104Y0228961D02*
X0145820Y0228961D01*
X0145261Y0228363D02*
X0134663Y0228363D01*
X0135097Y0227764D02*
X0144826Y0227764D01*
X0144516Y0227166D02*
X0135408Y0227166D01*
X0135652Y0226567D02*
X0144272Y0226567D01*
X0144081Y0225969D02*
X0135842Y0225969D01*
X0135937Y0225370D02*
X0143986Y0225370D01*
X0143937Y0224173D02*
X0135987Y0224173D01*
X0135902Y0223575D02*
X0144021Y0223575D01*
X0144149Y0222976D02*
X0135775Y0222976D01*
X0135580Y0222378D02*
X0144343Y0222378D01*
X0144628Y0221779D02*
X0135295Y0221779D01*
X0134937Y0221181D02*
X0144986Y0221181D01*
X0145442Y0220582D02*
X0134482Y0220582D01*
X0133882Y0219984D02*
X0146041Y0219984D01*
X0146891Y0219385D02*
X0142478Y0219385D01*
X0137445Y0219385D02*
X0133032Y0219385D01*
X0131621Y0218787D02*
X0136529Y0218787D01*
X0151621Y0218787D02*
X0159363Y0218787D01*
X0159363Y0219385D02*
X0153032Y0219385D01*
X0153882Y0219984D02*
X0159363Y0219984D01*
X0159363Y0220582D02*
X0154482Y0220582D01*
X0154937Y0221181D02*
X0159363Y0221181D01*
X0159363Y0221779D02*
X0155295Y0221779D01*
X0155580Y0222378D02*
X0159363Y0222378D01*
X0159363Y0222976D02*
X0155775Y0222976D01*
X0155902Y0223575D02*
X0159363Y0223575D01*
X0159363Y0224173D02*
X0155987Y0224173D01*
X0100162Y0124983D02*
X0096562Y0121383D01*
X0100961Y0076940D02*
X0108963Y0076940D01*
X0130161Y0065568D02*
X0130252Y0065568D01*
X0143362Y0091902D02*
X0143392Y0091902D01*
X0146531Y0091902D02*
X0147827Y0091902D01*
X0147323Y0091304D02*
X0147130Y0091304D01*
X0155362Y0078735D02*
X0159363Y0078735D01*
X0159363Y0078137D02*
X0155362Y0078137D01*
X0155362Y0077538D02*
X0159363Y0077538D01*
X0159363Y0076940D02*
X0155362Y0076940D01*
X0155362Y0076341D02*
X0159363Y0076341D01*
X0159363Y0075742D02*
X0155362Y0075742D01*
X0155362Y0075144D02*
X0159363Y0075144D01*
X0159363Y0074545D02*
X0155362Y0074545D01*
X0155362Y0073947D02*
X0159363Y0073947D01*
X0159363Y0073348D02*
X0155362Y0073348D01*
X0155362Y0072750D02*
X0159363Y0072750D01*
X0159363Y0072151D02*
X0155362Y0072151D01*
X0155362Y0071553D02*
X0159363Y0071553D01*
X0159363Y0070954D02*
X0155362Y0070954D01*
X0155362Y0070356D02*
X0159363Y0070356D01*
X0159363Y0069757D02*
X0155362Y0069757D01*
X0155362Y0069159D02*
X0159363Y0069159D01*
X0159363Y0068560D02*
X0155362Y0068560D01*
X0155362Y0067962D02*
X0159363Y0067962D01*
X0159363Y0067363D02*
X0155240Y0067363D01*
X0154641Y0066765D02*
X0159363Y0066765D01*
X0159363Y0066166D02*
X0154042Y0066166D01*
X0153444Y0065568D02*
X0159363Y0065568D01*
X0159363Y0064969D02*
X0152845Y0064969D01*
X0152247Y0064371D02*
X0159363Y0064371D01*
X0062511Y0067363D02*
X0047413Y0067363D01*
X0048746Y0067962D02*
X0061177Y0067962D01*
X0060579Y0068560D02*
X0049345Y0068560D01*
X0049943Y0069159D02*
X0059980Y0069159D01*
X0059722Y0069757D02*
X0050202Y0069757D01*
X0050450Y0070356D02*
X0059474Y0070356D01*
X0059262Y0070954D02*
X0050662Y0070954D01*
X0050662Y0071553D02*
X0059262Y0071553D01*
X0059262Y0072151D02*
X0050662Y0072151D01*
X0050640Y0072750D02*
X0059283Y0072750D01*
X0059531Y0073348D02*
X0050392Y0073348D01*
X0050144Y0073947D02*
X0059779Y0073947D01*
X0060119Y0074545D02*
X0049804Y0074545D01*
X0049206Y0075144D02*
X0060718Y0075144D01*
X0061401Y0075742D02*
X0048522Y0075742D01*
X0047077Y0076341D02*
X0062846Y0076341D01*
D31*
X0100162Y0121383D03*
X0097762Y0126183D03*
X0103162Y0135783D03*
X0091162Y0139383D03*
X0108562Y0167583D03*
X0108562Y0171183D03*
X0085162Y0190983D03*
X0071962Y0214383D03*
X0134962Y0168783D03*
X0113962Y0102783D03*
X0111562Y0093183D03*
X0114562Y0090783D03*
X0133762Y0085983D03*
M02*
