G75*
%MOIN*%
%OFA0B0*%
%FSLAX25Y25*%
%IPPOS*%
%LPD*%
%AMOC8*
5,1,8,0,0,1.08239X$1,22.5*
%
%ADD10C,0.04500*%
%ADD11C,0.05131*%
%ADD12C,0.06422*%
%ADD13R,0.06422X0.06422*%
%ADD14C,0.07493*%
%ADD15C,0.09800*%
%ADD16C,0.10250*%
%ADD17C,0.08200*%
%ADD18C,0.03778*%
D10*
X0144962Y0069583D03*
X0144962Y0074583D03*
X0144962Y0079583D03*
X0144962Y0084583D03*
X0144962Y0089583D03*
X0149962Y0089583D03*
X0149962Y0084583D03*
X0149962Y0079583D03*
X0149962Y0074583D03*
X0149962Y0069583D03*
D11*
X0113820Y0072654D03*
X0096104Y0072654D03*
D12*
X0101025Y0080921D03*
X0108899Y0080921D03*
X0091182Y0080921D03*
D13*
X0118741Y0080921D03*
D14*
X0127403Y0076000D02*
X0127403Y0069307D01*
X0082521Y0069307D02*
X0082521Y0076000D01*
D15*
X0139962Y0214583D03*
D16*
X0129962Y0224583D03*
X0129962Y0204583D03*
X0149962Y0204583D03*
X0149962Y0224583D03*
D17*
X0046062Y0071783D03*
X0063862Y0071783D03*
X0063862Y0097383D03*
X0046062Y0097383D03*
X0054962Y0194583D03*
X0054962Y0204583D03*
X0054962Y0214583D03*
X0054962Y0224583D03*
X0064962Y0224583D03*
X0064962Y0214583D03*
X0064962Y0204583D03*
X0064962Y0194583D03*
D18*
X0071962Y0214383D03*
X0085162Y0190983D03*
X0108562Y0171183D03*
X0108562Y0167583D03*
X0091162Y0139383D03*
X0097762Y0126183D03*
X0100162Y0121383D03*
X0103162Y0135783D03*
X0113962Y0102783D03*
X0111562Y0093183D03*
X0114562Y0090783D03*
X0133762Y0085983D03*
X0134962Y0168783D03*
M02*
