G75*
%MOIN*%
%OFA0B0*%
%FSLAX25Y25*%
%IPPOS*%
%LPD*%
%AMOC8*
5,1,8,0,0,1.08239X$1,22.5*
%
%ADD10C,0.00000*%
%ADD11C,0.01000*%
%ADD12C,0.00500*%
%ADD13C,0.00800*%
%ADD14C,0.00591*%
%ADD15C,0.01969*%
%ADD16C,0.00400*%
%ADD17R,0.00591X0.01181*%
%ADD18R,0.01181X0.01181*%
%ADD19C,0.00600*%
%ADD20R,0.01181X0.00591*%
%ADD21C,0.00100*%
%ADD22C,0.00300*%
D10*
X0034962Y0059583D02*
X0034962Y0234543D01*
X0163663Y0234543D01*
X0163663Y0059583D01*
X0034962Y0059583D01*
X0093939Y0072654D02*
X0093941Y0072747D01*
X0093947Y0072839D01*
X0093957Y0072931D01*
X0093971Y0073022D01*
X0093988Y0073113D01*
X0094010Y0073203D01*
X0094035Y0073292D01*
X0094064Y0073380D01*
X0094097Y0073466D01*
X0094134Y0073551D01*
X0094174Y0073635D01*
X0094218Y0073716D01*
X0094265Y0073796D01*
X0094315Y0073874D01*
X0094369Y0073949D01*
X0094426Y0074022D01*
X0094486Y0074092D01*
X0094549Y0074160D01*
X0094615Y0074225D01*
X0094683Y0074287D01*
X0094754Y0074347D01*
X0094828Y0074403D01*
X0094904Y0074456D01*
X0094982Y0074505D01*
X0095062Y0074552D01*
X0095144Y0074594D01*
X0095228Y0074634D01*
X0095313Y0074669D01*
X0095400Y0074701D01*
X0095488Y0074730D01*
X0095577Y0074754D01*
X0095667Y0074775D01*
X0095758Y0074791D01*
X0095850Y0074804D01*
X0095942Y0074813D01*
X0096035Y0074818D01*
X0096127Y0074819D01*
X0096220Y0074816D01*
X0096312Y0074809D01*
X0096404Y0074798D01*
X0096495Y0074783D01*
X0096586Y0074765D01*
X0096676Y0074742D01*
X0096764Y0074716D01*
X0096852Y0074686D01*
X0096938Y0074652D01*
X0097022Y0074615D01*
X0097105Y0074573D01*
X0097186Y0074529D01*
X0097266Y0074481D01*
X0097343Y0074430D01*
X0097417Y0074375D01*
X0097490Y0074317D01*
X0097560Y0074257D01*
X0097627Y0074193D01*
X0097691Y0074127D01*
X0097753Y0074057D01*
X0097811Y0073986D01*
X0097866Y0073912D01*
X0097918Y0073835D01*
X0097967Y0073756D01*
X0098013Y0073676D01*
X0098055Y0073593D01*
X0098093Y0073509D01*
X0098128Y0073423D01*
X0098159Y0073336D01*
X0098186Y0073248D01*
X0098209Y0073158D01*
X0098229Y0073068D01*
X0098245Y0072977D01*
X0098257Y0072885D01*
X0098265Y0072793D01*
X0098269Y0072700D01*
X0098269Y0072608D01*
X0098265Y0072515D01*
X0098257Y0072423D01*
X0098245Y0072331D01*
X0098229Y0072240D01*
X0098209Y0072150D01*
X0098186Y0072060D01*
X0098159Y0071972D01*
X0098128Y0071885D01*
X0098093Y0071799D01*
X0098055Y0071715D01*
X0098013Y0071632D01*
X0097967Y0071552D01*
X0097918Y0071473D01*
X0097866Y0071396D01*
X0097811Y0071322D01*
X0097753Y0071251D01*
X0097691Y0071181D01*
X0097627Y0071115D01*
X0097560Y0071051D01*
X0097490Y0070991D01*
X0097417Y0070933D01*
X0097343Y0070878D01*
X0097266Y0070827D01*
X0097187Y0070779D01*
X0097105Y0070735D01*
X0097022Y0070693D01*
X0096938Y0070656D01*
X0096852Y0070622D01*
X0096764Y0070592D01*
X0096676Y0070566D01*
X0096586Y0070543D01*
X0096495Y0070525D01*
X0096404Y0070510D01*
X0096312Y0070499D01*
X0096220Y0070492D01*
X0096127Y0070489D01*
X0096035Y0070490D01*
X0095942Y0070495D01*
X0095850Y0070504D01*
X0095758Y0070517D01*
X0095667Y0070533D01*
X0095577Y0070554D01*
X0095488Y0070578D01*
X0095400Y0070607D01*
X0095313Y0070639D01*
X0095228Y0070674D01*
X0095144Y0070714D01*
X0095062Y0070756D01*
X0094982Y0070803D01*
X0094904Y0070852D01*
X0094828Y0070905D01*
X0094754Y0070961D01*
X0094683Y0071021D01*
X0094615Y0071083D01*
X0094549Y0071148D01*
X0094486Y0071216D01*
X0094426Y0071286D01*
X0094369Y0071359D01*
X0094315Y0071434D01*
X0094265Y0071512D01*
X0094218Y0071592D01*
X0094174Y0071673D01*
X0094134Y0071757D01*
X0094097Y0071842D01*
X0094064Y0071928D01*
X0094035Y0072016D01*
X0094010Y0072105D01*
X0093988Y0072195D01*
X0093971Y0072286D01*
X0093957Y0072377D01*
X0093947Y0072469D01*
X0093941Y0072561D01*
X0093939Y0072654D01*
X0111655Y0072654D02*
X0111657Y0072747D01*
X0111663Y0072839D01*
X0111673Y0072931D01*
X0111687Y0073022D01*
X0111704Y0073113D01*
X0111726Y0073203D01*
X0111751Y0073292D01*
X0111780Y0073380D01*
X0111813Y0073466D01*
X0111850Y0073551D01*
X0111890Y0073635D01*
X0111934Y0073716D01*
X0111981Y0073796D01*
X0112031Y0073874D01*
X0112085Y0073949D01*
X0112142Y0074022D01*
X0112202Y0074092D01*
X0112265Y0074160D01*
X0112331Y0074225D01*
X0112399Y0074287D01*
X0112470Y0074347D01*
X0112544Y0074403D01*
X0112620Y0074456D01*
X0112698Y0074505D01*
X0112778Y0074552D01*
X0112860Y0074594D01*
X0112944Y0074634D01*
X0113029Y0074669D01*
X0113116Y0074701D01*
X0113204Y0074730D01*
X0113293Y0074754D01*
X0113383Y0074775D01*
X0113474Y0074791D01*
X0113566Y0074804D01*
X0113658Y0074813D01*
X0113751Y0074818D01*
X0113843Y0074819D01*
X0113936Y0074816D01*
X0114028Y0074809D01*
X0114120Y0074798D01*
X0114211Y0074783D01*
X0114302Y0074765D01*
X0114392Y0074742D01*
X0114480Y0074716D01*
X0114568Y0074686D01*
X0114654Y0074652D01*
X0114738Y0074615D01*
X0114821Y0074573D01*
X0114902Y0074529D01*
X0114982Y0074481D01*
X0115059Y0074430D01*
X0115133Y0074375D01*
X0115206Y0074317D01*
X0115276Y0074257D01*
X0115343Y0074193D01*
X0115407Y0074127D01*
X0115469Y0074057D01*
X0115527Y0073986D01*
X0115582Y0073912D01*
X0115634Y0073835D01*
X0115683Y0073756D01*
X0115729Y0073676D01*
X0115771Y0073593D01*
X0115809Y0073509D01*
X0115844Y0073423D01*
X0115875Y0073336D01*
X0115902Y0073248D01*
X0115925Y0073158D01*
X0115945Y0073068D01*
X0115961Y0072977D01*
X0115973Y0072885D01*
X0115981Y0072793D01*
X0115985Y0072700D01*
X0115985Y0072608D01*
X0115981Y0072515D01*
X0115973Y0072423D01*
X0115961Y0072331D01*
X0115945Y0072240D01*
X0115925Y0072150D01*
X0115902Y0072060D01*
X0115875Y0071972D01*
X0115844Y0071885D01*
X0115809Y0071799D01*
X0115771Y0071715D01*
X0115729Y0071632D01*
X0115683Y0071552D01*
X0115634Y0071473D01*
X0115582Y0071396D01*
X0115527Y0071322D01*
X0115469Y0071251D01*
X0115407Y0071181D01*
X0115343Y0071115D01*
X0115276Y0071051D01*
X0115206Y0070991D01*
X0115133Y0070933D01*
X0115059Y0070878D01*
X0114982Y0070827D01*
X0114903Y0070779D01*
X0114821Y0070735D01*
X0114738Y0070693D01*
X0114654Y0070656D01*
X0114568Y0070622D01*
X0114480Y0070592D01*
X0114392Y0070566D01*
X0114302Y0070543D01*
X0114211Y0070525D01*
X0114120Y0070510D01*
X0114028Y0070499D01*
X0113936Y0070492D01*
X0113843Y0070489D01*
X0113751Y0070490D01*
X0113658Y0070495D01*
X0113566Y0070504D01*
X0113474Y0070517D01*
X0113383Y0070533D01*
X0113293Y0070554D01*
X0113204Y0070578D01*
X0113116Y0070607D01*
X0113029Y0070639D01*
X0112944Y0070674D01*
X0112860Y0070714D01*
X0112778Y0070756D01*
X0112698Y0070803D01*
X0112620Y0070852D01*
X0112544Y0070905D01*
X0112470Y0070961D01*
X0112399Y0071021D01*
X0112331Y0071083D01*
X0112265Y0071148D01*
X0112202Y0071216D01*
X0112142Y0071286D01*
X0112085Y0071359D01*
X0112031Y0071434D01*
X0111981Y0071512D01*
X0111934Y0071592D01*
X0111890Y0071673D01*
X0111850Y0071757D01*
X0111813Y0071842D01*
X0111780Y0071928D01*
X0111751Y0072016D01*
X0111726Y0072105D01*
X0111704Y0072195D01*
X0111687Y0072286D01*
X0111673Y0072377D01*
X0111663Y0072469D01*
X0111657Y0072561D01*
X0111655Y0072654D01*
D11*
X0135320Y0072187D02*
X0139320Y0072187D01*
X0139320Y0071076D02*
X0139320Y0073298D01*
X0136209Y0071076D02*
X0135320Y0072187D01*
X0135320Y0068681D02*
X0138431Y0068681D01*
X0138489Y0068679D01*
X0138547Y0068673D01*
X0138604Y0068664D01*
X0138661Y0068651D01*
X0138717Y0068634D01*
X0138771Y0068613D01*
X0138824Y0068589D01*
X0138876Y0068562D01*
X0138925Y0068531D01*
X0138972Y0068497D01*
X0139017Y0068460D01*
X0139060Y0068421D01*
X0139099Y0068378D01*
X0139136Y0068333D01*
X0139170Y0068286D01*
X0139201Y0068237D01*
X0139228Y0068185D01*
X0139252Y0068132D01*
X0139273Y0068078D01*
X0139290Y0068022D01*
X0139303Y0067965D01*
X0139312Y0067908D01*
X0139318Y0067850D01*
X0139320Y0067792D01*
X0139320Y0067347D01*
X0124102Y0134169D02*
X0122768Y0134169D01*
X0124102Y0134169D02*
X0124160Y0134171D01*
X0124218Y0134177D01*
X0124275Y0134186D01*
X0124332Y0134199D01*
X0124388Y0134216D01*
X0124442Y0134237D01*
X0124495Y0134261D01*
X0124546Y0134288D01*
X0124596Y0134319D01*
X0124643Y0134353D01*
X0124688Y0134390D01*
X0124731Y0134429D01*
X0124770Y0134472D01*
X0124807Y0134517D01*
X0124841Y0134564D01*
X0124872Y0134613D01*
X0124899Y0134665D01*
X0124923Y0134718D01*
X0124944Y0134772D01*
X0124961Y0134828D01*
X0124974Y0134885D01*
X0124983Y0134942D01*
X0124989Y0135000D01*
X0124991Y0135058D01*
X0124990Y0135058D02*
X0124990Y0135503D01*
X0124991Y0135503D02*
X0124989Y0135561D01*
X0124983Y0135619D01*
X0124974Y0135676D01*
X0124961Y0135733D01*
X0124944Y0135789D01*
X0124923Y0135843D01*
X0124899Y0135896D01*
X0124872Y0135948D01*
X0124841Y0135997D01*
X0124807Y0136044D01*
X0124770Y0136089D01*
X0124731Y0136132D01*
X0124688Y0136171D01*
X0124643Y0136208D01*
X0124596Y0136242D01*
X0124547Y0136273D01*
X0124495Y0136300D01*
X0124442Y0136324D01*
X0124388Y0136345D01*
X0124332Y0136362D01*
X0124275Y0136375D01*
X0124218Y0136384D01*
X0124160Y0136390D01*
X0124102Y0136392D01*
X0122768Y0136392D01*
X0122768Y0138169D01*
X0124990Y0138169D01*
X0119652Y0135947D02*
X0120541Y0134169D01*
X0119430Y0135947D02*
X0118319Y0135947D01*
X0119430Y0135947D02*
X0119496Y0135949D01*
X0119561Y0135955D01*
X0119627Y0135965D01*
X0119691Y0135978D01*
X0119754Y0135995D01*
X0119817Y0136017D01*
X0119878Y0136041D01*
X0119937Y0136070D01*
X0119995Y0136101D01*
X0120051Y0136137D01*
X0120104Y0136175D01*
X0120155Y0136216D01*
X0120204Y0136261D01*
X0120250Y0136308D01*
X0120293Y0136358D01*
X0120333Y0136410D01*
X0120369Y0136465D01*
X0120403Y0136522D01*
X0120433Y0136580D01*
X0120460Y0136640D01*
X0120482Y0136702D01*
X0120502Y0136765D01*
X0120517Y0136829D01*
X0120529Y0136894D01*
X0120537Y0136959D01*
X0120541Y0137025D01*
X0120541Y0137091D01*
X0120537Y0137157D01*
X0120529Y0137222D01*
X0120517Y0137287D01*
X0120502Y0137351D01*
X0120482Y0137414D01*
X0120460Y0137476D01*
X0120433Y0137536D01*
X0120403Y0137594D01*
X0120369Y0137651D01*
X0120333Y0137706D01*
X0120293Y0137758D01*
X0120250Y0137808D01*
X0120204Y0137855D01*
X0120155Y0137900D01*
X0120104Y0137941D01*
X0120051Y0137979D01*
X0119995Y0138015D01*
X0119937Y0138046D01*
X0119878Y0138075D01*
X0119817Y0138099D01*
X0119754Y0138121D01*
X0119691Y0138138D01*
X0119627Y0138151D01*
X0119561Y0138161D01*
X0119496Y0138167D01*
X0119430Y0138169D01*
X0118319Y0138169D01*
X0118319Y0134169D01*
X0127893Y0188189D02*
X0128781Y0188189D01*
X0127893Y0188189D02*
X0127835Y0188191D01*
X0127777Y0188197D01*
X0127720Y0188206D01*
X0127663Y0188219D01*
X0127607Y0188236D01*
X0127553Y0188257D01*
X0127500Y0188281D01*
X0127449Y0188308D01*
X0127399Y0188339D01*
X0127352Y0188373D01*
X0127307Y0188410D01*
X0127264Y0188449D01*
X0127225Y0188492D01*
X0127188Y0188537D01*
X0127154Y0188584D01*
X0127123Y0188634D01*
X0127096Y0188685D01*
X0127072Y0188738D01*
X0127051Y0188792D01*
X0127034Y0188848D01*
X0127021Y0188905D01*
X0127012Y0188962D01*
X0127006Y0189020D01*
X0127004Y0189078D01*
X0127004Y0191300D01*
X0127006Y0191358D01*
X0127012Y0191416D01*
X0127021Y0191473D01*
X0127034Y0191530D01*
X0127051Y0191586D01*
X0127072Y0191640D01*
X0127096Y0191693D01*
X0127123Y0191744D01*
X0127154Y0191794D01*
X0127188Y0191841D01*
X0127225Y0191886D01*
X0127264Y0191929D01*
X0127307Y0191968D01*
X0127352Y0192005D01*
X0127399Y0192039D01*
X0127448Y0192070D01*
X0127500Y0192097D01*
X0127553Y0192121D01*
X0127607Y0192142D01*
X0127663Y0192159D01*
X0127720Y0192172D01*
X0127777Y0192181D01*
X0127835Y0192187D01*
X0127893Y0192189D01*
X0128781Y0192189D01*
X0131665Y0192189D02*
X0130777Y0189078D01*
X0132999Y0189078D01*
X0132332Y0189967D02*
X0132332Y0188189D01*
X0108044Y0202713D02*
X0105821Y0202713D01*
X0106932Y0202713D02*
X0106932Y0206713D01*
X0105821Y0205824D01*
X0103394Y0205601D02*
X0103394Y0203824D01*
X0103393Y0203824D02*
X0103391Y0203759D01*
X0103385Y0203695D01*
X0103376Y0203631D01*
X0103363Y0203568D01*
X0103346Y0203505D01*
X0103326Y0203444D01*
X0103302Y0203384D01*
X0103275Y0203325D01*
X0103244Y0203269D01*
X0103210Y0203213D01*
X0103173Y0203161D01*
X0103133Y0203110D01*
X0103090Y0203062D01*
X0103044Y0203016D01*
X0102996Y0202973D01*
X0102945Y0202933D01*
X0102893Y0202896D01*
X0102838Y0202862D01*
X0102781Y0202831D01*
X0102722Y0202804D01*
X0102662Y0202780D01*
X0102601Y0202760D01*
X0102538Y0202743D01*
X0102475Y0202730D01*
X0102411Y0202721D01*
X0102347Y0202715D01*
X0102282Y0202713D01*
X0101171Y0202713D01*
X0101171Y0206713D01*
X0102282Y0206713D01*
X0102282Y0206712D02*
X0102347Y0206710D01*
X0102411Y0206704D01*
X0102475Y0206695D01*
X0102538Y0206682D01*
X0102601Y0206665D01*
X0102662Y0206645D01*
X0102722Y0206621D01*
X0102781Y0206594D01*
X0102838Y0206563D01*
X0102893Y0206529D01*
X0102945Y0206492D01*
X0102996Y0206452D01*
X0103044Y0206409D01*
X0103090Y0206363D01*
X0103133Y0206315D01*
X0103173Y0206264D01*
X0103210Y0206211D01*
X0103244Y0206156D01*
X0103275Y0206100D01*
X0103302Y0206041D01*
X0103326Y0205981D01*
X0103346Y0205920D01*
X0103363Y0205857D01*
X0103376Y0205794D01*
X0103385Y0205730D01*
X0103391Y0205666D01*
X0103393Y0205601D01*
X0097959Y0205875D02*
X0097959Y0206097D01*
X0097957Y0206155D01*
X0097951Y0206213D01*
X0097942Y0206270D01*
X0097929Y0206327D01*
X0097912Y0206383D01*
X0097891Y0206437D01*
X0097867Y0206490D01*
X0097840Y0206542D01*
X0097809Y0206591D01*
X0097775Y0206638D01*
X0097738Y0206683D01*
X0097699Y0206726D01*
X0097656Y0206765D01*
X0097611Y0206802D01*
X0097564Y0206836D01*
X0097515Y0206867D01*
X0097463Y0206894D01*
X0097410Y0206918D01*
X0097356Y0206939D01*
X0097300Y0206956D01*
X0097243Y0206969D01*
X0097186Y0206978D01*
X0097128Y0206984D01*
X0097070Y0206986D01*
X0095737Y0206986D01*
X0095737Y0205875D01*
X0095739Y0205809D01*
X0095745Y0205744D01*
X0095755Y0205678D01*
X0095768Y0205614D01*
X0095785Y0205551D01*
X0095807Y0205488D01*
X0095831Y0205427D01*
X0095860Y0205368D01*
X0095891Y0205310D01*
X0095927Y0205254D01*
X0095965Y0205201D01*
X0096006Y0205150D01*
X0096051Y0205101D01*
X0096098Y0205055D01*
X0096148Y0205012D01*
X0096200Y0204972D01*
X0096255Y0204936D01*
X0096312Y0204902D01*
X0096370Y0204872D01*
X0096430Y0204845D01*
X0096492Y0204823D01*
X0096555Y0204803D01*
X0096619Y0204788D01*
X0096684Y0204776D01*
X0096749Y0204768D01*
X0096815Y0204764D01*
X0096881Y0204764D01*
X0096947Y0204768D01*
X0097012Y0204776D01*
X0097077Y0204788D01*
X0097141Y0204803D01*
X0097204Y0204823D01*
X0097266Y0204845D01*
X0097326Y0204872D01*
X0097384Y0204902D01*
X0097441Y0204936D01*
X0097496Y0204972D01*
X0097548Y0205012D01*
X0097598Y0205055D01*
X0097645Y0205101D01*
X0097690Y0205150D01*
X0097731Y0205201D01*
X0097769Y0205254D01*
X0097805Y0205310D01*
X0097836Y0205368D01*
X0097865Y0205427D01*
X0097889Y0205488D01*
X0097911Y0205551D01*
X0097928Y0205614D01*
X0097941Y0205678D01*
X0097951Y0205744D01*
X0097957Y0205809D01*
X0097959Y0205875D01*
X0095737Y0206986D02*
X0095739Y0207068D01*
X0095745Y0207150D01*
X0095754Y0207232D01*
X0095767Y0207313D01*
X0095784Y0207393D01*
X0095805Y0207473D01*
X0095829Y0207551D01*
X0095857Y0207628D01*
X0095888Y0207704D01*
X0095923Y0207779D01*
X0095962Y0207851D01*
X0096003Y0207922D01*
X0096048Y0207991D01*
X0096096Y0208057D01*
X0096147Y0208122D01*
X0096201Y0208184D01*
X0096258Y0208243D01*
X0096317Y0208300D01*
X0096379Y0208354D01*
X0096444Y0208405D01*
X0096510Y0208453D01*
X0096579Y0208498D01*
X0096650Y0208539D01*
X0096722Y0208578D01*
X0096797Y0208612D01*
X0096873Y0208644D01*
X0096950Y0208672D01*
X0097028Y0208696D01*
X0097108Y0208717D01*
X0097188Y0208734D01*
X0097269Y0208747D01*
X0097351Y0208756D01*
X0097433Y0208762D01*
X0097515Y0208764D01*
X0098308Y0212693D02*
X0100670Y0212693D01*
X0100670Y0221157D01*
X0091615Y0212693D02*
X0089253Y0212693D01*
X0089253Y0221157D01*
X0092853Y0208764D02*
X0093742Y0208764D01*
X0092853Y0208764D02*
X0092795Y0208762D01*
X0092737Y0208756D01*
X0092680Y0208747D01*
X0092623Y0208734D01*
X0092567Y0208717D01*
X0092513Y0208696D01*
X0092460Y0208672D01*
X0092408Y0208645D01*
X0092359Y0208614D01*
X0092312Y0208580D01*
X0092267Y0208543D01*
X0092224Y0208504D01*
X0092185Y0208461D01*
X0092148Y0208416D01*
X0092114Y0208369D01*
X0092083Y0208319D01*
X0092056Y0208268D01*
X0092032Y0208215D01*
X0092011Y0208161D01*
X0091994Y0208105D01*
X0091981Y0208048D01*
X0091972Y0207991D01*
X0091966Y0207933D01*
X0091964Y0207875D01*
X0091964Y0205653D01*
X0091966Y0205595D01*
X0091972Y0205537D01*
X0091981Y0205480D01*
X0091994Y0205423D01*
X0092011Y0205367D01*
X0092032Y0205313D01*
X0092056Y0205260D01*
X0092083Y0205209D01*
X0092114Y0205159D01*
X0092148Y0205112D01*
X0092185Y0205067D01*
X0092224Y0205024D01*
X0092267Y0204985D01*
X0092312Y0204948D01*
X0092359Y0204914D01*
X0092409Y0204883D01*
X0092460Y0204856D01*
X0092513Y0204832D01*
X0092567Y0204811D01*
X0092623Y0204794D01*
X0092680Y0204781D01*
X0092737Y0204772D01*
X0092795Y0204766D01*
X0092853Y0204764D01*
X0093742Y0204764D01*
X0112295Y0223343D02*
X0112295Y0227343D01*
X0113406Y0227343D01*
X0113406Y0227342D02*
X0113472Y0227340D01*
X0113537Y0227334D01*
X0113603Y0227324D01*
X0113667Y0227311D01*
X0113730Y0227294D01*
X0113793Y0227272D01*
X0113854Y0227248D01*
X0113913Y0227219D01*
X0113971Y0227188D01*
X0114027Y0227152D01*
X0114080Y0227114D01*
X0114131Y0227073D01*
X0114180Y0227028D01*
X0114226Y0226981D01*
X0114269Y0226931D01*
X0114309Y0226879D01*
X0114345Y0226824D01*
X0114379Y0226767D01*
X0114409Y0226709D01*
X0114436Y0226649D01*
X0114458Y0226587D01*
X0114478Y0226524D01*
X0114493Y0226460D01*
X0114505Y0226395D01*
X0114513Y0226330D01*
X0114517Y0226264D01*
X0114517Y0226198D01*
X0114513Y0226132D01*
X0114505Y0226067D01*
X0114493Y0226002D01*
X0114478Y0225938D01*
X0114458Y0225875D01*
X0114436Y0225813D01*
X0114409Y0225753D01*
X0114379Y0225695D01*
X0114345Y0225638D01*
X0114309Y0225583D01*
X0114269Y0225531D01*
X0114226Y0225481D01*
X0114180Y0225434D01*
X0114131Y0225389D01*
X0114080Y0225348D01*
X0114027Y0225310D01*
X0113971Y0225274D01*
X0113913Y0225243D01*
X0113854Y0225214D01*
X0113793Y0225190D01*
X0113730Y0225168D01*
X0113667Y0225151D01*
X0113603Y0225138D01*
X0113537Y0225128D01*
X0113472Y0225122D01*
X0113406Y0225120D01*
X0112295Y0225120D01*
X0113629Y0225120D02*
X0114518Y0223343D01*
X0116745Y0224231D02*
X0117634Y0227343D01*
X0118300Y0225120D02*
X0118300Y0223343D01*
X0118967Y0224231D02*
X0116745Y0224231D01*
X0072409Y0171083D02*
X0071075Y0171083D01*
X0072409Y0171083D02*
X0072467Y0171081D01*
X0072525Y0171075D01*
X0072582Y0171066D01*
X0072639Y0171053D01*
X0072695Y0171036D01*
X0072749Y0171015D01*
X0072802Y0170991D01*
X0072853Y0170964D01*
X0072903Y0170933D01*
X0072950Y0170899D01*
X0072995Y0170862D01*
X0073038Y0170823D01*
X0073077Y0170780D01*
X0073114Y0170735D01*
X0073148Y0170688D01*
X0073179Y0170639D01*
X0073206Y0170587D01*
X0073230Y0170534D01*
X0073251Y0170480D01*
X0073268Y0170424D01*
X0073281Y0170367D01*
X0073290Y0170310D01*
X0073296Y0170252D01*
X0073298Y0170194D01*
X0073296Y0170136D01*
X0073290Y0170078D01*
X0073281Y0170021D01*
X0073268Y0169964D01*
X0073251Y0169908D01*
X0073230Y0169854D01*
X0073206Y0169801D01*
X0073179Y0169750D01*
X0073148Y0169700D01*
X0073114Y0169653D01*
X0073077Y0169608D01*
X0073038Y0169565D01*
X0072995Y0169526D01*
X0072950Y0169489D01*
X0072903Y0169455D01*
X0072854Y0169424D01*
X0072802Y0169397D01*
X0072749Y0169373D01*
X0072695Y0169352D01*
X0072639Y0169335D01*
X0072582Y0169322D01*
X0072525Y0169313D01*
X0072467Y0169307D01*
X0072409Y0169305D01*
X0071520Y0169305D01*
X0072186Y0169305D02*
X0072252Y0169303D01*
X0072317Y0169297D01*
X0072383Y0169287D01*
X0072447Y0169274D01*
X0072510Y0169257D01*
X0072573Y0169235D01*
X0072634Y0169211D01*
X0072693Y0169182D01*
X0072751Y0169151D01*
X0072807Y0169115D01*
X0072860Y0169077D01*
X0072911Y0169036D01*
X0072960Y0168991D01*
X0073006Y0168944D01*
X0073049Y0168894D01*
X0073089Y0168842D01*
X0073125Y0168787D01*
X0073159Y0168730D01*
X0073189Y0168672D01*
X0073216Y0168612D01*
X0073238Y0168550D01*
X0073258Y0168487D01*
X0073273Y0168423D01*
X0073285Y0168358D01*
X0073293Y0168293D01*
X0073297Y0168227D01*
X0073297Y0168161D01*
X0073293Y0168095D01*
X0073285Y0168030D01*
X0073273Y0167965D01*
X0073258Y0167901D01*
X0073238Y0167838D01*
X0073216Y0167776D01*
X0073189Y0167716D01*
X0073159Y0167658D01*
X0073125Y0167601D01*
X0073089Y0167546D01*
X0073049Y0167494D01*
X0073006Y0167444D01*
X0072960Y0167397D01*
X0072911Y0167352D01*
X0072860Y0167311D01*
X0072807Y0167273D01*
X0072751Y0167237D01*
X0072693Y0167206D01*
X0072634Y0167177D01*
X0072573Y0167153D01*
X0072510Y0167131D01*
X0072447Y0167114D01*
X0072383Y0167101D01*
X0072317Y0167091D01*
X0072252Y0167085D01*
X0072186Y0167083D01*
X0071075Y0167083D01*
X0068848Y0167083D02*
X0067959Y0168860D01*
X0067737Y0168860D02*
X0066626Y0168860D01*
X0067737Y0168861D02*
X0067803Y0168863D01*
X0067868Y0168869D01*
X0067934Y0168879D01*
X0067998Y0168892D01*
X0068061Y0168909D01*
X0068124Y0168931D01*
X0068185Y0168955D01*
X0068244Y0168984D01*
X0068302Y0169015D01*
X0068358Y0169051D01*
X0068411Y0169089D01*
X0068462Y0169130D01*
X0068511Y0169175D01*
X0068557Y0169222D01*
X0068600Y0169272D01*
X0068640Y0169324D01*
X0068676Y0169379D01*
X0068710Y0169436D01*
X0068740Y0169494D01*
X0068767Y0169554D01*
X0068789Y0169616D01*
X0068809Y0169679D01*
X0068824Y0169743D01*
X0068836Y0169808D01*
X0068844Y0169873D01*
X0068848Y0169939D01*
X0068848Y0170005D01*
X0068844Y0170071D01*
X0068836Y0170136D01*
X0068824Y0170201D01*
X0068809Y0170265D01*
X0068789Y0170328D01*
X0068767Y0170390D01*
X0068740Y0170450D01*
X0068710Y0170508D01*
X0068676Y0170565D01*
X0068640Y0170620D01*
X0068600Y0170672D01*
X0068557Y0170722D01*
X0068511Y0170769D01*
X0068462Y0170814D01*
X0068411Y0170855D01*
X0068358Y0170893D01*
X0068302Y0170929D01*
X0068244Y0170960D01*
X0068185Y0170989D01*
X0068124Y0171013D01*
X0068061Y0171035D01*
X0067998Y0171052D01*
X0067934Y0171065D01*
X0067868Y0171075D01*
X0067803Y0171081D01*
X0067737Y0171083D01*
X0066626Y0171083D01*
X0066626Y0167083D01*
X0052959Y0181125D02*
X0052959Y0181570D01*
X0052957Y0181628D01*
X0052951Y0181686D01*
X0052942Y0181743D01*
X0052929Y0181800D01*
X0052912Y0181856D01*
X0052891Y0181910D01*
X0052867Y0181963D01*
X0052840Y0182015D01*
X0052809Y0182064D01*
X0052775Y0182111D01*
X0052738Y0182156D01*
X0052699Y0182199D01*
X0052656Y0182238D01*
X0052611Y0182275D01*
X0052564Y0182309D01*
X0052515Y0182340D01*
X0052463Y0182367D01*
X0052410Y0182391D01*
X0052356Y0182412D01*
X0052300Y0182429D01*
X0052243Y0182442D01*
X0052186Y0182451D01*
X0052128Y0182457D01*
X0052070Y0182459D01*
X0052070Y0182458D02*
X0050737Y0182458D01*
X0050737Y0184236D01*
X0052959Y0184236D01*
X0052959Y0181125D02*
X0052957Y0181067D01*
X0052951Y0181009D01*
X0052942Y0180952D01*
X0052929Y0180895D01*
X0052912Y0180839D01*
X0052891Y0180785D01*
X0052867Y0180732D01*
X0052840Y0180680D01*
X0052809Y0180631D01*
X0052775Y0180584D01*
X0052738Y0180539D01*
X0052699Y0180496D01*
X0052656Y0180457D01*
X0052611Y0180420D01*
X0052564Y0180386D01*
X0052514Y0180355D01*
X0052463Y0180328D01*
X0052410Y0180304D01*
X0052356Y0180283D01*
X0052300Y0180266D01*
X0052243Y0180253D01*
X0052186Y0180244D01*
X0052128Y0180238D01*
X0052070Y0180236D01*
X0050737Y0180236D01*
X0048742Y0180236D02*
X0047853Y0180236D01*
X0047795Y0180238D01*
X0047737Y0180244D01*
X0047680Y0180253D01*
X0047623Y0180266D01*
X0047567Y0180283D01*
X0047513Y0180304D01*
X0047460Y0180328D01*
X0047409Y0180355D01*
X0047359Y0180386D01*
X0047312Y0180420D01*
X0047267Y0180457D01*
X0047224Y0180496D01*
X0047185Y0180539D01*
X0047148Y0180584D01*
X0047114Y0180631D01*
X0047083Y0180681D01*
X0047056Y0180732D01*
X0047032Y0180785D01*
X0047011Y0180839D01*
X0046994Y0180895D01*
X0046981Y0180952D01*
X0046972Y0181009D01*
X0046966Y0181067D01*
X0046964Y0181125D01*
X0046964Y0183347D01*
X0046966Y0183405D01*
X0046972Y0183463D01*
X0046981Y0183520D01*
X0046994Y0183577D01*
X0047011Y0183633D01*
X0047032Y0183687D01*
X0047056Y0183740D01*
X0047083Y0183791D01*
X0047114Y0183841D01*
X0047148Y0183888D01*
X0047185Y0183933D01*
X0047224Y0183976D01*
X0047267Y0184015D01*
X0047312Y0184052D01*
X0047359Y0184086D01*
X0047408Y0184117D01*
X0047460Y0184144D01*
X0047513Y0184168D01*
X0047567Y0184189D01*
X0047623Y0184206D01*
X0047680Y0184219D01*
X0047737Y0184228D01*
X0047795Y0184234D01*
X0047853Y0184236D01*
X0048742Y0184236D01*
X0048742Y0163457D02*
X0047853Y0163457D01*
X0047795Y0163455D01*
X0047737Y0163449D01*
X0047680Y0163440D01*
X0047623Y0163427D01*
X0047567Y0163410D01*
X0047513Y0163389D01*
X0047460Y0163365D01*
X0047408Y0163338D01*
X0047359Y0163307D01*
X0047312Y0163273D01*
X0047267Y0163236D01*
X0047224Y0163197D01*
X0047185Y0163154D01*
X0047148Y0163109D01*
X0047114Y0163062D01*
X0047083Y0163012D01*
X0047056Y0162961D01*
X0047032Y0162908D01*
X0047011Y0162854D01*
X0046994Y0162798D01*
X0046981Y0162741D01*
X0046972Y0162684D01*
X0046966Y0162626D01*
X0046964Y0162568D01*
X0046964Y0160346D01*
X0046966Y0160288D01*
X0046972Y0160230D01*
X0046981Y0160173D01*
X0046994Y0160116D01*
X0047011Y0160060D01*
X0047032Y0160006D01*
X0047056Y0159953D01*
X0047083Y0159902D01*
X0047114Y0159852D01*
X0047148Y0159805D01*
X0047185Y0159760D01*
X0047224Y0159717D01*
X0047267Y0159678D01*
X0047312Y0159641D01*
X0047359Y0159607D01*
X0047409Y0159576D01*
X0047460Y0159549D01*
X0047513Y0159525D01*
X0047567Y0159504D01*
X0047623Y0159487D01*
X0047680Y0159474D01*
X0047737Y0159465D01*
X0047795Y0159459D01*
X0047853Y0159457D01*
X0048742Y0159457D01*
X0050737Y0159457D02*
X0051848Y0159457D01*
X0051914Y0159459D01*
X0051979Y0159465D01*
X0052045Y0159475D01*
X0052109Y0159488D01*
X0052172Y0159505D01*
X0052235Y0159527D01*
X0052296Y0159551D01*
X0052355Y0159580D01*
X0052413Y0159611D01*
X0052469Y0159647D01*
X0052522Y0159685D01*
X0052573Y0159726D01*
X0052622Y0159771D01*
X0052668Y0159818D01*
X0052711Y0159868D01*
X0052751Y0159920D01*
X0052787Y0159975D01*
X0052821Y0160032D01*
X0052851Y0160090D01*
X0052878Y0160150D01*
X0052900Y0160212D01*
X0052920Y0160275D01*
X0052935Y0160339D01*
X0052947Y0160404D01*
X0052955Y0160469D01*
X0052959Y0160535D01*
X0052959Y0160601D01*
X0052955Y0160667D01*
X0052947Y0160732D01*
X0052935Y0160797D01*
X0052920Y0160861D01*
X0052900Y0160924D01*
X0052878Y0160986D01*
X0052851Y0161046D01*
X0052821Y0161104D01*
X0052787Y0161161D01*
X0052751Y0161216D01*
X0052711Y0161268D01*
X0052668Y0161318D01*
X0052622Y0161365D01*
X0052573Y0161410D01*
X0052522Y0161451D01*
X0052469Y0161489D01*
X0052413Y0161525D01*
X0052355Y0161556D01*
X0052296Y0161585D01*
X0052235Y0161609D01*
X0052172Y0161631D01*
X0052109Y0161648D01*
X0052045Y0161661D01*
X0051979Y0161671D01*
X0051914Y0161677D01*
X0051848Y0161679D01*
X0052070Y0161679D02*
X0051182Y0161679D01*
X0052070Y0161679D02*
X0052128Y0161681D01*
X0052186Y0161687D01*
X0052243Y0161696D01*
X0052300Y0161709D01*
X0052356Y0161726D01*
X0052410Y0161747D01*
X0052463Y0161771D01*
X0052515Y0161798D01*
X0052564Y0161829D01*
X0052611Y0161863D01*
X0052656Y0161900D01*
X0052699Y0161939D01*
X0052738Y0161982D01*
X0052775Y0162027D01*
X0052809Y0162074D01*
X0052840Y0162124D01*
X0052867Y0162175D01*
X0052891Y0162228D01*
X0052912Y0162282D01*
X0052929Y0162338D01*
X0052942Y0162395D01*
X0052951Y0162452D01*
X0052957Y0162510D01*
X0052959Y0162568D01*
X0052957Y0162626D01*
X0052951Y0162684D01*
X0052942Y0162741D01*
X0052929Y0162798D01*
X0052912Y0162854D01*
X0052891Y0162908D01*
X0052867Y0162961D01*
X0052840Y0163013D01*
X0052809Y0163062D01*
X0052775Y0163109D01*
X0052738Y0163154D01*
X0052699Y0163197D01*
X0052656Y0163236D01*
X0052611Y0163273D01*
X0052564Y0163307D01*
X0052514Y0163338D01*
X0052463Y0163365D01*
X0052410Y0163389D01*
X0052356Y0163410D01*
X0052300Y0163427D01*
X0052243Y0163440D01*
X0052186Y0163449D01*
X0052128Y0163455D01*
X0052070Y0163457D01*
X0050737Y0163457D01*
X0048900Y0143890D02*
X0048011Y0143890D01*
X0047953Y0143888D01*
X0047895Y0143882D01*
X0047838Y0143873D01*
X0047781Y0143860D01*
X0047725Y0143843D01*
X0047671Y0143822D01*
X0047618Y0143798D01*
X0047566Y0143771D01*
X0047517Y0143740D01*
X0047470Y0143706D01*
X0047425Y0143669D01*
X0047382Y0143630D01*
X0047343Y0143587D01*
X0047306Y0143542D01*
X0047272Y0143495D01*
X0047241Y0143445D01*
X0047214Y0143394D01*
X0047190Y0143341D01*
X0047169Y0143287D01*
X0047152Y0143231D01*
X0047139Y0143174D01*
X0047130Y0143117D01*
X0047124Y0143059D01*
X0047122Y0143001D01*
X0047122Y0140779D01*
X0047124Y0140721D01*
X0047130Y0140663D01*
X0047139Y0140606D01*
X0047152Y0140549D01*
X0047169Y0140493D01*
X0047190Y0140439D01*
X0047214Y0140386D01*
X0047241Y0140335D01*
X0047272Y0140285D01*
X0047306Y0140238D01*
X0047343Y0140193D01*
X0047382Y0140150D01*
X0047425Y0140111D01*
X0047470Y0140074D01*
X0047517Y0140040D01*
X0047567Y0140009D01*
X0047618Y0139982D01*
X0047671Y0139958D01*
X0047725Y0139937D01*
X0047781Y0139920D01*
X0047838Y0139907D01*
X0047895Y0139898D01*
X0047953Y0139892D01*
X0048011Y0139890D01*
X0048900Y0139890D01*
X0050895Y0139890D02*
X0053117Y0139890D01*
X0050895Y0139890D02*
X0052783Y0142112D01*
X0052117Y0143890D02*
X0052047Y0143888D01*
X0051977Y0143882D01*
X0051907Y0143873D01*
X0051838Y0143859D01*
X0051770Y0143842D01*
X0051703Y0143821D01*
X0051637Y0143797D01*
X0051573Y0143769D01*
X0051510Y0143738D01*
X0051449Y0143703D01*
X0051390Y0143664D01*
X0051333Y0143623D01*
X0051279Y0143579D01*
X0051227Y0143532D01*
X0051177Y0143481D01*
X0051131Y0143429D01*
X0051087Y0143374D01*
X0051047Y0143316D01*
X0051010Y0143257D01*
X0050976Y0143195D01*
X0050945Y0143132D01*
X0050918Y0143067D01*
X0050895Y0143001D01*
X0052784Y0142112D02*
X0052827Y0142156D01*
X0052869Y0142203D01*
X0052907Y0142252D01*
X0052942Y0142303D01*
X0052975Y0142356D01*
X0053004Y0142411D01*
X0053030Y0142467D01*
X0053053Y0142525D01*
X0053072Y0142584D01*
X0053088Y0142644D01*
X0053101Y0142705D01*
X0053110Y0142766D01*
X0053115Y0142828D01*
X0053117Y0142890D01*
X0053115Y0142950D01*
X0053110Y0143011D01*
X0053101Y0143070D01*
X0053088Y0143129D01*
X0053072Y0143188D01*
X0053052Y0143245D01*
X0053029Y0143300D01*
X0053002Y0143355D01*
X0052973Y0143407D01*
X0052940Y0143458D01*
X0052904Y0143507D01*
X0052866Y0143553D01*
X0052824Y0143597D01*
X0052780Y0143639D01*
X0052734Y0143677D01*
X0052685Y0143713D01*
X0052634Y0143746D01*
X0052582Y0143775D01*
X0052527Y0143802D01*
X0052472Y0143825D01*
X0052415Y0143845D01*
X0052356Y0143861D01*
X0052297Y0143874D01*
X0052238Y0143883D01*
X0052177Y0143888D01*
X0052117Y0143890D01*
X0057853Y0124083D02*
X0058742Y0124083D01*
X0057853Y0124083D02*
X0057795Y0124081D01*
X0057737Y0124075D01*
X0057680Y0124066D01*
X0057623Y0124053D01*
X0057567Y0124036D01*
X0057513Y0124015D01*
X0057460Y0123991D01*
X0057408Y0123964D01*
X0057359Y0123933D01*
X0057312Y0123899D01*
X0057267Y0123862D01*
X0057224Y0123823D01*
X0057185Y0123780D01*
X0057148Y0123735D01*
X0057114Y0123688D01*
X0057083Y0123638D01*
X0057056Y0123587D01*
X0057032Y0123534D01*
X0057011Y0123480D01*
X0056994Y0123424D01*
X0056981Y0123367D01*
X0056972Y0123310D01*
X0056966Y0123252D01*
X0056964Y0123194D01*
X0056964Y0120972D01*
X0056966Y0120914D01*
X0056972Y0120856D01*
X0056981Y0120799D01*
X0056994Y0120742D01*
X0057011Y0120686D01*
X0057032Y0120632D01*
X0057056Y0120579D01*
X0057083Y0120528D01*
X0057114Y0120478D01*
X0057148Y0120431D01*
X0057185Y0120386D01*
X0057224Y0120343D01*
X0057267Y0120304D01*
X0057312Y0120267D01*
X0057359Y0120233D01*
X0057409Y0120202D01*
X0057460Y0120175D01*
X0057513Y0120151D01*
X0057567Y0120130D01*
X0057623Y0120113D01*
X0057680Y0120100D01*
X0057737Y0120091D01*
X0057795Y0120085D01*
X0057853Y0120083D01*
X0058742Y0120083D01*
X0060737Y0120083D02*
X0062959Y0120083D01*
X0061848Y0120083D02*
X0061848Y0124083D01*
X0060737Y0123194D01*
X0072462Y0087869D02*
X0072462Y0085647D01*
X0070240Y0087535D01*
X0068462Y0086869D02*
X0068464Y0086799D01*
X0068470Y0086729D01*
X0068479Y0086659D01*
X0068493Y0086590D01*
X0068510Y0086522D01*
X0068531Y0086455D01*
X0068555Y0086389D01*
X0068583Y0086325D01*
X0068614Y0086262D01*
X0068649Y0086201D01*
X0068688Y0086142D01*
X0068729Y0086085D01*
X0068773Y0086031D01*
X0068820Y0085979D01*
X0068871Y0085929D01*
X0068923Y0085883D01*
X0068978Y0085839D01*
X0069036Y0085799D01*
X0069095Y0085762D01*
X0069157Y0085728D01*
X0069220Y0085697D01*
X0069285Y0085670D01*
X0069351Y0085647D01*
X0070240Y0087536D02*
X0070196Y0087579D01*
X0070149Y0087621D01*
X0070100Y0087659D01*
X0070049Y0087694D01*
X0069996Y0087727D01*
X0069941Y0087756D01*
X0069885Y0087782D01*
X0069827Y0087805D01*
X0069768Y0087824D01*
X0069708Y0087840D01*
X0069647Y0087853D01*
X0069586Y0087862D01*
X0069524Y0087867D01*
X0069462Y0087869D01*
X0069402Y0087867D01*
X0069341Y0087862D01*
X0069282Y0087853D01*
X0069223Y0087840D01*
X0069164Y0087824D01*
X0069107Y0087804D01*
X0069052Y0087781D01*
X0068997Y0087754D01*
X0068945Y0087725D01*
X0068894Y0087692D01*
X0068845Y0087656D01*
X0068799Y0087618D01*
X0068755Y0087576D01*
X0068713Y0087532D01*
X0068675Y0087486D01*
X0068639Y0087437D01*
X0068606Y0087386D01*
X0068577Y0087334D01*
X0068550Y0087279D01*
X0068527Y0087224D01*
X0068507Y0087167D01*
X0068491Y0087108D01*
X0068478Y0087049D01*
X0068469Y0086990D01*
X0068464Y0086929D01*
X0068462Y0086869D01*
X0070795Y0083074D02*
X0070128Y0081852D01*
X0068461Y0082297D02*
X0068463Y0082374D01*
X0068468Y0082450D01*
X0068477Y0082526D01*
X0068489Y0082602D01*
X0068505Y0082677D01*
X0068524Y0082751D01*
X0068547Y0082824D01*
X0068572Y0082896D01*
X0068602Y0082967D01*
X0068634Y0083037D01*
X0068670Y0083104D01*
X0068708Y0083171D01*
X0068750Y0083235D01*
X0068794Y0083297D01*
X0070129Y0081852D02*
X0070098Y0081802D01*
X0070063Y0081755D01*
X0070026Y0081710D01*
X0069985Y0081667D01*
X0069942Y0081627D01*
X0069897Y0081591D01*
X0069849Y0081557D01*
X0069799Y0081526D01*
X0069747Y0081499D01*
X0069694Y0081475D01*
X0069639Y0081454D01*
X0069583Y0081437D01*
X0069526Y0081424D01*
X0069468Y0081415D01*
X0069410Y0081409D01*
X0069351Y0081407D01*
X0069351Y0081408D02*
X0069293Y0081410D01*
X0069235Y0081416D01*
X0069178Y0081425D01*
X0069121Y0081438D01*
X0069065Y0081455D01*
X0069011Y0081476D01*
X0068958Y0081500D01*
X0068907Y0081527D01*
X0068857Y0081558D01*
X0068810Y0081592D01*
X0068765Y0081629D01*
X0068722Y0081668D01*
X0068683Y0081711D01*
X0068646Y0081756D01*
X0068612Y0081803D01*
X0068581Y0081853D01*
X0068554Y0081904D01*
X0068530Y0081957D01*
X0068509Y0082011D01*
X0068492Y0082067D01*
X0068479Y0082124D01*
X0068470Y0082181D01*
X0068464Y0082239D01*
X0068462Y0082297D01*
X0071906Y0081297D02*
X0071964Y0081356D01*
X0072018Y0081418D01*
X0072070Y0081482D01*
X0072119Y0081548D01*
X0072165Y0081616D01*
X0072208Y0081686D01*
X0072248Y0081759D01*
X0072284Y0081832D01*
X0072318Y0081908D01*
X0072348Y0081984D01*
X0072374Y0082062D01*
X0072397Y0082141D01*
X0072417Y0082221D01*
X0072433Y0082302D01*
X0072446Y0082384D01*
X0072455Y0082465D01*
X0072460Y0082548D01*
X0072462Y0082630D01*
X0072460Y0082688D01*
X0072454Y0082746D01*
X0072445Y0082803D01*
X0072432Y0082860D01*
X0072415Y0082916D01*
X0072394Y0082970D01*
X0072370Y0083023D01*
X0072343Y0083075D01*
X0072312Y0083124D01*
X0072278Y0083171D01*
X0072241Y0083216D01*
X0072202Y0083259D01*
X0072159Y0083298D01*
X0072114Y0083335D01*
X0072067Y0083369D01*
X0072018Y0083400D01*
X0071966Y0083427D01*
X0071913Y0083451D01*
X0071859Y0083472D01*
X0071803Y0083489D01*
X0071746Y0083502D01*
X0071689Y0083511D01*
X0071631Y0083517D01*
X0071573Y0083519D01*
X0071514Y0083517D01*
X0071456Y0083511D01*
X0071398Y0083502D01*
X0071341Y0083489D01*
X0071285Y0083472D01*
X0071230Y0083451D01*
X0071177Y0083427D01*
X0071125Y0083400D01*
X0071075Y0083369D01*
X0071027Y0083335D01*
X0070982Y0083299D01*
X0070939Y0083259D01*
X0070898Y0083216D01*
X0070861Y0083171D01*
X0070826Y0083124D01*
X0070795Y0083074D01*
D12*
X0075356Y0110646D02*
X0075356Y0118520D01*
X0141962Y0091583D02*
X0141962Y0087583D01*
X0142462Y0087083D01*
X0141962Y0086583D01*
X0141962Y0082583D01*
X0142462Y0082083D01*
X0141962Y0081583D01*
X0141962Y0077583D01*
X0142462Y0077083D01*
X0141962Y0076583D01*
X0141962Y0072583D01*
X0142462Y0072083D01*
X0141962Y0071583D01*
X0141962Y0067583D01*
X0142962Y0066583D01*
X0146962Y0066583D01*
X0147462Y0067083D01*
X0147962Y0066583D01*
X0151962Y0066583D01*
X0152962Y0067583D01*
X0152962Y0071583D01*
X0152462Y0072083D01*
X0152962Y0072583D01*
X0152962Y0076583D01*
X0152462Y0077083D01*
X0152962Y0077583D01*
X0152962Y0081583D01*
X0152462Y0082083D01*
X0152962Y0082583D01*
X0152962Y0086583D01*
X0152462Y0087083D01*
X0152962Y0087583D01*
X0152962Y0091583D01*
X0151962Y0092583D01*
X0147962Y0092583D01*
X0147462Y0092083D01*
X0146962Y0092583D01*
X0142962Y0092583D01*
X0141962Y0091583D01*
X0153962Y0071583D02*
X0153962Y0067583D01*
D13*
X0066962Y0076083D02*
X0066962Y0093083D01*
X0059009Y0096583D02*
X0050962Y0096583D01*
X0042962Y0093083D02*
X0042962Y0076083D01*
X0050962Y0072583D02*
X0058891Y0072583D01*
X0047962Y0084583D02*
X0047964Y0084755D01*
X0047970Y0084926D01*
X0047981Y0085098D01*
X0047996Y0085269D01*
X0048015Y0085440D01*
X0048038Y0085610D01*
X0048065Y0085780D01*
X0048097Y0085949D01*
X0048132Y0086117D01*
X0048172Y0086284D01*
X0048216Y0086450D01*
X0048263Y0086615D01*
X0048315Y0086779D01*
X0048371Y0086941D01*
X0048431Y0087102D01*
X0048495Y0087262D01*
X0048563Y0087420D01*
X0048634Y0087576D01*
X0048709Y0087730D01*
X0048789Y0087883D01*
X0048871Y0088033D01*
X0048958Y0088182D01*
X0049048Y0088328D01*
X0049142Y0088472D01*
X0049239Y0088614D01*
X0049340Y0088753D01*
X0049444Y0088890D01*
X0049551Y0089024D01*
X0049662Y0089155D01*
X0049775Y0089284D01*
X0049892Y0089410D01*
X0050012Y0089533D01*
X0050135Y0089653D01*
X0050261Y0089770D01*
X0050390Y0089883D01*
X0050521Y0089994D01*
X0050655Y0090101D01*
X0050792Y0090205D01*
X0050931Y0090306D01*
X0051073Y0090403D01*
X0051217Y0090497D01*
X0051363Y0090587D01*
X0051512Y0090674D01*
X0051662Y0090756D01*
X0051815Y0090836D01*
X0051969Y0090911D01*
X0052125Y0090982D01*
X0052283Y0091050D01*
X0052443Y0091114D01*
X0052604Y0091174D01*
X0052766Y0091230D01*
X0052930Y0091282D01*
X0053095Y0091329D01*
X0053261Y0091373D01*
X0053428Y0091413D01*
X0053596Y0091448D01*
X0053765Y0091480D01*
X0053935Y0091507D01*
X0054105Y0091530D01*
X0054276Y0091549D01*
X0054447Y0091564D01*
X0054619Y0091575D01*
X0054790Y0091581D01*
X0054962Y0091583D01*
X0055134Y0091581D01*
X0055305Y0091575D01*
X0055477Y0091564D01*
X0055648Y0091549D01*
X0055819Y0091530D01*
X0055989Y0091507D01*
X0056159Y0091480D01*
X0056328Y0091448D01*
X0056496Y0091413D01*
X0056663Y0091373D01*
X0056829Y0091329D01*
X0056994Y0091282D01*
X0057158Y0091230D01*
X0057320Y0091174D01*
X0057481Y0091114D01*
X0057641Y0091050D01*
X0057799Y0090982D01*
X0057955Y0090911D01*
X0058109Y0090836D01*
X0058262Y0090756D01*
X0058412Y0090674D01*
X0058561Y0090587D01*
X0058707Y0090497D01*
X0058851Y0090403D01*
X0058993Y0090306D01*
X0059132Y0090205D01*
X0059269Y0090101D01*
X0059403Y0089994D01*
X0059534Y0089883D01*
X0059663Y0089770D01*
X0059789Y0089653D01*
X0059912Y0089533D01*
X0060032Y0089410D01*
X0060149Y0089284D01*
X0060262Y0089155D01*
X0060373Y0089024D01*
X0060480Y0088890D01*
X0060584Y0088753D01*
X0060685Y0088614D01*
X0060782Y0088472D01*
X0060876Y0088328D01*
X0060966Y0088182D01*
X0061053Y0088033D01*
X0061135Y0087883D01*
X0061215Y0087730D01*
X0061290Y0087576D01*
X0061361Y0087420D01*
X0061429Y0087262D01*
X0061493Y0087102D01*
X0061553Y0086941D01*
X0061609Y0086779D01*
X0061661Y0086615D01*
X0061708Y0086450D01*
X0061752Y0086284D01*
X0061792Y0086117D01*
X0061827Y0085949D01*
X0061859Y0085780D01*
X0061886Y0085610D01*
X0061909Y0085440D01*
X0061928Y0085269D01*
X0061943Y0085098D01*
X0061954Y0084926D01*
X0061960Y0084755D01*
X0061962Y0084583D01*
X0061960Y0084411D01*
X0061954Y0084240D01*
X0061943Y0084068D01*
X0061928Y0083897D01*
X0061909Y0083726D01*
X0061886Y0083556D01*
X0061859Y0083386D01*
X0061827Y0083217D01*
X0061792Y0083049D01*
X0061752Y0082882D01*
X0061708Y0082716D01*
X0061661Y0082551D01*
X0061609Y0082387D01*
X0061553Y0082225D01*
X0061493Y0082064D01*
X0061429Y0081904D01*
X0061361Y0081746D01*
X0061290Y0081590D01*
X0061215Y0081436D01*
X0061135Y0081283D01*
X0061053Y0081133D01*
X0060966Y0080984D01*
X0060876Y0080838D01*
X0060782Y0080694D01*
X0060685Y0080552D01*
X0060584Y0080413D01*
X0060480Y0080276D01*
X0060373Y0080142D01*
X0060262Y0080011D01*
X0060149Y0079882D01*
X0060032Y0079756D01*
X0059912Y0079633D01*
X0059789Y0079513D01*
X0059663Y0079396D01*
X0059534Y0079283D01*
X0059403Y0079172D01*
X0059269Y0079065D01*
X0059132Y0078961D01*
X0058993Y0078860D01*
X0058851Y0078763D01*
X0058707Y0078669D01*
X0058561Y0078579D01*
X0058412Y0078492D01*
X0058262Y0078410D01*
X0058109Y0078330D01*
X0057955Y0078255D01*
X0057799Y0078184D01*
X0057641Y0078116D01*
X0057481Y0078052D01*
X0057320Y0077992D01*
X0057158Y0077936D01*
X0056994Y0077884D01*
X0056829Y0077837D01*
X0056663Y0077793D01*
X0056496Y0077753D01*
X0056328Y0077718D01*
X0056159Y0077686D01*
X0055989Y0077659D01*
X0055819Y0077636D01*
X0055648Y0077617D01*
X0055477Y0077602D01*
X0055305Y0077591D01*
X0055134Y0077585D01*
X0054962Y0077583D01*
X0054790Y0077585D01*
X0054619Y0077591D01*
X0054447Y0077602D01*
X0054276Y0077617D01*
X0054105Y0077636D01*
X0053935Y0077659D01*
X0053765Y0077686D01*
X0053596Y0077718D01*
X0053428Y0077753D01*
X0053261Y0077793D01*
X0053095Y0077837D01*
X0052930Y0077884D01*
X0052766Y0077936D01*
X0052604Y0077992D01*
X0052443Y0078052D01*
X0052283Y0078116D01*
X0052125Y0078184D01*
X0051969Y0078255D01*
X0051815Y0078330D01*
X0051662Y0078410D01*
X0051512Y0078492D01*
X0051363Y0078579D01*
X0051217Y0078669D01*
X0051073Y0078763D01*
X0050931Y0078860D01*
X0050792Y0078961D01*
X0050655Y0079065D01*
X0050521Y0079172D01*
X0050390Y0079283D01*
X0050261Y0079396D01*
X0050135Y0079513D01*
X0050012Y0079633D01*
X0049892Y0079756D01*
X0049775Y0079882D01*
X0049662Y0080011D01*
X0049551Y0080142D01*
X0049444Y0080276D01*
X0049340Y0080413D01*
X0049239Y0080552D01*
X0049142Y0080694D01*
X0049048Y0080838D01*
X0048958Y0080984D01*
X0048871Y0081133D01*
X0048789Y0081283D01*
X0048709Y0081436D01*
X0048634Y0081590D01*
X0048563Y0081746D01*
X0048495Y0081904D01*
X0048431Y0082064D01*
X0048371Y0082225D01*
X0048315Y0082387D01*
X0048263Y0082551D01*
X0048216Y0082716D01*
X0048172Y0082882D01*
X0048132Y0083049D01*
X0048097Y0083217D01*
X0048065Y0083386D01*
X0048038Y0083556D01*
X0048015Y0083726D01*
X0047996Y0083897D01*
X0047981Y0084068D01*
X0047970Y0084240D01*
X0047964Y0084411D01*
X0047962Y0084583D01*
X0052462Y0189583D02*
X0057462Y0189583D01*
X0059962Y0192083D01*
X0062462Y0189583D01*
X0067462Y0189583D01*
X0069962Y0192083D01*
X0069962Y0197083D01*
X0067462Y0199583D01*
X0069962Y0202083D01*
X0069962Y0207083D01*
X0067462Y0209583D01*
X0062462Y0209583D01*
X0059962Y0207083D01*
X0057462Y0209583D01*
X0052462Y0209583D01*
X0049962Y0207083D01*
X0049962Y0202083D01*
X0052462Y0199583D01*
X0057462Y0199583D01*
X0059962Y0202083D01*
X0062462Y0199583D01*
X0067462Y0199583D01*
X0062462Y0199583D01*
X0059962Y0197083D01*
X0057462Y0199583D01*
X0052462Y0199583D01*
X0049962Y0197083D01*
X0049962Y0192083D01*
X0052462Y0189583D01*
X0052462Y0209583D02*
X0057462Y0209583D01*
X0059962Y0212083D01*
X0062462Y0209583D01*
X0067462Y0209583D01*
X0069962Y0212083D01*
X0069962Y0217083D01*
X0067462Y0219583D01*
X0062462Y0219583D01*
X0059962Y0222083D01*
X0057462Y0219583D01*
X0052462Y0219583D01*
X0049962Y0222083D01*
X0049962Y0227083D01*
X0052462Y0229583D01*
X0057462Y0229583D01*
X0059962Y0227083D01*
X0062462Y0229583D01*
X0067462Y0229583D01*
X0069962Y0227083D01*
X0069962Y0222083D01*
X0067462Y0219583D01*
X0062462Y0219583D01*
X0059962Y0217083D01*
X0057462Y0219583D01*
X0052462Y0219583D01*
X0049962Y0217083D01*
X0049962Y0212083D01*
X0052462Y0209583D01*
X0111419Y0207043D02*
X0118505Y0207043D01*
X0121930Y0207043D02*
X0121930Y0202122D01*
X0118505Y0202122D02*
X0111419Y0202122D01*
D14*
X0120710Y0076591D02*
X0089214Y0076591D01*
D15*
X0118741Y0086039D03*
D16*
X0141901Y0109566D02*
X0141901Y0114166D01*
X0143179Y0114166D01*
X0143249Y0114164D01*
X0143320Y0114158D01*
X0143389Y0114149D01*
X0143458Y0114135D01*
X0143527Y0114118D01*
X0143594Y0114097D01*
X0143660Y0114072D01*
X0143724Y0114044D01*
X0143787Y0114012D01*
X0143848Y0113977D01*
X0143907Y0113938D01*
X0143964Y0113897D01*
X0144018Y0113852D01*
X0144070Y0113804D01*
X0144119Y0113754D01*
X0144166Y0113700D01*
X0144209Y0113645D01*
X0144249Y0113587D01*
X0144286Y0113527D01*
X0144319Y0113465D01*
X0144349Y0113401D01*
X0144376Y0113336D01*
X0144399Y0113270D01*
X0144418Y0113202D01*
X0144433Y0113133D01*
X0144445Y0113064D01*
X0144453Y0112994D01*
X0144457Y0112923D01*
X0144457Y0112853D01*
X0144453Y0112782D01*
X0144445Y0112712D01*
X0144433Y0112643D01*
X0144418Y0112574D01*
X0144399Y0112506D01*
X0144376Y0112440D01*
X0144349Y0112375D01*
X0144319Y0112311D01*
X0144286Y0112249D01*
X0144249Y0112189D01*
X0144209Y0112131D01*
X0144166Y0112076D01*
X0144119Y0112022D01*
X0144070Y0111972D01*
X0144018Y0111924D01*
X0143964Y0111879D01*
X0143907Y0111838D01*
X0143848Y0111799D01*
X0143787Y0111764D01*
X0143724Y0111732D01*
X0143660Y0111704D01*
X0143594Y0111679D01*
X0143527Y0111658D01*
X0143458Y0111641D01*
X0143389Y0111627D01*
X0143320Y0111618D01*
X0143249Y0111612D01*
X0143179Y0111610D01*
X0143179Y0111611D02*
X0141901Y0111611D01*
X0143435Y0111611D02*
X0144457Y0109566D01*
X0146372Y0110844D02*
X0146372Y0112122D01*
X0147906Y0112122D01*
X0146373Y0112122D02*
X0146375Y0112211D01*
X0146381Y0112300D01*
X0146390Y0112389D01*
X0146404Y0112477D01*
X0146421Y0112564D01*
X0146443Y0112651D01*
X0146468Y0112737D01*
X0146496Y0112821D01*
X0146529Y0112904D01*
X0146565Y0112986D01*
X0146604Y0113066D01*
X0146647Y0113144D01*
X0146693Y0113220D01*
X0146743Y0113294D01*
X0146795Y0113366D01*
X0146851Y0113436D01*
X0146910Y0113503D01*
X0146972Y0113567D01*
X0147036Y0113629D01*
X0147103Y0113688D01*
X0147173Y0113744D01*
X0147245Y0113796D01*
X0147319Y0113846D01*
X0147395Y0113892D01*
X0147473Y0113935D01*
X0147553Y0113974D01*
X0147635Y0114010D01*
X0147718Y0114043D01*
X0147802Y0114071D01*
X0147888Y0114096D01*
X0147975Y0114118D01*
X0148062Y0114135D01*
X0148150Y0114149D01*
X0148239Y0114158D01*
X0148328Y0114164D01*
X0148417Y0114166D01*
X0148928Y0111099D02*
X0148928Y0110844D01*
X0148928Y0111099D02*
X0148926Y0111161D01*
X0148921Y0111222D01*
X0148911Y0111283D01*
X0148898Y0111344D01*
X0148882Y0111403D01*
X0148862Y0111461D01*
X0148838Y0111518D01*
X0148811Y0111574D01*
X0148781Y0111628D01*
X0148747Y0111680D01*
X0148711Y0111729D01*
X0148671Y0111777D01*
X0148629Y0111822D01*
X0148584Y0111864D01*
X0148536Y0111904D01*
X0148487Y0111940D01*
X0148435Y0111974D01*
X0148381Y0112004D01*
X0148325Y0112031D01*
X0148268Y0112055D01*
X0148210Y0112075D01*
X0148151Y0112091D01*
X0148090Y0112104D01*
X0148029Y0112114D01*
X0147968Y0112119D01*
X0147906Y0112121D01*
X0148928Y0110844D02*
X0148926Y0110774D01*
X0148920Y0110703D01*
X0148911Y0110634D01*
X0148897Y0110565D01*
X0148880Y0110496D01*
X0148859Y0110429D01*
X0148834Y0110363D01*
X0148806Y0110299D01*
X0148774Y0110236D01*
X0148739Y0110175D01*
X0148700Y0110116D01*
X0148659Y0110059D01*
X0148614Y0110005D01*
X0148566Y0109953D01*
X0148516Y0109904D01*
X0148462Y0109857D01*
X0148407Y0109814D01*
X0148349Y0109774D01*
X0148289Y0109737D01*
X0148227Y0109704D01*
X0148163Y0109674D01*
X0148098Y0109647D01*
X0148032Y0109624D01*
X0147964Y0109605D01*
X0147895Y0109590D01*
X0147826Y0109578D01*
X0147756Y0109570D01*
X0147685Y0109566D01*
X0147615Y0109566D01*
X0147544Y0109570D01*
X0147474Y0109578D01*
X0147405Y0109590D01*
X0147336Y0109605D01*
X0147268Y0109624D01*
X0147202Y0109647D01*
X0147137Y0109674D01*
X0147073Y0109704D01*
X0147011Y0109737D01*
X0146951Y0109774D01*
X0146893Y0109814D01*
X0146838Y0109857D01*
X0146784Y0109904D01*
X0146734Y0109953D01*
X0146686Y0110005D01*
X0146641Y0110059D01*
X0146600Y0110116D01*
X0146561Y0110175D01*
X0146526Y0110236D01*
X0146494Y0110299D01*
X0146466Y0110363D01*
X0146441Y0110429D01*
X0146420Y0110496D01*
X0146403Y0110565D01*
X0146389Y0110634D01*
X0146380Y0110703D01*
X0146374Y0110774D01*
X0146372Y0110844D01*
X0137975Y0117401D02*
X0134909Y0122001D01*
X0133520Y0122001D02*
X0130964Y0122001D01*
X0132242Y0122001D02*
X0132242Y0117401D01*
X0134909Y0117401D02*
X0137975Y0122001D01*
X0138662Y0127007D02*
X0135595Y0131607D01*
X0132913Y0129052D02*
X0133935Y0127007D01*
X0135595Y0127007D02*
X0138662Y0131607D01*
X0132658Y0131607D02*
X0131380Y0131607D01*
X0131380Y0127007D01*
X0131380Y0129052D02*
X0132658Y0129052D01*
X0132658Y0129051D02*
X0132728Y0129053D01*
X0132799Y0129059D01*
X0132868Y0129068D01*
X0132937Y0129082D01*
X0133006Y0129099D01*
X0133073Y0129120D01*
X0133139Y0129145D01*
X0133203Y0129173D01*
X0133266Y0129205D01*
X0133327Y0129240D01*
X0133386Y0129279D01*
X0133443Y0129320D01*
X0133497Y0129365D01*
X0133549Y0129413D01*
X0133598Y0129463D01*
X0133645Y0129517D01*
X0133688Y0129572D01*
X0133728Y0129630D01*
X0133765Y0129690D01*
X0133798Y0129752D01*
X0133828Y0129816D01*
X0133855Y0129881D01*
X0133878Y0129947D01*
X0133897Y0130015D01*
X0133912Y0130084D01*
X0133924Y0130153D01*
X0133932Y0130223D01*
X0133936Y0130294D01*
X0133936Y0130364D01*
X0133932Y0130435D01*
X0133924Y0130505D01*
X0133912Y0130574D01*
X0133897Y0130643D01*
X0133878Y0130711D01*
X0133855Y0130777D01*
X0133828Y0130842D01*
X0133798Y0130906D01*
X0133765Y0130968D01*
X0133728Y0131028D01*
X0133688Y0131086D01*
X0133645Y0131141D01*
X0133598Y0131195D01*
X0133549Y0131245D01*
X0133497Y0131293D01*
X0133443Y0131338D01*
X0133386Y0131379D01*
X0133327Y0131418D01*
X0133266Y0131453D01*
X0133203Y0131485D01*
X0133139Y0131513D01*
X0133073Y0131538D01*
X0133006Y0131559D01*
X0132937Y0131576D01*
X0132868Y0131590D01*
X0132799Y0131599D01*
X0132728Y0131605D01*
X0132658Y0131607D01*
X0126758Y0154659D02*
X0123436Y0154659D01*
X0123436Y0157214D02*
X0126758Y0157214D01*
X0126828Y0157212D01*
X0126899Y0157206D01*
X0126968Y0157197D01*
X0127037Y0157183D01*
X0127106Y0157166D01*
X0127173Y0157145D01*
X0127239Y0157120D01*
X0127303Y0157092D01*
X0127366Y0157060D01*
X0127427Y0157025D01*
X0127486Y0156986D01*
X0127543Y0156945D01*
X0127597Y0156900D01*
X0127649Y0156852D01*
X0127698Y0156802D01*
X0127745Y0156748D01*
X0127788Y0156693D01*
X0127828Y0156635D01*
X0127865Y0156575D01*
X0127898Y0156513D01*
X0127928Y0156449D01*
X0127955Y0156384D01*
X0127978Y0156318D01*
X0127997Y0156250D01*
X0128012Y0156181D01*
X0128024Y0156112D01*
X0128032Y0156042D01*
X0128036Y0155971D01*
X0128036Y0155901D01*
X0128032Y0155830D01*
X0128024Y0155760D01*
X0128012Y0155691D01*
X0127997Y0155622D01*
X0127978Y0155554D01*
X0127955Y0155488D01*
X0127928Y0155423D01*
X0127898Y0155359D01*
X0127865Y0155297D01*
X0127828Y0155237D01*
X0127788Y0155179D01*
X0127745Y0155124D01*
X0127698Y0155070D01*
X0127649Y0155020D01*
X0127597Y0154972D01*
X0127543Y0154927D01*
X0127486Y0154886D01*
X0127427Y0154847D01*
X0127366Y0154812D01*
X0127303Y0154780D01*
X0127239Y0154752D01*
X0127173Y0154727D01*
X0127106Y0154706D01*
X0127037Y0154689D01*
X0126968Y0154675D01*
X0126899Y0154666D01*
X0126828Y0154660D01*
X0126758Y0154658D01*
X0128036Y0159309D02*
X0128036Y0161864D01*
X0128036Y0160586D02*
X0123436Y0160586D01*
X0124458Y0159309D01*
X0084762Y0103185D02*
X0084762Y0100630D01*
X0082206Y0102802D01*
X0080162Y0102035D02*
X0080164Y0101961D01*
X0080169Y0101887D01*
X0080179Y0101813D01*
X0080192Y0101740D01*
X0080208Y0101667D01*
X0080229Y0101596D01*
X0080253Y0101526D01*
X0080280Y0101457D01*
X0080311Y0101389D01*
X0080345Y0101323D01*
X0080382Y0101259D01*
X0080423Y0101197D01*
X0080467Y0101136D01*
X0080513Y0101079D01*
X0080563Y0101023D01*
X0080615Y0100970D01*
X0080670Y0100920D01*
X0080727Y0100873D01*
X0080787Y0100829D01*
X0080849Y0100787D01*
X0080912Y0100749D01*
X0080978Y0100714D01*
X0081045Y0100683D01*
X0081114Y0100655D01*
X0081184Y0100630D01*
X0082206Y0102802D02*
X0082159Y0102849D01*
X0082109Y0102893D01*
X0082057Y0102935D01*
X0082003Y0102974D01*
X0081947Y0103009D01*
X0081889Y0103042D01*
X0081829Y0103072D01*
X0081768Y0103098D01*
X0081705Y0103121D01*
X0081641Y0103140D01*
X0081577Y0103156D01*
X0081511Y0103169D01*
X0081445Y0103178D01*
X0081379Y0103183D01*
X0081312Y0103185D01*
X0081245Y0103183D01*
X0081178Y0103177D01*
X0081112Y0103168D01*
X0081047Y0103154D01*
X0080982Y0103137D01*
X0080919Y0103116D01*
X0080857Y0103091D01*
X0080796Y0103063D01*
X0080737Y0103031D01*
X0080680Y0102996D01*
X0080625Y0102957D01*
X0080573Y0102916D01*
X0080523Y0102871D01*
X0080476Y0102824D01*
X0080431Y0102774D01*
X0080390Y0102722D01*
X0080351Y0102667D01*
X0080316Y0102610D01*
X0080284Y0102551D01*
X0080256Y0102490D01*
X0080231Y0102428D01*
X0080210Y0102365D01*
X0080193Y0102300D01*
X0080179Y0102235D01*
X0080170Y0102169D01*
X0080164Y0102102D01*
X0080162Y0102035D01*
X0080162Y0098535D02*
X0083484Y0098535D01*
X0083484Y0098536D02*
X0083554Y0098534D01*
X0083625Y0098528D01*
X0083694Y0098519D01*
X0083763Y0098505D01*
X0083832Y0098488D01*
X0083899Y0098467D01*
X0083965Y0098442D01*
X0084029Y0098414D01*
X0084092Y0098382D01*
X0084153Y0098347D01*
X0084212Y0098308D01*
X0084269Y0098267D01*
X0084323Y0098222D01*
X0084375Y0098174D01*
X0084424Y0098124D01*
X0084471Y0098070D01*
X0084514Y0098015D01*
X0084554Y0097957D01*
X0084591Y0097897D01*
X0084624Y0097835D01*
X0084654Y0097771D01*
X0084681Y0097706D01*
X0084704Y0097640D01*
X0084723Y0097572D01*
X0084738Y0097503D01*
X0084750Y0097434D01*
X0084758Y0097364D01*
X0084762Y0097293D01*
X0084762Y0097223D01*
X0084758Y0097152D01*
X0084750Y0097082D01*
X0084738Y0097013D01*
X0084723Y0096944D01*
X0084704Y0096876D01*
X0084681Y0096810D01*
X0084654Y0096745D01*
X0084624Y0096681D01*
X0084591Y0096619D01*
X0084554Y0096559D01*
X0084514Y0096501D01*
X0084471Y0096446D01*
X0084424Y0096392D01*
X0084375Y0096342D01*
X0084323Y0096294D01*
X0084269Y0096249D01*
X0084212Y0096208D01*
X0084153Y0096169D01*
X0084092Y0096134D01*
X0084029Y0096102D01*
X0083965Y0096074D01*
X0083899Y0096049D01*
X0083832Y0096028D01*
X0083763Y0096011D01*
X0083694Y0095997D01*
X0083625Y0095988D01*
X0083554Y0095982D01*
X0083484Y0095980D01*
X0080162Y0095980D01*
X0081798Y0090190D02*
X0081798Y0086612D01*
X0081796Y0086550D01*
X0081791Y0086489D01*
X0081781Y0086428D01*
X0081768Y0086367D01*
X0081752Y0086308D01*
X0081732Y0086250D01*
X0081708Y0086193D01*
X0081681Y0086137D01*
X0081651Y0086083D01*
X0081617Y0086031D01*
X0081581Y0085982D01*
X0081541Y0085934D01*
X0081499Y0085889D01*
X0081454Y0085847D01*
X0081406Y0085807D01*
X0081357Y0085771D01*
X0081305Y0085737D01*
X0081251Y0085707D01*
X0081195Y0085680D01*
X0081138Y0085656D01*
X0081080Y0085636D01*
X0081021Y0085620D01*
X0080960Y0085607D01*
X0080899Y0085597D01*
X0080838Y0085592D01*
X0080776Y0085590D01*
X0080265Y0085590D01*
X0083875Y0085590D02*
X0086430Y0085590D01*
X0083875Y0085590D02*
X0086047Y0088145D01*
X0085280Y0090189D02*
X0085206Y0090187D01*
X0085132Y0090182D01*
X0085058Y0090172D01*
X0084985Y0090159D01*
X0084912Y0090143D01*
X0084841Y0090122D01*
X0084771Y0090098D01*
X0084702Y0090071D01*
X0084634Y0090040D01*
X0084568Y0090006D01*
X0084504Y0089969D01*
X0084442Y0089928D01*
X0084382Y0089884D01*
X0084324Y0089838D01*
X0084268Y0089788D01*
X0084215Y0089736D01*
X0084165Y0089681D01*
X0084118Y0089624D01*
X0084074Y0089564D01*
X0084032Y0089502D01*
X0083994Y0089439D01*
X0083959Y0089373D01*
X0083928Y0089306D01*
X0083900Y0089237D01*
X0083875Y0089167D01*
X0086047Y0088146D02*
X0086094Y0088193D01*
X0086138Y0088243D01*
X0086180Y0088295D01*
X0086219Y0088349D01*
X0086254Y0088405D01*
X0086287Y0088463D01*
X0086317Y0088523D01*
X0086343Y0088584D01*
X0086366Y0088647D01*
X0086385Y0088711D01*
X0086401Y0088775D01*
X0086414Y0088841D01*
X0086423Y0088907D01*
X0086428Y0088973D01*
X0086430Y0089040D01*
X0086428Y0089107D01*
X0086422Y0089174D01*
X0086413Y0089240D01*
X0086399Y0089305D01*
X0086382Y0089370D01*
X0086361Y0089433D01*
X0086336Y0089495D01*
X0086308Y0089556D01*
X0086276Y0089615D01*
X0086241Y0089672D01*
X0086202Y0089727D01*
X0086161Y0089779D01*
X0086116Y0089829D01*
X0086069Y0089876D01*
X0086019Y0089921D01*
X0085967Y0089962D01*
X0085912Y0090001D01*
X0085855Y0090036D01*
X0085796Y0090068D01*
X0085735Y0090096D01*
X0085673Y0090121D01*
X0085610Y0090142D01*
X0085545Y0090159D01*
X0085480Y0090173D01*
X0085414Y0090182D01*
X0085347Y0090188D01*
X0085280Y0090190D01*
X0073140Y0142598D02*
X0070585Y0142598D01*
X0072757Y0145153D01*
X0071990Y0147197D02*
X0071916Y0147195D01*
X0071842Y0147190D01*
X0071768Y0147180D01*
X0071695Y0147167D01*
X0071622Y0147151D01*
X0071551Y0147130D01*
X0071481Y0147106D01*
X0071412Y0147079D01*
X0071344Y0147048D01*
X0071278Y0147014D01*
X0071214Y0146977D01*
X0071152Y0146936D01*
X0071092Y0146892D01*
X0071034Y0146846D01*
X0070978Y0146796D01*
X0070925Y0146744D01*
X0070875Y0146689D01*
X0070828Y0146632D01*
X0070784Y0146572D01*
X0070742Y0146510D01*
X0070704Y0146447D01*
X0070669Y0146381D01*
X0070638Y0146314D01*
X0070610Y0146245D01*
X0070585Y0146175D01*
X0072757Y0145154D02*
X0072804Y0145201D01*
X0072848Y0145251D01*
X0072890Y0145303D01*
X0072929Y0145357D01*
X0072964Y0145413D01*
X0072997Y0145471D01*
X0073027Y0145531D01*
X0073053Y0145592D01*
X0073076Y0145655D01*
X0073095Y0145719D01*
X0073111Y0145783D01*
X0073124Y0145849D01*
X0073133Y0145915D01*
X0073138Y0145981D01*
X0073140Y0146048D01*
X0073138Y0146115D01*
X0073132Y0146182D01*
X0073123Y0146248D01*
X0073109Y0146313D01*
X0073092Y0146378D01*
X0073071Y0146441D01*
X0073046Y0146503D01*
X0073018Y0146564D01*
X0072986Y0146623D01*
X0072951Y0146680D01*
X0072912Y0146735D01*
X0072871Y0146787D01*
X0072826Y0146837D01*
X0072779Y0146884D01*
X0072729Y0146929D01*
X0072677Y0146970D01*
X0072622Y0147009D01*
X0072565Y0147044D01*
X0072506Y0147076D01*
X0072445Y0147104D01*
X0072383Y0147129D01*
X0072320Y0147150D01*
X0072255Y0147167D01*
X0072190Y0147181D01*
X0072124Y0147190D01*
X0072057Y0147196D01*
X0071990Y0147198D01*
X0067392Y0147198D02*
X0066114Y0147198D01*
X0066114Y0142598D01*
X0066114Y0144642D02*
X0067392Y0144642D01*
X0067647Y0144642D02*
X0068669Y0142598D01*
X0067392Y0144642D02*
X0067462Y0144644D01*
X0067533Y0144650D01*
X0067602Y0144659D01*
X0067671Y0144673D01*
X0067740Y0144690D01*
X0067807Y0144711D01*
X0067873Y0144736D01*
X0067937Y0144764D01*
X0068000Y0144796D01*
X0068061Y0144831D01*
X0068120Y0144870D01*
X0068177Y0144911D01*
X0068231Y0144956D01*
X0068283Y0145004D01*
X0068332Y0145054D01*
X0068379Y0145108D01*
X0068422Y0145163D01*
X0068462Y0145221D01*
X0068499Y0145281D01*
X0068532Y0145343D01*
X0068562Y0145407D01*
X0068589Y0145472D01*
X0068612Y0145538D01*
X0068631Y0145606D01*
X0068646Y0145675D01*
X0068658Y0145744D01*
X0068666Y0145814D01*
X0068670Y0145885D01*
X0068670Y0145955D01*
X0068666Y0146026D01*
X0068658Y0146096D01*
X0068646Y0146165D01*
X0068631Y0146234D01*
X0068612Y0146302D01*
X0068589Y0146368D01*
X0068562Y0146433D01*
X0068532Y0146497D01*
X0068499Y0146559D01*
X0068462Y0146619D01*
X0068422Y0146677D01*
X0068379Y0146732D01*
X0068332Y0146786D01*
X0068283Y0146836D01*
X0068231Y0146884D01*
X0068177Y0146929D01*
X0068120Y0146970D01*
X0068061Y0147009D01*
X0068000Y0147044D01*
X0067937Y0147076D01*
X0067873Y0147104D01*
X0067807Y0147129D01*
X0067740Y0147150D01*
X0067671Y0147167D01*
X0067602Y0147181D01*
X0067533Y0147190D01*
X0067462Y0147196D01*
X0067392Y0147198D01*
X0102662Y0221005D02*
X0102662Y0223560D01*
X0102662Y0222283D02*
X0107262Y0222283D01*
X0107262Y0225399D02*
X0102662Y0225399D01*
X0105217Y0226933D01*
X0102662Y0228466D01*
X0107262Y0228466D01*
X0107262Y0230605D02*
X0107262Y0233160D01*
X0107262Y0230605D02*
X0104706Y0232777D01*
X0102662Y0232010D02*
X0102664Y0231936D01*
X0102669Y0231862D01*
X0102679Y0231788D01*
X0102692Y0231715D01*
X0102708Y0231642D01*
X0102729Y0231571D01*
X0102753Y0231501D01*
X0102780Y0231432D01*
X0102811Y0231364D01*
X0102845Y0231298D01*
X0102882Y0231234D01*
X0102923Y0231172D01*
X0102967Y0231111D01*
X0103013Y0231054D01*
X0103063Y0230998D01*
X0103115Y0230945D01*
X0103170Y0230895D01*
X0103227Y0230848D01*
X0103287Y0230804D01*
X0103349Y0230762D01*
X0103412Y0230724D01*
X0103478Y0230689D01*
X0103545Y0230658D01*
X0103614Y0230630D01*
X0103684Y0230605D01*
X0104706Y0232777D02*
X0104659Y0232824D01*
X0104609Y0232868D01*
X0104557Y0232910D01*
X0104503Y0232949D01*
X0104447Y0232984D01*
X0104389Y0233017D01*
X0104329Y0233047D01*
X0104268Y0233073D01*
X0104205Y0233096D01*
X0104141Y0233115D01*
X0104077Y0233131D01*
X0104011Y0233144D01*
X0103945Y0233153D01*
X0103879Y0233158D01*
X0103812Y0233160D01*
X0103745Y0233158D01*
X0103678Y0233152D01*
X0103612Y0233143D01*
X0103547Y0233129D01*
X0103482Y0233112D01*
X0103419Y0233091D01*
X0103357Y0233066D01*
X0103296Y0233038D01*
X0103237Y0233006D01*
X0103180Y0232971D01*
X0103125Y0232932D01*
X0103073Y0232891D01*
X0103023Y0232846D01*
X0102976Y0232799D01*
X0102931Y0232749D01*
X0102890Y0232697D01*
X0102851Y0232642D01*
X0102816Y0232585D01*
X0102784Y0232526D01*
X0102756Y0232465D01*
X0102731Y0232403D01*
X0102710Y0232340D01*
X0102693Y0232275D01*
X0102679Y0232210D01*
X0102670Y0232144D01*
X0102664Y0232077D01*
X0102662Y0232010D01*
D17*
X0071438Y0155173D03*
X0068485Y0155173D03*
D18*
X0069962Y0155173D03*
X0144371Y0129583D03*
X0144371Y0119583D03*
D19*
X0116478Y0130055D02*
X0116478Y0089110D01*
X0093446Y0089110D01*
X0093446Y0130055D01*
X0116478Y0130055D01*
X0112662Y0139283D02*
X0087262Y0139283D01*
X0095476Y0126217D02*
X0095478Y0126302D01*
X0095484Y0126386D01*
X0095494Y0126471D01*
X0095508Y0126554D01*
X0095525Y0126637D01*
X0095547Y0126719D01*
X0095573Y0126800D01*
X0095602Y0126880D01*
X0095635Y0126958D01*
X0095671Y0127034D01*
X0095711Y0127109D01*
X0095755Y0127182D01*
X0095802Y0127253D01*
X0095852Y0127321D01*
X0095905Y0127387D01*
X0095962Y0127450D01*
X0096021Y0127511D01*
X0096083Y0127569D01*
X0096148Y0127624D01*
X0096215Y0127676D01*
X0096284Y0127724D01*
X0096356Y0127769D01*
X0096430Y0127811D01*
X0096506Y0127849D01*
X0096583Y0127884D01*
X0096662Y0127915D01*
X0096742Y0127943D01*
X0096824Y0127966D01*
X0096906Y0127986D01*
X0096989Y0128002D01*
X0097073Y0128014D01*
X0097158Y0128022D01*
X0097243Y0128026D01*
X0097327Y0128026D01*
X0097412Y0128022D01*
X0097497Y0128014D01*
X0097581Y0128002D01*
X0097664Y0127986D01*
X0097746Y0127966D01*
X0097828Y0127943D01*
X0097908Y0127915D01*
X0097987Y0127884D01*
X0098064Y0127849D01*
X0098140Y0127811D01*
X0098214Y0127769D01*
X0098286Y0127724D01*
X0098355Y0127676D01*
X0098422Y0127624D01*
X0098487Y0127569D01*
X0098549Y0127511D01*
X0098608Y0127450D01*
X0098665Y0127387D01*
X0098718Y0127321D01*
X0098768Y0127253D01*
X0098815Y0127182D01*
X0098859Y0127109D01*
X0098899Y0127034D01*
X0098935Y0126958D01*
X0098968Y0126880D01*
X0098997Y0126800D01*
X0099023Y0126719D01*
X0099045Y0126637D01*
X0099062Y0126554D01*
X0099076Y0126471D01*
X0099086Y0126386D01*
X0099092Y0126302D01*
X0099094Y0126217D01*
X0099092Y0126132D01*
X0099086Y0126048D01*
X0099076Y0125963D01*
X0099062Y0125880D01*
X0099045Y0125797D01*
X0099023Y0125715D01*
X0098997Y0125634D01*
X0098968Y0125554D01*
X0098935Y0125476D01*
X0098899Y0125400D01*
X0098859Y0125325D01*
X0098815Y0125252D01*
X0098768Y0125181D01*
X0098718Y0125113D01*
X0098665Y0125047D01*
X0098608Y0124984D01*
X0098549Y0124923D01*
X0098487Y0124865D01*
X0098422Y0124810D01*
X0098355Y0124758D01*
X0098286Y0124710D01*
X0098214Y0124665D01*
X0098140Y0124623D01*
X0098064Y0124585D01*
X0097987Y0124550D01*
X0097908Y0124519D01*
X0097828Y0124491D01*
X0097746Y0124468D01*
X0097664Y0124448D01*
X0097581Y0124432D01*
X0097497Y0124420D01*
X0097412Y0124412D01*
X0097327Y0124408D01*
X0097243Y0124408D01*
X0097158Y0124412D01*
X0097073Y0124420D01*
X0096989Y0124432D01*
X0096906Y0124448D01*
X0096824Y0124468D01*
X0096742Y0124491D01*
X0096662Y0124519D01*
X0096583Y0124550D01*
X0096506Y0124585D01*
X0096430Y0124623D01*
X0096356Y0124665D01*
X0096284Y0124710D01*
X0096215Y0124758D01*
X0096148Y0124810D01*
X0096083Y0124865D01*
X0096021Y0124923D01*
X0095962Y0124984D01*
X0095905Y0125047D01*
X0095852Y0125113D01*
X0095802Y0125181D01*
X0095755Y0125252D01*
X0095711Y0125325D01*
X0095671Y0125400D01*
X0095635Y0125476D01*
X0095602Y0125554D01*
X0095573Y0125634D01*
X0095547Y0125715D01*
X0095525Y0125797D01*
X0095508Y0125880D01*
X0095494Y0125963D01*
X0095484Y0126048D01*
X0095478Y0126132D01*
X0095476Y0126217D01*
X0129562Y0156183D02*
X0129562Y0172983D01*
X0139962Y0196883D02*
X0139996Y0196885D01*
X0140029Y0196891D01*
X0140061Y0196900D01*
X0140092Y0196913D01*
X0140122Y0196929D01*
X0140149Y0196948D01*
X0140174Y0196971D01*
X0140197Y0196996D01*
X0140216Y0197023D01*
X0140232Y0197053D01*
X0140245Y0197084D01*
X0140254Y0197116D01*
X0140260Y0197149D01*
X0140262Y0197183D01*
X0140260Y0197217D01*
X0140254Y0197250D01*
X0140245Y0197282D01*
X0140232Y0197313D01*
X0140216Y0197343D01*
X0140197Y0197370D01*
X0140174Y0197395D01*
X0140149Y0197418D01*
X0140122Y0197437D01*
X0140092Y0197453D01*
X0140061Y0197466D01*
X0140029Y0197475D01*
X0139996Y0197481D01*
X0139962Y0197483D01*
X0139928Y0197481D01*
X0139895Y0197475D01*
X0139863Y0197466D01*
X0139832Y0197453D01*
X0139802Y0197437D01*
X0139775Y0197418D01*
X0139750Y0197395D01*
X0139727Y0197370D01*
X0139708Y0197343D01*
X0139692Y0197313D01*
X0139679Y0197282D01*
X0139670Y0197250D01*
X0139664Y0197217D01*
X0139662Y0197183D01*
X0139664Y0197149D01*
X0139670Y0197116D01*
X0139679Y0197084D01*
X0139692Y0197053D01*
X0139708Y0197023D01*
X0139727Y0196996D01*
X0139750Y0196971D01*
X0139775Y0196948D01*
X0139802Y0196929D01*
X0139832Y0196913D01*
X0139863Y0196900D01*
X0139895Y0196891D01*
X0139928Y0196885D01*
X0139962Y0196883D01*
X0134562Y0201683D02*
X0145362Y0201683D01*
X0151862Y0209683D02*
X0151862Y0219483D01*
X0152862Y0219983D02*
X0152862Y0209183D01*
X0155262Y0203383D02*
X0183962Y0203383D01*
X0183962Y0225783D01*
X0155262Y0225783D01*
X0145362Y0227483D02*
X0134562Y0227483D01*
X0127062Y0219983D02*
X0127062Y0209183D01*
X0150362Y0172983D02*
X0150362Y0156183D01*
D20*
X0144371Y0131059D03*
X0144371Y0128106D03*
X0144371Y0121059D03*
X0144371Y0118106D03*
D21*
X0119712Y0140801D02*
X0118712Y0140801D01*
X0118712Y0142301D01*
X0119712Y0142301D01*
X0119712Y0140801D01*
X0119712Y0140855D02*
X0118712Y0140855D01*
X0118712Y0140953D02*
X0119712Y0140953D01*
X0119712Y0141052D02*
X0118712Y0141052D01*
X0118712Y0141150D02*
X0119712Y0141150D01*
X0119712Y0141249D02*
X0118712Y0141249D01*
X0118712Y0141347D02*
X0119712Y0141347D01*
X0119712Y0141446D02*
X0118712Y0141446D01*
X0118712Y0141544D02*
X0119712Y0141544D01*
X0119712Y0141643D02*
X0118712Y0141643D01*
X0118712Y0141741D02*
X0119712Y0141741D01*
X0119712Y0141840D02*
X0118712Y0141840D01*
X0118712Y0141938D02*
X0119712Y0141938D01*
X0119712Y0142037D02*
X0118712Y0142037D01*
X0118712Y0142135D02*
X0119712Y0142135D01*
X0119712Y0142234D02*
X0118712Y0142234D01*
X0118712Y0166392D02*
X0118712Y0167892D01*
X0119712Y0167892D01*
X0119712Y0166392D01*
X0118712Y0166392D01*
X0118712Y0166467D02*
X0119712Y0166467D01*
X0119712Y0166566D02*
X0118712Y0166566D01*
X0118712Y0166664D02*
X0119712Y0166664D01*
X0119712Y0166763D02*
X0118712Y0166763D01*
X0118712Y0166862D02*
X0119712Y0166862D01*
X0119712Y0166960D02*
X0118712Y0166960D01*
X0118712Y0167059D02*
X0119712Y0167059D01*
X0119712Y0167157D02*
X0118712Y0167157D01*
X0118712Y0167256D02*
X0119712Y0167256D01*
X0119712Y0167354D02*
X0118712Y0167354D01*
X0118712Y0167453D02*
X0119712Y0167453D01*
X0119712Y0167551D02*
X0118712Y0167551D01*
X0118712Y0167650D02*
X0119712Y0167650D01*
X0119712Y0167748D02*
X0118712Y0167748D01*
X0118712Y0167847D02*
X0119712Y0167847D01*
X0081212Y0165333D02*
X0080212Y0165333D01*
X0080212Y0163833D01*
X0081212Y0163833D01*
X0081212Y0165333D01*
X0081212Y0165285D02*
X0080212Y0165285D01*
X0080212Y0165187D02*
X0081212Y0165187D01*
X0081212Y0165088D02*
X0080212Y0165088D01*
X0080212Y0164990D02*
X0081212Y0164990D01*
X0081212Y0164891D02*
X0080212Y0164891D01*
X0080212Y0164793D02*
X0081212Y0164793D01*
X0081212Y0164694D02*
X0080212Y0164694D01*
X0080212Y0164596D02*
X0081212Y0164596D01*
X0081212Y0164497D02*
X0080212Y0164497D01*
X0080212Y0164399D02*
X0081212Y0164399D01*
X0081212Y0164300D02*
X0080212Y0164300D01*
X0080212Y0164202D02*
X0081212Y0164202D01*
X0081212Y0164103D02*
X0080212Y0164103D01*
X0080212Y0164005D02*
X0081212Y0164005D01*
X0081212Y0163906D02*
X0080212Y0163906D01*
D22*
X0083431Y0163538D02*
X0083431Y0166933D01*
X0083431Y0163538D02*
X0083433Y0163467D01*
X0083439Y0163397D01*
X0083448Y0163327D01*
X0083462Y0163257D01*
X0083479Y0163189D01*
X0083499Y0163121D01*
X0083524Y0163055D01*
X0083552Y0162990D01*
X0083583Y0162926D01*
X0083618Y0162865D01*
X0083656Y0162805D01*
X0083697Y0162748D01*
X0083742Y0162693D01*
X0083789Y0162640D01*
X0083839Y0162590D01*
X0083892Y0162543D01*
X0083947Y0162498D01*
X0084004Y0162457D01*
X0084064Y0162419D01*
X0084125Y0162384D01*
X0084189Y0162353D01*
X0084254Y0162325D01*
X0084320Y0162300D01*
X0084388Y0162280D01*
X0084456Y0162263D01*
X0084526Y0162249D01*
X0084596Y0162240D01*
X0084666Y0162234D01*
X0084737Y0162232D01*
X0084808Y0162234D01*
X0084878Y0162240D01*
X0084948Y0162249D01*
X0085018Y0162263D01*
X0085086Y0162280D01*
X0085154Y0162300D01*
X0085220Y0162325D01*
X0085285Y0162353D01*
X0085349Y0162384D01*
X0085410Y0162419D01*
X0085470Y0162457D01*
X0085527Y0162498D01*
X0085582Y0162543D01*
X0085635Y0162590D01*
X0085685Y0162640D01*
X0085732Y0162693D01*
X0085777Y0162748D01*
X0085818Y0162805D01*
X0085856Y0162865D01*
X0085891Y0162926D01*
X0085922Y0162990D01*
X0085950Y0163055D01*
X0085975Y0163121D01*
X0085995Y0163189D01*
X0086012Y0163257D01*
X0086026Y0163327D01*
X0086035Y0163397D01*
X0086041Y0163467D01*
X0086043Y0163538D01*
X0086042Y0163538D02*
X0086042Y0166933D01*
X0088081Y0166933D02*
X0089648Y0166933D01*
X0089648Y0166932D02*
X0089711Y0166930D01*
X0089774Y0166924D01*
X0089836Y0166915D01*
X0089898Y0166902D01*
X0089959Y0166885D01*
X0090018Y0166864D01*
X0090076Y0166840D01*
X0090133Y0166812D01*
X0090188Y0166781D01*
X0090241Y0166747D01*
X0090292Y0166710D01*
X0090340Y0166669D01*
X0090386Y0166626D01*
X0090429Y0166580D01*
X0090470Y0166532D01*
X0090507Y0166481D01*
X0090541Y0166428D01*
X0090572Y0166373D01*
X0090600Y0166316D01*
X0090624Y0166258D01*
X0090645Y0166199D01*
X0090662Y0166138D01*
X0090675Y0166076D01*
X0090684Y0166014D01*
X0090690Y0165951D01*
X0090692Y0165888D01*
X0090690Y0165825D01*
X0090684Y0165762D01*
X0090675Y0165700D01*
X0090662Y0165638D01*
X0090645Y0165577D01*
X0090624Y0165518D01*
X0090600Y0165460D01*
X0090572Y0165403D01*
X0090541Y0165348D01*
X0090507Y0165295D01*
X0090470Y0165244D01*
X0090429Y0165196D01*
X0090386Y0165150D01*
X0090340Y0165107D01*
X0090292Y0165066D01*
X0090241Y0165029D01*
X0090188Y0164995D01*
X0090133Y0164964D01*
X0090076Y0164936D01*
X0090018Y0164912D01*
X0089959Y0164891D01*
X0089898Y0164874D01*
X0089836Y0164861D01*
X0089774Y0164852D01*
X0089711Y0164846D01*
X0089648Y0164844D01*
X0088603Y0164844D01*
X0089387Y0164844D02*
X0089458Y0164842D01*
X0089528Y0164836D01*
X0089598Y0164827D01*
X0089668Y0164813D01*
X0089736Y0164796D01*
X0089804Y0164776D01*
X0089870Y0164751D01*
X0089935Y0164723D01*
X0089999Y0164692D01*
X0090060Y0164657D01*
X0090120Y0164619D01*
X0090177Y0164578D01*
X0090232Y0164533D01*
X0090285Y0164486D01*
X0090335Y0164436D01*
X0090382Y0164383D01*
X0090427Y0164328D01*
X0090468Y0164271D01*
X0090506Y0164211D01*
X0090541Y0164150D01*
X0090572Y0164086D01*
X0090600Y0164021D01*
X0090625Y0163955D01*
X0090645Y0163887D01*
X0090662Y0163819D01*
X0090676Y0163749D01*
X0090685Y0163679D01*
X0090691Y0163609D01*
X0090693Y0163538D01*
X0090691Y0163467D01*
X0090685Y0163397D01*
X0090676Y0163327D01*
X0090662Y0163257D01*
X0090645Y0163189D01*
X0090625Y0163121D01*
X0090600Y0163055D01*
X0090572Y0162990D01*
X0090541Y0162926D01*
X0090506Y0162865D01*
X0090468Y0162805D01*
X0090427Y0162748D01*
X0090382Y0162693D01*
X0090335Y0162640D01*
X0090285Y0162590D01*
X0090232Y0162543D01*
X0090177Y0162498D01*
X0090120Y0162457D01*
X0090060Y0162419D01*
X0089999Y0162384D01*
X0089935Y0162353D01*
X0089870Y0162325D01*
X0089804Y0162300D01*
X0089736Y0162280D01*
X0089668Y0162263D01*
X0089598Y0162249D01*
X0089528Y0162240D01*
X0089458Y0162234D01*
X0089387Y0162232D01*
X0089387Y0162233D02*
X0088081Y0162233D01*
X0084762Y0189285D02*
X0083848Y0190460D01*
X0082412Y0190983D01*
X0083848Y0190460D02*
X0083848Y0192027D01*
X0083848Y0190460D02*
X0085284Y0190983D01*
X0083848Y0190460D02*
X0082934Y0189285D01*
M02*
