G75*
%MOIN*%
%OFA0B0*%
%FSLAX25Y25*%
%IPPOS*%
%LPD*%
%AMOC8*
5,1,8,0,0,1.08239X$1,22.5*
%
%ADD10R,0.03950X0.05524*%
%ADD11R,0.10131X0.09580*%
%ADD12R,0.03280X0.04068*%
%ADD13C,0.04500*%
%ADD14C,0.05131*%
%ADD15C,0.06422*%
%ADD16R,0.06422X0.06422*%
%ADD17C,0.07493*%
%ADD18R,0.03950X0.03950*%
%ADD19R,0.04737X0.05131*%
%ADD20R,0.05131X0.04737*%
%ADD21C,0.09800*%
%ADD22C,0.10250*%
%ADD23C,0.08200*%
%ADD24R,0.06706X0.07099*%
%ADD25R,0.05524X0.05524*%
%ADD26R,0.07400X0.02200*%
%ADD27R,0.02900X0.08600*%
%ADD28R,0.06300X0.02170*%
%ADD29C,0.03778*%
D10*
X0046419Y0134583D03*
X0053505Y0134583D03*
X0053505Y0154583D03*
X0046419Y0154583D03*
X0046419Y0174583D03*
X0053505Y0174583D03*
X0091419Y0199583D03*
X0098505Y0199583D03*
X0136419Y0189583D03*
X0143505Y0189583D03*
D11*
X0069686Y0114583D03*
X0050237Y0114583D03*
D12*
X0110434Y0204583D03*
X0119489Y0204583D03*
D13*
X0144962Y0089583D03*
X0144962Y0084583D03*
X0144962Y0079583D03*
X0144962Y0074583D03*
X0144962Y0069583D03*
X0149962Y0069583D03*
X0149962Y0074583D03*
X0149962Y0079583D03*
X0149962Y0084583D03*
X0149962Y0089583D03*
D14*
X0113820Y0072654D03*
X0096104Y0072654D03*
D15*
X0101025Y0080921D03*
X0108899Y0080921D03*
X0091182Y0080921D03*
D16*
X0118741Y0080921D03*
D17*
X0127403Y0076000D02*
X0127403Y0069307D01*
X0082521Y0069307D02*
X0082521Y0076000D01*
D18*
X0069962Y0151630D03*
X0069962Y0157535D03*
X0142009Y0129583D03*
X0147915Y0129583D03*
X0147915Y0119583D03*
X0142009Y0119583D03*
D19*
X0141615Y0104583D03*
X0148308Y0104583D03*
X0129962Y0136236D03*
X0129962Y0142929D03*
D20*
X0073308Y0174583D03*
X0066615Y0174583D03*
X0069962Y0137929D03*
X0069962Y0131236D03*
X0111615Y0219583D03*
X0118308Y0219583D03*
D21*
X0139962Y0214583D03*
D22*
X0129962Y0224583D03*
X0129962Y0204583D03*
X0149962Y0204583D03*
X0149962Y0224583D03*
D23*
X0046062Y0071783D03*
X0063862Y0071783D03*
X0063862Y0097383D03*
X0046062Y0097383D03*
X0054962Y0194583D03*
X0054962Y0204583D03*
X0054962Y0214583D03*
X0054962Y0224583D03*
X0064962Y0224583D03*
X0064962Y0214583D03*
X0064962Y0204583D03*
X0064962Y0194583D03*
D24*
X0094962Y0213677D03*
D25*
X0098899Y0226768D03*
X0091025Y0226768D03*
D26*
X0085512Y0187614D03*
X0085512Y0185055D03*
X0085512Y0182496D03*
X0085512Y0179937D03*
X0085512Y0177378D03*
X0085512Y0174819D03*
X0085512Y0172260D03*
X0085512Y0169701D03*
X0085512Y0167142D03*
X0085512Y0164583D03*
X0085512Y0162024D03*
X0085512Y0159465D03*
X0085512Y0156906D03*
X0085512Y0154346D03*
X0085512Y0151787D03*
X0085512Y0149228D03*
X0085512Y0146669D03*
X0085512Y0144110D03*
X0085512Y0141551D03*
X0114412Y0141551D03*
X0114412Y0144110D03*
X0114412Y0146669D03*
X0114412Y0149228D03*
X0114412Y0151787D03*
X0114412Y0154346D03*
X0114412Y0156906D03*
X0114412Y0159465D03*
X0114412Y0162024D03*
X0114412Y0164583D03*
X0114412Y0167142D03*
X0114412Y0169701D03*
X0114412Y0172260D03*
X0114412Y0174819D03*
X0114412Y0177378D03*
X0114412Y0179937D03*
X0114412Y0182496D03*
X0114412Y0185055D03*
X0114412Y0187614D03*
D27*
X0132462Y0174283D03*
X0137462Y0174283D03*
X0142462Y0174283D03*
X0147462Y0174283D03*
X0147462Y0154883D03*
X0142462Y0154883D03*
X0137462Y0154883D03*
X0132462Y0154883D03*
D28*
X0119356Y0126217D03*
X0119356Y0123657D03*
X0119356Y0121098D03*
X0119356Y0118539D03*
X0119356Y0115980D03*
X0119356Y0113421D03*
X0119356Y0110862D03*
X0119356Y0108303D03*
X0119356Y0105744D03*
X0119356Y0103185D03*
X0119356Y0100626D03*
X0119356Y0098067D03*
X0119356Y0095508D03*
X0119356Y0092949D03*
X0090568Y0092949D03*
X0090568Y0095508D03*
X0090568Y0098067D03*
X0090568Y0100626D03*
X0090568Y0103185D03*
X0090568Y0105744D03*
X0090568Y0108303D03*
X0090568Y0110862D03*
X0090568Y0113421D03*
X0090568Y0115980D03*
X0090568Y0118539D03*
X0090568Y0121098D03*
X0090568Y0123657D03*
X0090568Y0126217D03*
D29*
X0097762Y0126183D03*
X0100162Y0121383D03*
X0103162Y0135783D03*
X0091162Y0139383D03*
X0108562Y0167583D03*
X0108562Y0171183D03*
X0085162Y0190983D03*
X0071962Y0214383D03*
X0134962Y0168783D03*
X0113962Y0102783D03*
X0111562Y0093183D03*
X0114562Y0090783D03*
X0133762Y0085983D03*
M02*
