%
M48
M72
T01C0.01378
T02C0.03622
T03C0.04000
T04C0.04331
T05C0.06000
T06C0.06300
%
T01
X73502Y104817
X81602Y110017
X100002Y110817
X104002Y118317
X110502Y130317
X103002Y157817
X97002Y161317
X116502Y196817
X115981Y207787
X109502Y231717
X108842Y262156
X91102Y225517
X67402Y235717
X65102Y211917
X61252Y211567
X50602Y166217
X61502Y145917
T02
X89223Y97655
X99065Y97655
X106939Y97655
X116782Y97655
T03
X38602Y82017
X38602Y107617
X56402Y107617
X56402Y82017
X40002Y162817
X40002Y172817
X40002Y182817
X40002Y192817
X40002Y202817
X40002Y212817
X40002Y222817
T04
X80561Y89387
X94144Y89387
X111861Y89387
X125443Y89387
T05
X47002Y250817
T06
X37002Y260817
X37002Y240817
X57002Y240817
X57002Y260817
M30
