G75*
%MOIN*%
%OFA0B0*%
%FSLAX25Y25*%
%IPPOS*%
%LPD*%
%AMOC8*
5,1,8,0,0,1.08239X$1,22.5*
%
%ADD10C,0.03700*%
%ADD11C,0.05622*%
%ADD12R,0.05622X0.05622*%
%ADD13C,0.06693*%
%ADD14R,0.02362X0.01574*%
%ADD15R,0.01574X0.02362*%
%ADD16R,0.03150X0.01574*%
%ADD17R,0.01574X0.03150*%
%ADD18C,0.09000*%
%ADD19C,0.09450*%
%ADD20C,0.07400*%
%ADD21C,0.00600*%
%ADD22C,0.02978*%
D10*
X0117324Y0069583D03*
X0117324Y0074583D03*
X0117324Y0079583D03*
X0117324Y0084583D03*
X0117324Y0089583D03*
X0122324Y0089583D03*
X0122324Y0084583D03*
X0122324Y0079583D03*
X0122324Y0074583D03*
X0122324Y0069583D03*
D11*
X0081261Y0080921D03*
X0073387Y0080921D03*
X0063544Y0080921D03*
D12*
X0091103Y0080921D03*
D13*
X0099765Y0076000D02*
X0099765Y0069307D01*
X0054883Y0069307D02*
X0054883Y0076000D01*
D14*
X0102324Y0139583D03*
D15*
X0087324Y0219583D03*
X0042324Y0174583D03*
D16*
X0042324Y0134583D03*
D17*
X0117324Y0104583D03*
D18*
X0112324Y0214583D03*
D19*
X0122324Y0224583D03*
X0122324Y0204583D03*
X0102324Y0204583D03*
X0102324Y0224583D03*
D20*
X0037324Y0224583D03*
X0037324Y0214583D03*
X0037324Y0204583D03*
X0037324Y0194583D03*
X0027324Y0194583D03*
X0027324Y0204583D03*
X0027324Y0214583D03*
X0027324Y0224583D03*
X0036224Y0097383D03*
X0036224Y0071783D03*
X0018424Y0071783D03*
X0018424Y0097383D03*
D21*
X0011624Y0063883D02*
X0011624Y0230243D01*
X0131724Y0230243D01*
X0131724Y0063883D01*
X0011624Y0063883D01*
X0011624Y0064371D02*
X0131724Y0064371D01*
X0131724Y0064969D02*
X0123407Y0064969D01*
X0122821Y0064383D02*
X0125821Y0067383D01*
X0126524Y0068086D01*
X0126524Y0072080D01*
X0124925Y0073678D01*
X0125074Y0074036D01*
X0125074Y0075130D01*
X0124655Y0076140D01*
X0123881Y0076914D01*
X0123474Y0077083D01*
X0123881Y0077251D01*
X0124655Y0078025D01*
X0125074Y0079036D01*
X0125074Y0080130D01*
X0124808Y0080770D01*
X0126524Y0082486D01*
X0126524Y0087080D01*
X0125821Y0087783D01*
X0124925Y0088678D01*
X0125074Y0089036D01*
X0125074Y0090130D01*
X0124655Y0091140D01*
X0123881Y0091914D01*
X0122871Y0092333D01*
X0121777Y0092333D01*
X0120766Y0091914D01*
X0119992Y0091140D01*
X0119824Y0090733D01*
X0119655Y0091140D01*
X0118881Y0091914D01*
X0117871Y0092333D01*
X0116777Y0092333D01*
X0116136Y0092067D01*
X0109610Y0098594D01*
X0110113Y0098594D01*
X0111513Y0099993D01*
X0111513Y0101972D01*
X0110113Y0103372D01*
X0108432Y0103372D01*
X0088713Y0123091D01*
X0088713Y0124772D01*
X0087313Y0126172D01*
X0085334Y0126172D01*
X0083983Y0124820D01*
X0083313Y0125491D01*
X0083313Y0127172D01*
X0082124Y0128361D01*
X0082124Y0137686D01*
X0083821Y0139383D01*
X0084524Y0140086D01*
X0084524Y0145280D01*
X0067113Y0162691D01*
X0067113Y0164372D01*
X0065713Y0165772D01*
X0063734Y0165772D01*
X0062335Y0164372D01*
X0062335Y0162393D01*
X0063734Y0160994D01*
X0065416Y0160994D01*
X0082124Y0144286D01*
X0082124Y0143961D01*
X0081913Y0144172D01*
X0079934Y0144172D01*
X0078745Y0142983D01*
X0076227Y0142983D01*
X0069627Y0136383D01*
X0068924Y0135680D01*
X0068924Y0118161D01*
X0067735Y0116972D01*
X0067735Y0116469D01*
X0028724Y0155480D01*
X0028724Y0190184D01*
X0029929Y0190683D01*
X0031223Y0191977D01*
X0031284Y0192125D01*
X0035924Y0187486D01*
X0036627Y0186783D01*
X0078745Y0186783D01*
X0079934Y0185594D01*
X0081913Y0185594D01*
X0083313Y0186993D01*
X0083313Y0188972D01*
X0081913Y0190372D01*
X0079934Y0190372D01*
X0078745Y0189183D01*
X0037621Y0189183D01*
X0036821Y0189983D01*
X0038239Y0189983D01*
X0039929Y0190683D01*
X0041223Y0191977D01*
X0041806Y0193383D01*
X0071221Y0193383D01*
X0075432Y0197594D01*
X0077113Y0197594D01*
X0078302Y0198783D01*
X0098221Y0198783D01*
X0099218Y0199780D01*
X0101205Y0198958D01*
X0103443Y0198958D01*
X0105510Y0199814D01*
X0107092Y0201396D01*
X0107949Y0203464D01*
X0107949Y0205461D01*
X0111524Y0201886D01*
X0111524Y0170361D01*
X0110335Y0169172D01*
X0110335Y0167193D01*
X0111734Y0165794D01*
X0113713Y0165794D01*
X0115113Y0167193D01*
X0115113Y0169172D01*
X0113924Y0170361D01*
X0113924Y0202880D01*
X0105524Y0211280D01*
X0104821Y0211983D01*
X0056427Y0211983D01*
X0051016Y0206572D01*
X0049334Y0206572D01*
X0048145Y0205383D01*
X0041924Y0205383D01*
X0041924Y0205498D01*
X0041223Y0207188D01*
X0039929Y0208482D01*
X0038239Y0209183D01*
X0036409Y0209183D01*
X0034718Y0208482D01*
X0033424Y0207188D01*
X0032724Y0205498D01*
X0032724Y0203668D01*
X0033424Y0201977D01*
X0034718Y0200683D01*
X0036409Y0199983D01*
X0038239Y0199983D01*
X0039929Y0200683D01*
X0041223Y0201977D01*
X0041640Y0202983D01*
X0048145Y0202983D01*
X0049334Y0201794D01*
X0051313Y0201794D01*
X0052713Y0203193D01*
X0052713Y0204875D01*
X0057421Y0209583D01*
X0099696Y0209583D01*
X0099137Y0209351D01*
X0097555Y0207769D01*
X0096699Y0205702D01*
X0096699Y0203464D01*
X0097521Y0201477D01*
X0097227Y0201183D01*
X0078302Y0201183D01*
X0077113Y0202372D01*
X0075134Y0202372D01*
X0073735Y0200972D01*
X0073735Y0199291D01*
X0070227Y0195783D01*
X0041806Y0195783D01*
X0041223Y0197188D01*
X0039929Y0198482D01*
X0038239Y0199183D01*
X0036409Y0199183D01*
X0034718Y0198482D01*
X0033424Y0197188D01*
X0033363Y0197041D01*
X0032821Y0197583D01*
X0029782Y0200622D01*
X0029929Y0200683D01*
X0031223Y0201977D01*
X0031924Y0203668D01*
X0031924Y0205498D01*
X0031223Y0207188D01*
X0029929Y0208482D01*
X0029923Y0208485D01*
X0030524Y0209086D01*
X0033421Y0211983D01*
X0033424Y0211977D01*
X0034718Y0210683D01*
X0036409Y0209983D01*
X0038239Y0209983D01*
X0039929Y0210683D01*
X0041223Y0211977D01*
X0041924Y0213668D01*
X0041924Y0215498D01*
X0041223Y0217188D01*
X0039929Y0218482D01*
X0038239Y0219183D01*
X0036409Y0219183D01*
X0034718Y0218482D01*
X0033424Y0217188D01*
X0032724Y0215498D01*
X0032724Y0214680D01*
X0031924Y0213880D01*
X0031924Y0215498D01*
X0031223Y0217188D01*
X0029929Y0218482D01*
X0028239Y0219183D01*
X0026409Y0219183D01*
X0024718Y0218482D01*
X0023424Y0217188D01*
X0022724Y0215498D01*
X0022724Y0213668D01*
X0023424Y0211977D01*
X0024718Y0210683D01*
X0025007Y0210563D01*
X0022227Y0207783D01*
X0021524Y0207080D01*
X0021524Y0150286D01*
X0055135Y0116675D01*
X0055135Y0114993D01*
X0056534Y0113594D01*
X0058513Y0113594D01*
X0059913Y0114993D01*
X0059913Y0116972D01*
X0058513Y0118372D01*
X0056832Y0118372D01*
X0023924Y0151280D01*
X0023924Y0191477D01*
X0024718Y0190683D01*
X0026324Y0190018D01*
X0026324Y0154486D01*
X0078524Y0102286D01*
X0079227Y0101583D01*
X0084145Y0101583D01*
X0085124Y0100604D01*
X0085124Y0096561D01*
X0084313Y0097372D01*
X0082334Y0097372D01*
X0080935Y0095972D01*
X0080935Y0093993D01*
X0082124Y0092804D01*
X0082124Y0091280D01*
X0075080Y0084236D01*
X0074125Y0084632D01*
X0072648Y0084632D01*
X0071284Y0084067D01*
X0070241Y0083023D01*
X0069676Y0081659D01*
X0069676Y0080183D01*
X0070192Y0078936D01*
X0069751Y0079119D01*
X0067179Y0079119D01*
X0066739Y0078936D01*
X0067255Y0080183D01*
X0067255Y0081659D01*
X0066690Y0083023D01*
X0065646Y0084067D01*
X0064282Y0084632D01*
X0062806Y0084632D01*
X0061442Y0084067D01*
X0060398Y0083023D01*
X0059833Y0081659D01*
X0059833Y0080183D01*
X0060398Y0078819D01*
X0061442Y0077775D01*
X0062806Y0077210D01*
X0063879Y0077210D01*
X0062984Y0076316D01*
X0062000Y0073940D01*
X0062000Y0071367D01*
X0062984Y0068991D01*
X0064803Y0067172D01*
X0067179Y0066188D01*
X0069751Y0066188D01*
X0072128Y0067172D01*
X0073946Y0068991D01*
X0074931Y0071367D01*
X0074931Y0073940D01*
X0073946Y0076316D01*
X0073052Y0077210D01*
X0074125Y0077210D01*
X0075489Y0077775D01*
X0076533Y0078819D01*
X0077098Y0080183D01*
X0077098Y0081659D01*
X0076746Y0082508D01*
X0084524Y0090286D01*
X0084524Y0091004D01*
X0085124Y0090404D01*
X0085124Y0086480D01*
X0082902Y0084258D01*
X0081999Y0084632D01*
X0080522Y0084632D01*
X0079159Y0084067D01*
X0078115Y0083023D01*
X0077550Y0081659D01*
X0077550Y0080183D01*
X0078115Y0078819D01*
X0079159Y0077775D01*
X0080522Y0077210D01*
X0081595Y0077210D01*
X0080701Y0076316D01*
X0079717Y0073940D01*
X0079717Y0071367D01*
X0080701Y0068991D01*
X0082520Y0067172D01*
X0084896Y0066188D01*
X0087468Y0066188D01*
X0089844Y0067172D01*
X0091663Y0068991D01*
X0092647Y0071367D01*
X0092647Y0073940D01*
X0091663Y0076316D01*
X0090769Y0077210D01*
X0094287Y0077210D01*
X0094814Y0077737D01*
X0094814Y0084105D01*
X0094287Y0084632D01*
X0091724Y0084632D01*
X0091724Y0092480D01*
X0091021Y0093183D01*
X0087524Y0096680D01*
X0087524Y0100604D01*
X0088713Y0101793D01*
X0088713Y0103772D01*
X0087313Y0105172D01*
X0085334Y0105172D01*
X0084145Y0103983D01*
X0080221Y0103983D01*
X0070610Y0113594D01*
X0071113Y0113594D01*
X0072513Y0114993D01*
X0072513Y0116972D01*
X0071324Y0118161D01*
X0071324Y0134686D01*
X0073735Y0137097D01*
X0073735Y0136593D01*
X0074924Y0135404D01*
X0074924Y0119086D01*
X0096638Y0097372D01*
X0096134Y0097372D01*
X0094735Y0095972D01*
X0094735Y0093993D01*
X0095924Y0092804D01*
X0095924Y0084886D01*
X0096627Y0084183D01*
X0100563Y0080246D01*
X0098920Y0080246D01*
X0097359Y0079600D01*
X0096165Y0078405D01*
X0095518Y0076845D01*
X0095518Y0068462D01*
X0096165Y0066902D01*
X0097359Y0065707D01*
X0098920Y0065061D01*
X0100609Y0065061D01*
X0102170Y0065707D01*
X0103365Y0066902D01*
X0104011Y0068462D01*
X0104011Y0070983D01*
X0108027Y0070983D01*
X0113924Y0065086D01*
X0114627Y0064383D01*
X0122821Y0064383D01*
X0122324Y0065583D02*
X0125324Y0068583D01*
X0125324Y0071583D01*
X0122324Y0074583D01*
X0123820Y0076940D02*
X0131724Y0076940D01*
X0131724Y0077538D02*
X0124168Y0077538D01*
X0124701Y0078137D02*
X0131724Y0078137D01*
X0131724Y0078735D02*
X0124949Y0078735D01*
X0125074Y0079334D02*
X0131724Y0079334D01*
X0131724Y0079932D02*
X0125074Y0079932D01*
X0124908Y0080531D02*
X0131724Y0080531D01*
X0131724Y0081129D02*
X0125167Y0081129D01*
X0125766Y0081728D02*
X0131724Y0081728D01*
X0131724Y0082326D02*
X0126364Y0082326D01*
X0126524Y0082925D02*
X0131724Y0082925D01*
X0131724Y0083523D02*
X0126524Y0083523D01*
X0126524Y0084122D02*
X0131724Y0084122D01*
X0131724Y0084720D02*
X0126524Y0084720D01*
X0126524Y0085319D02*
X0131724Y0085319D01*
X0131724Y0085917D02*
X0126524Y0085917D01*
X0126524Y0086516D02*
X0131724Y0086516D01*
X0131724Y0087114D02*
X0126489Y0087114D01*
X0125891Y0087713D02*
X0131724Y0087713D01*
X0131724Y0088311D02*
X0125292Y0088311D01*
X0125021Y0088910D02*
X0131724Y0088910D01*
X0131724Y0089508D02*
X0125074Y0089508D01*
X0125074Y0090107D02*
X0131724Y0090107D01*
X0131724Y0090705D02*
X0124835Y0090705D01*
X0124492Y0091304D02*
X0131724Y0091304D01*
X0131724Y0091902D02*
X0123893Y0091902D01*
X0122324Y0089583D02*
X0125324Y0086583D01*
X0125324Y0082983D01*
X0122324Y0079983D01*
X0122324Y0079583D01*
X0124454Y0076341D02*
X0131724Y0076341D01*
X0131724Y0075742D02*
X0124820Y0075742D01*
X0125068Y0075144D02*
X0131724Y0075144D01*
X0131724Y0074545D02*
X0125074Y0074545D01*
X0125037Y0073947D02*
X0131724Y0073947D01*
X0131724Y0073348D02*
X0125255Y0073348D01*
X0125853Y0072750D02*
X0131724Y0072750D01*
X0131724Y0072151D02*
X0126452Y0072151D01*
X0126524Y0071553D02*
X0131724Y0071553D01*
X0131724Y0070954D02*
X0126524Y0070954D01*
X0126524Y0070356D02*
X0131724Y0070356D01*
X0131724Y0069757D02*
X0126524Y0069757D01*
X0126524Y0069159D02*
X0131724Y0069159D01*
X0131724Y0068560D02*
X0126524Y0068560D01*
X0126400Y0067962D02*
X0131724Y0067962D01*
X0131724Y0067363D02*
X0125801Y0067363D01*
X0125203Y0066765D02*
X0131724Y0066765D01*
X0131724Y0066166D02*
X0124604Y0066166D01*
X0124006Y0065568D02*
X0131724Y0065568D01*
X0122324Y0065583D02*
X0115124Y0065583D01*
X0108524Y0072183D01*
X0100124Y0072183D01*
X0099765Y0072654D01*
X0095725Y0067962D02*
X0090634Y0067962D01*
X0091232Y0068560D02*
X0095518Y0068560D01*
X0095518Y0069159D02*
X0091732Y0069159D01*
X0091980Y0069757D02*
X0095518Y0069757D01*
X0095518Y0070356D02*
X0092228Y0070356D01*
X0092476Y0070954D02*
X0095518Y0070954D01*
X0095518Y0071553D02*
X0092647Y0071553D01*
X0092647Y0072151D02*
X0095518Y0072151D01*
X0095518Y0072750D02*
X0092647Y0072750D01*
X0092647Y0073348D02*
X0095518Y0073348D01*
X0095518Y0073947D02*
X0092644Y0073947D01*
X0092396Y0074545D02*
X0095518Y0074545D01*
X0095518Y0075144D02*
X0092148Y0075144D01*
X0091900Y0075742D02*
X0095518Y0075742D01*
X0095518Y0076341D02*
X0091638Y0076341D01*
X0091039Y0076940D02*
X0095557Y0076940D01*
X0095805Y0077538D02*
X0094615Y0077538D01*
X0094814Y0078137D02*
X0096053Y0078137D01*
X0096494Y0078735D02*
X0094814Y0078735D01*
X0094814Y0079334D02*
X0097093Y0079334D01*
X0098161Y0079932D02*
X0094814Y0079932D01*
X0094814Y0080531D02*
X0100279Y0080531D01*
X0099680Y0081129D02*
X0094814Y0081129D01*
X0094814Y0081728D02*
X0099082Y0081728D01*
X0098483Y0082326D02*
X0094814Y0082326D01*
X0094814Y0082925D02*
X0097885Y0082925D01*
X0097286Y0083523D02*
X0094814Y0083523D01*
X0094798Y0084122D02*
X0096688Y0084122D01*
X0096089Y0084720D02*
X0091724Y0084720D01*
X0091724Y0085319D02*
X0095924Y0085319D01*
X0095924Y0085917D02*
X0091724Y0085917D01*
X0091724Y0086516D02*
X0095924Y0086516D01*
X0095924Y0087114D02*
X0091724Y0087114D01*
X0091724Y0087713D02*
X0095924Y0087713D01*
X0095924Y0088311D02*
X0091724Y0088311D01*
X0091724Y0088910D02*
X0095924Y0088910D01*
X0095924Y0089508D02*
X0091724Y0089508D01*
X0091724Y0090107D02*
X0095924Y0090107D01*
X0095924Y0090705D02*
X0091724Y0090705D01*
X0091724Y0091304D02*
X0095924Y0091304D01*
X0095924Y0091902D02*
X0091724Y0091902D01*
X0091703Y0092501D02*
X0095924Y0092501D01*
X0095628Y0093099D02*
X0091104Y0093099D01*
X0090506Y0093698D02*
X0095030Y0093698D01*
X0094735Y0094296D02*
X0089907Y0094296D01*
X0089308Y0094895D02*
X0094735Y0094895D01*
X0094735Y0095493D02*
X0088710Y0095493D01*
X0088111Y0096092D02*
X0094854Y0096092D01*
X0095453Y0096690D02*
X0087524Y0096690D01*
X0087524Y0097289D02*
X0096051Y0097289D01*
X0096122Y0097887D02*
X0087524Y0097887D01*
X0087524Y0098486D02*
X0095523Y0098486D01*
X0094925Y0099084D02*
X0087524Y0099084D01*
X0087524Y0099683D02*
X0094326Y0099683D01*
X0093728Y0100281D02*
X0087524Y0100281D01*
X0087799Y0100880D02*
X0093129Y0100880D01*
X0092531Y0101478D02*
X0088398Y0101478D01*
X0088713Y0102077D02*
X0091932Y0102077D01*
X0091334Y0102675D02*
X0088713Y0102675D01*
X0088713Y0103274D02*
X0090735Y0103274D01*
X0090137Y0103873D02*
X0088612Y0103873D01*
X0088014Y0104471D02*
X0089538Y0104471D01*
X0088940Y0105070D02*
X0087415Y0105070D01*
X0088341Y0105668D02*
X0078535Y0105668D01*
X0077937Y0106267D02*
X0087743Y0106267D01*
X0087144Y0106865D02*
X0077338Y0106865D01*
X0076740Y0107464D02*
X0086546Y0107464D01*
X0085947Y0108062D02*
X0076141Y0108062D01*
X0075543Y0108661D02*
X0085349Y0108661D01*
X0084750Y0109259D02*
X0074944Y0109259D01*
X0074346Y0109858D02*
X0084152Y0109858D01*
X0083553Y0110456D02*
X0073747Y0110456D01*
X0073149Y0111055D02*
X0082955Y0111055D01*
X0082356Y0111653D02*
X0072550Y0111653D01*
X0071952Y0112252D02*
X0081758Y0112252D01*
X0081159Y0112850D02*
X0071353Y0112850D01*
X0070755Y0113449D02*
X0080561Y0113449D01*
X0079962Y0114047D02*
X0071567Y0114047D01*
X0072165Y0114646D02*
X0079364Y0114646D01*
X0078765Y0115244D02*
X0072513Y0115244D01*
X0072513Y0115843D02*
X0078166Y0115843D01*
X0077568Y0116441D02*
X0072513Y0116441D01*
X0072445Y0117040D02*
X0076969Y0117040D01*
X0076371Y0117638D02*
X0071847Y0117638D01*
X0071324Y0118237D02*
X0075772Y0118237D01*
X0075174Y0118835D02*
X0071324Y0118835D01*
X0071324Y0119434D02*
X0074924Y0119434D01*
X0074924Y0120032D02*
X0071324Y0120032D01*
X0071324Y0120631D02*
X0074924Y0120631D01*
X0074924Y0121229D02*
X0071324Y0121229D01*
X0071324Y0121828D02*
X0074924Y0121828D01*
X0074924Y0122426D02*
X0071324Y0122426D01*
X0071324Y0123025D02*
X0074924Y0123025D01*
X0074924Y0123623D02*
X0071324Y0123623D01*
X0071324Y0124222D02*
X0074924Y0124222D01*
X0074924Y0124820D02*
X0071324Y0124820D01*
X0071324Y0125419D02*
X0074924Y0125419D01*
X0074924Y0126017D02*
X0071324Y0126017D01*
X0071324Y0126616D02*
X0074924Y0126616D01*
X0074924Y0127214D02*
X0071324Y0127214D01*
X0071324Y0127813D02*
X0074924Y0127813D01*
X0074924Y0128411D02*
X0071324Y0128411D01*
X0071324Y0129010D02*
X0074924Y0129010D01*
X0074924Y0129609D02*
X0071324Y0129609D01*
X0071324Y0130207D02*
X0074924Y0130207D01*
X0074924Y0130806D02*
X0071324Y0130806D01*
X0071324Y0131404D02*
X0074924Y0131404D01*
X0074924Y0132003D02*
X0071324Y0132003D01*
X0071324Y0132601D02*
X0074924Y0132601D01*
X0074924Y0133200D02*
X0071324Y0133200D01*
X0071324Y0133798D02*
X0074924Y0133798D01*
X0074924Y0134397D02*
X0071324Y0134397D01*
X0071633Y0134995D02*
X0074924Y0134995D01*
X0074734Y0135594D02*
X0072232Y0135594D01*
X0072830Y0136192D02*
X0074136Y0136192D01*
X0073735Y0136791D02*
X0073429Y0136791D01*
X0071830Y0138586D02*
X0045617Y0138586D01*
X0046216Y0137988D02*
X0071232Y0137988D01*
X0070633Y0137389D02*
X0046814Y0137389D01*
X0047413Y0136791D02*
X0070035Y0136791D01*
X0069436Y0136192D02*
X0048011Y0136192D01*
X0048610Y0135594D02*
X0068924Y0135594D01*
X0068924Y0134995D02*
X0049208Y0134995D01*
X0049807Y0134397D02*
X0068924Y0134397D01*
X0068924Y0133798D02*
X0050405Y0133798D01*
X0051004Y0133200D02*
X0068924Y0133200D01*
X0068924Y0132601D02*
X0051602Y0132601D01*
X0052201Y0132003D02*
X0068924Y0132003D01*
X0068924Y0131404D02*
X0052799Y0131404D01*
X0053398Y0130806D02*
X0068924Y0130806D01*
X0068924Y0130207D02*
X0053996Y0130207D01*
X0054595Y0129609D02*
X0068924Y0129609D01*
X0068924Y0129010D02*
X0055193Y0129010D01*
X0055792Y0128411D02*
X0068924Y0128411D01*
X0068924Y0127813D02*
X0056390Y0127813D01*
X0056989Y0127214D02*
X0068924Y0127214D01*
X0068924Y0126616D02*
X0057587Y0126616D01*
X0058186Y0126017D02*
X0068924Y0126017D01*
X0068924Y0125419D02*
X0058784Y0125419D01*
X0059383Y0124820D02*
X0068924Y0124820D01*
X0068924Y0124222D02*
X0059981Y0124222D01*
X0060580Y0123623D02*
X0068924Y0123623D01*
X0068924Y0123025D02*
X0061178Y0123025D01*
X0061777Y0122426D02*
X0068924Y0122426D01*
X0068924Y0121828D02*
X0062375Y0121828D01*
X0062974Y0121229D02*
X0068924Y0121229D01*
X0068924Y0120631D02*
X0063573Y0120631D01*
X0064171Y0120032D02*
X0068924Y0120032D01*
X0068924Y0119434D02*
X0064770Y0119434D01*
X0065368Y0118835D02*
X0068924Y0118835D01*
X0068924Y0118237D02*
X0065967Y0118237D01*
X0066565Y0117638D02*
X0068401Y0117638D01*
X0067802Y0117040D02*
X0067164Y0117040D01*
X0065565Y0115244D02*
X0059913Y0115244D01*
X0059913Y0115843D02*
X0064966Y0115843D01*
X0064368Y0116441D02*
X0059913Y0116441D01*
X0059845Y0117040D02*
X0063769Y0117040D01*
X0063171Y0117638D02*
X0059247Y0117638D01*
X0058648Y0118237D02*
X0062572Y0118237D01*
X0061974Y0118835D02*
X0056368Y0118835D01*
X0055770Y0119434D02*
X0061375Y0119434D01*
X0060777Y0120032D02*
X0055171Y0120032D01*
X0054573Y0120631D02*
X0060178Y0120631D01*
X0059580Y0121229D02*
X0053974Y0121229D01*
X0053375Y0121828D02*
X0058981Y0121828D01*
X0058383Y0122426D02*
X0052777Y0122426D01*
X0052178Y0123025D02*
X0057784Y0123025D01*
X0057186Y0123623D02*
X0051580Y0123623D01*
X0050981Y0124222D02*
X0056587Y0124222D01*
X0055989Y0124820D02*
X0050383Y0124820D01*
X0049784Y0125419D02*
X0055390Y0125419D01*
X0054792Y0126017D02*
X0049186Y0126017D01*
X0048587Y0126616D02*
X0054193Y0126616D01*
X0053595Y0127214D02*
X0047989Y0127214D01*
X0047390Y0127813D02*
X0052996Y0127813D01*
X0052398Y0128411D02*
X0046792Y0128411D01*
X0046193Y0129010D02*
X0051799Y0129010D01*
X0051201Y0129609D02*
X0045595Y0129609D01*
X0044996Y0130207D02*
X0050602Y0130207D01*
X0050004Y0130806D02*
X0044398Y0130806D01*
X0043799Y0131404D02*
X0049405Y0131404D01*
X0048807Y0132003D02*
X0043201Y0132003D01*
X0042602Y0132601D02*
X0048208Y0132601D01*
X0047610Y0133200D02*
X0042004Y0133200D01*
X0041405Y0133798D02*
X0047011Y0133798D01*
X0046413Y0134397D02*
X0040807Y0134397D01*
X0040208Y0134995D02*
X0045814Y0134995D01*
X0045216Y0135594D02*
X0039610Y0135594D01*
X0039011Y0136192D02*
X0044617Y0136192D01*
X0044019Y0136791D02*
X0038413Y0136791D01*
X0037814Y0137389D02*
X0043420Y0137389D01*
X0042822Y0137988D02*
X0037216Y0137988D01*
X0036617Y0138586D02*
X0042223Y0138586D01*
X0041625Y0139185D02*
X0036019Y0139185D01*
X0035420Y0139783D02*
X0041026Y0139783D01*
X0040428Y0140382D02*
X0034822Y0140382D01*
X0034223Y0140980D02*
X0039829Y0140980D01*
X0039231Y0141579D02*
X0033625Y0141579D01*
X0033026Y0142177D02*
X0038632Y0142177D01*
X0038033Y0142776D02*
X0032428Y0142776D01*
X0031829Y0143374D02*
X0037435Y0143374D01*
X0036836Y0143973D02*
X0031231Y0143973D01*
X0030632Y0144571D02*
X0036238Y0144571D01*
X0035639Y0145170D02*
X0030034Y0145170D01*
X0029435Y0145768D02*
X0035041Y0145768D01*
X0034442Y0146367D02*
X0028837Y0146367D01*
X0028238Y0146965D02*
X0033844Y0146965D01*
X0033245Y0147564D02*
X0027639Y0147564D01*
X0027041Y0148162D02*
X0032647Y0148162D01*
X0032048Y0148761D02*
X0026442Y0148761D01*
X0025844Y0149359D02*
X0031450Y0149359D01*
X0030851Y0149958D02*
X0025245Y0149958D01*
X0024647Y0150556D02*
X0030253Y0150556D01*
X0029654Y0151155D02*
X0024048Y0151155D01*
X0023924Y0151753D02*
X0029056Y0151753D01*
X0028457Y0152352D02*
X0023924Y0152352D01*
X0023924Y0152950D02*
X0027859Y0152950D01*
X0027260Y0153549D02*
X0023924Y0153549D01*
X0023924Y0154147D02*
X0026662Y0154147D01*
X0026324Y0154746D02*
X0023924Y0154746D01*
X0023924Y0155344D02*
X0026324Y0155344D01*
X0026324Y0155943D02*
X0023924Y0155943D01*
X0023924Y0156542D02*
X0026324Y0156542D01*
X0026324Y0157140D02*
X0023924Y0157140D01*
X0023924Y0157739D02*
X0026324Y0157739D01*
X0026324Y0158337D02*
X0023924Y0158337D01*
X0023924Y0158936D02*
X0026324Y0158936D01*
X0026324Y0159534D02*
X0023924Y0159534D01*
X0023924Y0160133D02*
X0026324Y0160133D01*
X0026324Y0160731D02*
X0023924Y0160731D01*
X0023924Y0161330D02*
X0026324Y0161330D01*
X0026324Y0161928D02*
X0023924Y0161928D01*
X0023924Y0162527D02*
X0026324Y0162527D01*
X0026324Y0163125D02*
X0023924Y0163125D01*
X0023924Y0163724D02*
X0026324Y0163724D01*
X0026324Y0164322D02*
X0023924Y0164322D01*
X0023924Y0164921D02*
X0026324Y0164921D01*
X0026324Y0165519D02*
X0023924Y0165519D01*
X0023924Y0166118D02*
X0026324Y0166118D01*
X0026324Y0166716D02*
X0023924Y0166716D01*
X0023924Y0167315D02*
X0026324Y0167315D01*
X0026324Y0167913D02*
X0023924Y0167913D01*
X0023924Y0168512D02*
X0026324Y0168512D01*
X0026324Y0169110D02*
X0023924Y0169110D01*
X0023924Y0169709D02*
X0026324Y0169709D01*
X0026324Y0170307D02*
X0023924Y0170307D01*
X0023924Y0170906D02*
X0026324Y0170906D01*
X0026324Y0171504D02*
X0023924Y0171504D01*
X0023924Y0172103D02*
X0026324Y0172103D01*
X0026324Y0172701D02*
X0023924Y0172701D01*
X0023924Y0173300D02*
X0026324Y0173300D01*
X0026324Y0173898D02*
X0023924Y0173898D01*
X0023924Y0174497D02*
X0026324Y0174497D01*
X0026324Y0175095D02*
X0023924Y0175095D01*
X0023924Y0175694D02*
X0026324Y0175694D01*
X0026324Y0176292D02*
X0023924Y0176292D01*
X0023924Y0176891D02*
X0026324Y0176891D01*
X0026324Y0177489D02*
X0023924Y0177489D01*
X0023924Y0178088D02*
X0026324Y0178088D01*
X0026324Y0178686D02*
X0023924Y0178686D01*
X0023924Y0179285D02*
X0026324Y0179285D01*
X0026324Y0179883D02*
X0023924Y0179883D01*
X0023924Y0180482D02*
X0026324Y0180482D01*
X0026324Y0181080D02*
X0023924Y0181080D01*
X0023924Y0181679D02*
X0026324Y0181679D01*
X0026324Y0182277D02*
X0023924Y0182277D01*
X0023924Y0182876D02*
X0026324Y0182876D01*
X0026324Y0183475D02*
X0023924Y0183475D01*
X0023924Y0184073D02*
X0026324Y0184073D01*
X0026324Y0184672D02*
X0023924Y0184672D01*
X0023924Y0185270D02*
X0026324Y0185270D01*
X0026324Y0185869D02*
X0023924Y0185869D01*
X0023924Y0186467D02*
X0026324Y0186467D01*
X0026324Y0187066D02*
X0023924Y0187066D01*
X0023924Y0187664D02*
X0026324Y0187664D01*
X0026324Y0188263D02*
X0023924Y0188263D01*
X0023924Y0188861D02*
X0026324Y0188861D01*
X0026324Y0189460D02*
X0023924Y0189460D01*
X0023924Y0190058D02*
X0026226Y0190058D01*
X0024781Y0190657D02*
X0023924Y0190657D01*
X0023924Y0191255D02*
X0024146Y0191255D01*
X0021524Y0191255D02*
X0011624Y0191255D01*
X0011624Y0190657D02*
X0021524Y0190657D01*
X0021524Y0190058D02*
X0011624Y0190058D01*
X0011624Y0189460D02*
X0021524Y0189460D01*
X0021524Y0188861D02*
X0011624Y0188861D01*
X0011624Y0188263D02*
X0021524Y0188263D01*
X0021524Y0187664D02*
X0011624Y0187664D01*
X0011624Y0187066D02*
X0021524Y0187066D01*
X0021524Y0186467D02*
X0011624Y0186467D01*
X0011624Y0185869D02*
X0021524Y0185869D01*
X0021524Y0185270D02*
X0011624Y0185270D01*
X0011624Y0184672D02*
X0021524Y0184672D01*
X0021524Y0184073D02*
X0011624Y0184073D01*
X0011624Y0183475D02*
X0021524Y0183475D01*
X0021524Y0182876D02*
X0011624Y0182876D01*
X0011624Y0182277D02*
X0021524Y0182277D01*
X0021524Y0181679D02*
X0011624Y0181679D01*
X0011624Y0181080D02*
X0021524Y0181080D01*
X0021524Y0180482D02*
X0011624Y0180482D01*
X0011624Y0179883D02*
X0021524Y0179883D01*
X0021524Y0179285D02*
X0011624Y0179285D01*
X0011624Y0178686D02*
X0021524Y0178686D01*
X0021524Y0178088D02*
X0011624Y0178088D01*
X0011624Y0177489D02*
X0021524Y0177489D01*
X0021524Y0176891D02*
X0011624Y0176891D01*
X0011624Y0176292D02*
X0021524Y0176292D01*
X0021524Y0175694D02*
X0011624Y0175694D01*
X0011624Y0175095D02*
X0021524Y0175095D01*
X0021524Y0174497D02*
X0011624Y0174497D01*
X0011624Y0173898D02*
X0021524Y0173898D01*
X0021524Y0173300D02*
X0011624Y0173300D01*
X0011624Y0172701D02*
X0021524Y0172701D01*
X0021524Y0172103D02*
X0011624Y0172103D01*
X0011624Y0171504D02*
X0021524Y0171504D01*
X0021524Y0170906D02*
X0011624Y0170906D01*
X0011624Y0170307D02*
X0021524Y0170307D01*
X0021524Y0169709D02*
X0011624Y0169709D01*
X0011624Y0169110D02*
X0021524Y0169110D01*
X0021524Y0168512D02*
X0011624Y0168512D01*
X0011624Y0167913D02*
X0021524Y0167913D01*
X0021524Y0167315D02*
X0011624Y0167315D01*
X0011624Y0166716D02*
X0021524Y0166716D01*
X0021524Y0166118D02*
X0011624Y0166118D01*
X0011624Y0165519D02*
X0021524Y0165519D01*
X0021524Y0164921D02*
X0011624Y0164921D01*
X0011624Y0164322D02*
X0021524Y0164322D01*
X0021524Y0163724D02*
X0011624Y0163724D01*
X0011624Y0163125D02*
X0021524Y0163125D01*
X0021524Y0162527D02*
X0011624Y0162527D01*
X0011624Y0161928D02*
X0021524Y0161928D01*
X0021524Y0161330D02*
X0011624Y0161330D01*
X0011624Y0160731D02*
X0021524Y0160731D01*
X0021524Y0160133D02*
X0011624Y0160133D01*
X0011624Y0159534D02*
X0021524Y0159534D01*
X0021524Y0158936D02*
X0011624Y0158936D01*
X0011624Y0158337D02*
X0021524Y0158337D01*
X0021524Y0157739D02*
X0011624Y0157739D01*
X0011624Y0157140D02*
X0021524Y0157140D01*
X0021524Y0156542D02*
X0011624Y0156542D01*
X0011624Y0155943D02*
X0021524Y0155943D01*
X0021524Y0155344D02*
X0011624Y0155344D01*
X0011624Y0154746D02*
X0021524Y0154746D01*
X0021524Y0154147D02*
X0011624Y0154147D01*
X0011624Y0153549D02*
X0021524Y0153549D01*
X0021524Y0152950D02*
X0011624Y0152950D01*
X0011624Y0152352D02*
X0021524Y0152352D01*
X0021524Y0151753D02*
X0011624Y0151753D01*
X0011624Y0151155D02*
X0021524Y0151155D01*
X0021524Y0150556D02*
X0011624Y0150556D01*
X0011624Y0149958D02*
X0021851Y0149958D01*
X0022450Y0149359D02*
X0011624Y0149359D01*
X0011624Y0148761D02*
X0023048Y0148761D01*
X0023647Y0148162D02*
X0011624Y0148162D01*
X0011624Y0147564D02*
X0024245Y0147564D01*
X0024844Y0146965D02*
X0011624Y0146965D01*
X0011624Y0146367D02*
X0025442Y0146367D01*
X0026041Y0145768D02*
X0011624Y0145768D01*
X0011624Y0145170D02*
X0026639Y0145170D01*
X0027238Y0144571D02*
X0011624Y0144571D01*
X0011624Y0143973D02*
X0027836Y0143973D01*
X0028435Y0143374D02*
X0011624Y0143374D01*
X0011624Y0142776D02*
X0029033Y0142776D01*
X0029632Y0142177D02*
X0011624Y0142177D01*
X0011624Y0141579D02*
X0030231Y0141579D01*
X0030829Y0140980D02*
X0011624Y0140980D01*
X0011624Y0140382D02*
X0031428Y0140382D01*
X0032026Y0139783D02*
X0011624Y0139783D01*
X0011624Y0139185D02*
X0032625Y0139185D01*
X0033223Y0138586D02*
X0011624Y0138586D01*
X0011624Y0137988D02*
X0033822Y0137988D01*
X0034420Y0137389D02*
X0011624Y0137389D01*
X0011624Y0136791D02*
X0035019Y0136791D01*
X0035617Y0136192D02*
X0011624Y0136192D01*
X0011624Y0135594D02*
X0036216Y0135594D01*
X0036814Y0134995D02*
X0011624Y0134995D01*
X0011624Y0134397D02*
X0037413Y0134397D01*
X0038011Y0133798D02*
X0011624Y0133798D01*
X0011624Y0133200D02*
X0038610Y0133200D01*
X0039208Y0132601D02*
X0011624Y0132601D01*
X0011624Y0132003D02*
X0039807Y0132003D01*
X0040405Y0131404D02*
X0011624Y0131404D01*
X0011624Y0130806D02*
X0041004Y0130806D01*
X0041602Y0130207D02*
X0011624Y0130207D01*
X0011624Y0129609D02*
X0042201Y0129609D01*
X0042799Y0129010D02*
X0011624Y0129010D01*
X0011624Y0128411D02*
X0043398Y0128411D01*
X0043996Y0127813D02*
X0011624Y0127813D01*
X0011624Y0127214D02*
X0044595Y0127214D01*
X0045193Y0126616D02*
X0011624Y0126616D01*
X0011624Y0126017D02*
X0045792Y0126017D01*
X0046390Y0125419D02*
X0011624Y0125419D01*
X0011624Y0124820D02*
X0046989Y0124820D01*
X0047587Y0124222D02*
X0011624Y0124222D01*
X0011624Y0123623D02*
X0048186Y0123623D01*
X0048784Y0123025D02*
X0011624Y0123025D01*
X0011624Y0122426D02*
X0049383Y0122426D01*
X0049981Y0121828D02*
X0011624Y0121828D01*
X0011624Y0121229D02*
X0050580Y0121229D01*
X0051178Y0120631D02*
X0011624Y0120631D01*
X0011624Y0120032D02*
X0051777Y0120032D01*
X0052375Y0119434D02*
X0011624Y0119434D01*
X0011624Y0118835D02*
X0052974Y0118835D01*
X0053572Y0118237D02*
X0011624Y0118237D01*
X0011624Y0117638D02*
X0054171Y0117638D01*
X0054769Y0117040D02*
X0011624Y0117040D01*
X0011624Y0116441D02*
X0055135Y0116441D01*
X0055135Y0115843D02*
X0011624Y0115843D01*
X0011624Y0115244D02*
X0055135Y0115244D01*
X0055482Y0114646D02*
X0011624Y0114646D01*
X0011624Y0114047D02*
X0056081Y0114047D01*
X0057524Y0115983D02*
X0022724Y0150783D01*
X0022724Y0206583D01*
X0025724Y0209583D01*
X0029324Y0209583D01*
X0034124Y0214383D01*
X0037124Y0214383D01*
X0037324Y0214583D01*
X0039264Y0210408D02*
X0054851Y0210408D01*
X0055450Y0211006D02*
X0040252Y0211006D01*
X0040851Y0211605D02*
X0056048Y0211605D01*
X0056924Y0210783D02*
X0050324Y0204183D01*
X0037724Y0204183D01*
X0037324Y0204583D01*
X0038843Y0200233D02*
X0073735Y0200233D01*
X0073735Y0200831D02*
X0040078Y0200831D01*
X0040676Y0201430D02*
X0074192Y0201430D01*
X0074791Y0202028D02*
X0051548Y0202028D01*
X0052146Y0202627D02*
X0097045Y0202627D01*
X0096797Y0203225D02*
X0052713Y0203225D01*
X0052713Y0203824D02*
X0096699Y0203824D01*
X0096699Y0204422D02*
X0052713Y0204422D01*
X0052859Y0205021D02*
X0096699Y0205021D01*
X0096699Y0205619D02*
X0053457Y0205619D01*
X0054056Y0206218D02*
X0096913Y0206218D01*
X0097160Y0206816D02*
X0054654Y0206816D01*
X0055253Y0207415D02*
X0097408Y0207415D01*
X0097799Y0208013D02*
X0055851Y0208013D01*
X0056450Y0208612D02*
X0098398Y0208612D01*
X0098997Y0209211D02*
X0057048Y0209211D01*
X0056924Y0210783D02*
X0104324Y0210783D01*
X0112724Y0202383D01*
X0112724Y0168183D01*
X0114576Y0169709D02*
X0131724Y0169709D01*
X0131724Y0170307D02*
X0113978Y0170307D01*
X0113924Y0170906D02*
X0131724Y0170906D01*
X0131724Y0171504D02*
X0113924Y0171504D01*
X0113924Y0172103D02*
X0131724Y0172103D01*
X0131724Y0172701D02*
X0113924Y0172701D01*
X0113924Y0173300D02*
X0131724Y0173300D01*
X0131724Y0173898D02*
X0113924Y0173898D01*
X0113924Y0174497D02*
X0131724Y0174497D01*
X0131724Y0175095D02*
X0113924Y0175095D01*
X0113924Y0175694D02*
X0131724Y0175694D01*
X0131724Y0176292D02*
X0113924Y0176292D01*
X0113924Y0176891D02*
X0131724Y0176891D01*
X0131724Y0177489D02*
X0113924Y0177489D01*
X0113924Y0178088D02*
X0131724Y0178088D01*
X0131724Y0178686D02*
X0113924Y0178686D01*
X0113924Y0179285D02*
X0131724Y0179285D01*
X0131724Y0179883D02*
X0113924Y0179883D01*
X0113924Y0180482D02*
X0131724Y0180482D01*
X0131724Y0181080D02*
X0113924Y0181080D01*
X0113924Y0181679D02*
X0131724Y0181679D01*
X0131724Y0182277D02*
X0113924Y0182277D01*
X0113924Y0182876D02*
X0131724Y0182876D01*
X0131724Y0183475D02*
X0113924Y0183475D01*
X0113924Y0184073D02*
X0131724Y0184073D01*
X0131724Y0184672D02*
X0113924Y0184672D01*
X0113924Y0185270D02*
X0131724Y0185270D01*
X0131724Y0185869D02*
X0113924Y0185869D01*
X0113924Y0186467D02*
X0131724Y0186467D01*
X0131724Y0187066D02*
X0113924Y0187066D01*
X0113924Y0187664D02*
X0131724Y0187664D01*
X0131724Y0188263D02*
X0113924Y0188263D01*
X0113924Y0188861D02*
X0131724Y0188861D01*
X0131724Y0189460D02*
X0113924Y0189460D01*
X0113924Y0190058D02*
X0131724Y0190058D01*
X0131724Y0190657D02*
X0113924Y0190657D01*
X0113924Y0191255D02*
X0131724Y0191255D01*
X0131724Y0191854D02*
X0113924Y0191854D01*
X0113924Y0192452D02*
X0131724Y0192452D01*
X0131724Y0193051D02*
X0113924Y0193051D01*
X0113924Y0193649D02*
X0131724Y0193649D01*
X0131724Y0194248D02*
X0113924Y0194248D01*
X0113924Y0194846D02*
X0131724Y0194846D01*
X0131724Y0195445D02*
X0113924Y0195445D01*
X0113924Y0196043D02*
X0131724Y0196043D01*
X0131724Y0196642D02*
X0113924Y0196642D01*
X0113924Y0197240D02*
X0131724Y0197240D01*
X0131724Y0197839D02*
X0113924Y0197839D01*
X0113924Y0198437D02*
X0131724Y0198437D01*
X0131724Y0199036D02*
X0123631Y0199036D01*
X0123443Y0198958D02*
X0125510Y0199814D01*
X0127092Y0201396D01*
X0127949Y0203464D01*
X0127949Y0205702D01*
X0127092Y0207769D01*
X0125510Y0209351D01*
X0123443Y0210208D01*
X0121205Y0210208D01*
X0119137Y0209351D01*
X0117555Y0207769D01*
X0116699Y0205702D01*
X0116699Y0203464D01*
X0117555Y0201396D01*
X0119137Y0199814D01*
X0121205Y0198958D01*
X0123443Y0198958D01*
X0125076Y0199634D02*
X0131724Y0199634D01*
X0131724Y0200233D02*
X0125929Y0200233D01*
X0126527Y0200831D02*
X0131724Y0200831D01*
X0131724Y0201430D02*
X0127106Y0201430D01*
X0127354Y0202028D02*
X0131724Y0202028D01*
X0131724Y0202627D02*
X0127602Y0202627D01*
X0127850Y0203225D02*
X0131724Y0203225D01*
X0131724Y0203824D02*
X0127949Y0203824D01*
X0127949Y0204422D02*
X0131724Y0204422D01*
X0131724Y0205021D02*
X0127949Y0205021D01*
X0127949Y0205619D02*
X0131724Y0205619D01*
X0131724Y0206218D02*
X0127735Y0206218D01*
X0127487Y0206816D02*
X0131724Y0206816D01*
X0131724Y0207415D02*
X0127239Y0207415D01*
X0126848Y0208013D02*
X0131724Y0208013D01*
X0131724Y0208612D02*
X0126249Y0208612D01*
X0125651Y0209211D02*
X0131724Y0209211D01*
X0131724Y0209809D02*
X0124405Y0209809D01*
X0120242Y0209809D02*
X0114910Y0209809D01*
X0115382Y0210005D02*
X0116902Y0211524D01*
X0117724Y0213509D01*
X0117724Y0215657D01*
X0116902Y0217642D01*
X0115382Y0219161D01*
X0113398Y0219983D01*
X0111249Y0219983D01*
X0109265Y0219161D01*
X0107746Y0217642D01*
X0107141Y0216183D01*
X0104221Y0216183D01*
X0101446Y0218958D01*
X0103443Y0218958D01*
X0105510Y0219814D01*
X0107092Y0221396D01*
X0107949Y0223464D01*
X0107949Y0225702D01*
X0107092Y0227769D01*
X0105510Y0229351D01*
X0103443Y0230208D01*
X0101205Y0230208D01*
X0099137Y0229351D01*
X0097555Y0227769D01*
X0096699Y0225702D01*
X0096699Y0223705D01*
X0094621Y0225783D01*
X0041806Y0225783D01*
X0041223Y0227188D01*
X0039929Y0228482D01*
X0038239Y0229183D01*
X0036409Y0229183D01*
X0034718Y0228482D01*
X0033424Y0227188D01*
X0032724Y0225498D01*
X0032724Y0223668D01*
X0033424Y0221977D01*
X0034718Y0220683D01*
X0036409Y0219983D01*
X0038239Y0219983D01*
X0039929Y0220683D01*
X0041223Y0221977D01*
X0041806Y0223383D01*
X0093627Y0223383D01*
X0102524Y0214486D01*
X0103227Y0213783D01*
X0106924Y0213783D01*
X0106924Y0213509D01*
X0107746Y0211524D01*
X0109265Y0210005D01*
X0111249Y0209183D01*
X0113398Y0209183D01*
X0115382Y0210005D01*
X0115785Y0210408D02*
X0131724Y0210408D01*
X0131724Y0211006D02*
X0116384Y0211006D01*
X0116935Y0211605D02*
X0131724Y0211605D01*
X0131724Y0212203D02*
X0117183Y0212203D01*
X0117431Y0212802D02*
X0131724Y0212802D01*
X0131724Y0213400D02*
X0117679Y0213400D01*
X0117724Y0213999D02*
X0131724Y0213999D01*
X0131724Y0214597D02*
X0117724Y0214597D01*
X0117724Y0215196D02*
X0131724Y0215196D01*
X0131724Y0215794D02*
X0117667Y0215794D01*
X0117419Y0216393D02*
X0131724Y0216393D01*
X0131724Y0216991D02*
X0117171Y0216991D01*
X0116923Y0217590D02*
X0131724Y0217590D01*
X0131724Y0218188D02*
X0116355Y0218188D01*
X0115756Y0218787D02*
X0131724Y0218787D01*
X0131724Y0219385D02*
X0124475Y0219385D01*
X0123443Y0218958D02*
X0125510Y0219814D01*
X0127092Y0221396D01*
X0127949Y0223464D01*
X0127949Y0225702D01*
X0127092Y0227769D01*
X0125510Y0229351D01*
X0123443Y0230208D01*
X0121205Y0230208D01*
X0119137Y0229351D01*
X0117555Y0227769D01*
X0116699Y0225702D01*
X0116699Y0223464D01*
X0117555Y0221396D01*
X0119137Y0219814D01*
X0121205Y0218958D01*
X0123443Y0218958D01*
X0125680Y0219984D02*
X0131724Y0219984D01*
X0131724Y0220582D02*
X0126278Y0220582D01*
X0126877Y0221181D02*
X0131724Y0221181D01*
X0131724Y0221779D02*
X0127251Y0221779D01*
X0127499Y0222378D02*
X0131724Y0222378D01*
X0131724Y0222976D02*
X0127747Y0222976D01*
X0127949Y0223575D02*
X0131724Y0223575D01*
X0131724Y0224173D02*
X0127949Y0224173D01*
X0127949Y0224772D02*
X0131724Y0224772D01*
X0131724Y0225370D02*
X0127949Y0225370D01*
X0127838Y0225969D02*
X0131724Y0225969D01*
X0131724Y0226567D02*
X0127590Y0226567D01*
X0127342Y0227166D02*
X0131724Y0227166D01*
X0131724Y0227764D02*
X0127094Y0227764D01*
X0126498Y0228363D02*
X0131724Y0228363D01*
X0131724Y0228961D02*
X0125900Y0228961D01*
X0125006Y0229560D02*
X0131724Y0229560D01*
X0131724Y0230158D02*
X0123561Y0230158D01*
X0121086Y0230158D02*
X0103561Y0230158D01*
X0105006Y0229560D02*
X0119641Y0229560D01*
X0118747Y0228961D02*
X0105900Y0228961D01*
X0106498Y0228363D02*
X0118149Y0228363D01*
X0117553Y0227764D02*
X0107094Y0227764D01*
X0107342Y0227166D02*
X0117305Y0227166D01*
X0117057Y0226567D02*
X0107590Y0226567D01*
X0107838Y0225969D02*
X0116809Y0225969D01*
X0116699Y0225370D02*
X0107949Y0225370D01*
X0107949Y0224772D02*
X0116699Y0224772D01*
X0116699Y0224173D02*
X0107949Y0224173D01*
X0107949Y0223575D02*
X0116699Y0223575D01*
X0116901Y0222976D02*
X0107747Y0222976D01*
X0107499Y0222378D02*
X0117148Y0222378D01*
X0117396Y0221779D02*
X0107251Y0221779D01*
X0106877Y0221181D02*
X0117771Y0221181D01*
X0118369Y0220582D02*
X0106278Y0220582D01*
X0105680Y0219984D02*
X0118968Y0219984D01*
X0120173Y0219385D02*
X0114840Y0219385D01*
X0112124Y0214983D02*
X0112324Y0214583D01*
X0112124Y0214983D02*
X0103724Y0214983D01*
X0094124Y0224583D01*
X0037324Y0224583D01*
X0038773Y0228961D02*
X0098747Y0228961D01*
X0098149Y0228363D02*
X0040049Y0228363D01*
X0040647Y0227764D02*
X0097553Y0227764D01*
X0097305Y0227166D02*
X0041233Y0227166D01*
X0041481Y0226567D02*
X0097057Y0226567D01*
X0096809Y0225969D02*
X0041728Y0225969D01*
X0041637Y0222976D02*
X0094033Y0222976D01*
X0094631Y0222378D02*
X0041389Y0222378D01*
X0041026Y0221779D02*
X0095230Y0221779D01*
X0095829Y0221181D02*
X0040427Y0221181D01*
X0039686Y0220582D02*
X0096427Y0220582D01*
X0097026Y0219984D02*
X0038241Y0219984D01*
X0039195Y0218787D02*
X0098223Y0218787D01*
X0098821Y0218188D02*
X0040223Y0218188D01*
X0040822Y0217590D02*
X0099420Y0217590D01*
X0100018Y0216991D02*
X0041305Y0216991D01*
X0041553Y0216393D02*
X0100617Y0216393D01*
X0101215Y0215794D02*
X0041801Y0215794D01*
X0041924Y0215196D02*
X0101814Y0215196D01*
X0102412Y0214597D02*
X0041924Y0214597D01*
X0041924Y0213999D02*
X0103011Y0213999D01*
X0104011Y0216393D02*
X0107228Y0216393D01*
X0107476Y0216991D02*
X0103412Y0216991D01*
X0102814Y0217590D02*
X0107724Y0217590D01*
X0108292Y0218188D02*
X0102215Y0218188D01*
X0101617Y0218787D02*
X0108891Y0218787D01*
X0109807Y0219385D02*
X0104475Y0219385D01*
X0106969Y0213400D02*
X0041813Y0213400D01*
X0041565Y0212802D02*
X0107216Y0212802D01*
X0107464Y0212203D02*
X0041317Y0212203D01*
X0039616Y0208612D02*
X0053056Y0208612D01*
X0053654Y0209211D02*
X0030648Y0209211D01*
X0031247Y0209809D02*
X0054253Y0209809D01*
X0052457Y0208013D02*
X0040398Y0208013D01*
X0040997Y0207415D02*
X0051859Y0207415D01*
X0051260Y0206816D02*
X0041377Y0206816D01*
X0041625Y0206218D02*
X0048980Y0206218D01*
X0048382Y0205619D02*
X0041873Y0205619D01*
X0041492Y0202627D02*
X0048501Y0202627D01*
X0049099Y0202028D02*
X0041245Y0202028D01*
X0039974Y0198437D02*
X0072881Y0198437D01*
X0072283Y0197839D02*
X0040573Y0197839D01*
X0041171Y0197240D02*
X0071684Y0197240D01*
X0071086Y0196642D02*
X0041450Y0196642D01*
X0041698Y0196043D02*
X0070487Y0196043D01*
X0070724Y0194583D02*
X0076124Y0199983D01*
X0097724Y0199983D01*
X0102324Y0204583D01*
X0106527Y0200831D02*
X0111524Y0200831D01*
X0111524Y0200233D02*
X0105929Y0200233D01*
X0105076Y0199634D02*
X0111524Y0199634D01*
X0111524Y0199036D02*
X0103631Y0199036D01*
X0101016Y0199036D02*
X0098474Y0199036D01*
X0099072Y0199634D02*
X0099571Y0199634D01*
X0097474Y0201430D02*
X0078055Y0201430D01*
X0077456Y0202028D02*
X0097293Y0202028D01*
X0105797Y0211006D02*
X0108263Y0211006D01*
X0107712Y0211605D02*
X0105199Y0211605D01*
X0106396Y0210408D02*
X0108862Y0210408D01*
X0109737Y0209809D02*
X0106994Y0209809D01*
X0107593Y0209211D02*
X0111182Y0209211D01*
X0109388Y0207415D02*
X0117408Y0207415D01*
X0117160Y0206816D02*
X0109987Y0206816D01*
X0110585Y0206218D02*
X0116913Y0206218D01*
X0116699Y0205619D02*
X0111184Y0205619D01*
X0111782Y0205021D02*
X0116699Y0205021D01*
X0116699Y0204422D02*
X0112381Y0204422D01*
X0112979Y0203824D02*
X0116699Y0203824D01*
X0116797Y0203225D02*
X0113578Y0203225D01*
X0113924Y0202627D02*
X0117045Y0202627D01*
X0117293Y0202028D02*
X0113924Y0202028D01*
X0113924Y0201430D02*
X0117541Y0201430D01*
X0118120Y0200831D02*
X0113924Y0200831D01*
X0113924Y0200233D02*
X0118719Y0200233D01*
X0119571Y0199634D02*
X0113924Y0199634D01*
X0113924Y0199036D02*
X0121016Y0199036D01*
X0117799Y0208013D02*
X0108790Y0208013D01*
X0108191Y0208612D02*
X0118398Y0208612D01*
X0118997Y0209211D02*
X0113465Y0209211D01*
X0110184Y0203225D02*
X0107850Y0203225D01*
X0107949Y0203824D02*
X0109585Y0203824D01*
X0108987Y0204422D02*
X0107949Y0204422D01*
X0107949Y0205021D02*
X0108388Y0205021D01*
X0107602Y0202627D02*
X0110782Y0202627D01*
X0111381Y0202028D02*
X0107354Y0202028D01*
X0107106Y0201430D02*
X0111524Y0201430D01*
X0111524Y0198437D02*
X0077957Y0198437D01*
X0077358Y0197839D02*
X0111524Y0197839D01*
X0111524Y0197240D02*
X0075078Y0197240D01*
X0074480Y0196642D02*
X0111524Y0196642D01*
X0111524Y0196043D02*
X0073881Y0196043D01*
X0073283Y0195445D02*
X0111524Y0195445D01*
X0111524Y0194846D02*
X0072684Y0194846D01*
X0072086Y0194248D02*
X0111524Y0194248D01*
X0111524Y0193649D02*
X0071487Y0193649D01*
X0070724Y0194583D02*
X0037324Y0194583D01*
X0034074Y0197839D02*
X0032565Y0197839D01*
X0033163Y0197240D02*
X0033476Y0197240D01*
X0032324Y0196383D02*
X0032324Y0192783D01*
X0037124Y0187983D01*
X0080924Y0187983D01*
X0082787Y0186467D02*
X0111524Y0186467D01*
X0111524Y0185869D02*
X0082188Y0185869D01*
X0083313Y0187066D02*
X0111524Y0187066D01*
X0111524Y0187664D02*
X0083313Y0187664D01*
X0083313Y0188263D02*
X0111524Y0188263D01*
X0111524Y0188861D02*
X0083313Y0188861D01*
X0082825Y0189460D02*
X0111524Y0189460D01*
X0111524Y0190058D02*
X0082227Y0190058D01*
X0079621Y0190058D02*
X0038421Y0190058D01*
X0037344Y0189460D02*
X0079022Y0189460D01*
X0079061Y0186467D02*
X0028724Y0186467D01*
X0028724Y0185869D02*
X0079659Y0185869D01*
X0073480Y0199036D02*
X0038593Y0199036D01*
X0036054Y0199036D02*
X0031368Y0199036D01*
X0031966Y0198437D02*
X0034673Y0198437D01*
X0035805Y0200233D02*
X0030170Y0200233D01*
X0030078Y0200831D02*
X0034570Y0200831D01*
X0033971Y0201430D02*
X0030676Y0201430D01*
X0031245Y0202028D02*
X0033403Y0202028D01*
X0033155Y0202627D02*
X0031492Y0202627D01*
X0031740Y0203225D02*
X0032907Y0203225D01*
X0032724Y0203824D02*
X0031924Y0203824D01*
X0031924Y0204422D02*
X0032724Y0204422D01*
X0032724Y0205021D02*
X0031924Y0205021D01*
X0031873Y0205619D02*
X0032774Y0205619D01*
X0033022Y0206218D02*
X0031625Y0206218D01*
X0031377Y0206816D02*
X0033270Y0206816D01*
X0033651Y0207415D02*
X0030997Y0207415D01*
X0030398Y0208013D02*
X0034249Y0208013D01*
X0035031Y0208612D02*
X0030050Y0208612D01*
X0031846Y0210408D02*
X0035383Y0210408D01*
X0034395Y0211006D02*
X0032444Y0211006D01*
X0033043Y0211605D02*
X0033796Y0211605D01*
X0032043Y0213999D02*
X0031924Y0213999D01*
X0031924Y0214597D02*
X0032641Y0214597D01*
X0032724Y0215196D02*
X0031924Y0215196D01*
X0031801Y0215794D02*
X0032846Y0215794D01*
X0033094Y0216393D02*
X0031553Y0216393D01*
X0031305Y0216991D02*
X0033342Y0216991D01*
X0033825Y0217590D02*
X0030822Y0217590D01*
X0030223Y0218188D02*
X0034424Y0218188D01*
X0035453Y0218787D02*
X0029195Y0218787D01*
X0028241Y0219984D02*
X0036406Y0219984D01*
X0034961Y0220582D02*
X0029686Y0220582D01*
X0029929Y0220683D02*
X0031223Y0221977D01*
X0031924Y0223668D01*
X0031924Y0225498D01*
X0031223Y0227188D01*
X0029929Y0228482D01*
X0028239Y0229183D01*
X0026409Y0229183D01*
X0024718Y0228482D01*
X0023424Y0227188D01*
X0022724Y0225498D01*
X0022724Y0223668D01*
X0023424Y0221977D01*
X0024718Y0220683D01*
X0026409Y0219983D01*
X0028239Y0219983D01*
X0029929Y0220683D01*
X0030427Y0221181D02*
X0034220Y0221181D01*
X0033622Y0221779D02*
X0031026Y0221779D01*
X0031389Y0222378D02*
X0033258Y0222378D01*
X0033010Y0222976D02*
X0031637Y0222976D01*
X0031885Y0223575D02*
X0032762Y0223575D01*
X0032724Y0224173D02*
X0031924Y0224173D01*
X0031924Y0224772D02*
X0032724Y0224772D01*
X0032724Y0225370D02*
X0031924Y0225370D01*
X0031728Y0225969D02*
X0032919Y0225969D01*
X0033167Y0226567D02*
X0031481Y0226567D01*
X0031233Y0227166D02*
X0033415Y0227166D01*
X0034000Y0227764D02*
X0030647Y0227764D01*
X0030049Y0228363D02*
X0034598Y0228363D01*
X0035874Y0228961D02*
X0028773Y0228961D01*
X0025874Y0228961D02*
X0011624Y0228961D01*
X0011624Y0228363D02*
X0024598Y0228363D01*
X0024000Y0227764D02*
X0011624Y0227764D01*
X0011624Y0227166D02*
X0023415Y0227166D01*
X0023167Y0226567D02*
X0011624Y0226567D01*
X0011624Y0225969D02*
X0022919Y0225969D01*
X0022724Y0225370D02*
X0011624Y0225370D01*
X0011624Y0224772D02*
X0022724Y0224772D01*
X0022724Y0224173D02*
X0011624Y0224173D01*
X0011624Y0223575D02*
X0022762Y0223575D01*
X0023010Y0222976D02*
X0011624Y0222976D01*
X0011624Y0222378D02*
X0023258Y0222378D01*
X0023622Y0221779D02*
X0011624Y0221779D01*
X0011624Y0221181D02*
X0024220Y0221181D01*
X0024961Y0220582D02*
X0011624Y0220582D01*
X0011624Y0219984D02*
X0026406Y0219984D01*
X0025453Y0218787D02*
X0011624Y0218787D01*
X0011624Y0219385D02*
X0097624Y0219385D01*
X0096699Y0224173D02*
X0096230Y0224173D01*
X0096699Y0224772D02*
X0095632Y0224772D01*
X0095033Y0225370D02*
X0096699Y0225370D01*
X0099641Y0229560D02*
X0011624Y0229560D01*
X0011624Y0230158D02*
X0101086Y0230158D01*
X0111524Y0193051D02*
X0041668Y0193051D01*
X0041420Y0192452D02*
X0111524Y0192452D01*
X0111524Y0191854D02*
X0041100Y0191854D01*
X0040501Y0191255D02*
X0111524Y0191255D01*
X0111524Y0190657D02*
X0039866Y0190657D01*
X0036344Y0187066D02*
X0028724Y0187066D01*
X0028724Y0187664D02*
X0035745Y0187664D01*
X0035147Y0188263D02*
X0028724Y0188263D01*
X0028724Y0188861D02*
X0034548Y0188861D01*
X0033950Y0189460D02*
X0028724Y0189460D01*
X0028724Y0190058D02*
X0033351Y0190058D01*
X0032753Y0190657D02*
X0029866Y0190657D01*
X0030501Y0191255D02*
X0032154Y0191255D01*
X0031556Y0191854D02*
X0031100Y0191854D01*
X0027524Y0194583D02*
X0027324Y0194583D01*
X0027524Y0194583D02*
X0027524Y0154983D01*
X0079724Y0102783D01*
X0086324Y0102783D01*
X0086324Y0096183D01*
X0090524Y0091983D01*
X0090524Y0081183D01*
X0091103Y0080921D01*
X0086324Y0085983D02*
X0081524Y0081183D01*
X0081261Y0080921D01*
X0083364Y0084720D02*
X0078958Y0084720D01*
X0079290Y0084122D02*
X0078360Y0084122D01*
X0078614Y0083523D02*
X0077761Y0083523D01*
X0078074Y0082925D02*
X0077163Y0082925D01*
X0076821Y0082326D02*
X0077826Y0082326D01*
X0077578Y0081728D02*
X0077069Y0081728D01*
X0077098Y0081129D02*
X0077550Y0081129D01*
X0077550Y0080531D02*
X0077098Y0080531D01*
X0076994Y0079932D02*
X0077654Y0079932D01*
X0077901Y0079334D02*
X0076746Y0079334D01*
X0076449Y0078735D02*
X0078199Y0078735D01*
X0078797Y0078137D02*
X0075850Y0078137D01*
X0074916Y0077538D02*
X0079731Y0077538D01*
X0080726Y0076341D02*
X0073921Y0076341D01*
X0074184Y0075742D02*
X0080463Y0075742D01*
X0080215Y0075144D02*
X0074432Y0075144D01*
X0074680Y0074545D02*
X0079968Y0074545D01*
X0079720Y0073947D02*
X0074928Y0073947D01*
X0074931Y0073348D02*
X0079717Y0073348D01*
X0079717Y0072750D02*
X0074931Y0072750D01*
X0074931Y0072151D02*
X0079717Y0072151D01*
X0079717Y0071553D02*
X0074931Y0071553D01*
X0074760Y0070954D02*
X0079888Y0070954D01*
X0080136Y0070356D02*
X0074512Y0070356D01*
X0074264Y0069757D02*
X0080383Y0069757D01*
X0080631Y0069159D02*
X0074016Y0069159D01*
X0073516Y0068560D02*
X0081132Y0068560D01*
X0081730Y0067962D02*
X0072917Y0067962D01*
X0072319Y0067363D02*
X0082329Y0067363D01*
X0083504Y0066765D02*
X0071143Y0066765D01*
X0065787Y0066765D02*
X0058346Y0066765D01*
X0058483Y0066902D02*
X0059129Y0068462D01*
X0059129Y0076845D01*
X0058483Y0078405D01*
X0057288Y0079600D01*
X0055727Y0080246D01*
X0055357Y0080246D01*
X0040329Y0095274D01*
X0040824Y0096468D01*
X0040824Y0098298D01*
X0040123Y0099988D01*
X0038829Y0101282D01*
X0037139Y0101983D01*
X0035309Y0101983D01*
X0033618Y0101282D01*
X0032324Y0099988D01*
X0031624Y0098298D01*
X0031624Y0096468D01*
X0032324Y0094777D01*
X0033618Y0093483D01*
X0035309Y0092783D01*
X0037139Y0092783D01*
X0038756Y0093453D01*
X0052571Y0079639D01*
X0052477Y0079600D01*
X0051283Y0078405D01*
X0050636Y0076845D01*
X0050636Y0068462D01*
X0051283Y0066902D01*
X0052477Y0065707D01*
X0054038Y0065061D01*
X0055727Y0065061D01*
X0057288Y0065707D01*
X0058483Y0066902D01*
X0058674Y0067363D02*
X0064612Y0067363D01*
X0064014Y0067962D02*
X0058922Y0067962D01*
X0059129Y0068560D02*
X0063415Y0068560D01*
X0062915Y0069159D02*
X0059129Y0069159D01*
X0059129Y0069757D02*
X0062667Y0069757D01*
X0062419Y0070356D02*
X0059129Y0070356D01*
X0059129Y0070954D02*
X0062171Y0070954D01*
X0062000Y0071553D02*
X0059129Y0071553D01*
X0059129Y0072151D02*
X0062000Y0072151D01*
X0062000Y0072750D02*
X0059129Y0072750D01*
X0059129Y0073348D02*
X0062000Y0073348D01*
X0062003Y0073947D02*
X0059129Y0073947D01*
X0059129Y0074545D02*
X0062251Y0074545D01*
X0062499Y0075144D02*
X0059129Y0075144D01*
X0059129Y0075742D02*
X0062747Y0075742D01*
X0063009Y0076341D02*
X0059129Y0076341D01*
X0059090Y0076940D02*
X0063608Y0076940D01*
X0062015Y0077538D02*
X0058842Y0077538D01*
X0058594Y0078137D02*
X0061081Y0078137D01*
X0060482Y0078735D02*
X0058153Y0078735D01*
X0057555Y0079334D02*
X0060185Y0079334D01*
X0059937Y0079932D02*
X0056486Y0079932D01*
X0055073Y0080531D02*
X0059833Y0080531D01*
X0059833Y0081129D02*
X0054474Y0081129D01*
X0053876Y0081728D02*
X0059861Y0081728D01*
X0060109Y0082326D02*
X0053277Y0082326D01*
X0052679Y0082925D02*
X0060357Y0082925D01*
X0060898Y0083523D02*
X0052080Y0083523D01*
X0051482Y0084122D02*
X0061573Y0084122D01*
X0065515Y0084122D02*
X0071416Y0084122D01*
X0070740Y0083523D02*
X0066190Y0083523D01*
X0066731Y0082925D02*
X0070200Y0082925D01*
X0069952Y0082326D02*
X0066979Y0082326D01*
X0067227Y0081728D02*
X0069704Y0081728D01*
X0069676Y0081129D02*
X0067255Y0081129D01*
X0067255Y0080531D02*
X0069676Y0080531D01*
X0069780Y0079932D02*
X0067151Y0079932D01*
X0066903Y0079334D02*
X0070027Y0079334D01*
X0073387Y0080921D02*
X0073724Y0081183D01*
X0083324Y0090783D01*
X0083324Y0094983D01*
X0084994Y0096690D02*
X0085124Y0096690D01*
X0085124Y0097289D02*
X0084396Y0097289D01*
X0085124Y0097887D02*
X0040824Y0097887D01*
X0040824Y0097289D02*
X0082251Y0097289D01*
X0081653Y0096690D02*
X0040824Y0096690D01*
X0040668Y0096092D02*
X0081054Y0096092D01*
X0080935Y0095493D02*
X0040420Y0095493D01*
X0040708Y0094895D02*
X0080935Y0094895D01*
X0080935Y0094296D02*
X0041307Y0094296D01*
X0041906Y0093698D02*
X0081230Y0093698D01*
X0081828Y0093099D02*
X0042504Y0093099D01*
X0043103Y0092501D02*
X0082124Y0092501D01*
X0082124Y0091902D02*
X0043701Y0091902D01*
X0044300Y0091304D02*
X0082124Y0091304D01*
X0081549Y0090705D02*
X0044898Y0090705D01*
X0045497Y0090107D02*
X0080951Y0090107D01*
X0080352Y0089508D02*
X0046095Y0089508D01*
X0046694Y0088910D02*
X0079754Y0088910D01*
X0079155Y0088311D02*
X0047292Y0088311D01*
X0047891Y0087713D02*
X0078557Y0087713D01*
X0077958Y0087114D02*
X0048489Y0087114D01*
X0049088Y0086516D02*
X0077360Y0086516D01*
X0076761Y0085917D02*
X0049686Y0085917D01*
X0050285Y0085319D02*
X0076163Y0085319D01*
X0075564Y0084720D02*
X0050883Y0084720D01*
X0049285Y0082925D02*
X0011624Y0082925D01*
X0011624Y0083523D02*
X0048686Y0083523D01*
X0048088Y0084122D02*
X0011624Y0084122D01*
X0011624Y0084720D02*
X0047489Y0084720D01*
X0046891Y0085319D02*
X0011624Y0085319D01*
X0011624Y0085917D02*
X0046292Y0085917D01*
X0045694Y0086516D02*
X0011624Y0086516D01*
X0011624Y0087114D02*
X0045095Y0087114D01*
X0044497Y0087713D02*
X0011624Y0087713D01*
X0011624Y0088311D02*
X0043898Y0088311D01*
X0043300Y0088910D02*
X0011624Y0088910D01*
X0011624Y0089508D02*
X0042701Y0089508D01*
X0042102Y0090107D02*
X0011624Y0090107D01*
X0011624Y0090705D02*
X0041504Y0090705D01*
X0040905Y0091304D02*
X0011624Y0091304D01*
X0011624Y0091902D02*
X0040307Y0091902D01*
X0039708Y0092501D02*
X0011624Y0092501D01*
X0011624Y0093099D02*
X0016744Y0093099D01*
X0017509Y0092783D02*
X0019339Y0092783D01*
X0021029Y0093483D01*
X0022323Y0094777D01*
X0023024Y0096468D01*
X0023024Y0098298D01*
X0022323Y0099988D01*
X0021029Y0101282D01*
X0019339Y0101983D01*
X0017509Y0101983D01*
X0015818Y0101282D01*
X0014524Y0099988D01*
X0013824Y0098298D01*
X0013824Y0096468D01*
X0014524Y0094777D01*
X0015818Y0093483D01*
X0017509Y0092783D01*
X0015603Y0093698D02*
X0011624Y0093698D01*
X0011624Y0094296D02*
X0015005Y0094296D01*
X0014475Y0094895D02*
X0011624Y0094895D01*
X0011624Y0095493D02*
X0014227Y0095493D01*
X0013979Y0096092D02*
X0011624Y0096092D01*
X0011624Y0096690D02*
X0013824Y0096690D01*
X0013824Y0097289D02*
X0011624Y0097289D01*
X0011624Y0097887D02*
X0013824Y0097887D01*
X0013902Y0098486D02*
X0011624Y0098486D01*
X0011624Y0099084D02*
X0014150Y0099084D01*
X0014397Y0099683D02*
X0011624Y0099683D01*
X0011624Y0100281D02*
X0014817Y0100281D01*
X0015416Y0100880D02*
X0011624Y0100880D01*
X0011624Y0101478D02*
X0016291Y0101478D01*
X0020556Y0101478D02*
X0034091Y0101478D01*
X0033216Y0100880D02*
X0021432Y0100880D01*
X0022030Y0100281D02*
X0032617Y0100281D01*
X0032197Y0099683D02*
X0022450Y0099683D01*
X0022698Y0099084D02*
X0031950Y0099084D01*
X0031702Y0098486D02*
X0022946Y0098486D01*
X0023024Y0097887D02*
X0031624Y0097887D01*
X0031624Y0097289D02*
X0023024Y0097289D01*
X0023024Y0096690D02*
X0031624Y0096690D01*
X0031779Y0096092D02*
X0022868Y0096092D01*
X0022620Y0095493D02*
X0032027Y0095493D01*
X0032275Y0094895D02*
X0022372Y0094895D01*
X0021843Y0094296D02*
X0032805Y0094296D01*
X0033403Y0093698D02*
X0021244Y0093698D01*
X0020103Y0093099D02*
X0034544Y0093099D01*
X0036224Y0097383D02*
X0036524Y0097383D01*
X0054524Y0079383D01*
X0054524Y0072783D01*
X0054883Y0072654D01*
X0051091Y0067363D02*
X0037575Y0067363D01*
X0037139Y0067183D02*
X0038829Y0067883D01*
X0040123Y0069177D01*
X0040824Y0070868D01*
X0040824Y0072698D01*
X0040123Y0074388D01*
X0038829Y0075682D01*
X0037139Y0076383D01*
X0035309Y0076383D01*
X0033618Y0075682D01*
X0032324Y0074388D01*
X0031624Y0072698D01*
X0031624Y0070868D01*
X0032324Y0069177D01*
X0033618Y0067883D01*
X0035309Y0067183D01*
X0037139Y0067183D01*
X0038908Y0067962D02*
X0050844Y0067962D01*
X0050636Y0068560D02*
X0039507Y0068560D01*
X0040105Y0069159D02*
X0050636Y0069159D01*
X0050636Y0069757D02*
X0040364Y0069757D01*
X0040612Y0070356D02*
X0050636Y0070356D01*
X0050636Y0070954D02*
X0040824Y0070954D01*
X0040824Y0071553D02*
X0050636Y0071553D01*
X0050636Y0072151D02*
X0040824Y0072151D01*
X0040802Y0072750D02*
X0050636Y0072750D01*
X0050636Y0073348D02*
X0040554Y0073348D01*
X0040306Y0073947D02*
X0050636Y0073947D01*
X0050636Y0074545D02*
X0039966Y0074545D01*
X0039368Y0075144D02*
X0050636Y0075144D01*
X0050636Y0075742D02*
X0038684Y0075742D01*
X0037239Y0076341D02*
X0050636Y0076341D01*
X0050676Y0076940D02*
X0011624Y0076940D01*
X0011624Y0077538D02*
X0050923Y0077538D01*
X0051171Y0078137D02*
X0011624Y0078137D01*
X0011624Y0078735D02*
X0051612Y0078735D01*
X0052211Y0079334D02*
X0011624Y0079334D01*
X0011624Y0079932D02*
X0052277Y0079932D01*
X0051679Y0080531D02*
X0011624Y0080531D01*
X0011624Y0081129D02*
X0051080Y0081129D01*
X0050482Y0081728D02*
X0011624Y0081728D01*
X0011624Y0082326D02*
X0049883Y0082326D01*
X0051420Y0066765D02*
X0011624Y0066765D01*
X0011624Y0067363D02*
X0017072Y0067363D01*
X0017509Y0067183D02*
X0019339Y0067183D01*
X0021029Y0067883D01*
X0022323Y0069177D01*
X0023024Y0070868D01*
X0023024Y0072698D01*
X0022323Y0074388D01*
X0021029Y0075682D01*
X0019339Y0076383D01*
X0017509Y0076383D01*
X0015818Y0075682D01*
X0014524Y0074388D01*
X0013824Y0072698D01*
X0013824Y0070868D01*
X0014524Y0069177D01*
X0015818Y0067883D01*
X0017509Y0067183D01*
X0015739Y0067962D02*
X0011624Y0067962D01*
X0011624Y0068560D02*
X0015141Y0068560D01*
X0014542Y0069159D02*
X0011624Y0069159D01*
X0011624Y0069757D02*
X0014284Y0069757D01*
X0014036Y0070356D02*
X0011624Y0070356D01*
X0011624Y0070954D02*
X0013824Y0070954D01*
X0013824Y0071553D02*
X0011624Y0071553D01*
X0011624Y0072151D02*
X0013824Y0072151D01*
X0013845Y0072750D02*
X0011624Y0072750D01*
X0011624Y0073348D02*
X0014093Y0073348D01*
X0014341Y0073947D02*
X0011624Y0073947D01*
X0011624Y0074545D02*
X0014681Y0074545D01*
X0015280Y0075144D02*
X0011624Y0075144D01*
X0011624Y0075742D02*
X0015963Y0075742D01*
X0017408Y0076341D02*
X0011624Y0076341D01*
X0011624Y0066166D02*
X0052018Y0066166D01*
X0052814Y0065568D02*
X0011624Y0065568D01*
X0011624Y0064969D02*
X0114040Y0064969D01*
X0113924Y0065086D02*
X0113924Y0065086D01*
X0113441Y0065568D02*
X0101834Y0065568D01*
X0102629Y0066166D02*
X0112843Y0066166D01*
X0112244Y0066765D02*
X0103228Y0066765D01*
X0103556Y0067363D02*
X0111646Y0067363D01*
X0111047Y0067962D02*
X0103804Y0067962D01*
X0104011Y0068560D02*
X0110449Y0068560D01*
X0109850Y0069159D02*
X0104011Y0069159D01*
X0104011Y0069757D02*
X0109252Y0069757D01*
X0108653Y0070356D02*
X0104011Y0070356D01*
X0104011Y0070954D02*
X0108055Y0070954D01*
X0114524Y0076983D02*
X0114524Y0081183D01*
X0076124Y0119583D01*
X0076124Y0137583D01*
X0073626Y0140382D02*
X0043822Y0140382D01*
X0044420Y0139783D02*
X0073027Y0139783D01*
X0072429Y0139185D02*
X0045019Y0139185D01*
X0043223Y0140980D02*
X0074224Y0140980D01*
X0074823Y0141579D02*
X0042625Y0141579D01*
X0042026Y0142177D02*
X0075421Y0142177D01*
X0076020Y0142776D02*
X0041428Y0142776D01*
X0040829Y0143374D02*
X0079137Y0143374D01*
X0079735Y0143973D02*
X0040231Y0143973D01*
X0039632Y0144571D02*
X0081838Y0144571D01*
X0082112Y0143973D02*
X0082124Y0143973D01*
X0083324Y0144783D02*
X0064724Y0163383D01*
X0066564Y0164921D02*
X0131724Y0164921D01*
X0131724Y0165519D02*
X0065966Y0165519D01*
X0067113Y0164322D02*
X0131724Y0164322D01*
X0131724Y0163724D02*
X0067113Y0163724D01*
X0067113Y0163125D02*
X0131724Y0163125D01*
X0131724Y0162527D02*
X0067277Y0162527D01*
X0067875Y0161928D02*
X0131724Y0161928D01*
X0131724Y0161330D02*
X0068474Y0161330D01*
X0069072Y0160731D02*
X0131724Y0160731D01*
X0131724Y0160133D02*
X0069671Y0160133D01*
X0070269Y0159534D02*
X0131724Y0159534D01*
X0131724Y0158936D02*
X0070868Y0158936D01*
X0071466Y0158337D02*
X0131724Y0158337D01*
X0131724Y0157739D02*
X0072065Y0157739D01*
X0072663Y0157140D02*
X0131724Y0157140D01*
X0131724Y0156542D02*
X0073262Y0156542D01*
X0073860Y0155943D02*
X0131724Y0155943D01*
X0131724Y0155344D02*
X0074459Y0155344D01*
X0075057Y0154746D02*
X0131724Y0154746D01*
X0131724Y0154147D02*
X0075656Y0154147D01*
X0076254Y0153549D02*
X0131724Y0153549D01*
X0131724Y0152950D02*
X0076853Y0152950D01*
X0077451Y0152352D02*
X0131724Y0152352D01*
X0131724Y0151753D02*
X0078050Y0151753D01*
X0078648Y0151155D02*
X0131724Y0151155D01*
X0131724Y0150556D02*
X0079247Y0150556D01*
X0079845Y0149958D02*
X0131724Y0149958D01*
X0131724Y0149359D02*
X0080444Y0149359D01*
X0081042Y0148761D02*
X0131724Y0148761D01*
X0131724Y0148162D02*
X0081641Y0148162D01*
X0082239Y0147564D02*
X0131724Y0147564D01*
X0131724Y0146965D02*
X0082838Y0146965D01*
X0083437Y0146367D02*
X0131724Y0146367D01*
X0131724Y0145768D02*
X0084035Y0145768D01*
X0084524Y0145170D02*
X0131724Y0145170D01*
X0131724Y0144571D02*
X0084524Y0144571D01*
X0084524Y0143973D02*
X0131724Y0143973D01*
X0131724Y0143374D02*
X0084524Y0143374D01*
X0084524Y0142776D02*
X0131724Y0142776D01*
X0131724Y0142177D02*
X0084524Y0142177D01*
X0084524Y0141579D02*
X0131724Y0141579D01*
X0131724Y0140980D02*
X0084524Y0140980D01*
X0084524Y0140382D02*
X0131724Y0140382D01*
X0131724Y0139783D02*
X0084221Y0139783D01*
X0083623Y0139185D02*
X0131724Y0139185D01*
X0131724Y0138586D02*
X0083024Y0138586D01*
X0082426Y0137988D02*
X0131724Y0137988D01*
X0131724Y0137389D02*
X0082124Y0137389D01*
X0082124Y0136791D02*
X0131724Y0136791D01*
X0131724Y0136192D02*
X0082124Y0136192D01*
X0082124Y0135594D02*
X0131724Y0135594D01*
X0131724Y0134995D02*
X0082124Y0134995D01*
X0082124Y0134397D02*
X0131724Y0134397D01*
X0131724Y0133798D02*
X0082124Y0133798D01*
X0082124Y0133200D02*
X0131724Y0133200D01*
X0131724Y0132601D02*
X0082124Y0132601D01*
X0082124Y0132003D02*
X0131724Y0132003D01*
X0131724Y0131404D02*
X0082124Y0131404D01*
X0082124Y0130806D02*
X0131724Y0130806D01*
X0131724Y0130207D02*
X0082124Y0130207D01*
X0082124Y0129609D02*
X0131724Y0129609D01*
X0131724Y0129010D02*
X0082124Y0129010D01*
X0082124Y0128411D02*
X0131724Y0128411D01*
X0131724Y0127813D02*
X0082672Y0127813D01*
X0083270Y0127214D02*
X0131724Y0127214D01*
X0131724Y0126616D02*
X0083313Y0126616D01*
X0083313Y0126017D02*
X0085180Y0126017D01*
X0084581Y0125419D02*
X0083384Y0125419D01*
X0083924Y0123183D02*
X0083924Y0122583D01*
X0116924Y0089583D01*
X0117324Y0089583D01*
X0119492Y0091304D02*
X0120156Y0091304D01*
X0120754Y0091902D02*
X0118893Y0091902D01*
X0115703Y0092501D02*
X0131724Y0092501D01*
X0131724Y0093099D02*
X0115104Y0093099D01*
X0114505Y0093698D02*
X0131724Y0093698D01*
X0131724Y0094296D02*
X0113907Y0094296D01*
X0113308Y0094895D02*
X0131724Y0094895D01*
X0131724Y0095493D02*
X0112710Y0095493D01*
X0112111Y0096092D02*
X0131724Y0096092D01*
X0131724Y0096690D02*
X0111513Y0096690D01*
X0110914Y0097289D02*
X0131724Y0097289D01*
X0131724Y0097887D02*
X0110316Y0097887D01*
X0109717Y0098486D02*
X0131724Y0098486D01*
X0131724Y0099084D02*
X0110604Y0099084D01*
X0111202Y0099683D02*
X0131724Y0099683D01*
X0131724Y0100281D02*
X0111513Y0100281D01*
X0111513Y0100880D02*
X0131724Y0100880D01*
X0131724Y0101478D02*
X0111513Y0101478D01*
X0111408Y0102077D02*
X0131724Y0102077D01*
X0131724Y0102675D02*
X0110809Y0102675D01*
X0110211Y0103274D02*
X0131724Y0103274D01*
X0131724Y0103873D02*
X0107931Y0103873D01*
X0107332Y0104471D02*
X0131724Y0104471D01*
X0131724Y0105070D02*
X0106734Y0105070D01*
X0106135Y0105668D02*
X0131724Y0105668D01*
X0131724Y0106267D02*
X0105537Y0106267D01*
X0104938Y0106865D02*
X0131724Y0106865D01*
X0131724Y0107464D02*
X0104340Y0107464D01*
X0103741Y0108062D02*
X0131724Y0108062D01*
X0131724Y0108661D02*
X0103143Y0108661D01*
X0102544Y0109259D02*
X0131724Y0109259D01*
X0131724Y0109858D02*
X0101946Y0109858D01*
X0101347Y0110456D02*
X0131724Y0110456D01*
X0131724Y0111055D02*
X0100749Y0111055D01*
X0100150Y0111653D02*
X0131724Y0111653D01*
X0131724Y0112252D02*
X0099552Y0112252D01*
X0098953Y0112850D02*
X0131724Y0112850D01*
X0131724Y0113449D02*
X0098355Y0113449D01*
X0097756Y0114047D02*
X0131724Y0114047D01*
X0131724Y0114646D02*
X0097158Y0114646D01*
X0096559Y0115244D02*
X0131724Y0115244D01*
X0131724Y0115843D02*
X0095961Y0115843D01*
X0095362Y0116441D02*
X0131724Y0116441D01*
X0131724Y0117040D02*
X0094764Y0117040D01*
X0094165Y0117638D02*
X0131724Y0117638D01*
X0131724Y0118237D02*
X0093567Y0118237D01*
X0092968Y0118835D02*
X0131724Y0118835D01*
X0131724Y0119434D02*
X0092370Y0119434D01*
X0091771Y0120032D02*
X0131724Y0120032D01*
X0131724Y0120631D02*
X0091173Y0120631D01*
X0090574Y0121229D02*
X0131724Y0121229D01*
X0131724Y0121828D02*
X0089975Y0121828D01*
X0089377Y0122426D02*
X0131724Y0122426D01*
X0131724Y0123025D02*
X0088778Y0123025D01*
X0088713Y0123623D02*
X0131724Y0123623D01*
X0131724Y0124222D02*
X0088713Y0124222D01*
X0088664Y0124820D02*
X0131724Y0124820D01*
X0131724Y0125419D02*
X0088066Y0125419D01*
X0087467Y0126017D02*
X0131724Y0126017D01*
X0109124Y0100983D02*
X0086324Y0123783D01*
X0083924Y0123183D02*
X0080924Y0126183D01*
X0080924Y0138183D01*
X0083324Y0140583D01*
X0083324Y0144783D01*
X0081239Y0145170D02*
X0039034Y0145170D01*
X0038435Y0145768D02*
X0080641Y0145768D01*
X0080042Y0146367D02*
X0037837Y0146367D01*
X0037238Y0146965D02*
X0079444Y0146965D01*
X0078845Y0147564D02*
X0036639Y0147564D01*
X0036041Y0148162D02*
X0078247Y0148162D01*
X0077648Y0148761D02*
X0035442Y0148761D01*
X0034844Y0149359D02*
X0077050Y0149359D01*
X0076451Y0149958D02*
X0034245Y0149958D01*
X0033647Y0150556D02*
X0075853Y0150556D01*
X0075254Y0151155D02*
X0033048Y0151155D01*
X0032450Y0151753D02*
X0074656Y0151753D01*
X0074057Y0152352D02*
X0031851Y0152352D01*
X0031253Y0152950D02*
X0073459Y0152950D01*
X0072860Y0153549D02*
X0030654Y0153549D01*
X0030056Y0154147D02*
X0072262Y0154147D01*
X0071663Y0154746D02*
X0029457Y0154746D01*
X0028859Y0155344D02*
X0071065Y0155344D01*
X0070466Y0155943D02*
X0028724Y0155943D01*
X0028724Y0156542D02*
X0069868Y0156542D01*
X0069269Y0157140D02*
X0028724Y0157140D01*
X0028724Y0157739D02*
X0068671Y0157739D01*
X0068072Y0158337D02*
X0028724Y0158337D01*
X0028724Y0158936D02*
X0067474Y0158936D01*
X0066875Y0159534D02*
X0028724Y0159534D01*
X0028724Y0160133D02*
X0066277Y0160133D01*
X0065678Y0160731D02*
X0028724Y0160731D01*
X0028724Y0161330D02*
X0063398Y0161330D01*
X0062800Y0161928D02*
X0028724Y0161928D01*
X0028724Y0162527D02*
X0062335Y0162527D01*
X0062335Y0163125D02*
X0028724Y0163125D01*
X0028724Y0163724D02*
X0062335Y0163724D01*
X0062335Y0164322D02*
X0028724Y0164322D01*
X0028724Y0164921D02*
X0062883Y0164921D01*
X0063482Y0165519D02*
X0028724Y0165519D01*
X0028724Y0166118D02*
X0111410Y0166118D01*
X0110812Y0166716D02*
X0028724Y0166716D01*
X0028724Y0167315D02*
X0110335Y0167315D01*
X0110335Y0167913D02*
X0028724Y0167913D01*
X0028724Y0168512D02*
X0110335Y0168512D01*
X0110335Y0169110D02*
X0028724Y0169110D01*
X0028724Y0169709D02*
X0110871Y0169709D01*
X0111470Y0170307D02*
X0028724Y0170307D01*
X0028724Y0170906D02*
X0111524Y0170906D01*
X0111524Y0171504D02*
X0028724Y0171504D01*
X0028724Y0172103D02*
X0111524Y0172103D01*
X0111524Y0172701D02*
X0028724Y0172701D01*
X0028724Y0173300D02*
X0111524Y0173300D01*
X0111524Y0173898D02*
X0028724Y0173898D01*
X0028724Y0174497D02*
X0111524Y0174497D01*
X0111524Y0175095D02*
X0028724Y0175095D01*
X0028724Y0175694D02*
X0111524Y0175694D01*
X0111524Y0176292D02*
X0028724Y0176292D01*
X0028724Y0176891D02*
X0111524Y0176891D01*
X0111524Y0177489D02*
X0028724Y0177489D01*
X0028724Y0178088D02*
X0111524Y0178088D01*
X0111524Y0178686D02*
X0028724Y0178686D01*
X0028724Y0179285D02*
X0111524Y0179285D01*
X0111524Y0179883D02*
X0028724Y0179883D01*
X0028724Y0180482D02*
X0111524Y0180482D01*
X0111524Y0181080D02*
X0028724Y0181080D01*
X0028724Y0181679D02*
X0111524Y0181679D01*
X0111524Y0182277D02*
X0028724Y0182277D01*
X0028724Y0182876D02*
X0111524Y0182876D01*
X0111524Y0183475D02*
X0028724Y0183475D01*
X0028724Y0184073D02*
X0111524Y0184073D01*
X0111524Y0184672D02*
X0028724Y0184672D01*
X0028724Y0185270D02*
X0111524Y0185270D01*
X0115113Y0169110D02*
X0131724Y0169110D01*
X0131724Y0168512D02*
X0115113Y0168512D01*
X0115113Y0167913D02*
X0131724Y0167913D01*
X0131724Y0167315D02*
X0115113Y0167315D01*
X0114636Y0166716D02*
X0131724Y0166716D01*
X0131724Y0166118D02*
X0114037Y0166118D01*
X0080924Y0141783D02*
X0076724Y0141783D01*
X0070124Y0135183D01*
X0070124Y0115983D01*
X0068558Y0112252D02*
X0011624Y0112252D01*
X0011624Y0112850D02*
X0067959Y0112850D01*
X0067361Y0113449D02*
X0011624Y0113449D01*
X0011624Y0111653D02*
X0069156Y0111653D01*
X0069755Y0111055D02*
X0011624Y0111055D01*
X0011624Y0110456D02*
X0070353Y0110456D01*
X0070952Y0109858D02*
X0011624Y0109858D01*
X0011624Y0109259D02*
X0071550Y0109259D01*
X0072149Y0108661D02*
X0011624Y0108661D01*
X0011624Y0108062D02*
X0072747Y0108062D01*
X0073346Y0107464D02*
X0011624Y0107464D01*
X0011624Y0106865D02*
X0073944Y0106865D01*
X0074543Y0106267D02*
X0011624Y0106267D01*
X0011624Y0105668D02*
X0075141Y0105668D01*
X0075740Y0105070D02*
X0011624Y0105070D01*
X0011624Y0104471D02*
X0076338Y0104471D01*
X0076937Y0103873D02*
X0011624Y0103873D01*
X0011624Y0103274D02*
X0077535Y0103274D01*
X0078134Y0102675D02*
X0011624Y0102675D01*
X0011624Y0102077D02*
X0078732Y0102077D01*
X0079732Y0104471D02*
X0084633Y0104471D01*
X0085232Y0105070D02*
X0079134Y0105070D01*
X0084249Y0101478D02*
X0038356Y0101478D01*
X0039232Y0100880D02*
X0084848Y0100880D01*
X0085124Y0100281D02*
X0039830Y0100281D01*
X0040250Y0099683D02*
X0085124Y0099683D01*
X0085124Y0099084D02*
X0040498Y0099084D01*
X0040746Y0098486D02*
X0085124Y0098486D01*
X0086324Y0092583D02*
X0086324Y0085983D01*
X0085124Y0086516D02*
X0080754Y0086516D01*
X0081352Y0087114D02*
X0085124Y0087114D01*
X0085124Y0087713D02*
X0081951Y0087713D01*
X0082549Y0088311D02*
X0085124Y0088311D01*
X0085124Y0088910D02*
X0083148Y0088910D01*
X0083746Y0089508D02*
X0085124Y0089508D01*
X0085124Y0090107D02*
X0084345Y0090107D01*
X0084524Y0090705D02*
X0084823Y0090705D01*
X0084561Y0085917D02*
X0080155Y0085917D01*
X0079557Y0085319D02*
X0083963Y0085319D01*
X0081324Y0076940D02*
X0073323Y0076940D01*
X0088860Y0066765D02*
X0096301Y0066765D01*
X0095973Y0067363D02*
X0090035Y0067363D01*
X0096900Y0066166D02*
X0057747Y0066166D01*
X0056952Y0065568D02*
X0097695Y0065568D01*
X0115724Y0066783D02*
X0097124Y0085383D01*
X0097124Y0094983D01*
X0114524Y0076983D02*
X0116924Y0074583D01*
X0117324Y0074583D01*
X0121124Y0069183D02*
X0118724Y0066783D01*
X0115724Y0066783D01*
X0121124Y0069183D02*
X0122324Y0069183D01*
X0122324Y0069583D01*
X0117324Y0084583D02*
X0116924Y0084783D01*
X0116924Y0085983D01*
X0078524Y0124383D01*
X0078524Y0129183D01*
X0066164Y0114646D02*
X0059565Y0114646D01*
X0058967Y0114047D02*
X0066762Y0114047D01*
X0039110Y0093099D02*
X0037903Y0093099D01*
X0035208Y0076341D02*
X0019439Y0076341D01*
X0020884Y0075742D02*
X0033763Y0075742D01*
X0033080Y0075144D02*
X0021568Y0075144D01*
X0022166Y0074545D02*
X0032481Y0074545D01*
X0032141Y0073947D02*
X0022506Y0073947D01*
X0022754Y0073348D02*
X0031893Y0073348D01*
X0031645Y0072750D02*
X0023002Y0072750D01*
X0023024Y0072151D02*
X0031624Y0072151D01*
X0031624Y0071553D02*
X0023024Y0071553D01*
X0023024Y0070954D02*
X0031624Y0070954D01*
X0031836Y0070356D02*
X0022812Y0070356D01*
X0022564Y0069757D02*
X0032084Y0069757D01*
X0032342Y0069159D02*
X0022305Y0069159D01*
X0021707Y0068560D02*
X0032941Y0068560D01*
X0033539Y0067962D02*
X0021108Y0067962D01*
X0019775Y0067363D02*
X0034872Y0067363D01*
X0021524Y0191854D02*
X0011624Y0191854D01*
X0011624Y0192452D02*
X0021524Y0192452D01*
X0021524Y0193051D02*
X0011624Y0193051D01*
X0011624Y0193649D02*
X0021524Y0193649D01*
X0021524Y0194248D02*
X0011624Y0194248D01*
X0011624Y0194846D02*
X0021524Y0194846D01*
X0021524Y0195445D02*
X0011624Y0195445D01*
X0011624Y0196043D02*
X0021524Y0196043D01*
X0021524Y0196642D02*
X0011624Y0196642D01*
X0011624Y0197240D02*
X0021524Y0197240D01*
X0021524Y0197839D02*
X0011624Y0197839D01*
X0011624Y0198437D02*
X0021524Y0198437D01*
X0021524Y0199036D02*
X0011624Y0199036D01*
X0011624Y0199634D02*
X0021524Y0199634D01*
X0021524Y0200233D02*
X0011624Y0200233D01*
X0011624Y0200831D02*
X0021524Y0200831D01*
X0021524Y0201430D02*
X0011624Y0201430D01*
X0011624Y0202028D02*
X0021524Y0202028D01*
X0021524Y0202627D02*
X0011624Y0202627D01*
X0011624Y0203225D02*
X0021524Y0203225D01*
X0021524Y0203824D02*
X0011624Y0203824D01*
X0011624Y0204422D02*
X0021524Y0204422D01*
X0021524Y0205021D02*
X0011624Y0205021D01*
X0011624Y0205619D02*
X0021524Y0205619D01*
X0021524Y0206218D02*
X0011624Y0206218D01*
X0011624Y0206816D02*
X0021524Y0206816D01*
X0021859Y0207415D02*
X0011624Y0207415D01*
X0011624Y0208013D02*
X0022457Y0208013D01*
X0023056Y0208612D02*
X0011624Y0208612D01*
X0011624Y0209211D02*
X0023654Y0209211D01*
X0024253Y0209809D02*
X0011624Y0209809D01*
X0011624Y0210408D02*
X0024851Y0210408D01*
X0024395Y0211006D02*
X0011624Y0211006D01*
X0011624Y0211605D02*
X0023796Y0211605D01*
X0023330Y0212203D02*
X0011624Y0212203D01*
X0011624Y0212802D02*
X0023082Y0212802D01*
X0022834Y0213400D02*
X0011624Y0213400D01*
X0011624Y0213999D02*
X0022724Y0213999D01*
X0022724Y0214597D02*
X0011624Y0214597D01*
X0011624Y0215196D02*
X0022724Y0215196D01*
X0022846Y0215794D02*
X0011624Y0215794D01*
X0011624Y0216393D02*
X0023094Y0216393D01*
X0023342Y0216991D02*
X0011624Y0216991D01*
X0011624Y0217590D02*
X0023825Y0217590D01*
X0024424Y0218188D02*
X0011624Y0218188D01*
X0027324Y0204583D02*
X0027524Y0204183D01*
X0027524Y0201183D01*
X0032324Y0196383D01*
X0030769Y0199634D02*
X0073735Y0199634D01*
D22*
X0076124Y0199983D03*
X0080924Y0187983D03*
X0064724Y0163383D03*
X0080924Y0141783D03*
X0076124Y0137583D03*
X0078524Y0129183D03*
X0080924Y0126183D03*
X0086324Y0123783D03*
X0086324Y0102783D03*
X0083324Y0094983D03*
X0086324Y0092583D03*
X0097124Y0094983D03*
X0109124Y0100983D03*
X0129111Y0093093D03*
X0112724Y0168183D03*
X0070124Y0115983D03*
X0057524Y0115983D03*
X0050324Y0204183D03*
M02*
