G75*
%MOIN*%
%OFA0B0*%
%FSLAX25Y25*%
%IPPOS*%
%LPD*%
%AMOC8*
5,1,8,0,0,1.08239X$1,22.5*
%
%ADD10R,0.03950X0.05524*%
%ADD11R,0.10131X0.09580*%
%ADD12R,0.03280X0.04068*%
%ADD13C,0.04500*%
%ADD14C,0.05131*%
%ADD15C,0.06422*%
%ADD16R,0.06422X0.06422*%
%ADD17C,0.07493*%
%ADD18R,0.03950X0.03950*%
%ADD19R,0.04737X0.05131*%
%ADD20R,0.05131X0.04737*%
%ADD21C,0.09800*%
%ADD22C,0.10250*%
%ADD23C,0.08200*%
%ADD24R,0.06706X0.07099*%
%ADD25R,0.05524X0.05524*%
%ADD26R,0.07400X0.02200*%
%ADD27R,0.02900X0.08600*%
%ADD28R,0.06300X0.02170*%
%ADD29C,0.03778*%
D10*
X0018780Y0134583D03*
X0025867Y0134583D03*
X0025867Y0154583D03*
X0018780Y0154583D03*
X0018780Y0174583D03*
X0025867Y0174583D03*
X0063780Y0199583D03*
X0070867Y0199583D03*
X0108780Y0189583D03*
X0115867Y0189583D03*
D11*
X0042048Y0114583D03*
X0022599Y0114583D03*
D12*
X0082796Y0204583D03*
X0091851Y0204583D03*
D13*
X0117324Y0089583D03*
X0117324Y0084583D03*
X0117324Y0079583D03*
X0117324Y0074583D03*
X0117324Y0069583D03*
X0122324Y0069583D03*
X0122324Y0074583D03*
X0122324Y0079583D03*
X0122324Y0084583D03*
X0122324Y0089583D03*
D14*
X0086182Y0072654D03*
X0068465Y0072654D03*
D15*
X0063544Y0080921D03*
X0073387Y0080921D03*
X0081261Y0080921D03*
D16*
X0091103Y0080921D03*
D17*
X0099765Y0076000D02*
X0099765Y0069307D01*
X0054883Y0069307D02*
X0054883Y0076000D01*
D18*
X0042324Y0151630D03*
X0042324Y0157535D03*
X0114371Y0129583D03*
X0120276Y0129583D03*
X0120276Y0119583D03*
X0114371Y0119583D03*
D19*
X0113977Y0104583D03*
X0120670Y0104583D03*
X0102324Y0136236D03*
X0102324Y0142929D03*
D20*
X0090670Y0219583D03*
X0083977Y0219583D03*
X0045670Y0174583D03*
X0038977Y0174583D03*
X0042324Y0137929D03*
X0042324Y0131236D03*
D21*
X0112324Y0214583D03*
D22*
X0122324Y0224583D03*
X0122324Y0204583D03*
X0102324Y0204583D03*
X0102324Y0224583D03*
D23*
X0018424Y0071783D03*
X0018424Y0097383D03*
X0036224Y0097383D03*
X0036224Y0071783D03*
X0037324Y0194583D03*
X0037324Y0204583D03*
X0037324Y0214583D03*
X0037324Y0224583D03*
X0027324Y0224583D03*
X0027324Y0214583D03*
X0027324Y0204583D03*
X0027324Y0194583D03*
D24*
X0067324Y0213677D03*
D25*
X0071261Y0226768D03*
X0063387Y0226768D03*
D26*
X0057874Y0187614D03*
X0057874Y0185055D03*
X0057874Y0182496D03*
X0057874Y0179937D03*
X0057874Y0177378D03*
X0057874Y0174819D03*
X0057874Y0172260D03*
X0057874Y0169701D03*
X0057874Y0167142D03*
X0057874Y0164583D03*
X0057874Y0162024D03*
X0057874Y0159465D03*
X0057874Y0156906D03*
X0057874Y0154346D03*
X0057874Y0151787D03*
X0057874Y0149228D03*
X0057874Y0146669D03*
X0057874Y0144110D03*
X0057874Y0141551D03*
X0086774Y0141551D03*
X0086774Y0144110D03*
X0086774Y0146669D03*
X0086774Y0149228D03*
X0086774Y0151787D03*
X0086774Y0154346D03*
X0086774Y0156906D03*
X0086774Y0159465D03*
X0086774Y0162024D03*
X0086774Y0164583D03*
X0086774Y0167142D03*
X0086774Y0169701D03*
X0086774Y0172260D03*
X0086774Y0174819D03*
X0086774Y0177378D03*
X0086774Y0179937D03*
X0086774Y0182496D03*
X0086774Y0185055D03*
X0086774Y0187614D03*
D27*
X0104824Y0174283D03*
X0109824Y0174283D03*
X0114824Y0174283D03*
X0119824Y0174283D03*
X0119824Y0154883D03*
X0114824Y0154883D03*
X0109824Y0154883D03*
X0104824Y0154883D03*
D28*
X0091717Y0126217D03*
X0091717Y0123657D03*
X0091717Y0121098D03*
X0091717Y0118539D03*
X0091717Y0115980D03*
X0091717Y0113421D03*
X0091717Y0110862D03*
X0091717Y0108303D03*
X0091717Y0105744D03*
X0091717Y0103185D03*
X0091717Y0100626D03*
X0091717Y0098067D03*
X0091717Y0095508D03*
X0091717Y0092949D03*
X0062930Y0092949D03*
X0062930Y0095508D03*
X0062930Y0098067D03*
X0062930Y0100626D03*
X0062930Y0103185D03*
X0062930Y0105744D03*
X0062930Y0108303D03*
X0062930Y0110862D03*
X0062930Y0113421D03*
X0062930Y0115980D03*
X0062930Y0118539D03*
X0062930Y0121098D03*
X0062930Y0123657D03*
X0062930Y0126217D03*
D29*
X0057524Y0115983D03*
X0070124Y0115983D03*
X0078524Y0129183D03*
X0080924Y0126183D03*
X0086324Y0123783D03*
X0076124Y0137583D03*
X0080924Y0141783D03*
X0064724Y0163383D03*
X0080924Y0187983D03*
X0076124Y0199983D03*
X0050324Y0204183D03*
X0112724Y0168183D03*
X0086324Y0102783D03*
X0083324Y0094983D03*
X0086324Y0092583D03*
X0097124Y0094983D03*
X0109124Y0100983D03*
X0129111Y0093093D03*
M02*
