G75*
%MOIN*%
%OFA0B0*%
%FSLAX25Y25*%
%IPPOS*%
%LPD*%
%AMOC8*
5,1,8,0,0,1.08239X$1,22.5*
%
%ADD10C,0.04500*%
%ADD11C,0.05131*%
%ADD12C,0.06422*%
%ADD13R,0.06422X0.06422*%
%ADD14C,0.07493*%
%ADD15C,0.09800*%
%ADD16C,0.10250*%
%ADD17C,0.08200*%
%ADD18C,0.03778*%
D10*
X0117324Y0069583D03*
X0117324Y0074583D03*
X0117324Y0079583D03*
X0117324Y0084583D03*
X0117324Y0089583D03*
X0122324Y0089583D03*
X0122324Y0084583D03*
X0122324Y0079583D03*
X0122324Y0074583D03*
X0122324Y0069583D03*
D11*
X0086182Y0072654D03*
X0068465Y0072654D03*
D12*
X0063544Y0080921D03*
X0073387Y0080921D03*
X0081261Y0080921D03*
D13*
X0091103Y0080921D03*
D14*
X0099765Y0076000D02*
X0099765Y0069307D01*
X0054883Y0069307D02*
X0054883Y0076000D01*
D15*
X0112324Y0214583D03*
D16*
X0122324Y0224583D03*
X0122324Y0204583D03*
X0102324Y0204583D03*
X0102324Y0224583D03*
D17*
X0018424Y0071783D03*
X0018424Y0097383D03*
X0036224Y0097383D03*
X0036224Y0071783D03*
X0037324Y0194583D03*
X0037324Y0204583D03*
X0037324Y0214583D03*
X0037324Y0224583D03*
X0027324Y0224583D03*
X0027324Y0214583D03*
X0027324Y0204583D03*
X0027324Y0194583D03*
D18*
X0050324Y0204183D03*
X0076124Y0199983D03*
X0080924Y0187983D03*
X0064724Y0163383D03*
X0080924Y0141783D03*
X0076124Y0137583D03*
X0078524Y0129183D03*
X0080924Y0126183D03*
X0086324Y0123783D03*
X0086324Y0102783D03*
X0083324Y0094983D03*
X0086324Y0092583D03*
X0097124Y0094983D03*
X0109124Y0100983D03*
X0129111Y0093093D03*
X0112724Y0168183D03*
X0070124Y0115983D03*
X0057524Y0115983D03*
M02*
