G75*
%MOIN*%
%OFA0B0*%
%FSLAX25Y25*%
%IPPOS*%
%LPD*%
%AMOC8*
5,1,8,0,0,1.08239X$1,22.5*
%
%ADD10C,0.00000*%
%ADD11C,0.00400*%
%ADD12C,0.00500*%
D10*
X0007324Y0059583D02*
X0007324Y0234543D01*
X0136024Y0234543D01*
X0136024Y0059583D01*
X0007324Y0059583D01*
X0066300Y0072654D02*
X0066302Y0072747D01*
X0066308Y0072839D01*
X0066318Y0072931D01*
X0066332Y0073022D01*
X0066349Y0073113D01*
X0066371Y0073203D01*
X0066396Y0073292D01*
X0066425Y0073380D01*
X0066458Y0073466D01*
X0066495Y0073551D01*
X0066535Y0073635D01*
X0066579Y0073716D01*
X0066626Y0073796D01*
X0066676Y0073874D01*
X0066730Y0073949D01*
X0066787Y0074022D01*
X0066847Y0074092D01*
X0066910Y0074160D01*
X0066976Y0074225D01*
X0067044Y0074287D01*
X0067115Y0074347D01*
X0067189Y0074403D01*
X0067265Y0074456D01*
X0067343Y0074505D01*
X0067423Y0074552D01*
X0067505Y0074594D01*
X0067589Y0074634D01*
X0067674Y0074669D01*
X0067761Y0074701D01*
X0067849Y0074730D01*
X0067938Y0074754D01*
X0068028Y0074775D01*
X0068119Y0074791D01*
X0068211Y0074804D01*
X0068303Y0074813D01*
X0068396Y0074818D01*
X0068488Y0074819D01*
X0068581Y0074816D01*
X0068673Y0074809D01*
X0068765Y0074798D01*
X0068856Y0074783D01*
X0068947Y0074765D01*
X0069037Y0074742D01*
X0069125Y0074716D01*
X0069213Y0074686D01*
X0069299Y0074652D01*
X0069383Y0074615D01*
X0069466Y0074573D01*
X0069547Y0074529D01*
X0069627Y0074481D01*
X0069704Y0074430D01*
X0069778Y0074375D01*
X0069851Y0074317D01*
X0069921Y0074257D01*
X0069988Y0074193D01*
X0070052Y0074127D01*
X0070114Y0074057D01*
X0070172Y0073986D01*
X0070227Y0073912D01*
X0070279Y0073835D01*
X0070328Y0073756D01*
X0070374Y0073676D01*
X0070416Y0073593D01*
X0070454Y0073509D01*
X0070489Y0073423D01*
X0070520Y0073336D01*
X0070547Y0073248D01*
X0070570Y0073158D01*
X0070590Y0073068D01*
X0070606Y0072977D01*
X0070618Y0072885D01*
X0070626Y0072793D01*
X0070630Y0072700D01*
X0070630Y0072608D01*
X0070626Y0072515D01*
X0070618Y0072423D01*
X0070606Y0072331D01*
X0070590Y0072240D01*
X0070570Y0072150D01*
X0070547Y0072060D01*
X0070520Y0071972D01*
X0070489Y0071885D01*
X0070454Y0071799D01*
X0070416Y0071715D01*
X0070374Y0071632D01*
X0070328Y0071552D01*
X0070279Y0071473D01*
X0070227Y0071396D01*
X0070172Y0071322D01*
X0070114Y0071251D01*
X0070052Y0071181D01*
X0069988Y0071115D01*
X0069921Y0071051D01*
X0069851Y0070991D01*
X0069778Y0070933D01*
X0069704Y0070878D01*
X0069627Y0070827D01*
X0069548Y0070779D01*
X0069466Y0070735D01*
X0069383Y0070693D01*
X0069299Y0070656D01*
X0069213Y0070622D01*
X0069125Y0070592D01*
X0069037Y0070566D01*
X0068947Y0070543D01*
X0068856Y0070525D01*
X0068765Y0070510D01*
X0068673Y0070499D01*
X0068581Y0070492D01*
X0068488Y0070489D01*
X0068396Y0070490D01*
X0068303Y0070495D01*
X0068211Y0070504D01*
X0068119Y0070517D01*
X0068028Y0070533D01*
X0067938Y0070554D01*
X0067849Y0070578D01*
X0067761Y0070607D01*
X0067674Y0070639D01*
X0067589Y0070674D01*
X0067505Y0070714D01*
X0067423Y0070756D01*
X0067343Y0070803D01*
X0067265Y0070852D01*
X0067189Y0070905D01*
X0067115Y0070961D01*
X0067044Y0071021D01*
X0066976Y0071083D01*
X0066910Y0071148D01*
X0066847Y0071216D01*
X0066787Y0071286D01*
X0066730Y0071359D01*
X0066676Y0071434D01*
X0066626Y0071512D01*
X0066579Y0071592D01*
X0066535Y0071673D01*
X0066495Y0071757D01*
X0066458Y0071842D01*
X0066425Y0071928D01*
X0066396Y0072016D01*
X0066371Y0072105D01*
X0066349Y0072195D01*
X0066332Y0072286D01*
X0066318Y0072377D01*
X0066308Y0072469D01*
X0066302Y0072561D01*
X0066300Y0072654D01*
X0084017Y0072654D02*
X0084019Y0072747D01*
X0084025Y0072839D01*
X0084035Y0072931D01*
X0084049Y0073022D01*
X0084066Y0073113D01*
X0084088Y0073203D01*
X0084113Y0073292D01*
X0084142Y0073380D01*
X0084175Y0073466D01*
X0084212Y0073551D01*
X0084252Y0073635D01*
X0084296Y0073716D01*
X0084343Y0073796D01*
X0084393Y0073874D01*
X0084447Y0073949D01*
X0084504Y0074022D01*
X0084564Y0074092D01*
X0084627Y0074160D01*
X0084693Y0074225D01*
X0084761Y0074287D01*
X0084832Y0074347D01*
X0084906Y0074403D01*
X0084982Y0074456D01*
X0085060Y0074505D01*
X0085140Y0074552D01*
X0085222Y0074594D01*
X0085306Y0074634D01*
X0085391Y0074669D01*
X0085478Y0074701D01*
X0085566Y0074730D01*
X0085655Y0074754D01*
X0085745Y0074775D01*
X0085836Y0074791D01*
X0085928Y0074804D01*
X0086020Y0074813D01*
X0086113Y0074818D01*
X0086205Y0074819D01*
X0086298Y0074816D01*
X0086390Y0074809D01*
X0086482Y0074798D01*
X0086573Y0074783D01*
X0086664Y0074765D01*
X0086754Y0074742D01*
X0086842Y0074716D01*
X0086930Y0074686D01*
X0087016Y0074652D01*
X0087100Y0074615D01*
X0087183Y0074573D01*
X0087264Y0074529D01*
X0087344Y0074481D01*
X0087421Y0074430D01*
X0087495Y0074375D01*
X0087568Y0074317D01*
X0087638Y0074257D01*
X0087705Y0074193D01*
X0087769Y0074127D01*
X0087831Y0074057D01*
X0087889Y0073986D01*
X0087944Y0073912D01*
X0087996Y0073835D01*
X0088045Y0073756D01*
X0088091Y0073676D01*
X0088133Y0073593D01*
X0088171Y0073509D01*
X0088206Y0073423D01*
X0088237Y0073336D01*
X0088264Y0073248D01*
X0088287Y0073158D01*
X0088307Y0073068D01*
X0088323Y0072977D01*
X0088335Y0072885D01*
X0088343Y0072793D01*
X0088347Y0072700D01*
X0088347Y0072608D01*
X0088343Y0072515D01*
X0088335Y0072423D01*
X0088323Y0072331D01*
X0088307Y0072240D01*
X0088287Y0072150D01*
X0088264Y0072060D01*
X0088237Y0071972D01*
X0088206Y0071885D01*
X0088171Y0071799D01*
X0088133Y0071715D01*
X0088091Y0071632D01*
X0088045Y0071552D01*
X0087996Y0071473D01*
X0087944Y0071396D01*
X0087889Y0071322D01*
X0087831Y0071251D01*
X0087769Y0071181D01*
X0087705Y0071115D01*
X0087638Y0071051D01*
X0087568Y0070991D01*
X0087495Y0070933D01*
X0087421Y0070878D01*
X0087344Y0070827D01*
X0087265Y0070779D01*
X0087183Y0070735D01*
X0087100Y0070693D01*
X0087016Y0070656D01*
X0086930Y0070622D01*
X0086842Y0070592D01*
X0086754Y0070566D01*
X0086664Y0070543D01*
X0086573Y0070525D01*
X0086482Y0070510D01*
X0086390Y0070499D01*
X0086298Y0070492D01*
X0086205Y0070489D01*
X0086113Y0070490D01*
X0086020Y0070495D01*
X0085928Y0070504D01*
X0085836Y0070517D01*
X0085745Y0070533D01*
X0085655Y0070554D01*
X0085566Y0070578D01*
X0085478Y0070607D01*
X0085391Y0070639D01*
X0085306Y0070674D01*
X0085222Y0070714D01*
X0085140Y0070756D01*
X0085060Y0070803D01*
X0084982Y0070852D01*
X0084906Y0070905D01*
X0084832Y0070961D01*
X0084761Y0071021D01*
X0084693Y0071083D01*
X0084627Y0071148D01*
X0084564Y0071216D01*
X0084504Y0071286D01*
X0084447Y0071359D01*
X0084393Y0071434D01*
X0084343Y0071512D01*
X0084296Y0071592D01*
X0084252Y0071673D01*
X0084212Y0071757D01*
X0084175Y0071842D01*
X0084142Y0071928D01*
X0084113Y0072016D01*
X0084088Y0072105D01*
X0084066Y0072195D01*
X0084049Y0072286D01*
X0084035Y0072377D01*
X0084025Y0072469D01*
X0084019Y0072561D01*
X0084017Y0072654D01*
D11*
X0112978Y0115212D02*
X0112978Y0115723D01*
X0117578Y0117256D01*
X0117578Y0115212D02*
X0114512Y0116234D01*
X0114512Y0113333D02*
X0114512Y0112055D01*
X0114511Y0112055D02*
X0114513Y0112000D01*
X0114519Y0111946D01*
X0114529Y0111892D01*
X0114542Y0111839D01*
X0114559Y0111787D01*
X0114580Y0111736D01*
X0114605Y0111687D01*
X0114633Y0111640D01*
X0114664Y0111595D01*
X0114698Y0111553D01*
X0114736Y0111513D01*
X0114776Y0111475D01*
X0114818Y0111441D01*
X0114863Y0111410D01*
X0114910Y0111382D01*
X0114959Y0111357D01*
X0115010Y0111336D01*
X0115062Y0111319D01*
X0115115Y0111306D01*
X0115169Y0111296D01*
X0115223Y0111290D01*
X0115278Y0111288D01*
X0116812Y0111288D01*
X0116867Y0111290D01*
X0116921Y0111296D01*
X0116975Y0111306D01*
X0117028Y0111319D01*
X0117080Y0111336D01*
X0117131Y0111357D01*
X0117180Y0111382D01*
X0117227Y0111410D01*
X0117272Y0111441D01*
X0117314Y0111475D01*
X0117354Y0111513D01*
X0117392Y0111553D01*
X0117426Y0111595D01*
X0117457Y0111640D01*
X0117485Y0111687D01*
X0117510Y0111736D01*
X0117531Y0111787D01*
X0117548Y0111839D01*
X0117561Y0111892D01*
X0117571Y0111946D01*
X0117577Y0112000D01*
X0117579Y0112055D01*
X0117578Y0112055D02*
X0117578Y0113333D01*
X0119112Y0113333D02*
X0114512Y0113333D01*
X0115534Y0109456D02*
X0116556Y0109456D01*
X0116619Y0109454D01*
X0116682Y0109448D01*
X0116744Y0109439D01*
X0116805Y0109425D01*
X0116866Y0109408D01*
X0116925Y0109387D01*
X0116983Y0109362D01*
X0117040Y0109334D01*
X0117094Y0109303D01*
X0117146Y0109268D01*
X0117197Y0109230D01*
X0117245Y0109189D01*
X0117290Y0109145D01*
X0117332Y0109099D01*
X0117372Y0109050D01*
X0117408Y0108999D01*
X0117441Y0108945D01*
X0117471Y0108890D01*
X0117497Y0108832D01*
X0117520Y0108774D01*
X0117539Y0108714D01*
X0117554Y0108653D01*
X0117566Y0108591D01*
X0117574Y0108528D01*
X0117578Y0108465D01*
X0117578Y0108403D01*
X0117574Y0108340D01*
X0117566Y0108277D01*
X0117554Y0108215D01*
X0117539Y0108154D01*
X0117520Y0108094D01*
X0117497Y0108036D01*
X0117471Y0107978D01*
X0117441Y0107923D01*
X0117408Y0107869D01*
X0117372Y0107818D01*
X0117332Y0107769D01*
X0117290Y0107723D01*
X0117245Y0107679D01*
X0117197Y0107638D01*
X0117146Y0107600D01*
X0117094Y0107565D01*
X0117040Y0107534D01*
X0116983Y0107506D01*
X0116925Y0107481D01*
X0116866Y0107460D01*
X0116805Y0107443D01*
X0116744Y0107429D01*
X0116682Y0107420D01*
X0116619Y0107414D01*
X0116556Y0107412D01*
X0115534Y0107412D01*
X0115471Y0107414D01*
X0115408Y0107420D01*
X0115346Y0107429D01*
X0115285Y0107443D01*
X0115224Y0107460D01*
X0115165Y0107481D01*
X0115107Y0107506D01*
X0115050Y0107534D01*
X0114996Y0107565D01*
X0114944Y0107600D01*
X0114893Y0107638D01*
X0114845Y0107679D01*
X0114800Y0107723D01*
X0114758Y0107769D01*
X0114718Y0107818D01*
X0114682Y0107869D01*
X0114649Y0107923D01*
X0114619Y0107978D01*
X0114593Y0108036D01*
X0114570Y0108094D01*
X0114551Y0108154D01*
X0114536Y0108215D01*
X0114524Y0108277D01*
X0114516Y0108340D01*
X0114512Y0108403D01*
X0114512Y0108465D01*
X0114516Y0108528D01*
X0114524Y0108591D01*
X0114536Y0108653D01*
X0114551Y0108714D01*
X0114570Y0108774D01*
X0114593Y0108832D01*
X0114619Y0108890D01*
X0114649Y0108945D01*
X0114682Y0108999D01*
X0114718Y0109050D01*
X0114758Y0109099D01*
X0114800Y0109145D01*
X0114845Y0109189D01*
X0114893Y0109230D01*
X0114944Y0109268D01*
X0114996Y0109303D01*
X0115050Y0109334D01*
X0115107Y0109362D01*
X0115165Y0109387D01*
X0115224Y0109408D01*
X0115285Y0109425D01*
X0115346Y0109439D01*
X0115408Y0109448D01*
X0115471Y0109454D01*
X0115534Y0109456D01*
X0117067Y0105971D02*
X0117578Y0105971D01*
X0117578Y0104438D01*
X0114512Y0104438D01*
X0114512Y0101300D02*
X0114512Y0100023D01*
X0119112Y0100023D01*
X0119112Y0101300D01*
X0119110Y0101363D01*
X0119104Y0101426D01*
X0119095Y0101488D01*
X0119081Y0101549D01*
X0119064Y0101610D01*
X0119043Y0101669D01*
X0119018Y0101727D01*
X0118990Y0101784D01*
X0118959Y0101838D01*
X0118924Y0101890D01*
X0118886Y0101941D01*
X0118845Y0101989D01*
X0118801Y0102034D01*
X0118755Y0102076D01*
X0118706Y0102116D01*
X0118655Y0102152D01*
X0118601Y0102185D01*
X0118546Y0102215D01*
X0118488Y0102241D01*
X0118430Y0102264D01*
X0118370Y0102283D01*
X0118309Y0102298D01*
X0118247Y0102310D01*
X0118184Y0102318D01*
X0118121Y0102322D01*
X0118059Y0102322D01*
X0117996Y0102318D01*
X0117933Y0102310D01*
X0117871Y0102298D01*
X0117810Y0102283D01*
X0117750Y0102264D01*
X0117692Y0102241D01*
X0117634Y0102215D01*
X0117579Y0102185D01*
X0117525Y0102152D01*
X0117474Y0102116D01*
X0117425Y0102076D01*
X0117379Y0102034D01*
X0117335Y0101989D01*
X0117294Y0101941D01*
X0117256Y0101890D01*
X0117221Y0101838D01*
X0117190Y0101784D01*
X0117162Y0101727D01*
X0117137Y0101669D01*
X0117116Y0101610D01*
X0117099Y0101549D01*
X0117085Y0101488D01*
X0117076Y0101426D01*
X0117070Y0101363D01*
X0117068Y0101300D01*
X0117067Y0101300D02*
X0117067Y0100023D01*
X0117068Y0101300D02*
X0117066Y0101370D01*
X0117060Y0101441D01*
X0117051Y0101510D01*
X0117037Y0101579D01*
X0117020Y0101648D01*
X0116999Y0101715D01*
X0116974Y0101781D01*
X0116946Y0101845D01*
X0116914Y0101908D01*
X0116879Y0101969D01*
X0116840Y0102028D01*
X0116799Y0102085D01*
X0116754Y0102139D01*
X0116706Y0102191D01*
X0116656Y0102240D01*
X0116602Y0102287D01*
X0116547Y0102330D01*
X0116489Y0102370D01*
X0116429Y0102407D01*
X0116367Y0102440D01*
X0116303Y0102470D01*
X0116238Y0102497D01*
X0116172Y0102520D01*
X0116104Y0102539D01*
X0116035Y0102554D01*
X0115966Y0102566D01*
X0115896Y0102574D01*
X0115825Y0102578D01*
X0115755Y0102578D01*
X0115684Y0102574D01*
X0115614Y0102566D01*
X0115545Y0102554D01*
X0115476Y0102539D01*
X0115408Y0102520D01*
X0115342Y0102497D01*
X0115277Y0102470D01*
X0115213Y0102440D01*
X0115151Y0102407D01*
X0115091Y0102370D01*
X0115033Y0102330D01*
X0114978Y0102287D01*
X0114924Y0102240D01*
X0114874Y0102191D01*
X0114826Y0102139D01*
X0114781Y0102085D01*
X0114740Y0102028D01*
X0114701Y0101969D01*
X0114666Y0101908D01*
X0114634Y0101845D01*
X0114606Y0101781D01*
X0114581Y0101715D01*
X0114560Y0101648D01*
X0114543Y0101579D01*
X0114529Y0101510D01*
X0114520Y0101441D01*
X0114514Y0101370D01*
X0114512Y0101300D01*
X0120478Y0105763D02*
X0120478Y0106274D01*
X0125078Y0107807D01*
X0125078Y0105763D02*
X0122012Y0106785D01*
X0122012Y0102939D02*
X0125078Y0102939D01*
X0125078Y0104472D01*
X0124567Y0104472D01*
X0124056Y0100907D02*
X0123034Y0100907D01*
X0122971Y0100905D01*
X0122908Y0100899D01*
X0122846Y0100890D01*
X0122785Y0100876D01*
X0122724Y0100859D01*
X0122665Y0100838D01*
X0122607Y0100813D01*
X0122550Y0100785D01*
X0122496Y0100754D01*
X0122444Y0100719D01*
X0122393Y0100681D01*
X0122345Y0100640D01*
X0122300Y0100596D01*
X0122258Y0100550D01*
X0122218Y0100501D01*
X0122182Y0100450D01*
X0122149Y0100396D01*
X0122119Y0100341D01*
X0122093Y0100283D01*
X0122070Y0100225D01*
X0122051Y0100165D01*
X0122036Y0100104D01*
X0122024Y0100042D01*
X0122016Y0099979D01*
X0122012Y0099916D01*
X0122012Y0099854D01*
X0122016Y0099791D01*
X0122024Y0099728D01*
X0122036Y0099666D01*
X0122051Y0099605D01*
X0122070Y0099545D01*
X0122093Y0099487D01*
X0122119Y0099429D01*
X0122149Y0099374D01*
X0122182Y0099320D01*
X0122218Y0099269D01*
X0122258Y0099220D01*
X0122300Y0099174D01*
X0122345Y0099130D01*
X0122393Y0099089D01*
X0122444Y0099051D01*
X0122496Y0099016D01*
X0122550Y0098985D01*
X0122607Y0098957D01*
X0122665Y0098932D01*
X0122724Y0098911D01*
X0122785Y0098894D01*
X0122846Y0098880D01*
X0122908Y0098871D01*
X0122971Y0098865D01*
X0123034Y0098863D01*
X0124056Y0098863D01*
X0124119Y0098865D01*
X0124182Y0098871D01*
X0124244Y0098880D01*
X0124305Y0098894D01*
X0124366Y0098911D01*
X0124425Y0098932D01*
X0124483Y0098957D01*
X0124540Y0098985D01*
X0124594Y0099016D01*
X0124646Y0099051D01*
X0124697Y0099089D01*
X0124745Y0099130D01*
X0124790Y0099174D01*
X0124832Y0099220D01*
X0124872Y0099269D01*
X0124908Y0099320D01*
X0124941Y0099374D01*
X0124971Y0099429D01*
X0124997Y0099487D01*
X0125020Y0099545D01*
X0125039Y0099605D01*
X0125054Y0099666D01*
X0125066Y0099728D01*
X0125074Y0099791D01*
X0125078Y0099854D01*
X0125078Y0099916D01*
X0125074Y0099979D01*
X0125066Y0100042D01*
X0125054Y0100104D01*
X0125039Y0100165D01*
X0125020Y0100225D01*
X0124997Y0100283D01*
X0124971Y0100341D01*
X0124941Y0100396D01*
X0124908Y0100450D01*
X0124872Y0100501D01*
X0124832Y0100550D01*
X0124790Y0100596D01*
X0124745Y0100640D01*
X0124697Y0100681D01*
X0124646Y0100719D01*
X0124594Y0100754D01*
X0124540Y0100785D01*
X0124483Y0100813D01*
X0124425Y0100838D01*
X0124366Y0100859D01*
X0124305Y0100876D01*
X0124244Y0100890D01*
X0124182Y0100899D01*
X0124119Y0100905D01*
X0124056Y0100907D01*
X0122012Y0096992D02*
X0124056Y0095970D01*
X0124056Y0095714D02*
X0124056Y0094436D01*
X0124056Y0095714D02*
X0124058Y0095784D01*
X0124064Y0095855D01*
X0124073Y0095924D01*
X0124087Y0095993D01*
X0124104Y0096062D01*
X0124125Y0096129D01*
X0124150Y0096195D01*
X0124178Y0096259D01*
X0124210Y0096322D01*
X0124245Y0096383D01*
X0124284Y0096442D01*
X0124325Y0096499D01*
X0124370Y0096553D01*
X0124418Y0096605D01*
X0124468Y0096654D01*
X0124522Y0096701D01*
X0124577Y0096744D01*
X0124635Y0096784D01*
X0124695Y0096821D01*
X0124757Y0096854D01*
X0124821Y0096884D01*
X0124886Y0096911D01*
X0124952Y0096934D01*
X0125020Y0096953D01*
X0125089Y0096968D01*
X0125158Y0096980D01*
X0125228Y0096988D01*
X0125299Y0096992D01*
X0125369Y0096992D01*
X0125440Y0096988D01*
X0125510Y0096980D01*
X0125579Y0096968D01*
X0125648Y0096953D01*
X0125716Y0096934D01*
X0125782Y0096911D01*
X0125847Y0096884D01*
X0125911Y0096854D01*
X0125973Y0096821D01*
X0126033Y0096784D01*
X0126091Y0096744D01*
X0126146Y0096701D01*
X0126200Y0096654D01*
X0126250Y0096605D01*
X0126298Y0096553D01*
X0126343Y0096499D01*
X0126384Y0096442D01*
X0126423Y0096383D01*
X0126458Y0096322D01*
X0126490Y0096259D01*
X0126518Y0096195D01*
X0126543Y0096129D01*
X0126564Y0096062D01*
X0126581Y0095993D01*
X0126595Y0095924D01*
X0126604Y0095855D01*
X0126610Y0095784D01*
X0126612Y0095714D01*
X0126612Y0094436D01*
X0122012Y0094436D01*
X0122012Y0112107D02*
X0126612Y0112107D01*
X0124567Y0112107D02*
X0124567Y0114663D01*
X0126612Y0114663D02*
X0122012Y0114663D01*
X0122012Y0117584D02*
X0122012Y0118734D01*
X0124312Y0118734D01*
X0123801Y0118734D02*
X0123801Y0117584D01*
X0124312Y0118735D02*
X0124367Y0118733D01*
X0124421Y0118727D01*
X0124475Y0118717D01*
X0124528Y0118704D01*
X0124580Y0118687D01*
X0124631Y0118666D01*
X0124680Y0118641D01*
X0124727Y0118613D01*
X0124772Y0118582D01*
X0124814Y0118548D01*
X0124854Y0118510D01*
X0124892Y0118470D01*
X0124926Y0118428D01*
X0124957Y0118383D01*
X0124985Y0118336D01*
X0125010Y0118287D01*
X0125031Y0118236D01*
X0125048Y0118184D01*
X0125061Y0118131D01*
X0125071Y0118077D01*
X0125077Y0118023D01*
X0125079Y0117968D01*
X0125078Y0117968D02*
X0125078Y0116945D01*
X0123800Y0117584D02*
X0123798Y0117526D01*
X0123792Y0117467D01*
X0123783Y0117410D01*
X0123770Y0117353D01*
X0123753Y0117297D01*
X0123732Y0117242D01*
X0123708Y0117189D01*
X0123680Y0117137D01*
X0123649Y0117087D01*
X0123615Y0117040D01*
X0123578Y0116995D01*
X0123538Y0116952D01*
X0123495Y0116912D01*
X0123450Y0116875D01*
X0123403Y0116841D01*
X0123353Y0116810D01*
X0123301Y0116782D01*
X0123248Y0116758D01*
X0123193Y0116737D01*
X0123137Y0116720D01*
X0123080Y0116707D01*
X0123023Y0116698D01*
X0122964Y0116692D01*
X0122906Y0116690D01*
X0122848Y0116692D01*
X0122789Y0116698D01*
X0122732Y0116707D01*
X0122675Y0116720D01*
X0122619Y0116737D01*
X0122564Y0116758D01*
X0122511Y0116782D01*
X0122459Y0116810D01*
X0122409Y0116841D01*
X0122362Y0116875D01*
X0122317Y0116912D01*
X0122274Y0116952D01*
X0122234Y0116995D01*
X0122197Y0117040D01*
X0122163Y0117087D01*
X0122132Y0117137D01*
X0122104Y0117189D01*
X0122080Y0117242D01*
X0122059Y0117297D01*
X0122042Y0117353D01*
X0122029Y0117410D01*
X0122020Y0117467D01*
X0122014Y0117526D01*
X0122012Y0117584D01*
X0122012Y0120913D02*
X0125078Y0120913D01*
X0125078Y0122191D01*
X0125079Y0122191D02*
X0125077Y0122246D01*
X0125071Y0122300D01*
X0125061Y0122354D01*
X0125048Y0122407D01*
X0125031Y0122459D01*
X0125010Y0122510D01*
X0124985Y0122559D01*
X0124957Y0122606D01*
X0124926Y0122651D01*
X0124892Y0122693D01*
X0124854Y0122733D01*
X0124814Y0122771D01*
X0124772Y0122805D01*
X0124727Y0122836D01*
X0124680Y0122864D01*
X0124631Y0122889D01*
X0124580Y0122910D01*
X0124528Y0122927D01*
X0124475Y0122940D01*
X0124421Y0122950D01*
X0124367Y0122956D01*
X0124312Y0122958D01*
X0124312Y0122957D02*
X0122012Y0122957D01*
X0122778Y0124968D02*
X0124312Y0124968D01*
X0124367Y0124970D01*
X0124421Y0124976D01*
X0124475Y0124986D01*
X0124528Y0124999D01*
X0124580Y0125016D01*
X0124631Y0125037D01*
X0124680Y0125062D01*
X0124727Y0125090D01*
X0124772Y0125121D01*
X0124814Y0125155D01*
X0124854Y0125193D01*
X0124892Y0125233D01*
X0124926Y0125275D01*
X0124957Y0125320D01*
X0124985Y0125367D01*
X0125010Y0125416D01*
X0125031Y0125467D01*
X0125048Y0125519D01*
X0125061Y0125572D01*
X0125071Y0125626D01*
X0125077Y0125680D01*
X0125079Y0125735D01*
X0125078Y0125735D02*
X0125078Y0126757D01*
X0124056Y0128413D02*
X0123034Y0128413D01*
X0122971Y0128415D01*
X0122908Y0128421D01*
X0122846Y0128430D01*
X0122785Y0128444D01*
X0122724Y0128461D01*
X0122665Y0128482D01*
X0122607Y0128507D01*
X0122550Y0128535D01*
X0122496Y0128566D01*
X0122444Y0128601D01*
X0122393Y0128639D01*
X0122345Y0128680D01*
X0122300Y0128724D01*
X0122258Y0128770D01*
X0122218Y0128819D01*
X0122182Y0128870D01*
X0122149Y0128924D01*
X0122119Y0128979D01*
X0122093Y0129037D01*
X0122070Y0129095D01*
X0122051Y0129155D01*
X0122036Y0129216D01*
X0122024Y0129278D01*
X0122016Y0129341D01*
X0122012Y0129404D01*
X0122012Y0129466D01*
X0122016Y0129529D01*
X0122024Y0129592D01*
X0122036Y0129654D01*
X0122051Y0129715D01*
X0122070Y0129775D01*
X0122093Y0129833D01*
X0122119Y0129891D01*
X0122149Y0129946D01*
X0122182Y0130000D01*
X0122218Y0130051D01*
X0122258Y0130100D01*
X0122300Y0130146D01*
X0122345Y0130190D01*
X0122393Y0130231D01*
X0122444Y0130269D01*
X0122496Y0130304D01*
X0122550Y0130335D01*
X0122607Y0130363D01*
X0122665Y0130388D01*
X0122724Y0130409D01*
X0122785Y0130426D01*
X0122846Y0130440D01*
X0122908Y0130449D01*
X0122971Y0130455D01*
X0123034Y0130457D01*
X0124056Y0130457D01*
X0124119Y0130455D01*
X0124182Y0130449D01*
X0124244Y0130440D01*
X0124305Y0130426D01*
X0124366Y0130409D01*
X0124425Y0130388D01*
X0124483Y0130363D01*
X0124540Y0130335D01*
X0124594Y0130304D01*
X0124646Y0130269D01*
X0124697Y0130231D01*
X0124745Y0130190D01*
X0124790Y0130146D01*
X0124832Y0130100D01*
X0124872Y0130051D01*
X0124908Y0130000D01*
X0124941Y0129946D01*
X0124971Y0129891D01*
X0124997Y0129833D01*
X0125020Y0129775D01*
X0125039Y0129715D01*
X0125054Y0129654D01*
X0125066Y0129592D01*
X0125074Y0129529D01*
X0125078Y0129466D01*
X0125078Y0129404D01*
X0125074Y0129341D01*
X0125066Y0129278D01*
X0125054Y0129216D01*
X0125039Y0129155D01*
X0125020Y0129095D01*
X0124997Y0129037D01*
X0124971Y0128979D01*
X0124941Y0128924D01*
X0124908Y0128870D01*
X0124872Y0128819D01*
X0124832Y0128770D01*
X0124790Y0128724D01*
X0124745Y0128680D01*
X0124697Y0128639D01*
X0124646Y0128601D01*
X0124594Y0128566D01*
X0124540Y0128535D01*
X0124483Y0128507D01*
X0124425Y0128482D01*
X0124366Y0128461D01*
X0124305Y0128444D01*
X0124244Y0128430D01*
X0124182Y0128421D01*
X0124119Y0128415D01*
X0124056Y0128413D01*
X0122012Y0126757D02*
X0122012Y0125735D01*
X0122011Y0125735D02*
X0122013Y0125680D01*
X0122019Y0125626D01*
X0122029Y0125572D01*
X0122042Y0125519D01*
X0122059Y0125467D01*
X0122080Y0125416D01*
X0122105Y0125367D01*
X0122133Y0125320D01*
X0122164Y0125275D01*
X0122198Y0125233D01*
X0122236Y0125193D01*
X0122276Y0125155D01*
X0122318Y0125121D01*
X0122363Y0125090D01*
X0122410Y0125062D01*
X0122459Y0125037D01*
X0122510Y0125016D01*
X0122562Y0124999D01*
X0122615Y0124986D01*
X0122669Y0124976D01*
X0122723Y0124970D01*
X0122778Y0124968D01*
X0119112Y0122834D02*
X0119112Y0121556D01*
X0114512Y0121556D01*
X0114512Y0122834D01*
X0114514Y0122903D01*
X0114519Y0122972D01*
X0114529Y0123041D01*
X0114542Y0123109D01*
X0114559Y0123176D01*
X0114579Y0123242D01*
X0114603Y0123307D01*
X0114630Y0123371D01*
X0114661Y0123433D01*
X0114695Y0123493D01*
X0114732Y0123551D01*
X0114773Y0123607D01*
X0114816Y0123661D01*
X0114862Y0123713D01*
X0114911Y0123762D01*
X0114963Y0123808D01*
X0115017Y0123851D01*
X0115073Y0123892D01*
X0115131Y0123929D01*
X0115191Y0123963D01*
X0115253Y0123994D01*
X0115317Y0124021D01*
X0115382Y0124045D01*
X0115448Y0124065D01*
X0115515Y0124082D01*
X0115583Y0124095D01*
X0115652Y0124105D01*
X0115721Y0124110D01*
X0115790Y0124112D01*
X0117834Y0124112D01*
X0117903Y0124110D01*
X0117972Y0124105D01*
X0118041Y0124095D01*
X0118109Y0124082D01*
X0118176Y0124065D01*
X0118242Y0124045D01*
X0118307Y0124021D01*
X0118371Y0123994D01*
X0118433Y0123963D01*
X0118493Y0123929D01*
X0118551Y0123892D01*
X0118607Y0123851D01*
X0118661Y0123808D01*
X0118713Y0123762D01*
X0118762Y0123713D01*
X0118808Y0123661D01*
X0118851Y0123607D01*
X0118892Y0123551D01*
X0118929Y0123493D01*
X0118963Y0123433D01*
X0118994Y0123371D01*
X0119021Y0123307D01*
X0119045Y0123242D01*
X0119065Y0123176D01*
X0119082Y0123109D01*
X0119095Y0123041D01*
X0119105Y0122972D01*
X0119110Y0122903D01*
X0119112Y0122834D01*
X0117578Y0126312D02*
X0115278Y0126312D01*
X0115278Y0126311D02*
X0115223Y0126313D01*
X0115169Y0126319D01*
X0115115Y0126329D01*
X0115062Y0126342D01*
X0115010Y0126359D01*
X0114959Y0126380D01*
X0114910Y0126405D01*
X0114863Y0126433D01*
X0114818Y0126464D01*
X0114776Y0126498D01*
X0114736Y0126536D01*
X0114698Y0126576D01*
X0114664Y0126618D01*
X0114633Y0126663D01*
X0114605Y0126710D01*
X0114580Y0126759D01*
X0114559Y0126810D01*
X0114542Y0126862D01*
X0114529Y0126915D01*
X0114519Y0126969D01*
X0114513Y0127023D01*
X0114511Y0127078D01*
X0114512Y0127078D02*
X0114512Y0128356D01*
X0117578Y0128356D01*
X0117578Y0130512D02*
X0117578Y0131789D01*
X0117579Y0131789D02*
X0117577Y0131844D01*
X0117571Y0131898D01*
X0117561Y0131952D01*
X0117548Y0132005D01*
X0117531Y0132057D01*
X0117510Y0132108D01*
X0117485Y0132157D01*
X0117457Y0132204D01*
X0117426Y0132249D01*
X0117392Y0132291D01*
X0117354Y0132331D01*
X0117314Y0132369D01*
X0117272Y0132403D01*
X0117227Y0132434D01*
X0117180Y0132462D01*
X0117131Y0132487D01*
X0117080Y0132508D01*
X0117028Y0132525D01*
X0116975Y0132538D01*
X0116921Y0132548D01*
X0116867Y0132554D01*
X0116812Y0132556D01*
X0114512Y0132556D01*
X0114512Y0130512D02*
X0117578Y0130512D01*
X0119112Y0134620D02*
X0115278Y0134620D01*
X0115223Y0134622D01*
X0115169Y0134628D01*
X0115115Y0134638D01*
X0115062Y0134651D01*
X0115010Y0134668D01*
X0114959Y0134689D01*
X0114910Y0134714D01*
X0114863Y0134742D01*
X0114818Y0134773D01*
X0114776Y0134807D01*
X0114736Y0134845D01*
X0114698Y0134885D01*
X0114664Y0134927D01*
X0114633Y0134972D01*
X0114605Y0135019D01*
X0114580Y0135068D01*
X0114559Y0135119D01*
X0114542Y0135171D01*
X0114529Y0135224D01*
X0114519Y0135278D01*
X0114513Y0135332D01*
X0114511Y0135387D01*
X0115534Y0136962D02*
X0116556Y0136962D01*
X0116619Y0136964D01*
X0116682Y0136970D01*
X0116744Y0136979D01*
X0116805Y0136993D01*
X0116866Y0137010D01*
X0116925Y0137031D01*
X0116983Y0137056D01*
X0117040Y0137084D01*
X0117094Y0137115D01*
X0117146Y0137150D01*
X0117197Y0137188D01*
X0117245Y0137229D01*
X0117290Y0137273D01*
X0117332Y0137319D01*
X0117372Y0137368D01*
X0117408Y0137419D01*
X0117441Y0137473D01*
X0117471Y0137528D01*
X0117497Y0137586D01*
X0117520Y0137644D01*
X0117539Y0137704D01*
X0117554Y0137765D01*
X0117566Y0137827D01*
X0117574Y0137890D01*
X0117578Y0137953D01*
X0117578Y0138015D01*
X0117574Y0138078D01*
X0117566Y0138141D01*
X0117554Y0138203D01*
X0117539Y0138264D01*
X0117520Y0138324D01*
X0117497Y0138382D01*
X0117471Y0138440D01*
X0117441Y0138495D01*
X0117408Y0138549D01*
X0117372Y0138600D01*
X0117332Y0138649D01*
X0117290Y0138695D01*
X0117245Y0138739D01*
X0117197Y0138780D01*
X0117146Y0138818D01*
X0117094Y0138853D01*
X0117040Y0138884D01*
X0116983Y0138912D01*
X0116925Y0138937D01*
X0116866Y0138958D01*
X0116805Y0138975D01*
X0116744Y0138989D01*
X0116682Y0138998D01*
X0116619Y0139004D01*
X0116556Y0139006D01*
X0115534Y0139006D01*
X0115471Y0139004D01*
X0115408Y0138998D01*
X0115346Y0138989D01*
X0115285Y0138975D01*
X0115224Y0138958D01*
X0115165Y0138937D01*
X0115107Y0138912D01*
X0115050Y0138884D01*
X0114996Y0138853D01*
X0114944Y0138818D01*
X0114893Y0138780D01*
X0114845Y0138739D01*
X0114800Y0138695D01*
X0114758Y0138649D01*
X0114718Y0138600D01*
X0114682Y0138549D01*
X0114649Y0138495D01*
X0114619Y0138440D01*
X0114593Y0138382D01*
X0114570Y0138324D01*
X0114551Y0138264D01*
X0114536Y0138203D01*
X0114524Y0138141D01*
X0114516Y0138078D01*
X0114512Y0138015D01*
X0114512Y0137953D01*
X0114516Y0137890D01*
X0114524Y0137827D01*
X0114536Y0137765D01*
X0114551Y0137704D01*
X0114570Y0137644D01*
X0114593Y0137586D01*
X0114619Y0137528D01*
X0114649Y0137473D01*
X0114682Y0137419D01*
X0114718Y0137368D01*
X0114758Y0137319D01*
X0114800Y0137273D01*
X0114845Y0137229D01*
X0114893Y0137188D01*
X0114944Y0137150D01*
X0114996Y0137115D01*
X0115050Y0137084D01*
X0115107Y0137056D01*
X0115165Y0137031D01*
X0115224Y0137010D01*
X0115285Y0136993D01*
X0115346Y0136979D01*
X0115408Y0136970D01*
X0115471Y0136964D01*
X0115534Y0136962D01*
X0114512Y0141035D02*
X0114512Y0142313D01*
X0114511Y0142313D02*
X0114513Y0142368D01*
X0114519Y0142422D01*
X0114529Y0142476D01*
X0114542Y0142529D01*
X0114559Y0142581D01*
X0114580Y0142632D01*
X0114605Y0142681D01*
X0114633Y0142728D01*
X0114664Y0142773D01*
X0114698Y0142815D01*
X0114736Y0142855D01*
X0114776Y0142893D01*
X0114818Y0142927D01*
X0114863Y0142958D01*
X0114910Y0142986D01*
X0114959Y0143011D01*
X0115010Y0143032D01*
X0115062Y0143049D01*
X0115115Y0143062D01*
X0115169Y0143072D01*
X0115223Y0143078D01*
X0115278Y0143080D01*
X0115278Y0143079D02*
X0116812Y0143079D01*
X0116812Y0143080D02*
X0116867Y0143078D01*
X0116921Y0143072D01*
X0116975Y0143062D01*
X0117028Y0143049D01*
X0117080Y0143032D01*
X0117131Y0143011D01*
X0117180Y0142986D01*
X0117227Y0142958D01*
X0117272Y0142927D01*
X0117314Y0142893D01*
X0117354Y0142855D01*
X0117392Y0142815D01*
X0117426Y0142773D01*
X0117457Y0142728D01*
X0117485Y0142681D01*
X0117510Y0142632D01*
X0117531Y0142581D01*
X0117548Y0142529D01*
X0117561Y0142476D01*
X0117571Y0142422D01*
X0117577Y0142368D01*
X0117579Y0142313D01*
X0117578Y0142313D02*
X0117578Y0141035D01*
X0112978Y0141035D01*
X0113745Y0147284D02*
X0119878Y0147284D01*
X0122012Y0148924D02*
X0126612Y0148924D01*
X0126612Y0150202D01*
X0126610Y0150265D01*
X0126604Y0150328D01*
X0126595Y0150390D01*
X0126581Y0150451D01*
X0126564Y0150512D01*
X0126543Y0150571D01*
X0126518Y0150629D01*
X0126490Y0150686D01*
X0126459Y0150740D01*
X0126424Y0150792D01*
X0126386Y0150843D01*
X0126345Y0150891D01*
X0126301Y0150936D01*
X0126255Y0150978D01*
X0126206Y0151018D01*
X0126155Y0151054D01*
X0126101Y0151087D01*
X0126046Y0151117D01*
X0125988Y0151143D01*
X0125930Y0151166D01*
X0125870Y0151185D01*
X0125809Y0151200D01*
X0125747Y0151212D01*
X0125684Y0151220D01*
X0125621Y0151224D01*
X0125559Y0151224D01*
X0125496Y0151220D01*
X0125433Y0151212D01*
X0125371Y0151200D01*
X0125310Y0151185D01*
X0125250Y0151166D01*
X0125192Y0151143D01*
X0125134Y0151117D01*
X0125079Y0151087D01*
X0125025Y0151054D01*
X0124974Y0151018D01*
X0124925Y0150978D01*
X0124879Y0150936D01*
X0124835Y0150891D01*
X0124794Y0150843D01*
X0124756Y0150792D01*
X0124721Y0150740D01*
X0124690Y0150686D01*
X0124662Y0150629D01*
X0124637Y0150571D01*
X0124616Y0150512D01*
X0124599Y0150451D01*
X0124585Y0150390D01*
X0124576Y0150328D01*
X0124570Y0150265D01*
X0124568Y0150202D01*
X0124567Y0150202D02*
X0124567Y0148924D01*
X0124568Y0150202D02*
X0124566Y0150272D01*
X0124560Y0150343D01*
X0124551Y0150412D01*
X0124537Y0150481D01*
X0124520Y0150550D01*
X0124499Y0150617D01*
X0124474Y0150683D01*
X0124446Y0150747D01*
X0124414Y0150810D01*
X0124379Y0150871D01*
X0124340Y0150930D01*
X0124299Y0150987D01*
X0124254Y0151041D01*
X0124206Y0151093D01*
X0124156Y0151142D01*
X0124102Y0151189D01*
X0124047Y0151232D01*
X0123989Y0151272D01*
X0123929Y0151309D01*
X0123867Y0151342D01*
X0123803Y0151372D01*
X0123738Y0151399D01*
X0123672Y0151422D01*
X0123604Y0151441D01*
X0123535Y0151456D01*
X0123466Y0151468D01*
X0123396Y0151476D01*
X0123325Y0151480D01*
X0123255Y0151480D01*
X0123184Y0151476D01*
X0123114Y0151468D01*
X0123045Y0151456D01*
X0122976Y0151441D01*
X0122908Y0151422D01*
X0122842Y0151399D01*
X0122777Y0151372D01*
X0122713Y0151342D01*
X0122651Y0151309D01*
X0122591Y0151272D01*
X0122533Y0151232D01*
X0122478Y0151189D01*
X0122424Y0151142D01*
X0122374Y0151093D01*
X0122326Y0151041D01*
X0122281Y0150987D01*
X0122240Y0150930D01*
X0122201Y0150871D01*
X0122166Y0150810D01*
X0122134Y0150747D01*
X0122106Y0150683D01*
X0122081Y0150617D01*
X0122060Y0150550D01*
X0122043Y0150481D01*
X0122029Y0150412D01*
X0122020Y0150343D01*
X0122014Y0150272D01*
X0122012Y0150202D01*
X0122012Y0148924D01*
X0122778Y0153222D02*
X0126612Y0153222D01*
X0125078Y0155795D02*
X0125078Y0156817D01*
X0125079Y0156817D02*
X0125077Y0156872D01*
X0125071Y0156926D01*
X0125061Y0156980D01*
X0125048Y0157033D01*
X0125031Y0157085D01*
X0125010Y0157136D01*
X0124985Y0157185D01*
X0124957Y0157232D01*
X0124926Y0157277D01*
X0124892Y0157319D01*
X0124854Y0157359D01*
X0124814Y0157397D01*
X0124772Y0157431D01*
X0124727Y0157462D01*
X0124680Y0157490D01*
X0124631Y0157515D01*
X0124580Y0157536D01*
X0124528Y0157553D01*
X0124475Y0157566D01*
X0124421Y0157576D01*
X0124367Y0157582D01*
X0124312Y0157584D01*
X0122012Y0157584D01*
X0122012Y0156434D01*
X0122014Y0156376D01*
X0122020Y0156317D01*
X0122029Y0156260D01*
X0122042Y0156203D01*
X0122059Y0156147D01*
X0122080Y0156092D01*
X0122104Y0156039D01*
X0122132Y0155987D01*
X0122163Y0155937D01*
X0122197Y0155890D01*
X0122234Y0155845D01*
X0122274Y0155802D01*
X0122317Y0155762D01*
X0122362Y0155725D01*
X0122409Y0155691D01*
X0122459Y0155660D01*
X0122511Y0155632D01*
X0122564Y0155608D01*
X0122619Y0155587D01*
X0122675Y0155570D01*
X0122732Y0155557D01*
X0122789Y0155548D01*
X0122848Y0155542D01*
X0122906Y0155540D01*
X0122964Y0155542D01*
X0123023Y0155548D01*
X0123080Y0155557D01*
X0123137Y0155570D01*
X0123193Y0155587D01*
X0123248Y0155608D01*
X0123301Y0155632D01*
X0123353Y0155660D01*
X0123403Y0155691D01*
X0123450Y0155725D01*
X0123495Y0155762D01*
X0123538Y0155802D01*
X0123578Y0155845D01*
X0123615Y0155890D01*
X0123649Y0155937D01*
X0123680Y0155987D01*
X0123708Y0156039D01*
X0123732Y0156092D01*
X0123753Y0156147D01*
X0123770Y0156203D01*
X0123783Y0156260D01*
X0123792Y0156317D01*
X0123798Y0156376D01*
X0123800Y0156434D01*
X0123801Y0156434D02*
X0123801Y0157584D01*
X0123545Y0159816D02*
X0125078Y0161861D01*
X0124184Y0160711D02*
X0122012Y0161861D01*
X0122778Y0163513D02*
X0124056Y0163513D01*
X0123545Y0163513D02*
X0123545Y0165557D01*
X0124056Y0165557D01*
X0124119Y0165555D01*
X0124182Y0165549D01*
X0124244Y0165540D01*
X0124305Y0165526D01*
X0124366Y0165509D01*
X0124425Y0165488D01*
X0124483Y0165463D01*
X0124540Y0165435D01*
X0124594Y0165404D01*
X0124646Y0165369D01*
X0124697Y0165331D01*
X0124745Y0165290D01*
X0124790Y0165246D01*
X0124832Y0165200D01*
X0124872Y0165151D01*
X0124908Y0165100D01*
X0124941Y0165046D01*
X0124971Y0164991D01*
X0124997Y0164933D01*
X0125020Y0164875D01*
X0125039Y0164815D01*
X0125054Y0164754D01*
X0125066Y0164692D01*
X0125074Y0164629D01*
X0125078Y0164566D01*
X0125078Y0164504D01*
X0125074Y0164441D01*
X0125066Y0164378D01*
X0125054Y0164316D01*
X0125039Y0164255D01*
X0125020Y0164195D01*
X0124997Y0164137D01*
X0124971Y0164079D01*
X0124941Y0164024D01*
X0124908Y0163970D01*
X0124872Y0163919D01*
X0124832Y0163870D01*
X0124790Y0163824D01*
X0124745Y0163780D01*
X0124697Y0163739D01*
X0124646Y0163701D01*
X0124594Y0163666D01*
X0124540Y0163635D01*
X0124483Y0163607D01*
X0124425Y0163582D01*
X0124366Y0163561D01*
X0124305Y0163544D01*
X0124244Y0163530D01*
X0124182Y0163521D01*
X0124119Y0163515D01*
X0124056Y0163513D01*
X0122778Y0163513D02*
X0122723Y0163515D01*
X0122669Y0163521D01*
X0122615Y0163531D01*
X0122562Y0163544D01*
X0122510Y0163561D01*
X0122459Y0163582D01*
X0122410Y0163607D01*
X0122363Y0163635D01*
X0122318Y0163666D01*
X0122276Y0163700D01*
X0122236Y0163738D01*
X0122198Y0163778D01*
X0122164Y0163820D01*
X0122133Y0163865D01*
X0122105Y0163912D01*
X0122080Y0163961D01*
X0122059Y0164012D01*
X0122042Y0164064D01*
X0122029Y0164117D01*
X0122019Y0164171D01*
X0122013Y0164225D01*
X0122011Y0164280D01*
X0122012Y0164280D02*
X0122012Y0165557D01*
X0119112Y0164062D02*
X0118856Y0164062D01*
X0118856Y0163806D01*
X0119112Y0163806D01*
X0119112Y0164062D01*
X0117578Y0163934D02*
X0114512Y0163934D01*
X0115278Y0165738D02*
X0116812Y0165738D01*
X0116867Y0165740D01*
X0116921Y0165746D01*
X0116975Y0165756D01*
X0117028Y0165769D01*
X0117080Y0165786D01*
X0117131Y0165807D01*
X0117180Y0165832D01*
X0117227Y0165860D01*
X0117272Y0165891D01*
X0117314Y0165925D01*
X0117354Y0165963D01*
X0117392Y0166003D01*
X0117426Y0166045D01*
X0117457Y0166090D01*
X0117485Y0166137D01*
X0117510Y0166186D01*
X0117531Y0166237D01*
X0117548Y0166289D01*
X0117561Y0166342D01*
X0117571Y0166396D01*
X0117577Y0166450D01*
X0117579Y0166505D01*
X0117578Y0166505D02*
X0117578Y0167783D01*
X0119112Y0167783D02*
X0114512Y0167783D01*
X0114512Y0166505D01*
X0114511Y0166505D02*
X0114513Y0166450D01*
X0114519Y0166396D01*
X0114529Y0166342D01*
X0114542Y0166289D01*
X0114559Y0166237D01*
X0114580Y0166186D01*
X0114605Y0166137D01*
X0114633Y0166090D01*
X0114664Y0166045D01*
X0114698Y0166003D01*
X0114736Y0165963D01*
X0114776Y0165925D01*
X0114818Y0165891D01*
X0114863Y0165860D01*
X0114910Y0165832D01*
X0114959Y0165807D01*
X0115010Y0165786D01*
X0115062Y0165769D01*
X0115115Y0165756D01*
X0115169Y0165746D01*
X0115223Y0165740D01*
X0115278Y0165738D01*
X0117578Y0162256D02*
X0114512Y0161234D01*
X0117578Y0160212D01*
X0116812Y0158333D02*
X0114512Y0158333D01*
X0114512Y0157183D01*
X0114514Y0157125D01*
X0114520Y0157066D01*
X0114529Y0157009D01*
X0114542Y0156952D01*
X0114559Y0156896D01*
X0114580Y0156841D01*
X0114604Y0156788D01*
X0114632Y0156736D01*
X0114663Y0156686D01*
X0114697Y0156639D01*
X0114734Y0156594D01*
X0114774Y0156551D01*
X0114817Y0156511D01*
X0114862Y0156474D01*
X0114909Y0156440D01*
X0114959Y0156409D01*
X0115011Y0156381D01*
X0115064Y0156357D01*
X0115119Y0156336D01*
X0115175Y0156319D01*
X0115232Y0156306D01*
X0115289Y0156297D01*
X0115348Y0156291D01*
X0115406Y0156289D01*
X0115464Y0156291D01*
X0115523Y0156297D01*
X0115580Y0156306D01*
X0115637Y0156319D01*
X0115693Y0156336D01*
X0115748Y0156357D01*
X0115801Y0156381D01*
X0115853Y0156409D01*
X0115903Y0156440D01*
X0115950Y0156474D01*
X0115995Y0156511D01*
X0116038Y0156551D01*
X0116078Y0156594D01*
X0116115Y0156639D01*
X0116149Y0156686D01*
X0116180Y0156736D01*
X0116208Y0156788D01*
X0116232Y0156841D01*
X0116253Y0156896D01*
X0116270Y0156952D01*
X0116283Y0157009D01*
X0116292Y0157066D01*
X0116298Y0157125D01*
X0116300Y0157183D01*
X0116301Y0157183D02*
X0116301Y0158333D01*
X0116812Y0158333D02*
X0116867Y0158331D01*
X0116921Y0158325D01*
X0116975Y0158315D01*
X0117028Y0158302D01*
X0117080Y0158285D01*
X0117131Y0158264D01*
X0117180Y0158239D01*
X0117227Y0158211D01*
X0117272Y0158180D01*
X0117314Y0158146D01*
X0117354Y0158108D01*
X0117392Y0158068D01*
X0117426Y0158026D01*
X0117457Y0157981D01*
X0117485Y0157934D01*
X0117510Y0157885D01*
X0117531Y0157834D01*
X0117548Y0157782D01*
X0117561Y0157729D01*
X0117571Y0157675D01*
X0117577Y0157621D01*
X0117579Y0157566D01*
X0117578Y0157566D02*
X0117578Y0156544D01*
X0117834Y0154262D02*
X0115790Y0154262D01*
X0115721Y0154260D01*
X0115652Y0154255D01*
X0115583Y0154245D01*
X0115515Y0154232D01*
X0115448Y0154215D01*
X0115382Y0154195D01*
X0115317Y0154171D01*
X0115253Y0154144D01*
X0115191Y0154113D01*
X0115131Y0154079D01*
X0115073Y0154042D01*
X0115017Y0154001D01*
X0114963Y0153958D01*
X0114911Y0153912D01*
X0114862Y0153863D01*
X0114816Y0153811D01*
X0114773Y0153757D01*
X0114732Y0153701D01*
X0114695Y0153643D01*
X0114661Y0153583D01*
X0114630Y0153521D01*
X0114603Y0153457D01*
X0114579Y0153392D01*
X0114559Y0153326D01*
X0114542Y0153259D01*
X0114529Y0153191D01*
X0114519Y0153122D01*
X0114514Y0153053D01*
X0114512Y0152984D01*
X0114512Y0151706D01*
X0119112Y0151706D01*
X0119112Y0152984D01*
X0119110Y0153053D01*
X0119105Y0153122D01*
X0119095Y0153191D01*
X0119082Y0153259D01*
X0119065Y0153326D01*
X0119045Y0153392D01*
X0119021Y0153457D01*
X0118994Y0153521D01*
X0118963Y0153583D01*
X0118929Y0153643D01*
X0118892Y0153701D01*
X0118851Y0153757D01*
X0118808Y0153811D01*
X0118762Y0153863D01*
X0118713Y0153912D01*
X0118661Y0153958D01*
X0118607Y0154001D01*
X0118551Y0154042D01*
X0118493Y0154079D01*
X0118433Y0154113D01*
X0118371Y0154144D01*
X0118307Y0154171D01*
X0118242Y0154195D01*
X0118176Y0154215D01*
X0118109Y0154232D01*
X0118041Y0154245D01*
X0117972Y0154255D01*
X0117903Y0154260D01*
X0117834Y0154262D01*
X0122012Y0159816D02*
X0126612Y0159816D01*
X0122011Y0153988D02*
X0122013Y0153933D01*
X0122019Y0153879D01*
X0122029Y0153825D01*
X0122042Y0153772D01*
X0122059Y0153720D01*
X0122080Y0153669D01*
X0122105Y0153620D01*
X0122133Y0153573D01*
X0122164Y0153528D01*
X0122198Y0153486D01*
X0122236Y0153446D01*
X0122276Y0153408D01*
X0122318Y0153374D01*
X0122363Y0153343D01*
X0122410Y0153315D01*
X0122459Y0153290D01*
X0122510Y0153269D01*
X0122562Y0153252D01*
X0122615Y0153239D01*
X0122669Y0153229D01*
X0122723Y0153223D01*
X0122778Y0153221D01*
X0121245Y0144435D02*
X0127378Y0144435D01*
X0125078Y0138011D02*
X0123545Y0135966D01*
X0124184Y0136861D02*
X0122012Y0138011D01*
X0122012Y0135966D02*
X0126612Y0135966D01*
X0125078Y0134107D02*
X0125078Y0133085D01*
X0125079Y0133085D02*
X0125077Y0133030D01*
X0125071Y0132976D01*
X0125061Y0132922D01*
X0125048Y0132869D01*
X0125031Y0132817D01*
X0125010Y0132766D01*
X0124985Y0132717D01*
X0124957Y0132670D01*
X0124926Y0132625D01*
X0124892Y0132583D01*
X0124854Y0132543D01*
X0124814Y0132505D01*
X0124772Y0132471D01*
X0124727Y0132440D01*
X0124680Y0132412D01*
X0124631Y0132387D01*
X0124580Y0132366D01*
X0124528Y0132349D01*
X0124475Y0132336D01*
X0124421Y0132326D01*
X0124367Y0132320D01*
X0124312Y0132318D01*
X0122778Y0132318D01*
X0122723Y0132320D01*
X0122669Y0132326D01*
X0122615Y0132336D01*
X0122562Y0132349D01*
X0122510Y0132366D01*
X0122459Y0132387D01*
X0122410Y0132412D01*
X0122363Y0132440D01*
X0122318Y0132471D01*
X0122276Y0132505D01*
X0122236Y0132543D01*
X0122198Y0132583D01*
X0122164Y0132625D01*
X0122133Y0132670D01*
X0122105Y0132717D01*
X0122080Y0132766D01*
X0122059Y0132817D01*
X0122042Y0132869D01*
X0122029Y0132922D01*
X0122019Y0132976D01*
X0122013Y0133030D01*
X0122011Y0133085D01*
X0122012Y0133085D02*
X0122012Y0134107D01*
X0124695Y0170346D02*
X0123928Y0171752D01*
X0122012Y0171241D02*
X0122014Y0171151D01*
X0122019Y0171062D01*
X0122029Y0170973D01*
X0122042Y0170884D01*
X0122058Y0170796D01*
X0122079Y0170708D01*
X0122103Y0170622D01*
X0122130Y0170536D01*
X0122161Y0170452D01*
X0122196Y0170369D01*
X0122234Y0170288D01*
X0122275Y0170208D01*
X0122319Y0170131D01*
X0122367Y0170055D01*
X0122418Y0169981D01*
X0122472Y0169909D01*
X0122529Y0169840D01*
X0122588Y0169772D01*
X0122651Y0169708D01*
X0123928Y0171752D02*
X0123894Y0171806D01*
X0123857Y0171857D01*
X0123817Y0171906D01*
X0123774Y0171953D01*
X0123728Y0171996D01*
X0123680Y0172037D01*
X0123629Y0172075D01*
X0123576Y0172110D01*
X0123521Y0172142D01*
X0123464Y0172170D01*
X0123406Y0172194D01*
X0123346Y0172215D01*
X0123285Y0172232D01*
X0123223Y0172246D01*
X0123160Y0172255D01*
X0123097Y0172261D01*
X0123034Y0172263D01*
X0122972Y0172261D01*
X0122911Y0172256D01*
X0122850Y0172246D01*
X0122789Y0172233D01*
X0122730Y0172217D01*
X0122672Y0172197D01*
X0122615Y0172173D01*
X0122559Y0172146D01*
X0122505Y0172116D01*
X0122453Y0172082D01*
X0122404Y0172046D01*
X0122356Y0172006D01*
X0122311Y0171964D01*
X0122269Y0171919D01*
X0122229Y0171871D01*
X0122193Y0171822D01*
X0122159Y0171770D01*
X0122129Y0171716D01*
X0122102Y0171660D01*
X0122078Y0171603D01*
X0122058Y0171545D01*
X0122042Y0171486D01*
X0122029Y0171425D01*
X0122019Y0171364D01*
X0122014Y0171303D01*
X0122012Y0171241D01*
X0122778Y0174143D02*
X0126612Y0174143D01*
X0125078Y0173632D02*
X0125078Y0175165D01*
X0125078Y0177095D02*
X0125078Y0178117D01*
X0125079Y0178117D02*
X0125077Y0178172D01*
X0125071Y0178226D01*
X0125061Y0178280D01*
X0125048Y0178333D01*
X0125031Y0178385D01*
X0125010Y0178436D01*
X0124985Y0178485D01*
X0124957Y0178532D01*
X0124926Y0178577D01*
X0124892Y0178619D01*
X0124854Y0178659D01*
X0124814Y0178697D01*
X0124772Y0178731D01*
X0124727Y0178762D01*
X0124680Y0178790D01*
X0124631Y0178815D01*
X0124580Y0178836D01*
X0124528Y0178853D01*
X0124475Y0178866D01*
X0124421Y0178876D01*
X0124367Y0178882D01*
X0124312Y0178884D01*
X0122012Y0178884D01*
X0122012Y0177734D01*
X0122014Y0177676D01*
X0122020Y0177617D01*
X0122029Y0177560D01*
X0122042Y0177503D01*
X0122059Y0177447D01*
X0122080Y0177392D01*
X0122104Y0177339D01*
X0122132Y0177287D01*
X0122163Y0177237D01*
X0122197Y0177190D01*
X0122234Y0177145D01*
X0122274Y0177102D01*
X0122317Y0177062D01*
X0122362Y0177025D01*
X0122409Y0176991D01*
X0122459Y0176960D01*
X0122511Y0176932D01*
X0122564Y0176908D01*
X0122619Y0176887D01*
X0122675Y0176870D01*
X0122732Y0176857D01*
X0122789Y0176848D01*
X0122848Y0176842D01*
X0122906Y0176840D01*
X0122964Y0176842D01*
X0123023Y0176848D01*
X0123080Y0176857D01*
X0123137Y0176870D01*
X0123193Y0176887D01*
X0123248Y0176908D01*
X0123301Y0176932D01*
X0123353Y0176960D01*
X0123403Y0176991D01*
X0123450Y0177025D01*
X0123495Y0177062D01*
X0123538Y0177102D01*
X0123578Y0177145D01*
X0123615Y0177190D01*
X0123649Y0177237D01*
X0123680Y0177287D01*
X0123708Y0177339D01*
X0123732Y0177392D01*
X0123753Y0177447D01*
X0123770Y0177503D01*
X0123783Y0177560D01*
X0123792Y0177617D01*
X0123798Y0177676D01*
X0123800Y0177734D01*
X0123801Y0177734D02*
X0123801Y0178884D01*
X0124312Y0180890D02*
X0122778Y0180890D01*
X0122778Y0180889D02*
X0122723Y0180891D01*
X0122669Y0180897D01*
X0122615Y0180907D01*
X0122562Y0180920D01*
X0122510Y0180937D01*
X0122459Y0180958D01*
X0122410Y0180983D01*
X0122363Y0181011D01*
X0122318Y0181042D01*
X0122276Y0181076D01*
X0122236Y0181114D01*
X0122198Y0181154D01*
X0122164Y0181196D01*
X0122133Y0181241D01*
X0122105Y0181288D01*
X0122080Y0181337D01*
X0122059Y0181388D01*
X0122042Y0181440D01*
X0122029Y0181493D01*
X0122019Y0181547D01*
X0122013Y0181601D01*
X0122011Y0181656D01*
X0122012Y0181656D02*
X0122012Y0182934D01*
X0126612Y0182934D01*
X0125078Y0182934D02*
X0125078Y0181656D01*
X0125079Y0181656D02*
X0125077Y0181601D01*
X0125071Y0181547D01*
X0125061Y0181493D01*
X0125048Y0181440D01*
X0125031Y0181388D01*
X0125010Y0181337D01*
X0124985Y0181288D01*
X0124957Y0181241D01*
X0124926Y0181196D01*
X0124892Y0181154D01*
X0124854Y0181114D01*
X0124814Y0181076D01*
X0124772Y0181042D01*
X0124727Y0181011D01*
X0124680Y0180983D01*
X0124631Y0180958D01*
X0124580Y0180937D01*
X0124528Y0180920D01*
X0124475Y0180907D01*
X0124421Y0180897D01*
X0124367Y0180891D01*
X0124312Y0180889D01*
X0125078Y0185113D02*
X0125078Y0186391D01*
X0125079Y0186391D02*
X0125077Y0186446D01*
X0125071Y0186500D01*
X0125061Y0186554D01*
X0125048Y0186607D01*
X0125031Y0186659D01*
X0125010Y0186710D01*
X0124985Y0186759D01*
X0124957Y0186806D01*
X0124926Y0186851D01*
X0124892Y0186893D01*
X0124854Y0186933D01*
X0124814Y0186971D01*
X0124772Y0187005D01*
X0124727Y0187036D01*
X0124680Y0187064D01*
X0124631Y0187089D01*
X0124580Y0187110D01*
X0124528Y0187127D01*
X0124475Y0187140D01*
X0124421Y0187150D01*
X0124367Y0187156D01*
X0124312Y0187158D01*
X0124312Y0187157D02*
X0122012Y0187157D01*
X0122012Y0185113D02*
X0125078Y0185113D01*
X0125078Y0189013D02*
X0122012Y0190035D01*
X0120478Y0189524D02*
X0125078Y0191057D01*
X0123545Y0192966D02*
X0125078Y0195011D01*
X0124184Y0193861D02*
X0122012Y0195011D01*
X0122012Y0192966D02*
X0126612Y0192966D01*
X0120478Y0189524D02*
X0120478Y0189013D01*
X0117578Y0190838D02*
X0117578Y0192371D01*
X0117067Y0192371D01*
X0117578Y0190838D02*
X0114512Y0190838D01*
X0114512Y0188806D02*
X0114512Y0187528D01*
X0114511Y0187528D02*
X0114513Y0187473D01*
X0114519Y0187419D01*
X0114529Y0187365D01*
X0114542Y0187312D01*
X0114559Y0187260D01*
X0114580Y0187209D01*
X0114605Y0187160D01*
X0114633Y0187113D01*
X0114664Y0187068D01*
X0114698Y0187026D01*
X0114736Y0186986D01*
X0114776Y0186948D01*
X0114818Y0186914D01*
X0114863Y0186883D01*
X0114910Y0186855D01*
X0114959Y0186830D01*
X0115010Y0186809D01*
X0115062Y0186792D01*
X0115115Y0186779D01*
X0115169Y0186769D01*
X0115223Y0186763D01*
X0115278Y0186761D01*
X0116556Y0186761D01*
X0116045Y0186761D02*
X0116045Y0188806D01*
X0116556Y0188806D01*
X0116619Y0188804D01*
X0116682Y0188798D01*
X0116744Y0188789D01*
X0116805Y0188775D01*
X0116866Y0188758D01*
X0116925Y0188737D01*
X0116983Y0188712D01*
X0117040Y0188684D01*
X0117094Y0188653D01*
X0117146Y0188618D01*
X0117197Y0188580D01*
X0117245Y0188539D01*
X0117290Y0188495D01*
X0117332Y0188449D01*
X0117372Y0188400D01*
X0117408Y0188349D01*
X0117441Y0188295D01*
X0117471Y0188240D01*
X0117497Y0188182D01*
X0117520Y0188124D01*
X0117539Y0188064D01*
X0117554Y0188003D01*
X0117566Y0187941D01*
X0117574Y0187878D01*
X0117578Y0187815D01*
X0117578Y0187753D01*
X0117574Y0187690D01*
X0117566Y0187627D01*
X0117554Y0187565D01*
X0117539Y0187504D01*
X0117520Y0187444D01*
X0117497Y0187386D01*
X0117471Y0187328D01*
X0117441Y0187273D01*
X0117408Y0187219D01*
X0117372Y0187168D01*
X0117332Y0187119D01*
X0117290Y0187073D01*
X0117245Y0187029D01*
X0117197Y0186988D01*
X0117146Y0186950D01*
X0117094Y0186915D01*
X0117040Y0186884D01*
X0116983Y0186856D01*
X0116925Y0186831D01*
X0116866Y0186810D01*
X0116805Y0186793D01*
X0116744Y0186779D01*
X0116682Y0186770D01*
X0116619Y0186764D01*
X0116556Y0186762D01*
X0117578Y0185056D02*
X0114512Y0183011D01*
X0114512Y0185056D01*
X0114512Y0181464D02*
X0114512Y0181208D01*
X0114511Y0181208D02*
X0114513Y0181153D01*
X0114519Y0181099D01*
X0114529Y0181045D01*
X0114542Y0180992D01*
X0114559Y0180940D01*
X0114580Y0180889D01*
X0114605Y0180840D01*
X0114633Y0180793D01*
X0114664Y0180748D01*
X0114698Y0180706D01*
X0114736Y0180666D01*
X0114776Y0180628D01*
X0114818Y0180594D01*
X0114863Y0180563D01*
X0114910Y0180535D01*
X0114959Y0180510D01*
X0115010Y0180489D01*
X0115062Y0180472D01*
X0115115Y0180459D01*
X0115169Y0180449D01*
X0115223Y0180443D01*
X0115278Y0180441D01*
X0115278Y0180442D02*
X0119112Y0180442D01*
X0117578Y0179931D02*
X0117578Y0181464D01*
X0117578Y0183011D02*
X0117578Y0185056D01*
X0117578Y0178306D02*
X0114512Y0178306D01*
X0114512Y0177028D01*
X0114511Y0177028D02*
X0114513Y0176973D01*
X0114519Y0176919D01*
X0114529Y0176865D01*
X0114542Y0176812D01*
X0114559Y0176760D01*
X0114580Y0176709D01*
X0114605Y0176660D01*
X0114633Y0176613D01*
X0114664Y0176568D01*
X0114698Y0176526D01*
X0114736Y0176486D01*
X0114776Y0176448D01*
X0114818Y0176414D01*
X0114863Y0176383D01*
X0114910Y0176355D01*
X0114959Y0176330D01*
X0115010Y0176309D01*
X0115062Y0176292D01*
X0115115Y0176279D01*
X0115169Y0176269D01*
X0115223Y0176263D01*
X0115278Y0176261D01*
X0115278Y0176262D02*
X0117578Y0176262D01*
X0114512Y0174459D02*
X0114512Y0172415D01*
X0119112Y0172415D01*
X0122012Y0174910D02*
X0122012Y0175165D01*
X0122011Y0174910D02*
X0122013Y0174855D01*
X0122019Y0174801D01*
X0122029Y0174747D01*
X0122042Y0174694D01*
X0122059Y0174642D01*
X0122080Y0174591D01*
X0122105Y0174542D01*
X0122133Y0174495D01*
X0122164Y0174450D01*
X0122198Y0174408D01*
X0122236Y0174368D01*
X0122276Y0174330D01*
X0122318Y0174296D01*
X0122363Y0174265D01*
X0122410Y0174237D01*
X0122459Y0174212D01*
X0122510Y0174191D01*
X0122562Y0174174D01*
X0122615Y0174161D01*
X0122669Y0174151D01*
X0122723Y0174145D01*
X0122778Y0174143D01*
X0126229Y0172007D02*
X0126277Y0171940D01*
X0126322Y0171872D01*
X0126364Y0171801D01*
X0126402Y0171728D01*
X0126438Y0171654D01*
X0126471Y0171579D01*
X0126500Y0171502D01*
X0126526Y0171424D01*
X0126549Y0171345D01*
X0126568Y0171265D01*
X0126584Y0171184D01*
X0126596Y0171103D01*
X0126605Y0171021D01*
X0126610Y0170939D01*
X0126612Y0170857D01*
X0126610Y0170795D01*
X0126605Y0170734D01*
X0126595Y0170673D01*
X0126582Y0170612D01*
X0126566Y0170553D01*
X0126546Y0170495D01*
X0126522Y0170438D01*
X0126495Y0170382D01*
X0126465Y0170328D01*
X0126431Y0170276D01*
X0126395Y0170227D01*
X0126355Y0170179D01*
X0126313Y0170134D01*
X0126268Y0170092D01*
X0126220Y0170053D01*
X0126171Y0170016D01*
X0126119Y0169982D01*
X0126065Y0169952D01*
X0126009Y0169925D01*
X0125952Y0169901D01*
X0125894Y0169881D01*
X0125835Y0169865D01*
X0125774Y0169852D01*
X0125713Y0169842D01*
X0125652Y0169837D01*
X0125590Y0169835D01*
X0125527Y0169837D01*
X0125464Y0169843D01*
X0125401Y0169852D01*
X0125339Y0169866D01*
X0125278Y0169883D01*
X0125218Y0169904D01*
X0125160Y0169928D01*
X0125103Y0169956D01*
X0125048Y0169988D01*
X0124995Y0170023D01*
X0124944Y0170061D01*
X0124896Y0170102D01*
X0124850Y0170145D01*
X0124807Y0170192D01*
X0124767Y0170241D01*
X0124730Y0170292D01*
X0124696Y0170346D01*
X0052976Y0157867D02*
X0052934Y0157990D01*
X0052895Y0158115D01*
X0052860Y0158240D01*
X0052829Y0158367D01*
X0052802Y0158495D01*
X0052779Y0158623D01*
X0052759Y0158752D01*
X0052744Y0158882D01*
X0052732Y0159011D01*
X0052724Y0159142D01*
X0052720Y0159272D01*
X0052720Y0159273D02*
X0052721Y0159324D01*
X0052726Y0159374D01*
X0052736Y0159425D01*
X0052748Y0159474D01*
X0052765Y0159522D01*
X0052786Y0159569D01*
X0052809Y0159615D01*
X0052837Y0159658D01*
X0052867Y0159699D01*
X0052901Y0159737D01*
X0052937Y0159773D01*
X0052977Y0159806D01*
X0053018Y0159836D01*
X0053062Y0159862D01*
X0053107Y0159885D01*
X0053155Y0159904D01*
X0053203Y0159920D01*
X0053253Y0159932D01*
X0053303Y0159940D01*
X0053354Y0159944D01*
X0053405Y0159945D01*
X0053456Y0159941D01*
X0053507Y0159933D01*
X0053557Y0159922D01*
X0053606Y0159907D01*
X0053653Y0159888D01*
X0053699Y0159865D01*
X0053743Y0159839D01*
X0053785Y0159810D01*
X0053824Y0159777D01*
X0053861Y0159742D01*
X0053895Y0159703D01*
X0053926Y0159663D01*
X0053953Y0159620D01*
X0053978Y0159575D01*
X0053999Y0159528D01*
X0053998Y0159528D02*
X0054509Y0158250D01*
X0054530Y0158203D01*
X0054555Y0158158D01*
X0054582Y0158115D01*
X0054613Y0158075D01*
X0054647Y0158036D01*
X0054684Y0158001D01*
X0054723Y0157968D01*
X0054765Y0157939D01*
X0054809Y0157913D01*
X0054855Y0157890D01*
X0054902Y0157871D01*
X0054951Y0157856D01*
X0055001Y0157845D01*
X0055052Y0157837D01*
X0055103Y0157833D01*
X0055154Y0157834D01*
X0055205Y0157838D01*
X0055255Y0157846D01*
X0055305Y0157858D01*
X0055353Y0157874D01*
X0055401Y0157893D01*
X0055446Y0157916D01*
X0055490Y0157942D01*
X0055531Y0157972D01*
X0055571Y0158005D01*
X0055607Y0158041D01*
X0055641Y0158079D01*
X0055671Y0158120D01*
X0055699Y0158163D01*
X0055722Y0158209D01*
X0055743Y0158256D01*
X0055760Y0158304D01*
X0055772Y0158353D01*
X0055782Y0158404D01*
X0055787Y0158454D01*
X0055788Y0158505D01*
X0055787Y0156161D02*
X0051187Y0154628D01*
X0051187Y0154117D01*
X0052720Y0155139D02*
X0055787Y0154117D01*
X0054765Y0152411D02*
X0053743Y0152411D01*
X0053680Y0152409D01*
X0053617Y0152403D01*
X0053555Y0152394D01*
X0053494Y0152380D01*
X0053433Y0152363D01*
X0053374Y0152342D01*
X0053316Y0152317D01*
X0053259Y0152289D01*
X0053205Y0152258D01*
X0053153Y0152223D01*
X0053102Y0152185D01*
X0053054Y0152144D01*
X0053009Y0152100D01*
X0052967Y0152054D01*
X0052927Y0152005D01*
X0052891Y0151954D01*
X0052858Y0151900D01*
X0052828Y0151845D01*
X0052802Y0151787D01*
X0052779Y0151729D01*
X0052760Y0151669D01*
X0052745Y0151608D01*
X0052733Y0151546D01*
X0052725Y0151483D01*
X0052721Y0151420D01*
X0052721Y0151358D01*
X0052725Y0151295D01*
X0052733Y0151232D01*
X0052745Y0151170D01*
X0052760Y0151109D01*
X0052779Y0151049D01*
X0052802Y0150991D01*
X0052828Y0150933D01*
X0052858Y0150878D01*
X0052891Y0150824D01*
X0052927Y0150773D01*
X0052967Y0150724D01*
X0053009Y0150678D01*
X0053054Y0150634D01*
X0053102Y0150593D01*
X0053153Y0150555D01*
X0053205Y0150520D01*
X0053259Y0150489D01*
X0053316Y0150461D01*
X0053374Y0150436D01*
X0053433Y0150415D01*
X0053494Y0150398D01*
X0053555Y0150384D01*
X0053617Y0150375D01*
X0053680Y0150369D01*
X0053743Y0150367D01*
X0054765Y0150367D01*
X0054828Y0150369D01*
X0054891Y0150375D01*
X0054953Y0150384D01*
X0055014Y0150398D01*
X0055075Y0150415D01*
X0055134Y0150436D01*
X0055192Y0150461D01*
X0055249Y0150489D01*
X0055303Y0150520D01*
X0055355Y0150555D01*
X0055406Y0150593D01*
X0055454Y0150634D01*
X0055499Y0150678D01*
X0055541Y0150724D01*
X0055581Y0150773D01*
X0055617Y0150824D01*
X0055650Y0150878D01*
X0055680Y0150933D01*
X0055706Y0150991D01*
X0055729Y0151049D01*
X0055748Y0151109D01*
X0055763Y0151170D01*
X0055775Y0151232D01*
X0055783Y0151295D01*
X0055787Y0151358D01*
X0055787Y0151420D01*
X0055783Y0151483D01*
X0055775Y0151546D01*
X0055763Y0151608D01*
X0055748Y0151669D01*
X0055729Y0151729D01*
X0055706Y0151787D01*
X0055680Y0151845D01*
X0055650Y0151900D01*
X0055617Y0151954D01*
X0055581Y0152005D01*
X0055541Y0152054D01*
X0055499Y0152100D01*
X0055454Y0152144D01*
X0055406Y0152185D01*
X0055355Y0152223D01*
X0055303Y0152258D01*
X0055249Y0152289D01*
X0055192Y0152317D01*
X0055134Y0152342D01*
X0055075Y0152363D01*
X0055014Y0152380D01*
X0054953Y0152394D01*
X0054891Y0152403D01*
X0054828Y0152409D01*
X0054765Y0152411D01*
X0055276Y0147406D02*
X0055276Y0146128D01*
X0055276Y0147406D02*
X0055278Y0147469D01*
X0055284Y0147532D01*
X0055293Y0147594D01*
X0055307Y0147655D01*
X0055324Y0147716D01*
X0055345Y0147775D01*
X0055370Y0147833D01*
X0055398Y0147890D01*
X0055429Y0147944D01*
X0055464Y0147996D01*
X0055502Y0148047D01*
X0055543Y0148095D01*
X0055587Y0148140D01*
X0055633Y0148182D01*
X0055682Y0148222D01*
X0055733Y0148258D01*
X0055787Y0148291D01*
X0055842Y0148321D01*
X0055900Y0148347D01*
X0055958Y0148370D01*
X0056018Y0148389D01*
X0056079Y0148404D01*
X0056141Y0148416D01*
X0056204Y0148424D01*
X0056267Y0148428D01*
X0056329Y0148428D01*
X0056392Y0148424D01*
X0056455Y0148416D01*
X0056517Y0148404D01*
X0056578Y0148389D01*
X0056638Y0148370D01*
X0056696Y0148347D01*
X0056754Y0148321D01*
X0056809Y0148291D01*
X0056863Y0148258D01*
X0056914Y0148222D01*
X0056963Y0148182D01*
X0057009Y0148140D01*
X0057053Y0148095D01*
X0057094Y0148047D01*
X0057132Y0147996D01*
X0057167Y0147944D01*
X0057198Y0147890D01*
X0057226Y0147833D01*
X0057251Y0147775D01*
X0057272Y0147716D01*
X0057289Y0147655D01*
X0057303Y0147594D01*
X0057312Y0147532D01*
X0057318Y0147469D01*
X0057320Y0147406D01*
X0057320Y0146128D01*
X0052720Y0146128D01*
X0052720Y0147406D01*
X0052722Y0147476D01*
X0052728Y0147547D01*
X0052737Y0147616D01*
X0052751Y0147685D01*
X0052768Y0147754D01*
X0052789Y0147821D01*
X0052814Y0147887D01*
X0052842Y0147951D01*
X0052874Y0148014D01*
X0052909Y0148075D01*
X0052948Y0148134D01*
X0052989Y0148191D01*
X0053034Y0148245D01*
X0053082Y0148297D01*
X0053132Y0148346D01*
X0053186Y0148393D01*
X0053241Y0148436D01*
X0053299Y0148476D01*
X0053359Y0148513D01*
X0053421Y0148546D01*
X0053485Y0148576D01*
X0053550Y0148603D01*
X0053616Y0148626D01*
X0053684Y0148645D01*
X0053753Y0148660D01*
X0053822Y0148672D01*
X0053892Y0148680D01*
X0053963Y0148684D01*
X0054033Y0148684D01*
X0054104Y0148680D01*
X0054174Y0148672D01*
X0054243Y0148660D01*
X0054312Y0148645D01*
X0054380Y0148626D01*
X0054446Y0148603D01*
X0054511Y0148576D01*
X0054575Y0148546D01*
X0054637Y0148513D01*
X0054697Y0148476D01*
X0054755Y0148436D01*
X0054810Y0148393D01*
X0054864Y0148346D01*
X0054914Y0148297D01*
X0054962Y0148245D01*
X0055007Y0148191D01*
X0055048Y0148134D01*
X0055087Y0148075D01*
X0055122Y0148014D01*
X0055154Y0147951D01*
X0055182Y0147887D01*
X0055207Y0147821D01*
X0055228Y0147754D01*
X0055245Y0147685D01*
X0055259Y0147616D01*
X0055268Y0147547D01*
X0055274Y0147476D01*
X0055276Y0147406D01*
X0054509Y0143922D02*
X0054509Y0140856D01*
X0055276Y0138604D02*
X0055276Y0137070D01*
X0057320Y0137070D02*
X0057320Y0139115D01*
X0057320Y0137070D02*
X0052720Y0137070D01*
X0052720Y0139115D01*
X0045476Y0138599D02*
X0045434Y0138722D01*
X0045395Y0138847D01*
X0045360Y0138972D01*
X0045329Y0139099D01*
X0045302Y0139227D01*
X0045279Y0139355D01*
X0045259Y0139484D01*
X0045244Y0139614D01*
X0045232Y0139743D01*
X0045224Y0139874D01*
X0045220Y0140004D01*
X0045220Y0140005D02*
X0045221Y0140056D01*
X0045226Y0140106D01*
X0045236Y0140157D01*
X0045248Y0140206D01*
X0045265Y0140254D01*
X0045286Y0140301D01*
X0045309Y0140347D01*
X0045337Y0140390D01*
X0045367Y0140431D01*
X0045401Y0140469D01*
X0045437Y0140505D01*
X0045477Y0140538D01*
X0045518Y0140568D01*
X0045562Y0140594D01*
X0045607Y0140617D01*
X0045655Y0140636D01*
X0045703Y0140652D01*
X0045753Y0140664D01*
X0045803Y0140672D01*
X0045854Y0140676D01*
X0045905Y0140677D01*
X0045956Y0140673D01*
X0046007Y0140665D01*
X0046057Y0140654D01*
X0046106Y0140639D01*
X0046153Y0140620D01*
X0046199Y0140597D01*
X0046243Y0140571D01*
X0046285Y0140542D01*
X0046324Y0140509D01*
X0046361Y0140474D01*
X0046395Y0140435D01*
X0046426Y0140395D01*
X0046453Y0140352D01*
X0046478Y0140307D01*
X0046499Y0140260D01*
X0046498Y0140260D02*
X0047009Y0138982D01*
X0047030Y0138935D01*
X0047055Y0138890D01*
X0047082Y0138847D01*
X0047113Y0138807D01*
X0047147Y0138768D01*
X0047184Y0138733D01*
X0047223Y0138700D01*
X0047265Y0138671D01*
X0047309Y0138645D01*
X0047355Y0138622D01*
X0047402Y0138603D01*
X0047451Y0138588D01*
X0047501Y0138577D01*
X0047552Y0138569D01*
X0047603Y0138565D01*
X0047654Y0138566D01*
X0047705Y0138570D01*
X0047755Y0138578D01*
X0047805Y0138590D01*
X0047853Y0138606D01*
X0047901Y0138625D01*
X0047946Y0138648D01*
X0047990Y0138674D01*
X0048031Y0138704D01*
X0048071Y0138737D01*
X0048107Y0138773D01*
X0048141Y0138811D01*
X0048171Y0138852D01*
X0048199Y0138895D01*
X0048222Y0138941D01*
X0048243Y0138988D01*
X0048260Y0139036D01*
X0048272Y0139085D01*
X0048282Y0139136D01*
X0048287Y0139186D01*
X0048288Y0139237D01*
X0047520Y0136766D02*
X0045987Y0136766D01*
X0045987Y0136767D02*
X0045932Y0136765D01*
X0045878Y0136759D01*
X0045824Y0136749D01*
X0045771Y0136736D01*
X0045719Y0136719D01*
X0045668Y0136698D01*
X0045619Y0136673D01*
X0045572Y0136645D01*
X0045527Y0136614D01*
X0045485Y0136580D01*
X0045445Y0136542D01*
X0045407Y0136502D01*
X0045373Y0136460D01*
X0045342Y0136415D01*
X0045314Y0136368D01*
X0045289Y0136319D01*
X0045268Y0136268D01*
X0045251Y0136216D01*
X0045238Y0136163D01*
X0045228Y0136109D01*
X0045222Y0136055D01*
X0045220Y0136000D01*
X0045220Y0134722D01*
X0043687Y0134722D02*
X0048287Y0134722D01*
X0048287Y0136000D01*
X0048285Y0136055D01*
X0048279Y0136109D01*
X0048269Y0136163D01*
X0048256Y0136216D01*
X0048239Y0136268D01*
X0048218Y0136319D01*
X0048193Y0136368D01*
X0048165Y0136415D01*
X0048134Y0136460D01*
X0048100Y0136502D01*
X0048062Y0136542D01*
X0048022Y0136580D01*
X0047980Y0136614D01*
X0047935Y0136645D01*
X0047888Y0136673D01*
X0047839Y0136698D01*
X0047788Y0136719D01*
X0047736Y0136736D01*
X0047683Y0136749D01*
X0047629Y0136759D01*
X0047575Y0136765D01*
X0047520Y0136767D01*
X0048287Y0139237D02*
X0048284Y0139336D01*
X0048277Y0139435D01*
X0048267Y0139533D01*
X0048254Y0139631D01*
X0048238Y0139729D01*
X0048218Y0139826D01*
X0048195Y0139922D01*
X0048168Y0140017D01*
X0048139Y0140111D01*
X0048106Y0140204D01*
X0048070Y0140297D01*
X0048031Y0140387D01*
X0048287Y0142118D02*
X0048287Y0143651D01*
X0049820Y0142629D02*
X0045987Y0142629D01*
X0045987Y0142628D02*
X0045932Y0142630D01*
X0045878Y0142636D01*
X0045824Y0142646D01*
X0045771Y0142659D01*
X0045719Y0142676D01*
X0045668Y0142697D01*
X0045619Y0142722D01*
X0045572Y0142750D01*
X0045527Y0142781D01*
X0045485Y0142815D01*
X0045445Y0142853D01*
X0045407Y0142893D01*
X0045373Y0142935D01*
X0045342Y0142980D01*
X0045314Y0143027D01*
X0045289Y0143076D01*
X0045268Y0143127D01*
X0045251Y0143179D01*
X0045238Y0143232D01*
X0045228Y0143286D01*
X0045222Y0143340D01*
X0045220Y0143395D01*
X0045220Y0143651D01*
X0046243Y0145349D02*
X0047265Y0145349D01*
X0047328Y0145351D01*
X0047391Y0145357D01*
X0047453Y0145366D01*
X0047514Y0145380D01*
X0047575Y0145397D01*
X0047634Y0145418D01*
X0047692Y0145443D01*
X0047749Y0145471D01*
X0047803Y0145502D01*
X0047855Y0145537D01*
X0047906Y0145575D01*
X0047954Y0145616D01*
X0047999Y0145660D01*
X0048041Y0145706D01*
X0048081Y0145755D01*
X0048117Y0145806D01*
X0048150Y0145860D01*
X0048180Y0145915D01*
X0048206Y0145973D01*
X0048229Y0146031D01*
X0048248Y0146091D01*
X0048263Y0146152D01*
X0048275Y0146214D01*
X0048283Y0146277D01*
X0048287Y0146340D01*
X0048287Y0146402D01*
X0048283Y0146465D01*
X0048275Y0146528D01*
X0048263Y0146590D01*
X0048248Y0146651D01*
X0048229Y0146711D01*
X0048206Y0146769D01*
X0048180Y0146827D01*
X0048150Y0146882D01*
X0048117Y0146936D01*
X0048081Y0146987D01*
X0048041Y0147036D01*
X0047999Y0147082D01*
X0047954Y0147126D01*
X0047906Y0147167D01*
X0047855Y0147205D01*
X0047803Y0147240D01*
X0047749Y0147271D01*
X0047692Y0147299D01*
X0047634Y0147324D01*
X0047575Y0147345D01*
X0047514Y0147362D01*
X0047453Y0147376D01*
X0047391Y0147385D01*
X0047328Y0147391D01*
X0047265Y0147393D01*
X0046243Y0147393D01*
X0046180Y0147391D01*
X0046117Y0147385D01*
X0046055Y0147376D01*
X0045994Y0147362D01*
X0045933Y0147345D01*
X0045874Y0147324D01*
X0045816Y0147299D01*
X0045759Y0147271D01*
X0045705Y0147240D01*
X0045653Y0147205D01*
X0045602Y0147167D01*
X0045554Y0147126D01*
X0045509Y0147082D01*
X0045467Y0147036D01*
X0045427Y0146987D01*
X0045391Y0146936D01*
X0045358Y0146882D01*
X0045328Y0146827D01*
X0045302Y0146769D01*
X0045279Y0146711D01*
X0045260Y0146651D01*
X0045245Y0146590D01*
X0045233Y0146528D01*
X0045225Y0146465D01*
X0045221Y0146402D01*
X0045221Y0146340D01*
X0045225Y0146277D01*
X0045233Y0146214D01*
X0045245Y0146152D01*
X0045260Y0146091D01*
X0045279Y0146031D01*
X0045302Y0145973D01*
X0045328Y0145915D01*
X0045358Y0145860D01*
X0045391Y0145806D01*
X0045427Y0145755D01*
X0045467Y0145706D01*
X0045509Y0145660D01*
X0045554Y0145616D01*
X0045602Y0145575D01*
X0045653Y0145537D01*
X0045705Y0145502D01*
X0045759Y0145471D01*
X0045816Y0145443D01*
X0045874Y0145418D01*
X0045933Y0145397D01*
X0045994Y0145380D01*
X0046055Y0145366D01*
X0046117Y0145357D01*
X0046180Y0145351D01*
X0046243Y0145349D01*
X0045220Y0149399D02*
X0048287Y0149399D01*
X0048287Y0150676D01*
X0048285Y0150731D01*
X0048279Y0150785D01*
X0048269Y0150839D01*
X0048256Y0150892D01*
X0048239Y0150944D01*
X0048218Y0150995D01*
X0048193Y0151044D01*
X0048165Y0151091D01*
X0048134Y0151136D01*
X0048100Y0151178D01*
X0048062Y0151218D01*
X0048022Y0151256D01*
X0047980Y0151290D01*
X0047935Y0151321D01*
X0047888Y0151349D01*
X0047839Y0151374D01*
X0047788Y0151395D01*
X0047736Y0151412D01*
X0047683Y0151425D01*
X0047629Y0151435D01*
X0047575Y0151441D01*
X0047520Y0151443D01*
X0045220Y0151443D01*
X0045987Y0153449D02*
X0047265Y0153449D01*
X0046754Y0153449D02*
X0046754Y0155493D01*
X0047265Y0155493D01*
X0047328Y0155491D01*
X0047391Y0155485D01*
X0047453Y0155476D01*
X0047514Y0155462D01*
X0047575Y0155445D01*
X0047634Y0155424D01*
X0047692Y0155399D01*
X0047749Y0155371D01*
X0047803Y0155340D01*
X0047855Y0155305D01*
X0047906Y0155267D01*
X0047954Y0155226D01*
X0047999Y0155182D01*
X0048041Y0155136D01*
X0048081Y0155087D01*
X0048117Y0155036D01*
X0048150Y0154982D01*
X0048180Y0154927D01*
X0048206Y0154869D01*
X0048229Y0154811D01*
X0048248Y0154751D01*
X0048263Y0154690D01*
X0048275Y0154628D01*
X0048283Y0154565D01*
X0048287Y0154502D01*
X0048287Y0154440D01*
X0048283Y0154377D01*
X0048275Y0154314D01*
X0048263Y0154252D01*
X0048248Y0154191D01*
X0048229Y0154131D01*
X0048206Y0154073D01*
X0048180Y0154015D01*
X0048150Y0153960D01*
X0048117Y0153906D01*
X0048081Y0153855D01*
X0048041Y0153806D01*
X0047999Y0153760D01*
X0047954Y0153716D01*
X0047906Y0153675D01*
X0047855Y0153637D01*
X0047803Y0153602D01*
X0047749Y0153571D01*
X0047692Y0153543D01*
X0047634Y0153518D01*
X0047575Y0153497D01*
X0047514Y0153480D01*
X0047453Y0153466D01*
X0047391Y0153457D01*
X0047328Y0153451D01*
X0047265Y0153449D01*
X0045987Y0153448D02*
X0045932Y0153450D01*
X0045878Y0153456D01*
X0045824Y0153466D01*
X0045771Y0153479D01*
X0045719Y0153496D01*
X0045668Y0153517D01*
X0045619Y0153542D01*
X0045572Y0153570D01*
X0045527Y0153601D01*
X0045485Y0153635D01*
X0045445Y0153673D01*
X0045407Y0153713D01*
X0045373Y0153755D01*
X0045342Y0153800D01*
X0045314Y0153847D01*
X0045289Y0153896D01*
X0045268Y0153947D01*
X0045251Y0153999D01*
X0045238Y0154052D01*
X0045228Y0154106D01*
X0045222Y0154160D01*
X0045220Y0154215D01*
X0045220Y0155493D01*
X0045220Y0159793D02*
X0045220Y0162349D01*
X0045859Y0166466D02*
X0045963Y0166514D01*
X0046068Y0166560D01*
X0046174Y0166602D01*
X0046282Y0166641D01*
X0046391Y0166677D01*
X0046501Y0166709D01*
X0046612Y0166739D01*
X0046724Y0166764D01*
X0046836Y0166787D01*
X0046949Y0166806D01*
X0047063Y0166821D01*
X0047177Y0166833D01*
X0047291Y0166842D01*
X0047405Y0166847D01*
X0047520Y0166849D01*
X0047520Y0164293D02*
X0047635Y0164295D01*
X0047749Y0164300D01*
X0047863Y0164309D01*
X0047977Y0164321D01*
X0048091Y0164336D01*
X0048204Y0164355D01*
X0048316Y0164378D01*
X0048428Y0164403D01*
X0048539Y0164433D01*
X0048649Y0164465D01*
X0048758Y0164501D01*
X0048866Y0164540D01*
X0048972Y0164582D01*
X0049077Y0164628D01*
X0049181Y0164676D01*
X0049821Y0165571D02*
X0049819Y0165630D01*
X0049814Y0165688D01*
X0049805Y0165746D01*
X0049792Y0165803D01*
X0049776Y0165860D01*
X0049756Y0165915D01*
X0049733Y0165969D01*
X0049707Y0166021D01*
X0049677Y0166072D01*
X0049645Y0166121D01*
X0049609Y0166168D01*
X0049571Y0166212D01*
X0049530Y0166254D01*
X0049486Y0166293D01*
X0049440Y0166330D01*
X0049392Y0166363D01*
X0049342Y0166394D01*
X0049290Y0166421D01*
X0049237Y0166445D01*
X0049182Y0166466D01*
X0048798Y0166593D02*
X0046243Y0164549D01*
X0045220Y0165571D02*
X0045222Y0165630D01*
X0045227Y0165688D01*
X0045236Y0165746D01*
X0045249Y0165803D01*
X0045265Y0165860D01*
X0045285Y0165915D01*
X0045308Y0165969D01*
X0045334Y0166021D01*
X0045364Y0166072D01*
X0045396Y0166121D01*
X0045432Y0166168D01*
X0045470Y0166212D01*
X0045511Y0166254D01*
X0045555Y0166293D01*
X0045601Y0166330D01*
X0045649Y0166363D01*
X0045699Y0166394D01*
X0045751Y0166421D01*
X0045804Y0166445D01*
X0045859Y0166466D01*
X0045220Y0165571D02*
X0045222Y0165512D01*
X0045227Y0165454D01*
X0045236Y0165396D01*
X0045249Y0165339D01*
X0045265Y0165282D01*
X0045285Y0165227D01*
X0045308Y0165173D01*
X0045334Y0165121D01*
X0045364Y0165070D01*
X0045396Y0165021D01*
X0045432Y0164974D01*
X0045470Y0164930D01*
X0045511Y0164888D01*
X0045555Y0164849D01*
X0045601Y0164812D01*
X0045649Y0164779D01*
X0045699Y0164748D01*
X0045751Y0164721D01*
X0045804Y0164697D01*
X0045859Y0164676D01*
X0047520Y0166849D02*
X0047635Y0166847D01*
X0047749Y0166842D01*
X0047863Y0166833D01*
X0047977Y0166821D01*
X0048091Y0166806D01*
X0048204Y0166787D01*
X0048316Y0166764D01*
X0048428Y0166739D01*
X0048539Y0166709D01*
X0048649Y0166677D01*
X0048758Y0166641D01*
X0048866Y0166602D01*
X0048972Y0166560D01*
X0049077Y0166514D01*
X0049181Y0166466D01*
X0049821Y0165571D02*
X0049819Y0165512D01*
X0049814Y0165454D01*
X0049805Y0165396D01*
X0049792Y0165339D01*
X0049776Y0165282D01*
X0049756Y0165227D01*
X0049733Y0165173D01*
X0049707Y0165121D01*
X0049677Y0165070D01*
X0049645Y0165021D01*
X0049609Y0164974D01*
X0049571Y0164930D01*
X0049530Y0164888D01*
X0049486Y0164849D01*
X0049440Y0164812D01*
X0049392Y0164779D01*
X0049342Y0164748D01*
X0049290Y0164721D01*
X0049237Y0164697D01*
X0049182Y0164676D01*
X0047776Y0161965D02*
X0045220Y0159793D01*
X0048798Y0159794D02*
X0048868Y0159819D01*
X0048937Y0159847D01*
X0049004Y0159878D01*
X0049070Y0159913D01*
X0049133Y0159951D01*
X0049195Y0159993D01*
X0049255Y0160037D01*
X0049312Y0160084D01*
X0049367Y0160134D01*
X0049419Y0160187D01*
X0049469Y0160243D01*
X0049515Y0160301D01*
X0049559Y0160361D01*
X0049600Y0160423D01*
X0049637Y0160487D01*
X0049671Y0160553D01*
X0049702Y0160621D01*
X0049729Y0160690D01*
X0049753Y0160760D01*
X0049774Y0160831D01*
X0049790Y0160904D01*
X0049803Y0160977D01*
X0049813Y0161051D01*
X0049818Y0161125D01*
X0049820Y0161199D01*
X0049818Y0161266D01*
X0049812Y0161333D01*
X0049803Y0161399D01*
X0049789Y0161464D01*
X0049772Y0161529D01*
X0049751Y0161592D01*
X0049726Y0161654D01*
X0049698Y0161715D01*
X0049666Y0161774D01*
X0049631Y0161831D01*
X0049592Y0161886D01*
X0049551Y0161938D01*
X0049506Y0161988D01*
X0049459Y0162035D01*
X0049409Y0162080D01*
X0049357Y0162121D01*
X0049302Y0162160D01*
X0049245Y0162195D01*
X0049186Y0162227D01*
X0049125Y0162255D01*
X0049063Y0162280D01*
X0049000Y0162301D01*
X0048935Y0162318D01*
X0048870Y0162332D01*
X0048804Y0162341D01*
X0048737Y0162347D01*
X0048670Y0162349D01*
X0048670Y0162348D02*
X0048603Y0162346D01*
X0048537Y0162341D01*
X0048471Y0162332D01*
X0048405Y0162319D01*
X0048341Y0162303D01*
X0048277Y0162284D01*
X0048214Y0162261D01*
X0048153Y0162235D01*
X0048093Y0162205D01*
X0048035Y0162172D01*
X0047979Y0162137D01*
X0047925Y0162098D01*
X0047873Y0162056D01*
X0047823Y0162012D01*
X0047776Y0161965D01*
X0047520Y0164293D02*
X0047405Y0164295D01*
X0047291Y0164300D01*
X0047177Y0164309D01*
X0047063Y0164321D01*
X0046949Y0164336D01*
X0046836Y0164355D01*
X0046724Y0164378D01*
X0046612Y0164403D01*
X0046501Y0164433D01*
X0046391Y0164465D01*
X0046282Y0164501D01*
X0046174Y0164540D01*
X0046068Y0164582D01*
X0045963Y0164628D01*
X0045859Y0164676D01*
X0045220Y0168793D02*
X0045220Y0171348D01*
X0045220Y0170071D02*
X0049820Y0170071D01*
X0048798Y0168793D01*
X0048543Y0173293D02*
X0048287Y0173293D01*
X0048225Y0173295D01*
X0048164Y0173300D01*
X0048103Y0173310D01*
X0048042Y0173323D01*
X0047983Y0173339D01*
X0047925Y0173359D01*
X0047868Y0173383D01*
X0047812Y0173410D01*
X0047758Y0173440D01*
X0047706Y0173474D01*
X0047657Y0173510D01*
X0047609Y0173550D01*
X0047564Y0173592D01*
X0047522Y0173637D01*
X0047482Y0173685D01*
X0047446Y0173734D01*
X0047412Y0173786D01*
X0047382Y0173840D01*
X0047355Y0173896D01*
X0047331Y0173953D01*
X0047311Y0174011D01*
X0047295Y0174070D01*
X0047282Y0174131D01*
X0047272Y0174192D01*
X0047267Y0174253D01*
X0047265Y0174315D01*
X0047265Y0175848D01*
X0048543Y0175848D01*
X0048543Y0175849D02*
X0048613Y0175847D01*
X0048684Y0175841D01*
X0048753Y0175832D01*
X0048822Y0175818D01*
X0048891Y0175801D01*
X0048958Y0175780D01*
X0049024Y0175755D01*
X0049088Y0175727D01*
X0049151Y0175695D01*
X0049212Y0175660D01*
X0049271Y0175621D01*
X0049328Y0175580D01*
X0049382Y0175535D01*
X0049434Y0175487D01*
X0049483Y0175437D01*
X0049530Y0175383D01*
X0049573Y0175328D01*
X0049613Y0175270D01*
X0049650Y0175210D01*
X0049683Y0175148D01*
X0049713Y0175084D01*
X0049740Y0175019D01*
X0049763Y0174953D01*
X0049782Y0174885D01*
X0049797Y0174816D01*
X0049809Y0174747D01*
X0049817Y0174677D01*
X0049821Y0174606D01*
X0049821Y0174536D01*
X0049817Y0174465D01*
X0049809Y0174395D01*
X0049797Y0174326D01*
X0049782Y0174257D01*
X0049763Y0174189D01*
X0049740Y0174123D01*
X0049713Y0174058D01*
X0049683Y0173994D01*
X0049650Y0173932D01*
X0049613Y0173872D01*
X0049573Y0173814D01*
X0049530Y0173759D01*
X0049483Y0173705D01*
X0049434Y0173655D01*
X0049382Y0173607D01*
X0049328Y0173562D01*
X0049271Y0173521D01*
X0049212Y0173482D01*
X0049151Y0173447D01*
X0049088Y0173415D01*
X0049024Y0173387D01*
X0048958Y0173362D01*
X0048891Y0173341D01*
X0048822Y0173324D01*
X0048753Y0173310D01*
X0048684Y0173301D01*
X0048613Y0173295D01*
X0048543Y0173293D01*
X0047265Y0175848D02*
X0047176Y0175846D01*
X0047087Y0175840D01*
X0046998Y0175831D01*
X0046910Y0175817D01*
X0046823Y0175800D01*
X0046736Y0175778D01*
X0046650Y0175753D01*
X0046566Y0175725D01*
X0046483Y0175692D01*
X0046401Y0175656D01*
X0046321Y0175617D01*
X0046243Y0175574D01*
X0046167Y0175528D01*
X0046093Y0175478D01*
X0046021Y0175426D01*
X0045951Y0175370D01*
X0045884Y0175311D01*
X0045820Y0175249D01*
X0045758Y0175185D01*
X0045699Y0175118D01*
X0045643Y0175048D01*
X0045591Y0174976D01*
X0045541Y0174902D01*
X0045495Y0174826D01*
X0045452Y0174748D01*
X0045413Y0174668D01*
X0045377Y0174586D01*
X0045344Y0174503D01*
X0045316Y0174419D01*
X0045291Y0174333D01*
X0045269Y0174246D01*
X0045252Y0174159D01*
X0045238Y0174071D01*
X0045229Y0173982D01*
X0045223Y0173893D01*
X0045221Y0173804D01*
X0055531Y0159655D02*
X0055570Y0159565D01*
X0055606Y0159472D01*
X0055639Y0159379D01*
X0055668Y0159285D01*
X0055695Y0159190D01*
X0055718Y0159094D01*
X0055738Y0158997D01*
X0055754Y0158899D01*
X0055767Y0158801D01*
X0055777Y0158703D01*
X0055784Y0158604D01*
X0055787Y0158505D01*
X0057320Y0135267D02*
X0057320Y0132711D01*
X0057320Y0133989D02*
X0052720Y0133989D01*
X0052720Y0130089D02*
X0057320Y0130089D01*
X0057320Y0128811D02*
X0057320Y0131367D01*
X0049820Y0128824D02*
X0049820Y0127802D01*
X0049818Y0127740D01*
X0049813Y0127679D01*
X0049803Y0127618D01*
X0049790Y0127557D01*
X0049774Y0127498D01*
X0049754Y0127440D01*
X0049730Y0127383D01*
X0049703Y0127327D01*
X0049673Y0127273D01*
X0049639Y0127221D01*
X0049602Y0127172D01*
X0049563Y0127124D01*
X0049521Y0127079D01*
X0049476Y0127037D01*
X0049428Y0126997D01*
X0049379Y0126961D01*
X0049327Y0126927D01*
X0049273Y0126897D01*
X0049217Y0126870D01*
X0049160Y0126846D01*
X0049102Y0126826D01*
X0049043Y0126810D01*
X0048982Y0126797D01*
X0048921Y0126787D01*
X0048860Y0126782D01*
X0048798Y0126780D01*
X0046243Y0126780D01*
X0046181Y0126782D01*
X0046120Y0126787D01*
X0046059Y0126797D01*
X0045998Y0126810D01*
X0045939Y0126826D01*
X0045881Y0126846D01*
X0045824Y0126870D01*
X0045768Y0126897D01*
X0045714Y0126927D01*
X0045662Y0126961D01*
X0045613Y0126997D01*
X0045565Y0127037D01*
X0045520Y0127079D01*
X0045478Y0127124D01*
X0045438Y0127172D01*
X0045402Y0127221D01*
X0045368Y0127273D01*
X0045338Y0127327D01*
X0045311Y0127383D01*
X0045287Y0127440D01*
X0045267Y0127498D01*
X0045251Y0127557D01*
X0045238Y0127618D01*
X0045228Y0127679D01*
X0045223Y0127740D01*
X0045221Y0127802D01*
X0045220Y0127802D02*
X0045220Y0128824D01*
X0045220Y0131370D02*
X0045220Y0132520D01*
X0047520Y0132520D01*
X0047009Y0132520D02*
X0047009Y0131370D01*
X0047520Y0132520D02*
X0047575Y0132518D01*
X0047629Y0132512D01*
X0047683Y0132502D01*
X0047736Y0132489D01*
X0047788Y0132472D01*
X0047839Y0132451D01*
X0047888Y0132426D01*
X0047935Y0132398D01*
X0047980Y0132367D01*
X0048022Y0132333D01*
X0048062Y0132295D01*
X0048100Y0132255D01*
X0048134Y0132213D01*
X0048165Y0132168D01*
X0048193Y0132121D01*
X0048218Y0132072D01*
X0048239Y0132021D01*
X0048256Y0131969D01*
X0048269Y0131916D01*
X0048279Y0131862D01*
X0048285Y0131808D01*
X0048287Y0131753D01*
X0048287Y0130731D01*
X0047009Y0131370D02*
X0047007Y0131312D01*
X0047001Y0131253D01*
X0046992Y0131196D01*
X0046979Y0131139D01*
X0046962Y0131083D01*
X0046941Y0131028D01*
X0046917Y0130975D01*
X0046889Y0130923D01*
X0046858Y0130873D01*
X0046824Y0130826D01*
X0046787Y0130781D01*
X0046747Y0130738D01*
X0046704Y0130698D01*
X0046659Y0130661D01*
X0046612Y0130627D01*
X0046562Y0130596D01*
X0046510Y0130568D01*
X0046457Y0130544D01*
X0046402Y0130523D01*
X0046346Y0130506D01*
X0046289Y0130493D01*
X0046232Y0130484D01*
X0046173Y0130478D01*
X0046115Y0130476D01*
X0046057Y0130478D01*
X0045998Y0130484D01*
X0045941Y0130493D01*
X0045884Y0130506D01*
X0045828Y0130523D01*
X0045773Y0130544D01*
X0045720Y0130568D01*
X0045668Y0130596D01*
X0045618Y0130627D01*
X0045571Y0130661D01*
X0045526Y0130698D01*
X0045483Y0130738D01*
X0045443Y0130781D01*
X0045406Y0130826D01*
X0045372Y0130873D01*
X0045341Y0130923D01*
X0045313Y0130975D01*
X0045289Y0131028D01*
X0045268Y0131083D01*
X0045251Y0131139D01*
X0045238Y0131196D01*
X0045229Y0131253D01*
X0045223Y0131312D01*
X0045221Y0131370D01*
X0045220Y0122696D02*
X0045220Y0120652D01*
X0049820Y0120652D01*
X0049820Y0122696D01*
X0047776Y0122185D02*
X0047776Y0120652D01*
X0049820Y0117752D02*
X0049818Y0117690D01*
X0049813Y0117629D01*
X0049803Y0117568D01*
X0049790Y0117507D01*
X0049774Y0117448D01*
X0049754Y0117390D01*
X0049730Y0117333D01*
X0049703Y0117277D01*
X0049673Y0117223D01*
X0049639Y0117171D01*
X0049602Y0117122D01*
X0049563Y0117074D01*
X0049521Y0117029D01*
X0049476Y0116987D01*
X0049428Y0116947D01*
X0049379Y0116911D01*
X0049327Y0116877D01*
X0049273Y0116847D01*
X0049217Y0116820D01*
X0049160Y0116796D01*
X0049102Y0116776D01*
X0049043Y0116760D01*
X0048982Y0116747D01*
X0048921Y0116737D01*
X0048860Y0116732D01*
X0048798Y0116730D01*
X0046243Y0116730D01*
X0046181Y0116732D01*
X0046120Y0116737D01*
X0046059Y0116747D01*
X0045998Y0116760D01*
X0045939Y0116776D01*
X0045881Y0116796D01*
X0045824Y0116820D01*
X0045768Y0116847D01*
X0045714Y0116877D01*
X0045662Y0116911D01*
X0045613Y0116947D01*
X0045565Y0116987D01*
X0045520Y0117029D01*
X0045478Y0117074D01*
X0045438Y0117122D01*
X0045402Y0117171D01*
X0045368Y0117223D01*
X0045338Y0117277D01*
X0045311Y0117333D01*
X0045287Y0117390D01*
X0045267Y0117448D01*
X0045251Y0117507D01*
X0045238Y0117568D01*
X0045228Y0117629D01*
X0045223Y0117690D01*
X0045221Y0117752D01*
X0045220Y0117752D02*
X0045220Y0118774D01*
X0045220Y0115046D02*
X0045220Y0113002D01*
X0049820Y0113002D01*
X0049820Y0115046D01*
X0049820Y0117752D02*
X0049820Y0118774D01*
X0047776Y0114535D02*
X0047776Y0113002D01*
D12*
X0126324Y0071583D02*
X0126324Y0067583D01*
M02*
