G75*
%MOIN*%
%OFA0B0*%
%FSLAX25Y25*%
%IPPOS*%
%LPD*%
%AMOC8*
5,1,8,0,0,1.08239X$1,22.5*
%
%ADD10C,0.00000*%
%ADD11C,0.01000*%
%ADD12C,0.00500*%
%ADD13C,0.00800*%
%ADD14C,0.00591*%
%ADD15C,0.01969*%
%ADD16C,0.00400*%
%ADD17R,0.00591X0.01181*%
%ADD18R,0.01181X0.01181*%
%ADD19C,0.00600*%
%ADD20R,0.01181X0.00591*%
%ADD21C,0.00100*%
%ADD22C,0.00300*%
D10*
X0007324Y0059583D02*
X0007324Y0234543D01*
X0136024Y0234543D01*
X0136024Y0059583D01*
X0007324Y0059583D01*
X0066300Y0072654D02*
X0066302Y0072747D01*
X0066308Y0072839D01*
X0066318Y0072931D01*
X0066332Y0073022D01*
X0066349Y0073113D01*
X0066371Y0073203D01*
X0066396Y0073292D01*
X0066425Y0073380D01*
X0066458Y0073466D01*
X0066495Y0073551D01*
X0066535Y0073635D01*
X0066579Y0073716D01*
X0066626Y0073796D01*
X0066676Y0073874D01*
X0066730Y0073949D01*
X0066787Y0074022D01*
X0066847Y0074092D01*
X0066910Y0074160D01*
X0066976Y0074225D01*
X0067044Y0074287D01*
X0067115Y0074347D01*
X0067189Y0074403D01*
X0067265Y0074456D01*
X0067343Y0074505D01*
X0067423Y0074552D01*
X0067505Y0074594D01*
X0067589Y0074634D01*
X0067674Y0074669D01*
X0067761Y0074701D01*
X0067849Y0074730D01*
X0067938Y0074754D01*
X0068028Y0074775D01*
X0068119Y0074791D01*
X0068211Y0074804D01*
X0068303Y0074813D01*
X0068396Y0074818D01*
X0068488Y0074819D01*
X0068581Y0074816D01*
X0068673Y0074809D01*
X0068765Y0074798D01*
X0068856Y0074783D01*
X0068947Y0074765D01*
X0069037Y0074742D01*
X0069125Y0074716D01*
X0069213Y0074686D01*
X0069299Y0074652D01*
X0069383Y0074615D01*
X0069466Y0074573D01*
X0069547Y0074529D01*
X0069627Y0074481D01*
X0069704Y0074430D01*
X0069778Y0074375D01*
X0069851Y0074317D01*
X0069921Y0074257D01*
X0069988Y0074193D01*
X0070052Y0074127D01*
X0070114Y0074057D01*
X0070172Y0073986D01*
X0070227Y0073912D01*
X0070279Y0073835D01*
X0070328Y0073756D01*
X0070374Y0073676D01*
X0070416Y0073593D01*
X0070454Y0073509D01*
X0070489Y0073423D01*
X0070520Y0073336D01*
X0070547Y0073248D01*
X0070570Y0073158D01*
X0070590Y0073068D01*
X0070606Y0072977D01*
X0070618Y0072885D01*
X0070626Y0072793D01*
X0070630Y0072700D01*
X0070630Y0072608D01*
X0070626Y0072515D01*
X0070618Y0072423D01*
X0070606Y0072331D01*
X0070590Y0072240D01*
X0070570Y0072150D01*
X0070547Y0072060D01*
X0070520Y0071972D01*
X0070489Y0071885D01*
X0070454Y0071799D01*
X0070416Y0071715D01*
X0070374Y0071632D01*
X0070328Y0071552D01*
X0070279Y0071473D01*
X0070227Y0071396D01*
X0070172Y0071322D01*
X0070114Y0071251D01*
X0070052Y0071181D01*
X0069988Y0071115D01*
X0069921Y0071051D01*
X0069851Y0070991D01*
X0069778Y0070933D01*
X0069704Y0070878D01*
X0069627Y0070827D01*
X0069548Y0070779D01*
X0069466Y0070735D01*
X0069383Y0070693D01*
X0069299Y0070656D01*
X0069213Y0070622D01*
X0069125Y0070592D01*
X0069037Y0070566D01*
X0068947Y0070543D01*
X0068856Y0070525D01*
X0068765Y0070510D01*
X0068673Y0070499D01*
X0068581Y0070492D01*
X0068488Y0070489D01*
X0068396Y0070490D01*
X0068303Y0070495D01*
X0068211Y0070504D01*
X0068119Y0070517D01*
X0068028Y0070533D01*
X0067938Y0070554D01*
X0067849Y0070578D01*
X0067761Y0070607D01*
X0067674Y0070639D01*
X0067589Y0070674D01*
X0067505Y0070714D01*
X0067423Y0070756D01*
X0067343Y0070803D01*
X0067265Y0070852D01*
X0067189Y0070905D01*
X0067115Y0070961D01*
X0067044Y0071021D01*
X0066976Y0071083D01*
X0066910Y0071148D01*
X0066847Y0071216D01*
X0066787Y0071286D01*
X0066730Y0071359D01*
X0066676Y0071434D01*
X0066626Y0071512D01*
X0066579Y0071592D01*
X0066535Y0071673D01*
X0066495Y0071757D01*
X0066458Y0071842D01*
X0066425Y0071928D01*
X0066396Y0072016D01*
X0066371Y0072105D01*
X0066349Y0072195D01*
X0066332Y0072286D01*
X0066318Y0072377D01*
X0066308Y0072469D01*
X0066302Y0072561D01*
X0066300Y0072654D01*
X0084017Y0072654D02*
X0084019Y0072747D01*
X0084025Y0072839D01*
X0084035Y0072931D01*
X0084049Y0073022D01*
X0084066Y0073113D01*
X0084088Y0073203D01*
X0084113Y0073292D01*
X0084142Y0073380D01*
X0084175Y0073466D01*
X0084212Y0073551D01*
X0084252Y0073635D01*
X0084296Y0073716D01*
X0084343Y0073796D01*
X0084393Y0073874D01*
X0084447Y0073949D01*
X0084504Y0074022D01*
X0084564Y0074092D01*
X0084627Y0074160D01*
X0084693Y0074225D01*
X0084761Y0074287D01*
X0084832Y0074347D01*
X0084906Y0074403D01*
X0084982Y0074456D01*
X0085060Y0074505D01*
X0085140Y0074552D01*
X0085222Y0074594D01*
X0085306Y0074634D01*
X0085391Y0074669D01*
X0085478Y0074701D01*
X0085566Y0074730D01*
X0085655Y0074754D01*
X0085745Y0074775D01*
X0085836Y0074791D01*
X0085928Y0074804D01*
X0086020Y0074813D01*
X0086113Y0074818D01*
X0086205Y0074819D01*
X0086298Y0074816D01*
X0086390Y0074809D01*
X0086482Y0074798D01*
X0086573Y0074783D01*
X0086664Y0074765D01*
X0086754Y0074742D01*
X0086842Y0074716D01*
X0086930Y0074686D01*
X0087016Y0074652D01*
X0087100Y0074615D01*
X0087183Y0074573D01*
X0087264Y0074529D01*
X0087344Y0074481D01*
X0087421Y0074430D01*
X0087495Y0074375D01*
X0087568Y0074317D01*
X0087638Y0074257D01*
X0087705Y0074193D01*
X0087769Y0074127D01*
X0087831Y0074057D01*
X0087889Y0073986D01*
X0087944Y0073912D01*
X0087996Y0073835D01*
X0088045Y0073756D01*
X0088091Y0073676D01*
X0088133Y0073593D01*
X0088171Y0073509D01*
X0088206Y0073423D01*
X0088237Y0073336D01*
X0088264Y0073248D01*
X0088287Y0073158D01*
X0088307Y0073068D01*
X0088323Y0072977D01*
X0088335Y0072885D01*
X0088343Y0072793D01*
X0088347Y0072700D01*
X0088347Y0072608D01*
X0088343Y0072515D01*
X0088335Y0072423D01*
X0088323Y0072331D01*
X0088307Y0072240D01*
X0088287Y0072150D01*
X0088264Y0072060D01*
X0088237Y0071972D01*
X0088206Y0071885D01*
X0088171Y0071799D01*
X0088133Y0071715D01*
X0088091Y0071632D01*
X0088045Y0071552D01*
X0087996Y0071473D01*
X0087944Y0071396D01*
X0087889Y0071322D01*
X0087831Y0071251D01*
X0087769Y0071181D01*
X0087705Y0071115D01*
X0087638Y0071051D01*
X0087568Y0070991D01*
X0087495Y0070933D01*
X0087421Y0070878D01*
X0087344Y0070827D01*
X0087265Y0070779D01*
X0087183Y0070735D01*
X0087100Y0070693D01*
X0087016Y0070656D01*
X0086930Y0070622D01*
X0086842Y0070592D01*
X0086754Y0070566D01*
X0086664Y0070543D01*
X0086573Y0070525D01*
X0086482Y0070510D01*
X0086390Y0070499D01*
X0086298Y0070492D01*
X0086205Y0070489D01*
X0086113Y0070490D01*
X0086020Y0070495D01*
X0085928Y0070504D01*
X0085836Y0070517D01*
X0085745Y0070533D01*
X0085655Y0070554D01*
X0085566Y0070578D01*
X0085478Y0070607D01*
X0085391Y0070639D01*
X0085306Y0070674D01*
X0085222Y0070714D01*
X0085140Y0070756D01*
X0085060Y0070803D01*
X0084982Y0070852D01*
X0084906Y0070905D01*
X0084832Y0070961D01*
X0084761Y0071021D01*
X0084693Y0071083D01*
X0084627Y0071148D01*
X0084564Y0071216D01*
X0084504Y0071286D01*
X0084447Y0071359D01*
X0084393Y0071434D01*
X0084343Y0071512D01*
X0084296Y0071592D01*
X0084252Y0071673D01*
X0084212Y0071757D01*
X0084175Y0071842D01*
X0084142Y0071928D01*
X0084113Y0072016D01*
X0084088Y0072105D01*
X0084066Y0072195D01*
X0084049Y0072286D01*
X0084035Y0072377D01*
X0084025Y0072469D01*
X0084019Y0072561D01*
X0084017Y0072654D01*
D11*
X0107682Y0072187D02*
X0111682Y0072187D01*
X0111682Y0071076D02*
X0111682Y0073298D01*
X0108571Y0071076D02*
X0107682Y0072187D01*
X0107682Y0068681D02*
X0110793Y0068681D01*
X0110851Y0068679D01*
X0110909Y0068673D01*
X0110966Y0068664D01*
X0111023Y0068651D01*
X0111079Y0068634D01*
X0111133Y0068613D01*
X0111186Y0068589D01*
X0111238Y0068562D01*
X0111287Y0068531D01*
X0111334Y0068497D01*
X0111379Y0068460D01*
X0111422Y0068421D01*
X0111461Y0068378D01*
X0111498Y0068333D01*
X0111532Y0068286D01*
X0111563Y0068237D01*
X0111590Y0068185D01*
X0111614Y0068132D01*
X0111635Y0068078D01*
X0111652Y0068022D01*
X0111665Y0067965D01*
X0111674Y0067908D01*
X0111680Y0067850D01*
X0111682Y0067792D01*
X0111682Y0067347D01*
X0096463Y0134169D02*
X0095130Y0134169D01*
X0096463Y0134169D02*
X0096521Y0134171D01*
X0096579Y0134177D01*
X0096636Y0134186D01*
X0096693Y0134199D01*
X0096749Y0134216D01*
X0096803Y0134237D01*
X0096856Y0134261D01*
X0096907Y0134288D01*
X0096957Y0134319D01*
X0097004Y0134353D01*
X0097049Y0134390D01*
X0097092Y0134429D01*
X0097131Y0134472D01*
X0097168Y0134517D01*
X0097202Y0134564D01*
X0097233Y0134613D01*
X0097260Y0134665D01*
X0097284Y0134718D01*
X0097305Y0134772D01*
X0097322Y0134828D01*
X0097335Y0134885D01*
X0097344Y0134942D01*
X0097350Y0135000D01*
X0097352Y0135058D01*
X0097352Y0135503D01*
X0097350Y0135561D01*
X0097344Y0135619D01*
X0097335Y0135676D01*
X0097322Y0135733D01*
X0097305Y0135789D01*
X0097284Y0135843D01*
X0097260Y0135896D01*
X0097233Y0135948D01*
X0097202Y0135997D01*
X0097168Y0136044D01*
X0097131Y0136089D01*
X0097092Y0136132D01*
X0097049Y0136171D01*
X0097004Y0136208D01*
X0096957Y0136242D01*
X0096908Y0136273D01*
X0096856Y0136300D01*
X0096803Y0136324D01*
X0096749Y0136345D01*
X0096693Y0136362D01*
X0096636Y0136375D01*
X0096579Y0136384D01*
X0096521Y0136390D01*
X0096463Y0136392D01*
X0095130Y0136392D01*
X0095130Y0138169D01*
X0097352Y0138169D01*
X0092014Y0135947D02*
X0092903Y0134169D01*
X0091792Y0135947D02*
X0090681Y0135947D01*
X0091792Y0135947D02*
X0091858Y0135949D01*
X0091923Y0135955D01*
X0091989Y0135965D01*
X0092053Y0135978D01*
X0092116Y0135995D01*
X0092179Y0136017D01*
X0092240Y0136041D01*
X0092299Y0136070D01*
X0092357Y0136101D01*
X0092413Y0136137D01*
X0092466Y0136175D01*
X0092517Y0136216D01*
X0092566Y0136261D01*
X0092612Y0136308D01*
X0092655Y0136358D01*
X0092695Y0136410D01*
X0092731Y0136465D01*
X0092765Y0136522D01*
X0092795Y0136580D01*
X0092822Y0136640D01*
X0092844Y0136702D01*
X0092864Y0136765D01*
X0092879Y0136829D01*
X0092891Y0136894D01*
X0092899Y0136959D01*
X0092903Y0137025D01*
X0092903Y0137091D01*
X0092899Y0137157D01*
X0092891Y0137222D01*
X0092879Y0137287D01*
X0092864Y0137351D01*
X0092844Y0137414D01*
X0092822Y0137476D01*
X0092795Y0137536D01*
X0092765Y0137594D01*
X0092731Y0137651D01*
X0092695Y0137706D01*
X0092655Y0137758D01*
X0092612Y0137808D01*
X0092566Y0137855D01*
X0092517Y0137900D01*
X0092466Y0137941D01*
X0092413Y0137979D01*
X0092357Y0138015D01*
X0092299Y0138046D01*
X0092240Y0138075D01*
X0092179Y0138099D01*
X0092116Y0138121D01*
X0092053Y0138138D01*
X0091989Y0138151D01*
X0091923Y0138161D01*
X0091858Y0138167D01*
X0091792Y0138169D01*
X0090681Y0138169D01*
X0090681Y0134169D01*
X0100254Y0188189D02*
X0101143Y0188189D01*
X0100254Y0188189D02*
X0100196Y0188191D01*
X0100138Y0188197D01*
X0100081Y0188206D01*
X0100024Y0188219D01*
X0099968Y0188236D01*
X0099914Y0188257D01*
X0099861Y0188281D01*
X0099810Y0188308D01*
X0099760Y0188339D01*
X0099713Y0188373D01*
X0099668Y0188410D01*
X0099625Y0188449D01*
X0099586Y0188492D01*
X0099549Y0188537D01*
X0099515Y0188584D01*
X0099484Y0188634D01*
X0099457Y0188685D01*
X0099433Y0188738D01*
X0099412Y0188792D01*
X0099395Y0188848D01*
X0099382Y0188905D01*
X0099373Y0188962D01*
X0099367Y0189020D01*
X0099365Y0189078D01*
X0099365Y0191300D01*
X0099367Y0191358D01*
X0099373Y0191416D01*
X0099382Y0191473D01*
X0099395Y0191530D01*
X0099412Y0191586D01*
X0099433Y0191640D01*
X0099457Y0191693D01*
X0099484Y0191744D01*
X0099515Y0191794D01*
X0099549Y0191841D01*
X0099586Y0191886D01*
X0099625Y0191929D01*
X0099668Y0191968D01*
X0099713Y0192005D01*
X0099760Y0192039D01*
X0099809Y0192070D01*
X0099861Y0192097D01*
X0099914Y0192121D01*
X0099968Y0192142D01*
X0100024Y0192159D01*
X0100081Y0192172D01*
X0100138Y0192181D01*
X0100196Y0192187D01*
X0100254Y0192189D01*
X0101143Y0192189D01*
X0104027Y0192189D02*
X0103138Y0189078D01*
X0105361Y0189078D01*
X0104694Y0189967D02*
X0104694Y0188189D01*
X0090662Y0223343D02*
X0090662Y0225120D01*
X0091329Y0224231D02*
X0089106Y0224231D01*
X0089995Y0227343D01*
X0085990Y0225120D02*
X0086879Y0223343D01*
X0085768Y0225120D02*
X0084657Y0225120D01*
X0085768Y0225120D02*
X0085834Y0225122D01*
X0085899Y0225128D01*
X0085965Y0225138D01*
X0086029Y0225151D01*
X0086092Y0225168D01*
X0086155Y0225190D01*
X0086216Y0225214D01*
X0086275Y0225243D01*
X0086333Y0225274D01*
X0086389Y0225310D01*
X0086442Y0225348D01*
X0086493Y0225389D01*
X0086542Y0225434D01*
X0086588Y0225481D01*
X0086631Y0225531D01*
X0086671Y0225583D01*
X0086707Y0225638D01*
X0086741Y0225695D01*
X0086771Y0225753D01*
X0086798Y0225813D01*
X0086820Y0225875D01*
X0086840Y0225938D01*
X0086855Y0226002D01*
X0086867Y0226067D01*
X0086875Y0226132D01*
X0086879Y0226198D01*
X0086879Y0226264D01*
X0086875Y0226330D01*
X0086867Y0226395D01*
X0086855Y0226460D01*
X0086840Y0226524D01*
X0086820Y0226587D01*
X0086798Y0226649D01*
X0086771Y0226709D01*
X0086741Y0226767D01*
X0086707Y0226824D01*
X0086671Y0226879D01*
X0086631Y0226931D01*
X0086588Y0226981D01*
X0086542Y0227028D01*
X0086493Y0227073D01*
X0086442Y0227114D01*
X0086389Y0227152D01*
X0086333Y0227188D01*
X0086275Y0227219D01*
X0086216Y0227248D01*
X0086155Y0227272D01*
X0086092Y0227294D01*
X0086029Y0227311D01*
X0085965Y0227324D01*
X0085899Y0227334D01*
X0085834Y0227340D01*
X0085768Y0227342D01*
X0085768Y0227343D02*
X0084657Y0227343D01*
X0084657Y0223343D01*
X0079294Y0206713D02*
X0079294Y0202713D01*
X0078183Y0202713D02*
X0080405Y0202713D01*
X0078183Y0205824D02*
X0079294Y0206713D01*
X0075755Y0205601D02*
X0075755Y0203824D01*
X0075753Y0203759D01*
X0075747Y0203695D01*
X0075738Y0203631D01*
X0075725Y0203568D01*
X0075708Y0203505D01*
X0075688Y0203444D01*
X0075664Y0203384D01*
X0075637Y0203325D01*
X0075606Y0203269D01*
X0075572Y0203213D01*
X0075535Y0203161D01*
X0075495Y0203110D01*
X0075452Y0203062D01*
X0075406Y0203016D01*
X0075358Y0202973D01*
X0075307Y0202933D01*
X0075255Y0202896D01*
X0075200Y0202862D01*
X0075143Y0202831D01*
X0075084Y0202804D01*
X0075024Y0202780D01*
X0074963Y0202760D01*
X0074900Y0202743D01*
X0074837Y0202730D01*
X0074773Y0202721D01*
X0074709Y0202715D01*
X0074644Y0202713D01*
X0073533Y0202713D01*
X0073533Y0206713D01*
X0074644Y0206713D01*
X0074644Y0206712D02*
X0074709Y0206710D01*
X0074773Y0206704D01*
X0074837Y0206695D01*
X0074900Y0206682D01*
X0074963Y0206665D01*
X0075024Y0206645D01*
X0075084Y0206621D01*
X0075143Y0206594D01*
X0075200Y0206563D01*
X0075255Y0206529D01*
X0075307Y0206492D01*
X0075358Y0206452D01*
X0075406Y0206409D01*
X0075452Y0206363D01*
X0075495Y0206315D01*
X0075535Y0206264D01*
X0075572Y0206211D01*
X0075606Y0206156D01*
X0075637Y0206100D01*
X0075664Y0206041D01*
X0075688Y0205981D01*
X0075708Y0205920D01*
X0075725Y0205857D01*
X0075738Y0205794D01*
X0075747Y0205730D01*
X0075753Y0205666D01*
X0075755Y0205601D01*
X0070321Y0205875D02*
X0070321Y0206097D01*
X0070319Y0206155D01*
X0070313Y0206213D01*
X0070304Y0206270D01*
X0070291Y0206327D01*
X0070274Y0206383D01*
X0070253Y0206437D01*
X0070229Y0206490D01*
X0070202Y0206542D01*
X0070171Y0206591D01*
X0070137Y0206638D01*
X0070100Y0206683D01*
X0070061Y0206726D01*
X0070018Y0206765D01*
X0069973Y0206802D01*
X0069926Y0206836D01*
X0069877Y0206867D01*
X0069825Y0206894D01*
X0069772Y0206918D01*
X0069718Y0206939D01*
X0069662Y0206956D01*
X0069605Y0206969D01*
X0069548Y0206978D01*
X0069490Y0206984D01*
X0069432Y0206986D01*
X0068099Y0206986D01*
X0068099Y0205875D01*
X0068101Y0205809D01*
X0068107Y0205744D01*
X0068117Y0205678D01*
X0068130Y0205614D01*
X0068147Y0205551D01*
X0068169Y0205488D01*
X0068193Y0205427D01*
X0068222Y0205368D01*
X0068253Y0205310D01*
X0068289Y0205254D01*
X0068327Y0205201D01*
X0068368Y0205150D01*
X0068413Y0205101D01*
X0068460Y0205055D01*
X0068510Y0205012D01*
X0068562Y0204972D01*
X0068617Y0204936D01*
X0068674Y0204902D01*
X0068732Y0204872D01*
X0068792Y0204845D01*
X0068854Y0204823D01*
X0068917Y0204803D01*
X0068981Y0204788D01*
X0069046Y0204776D01*
X0069111Y0204768D01*
X0069177Y0204764D01*
X0069243Y0204764D01*
X0069309Y0204768D01*
X0069374Y0204776D01*
X0069439Y0204788D01*
X0069503Y0204803D01*
X0069566Y0204823D01*
X0069628Y0204845D01*
X0069688Y0204872D01*
X0069746Y0204902D01*
X0069803Y0204936D01*
X0069858Y0204972D01*
X0069910Y0205012D01*
X0069960Y0205055D01*
X0070007Y0205101D01*
X0070052Y0205150D01*
X0070093Y0205201D01*
X0070131Y0205254D01*
X0070167Y0205310D01*
X0070198Y0205368D01*
X0070227Y0205427D01*
X0070251Y0205488D01*
X0070273Y0205551D01*
X0070290Y0205614D01*
X0070303Y0205678D01*
X0070313Y0205744D01*
X0070319Y0205809D01*
X0070321Y0205875D01*
X0068099Y0206986D02*
X0068101Y0207068D01*
X0068107Y0207150D01*
X0068116Y0207232D01*
X0068129Y0207313D01*
X0068146Y0207393D01*
X0068167Y0207473D01*
X0068191Y0207551D01*
X0068219Y0207628D01*
X0068250Y0207704D01*
X0068285Y0207779D01*
X0068324Y0207851D01*
X0068365Y0207922D01*
X0068410Y0207991D01*
X0068458Y0208057D01*
X0068509Y0208122D01*
X0068563Y0208184D01*
X0068620Y0208243D01*
X0068679Y0208300D01*
X0068741Y0208354D01*
X0068806Y0208405D01*
X0068872Y0208453D01*
X0068941Y0208498D01*
X0069012Y0208539D01*
X0069084Y0208578D01*
X0069159Y0208612D01*
X0069235Y0208644D01*
X0069312Y0208672D01*
X0069390Y0208696D01*
X0069470Y0208717D01*
X0069550Y0208734D01*
X0069631Y0208747D01*
X0069713Y0208756D01*
X0069795Y0208762D01*
X0069877Y0208764D01*
X0066104Y0208764D02*
X0065215Y0208764D01*
X0065157Y0208762D01*
X0065099Y0208756D01*
X0065042Y0208747D01*
X0064985Y0208734D01*
X0064929Y0208717D01*
X0064875Y0208696D01*
X0064822Y0208672D01*
X0064770Y0208645D01*
X0064721Y0208614D01*
X0064674Y0208580D01*
X0064629Y0208543D01*
X0064586Y0208504D01*
X0064547Y0208461D01*
X0064510Y0208416D01*
X0064476Y0208369D01*
X0064445Y0208319D01*
X0064418Y0208268D01*
X0064394Y0208215D01*
X0064373Y0208161D01*
X0064356Y0208105D01*
X0064343Y0208048D01*
X0064334Y0207991D01*
X0064328Y0207933D01*
X0064326Y0207875D01*
X0064326Y0205653D01*
X0064328Y0205595D01*
X0064334Y0205537D01*
X0064343Y0205480D01*
X0064356Y0205423D01*
X0064373Y0205367D01*
X0064394Y0205313D01*
X0064418Y0205260D01*
X0064445Y0205209D01*
X0064476Y0205159D01*
X0064510Y0205112D01*
X0064547Y0205067D01*
X0064586Y0205024D01*
X0064629Y0204985D01*
X0064674Y0204948D01*
X0064721Y0204914D01*
X0064771Y0204883D01*
X0064822Y0204856D01*
X0064875Y0204832D01*
X0064929Y0204811D01*
X0064985Y0204794D01*
X0065042Y0204781D01*
X0065099Y0204772D01*
X0065157Y0204766D01*
X0065215Y0204764D01*
X0066104Y0204764D01*
X0063977Y0212693D02*
X0061615Y0212693D01*
X0061615Y0221157D01*
X0070670Y0212693D02*
X0073032Y0212693D01*
X0073032Y0221157D01*
X0044770Y0171083D02*
X0043437Y0171083D01*
X0044770Y0171083D02*
X0044828Y0171081D01*
X0044886Y0171075D01*
X0044943Y0171066D01*
X0045000Y0171053D01*
X0045056Y0171036D01*
X0045110Y0171015D01*
X0045163Y0170991D01*
X0045214Y0170964D01*
X0045264Y0170933D01*
X0045311Y0170899D01*
X0045356Y0170862D01*
X0045399Y0170823D01*
X0045438Y0170780D01*
X0045475Y0170735D01*
X0045509Y0170688D01*
X0045540Y0170639D01*
X0045567Y0170587D01*
X0045591Y0170534D01*
X0045612Y0170480D01*
X0045629Y0170424D01*
X0045642Y0170367D01*
X0045651Y0170310D01*
X0045657Y0170252D01*
X0045659Y0170194D01*
X0045657Y0170136D01*
X0045651Y0170078D01*
X0045642Y0170021D01*
X0045629Y0169964D01*
X0045612Y0169908D01*
X0045591Y0169854D01*
X0045567Y0169801D01*
X0045540Y0169750D01*
X0045509Y0169700D01*
X0045475Y0169653D01*
X0045438Y0169608D01*
X0045399Y0169565D01*
X0045356Y0169526D01*
X0045311Y0169489D01*
X0045264Y0169455D01*
X0045215Y0169424D01*
X0045163Y0169397D01*
X0045110Y0169373D01*
X0045056Y0169352D01*
X0045000Y0169335D01*
X0044943Y0169322D01*
X0044886Y0169313D01*
X0044828Y0169307D01*
X0044770Y0169305D01*
X0043882Y0169305D01*
X0044548Y0169305D02*
X0044614Y0169303D01*
X0044679Y0169297D01*
X0044745Y0169287D01*
X0044809Y0169274D01*
X0044872Y0169257D01*
X0044935Y0169235D01*
X0044996Y0169211D01*
X0045055Y0169182D01*
X0045113Y0169151D01*
X0045169Y0169115D01*
X0045222Y0169077D01*
X0045273Y0169036D01*
X0045322Y0168991D01*
X0045368Y0168944D01*
X0045411Y0168894D01*
X0045451Y0168842D01*
X0045487Y0168787D01*
X0045521Y0168730D01*
X0045551Y0168672D01*
X0045578Y0168612D01*
X0045600Y0168550D01*
X0045620Y0168487D01*
X0045635Y0168423D01*
X0045647Y0168358D01*
X0045655Y0168293D01*
X0045659Y0168227D01*
X0045659Y0168161D01*
X0045655Y0168095D01*
X0045647Y0168030D01*
X0045635Y0167965D01*
X0045620Y0167901D01*
X0045600Y0167838D01*
X0045578Y0167776D01*
X0045551Y0167716D01*
X0045521Y0167658D01*
X0045487Y0167601D01*
X0045451Y0167546D01*
X0045411Y0167494D01*
X0045368Y0167444D01*
X0045322Y0167397D01*
X0045273Y0167352D01*
X0045222Y0167311D01*
X0045169Y0167273D01*
X0045113Y0167237D01*
X0045055Y0167206D01*
X0044996Y0167177D01*
X0044935Y0167153D01*
X0044872Y0167131D01*
X0044809Y0167114D01*
X0044745Y0167101D01*
X0044679Y0167091D01*
X0044614Y0167085D01*
X0044548Y0167083D01*
X0043437Y0167083D01*
X0041210Y0167083D02*
X0040321Y0168860D01*
X0040099Y0168860D02*
X0038988Y0168860D01*
X0040099Y0168861D02*
X0040165Y0168863D01*
X0040230Y0168869D01*
X0040296Y0168879D01*
X0040360Y0168892D01*
X0040423Y0168909D01*
X0040486Y0168931D01*
X0040547Y0168955D01*
X0040606Y0168984D01*
X0040664Y0169015D01*
X0040720Y0169051D01*
X0040773Y0169089D01*
X0040824Y0169130D01*
X0040873Y0169175D01*
X0040919Y0169222D01*
X0040962Y0169272D01*
X0041002Y0169324D01*
X0041038Y0169379D01*
X0041072Y0169436D01*
X0041102Y0169494D01*
X0041129Y0169554D01*
X0041151Y0169616D01*
X0041171Y0169679D01*
X0041186Y0169743D01*
X0041198Y0169808D01*
X0041206Y0169873D01*
X0041210Y0169939D01*
X0041210Y0170005D01*
X0041206Y0170071D01*
X0041198Y0170136D01*
X0041186Y0170201D01*
X0041171Y0170265D01*
X0041151Y0170328D01*
X0041129Y0170390D01*
X0041102Y0170450D01*
X0041072Y0170508D01*
X0041038Y0170565D01*
X0041002Y0170620D01*
X0040962Y0170672D01*
X0040919Y0170722D01*
X0040873Y0170769D01*
X0040824Y0170814D01*
X0040773Y0170855D01*
X0040720Y0170893D01*
X0040664Y0170929D01*
X0040606Y0170960D01*
X0040547Y0170989D01*
X0040486Y0171013D01*
X0040423Y0171035D01*
X0040360Y0171052D01*
X0040296Y0171065D01*
X0040230Y0171075D01*
X0040165Y0171081D01*
X0040099Y0171083D01*
X0038988Y0171083D01*
X0038988Y0167083D01*
X0024432Y0163457D02*
X0023099Y0163457D01*
X0024432Y0163457D02*
X0024490Y0163455D01*
X0024548Y0163449D01*
X0024605Y0163440D01*
X0024662Y0163427D01*
X0024718Y0163410D01*
X0024772Y0163389D01*
X0024825Y0163365D01*
X0024876Y0163338D01*
X0024926Y0163307D01*
X0024973Y0163273D01*
X0025018Y0163236D01*
X0025061Y0163197D01*
X0025100Y0163154D01*
X0025137Y0163109D01*
X0025171Y0163062D01*
X0025202Y0163013D01*
X0025229Y0162961D01*
X0025253Y0162908D01*
X0025274Y0162854D01*
X0025291Y0162798D01*
X0025304Y0162741D01*
X0025313Y0162684D01*
X0025319Y0162626D01*
X0025321Y0162568D01*
X0025319Y0162510D01*
X0025313Y0162452D01*
X0025304Y0162395D01*
X0025291Y0162338D01*
X0025274Y0162282D01*
X0025253Y0162228D01*
X0025229Y0162175D01*
X0025202Y0162124D01*
X0025171Y0162074D01*
X0025137Y0162027D01*
X0025100Y0161982D01*
X0025061Y0161939D01*
X0025018Y0161900D01*
X0024973Y0161863D01*
X0024926Y0161829D01*
X0024877Y0161798D01*
X0024825Y0161771D01*
X0024772Y0161747D01*
X0024718Y0161726D01*
X0024662Y0161709D01*
X0024605Y0161696D01*
X0024548Y0161687D01*
X0024490Y0161681D01*
X0024432Y0161679D01*
X0023543Y0161679D01*
X0024210Y0161679D02*
X0024276Y0161677D01*
X0024341Y0161671D01*
X0024407Y0161661D01*
X0024471Y0161648D01*
X0024534Y0161631D01*
X0024597Y0161609D01*
X0024658Y0161585D01*
X0024717Y0161556D01*
X0024775Y0161525D01*
X0024831Y0161489D01*
X0024884Y0161451D01*
X0024935Y0161410D01*
X0024984Y0161365D01*
X0025030Y0161318D01*
X0025073Y0161268D01*
X0025113Y0161216D01*
X0025149Y0161161D01*
X0025183Y0161104D01*
X0025213Y0161046D01*
X0025240Y0160986D01*
X0025262Y0160924D01*
X0025282Y0160861D01*
X0025297Y0160797D01*
X0025309Y0160732D01*
X0025317Y0160667D01*
X0025321Y0160601D01*
X0025321Y0160535D01*
X0025317Y0160469D01*
X0025309Y0160404D01*
X0025297Y0160339D01*
X0025282Y0160275D01*
X0025262Y0160212D01*
X0025240Y0160150D01*
X0025213Y0160090D01*
X0025183Y0160032D01*
X0025149Y0159975D01*
X0025113Y0159920D01*
X0025073Y0159868D01*
X0025030Y0159818D01*
X0024984Y0159771D01*
X0024935Y0159726D01*
X0024884Y0159685D01*
X0024831Y0159647D01*
X0024775Y0159611D01*
X0024717Y0159580D01*
X0024658Y0159551D01*
X0024597Y0159527D01*
X0024534Y0159505D01*
X0024471Y0159488D01*
X0024407Y0159475D01*
X0024341Y0159465D01*
X0024276Y0159459D01*
X0024210Y0159457D01*
X0023099Y0159457D01*
X0021104Y0159457D02*
X0020215Y0159457D01*
X0020157Y0159459D01*
X0020099Y0159465D01*
X0020042Y0159474D01*
X0019985Y0159487D01*
X0019929Y0159504D01*
X0019875Y0159525D01*
X0019822Y0159549D01*
X0019771Y0159576D01*
X0019721Y0159607D01*
X0019674Y0159641D01*
X0019629Y0159678D01*
X0019586Y0159717D01*
X0019547Y0159760D01*
X0019510Y0159805D01*
X0019476Y0159852D01*
X0019445Y0159902D01*
X0019418Y0159953D01*
X0019394Y0160006D01*
X0019373Y0160060D01*
X0019356Y0160116D01*
X0019343Y0160173D01*
X0019334Y0160230D01*
X0019328Y0160288D01*
X0019326Y0160346D01*
X0019326Y0162568D01*
X0019328Y0162626D01*
X0019334Y0162684D01*
X0019343Y0162741D01*
X0019356Y0162798D01*
X0019373Y0162854D01*
X0019394Y0162908D01*
X0019418Y0162961D01*
X0019445Y0163012D01*
X0019476Y0163062D01*
X0019510Y0163109D01*
X0019547Y0163154D01*
X0019586Y0163197D01*
X0019629Y0163236D01*
X0019674Y0163273D01*
X0019721Y0163307D01*
X0019770Y0163338D01*
X0019822Y0163365D01*
X0019875Y0163389D01*
X0019929Y0163410D01*
X0019985Y0163427D01*
X0020042Y0163440D01*
X0020099Y0163449D01*
X0020157Y0163455D01*
X0020215Y0163457D01*
X0021104Y0163457D01*
X0021104Y0180236D02*
X0020215Y0180236D01*
X0020157Y0180238D01*
X0020099Y0180244D01*
X0020042Y0180253D01*
X0019985Y0180266D01*
X0019929Y0180283D01*
X0019875Y0180304D01*
X0019822Y0180328D01*
X0019771Y0180355D01*
X0019721Y0180386D01*
X0019674Y0180420D01*
X0019629Y0180457D01*
X0019586Y0180496D01*
X0019547Y0180539D01*
X0019510Y0180584D01*
X0019476Y0180631D01*
X0019445Y0180681D01*
X0019418Y0180732D01*
X0019394Y0180785D01*
X0019373Y0180839D01*
X0019356Y0180895D01*
X0019343Y0180952D01*
X0019334Y0181009D01*
X0019328Y0181067D01*
X0019326Y0181125D01*
X0019326Y0183347D01*
X0019328Y0183405D01*
X0019334Y0183463D01*
X0019343Y0183520D01*
X0019356Y0183577D01*
X0019373Y0183633D01*
X0019394Y0183687D01*
X0019418Y0183740D01*
X0019445Y0183791D01*
X0019476Y0183841D01*
X0019510Y0183888D01*
X0019547Y0183933D01*
X0019586Y0183976D01*
X0019629Y0184015D01*
X0019674Y0184052D01*
X0019721Y0184086D01*
X0019770Y0184117D01*
X0019822Y0184144D01*
X0019875Y0184168D01*
X0019929Y0184189D01*
X0019985Y0184206D01*
X0020042Y0184219D01*
X0020099Y0184228D01*
X0020157Y0184234D01*
X0020215Y0184236D01*
X0021104Y0184236D01*
X0023099Y0184236D02*
X0023099Y0182458D01*
X0024432Y0182458D01*
X0024432Y0182459D02*
X0024490Y0182457D01*
X0024548Y0182451D01*
X0024605Y0182442D01*
X0024662Y0182429D01*
X0024718Y0182412D01*
X0024772Y0182391D01*
X0024825Y0182367D01*
X0024877Y0182340D01*
X0024926Y0182309D01*
X0024973Y0182275D01*
X0025018Y0182238D01*
X0025061Y0182199D01*
X0025100Y0182156D01*
X0025137Y0182111D01*
X0025171Y0182064D01*
X0025202Y0182015D01*
X0025229Y0181963D01*
X0025253Y0181910D01*
X0025274Y0181856D01*
X0025291Y0181800D01*
X0025304Y0181743D01*
X0025313Y0181686D01*
X0025319Y0181628D01*
X0025321Y0181570D01*
X0025321Y0181125D01*
X0025319Y0181067D01*
X0025313Y0181009D01*
X0025304Y0180952D01*
X0025291Y0180895D01*
X0025274Y0180839D01*
X0025253Y0180785D01*
X0025229Y0180732D01*
X0025202Y0180680D01*
X0025171Y0180631D01*
X0025137Y0180584D01*
X0025100Y0180539D01*
X0025061Y0180496D01*
X0025018Y0180457D01*
X0024973Y0180420D01*
X0024926Y0180386D01*
X0024876Y0180355D01*
X0024825Y0180328D01*
X0024772Y0180304D01*
X0024718Y0180283D01*
X0024662Y0180266D01*
X0024605Y0180253D01*
X0024548Y0180244D01*
X0024490Y0180238D01*
X0024432Y0180236D01*
X0023099Y0180236D01*
X0023099Y0184236D02*
X0025321Y0184236D01*
X0021261Y0143890D02*
X0020372Y0143890D01*
X0020314Y0143888D01*
X0020256Y0143882D01*
X0020199Y0143873D01*
X0020142Y0143860D01*
X0020086Y0143843D01*
X0020032Y0143822D01*
X0019979Y0143798D01*
X0019927Y0143771D01*
X0019878Y0143740D01*
X0019831Y0143706D01*
X0019786Y0143669D01*
X0019743Y0143630D01*
X0019704Y0143587D01*
X0019667Y0143542D01*
X0019633Y0143495D01*
X0019602Y0143445D01*
X0019575Y0143394D01*
X0019551Y0143341D01*
X0019530Y0143287D01*
X0019513Y0143231D01*
X0019500Y0143174D01*
X0019491Y0143117D01*
X0019485Y0143059D01*
X0019483Y0143001D01*
X0019484Y0143001D02*
X0019484Y0140779D01*
X0019483Y0140779D02*
X0019485Y0140721D01*
X0019491Y0140663D01*
X0019500Y0140606D01*
X0019513Y0140549D01*
X0019530Y0140493D01*
X0019551Y0140439D01*
X0019575Y0140386D01*
X0019602Y0140335D01*
X0019633Y0140285D01*
X0019667Y0140238D01*
X0019704Y0140193D01*
X0019743Y0140150D01*
X0019786Y0140111D01*
X0019831Y0140074D01*
X0019878Y0140040D01*
X0019928Y0140009D01*
X0019979Y0139982D01*
X0020032Y0139958D01*
X0020086Y0139937D01*
X0020142Y0139920D01*
X0020199Y0139907D01*
X0020256Y0139898D01*
X0020314Y0139892D01*
X0020372Y0139890D01*
X0021261Y0139890D01*
X0023256Y0139890D02*
X0025479Y0139890D01*
X0023256Y0139890D02*
X0025145Y0142112D01*
X0024479Y0143890D02*
X0024409Y0143888D01*
X0024339Y0143882D01*
X0024269Y0143873D01*
X0024200Y0143859D01*
X0024132Y0143842D01*
X0024065Y0143821D01*
X0023999Y0143797D01*
X0023935Y0143769D01*
X0023872Y0143738D01*
X0023811Y0143703D01*
X0023752Y0143664D01*
X0023695Y0143623D01*
X0023641Y0143579D01*
X0023589Y0143532D01*
X0023539Y0143481D01*
X0023493Y0143429D01*
X0023449Y0143374D01*
X0023409Y0143316D01*
X0023372Y0143257D01*
X0023338Y0143195D01*
X0023307Y0143132D01*
X0023280Y0143067D01*
X0023257Y0143001D01*
X0025146Y0142112D02*
X0025189Y0142156D01*
X0025231Y0142203D01*
X0025269Y0142252D01*
X0025304Y0142303D01*
X0025337Y0142356D01*
X0025366Y0142411D01*
X0025392Y0142467D01*
X0025415Y0142525D01*
X0025434Y0142584D01*
X0025450Y0142644D01*
X0025463Y0142705D01*
X0025472Y0142766D01*
X0025477Y0142828D01*
X0025479Y0142890D01*
X0025477Y0142950D01*
X0025472Y0143011D01*
X0025463Y0143070D01*
X0025450Y0143129D01*
X0025434Y0143188D01*
X0025414Y0143245D01*
X0025391Y0143300D01*
X0025364Y0143355D01*
X0025335Y0143407D01*
X0025302Y0143458D01*
X0025266Y0143507D01*
X0025228Y0143553D01*
X0025186Y0143597D01*
X0025142Y0143639D01*
X0025096Y0143677D01*
X0025047Y0143713D01*
X0024996Y0143746D01*
X0024944Y0143775D01*
X0024889Y0143802D01*
X0024834Y0143825D01*
X0024777Y0143845D01*
X0024718Y0143861D01*
X0024659Y0143874D01*
X0024600Y0143883D01*
X0024539Y0143888D01*
X0024479Y0143890D01*
X0030215Y0124083D02*
X0031104Y0124083D01*
X0030215Y0124083D02*
X0030157Y0124081D01*
X0030099Y0124075D01*
X0030042Y0124066D01*
X0029985Y0124053D01*
X0029929Y0124036D01*
X0029875Y0124015D01*
X0029822Y0123991D01*
X0029770Y0123964D01*
X0029721Y0123933D01*
X0029674Y0123899D01*
X0029629Y0123862D01*
X0029586Y0123823D01*
X0029547Y0123780D01*
X0029510Y0123735D01*
X0029476Y0123688D01*
X0029445Y0123638D01*
X0029418Y0123587D01*
X0029394Y0123534D01*
X0029373Y0123480D01*
X0029356Y0123424D01*
X0029343Y0123367D01*
X0029334Y0123310D01*
X0029328Y0123252D01*
X0029326Y0123194D01*
X0029326Y0120972D01*
X0029328Y0120914D01*
X0029334Y0120856D01*
X0029343Y0120799D01*
X0029356Y0120742D01*
X0029373Y0120686D01*
X0029394Y0120632D01*
X0029418Y0120579D01*
X0029445Y0120528D01*
X0029476Y0120478D01*
X0029510Y0120431D01*
X0029547Y0120386D01*
X0029586Y0120343D01*
X0029629Y0120304D01*
X0029674Y0120267D01*
X0029721Y0120233D01*
X0029771Y0120202D01*
X0029822Y0120175D01*
X0029875Y0120151D01*
X0029929Y0120130D01*
X0029985Y0120113D01*
X0030042Y0120100D01*
X0030099Y0120091D01*
X0030157Y0120085D01*
X0030215Y0120083D01*
X0031104Y0120083D01*
X0033099Y0120083D02*
X0035321Y0120083D01*
X0034210Y0120083D02*
X0034210Y0124083D01*
X0033099Y0123194D01*
X0044824Y0087869D02*
X0044824Y0085647D01*
X0042601Y0087535D01*
X0040823Y0086869D02*
X0040825Y0086799D01*
X0040831Y0086729D01*
X0040840Y0086659D01*
X0040854Y0086590D01*
X0040871Y0086522D01*
X0040892Y0086455D01*
X0040916Y0086389D01*
X0040944Y0086325D01*
X0040975Y0086262D01*
X0041010Y0086201D01*
X0041049Y0086142D01*
X0041090Y0086085D01*
X0041134Y0086031D01*
X0041181Y0085979D01*
X0041232Y0085929D01*
X0041284Y0085883D01*
X0041339Y0085839D01*
X0041397Y0085799D01*
X0041456Y0085762D01*
X0041518Y0085728D01*
X0041581Y0085697D01*
X0041646Y0085670D01*
X0041712Y0085647D01*
X0042602Y0087536D02*
X0042558Y0087579D01*
X0042511Y0087621D01*
X0042462Y0087659D01*
X0042411Y0087694D01*
X0042358Y0087727D01*
X0042303Y0087756D01*
X0042247Y0087782D01*
X0042189Y0087805D01*
X0042130Y0087824D01*
X0042070Y0087840D01*
X0042009Y0087853D01*
X0041948Y0087862D01*
X0041886Y0087867D01*
X0041824Y0087869D01*
X0041764Y0087867D01*
X0041703Y0087862D01*
X0041644Y0087853D01*
X0041585Y0087840D01*
X0041526Y0087824D01*
X0041469Y0087804D01*
X0041414Y0087781D01*
X0041359Y0087754D01*
X0041307Y0087725D01*
X0041256Y0087692D01*
X0041207Y0087656D01*
X0041161Y0087618D01*
X0041117Y0087576D01*
X0041075Y0087532D01*
X0041037Y0087486D01*
X0041001Y0087437D01*
X0040968Y0087386D01*
X0040939Y0087334D01*
X0040912Y0087279D01*
X0040889Y0087224D01*
X0040869Y0087167D01*
X0040853Y0087108D01*
X0040840Y0087049D01*
X0040831Y0086990D01*
X0040826Y0086929D01*
X0040824Y0086869D01*
X0043157Y0083074D02*
X0042490Y0081852D01*
X0040823Y0082297D02*
X0040825Y0082374D01*
X0040830Y0082450D01*
X0040839Y0082526D01*
X0040851Y0082602D01*
X0040867Y0082677D01*
X0040886Y0082751D01*
X0040909Y0082824D01*
X0040934Y0082896D01*
X0040964Y0082967D01*
X0040996Y0083037D01*
X0041032Y0083104D01*
X0041070Y0083171D01*
X0041112Y0083235D01*
X0041156Y0083297D01*
X0042491Y0081852D02*
X0042460Y0081802D01*
X0042425Y0081755D01*
X0042388Y0081710D01*
X0042347Y0081667D01*
X0042304Y0081627D01*
X0042259Y0081591D01*
X0042211Y0081557D01*
X0042161Y0081526D01*
X0042109Y0081499D01*
X0042056Y0081475D01*
X0042001Y0081454D01*
X0041945Y0081437D01*
X0041888Y0081424D01*
X0041830Y0081415D01*
X0041772Y0081409D01*
X0041713Y0081407D01*
X0041713Y0081408D02*
X0041655Y0081410D01*
X0041597Y0081416D01*
X0041540Y0081425D01*
X0041483Y0081438D01*
X0041427Y0081455D01*
X0041373Y0081476D01*
X0041320Y0081500D01*
X0041269Y0081527D01*
X0041219Y0081558D01*
X0041172Y0081592D01*
X0041127Y0081629D01*
X0041084Y0081668D01*
X0041045Y0081711D01*
X0041008Y0081756D01*
X0040974Y0081803D01*
X0040943Y0081853D01*
X0040916Y0081904D01*
X0040892Y0081957D01*
X0040871Y0082011D01*
X0040854Y0082067D01*
X0040841Y0082124D01*
X0040832Y0082181D01*
X0040826Y0082239D01*
X0040824Y0082297D01*
X0044268Y0081297D02*
X0044326Y0081356D01*
X0044380Y0081418D01*
X0044432Y0081482D01*
X0044481Y0081548D01*
X0044527Y0081616D01*
X0044570Y0081686D01*
X0044610Y0081759D01*
X0044646Y0081832D01*
X0044680Y0081908D01*
X0044710Y0081984D01*
X0044736Y0082062D01*
X0044759Y0082141D01*
X0044779Y0082221D01*
X0044795Y0082302D01*
X0044808Y0082384D01*
X0044817Y0082465D01*
X0044822Y0082548D01*
X0044824Y0082630D01*
X0044822Y0082688D01*
X0044816Y0082746D01*
X0044807Y0082803D01*
X0044794Y0082860D01*
X0044777Y0082916D01*
X0044756Y0082970D01*
X0044732Y0083023D01*
X0044705Y0083075D01*
X0044674Y0083124D01*
X0044640Y0083171D01*
X0044603Y0083216D01*
X0044564Y0083259D01*
X0044521Y0083298D01*
X0044476Y0083335D01*
X0044429Y0083369D01*
X0044380Y0083400D01*
X0044328Y0083427D01*
X0044275Y0083451D01*
X0044221Y0083472D01*
X0044165Y0083489D01*
X0044108Y0083502D01*
X0044051Y0083511D01*
X0043993Y0083517D01*
X0043935Y0083519D01*
X0043876Y0083517D01*
X0043818Y0083511D01*
X0043760Y0083502D01*
X0043703Y0083489D01*
X0043647Y0083472D01*
X0043592Y0083451D01*
X0043539Y0083427D01*
X0043487Y0083400D01*
X0043437Y0083369D01*
X0043389Y0083335D01*
X0043344Y0083299D01*
X0043301Y0083259D01*
X0043260Y0083216D01*
X0043223Y0083171D01*
X0043188Y0083124D01*
X0043157Y0083074D01*
D12*
X0047717Y0110646D02*
X0047717Y0118520D01*
X0114324Y0091583D02*
X0114324Y0087583D01*
X0114824Y0087083D01*
X0114324Y0086583D01*
X0114324Y0082583D01*
X0114824Y0082083D01*
X0114324Y0081583D01*
X0114324Y0077583D01*
X0114824Y0077083D01*
X0114324Y0076583D01*
X0114324Y0072583D01*
X0114824Y0072083D01*
X0114324Y0071583D01*
X0114324Y0067583D01*
X0115324Y0066583D01*
X0119324Y0066583D01*
X0119824Y0067083D01*
X0120324Y0066583D01*
X0124324Y0066583D01*
X0125324Y0067583D01*
X0125324Y0071583D01*
X0124824Y0072083D01*
X0125324Y0072583D01*
X0125324Y0076583D01*
X0124824Y0077083D01*
X0125324Y0077583D01*
X0125324Y0081583D01*
X0124824Y0082083D01*
X0125324Y0082583D01*
X0125324Y0086583D01*
X0124824Y0087083D01*
X0125324Y0087583D01*
X0125324Y0091583D01*
X0124324Y0092583D01*
X0120324Y0092583D01*
X0119824Y0092083D01*
X0119324Y0092583D01*
X0115324Y0092583D01*
X0114324Y0091583D01*
X0126324Y0071583D02*
X0126324Y0067583D01*
D13*
X0039824Y0189583D02*
X0042324Y0192083D01*
X0042324Y0197083D01*
X0039824Y0199583D01*
X0042324Y0202083D01*
X0042324Y0207083D01*
X0039824Y0209583D01*
X0034824Y0209583D01*
X0032324Y0207083D01*
X0029824Y0209583D01*
X0024824Y0209583D01*
X0022324Y0207083D01*
X0022324Y0202083D01*
X0024824Y0199583D01*
X0029824Y0199583D01*
X0032324Y0202083D01*
X0034824Y0199583D01*
X0039824Y0199583D01*
X0034824Y0199583D01*
X0032324Y0197083D01*
X0029824Y0199583D01*
X0024824Y0199583D01*
X0022324Y0197083D01*
X0022324Y0192083D01*
X0024824Y0189583D01*
X0029824Y0189583D01*
X0032324Y0192083D01*
X0034824Y0189583D01*
X0039824Y0189583D01*
X0039824Y0209583D02*
X0034824Y0209583D01*
X0032324Y0212083D01*
X0029824Y0209583D01*
X0024824Y0209583D01*
X0022324Y0212083D01*
X0022324Y0217083D01*
X0024824Y0219583D01*
X0029824Y0219583D01*
X0032324Y0222083D01*
X0034824Y0219583D01*
X0039824Y0219583D01*
X0042324Y0222083D01*
X0042324Y0227083D01*
X0039824Y0229583D01*
X0034824Y0229583D01*
X0032324Y0227083D01*
X0029824Y0229583D01*
X0024824Y0229583D01*
X0022324Y0227083D01*
X0022324Y0222083D01*
X0024824Y0219583D01*
X0029824Y0219583D01*
X0032324Y0217083D01*
X0034824Y0219583D01*
X0039824Y0219583D01*
X0042324Y0217083D01*
X0042324Y0212083D01*
X0039824Y0209583D01*
X0083780Y0207043D02*
X0090867Y0207043D01*
X0094292Y0207043D02*
X0094292Y0202122D01*
X0090867Y0202122D02*
X0083780Y0202122D01*
X0031371Y0096583D02*
X0023324Y0096583D01*
X0015324Y0093083D02*
X0015324Y0076083D01*
X0023324Y0072583D02*
X0031253Y0072583D01*
X0039324Y0076083D02*
X0039324Y0093083D01*
X0020324Y0084583D02*
X0020326Y0084755D01*
X0020332Y0084926D01*
X0020343Y0085098D01*
X0020358Y0085269D01*
X0020377Y0085440D01*
X0020400Y0085610D01*
X0020427Y0085780D01*
X0020459Y0085949D01*
X0020494Y0086117D01*
X0020534Y0086284D01*
X0020578Y0086450D01*
X0020625Y0086615D01*
X0020677Y0086779D01*
X0020733Y0086941D01*
X0020793Y0087102D01*
X0020857Y0087262D01*
X0020925Y0087420D01*
X0020996Y0087576D01*
X0021071Y0087730D01*
X0021151Y0087883D01*
X0021233Y0088033D01*
X0021320Y0088182D01*
X0021410Y0088328D01*
X0021504Y0088472D01*
X0021601Y0088614D01*
X0021702Y0088753D01*
X0021806Y0088890D01*
X0021913Y0089024D01*
X0022024Y0089155D01*
X0022137Y0089284D01*
X0022254Y0089410D01*
X0022374Y0089533D01*
X0022497Y0089653D01*
X0022623Y0089770D01*
X0022752Y0089883D01*
X0022883Y0089994D01*
X0023017Y0090101D01*
X0023154Y0090205D01*
X0023293Y0090306D01*
X0023435Y0090403D01*
X0023579Y0090497D01*
X0023725Y0090587D01*
X0023874Y0090674D01*
X0024024Y0090756D01*
X0024177Y0090836D01*
X0024331Y0090911D01*
X0024487Y0090982D01*
X0024645Y0091050D01*
X0024805Y0091114D01*
X0024966Y0091174D01*
X0025128Y0091230D01*
X0025292Y0091282D01*
X0025457Y0091329D01*
X0025623Y0091373D01*
X0025790Y0091413D01*
X0025958Y0091448D01*
X0026127Y0091480D01*
X0026297Y0091507D01*
X0026467Y0091530D01*
X0026638Y0091549D01*
X0026809Y0091564D01*
X0026981Y0091575D01*
X0027152Y0091581D01*
X0027324Y0091583D01*
X0027496Y0091581D01*
X0027667Y0091575D01*
X0027839Y0091564D01*
X0028010Y0091549D01*
X0028181Y0091530D01*
X0028351Y0091507D01*
X0028521Y0091480D01*
X0028690Y0091448D01*
X0028858Y0091413D01*
X0029025Y0091373D01*
X0029191Y0091329D01*
X0029356Y0091282D01*
X0029520Y0091230D01*
X0029682Y0091174D01*
X0029843Y0091114D01*
X0030003Y0091050D01*
X0030161Y0090982D01*
X0030317Y0090911D01*
X0030471Y0090836D01*
X0030624Y0090756D01*
X0030774Y0090674D01*
X0030923Y0090587D01*
X0031069Y0090497D01*
X0031213Y0090403D01*
X0031355Y0090306D01*
X0031494Y0090205D01*
X0031631Y0090101D01*
X0031765Y0089994D01*
X0031896Y0089883D01*
X0032025Y0089770D01*
X0032151Y0089653D01*
X0032274Y0089533D01*
X0032394Y0089410D01*
X0032511Y0089284D01*
X0032624Y0089155D01*
X0032735Y0089024D01*
X0032842Y0088890D01*
X0032946Y0088753D01*
X0033047Y0088614D01*
X0033144Y0088472D01*
X0033238Y0088328D01*
X0033328Y0088182D01*
X0033415Y0088033D01*
X0033497Y0087883D01*
X0033577Y0087730D01*
X0033652Y0087576D01*
X0033723Y0087420D01*
X0033791Y0087262D01*
X0033855Y0087102D01*
X0033915Y0086941D01*
X0033971Y0086779D01*
X0034023Y0086615D01*
X0034070Y0086450D01*
X0034114Y0086284D01*
X0034154Y0086117D01*
X0034189Y0085949D01*
X0034221Y0085780D01*
X0034248Y0085610D01*
X0034271Y0085440D01*
X0034290Y0085269D01*
X0034305Y0085098D01*
X0034316Y0084926D01*
X0034322Y0084755D01*
X0034324Y0084583D01*
X0034322Y0084411D01*
X0034316Y0084240D01*
X0034305Y0084068D01*
X0034290Y0083897D01*
X0034271Y0083726D01*
X0034248Y0083556D01*
X0034221Y0083386D01*
X0034189Y0083217D01*
X0034154Y0083049D01*
X0034114Y0082882D01*
X0034070Y0082716D01*
X0034023Y0082551D01*
X0033971Y0082387D01*
X0033915Y0082225D01*
X0033855Y0082064D01*
X0033791Y0081904D01*
X0033723Y0081746D01*
X0033652Y0081590D01*
X0033577Y0081436D01*
X0033497Y0081283D01*
X0033415Y0081133D01*
X0033328Y0080984D01*
X0033238Y0080838D01*
X0033144Y0080694D01*
X0033047Y0080552D01*
X0032946Y0080413D01*
X0032842Y0080276D01*
X0032735Y0080142D01*
X0032624Y0080011D01*
X0032511Y0079882D01*
X0032394Y0079756D01*
X0032274Y0079633D01*
X0032151Y0079513D01*
X0032025Y0079396D01*
X0031896Y0079283D01*
X0031765Y0079172D01*
X0031631Y0079065D01*
X0031494Y0078961D01*
X0031355Y0078860D01*
X0031213Y0078763D01*
X0031069Y0078669D01*
X0030923Y0078579D01*
X0030774Y0078492D01*
X0030624Y0078410D01*
X0030471Y0078330D01*
X0030317Y0078255D01*
X0030161Y0078184D01*
X0030003Y0078116D01*
X0029843Y0078052D01*
X0029682Y0077992D01*
X0029520Y0077936D01*
X0029356Y0077884D01*
X0029191Y0077837D01*
X0029025Y0077793D01*
X0028858Y0077753D01*
X0028690Y0077718D01*
X0028521Y0077686D01*
X0028351Y0077659D01*
X0028181Y0077636D01*
X0028010Y0077617D01*
X0027839Y0077602D01*
X0027667Y0077591D01*
X0027496Y0077585D01*
X0027324Y0077583D01*
X0027152Y0077585D01*
X0026981Y0077591D01*
X0026809Y0077602D01*
X0026638Y0077617D01*
X0026467Y0077636D01*
X0026297Y0077659D01*
X0026127Y0077686D01*
X0025958Y0077718D01*
X0025790Y0077753D01*
X0025623Y0077793D01*
X0025457Y0077837D01*
X0025292Y0077884D01*
X0025128Y0077936D01*
X0024966Y0077992D01*
X0024805Y0078052D01*
X0024645Y0078116D01*
X0024487Y0078184D01*
X0024331Y0078255D01*
X0024177Y0078330D01*
X0024024Y0078410D01*
X0023874Y0078492D01*
X0023725Y0078579D01*
X0023579Y0078669D01*
X0023435Y0078763D01*
X0023293Y0078860D01*
X0023154Y0078961D01*
X0023017Y0079065D01*
X0022883Y0079172D01*
X0022752Y0079283D01*
X0022623Y0079396D01*
X0022497Y0079513D01*
X0022374Y0079633D01*
X0022254Y0079756D01*
X0022137Y0079882D01*
X0022024Y0080011D01*
X0021913Y0080142D01*
X0021806Y0080276D01*
X0021702Y0080413D01*
X0021601Y0080552D01*
X0021504Y0080694D01*
X0021410Y0080838D01*
X0021320Y0080984D01*
X0021233Y0081133D01*
X0021151Y0081283D01*
X0021071Y0081436D01*
X0020996Y0081590D01*
X0020925Y0081746D01*
X0020857Y0081904D01*
X0020793Y0082064D01*
X0020733Y0082225D01*
X0020677Y0082387D01*
X0020625Y0082551D01*
X0020578Y0082716D01*
X0020534Y0082882D01*
X0020494Y0083049D01*
X0020459Y0083217D01*
X0020427Y0083386D01*
X0020400Y0083556D01*
X0020377Y0083726D01*
X0020358Y0083897D01*
X0020343Y0084068D01*
X0020332Y0084240D01*
X0020326Y0084411D01*
X0020324Y0084583D01*
D14*
X0061576Y0076591D02*
X0093072Y0076591D01*
D15*
X0091103Y0086039D03*
D16*
X0104604Y0117401D02*
X0104604Y0122001D01*
X0105881Y0122001D02*
X0103326Y0122001D01*
X0103742Y0127007D02*
X0103742Y0131607D01*
X0105019Y0131607D01*
X0105089Y0131605D01*
X0105160Y0131599D01*
X0105229Y0131590D01*
X0105298Y0131576D01*
X0105367Y0131559D01*
X0105434Y0131538D01*
X0105500Y0131513D01*
X0105564Y0131485D01*
X0105627Y0131453D01*
X0105688Y0131418D01*
X0105747Y0131379D01*
X0105804Y0131338D01*
X0105858Y0131293D01*
X0105910Y0131245D01*
X0105959Y0131195D01*
X0106006Y0131141D01*
X0106049Y0131086D01*
X0106089Y0131028D01*
X0106126Y0130968D01*
X0106159Y0130906D01*
X0106189Y0130842D01*
X0106216Y0130777D01*
X0106239Y0130711D01*
X0106258Y0130643D01*
X0106273Y0130574D01*
X0106285Y0130505D01*
X0106293Y0130435D01*
X0106297Y0130364D01*
X0106297Y0130294D01*
X0106293Y0130223D01*
X0106285Y0130153D01*
X0106273Y0130084D01*
X0106258Y0130015D01*
X0106239Y0129947D01*
X0106216Y0129881D01*
X0106189Y0129816D01*
X0106159Y0129752D01*
X0106126Y0129690D01*
X0106089Y0129630D01*
X0106049Y0129572D01*
X0106006Y0129517D01*
X0105959Y0129463D01*
X0105910Y0129413D01*
X0105858Y0129365D01*
X0105804Y0129320D01*
X0105747Y0129279D01*
X0105688Y0129240D01*
X0105627Y0129205D01*
X0105564Y0129173D01*
X0105500Y0129145D01*
X0105434Y0129120D01*
X0105367Y0129099D01*
X0105298Y0129082D01*
X0105229Y0129068D01*
X0105160Y0129059D01*
X0105089Y0129053D01*
X0105019Y0129051D01*
X0105019Y0129052D02*
X0103742Y0129052D01*
X0105275Y0129052D02*
X0106297Y0127007D01*
X0107957Y0127007D02*
X0111024Y0131607D01*
X0107957Y0131607D02*
X0111024Y0127007D01*
X0110337Y0122001D02*
X0107270Y0117401D01*
X0110337Y0117401D02*
X0107270Y0122001D01*
X0114263Y0114166D02*
X0115541Y0114166D01*
X0115611Y0114164D01*
X0115682Y0114158D01*
X0115751Y0114149D01*
X0115820Y0114135D01*
X0115889Y0114118D01*
X0115956Y0114097D01*
X0116022Y0114072D01*
X0116086Y0114044D01*
X0116149Y0114012D01*
X0116210Y0113977D01*
X0116269Y0113938D01*
X0116326Y0113897D01*
X0116380Y0113852D01*
X0116432Y0113804D01*
X0116481Y0113754D01*
X0116528Y0113700D01*
X0116571Y0113645D01*
X0116611Y0113587D01*
X0116648Y0113527D01*
X0116681Y0113465D01*
X0116711Y0113401D01*
X0116738Y0113336D01*
X0116761Y0113270D01*
X0116780Y0113202D01*
X0116795Y0113133D01*
X0116807Y0113064D01*
X0116815Y0112994D01*
X0116819Y0112923D01*
X0116819Y0112853D01*
X0116815Y0112782D01*
X0116807Y0112712D01*
X0116795Y0112643D01*
X0116780Y0112574D01*
X0116761Y0112506D01*
X0116738Y0112440D01*
X0116711Y0112375D01*
X0116681Y0112311D01*
X0116648Y0112249D01*
X0116611Y0112189D01*
X0116571Y0112131D01*
X0116528Y0112076D01*
X0116481Y0112022D01*
X0116432Y0111972D01*
X0116380Y0111924D01*
X0116326Y0111879D01*
X0116269Y0111838D01*
X0116210Y0111799D01*
X0116149Y0111764D01*
X0116086Y0111732D01*
X0116022Y0111704D01*
X0115956Y0111679D01*
X0115889Y0111658D01*
X0115820Y0111641D01*
X0115751Y0111627D01*
X0115682Y0111618D01*
X0115611Y0111612D01*
X0115541Y0111610D01*
X0115541Y0111611D02*
X0114263Y0111611D01*
X0115796Y0111611D02*
X0116819Y0109566D01*
X0118734Y0110844D02*
X0118734Y0112122D01*
X0120267Y0112122D01*
X0118735Y0112122D02*
X0118737Y0112211D01*
X0118743Y0112300D01*
X0118752Y0112389D01*
X0118766Y0112477D01*
X0118783Y0112564D01*
X0118805Y0112651D01*
X0118830Y0112737D01*
X0118858Y0112821D01*
X0118891Y0112904D01*
X0118927Y0112986D01*
X0118966Y0113066D01*
X0119009Y0113144D01*
X0119055Y0113220D01*
X0119105Y0113294D01*
X0119157Y0113366D01*
X0119213Y0113436D01*
X0119272Y0113503D01*
X0119334Y0113567D01*
X0119398Y0113629D01*
X0119465Y0113688D01*
X0119535Y0113744D01*
X0119607Y0113796D01*
X0119681Y0113846D01*
X0119757Y0113892D01*
X0119835Y0113935D01*
X0119915Y0113974D01*
X0119997Y0114010D01*
X0120080Y0114043D01*
X0120164Y0114071D01*
X0120250Y0114096D01*
X0120337Y0114118D01*
X0120424Y0114135D01*
X0120512Y0114149D01*
X0120601Y0114158D01*
X0120690Y0114164D01*
X0120779Y0114166D01*
X0121290Y0111099D02*
X0121290Y0110844D01*
X0121289Y0111099D02*
X0121287Y0111161D01*
X0121282Y0111222D01*
X0121272Y0111283D01*
X0121259Y0111344D01*
X0121243Y0111403D01*
X0121223Y0111461D01*
X0121199Y0111518D01*
X0121172Y0111574D01*
X0121142Y0111628D01*
X0121108Y0111680D01*
X0121072Y0111729D01*
X0121032Y0111777D01*
X0120990Y0111822D01*
X0120945Y0111864D01*
X0120897Y0111904D01*
X0120848Y0111940D01*
X0120796Y0111974D01*
X0120742Y0112004D01*
X0120686Y0112031D01*
X0120629Y0112055D01*
X0120571Y0112075D01*
X0120512Y0112091D01*
X0120451Y0112104D01*
X0120390Y0112114D01*
X0120329Y0112119D01*
X0120267Y0112121D01*
X0121290Y0110844D02*
X0121288Y0110774D01*
X0121282Y0110703D01*
X0121273Y0110634D01*
X0121259Y0110565D01*
X0121242Y0110496D01*
X0121221Y0110429D01*
X0121196Y0110363D01*
X0121168Y0110299D01*
X0121136Y0110236D01*
X0121101Y0110175D01*
X0121062Y0110116D01*
X0121021Y0110059D01*
X0120976Y0110005D01*
X0120928Y0109953D01*
X0120878Y0109904D01*
X0120824Y0109857D01*
X0120769Y0109814D01*
X0120711Y0109774D01*
X0120651Y0109737D01*
X0120589Y0109704D01*
X0120525Y0109674D01*
X0120460Y0109647D01*
X0120394Y0109624D01*
X0120326Y0109605D01*
X0120257Y0109590D01*
X0120188Y0109578D01*
X0120118Y0109570D01*
X0120047Y0109566D01*
X0119977Y0109566D01*
X0119906Y0109570D01*
X0119836Y0109578D01*
X0119767Y0109590D01*
X0119698Y0109605D01*
X0119630Y0109624D01*
X0119564Y0109647D01*
X0119499Y0109674D01*
X0119435Y0109704D01*
X0119373Y0109737D01*
X0119313Y0109774D01*
X0119255Y0109814D01*
X0119200Y0109857D01*
X0119146Y0109904D01*
X0119096Y0109953D01*
X0119048Y0110005D01*
X0119003Y0110059D01*
X0118962Y0110116D01*
X0118923Y0110175D01*
X0118888Y0110236D01*
X0118856Y0110299D01*
X0118828Y0110363D01*
X0118803Y0110429D01*
X0118782Y0110496D01*
X0118765Y0110565D01*
X0118751Y0110634D01*
X0118742Y0110703D01*
X0118736Y0110774D01*
X0118734Y0110844D01*
X0114263Y0109566D02*
X0114263Y0114166D01*
X0099120Y0154659D02*
X0095798Y0154659D01*
X0095798Y0157214D02*
X0099120Y0157214D01*
X0099190Y0157212D01*
X0099261Y0157206D01*
X0099330Y0157197D01*
X0099399Y0157183D01*
X0099468Y0157166D01*
X0099535Y0157145D01*
X0099601Y0157120D01*
X0099665Y0157092D01*
X0099728Y0157060D01*
X0099789Y0157025D01*
X0099848Y0156986D01*
X0099905Y0156945D01*
X0099959Y0156900D01*
X0100011Y0156852D01*
X0100060Y0156802D01*
X0100107Y0156748D01*
X0100150Y0156693D01*
X0100190Y0156635D01*
X0100227Y0156575D01*
X0100260Y0156513D01*
X0100290Y0156449D01*
X0100317Y0156384D01*
X0100340Y0156318D01*
X0100359Y0156250D01*
X0100374Y0156181D01*
X0100386Y0156112D01*
X0100394Y0156042D01*
X0100398Y0155971D01*
X0100398Y0155901D01*
X0100394Y0155830D01*
X0100386Y0155760D01*
X0100374Y0155691D01*
X0100359Y0155622D01*
X0100340Y0155554D01*
X0100317Y0155488D01*
X0100290Y0155423D01*
X0100260Y0155359D01*
X0100227Y0155297D01*
X0100190Y0155237D01*
X0100150Y0155179D01*
X0100107Y0155124D01*
X0100060Y0155070D01*
X0100011Y0155020D01*
X0099959Y0154972D01*
X0099905Y0154927D01*
X0099848Y0154886D01*
X0099789Y0154847D01*
X0099728Y0154812D01*
X0099665Y0154780D01*
X0099601Y0154752D01*
X0099535Y0154727D01*
X0099468Y0154706D01*
X0099399Y0154689D01*
X0099330Y0154675D01*
X0099261Y0154666D01*
X0099190Y0154660D01*
X0099120Y0154658D01*
X0100398Y0159309D02*
X0100398Y0161864D01*
X0100398Y0160586D02*
X0095798Y0160586D01*
X0096820Y0159309D01*
X0059309Y0212834D02*
X0054709Y0212834D01*
X0054709Y0211556D02*
X0054709Y0214112D01*
X0054709Y0215951D02*
X0057264Y0217484D01*
X0054709Y0219017D01*
X0059309Y0219017D01*
X0059309Y0221156D02*
X0059309Y0223712D01*
X0059309Y0221156D02*
X0056753Y0223328D01*
X0054709Y0222562D02*
X0054711Y0222488D01*
X0054716Y0222414D01*
X0054726Y0222340D01*
X0054739Y0222267D01*
X0054755Y0222194D01*
X0054776Y0222123D01*
X0054800Y0222053D01*
X0054827Y0221984D01*
X0054858Y0221916D01*
X0054892Y0221850D01*
X0054929Y0221786D01*
X0054970Y0221724D01*
X0055014Y0221663D01*
X0055060Y0221606D01*
X0055110Y0221550D01*
X0055162Y0221497D01*
X0055217Y0221447D01*
X0055274Y0221400D01*
X0055334Y0221356D01*
X0055396Y0221314D01*
X0055459Y0221276D01*
X0055525Y0221241D01*
X0055592Y0221210D01*
X0055661Y0221182D01*
X0055731Y0221157D01*
X0056753Y0223328D02*
X0056706Y0223375D01*
X0056656Y0223419D01*
X0056604Y0223461D01*
X0056550Y0223500D01*
X0056494Y0223535D01*
X0056436Y0223568D01*
X0056376Y0223598D01*
X0056315Y0223624D01*
X0056252Y0223647D01*
X0056188Y0223666D01*
X0056124Y0223682D01*
X0056058Y0223695D01*
X0055992Y0223704D01*
X0055926Y0223709D01*
X0055859Y0223711D01*
X0055859Y0223712D02*
X0055792Y0223710D01*
X0055725Y0223704D01*
X0055659Y0223695D01*
X0055594Y0223681D01*
X0055529Y0223664D01*
X0055466Y0223643D01*
X0055404Y0223618D01*
X0055343Y0223590D01*
X0055284Y0223558D01*
X0055227Y0223523D01*
X0055172Y0223484D01*
X0055120Y0223443D01*
X0055070Y0223398D01*
X0055023Y0223351D01*
X0054978Y0223301D01*
X0054937Y0223249D01*
X0054898Y0223194D01*
X0054863Y0223137D01*
X0054831Y0223078D01*
X0054803Y0223017D01*
X0054778Y0222955D01*
X0054757Y0222892D01*
X0054740Y0222827D01*
X0054726Y0222762D01*
X0054717Y0222696D01*
X0054711Y0222629D01*
X0054709Y0222562D01*
X0054709Y0215951D02*
X0059309Y0215951D01*
X0039753Y0147198D02*
X0038476Y0147198D01*
X0038476Y0142598D01*
X0038476Y0144642D02*
X0039753Y0144642D01*
X0040009Y0144642D02*
X0041031Y0142598D01*
X0042947Y0142598D02*
X0045502Y0142598D01*
X0042947Y0142598D02*
X0045119Y0145153D01*
X0044352Y0147197D02*
X0044278Y0147195D01*
X0044204Y0147190D01*
X0044130Y0147180D01*
X0044057Y0147167D01*
X0043984Y0147151D01*
X0043913Y0147130D01*
X0043843Y0147106D01*
X0043774Y0147079D01*
X0043706Y0147048D01*
X0043640Y0147014D01*
X0043576Y0146977D01*
X0043514Y0146936D01*
X0043454Y0146892D01*
X0043396Y0146846D01*
X0043340Y0146796D01*
X0043287Y0146744D01*
X0043237Y0146689D01*
X0043190Y0146632D01*
X0043146Y0146572D01*
X0043104Y0146510D01*
X0043066Y0146447D01*
X0043031Y0146381D01*
X0043000Y0146314D01*
X0042972Y0146245D01*
X0042947Y0146175D01*
X0045119Y0145154D02*
X0045166Y0145201D01*
X0045210Y0145251D01*
X0045252Y0145303D01*
X0045291Y0145357D01*
X0045326Y0145413D01*
X0045359Y0145471D01*
X0045389Y0145531D01*
X0045415Y0145592D01*
X0045438Y0145655D01*
X0045457Y0145719D01*
X0045473Y0145783D01*
X0045486Y0145849D01*
X0045495Y0145915D01*
X0045500Y0145981D01*
X0045502Y0146048D01*
X0045500Y0146115D01*
X0045494Y0146182D01*
X0045485Y0146248D01*
X0045471Y0146313D01*
X0045454Y0146378D01*
X0045433Y0146441D01*
X0045408Y0146503D01*
X0045380Y0146564D01*
X0045348Y0146623D01*
X0045313Y0146680D01*
X0045274Y0146735D01*
X0045233Y0146787D01*
X0045188Y0146837D01*
X0045141Y0146884D01*
X0045091Y0146929D01*
X0045039Y0146970D01*
X0044984Y0147009D01*
X0044927Y0147044D01*
X0044868Y0147076D01*
X0044807Y0147104D01*
X0044745Y0147129D01*
X0044682Y0147150D01*
X0044617Y0147167D01*
X0044552Y0147181D01*
X0044486Y0147190D01*
X0044419Y0147196D01*
X0044352Y0147198D01*
X0039753Y0147198D02*
X0039823Y0147196D01*
X0039894Y0147190D01*
X0039963Y0147181D01*
X0040032Y0147167D01*
X0040101Y0147150D01*
X0040168Y0147129D01*
X0040234Y0147104D01*
X0040298Y0147076D01*
X0040361Y0147044D01*
X0040422Y0147009D01*
X0040481Y0146970D01*
X0040538Y0146929D01*
X0040592Y0146884D01*
X0040644Y0146836D01*
X0040693Y0146786D01*
X0040740Y0146732D01*
X0040783Y0146677D01*
X0040823Y0146619D01*
X0040860Y0146559D01*
X0040893Y0146497D01*
X0040923Y0146433D01*
X0040950Y0146368D01*
X0040973Y0146302D01*
X0040992Y0146234D01*
X0041007Y0146165D01*
X0041019Y0146096D01*
X0041027Y0146026D01*
X0041031Y0145955D01*
X0041031Y0145885D01*
X0041027Y0145814D01*
X0041019Y0145744D01*
X0041007Y0145675D01*
X0040992Y0145606D01*
X0040973Y0145538D01*
X0040950Y0145472D01*
X0040923Y0145407D01*
X0040893Y0145343D01*
X0040860Y0145281D01*
X0040823Y0145221D01*
X0040783Y0145163D01*
X0040740Y0145108D01*
X0040693Y0145054D01*
X0040644Y0145004D01*
X0040592Y0144956D01*
X0040538Y0144911D01*
X0040481Y0144870D01*
X0040422Y0144831D01*
X0040361Y0144796D01*
X0040298Y0144764D01*
X0040234Y0144736D01*
X0040168Y0144711D01*
X0040101Y0144690D01*
X0040032Y0144673D01*
X0039963Y0144659D01*
X0039894Y0144650D01*
X0039823Y0144644D01*
X0039753Y0144642D01*
X0054568Y0102802D02*
X0057124Y0100630D01*
X0057124Y0103185D01*
X0053546Y0100630D02*
X0053476Y0100655D01*
X0053407Y0100683D01*
X0053340Y0100714D01*
X0053274Y0100749D01*
X0053211Y0100787D01*
X0053149Y0100829D01*
X0053089Y0100873D01*
X0053032Y0100920D01*
X0052977Y0100970D01*
X0052925Y0101023D01*
X0052875Y0101079D01*
X0052829Y0101136D01*
X0052785Y0101197D01*
X0052744Y0101259D01*
X0052707Y0101323D01*
X0052673Y0101389D01*
X0052642Y0101457D01*
X0052615Y0101526D01*
X0052591Y0101596D01*
X0052570Y0101667D01*
X0052554Y0101740D01*
X0052541Y0101813D01*
X0052531Y0101887D01*
X0052526Y0101961D01*
X0052524Y0102035D01*
X0052526Y0102102D01*
X0052532Y0102169D01*
X0052541Y0102235D01*
X0052555Y0102300D01*
X0052572Y0102365D01*
X0052593Y0102428D01*
X0052618Y0102490D01*
X0052646Y0102551D01*
X0052678Y0102610D01*
X0052713Y0102667D01*
X0052752Y0102722D01*
X0052793Y0102774D01*
X0052838Y0102824D01*
X0052885Y0102871D01*
X0052935Y0102916D01*
X0052987Y0102957D01*
X0053042Y0102996D01*
X0053099Y0103031D01*
X0053158Y0103063D01*
X0053219Y0103091D01*
X0053281Y0103116D01*
X0053344Y0103137D01*
X0053409Y0103154D01*
X0053474Y0103168D01*
X0053540Y0103177D01*
X0053607Y0103183D01*
X0053674Y0103185D01*
X0053741Y0103183D01*
X0053807Y0103178D01*
X0053873Y0103169D01*
X0053939Y0103156D01*
X0054003Y0103140D01*
X0054067Y0103121D01*
X0054130Y0103098D01*
X0054191Y0103072D01*
X0054251Y0103042D01*
X0054309Y0103009D01*
X0054365Y0102974D01*
X0054419Y0102935D01*
X0054471Y0102893D01*
X0054521Y0102849D01*
X0054568Y0102802D01*
X0055846Y0098535D02*
X0052524Y0098535D01*
X0052524Y0095980D02*
X0055846Y0095980D01*
X0055916Y0095982D01*
X0055987Y0095988D01*
X0056056Y0095997D01*
X0056125Y0096011D01*
X0056194Y0096028D01*
X0056261Y0096049D01*
X0056327Y0096074D01*
X0056391Y0096102D01*
X0056454Y0096134D01*
X0056515Y0096169D01*
X0056574Y0096208D01*
X0056631Y0096249D01*
X0056685Y0096294D01*
X0056737Y0096342D01*
X0056786Y0096392D01*
X0056833Y0096446D01*
X0056876Y0096501D01*
X0056916Y0096559D01*
X0056953Y0096619D01*
X0056986Y0096681D01*
X0057016Y0096745D01*
X0057043Y0096810D01*
X0057066Y0096876D01*
X0057085Y0096944D01*
X0057100Y0097013D01*
X0057112Y0097082D01*
X0057120Y0097152D01*
X0057124Y0097223D01*
X0057124Y0097293D01*
X0057120Y0097364D01*
X0057112Y0097434D01*
X0057100Y0097503D01*
X0057085Y0097572D01*
X0057066Y0097640D01*
X0057043Y0097706D01*
X0057016Y0097771D01*
X0056986Y0097835D01*
X0056953Y0097897D01*
X0056916Y0097957D01*
X0056876Y0098015D01*
X0056833Y0098070D01*
X0056786Y0098124D01*
X0056737Y0098174D01*
X0056685Y0098222D01*
X0056631Y0098267D01*
X0056574Y0098308D01*
X0056515Y0098347D01*
X0056454Y0098382D01*
X0056391Y0098414D01*
X0056327Y0098442D01*
X0056261Y0098467D01*
X0056194Y0098488D01*
X0056125Y0098505D01*
X0056056Y0098519D01*
X0055987Y0098528D01*
X0055916Y0098534D01*
X0055846Y0098536D01*
X0054160Y0090190D02*
X0054160Y0086612D01*
X0054158Y0086550D01*
X0054153Y0086489D01*
X0054143Y0086428D01*
X0054130Y0086367D01*
X0054114Y0086308D01*
X0054094Y0086250D01*
X0054070Y0086193D01*
X0054043Y0086137D01*
X0054013Y0086083D01*
X0053979Y0086031D01*
X0053943Y0085982D01*
X0053903Y0085934D01*
X0053861Y0085889D01*
X0053816Y0085847D01*
X0053768Y0085807D01*
X0053719Y0085771D01*
X0053667Y0085737D01*
X0053613Y0085707D01*
X0053557Y0085680D01*
X0053500Y0085656D01*
X0053442Y0085636D01*
X0053383Y0085620D01*
X0053322Y0085607D01*
X0053261Y0085597D01*
X0053200Y0085592D01*
X0053138Y0085590D01*
X0052627Y0085590D01*
X0056236Y0085590D02*
X0058792Y0085590D01*
X0056236Y0085590D02*
X0058409Y0088145D01*
X0057642Y0090189D02*
X0057568Y0090187D01*
X0057494Y0090182D01*
X0057420Y0090172D01*
X0057347Y0090159D01*
X0057274Y0090143D01*
X0057203Y0090122D01*
X0057133Y0090098D01*
X0057064Y0090071D01*
X0056996Y0090040D01*
X0056930Y0090006D01*
X0056866Y0089969D01*
X0056804Y0089928D01*
X0056744Y0089884D01*
X0056686Y0089838D01*
X0056630Y0089788D01*
X0056577Y0089736D01*
X0056527Y0089681D01*
X0056480Y0089624D01*
X0056436Y0089564D01*
X0056394Y0089502D01*
X0056356Y0089439D01*
X0056321Y0089373D01*
X0056290Y0089306D01*
X0056262Y0089237D01*
X0056237Y0089167D01*
X0058409Y0088146D02*
X0058456Y0088193D01*
X0058500Y0088243D01*
X0058542Y0088295D01*
X0058581Y0088349D01*
X0058616Y0088405D01*
X0058649Y0088463D01*
X0058679Y0088523D01*
X0058705Y0088584D01*
X0058728Y0088647D01*
X0058747Y0088711D01*
X0058763Y0088775D01*
X0058776Y0088841D01*
X0058785Y0088907D01*
X0058790Y0088973D01*
X0058792Y0089040D01*
X0058790Y0089107D01*
X0058784Y0089174D01*
X0058775Y0089240D01*
X0058761Y0089305D01*
X0058744Y0089370D01*
X0058723Y0089433D01*
X0058698Y0089495D01*
X0058670Y0089556D01*
X0058638Y0089615D01*
X0058603Y0089672D01*
X0058564Y0089727D01*
X0058523Y0089779D01*
X0058478Y0089829D01*
X0058431Y0089876D01*
X0058381Y0089921D01*
X0058329Y0089962D01*
X0058274Y0090001D01*
X0058217Y0090036D01*
X0058158Y0090068D01*
X0058097Y0090096D01*
X0058035Y0090121D01*
X0057972Y0090142D01*
X0057907Y0090159D01*
X0057842Y0090173D01*
X0057776Y0090182D01*
X0057709Y0090188D01*
X0057642Y0090190D01*
D17*
X0043800Y0155173D03*
X0040847Y0155173D03*
D18*
X0042324Y0155173D03*
X0116733Y0129583D03*
X0116733Y0119583D03*
D19*
X0122724Y0156183D02*
X0122724Y0172983D01*
X0112324Y0196883D02*
X0112358Y0196885D01*
X0112391Y0196891D01*
X0112423Y0196900D01*
X0112454Y0196913D01*
X0112484Y0196929D01*
X0112511Y0196948D01*
X0112536Y0196971D01*
X0112559Y0196996D01*
X0112578Y0197023D01*
X0112594Y0197053D01*
X0112607Y0197084D01*
X0112616Y0197116D01*
X0112622Y0197149D01*
X0112624Y0197183D01*
X0112622Y0197217D01*
X0112616Y0197250D01*
X0112607Y0197282D01*
X0112594Y0197313D01*
X0112578Y0197343D01*
X0112559Y0197370D01*
X0112536Y0197395D01*
X0112511Y0197418D01*
X0112484Y0197437D01*
X0112454Y0197453D01*
X0112423Y0197466D01*
X0112391Y0197475D01*
X0112358Y0197481D01*
X0112324Y0197483D01*
X0112290Y0197481D01*
X0112257Y0197475D01*
X0112225Y0197466D01*
X0112194Y0197453D01*
X0112164Y0197437D01*
X0112137Y0197418D01*
X0112112Y0197395D01*
X0112089Y0197370D01*
X0112070Y0197343D01*
X0112054Y0197313D01*
X0112041Y0197282D01*
X0112032Y0197250D01*
X0112026Y0197217D01*
X0112024Y0197183D01*
X0112026Y0197149D01*
X0112032Y0197116D01*
X0112041Y0197084D01*
X0112054Y0197053D01*
X0112070Y0197023D01*
X0112089Y0196996D01*
X0112112Y0196971D01*
X0112137Y0196948D01*
X0112164Y0196929D01*
X0112194Y0196913D01*
X0112225Y0196900D01*
X0112257Y0196891D01*
X0112290Y0196885D01*
X0112324Y0196883D01*
X0106924Y0201683D02*
X0117724Y0201683D01*
X0124224Y0209683D02*
X0124224Y0219483D01*
X0125224Y0219983D02*
X0125224Y0209183D01*
X0117724Y0227483D02*
X0106924Y0227483D01*
X0099424Y0219983D02*
X0099424Y0209183D01*
X0101924Y0172983D02*
X0101924Y0156183D01*
X0085024Y0139283D02*
X0059624Y0139283D01*
X0065808Y0130055D02*
X0088839Y0130055D01*
X0088839Y0089110D01*
X0065808Y0089110D01*
X0065808Y0130055D01*
X0067837Y0126217D02*
X0067839Y0126302D01*
X0067845Y0126386D01*
X0067855Y0126471D01*
X0067869Y0126554D01*
X0067886Y0126637D01*
X0067908Y0126719D01*
X0067934Y0126800D01*
X0067963Y0126880D01*
X0067996Y0126958D01*
X0068032Y0127034D01*
X0068072Y0127109D01*
X0068116Y0127182D01*
X0068163Y0127253D01*
X0068213Y0127321D01*
X0068266Y0127387D01*
X0068323Y0127450D01*
X0068382Y0127511D01*
X0068444Y0127569D01*
X0068509Y0127624D01*
X0068576Y0127676D01*
X0068645Y0127724D01*
X0068717Y0127769D01*
X0068791Y0127811D01*
X0068867Y0127849D01*
X0068944Y0127884D01*
X0069023Y0127915D01*
X0069103Y0127943D01*
X0069185Y0127966D01*
X0069267Y0127986D01*
X0069350Y0128002D01*
X0069434Y0128014D01*
X0069519Y0128022D01*
X0069604Y0128026D01*
X0069688Y0128026D01*
X0069773Y0128022D01*
X0069858Y0128014D01*
X0069942Y0128002D01*
X0070025Y0127986D01*
X0070107Y0127966D01*
X0070189Y0127943D01*
X0070269Y0127915D01*
X0070348Y0127884D01*
X0070425Y0127849D01*
X0070501Y0127811D01*
X0070575Y0127769D01*
X0070647Y0127724D01*
X0070716Y0127676D01*
X0070783Y0127624D01*
X0070848Y0127569D01*
X0070910Y0127511D01*
X0070969Y0127450D01*
X0071026Y0127387D01*
X0071079Y0127321D01*
X0071129Y0127253D01*
X0071176Y0127182D01*
X0071220Y0127109D01*
X0071260Y0127034D01*
X0071296Y0126958D01*
X0071329Y0126880D01*
X0071358Y0126800D01*
X0071384Y0126719D01*
X0071406Y0126637D01*
X0071423Y0126554D01*
X0071437Y0126471D01*
X0071447Y0126386D01*
X0071453Y0126302D01*
X0071455Y0126217D01*
X0071453Y0126132D01*
X0071447Y0126048D01*
X0071437Y0125963D01*
X0071423Y0125880D01*
X0071406Y0125797D01*
X0071384Y0125715D01*
X0071358Y0125634D01*
X0071329Y0125554D01*
X0071296Y0125476D01*
X0071260Y0125400D01*
X0071220Y0125325D01*
X0071176Y0125252D01*
X0071129Y0125181D01*
X0071079Y0125113D01*
X0071026Y0125047D01*
X0070969Y0124984D01*
X0070910Y0124923D01*
X0070848Y0124865D01*
X0070783Y0124810D01*
X0070716Y0124758D01*
X0070647Y0124710D01*
X0070575Y0124665D01*
X0070501Y0124623D01*
X0070425Y0124585D01*
X0070348Y0124550D01*
X0070269Y0124519D01*
X0070189Y0124491D01*
X0070107Y0124468D01*
X0070025Y0124448D01*
X0069942Y0124432D01*
X0069858Y0124420D01*
X0069773Y0124412D01*
X0069688Y0124408D01*
X0069604Y0124408D01*
X0069519Y0124412D01*
X0069434Y0124420D01*
X0069350Y0124432D01*
X0069267Y0124448D01*
X0069185Y0124468D01*
X0069103Y0124491D01*
X0069023Y0124519D01*
X0068944Y0124550D01*
X0068867Y0124585D01*
X0068791Y0124623D01*
X0068717Y0124665D01*
X0068645Y0124710D01*
X0068576Y0124758D01*
X0068509Y0124810D01*
X0068444Y0124865D01*
X0068382Y0124923D01*
X0068323Y0124984D01*
X0068266Y0125047D01*
X0068213Y0125113D01*
X0068163Y0125181D01*
X0068116Y0125252D01*
X0068072Y0125325D01*
X0068032Y0125400D01*
X0067996Y0125476D01*
X0067963Y0125554D01*
X0067934Y0125634D01*
X0067908Y0125715D01*
X0067886Y0125797D01*
X0067869Y0125880D01*
X0067855Y0125963D01*
X0067845Y0126048D01*
X0067839Y0126132D01*
X0067837Y0126217D01*
D20*
X0116733Y0128106D03*
X0116733Y0131059D03*
X0116733Y0121059D03*
X0116733Y0118106D03*
D21*
X0092074Y0140801D02*
X0091074Y0140801D01*
X0091074Y0142301D01*
X0092074Y0142301D01*
X0092074Y0140801D01*
X0092074Y0140855D02*
X0091074Y0140855D01*
X0091074Y0140953D02*
X0092074Y0140953D01*
X0092074Y0141052D02*
X0091074Y0141052D01*
X0091074Y0141150D02*
X0092074Y0141150D01*
X0092074Y0141249D02*
X0091074Y0141249D01*
X0091074Y0141347D02*
X0092074Y0141347D01*
X0092074Y0141446D02*
X0091074Y0141446D01*
X0091074Y0141544D02*
X0092074Y0141544D01*
X0092074Y0141643D02*
X0091074Y0141643D01*
X0091074Y0141741D02*
X0092074Y0141741D01*
X0092074Y0141840D02*
X0091074Y0141840D01*
X0091074Y0141938D02*
X0092074Y0141938D01*
X0092074Y0142037D02*
X0091074Y0142037D01*
X0091074Y0142135D02*
X0092074Y0142135D01*
X0092074Y0142234D02*
X0091074Y0142234D01*
X0091074Y0166392D02*
X0091074Y0167892D01*
X0092074Y0167892D01*
X0092074Y0166392D01*
X0091074Y0166392D01*
X0091074Y0166467D02*
X0092074Y0166467D01*
X0092074Y0166566D02*
X0091074Y0166566D01*
X0091074Y0166664D02*
X0092074Y0166664D01*
X0092074Y0166763D02*
X0091074Y0166763D01*
X0091074Y0166862D02*
X0092074Y0166862D01*
X0092074Y0166960D02*
X0091074Y0166960D01*
X0091074Y0167059D02*
X0092074Y0167059D01*
X0092074Y0167157D02*
X0091074Y0167157D01*
X0091074Y0167256D02*
X0092074Y0167256D01*
X0092074Y0167354D02*
X0091074Y0167354D01*
X0091074Y0167453D02*
X0092074Y0167453D01*
X0092074Y0167551D02*
X0091074Y0167551D01*
X0091074Y0167650D02*
X0092074Y0167650D01*
X0092074Y0167748D02*
X0091074Y0167748D01*
X0091074Y0167847D02*
X0092074Y0167847D01*
X0053574Y0165333D02*
X0052574Y0165333D01*
X0052574Y0163833D01*
X0053574Y0163833D01*
X0053574Y0165333D01*
X0053574Y0165285D02*
X0052574Y0165285D01*
X0052574Y0165187D02*
X0053574Y0165187D01*
X0053574Y0165088D02*
X0052574Y0165088D01*
X0052574Y0164990D02*
X0053574Y0164990D01*
X0053574Y0164891D02*
X0052574Y0164891D01*
X0052574Y0164793D02*
X0053574Y0164793D01*
X0053574Y0164694D02*
X0052574Y0164694D01*
X0052574Y0164596D02*
X0053574Y0164596D01*
X0053574Y0164497D02*
X0052574Y0164497D01*
X0052574Y0164399D02*
X0053574Y0164399D01*
X0053574Y0164300D02*
X0052574Y0164300D01*
X0052574Y0164202D02*
X0053574Y0164202D01*
X0053574Y0164103D02*
X0052574Y0164103D01*
X0052574Y0164005D02*
X0053574Y0164005D01*
X0053574Y0163906D02*
X0052574Y0163906D01*
D22*
X0055793Y0163538D02*
X0055793Y0166933D01*
X0058404Y0166933D02*
X0058404Y0163538D01*
X0058405Y0163538D02*
X0058403Y0163467D01*
X0058397Y0163397D01*
X0058388Y0163327D01*
X0058374Y0163257D01*
X0058357Y0163189D01*
X0058337Y0163121D01*
X0058312Y0163055D01*
X0058284Y0162990D01*
X0058253Y0162926D01*
X0058218Y0162865D01*
X0058180Y0162805D01*
X0058139Y0162748D01*
X0058094Y0162693D01*
X0058047Y0162640D01*
X0057997Y0162590D01*
X0057944Y0162543D01*
X0057889Y0162498D01*
X0057832Y0162457D01*
X0057772Y0162419D01*
X0057711Y0162384D01*
X0057647Y0162353D01*
X0057582Y0162325D01*
X0057516Y0162300D01*
X0057448Y0162280D01*
X0057380Y0162263D01*
X0057310Y0162249D01*
X0057240Y0162240D01*
X0057170Y0162234D01*
X0057099Y0162232D01*
X0057028Y0162234D01*
X0056958Y0162240D01*
X0056888Y0162249D01*
X0056818Y0162263D01*
X0056750Y0162280D01*
X0056682Y0162300D01*
X0056616Y0162325D01*
X0056551Y0162353D01*
X0056487Y0162384D01*
X0056426Y0162419D01*
X0056366Y0162457D01*
X0056309Y0162498D01*
X0056254Y0162543D01*
X0056201Y0162590D01*
X0056151Y0162640D01*
X0056104Y0162693D01*
X0056059Y0162748D01*
X0056018Y0162805D01*
X0055980Y0162865D01*
X0055945Y0162926D01*
X0055914Y0162990D01*
X0055886Y0163055D01*
X0055861Y0163121D01*
X0055841Y0163189D01*
X0055824Y0163257D01*
X0055810Y0163327D01*
X0055801Y0163397D01*
X0055795Y0163467D01*
X0055793Y0163538D01*
X0060443Y0162233D02*
X0061749Y0162233D01*
X0061749Y0162232D02*
X0061820Y0162234D01*
X0061890Y0162240D01*
X0061960Y0162249D01*
X0062030Y0162263D01*
X0062098Y0162280D01*
X0062166Y0162300D01*
X0062232Y0162325D01*
X0062297Y0162353D01*
X0062361Y0162384D01*
X0062422Y0162419D01*
X0062482Y0162457D01*
X0062539Y0162498D01*
X0062594Y0162543D01*
X0062647Y0162590D01*
X0062697Y0162640D01*
X0062744Y0162693D01*
X0062789Y0162748D01*
X0062830Y0162805D01*
X0062868Y0162865D01*
X0062903Y0162926D01*
X0062934Y0162990D01*
X0062962Y0163055D01*
X0062987Y0163121D01*
X0063007Y0163189D01*
X0063024Y0163257D01*
X0063038Y0163327D01*
X0063047Y0163397D01*
X0063053Y0163467D01*
X0063055Y0163538D01*
X0063053Y0163609D01*
X0063047Y0163679D01*
X0063038Y0163749D01*
X0063024Y0163819D01*
X0063007Y0163887D01*
X0062987Y0163955D01*
X0062962Y0164021D01*
X0062934Y0164086D01*
X0062903Y0164150D01*
X0062868Y0164211D01*
X0062830Y0164271D01*
X0062789Y0164328D01*
X0062744Y0164383D01*
X0062697Y0164436D01*
X0062647Y0164486D01*
X0062594Y0164533D01*
X0062539Y0164578D01*
X0062482Y0164619D01*
X0062422Y0164657D01*
X0062361Y0164692D01*
X0062297Y0164723D01*
X0062232Y0164751D01*
X0062166Y0164776D01*
X0062098Y0164796D01*
X0062030Y0164813D01*
X0061960Y0164827D01*
X0061890Y0164836D01*
X0061820Y0164842D01*
X0061749Y0164844D01*
X0062010Y0164844D02*
X0060965Y0164844D01*
X0062010Y0164844D02*
X0062073Y0164846D01*
X0062136Y0164852D01*
X0062198Y0164861D01*
X0062260Y0164874D01*
X0062321Y0164891D01*
X0062380Y0164912D01*
X0062438Y0164936D01*
X0062495Y0164964D01*
X0062550Y0164995D01*
X0062603Y0165029D01*
X0062654Y0165066D01*
X0062702Y0165107D01*
X0062748Y0165150D01*
X0062791Y0165196D01*
X0062832Y0165244D01*
X0062869Y0165295D01*
X0062903Y0165348D01*
X0062934Y0165403D01*
X0062962Y0165460D01*
X0062986Y0165518D01*
X0063007Y0165577D01*
X0063024Y0165638D01*
X0063037Y0165700D01*
X0063046Y0165762D01*
X0063052Y0165825D01*
X0063054Y0165888D01*
X0063052Y0165951D01*
X0063046Y0166014D01*
X0063037Y0166076D01*
X0063024Y0166138D01*
X0063007Y0166199D01*
X0062986Y0166258D01*
X0062962Y0166316D01*
X0062934Y0166373D01*
X0062903Y0166428D01*
X0062869Y0166481D01*
X0062832Y0166532D01*
X0062791Y0166580D01*
X0062748Y0166626D01*
X0062702Y0166669D01*
X0062654Y0166710D01*
X0062603Y0166747D01*
X0062550Y0166781D01*
X0062495Y0166812D01*
X0062438Y0166840D01*
X0062380Y0166864D01*
X0062321Y0166885D01*
X0062260Y0166902D01*
X0062198Y0166915D01*
X0062136Y0166924D01*
X0062073Y0166930D01*
X0062010Y0166932D01*
X0062010Y0166933D02*
X0060443Y0166933D01*
X0057124Y0189285D02*
X0056210Y0190460D01*
X0054774Y0190983D01*
X0056210Y0190460D02*
X0055296Y0189285D01*
X0056210Y0190460D02*
X0057646Y0190983D01*
X0056210Y0190460D02*
X0056210Y0192027D01*
M02*
