%
M48
M72
T01C0.01378
T02C0.03622
T03C0.04000
T04C0.04331
T05C0.06000
T06C0.06300
%
T01
X89602Y121983
X90202Y135783
X105202Y137583
X97402Y156783
X98602Y161583
X98002Y167583
X87202Y173583
X122002Y159183
X122002Y141783
X139402Y162183
X161602Y176583
X167002Y133383
X127402Y103383
X125002Y93783
X119602Y96183
X190840Y53940
T02
X121782Y80921
X111939Y80921
X104065Y80921
X94223Y80921
T03
X51102Y67783
X68902Y67783
X68902Y93383
X64081Y105094
X64081Y115094
X64081Y125094
X64081Y135094
X64002Y145583
X64002Y155583
X54002Y155583
X54002Y145583
X54081Y135094
X54081Y125094
X54081Y115094
X54081Y105094
X51102Y93383
X74081Y105094
X74081Y115094
X74081Y125094
X74081Y135094
X74002Y145583
X74002Y155583
X84002Y155583
X84002Y145583
X84081Y135094
X84081Y125094
X84081Y115094
X84081Y105094
X84002Y210583
X94002Y210583
X116002Y211583
X126002Y211583
X136002Y211583
X146002Y211583
T04
X130443Y72654
X116861Y72654
X99144Y72654
X85561Y72654
T05
X47002Y217583
T06
X37002Y227583
X37002Y207583
X57002Y207583
X57002Y227583
M30
