G75*
%MOIN*%
%OFA0B0*%
%FSLAX25Y25*%
%IPPOS*%
%LPD*%
%AMOC8*
5,1,8,0,0,1.08239X$1,22.5*
%
%ADD10R,0.05906X0.05118*%
%ADD11R,0.05118X0.05906*%
%ADD12R,0.08780X0.09331*%
%ADD13R,0.03150X0.04724*%
%ADD14R,0.04724X0.03150*%
%ADD15R,0.03268X0.02480*%
%ADD16R,0.05500X0.01370*%
%ADD17C,0.05622*%
%ADD18R,0.05622X0.05622*%
%ADD19C,0.06693*%
%ADD20R,0.06600X0.01400*%
%ADD21R,0.03937X0.04331*%
%ADD22C,0.09000*%
%ADD23C,0.09450*%
%ADD24R,0.04724X0.04724*%
%ADD25R,0.02100X0.07800*%
%ADD26R,0.06299X0.05906*%
%ADD27R,0.05000X0.50000*%
%ADD28R,0.05000X0.47500*%
%ADD29C,0.07400*%
%ADD30C,0.01000*%
%ADD31C,0.00600*%
%ADD32C,0.02978*%
D10*
X0057502Y0158576D03*
X0057502Y0166057D03*
X0125002Y0201076D03*
X0125002Y0208557D03*
D11*
X0124743Y0114317D03*
X0117262Y0114317D03*
X0048243Y0146317D03*
X0040762Y0146317D03*
D12*
X0058002Y0184592D03*
X0058002Y0204041D03*
D13*
X0046546Y0117817D03*
X0039459Y0117817D03*
X0117959Y0227817D03*
X0125046Y0227817D03*
D14*
X0099002Y0231273D03*
X0099002Y0238360D03*
X0099502Y0252773D03*
X0099502Y0259860D03*
X0071502Y0260860D03*
X0071502Y0253773D03*
X0120502Y0131360D03*
X0120502Y0124273D03*
D15*
X0085502Y0252289D03*
X0085502Y0261344D03*
D16*
X0095396Y0150950D03*
X0095396Y0148391D03*
X0095396Y0145832D03*
X0095396Y0143273D03*
X0095396Y0140714D03*
X0095396Y0138155D03*
X0095396Y0135596D03*
X0095396Y0133037D03*
X0095396Y0130478D03*
X0095396Y0127919D03*
X0095396Y0125360D03*
X0095396Y0122801D03*
X0095396Y0120242D03*
X0095396Y0117683D03*
X0066609Y0117683D03*
X0066609Y0120242D03*
X0066609Y0122801D03*
X0066609Y0125360D03*
X0066609Y0127919D03*
X0066609Y0130478D03*
X0066609Y0133037D03*
X0066609Y0135596D03*
X0066609Y0138155D03*
X0066609Y0140714D03*
X0066609Y0143273D03*
X0066609Y0145832D03*
X0066609Y0148391D03*
X0066609Y0150950D03*
D17*
X0089223Y0097655D03*
X0099065Y0097655D03*
X0106939Y0097655D03*
D18*
X0116782Y0097655D03*
D19*
X0125443Y0092734D02*
X0125443Y0086041D01*
X0080561Y0086041D02*
X0080561Y0092734D01*
D20*
X0079052Y0165785D03*
X0079052Y0168344D03*
X0079052Y0170903D03*
X0079052Y0173462D03*
X0079052Y0176021D03*
X0079052Y0178580D03*
X0079052Y0181139D03*
X0079052Y0183698D03*
X0079052Y0186258D03*
X0079052Y0188817D03*
X0079052Y0191376D03*
X0079052Y0193935D03*
X0079052Y0196494D03*
X0079052Y0199053D03*
X0079052Y0201612D03*
X0079052Y0204171D03*
X0079052Y0206730D03*
X0079052Y0209289D03*
X0079052Y0211848D03*
X0107952Y0211848D03*
X0107952Y0209289D03*
X0107952Y0206730D03*
X0107952Y0204171D03*
X0107952Y0201612D03*
X0107952Y0199053D03*
X0107952Y0196494D03*
X0107952Y0193935D03*
X0107952Y0191376D03*
X0107952Y0188817D03*
X0107952Y0186258D03*
X0107952Y0183698D03*
X0107952Y0181139D03*
X0107952Y0178580D03*
X0107952Y0176021D03*
X0107952Y0173462D03*
X0107952Y0170903D03*
X0107952Y0168344D03*
X0107952Y0165785D03*
D21*
X0085502Y0231470D03*
X0085502Y0238163D03*
X0071502Y0235970D03*
X0071502Y0242663D03*
D22*
X0047002Y0250817D03*
D23*
X0037002Y0260817D03*
X0037002Y0240817D03*
X0057002Y0240817D03*
X0057002Y0260817D03*
D24*
X0056317Y0226754D03*
X0056317Y0218880D03*
X0048636Y0131317D03*
X0040369Y0131317D03*
X0116869Y0142317D03*
X0116869Y0154817D03*
X0125136Y0154817D03*
X0125136Y0142317D03*
D25*
X0124502Y0240617D03*
X0119502Y0240617D03*
X0114502Y0240617D03*
X0114502Y0260017D03*
X0119502Y0260017D03*
X0124502Y0260017D03*
X0129502Y0260017D03*
X0129502Y0240617D03*
D26*
X0069408Y0222817D03*
D27*
X0088002Y0046817D03*
X0118002Y0046817D03*
D28*
X0107252Y0048067D03*
X0098752Y0048067D03*
D29*
X0056402Y0082017D03*
X0056402Y0107617D03*
X0038602Y0107617D03*
X0038602Y0082017D03*
X0040002Y0162817D03*
X0040002Y0172817D03*
X0040002Y0182817D03*
X0040002Y0192817D03*
X0040002Y0202817D03*
X0040002Y0212817D03*
X0040002Y0222817D03*
D30*
X0040002Y0202817D02*
X0057202Y0202817D01*
X0057902Y0203517D01*
X0065102Y0211917D02*
X0065102Y0218517D01*
X0056702Y0218517D01*
X0065102Y0218517D02*
X0101102Y0218517D01*
X0107702Y0211917D01*
X0118502Y0228117D02*
X0118502Y0231717D01*
X0109502Y0231717D01*
X0099302Y0231717D01*
X0085502Y0238163D02*
X0085502Y0252289D01*
X0084302Y0236517D02*
X0071702Y0236517D01*
X0071102Y0235917D02*
X0070002Y0235917D01*
X0069802Y0235717D01*
X0067402Y0235717D01*
X0074781Y0188817D02*
X0062902Y0176938D01*
X0060891Y0174927D01*
X0056113Y0174927D01*
X0050602Y0169417D01*
X0050602Y0166217D01*
X0048302Y0163917D01*
X0048302Y0146517D01*
X0062902Y0176938D02*
X0062902Y0176938D01*
X0074781Y0188817D02*
X0079052Y0188817D01*
X0095557Y0130317D02*
X0110502Y0130317D01*
X0108661Y0122801D02*
X0116854Y0114608D01*
X0108661Y0122801D02*
X0095396Y0122801D01*
X0087987Y0122801D01*
X0081602Y0116417D01*
X0081602Y0110017D01*
X0080561Y0089387D02*
X0088002Y0081947D01*
X0088002Y0046817D01*
X0098752Y0069317D02*
X0100809Y0071374D01*
X0100809Y0095911D01*
X0099065Y0097655D01*
X0105195Y0092148D02*
X0105195Y0072374D01*
X0107252Y0070317D01*
X0107252Y0048067D01*
X0118326Y0067993D02*
X0118326Y0096111D01*
X0116782Y0097655D01*
X0106939Y0097655D02*
X0106939Y0093892D01*
X0105195Y0092148D01*
X0118502Y0231717D02*
X0118502Y0239517D01*
D31*
X0031802Y0238672D02*
X0031802Y0076617D01*
X0076718Y0076617D01*
X0076718Y0083426D01*
X0076587Y0083606D01*
X0076255Y0084257D01*
X0076029Y0084953D01*
X0075915Y0085675D01*
X0075915Y0089087D01*
X0076718Y0089087D01*
X0076718Y0089687D01*
X0075915Y0089687D01*
X0075915Y0093100D01*
X0076029Y0093822D01*
X0076255Y0094518D01*
X0076587Y0095169D01*
X0076718Y0095349D01*
X0076718Y0101050D01*
X0077009Y0101341D01*
X0087401Y0101341D01*
X0087645Y0101465D01*
X0088260Y0101665D01*
X0088899Y0101766D01*
X0088923Y0101766D01*
X0088923Y0101341D01*
X0089523Y0101341D01*
X0089523Y0101766D01*
X0089546Y0101766D01*
X0090185Y0101665D01*
X0090801Y0101465D01*
X0091044Y0101341D01*
X0098266Y0101341D01*
X0098327Y0101366D01*
X0099804Y0101366D01*
X0099864Y0101341D01*
X0106140Y0101341D01*
X0106201Y0101366D01*
X0107678Y0101366D01*
X0107738Y0101341D01*
X0113573Y0101341D01*
X0113598Y0101366D01*
X0119966Y0101366D01*
X0119991Y0101341D01*
X0128996Y0101341D01*
X0129287Y0101050D01*
X0129287Y0095349D01*
X0129417Y0095169D01*
X0129749Y0094518D01*
X0129975Y0093822D01*
X0130090Y0093100D01*
X0130090Y0089687D01*
X0129287Y0089687D01*
X0129287Y0089087D01*
X0130090Y0089087D01*
X0130090Y0085675D01*
X0129975Y0084953D01*
X0129749Y0084257D01*
X0129417Y0083606D01*
X0129287Y0083426D01*
X0129287Y0076617D01*
X0135202Y0076617D01*
X0135202Y0226320D01*
X0134599Y0225717D01*
X0126302Y0217420D01*
X0126302Y0212016D01*
X0128328Y0212016D01*
X0128855Y0211489D01*
X0128855Y0205625D01*
X0128328Y0205098D01*
X0121677Y0205098D01*
X0121150Y0205625D01*
X0121150Y0211489D01*
X0121677Y0212016D01*
X0123902Y0212016D01*
X0123902Y0218414D01*
X0132902Y0227414D01*
X0132902Y0255220D01*
X0131452Y0256670D01*
X0131452Y0255744D01*
X0130925Y0255217D01*
X0128080Y0255217D01*
X0127552Y0255744D01*
X0127552Y0264289D01*
X0128080Y0264817D01*
X0130925Y0264817D01*
X0131452Y0264289D01*
X0131452Y0260064D01*
X0135202Y0256314D01*
X0135202Y0265517D01*
X0060257Y0265517D01*
X0061771Y0264003D01*
X0062469Y0262317D01*
X0068240Y0262317D01*
X0068240Y0262807D01*
X0068767Y0263335D01*
X0074237Y0263335D01*
X0074765Y0262807D01*
X0074765Y0258912D01*
X0074237Y0258385D01*
X0068767Y0258385D01*
X0068240Y0258912D01*
X0068240Y0259917D01*
X0062627Y0259917D01*
X0062627Y0259698D01*
X0061771Y0257630D01*
X0060189Y0256048D01*
X0058121Y0255192D01*
X0055883Y0255192D01*
X0053816Y0256048D01*
X0052234Y0257630D01*
X0051377Y0259698D01*
X0051377Y0259917D01*
X0042627Y0259917D01*
X0042627Y0259698D01*
X0041771Y0257630D01*
X0040189Y0256048D01*
X0038702Y0255432D01*
X0038702Y0246201D01*
X0040189Y0245585D01*
X0041771Y0244003D01*
X0042627Y0241935D01*
X0042627Y0241917D01*
X0051377Y0241917D01*
X0051377Y0241935D01*
X0052234Y0244003D01*
X0053816Y0245585D01*
X0055883Y0246442D01*
X0058121Y0246442D01*
X0060189Y0245585D01*
X0061771Y0244003D01*
X0062627Y0241935D01*
X0062627Y0239698D01*
X0061771Y0237630D01*
X0060189Y0236048D01*
X0058121Y0235192D01*
X0055883Y0235192D01*
X0053816Y0236048D01*
X0052234Y0237630D01*
X0051452Y0239517D01*
X0042552Y0239517D01*
X0041771Y0237630D01*
X0040189Y0236048D01*
X0038121Y0235192D01*
X0035883Y0235192D01*
X0033816Y0236048D01*
X0032234Y0237630D01*
X0031802Y0238672D01*
X0031802Y0238201D02*
X0031998Y0238201D01*
X0031802Y0237602D02*
X0032262Y0237602D01*
X0031802Y0237004D02*
X0032860Y0237004D01*
X0033459Y0236405D02*
X0031802Y0236405D01*
X0031802Y0235806D02*
X0034399Y0235806D01*
X0035844Y0235208D02*
X0031802Y0235208D01*
X0031802Y0234609D02*
X0065131Y0234609D01*
X0065013Y0234727D02*
X0066413Y0233328D01*
X0068392Y0233328D01*
X0068634Y0233570D01*
X0068634Y0233432D01*
X0069161Y0232905D01*
X0073844Y0232905D01*
X0074371Y0233432D01*
X0074371Y0235117D01*
X0083142Y0235117D01*
X0083161Y0235098D01*
X0087844Y0235098D01*
X0088371Y0235625D01*
X0088371Y0240701D01*
X0087844Y0241228D01*
X0086902Y0241228D01*
X0086902Y0250149D01*
X0087509Y0250149D01*
X0088036Y0250676D01*
X0088036Y0253902D01*
X0087509Y0254429D01*
X0083496Y0254429D01*
X0082969Y0253902D01*
X0082969Y0250676D01*
X0083496Y0250149D01*
X0084102Y0250149D01*
X0084102Y0241228D01*
X0083161Y0241228D01*
X0082634Y0240701D01*
X0082634Y0237917D01*
X0074371Y0237917D01*
X0074371Y0238508D01*
X0073844Y0239035D01*
X0069161Y0239035D01*
X0068634Y0238508D01*
X0068634Y0237864D01*
X0068392Y0238106D01*
X0066413Y0238106D01*
X0065013Y0236706D01*
X0065013Y0234727D01*
X0065013Y0235208D02*
X0058161Y0235208D01*
X0057902Y0234717D02*
X0063302Y0234717D01*
X0065002Y0236417D01*
X0065002Y0240817D01*
X0066849Y0242663D01*
X0071502Y0242663D01*
X0071702Y0243117D01*
X0071702Y0253317D01*
X0071502Y0253773D01*
X0071702Y0253917D01*
X0078302Y0253917D01*
X0085502Y0261117D01*
X0085502Y0261344D01*
X0085502Y0261117D02*
X0095702Y0261117D01*
X0095702Y0250917D01*
X0098702Y0247917D01*
X0098702Y0238917D01*
X0099002Y0238360D01*
X0098702Y0238201D02*
X0088371Y0238201D01*
X0088371Y0238799D02*
X0095340Y0238799D01*
X0095340Y0238660D02*
X0098702Y0238660D01*
X0098702Y0238060D01*
X0095340Y0238060D01*
X0095340Y0236614D01*
X0095429Y0236283D01*
X0095600Y0235987D01*
X0095842Y0235745D01*
X0096138Y0235574D01*
X0096469Y0235485D01*
X0098702Y0235485D01*
X0098702Y0238060D01*
X0099302Y0238060D01*
X0099302Y0235485D01*
X0101536Y0235485D01*
X0101866Y0235574D01*
X0102163Y0235745D01*
X0102405Y0235987D01*
X0102576Y0236283D01*
X0102665Y0236614D01*
X0102665Y0238060D01*
X0099302Y0238060D01*
X0099302Y0238660D01*
X0098702Y0238660D01*
X0098702Y0241235D01*
X0096469Y0241235D01*
X0096138Y0241146D01*
X0095842Y0240975D01*
X0095600Y0240733D01*
X0095429Y0240436D01*
X0095340Y0240106D01*
X0095340Y0238660D01*
X0095340Y0239398D02*
X0088371Y0239398D01*
X0088371Y0239996D02*
X0095340Y0239996D01*
X0095520Y0240595D02*
X0088371Y0240595D01*
X0087879Y0241193D02*
X0096314Y0241193D01*
X0095340Y0237602D02*
X0088371Y0237602D01*
X0088371Y0237004D02*
X0095340Y0237004D01*
X0095396Y0236405D02*
X0088371Y0236405D01*
X0088371Y0235806D02*
X0095780Y0235806D01*
X0096267Y0233748D02*
X0095740Y0233221D01*
X0095740Y0229326D01*
X0096267Y0228798D01*
X0101737Y0228798D01*
X0102265Y0229326D01*
X0102265Y0230317D01*
X0107524Y0230317D01*
X0108513Y0229328D01*
X0110492Y0229328D01*
X0111481Y0230317D01*
X0115484Y0230317D01*
X0115484Y0225082D01*
X0116011Y0224554D01*
X0119702Y0224554D01*
X0119702Y0217814D01*
X0112152Y0210264D01*
X0112152Y0210362D01*
X0111946Y0210569D01*
X0112152Y0210775D01*
X0112152Y0212921D01*
X0111625Y0213448D01*
X0108151Y0213448D01*
X0101682Y0219917D01*
X0073457Y0219917D01*
X0073457Y0225175D01*
X0078199Y0229917D01*
X0082634Y0229917D01*
X0082634Y0228932D01*
X0083161Y0228405D01*
X0086517Y0228405D01*
X0088713Y0226209D01*
X0088713Y0224527D01*
X0090113Y0223128D01*
X0092092Y0223128D01*
X0093491Y0224527D01*
X0093491Y0226506D01*
X0092092Y0227906D01*
X0090410Y0227906D01*
X0088371Y0229945D01*
X0088371Y0234008D01*
X0087844Y0234535D01*
X0083161Y0234535D01*
X0082634Y0234008D01*
X0082634Y0232317D01*
X0077205Y0232317D01*
X0071558Y0226669D01*
X0065885Y0226669D01*
X0065358Y0226142D01*
X0065358Y0219917D01*
X0059580Y0219917D01*
X0059580Y0221615D01*
X0059052Y0222142D01*
X0053582Y0222142D01*
X0053055Y0221615D01*
X0053055Y0216145D01*
X0053582Y0215617D01*
X0059052Y0215617D01*
X0059580Y0216145D01*
X0059580Y0217117D01*
X0063702Y0217117D01*
X0063702Y0213895D01*
X0063002Y0213195D01*
X0062242Y0213956D01*
X0060263Y0213956D01*
X0058863Y0212556D01*
X0058863Y0210577D01*
X0059834Y0209606D01*
X0053240Y0209606D01*
X0052713Y0209079D01*
X0052713Y0204217D01*
X0044401Y0204217D01*
X0043902Y0205422D01*
X0042608Y0206716D01*
X0040917Y0207417D01*
X0039087Y0207417D01*
X0037397Y0206716D01*
X0036103Y0205422D01*
X0035402Y0203732D01*
X0035402Y0201902D01*
X0036103Y0200211D01*
X0037397Y0198917D01*
X0039087Y0198217D01*
X0040917Y0198217D01*
X0042608Y0198917D01*
X0043902Y0200211D01*
X0044401Y0201417D01*
X0052713Y0201417D01*
X0052713Y0199003D01*
X0053240Y0198476D01*
X0062552Y0198476D01*
X0062552Y0195117D01*
X0056205Y0195117D01*
X0055502Y0194414D01*
X0055502Y0193420D01*
X0056155Y0192767D01*
X0053255Y0192767D01*
X0052552Y0192064D01*
X0051302Y0190814D01*
X0051302Y0185814D01*
X0042323Y0176834D01*
X0040917Y0177417D01*
X0039087Y0177417D01*
X0037397Y0176716D01*
X0036103Y0175422D01*
X0035402Y0173732D01*
X0035402Y0171902D01*
X0036103Y0170211D01*
X0037397Y0168917D01*
X0039087Y0168217D01*
X0040917Y0168217D01*
X0042608Y0168917D01*
X0043902Y0170211D01*
X0044602Y0171902D01*
X0044602Y0173732D01*
X0044020Y0175137D01*
X0052313Y0183430D01*
X0052313Y0179756D01*
X0052401Y0179425D01*
X0052572Y0179129D01*
X0052814Y0178887D01*
X0053111Y0178715D01*
X0053441Y0178627D01*
X0054116Y0178627D01*
X0053802Y0178314D01*
X0045052Y0169564D01*
X0045052Y0152064D01*
X0043158Y0150169D01*
X0037830Y0150169D01*
X0037303Y0149642D01*
X0037303Y0144414D01*
X0035702Y0142814D01*
X0035702Y0128020D01*
X0036405Y0127317D01*
X0038102Y0125620D01*
X0038102Y0121079D01*
X0037511Y0121079D01*
X0036984Y0120552D01*
X0036984Y0115082D01*
X0037511Y0114554D01*
X0038102Y0114554D01*
X0038102Y0112217D01*
X0037687Y0112217D01*
X0035997Y0111516D01*
X0034703Y0110222D01*
X0034002Y0108532D01*
X0034002Y0106702D01*
X0034703Y0105011D01*
X0035997Y0103717D01*
X0037687Y0103017D01*
X0039517Y0103017D01*
X0041208Y0103717D01*
X0042502Y0105011D01*
X0043202Y0106702D01*
X0043202Y0108532D01*
X0042502Y0110222D01*
X0041208Y0111516D01*
X0040502Y0111809D01*
X0040502Y0114554D01*
X0041407Y0114554D01*
X0041934Y0115082D01*
X0041934Y0120552D01*
X0041407Y0121079D01*
X0040502Y0121079D01*
X0040502Y0126614D01*
X0039462Y0127654D01*
X0040069Y0127654D01*
X0040069Y0131017D01*
X0040668Y0131017D01*
X0040668Y0127654D01*
X0042902Y0127654D01*
X0043232Y0127743D01*
X0043529Y0127914D01*
X0043771Y0128156D01*
X0043942Y0128453D01*
X0044031Y0128783D01*
X0044031Y0131017D01*
X0040669Y0131017D01*
X0040669Y0131617D01*
X0044031Y0131617D01*
X0044031Y0133850D01*
X0043942Y0134181D01*
X0043771Y0134477D01*
X0043529Y0134719D01*
X0043232Y0134890D01*
X0042902Y0134979D01*
X0040668Y0134979D01*
X0040668Y0131617D01*
X0040069Y0131617D01*
X0040069Y0134979D01*
X0038102Y0134979D01*
X0038102Y0141820D01*
X0038747Y0142464D01*
X0043694Y0142464D01*
X0044221Y0142991D01*
X0044221Y0147838D01*
X0044783Y0148401D01*
X0044783Y0142991D01*
X0045311Y0142464D01*
X0049753Y0142464D01*
X0047702Y0140414D01*
X0047702Y0134579D01*
X0045901Y0134579D01*
X0045374Y0134052D01*
X0045374Y0128582D01*
X0045901Y0128054D01*
X0051371Y0128054D01*
X0051898Y0128582D01*
X0051898Y0134052D01*
X0051371Y0134579D01*
X0050102Y0134579D01*
X0050102Y0139420D01*
X0057799Y0147117D01*
X0058502Y0147820D01*
X0058502Y0155117D01*
X0060828Y0155117D01*
X0061355Y0155645D01*
X0061355Y0161508D01*
X0060828Y0162035D01*
X0054177Y0162035D01*
X0053650Y0161508D01*
X0053650Y0155645D01*
X0054177Y0155117D01*
X0056102Y0155117D01*
X0056102Y0148814D01*
X0051702Y0144413D01*
X0051702Y0149642D01*
X0051174Y0150169D01*
X0049702Y0150169D01*
X0049702Y0163337D01*
X0050193Y0163828D01*
X0051592Y0163828D01*
X0052991Y0165227D01*
X0052991Y0167206D01*
X0052002Y0168195D01*
X0052002Y0168837D01*
X0056693Y0173527D01*
X0061471Y0173527D01*
X0062291Y0174348D01*
X0064302Y0176358D01*
X0064302Y0176358D01*
X0074452Y0186508D01*
X0074452Y0186308D01*
X0079002Y0186308D01*
X0079002Y0186208D01*
X0074452Y0186208D01*
X0074452Y0185386D01*
X0074541Y0185056D01*
X0074712Y0184759D01*
X0074852Y0184619D01*
X0074852Y0182626D01*
X0075059Y0182419D01*
X0074852Y0182212D01*
X0074852Y0180067D01*
X0075059Y0179860D01*
X0074852Y0179653D01*
X0074852Y0177508D01*
X0075059Y0177301D01*
X0074852Y0177094D01*
X0074852Y0174949D01*
X0075059Y0174742D01*
X0074852Y0174535D01*
X0074852Y0174117D01*
X0074805Y0174117D01*
X0074102Y0173414D01*
X0068205Y0167517D01*
X0061355Y0167517D01*
X0061355Y0168989D01*
X0060828Y0169516D01*
X0054177Y0169516D01*
X0053650Y0168989D01*
X0053650Y0163125D01*
X0054177Y0162598D01*
X0060828Y0162598D01*
X0061355Y0163125D01*
X0061355Y0165117D01*
X0069199Y0165117D01*
X0074852Y0170770D01*
X0074852Y0169830D01*
X0075059Y0169624D01*
X0074852Y0169417D01*
X0074852Y0167271D01*
X0075059Y0167065D01*
X0074852Y0166858D01*
X0074852Y0164712D01*
X0075380Y0164185D01*
X0082725Y0164185D01*
X0083252Y0164712D01*
X0083252Y0166858D01*
X0083046Y0167065D01*
X0083252Y0167271D01*
X0083252Y0169417D01*
X0083046Y0169624D01*
X0083252Y0169830D01*
X0083252Y0171976D01*
X0083046Y0172183D01*
X0083252Y0172389D01*
X0083252Y0174535D01*
X0083046Y0174742D01*
X0083252Y0174949D01*
X0083252Y0177094D01*
X0083046Y0177301D01*
X0083252Y0177508D01*
X0083252Y0179653D01*
X0083046Y0179860D01*
X0083252Y0180067D01*
X0083252Y0182212D01*
X0083046Y0182419D01*
X0083252Y0182626D01*
X0083252Y0184619D01*
X0083393Y0184759D01*
X0083564Y0185056D01*
X0083652Y0185386D01*
X0083652Y0186208D01*
X0079102Y0186208D01*
X0079102Y0186308D01*
X0083652Y0186308D01*
X0083652Y0187129D01*
X0083564Y0187459D01*
X0083393Y0187756D01*
X0083252Y0187896D01*
X0083252Y0189889D01*
X0083046Y0190096D01*
X0083252Y0190303D01*
X0083252Y0192448D01*
X0083046Y0192655D01*
X0083252Y0192862D01*
X0083252Y0195007D01*
X0083046Y0195214D01*
X0083252Y0195421D01*
X0083252Y0197567D01*
X0083046Y0197773D01*
X0083252Y0197980D01*
X0083252Y0198117D01*
X0095599Y0198117D01*
X0102302Y0204820D01*
X0102302Y0192220D01*
X0103005Y0191517D01*
X0083252Y0191517D01*
X0083252Y0192115D02*
X0102407Y0192115D01*
X0102302Y0192714D02*
X0083104Y0192714D01*
X0083252Y0193312D02*
X0102302Y0193312D01*
X0102302Y0193911D02*
X0083252Y0193911D01*
X0083252Y0194509D02*
X0102302Y0194509D01*
X0102302Y0195108D02*
X0083152Y0195108D01*
X0083252Y0195706D02*
X0102302Y0195706D01*
X0102302Y0196305D02*
X0083252Y0196305D01*
X0083252Y0196903D02*
X0102302Y0196903D01*
X0102302Y0197502D02*
X0083252Y0197502D01*
X0083252Y0198100D02*
X0102302Y0198100D01*
X0102302Y0198699D02*
X0096182Y0198699D01*
X0096780Y0199297D02*
X0102302Y0199297D01*
X0102302Y0199896D02*
X0097379Y0199896D01*
X0097977Y0200494D02*
X0102302Y0200494D01*
X0102302Y0201093D02*
X0098576Y0201093D01*
X0099174Y0201691D02*
X0102302Y0201691D01*
X0102302Y0202290D02*
X0099773Y0202290D01*
X0100371Y0202888D02*
X0102302Y0202888D01*
X0102302Y0203487D02*
X0100970Y0203487D01*
X0101568Y0204085D02*
X0102302Y0204085D01*
X0102302Y0204684D02*
X0102167Y0204684D01*
X0103502Y0205317D02*
X0104702Y0206517D01*
X0107702Y0206517D01*
X0107952Y0206730D01*
X0108302Y0207117D01*
X0111302Y0207117D01*
X0112502Y0208317D01*
X0112502Y0208917D01*
X0120902Y0217317D01*
X0120902Y0229317D01*
X0129302Y0237717D01*
X0129302Y0240117D01*
X0129502Y0240617D01*
X0127552Y0240595D02*
X0124727Y0240595D01*
X0124727Y0240392D02*
X0124727Y0240842D01*
X0124277Y0240842D01*
X0124277Y0245817D01*
X0123281Y0245817D01*
X0122951Y0245728D01*
X0122654Y0245557D01*
X0122412Y0245315D01*
X0122241Y0245018D01*
X0122152Y0244688D01*
X0122152Y0240842D01*
X0124277Y0240842D01*
X0124277Y0240392D01*
X0122152Y0240392D01*
X0122152Y0236545D01*
X0122241Y0236215D01*
X0122412Y0235918D01*
X0122654Y0235676D01*
X0122951Y0235505D01*
X0123281Y0235417D01*
X0124277Y0235417D01*
X0124277Y0240391D01*
X0124727Y0240391D01*
X0124727Y0235417D01*
X0125305Y0235417D01*
X0120434Y0230545D01*
X0120434Y0230552D01*
X0119907Y0231079D01*
X0119902Y0231079D01*
X0119902Y0235817D01*
X0120925Y0235817D01*
X0121452Y0236344D01*
X0121452Y0244889D01*
X0120925Y0245417D01*
X0118080Y0245417D01*
X0117552Y0244889D01*
X0117552Y0240546D01*
X0117102Y0240096D01*
X0117102Y0233117D01*
X0111481Y0233117D01*
X0110492Y0234106D01*
X0108513Y0234106D01*
X0107524Y0233117D01*
X0102265Y0233117D01*
X0102265Y0233221D01*
X0101737Y0233748D01*
X0096267Y0233748D01*
X0095932Y0233412D02*
X0088371Y0233412D01*
X0088371Y0232814D02*
X0095740Y0232814D01*
X0095740Y0232215D02*
X0088371Y0232215D01*
X0088371Y0231617D02*
X0095740Y0231617D01*
X0095740Y0231018D02*
X0088371Y0231018D01*
X0088371Y0230420D02*
X0095740Y0230420D01*
X0095740Y0229821D02*
X0088495Y0229821D01*
X0089093Y0229223D02*
X0095843Y0229223D01*
X0093169Y0226829D02*
X0115484Y0226829D01*
X0115484Y0227427D02*
X0092570Y0227427D01*
X0093491Y0226230D02*
X0115484Y0226230D01*
X0115484Y0225632D02*
X0093491Y0225632D01*
X0093491Y0225033D02*
X0115533Y0225033D01*
X0115484Y0228026D02*
X0090290Y0228026D01*
X0089692Y0228624D02*
X0115484Y0228624D01*
X0115484Y0229223D02*
X0102162Y0229223D01*
X0102265Y0229821D02*
X0108019Y0229821D01*
X0107820Y0233412D02*
X0102073Y0233412D01*
X0102224Y0235806D02*
X0117102Y0235806D01*
X0117102Y0235208D02*
X0087954Y0235208D01*
X0088368Y0234011D02*
X0108418Y0234011D01*
X0110587Y0234011D02*
X0117102Y0234011D01*
X0117102Y0234609D02*
X0074371Y0234609D01*
X0074371Y0234011D02*
X0082637Y0234011D01*
X0082634Y0233412D02*
X0074351Y0233412D01*
X0075907Y0231018D02*
X0031802Y0231018D01*
X0031802Y0230420D02*
X0075309Y0230420D01*
X0074710Y0229821D02*
X0059247Y0229821D01*
X0059052Y0230016D02*
X0053582Y0230016D01*
X0053055Y0229489D01*
X0053055Y0224019D01*
X0053582Y0223491D01*
X0059052Y0223491D01*
X0059580Y0224019D01*
X0059580Y0229489D01*
X0059052Y0230016D01*
X0059580Y0229223D02*
X0074112Y0229223D01*
X0073513Y0228624D02*
X0059580Y0228624D01*
X0059580Y0228026D02*
X0072915Y0228026D01*
X0072316Y0227427D02*
X0059580Y0227427D01*
X0059580Y0226829D02*
X0071718Y0226829D01*
X0073457Y0225033D02*
X0088713Y0225033D01*
X0088713Y0225632D02*
X0073915Y0225632D01*
X0074513Y0226230D02*
X0088692Y0226230D01*
X0088093Y0226829D02*
X0075112Y0226829D01*
X0075710Y0227427D02*
X0087495Y0227427D01*
X0086896Y0228026D02*
X0076309Y0228026D01*
X0076907Y0228624D02*
X0082941Y0228624D01*
X0082634Y0229223D02*
X0077506Y0229223D01*
X0078104Y0229821D02*
X0082634Y0229821D01*
X0082634Y0232814D02*
X0031802Y0232814D01*
X0031802Y0233412D02*
X0066328Y0233412D01*
X0065729Y0234011D02*
X0031802Y0234011D01*
X0031802Y0232215D02*
X0077104Y0232215D01*
X0076506Y0231617D02*
X0031802Y0231617D01*
X0031802Y0229821D02*
X0053388Y0229821D01*
X0053055Y0229223D02*
X0031802Y0229223D01*
X0031802Y0228624D02*
X0053055Y0228624D01*
X0053055Y0228026D02*
X0031802Y0228026D01*
X0031802Y0227427D02*
X0038038Y0227427D01*
X0038083Y0227450D02*
X0037382Y0227093D01*
X0036745Y0226630D01*
X0036189Y0226074D01*
X0035726Y0225437D01*
X0035369Y0224736D01*
X0035125Y0223987D01*
X0035002Y0223210D01*
X0035002Y0223117D01*
X0039702Y0223117D01*
X0039702Y0227817D01*
X0039609Y0227817D01*
X0038832Y0227693D01*
X0038083Y0227450D01*
X0037018Y0226829D02*
X0031802Y0226829D01*
X0031802Y0226230D02*
X0036345Y0226230D01*
X0035867Y0225632D02*
X0031802Y0225632D01*
X0031802Y0225033D02*
X0035520Y0225033D01*
X0035271Y0224435D02*
X0031802Y0224435D01*
X0031802Y0223836D02*
X0035102Y0223836D01*
X0035007Y0223238D02*
X0031802Y0223238D01*
X0031802Y0222639D02*
X0039702Y0222639D01*
X0039702Y0222517D02*
X0035002Y0222517D01*
X0035002Y0222423D01*
X0035125Y0221646D01*
X0035369Y0220897D01*
X0035726Y0220196D01*
X0036189Y0219559D01*
X0036745Y0219003D01*
X0037382Y0218540D01*
X0038083Y0218183D01*
X0038832Y0217940D01*
X0039609Y0217817D01*
X0039702Y0217817D01*
X0039702Y0222517D01*
X0039702Y0223117D01*
X0040302Y0223117D01*
X0040302Y0227817D01*
X0040396Y0227817D01*
X0041173Y0227693D01*
X0041922Y0227450D01*
X0042623Y0227093D01*
X0043260Y0226630D01*
X0043816Y0226074D01*
X0044279Y0225437D01*
X0044636Y0224736D01*
X0044879Y0223987D01*
X0045002Y0223210D01*
X0045002Y0223117D01*
X0040302Y0223117D01*
X0040302Y0222517D01*
X0045002Y0222517D01*
X0045002Y0222423D01*
X0044879Y0221646D01*
X0044636Y0220897D01*
X0044279Y0220196D01*
X0043816Y0219559D01*
X0043260Y0219003D01*
X0042623Y0218540D01*
X0041922Y0218183D01*
X0041173Y0217940D01*
X0040396Y0217817D01*
X0040302Y0217817D01*
X0040302Y0222517D01*
X0039702Y0222517D01*
X0040002Y0222817D02*
X0040502Y0223317D01*
X0046502Y0223317D01*
X0057902Y0234717D01*
X0055844Y0235208D02*
X0038161Y0235208D01*
X0039606Y0235806D02*
X0054399Y0235806D01*
X0053459Y0236405D02*
X0040546Y0236405D01*
X0041144Y0237004D02*
X0052860Y0237004D01*
X0052262Y0237602D02*
X0041743Y0237602D01*
X0042007Y0238201D02*
X0051998Y0238201D01*
X0051750Y0238799D02*
X0042255Y0238799D01*
X0042503Y0239398D02*
X0051502Y0239398D01*
X0051566Y0242390D02*
X0042439Y0242390D01*
X0042191Y0242989D02*
X0051814Y0242989D01*
X0052062Y0243587D02*
X0041943Y0243587D01*
X0041588Y0244186D02*
X0052416Y0244186D01*
X0053015Y0244784D02*
X0040990Y0244784D01*
X0040391Y0245383D02*
X0053613Y0245383D01*
X0054772Y0245981D02*
X0049440Y0245981D01*
X0050061Y0246239D02*
X0051580Y0247758D01*
X0052402Y0249742D01*
X0052402Y0251891D01*
X0051580Y0253875D01*
X0050061Y0255394D01*
X0048076Y0256217D01*
X0045928Y0256217D01*
X0043944Y0255394D01*
X0042424Y0253875D01*
X0041602Y0251891D01*
X0041602Y0249742D01*
X0042424Y0247758D01*
X0043944Y0246239D01*
X0045928Y0245417D01*
X0048076Y0245417D01*
X0050061Y0246239D01*
X0050402Y0246580D02*
X0084102Y0246580D01*
X0084102Y0247178D02*
X0051001Y0247178D01*
X0051588Y0247777D02*
X0084102Y0247777D01*
X0084102Y0248375D02*
X0051836Y0248375D01*
X0052084Y0248974D02*
X0084102Y0248974D01*
X0084102Y0249572D02*
X0052332Y0249572D01*
X0052402Y0250171D02*
X0083474Y0250171D01*
X0082969Y0250769D02*
X0052402Y0250769D01*
X0052402Y0251368D02*
X0068132Y0251368D01*
X0068100Y0251400D02*
X0068342Y0251158D01*
X0068638Y0250987D01*
X0068969Y0250898D01*
X0071202Y0250898D01*
X0071202Y0253473D01*
X0067840Y0253473D01*
X0067840Y0252027D01*
X0067929Y0251697D01*
X0068100Y0251400D01*
X0067857Y0251966D02*
X0052371Y0251966D01*
X0052123Y0252565D02*
X0067840Y0252565D01*
X0067840Y0253163D02*
X0051875Y0253163D01*
X0051627Y0253762D02*
X0071202Y0253762D01*
X0071202Y0253473D02*
X0071202Y0254073D01*
X0067840Y0254073D01*
X0067840Y0255519D01*
X0067929Y0255850D01*
X0068100Y0256146D01*
X0068342Y0256388D01*
X0068638Y0256559D01*
X0068969Y0256648D01*
X0071202Y0256648D01*
X0071202Y0254073D01*
X0071802Y0254073D01*
X0071802Y0256648D01*
X0074036Y0256648D01*
X0074366Y0256559D01*
X0074663Y0256388D01*
X0074905Y0256146D01*
X0075076Y0255850D01*
X0075165Y0255519D01*
X0075165Y0254073D01*
X0071802Y0254073D01*
X0071802Y0253473D01*
X0071802Y0250898D01*
X0074036Y0250898D01*
X0074366Y0250987D01*
X0074663Y0251158D01*
X0074905Y0251400D01*
X0075076Y0251697D01*
X0075165Y0252027D01*
X0075165Y0253473D01*
X0071802Y0253473D01*
X0071202Y0253473D01*
X0071202Y0253163D02*
X0071802Y0253163D01*
X0071802Y0252565D02*
X0071202Y0252565D01*
X0071202Y0251966D02*
X0071802Y0251966D01*
X0071802Y0251368D02*
X0071202Y0251368D01*
X0071802Y0253762D02*
X0082969Y0253762D01*
X0082969Y0253163D02*
X0075165Y0253163D01*
X0075165Y0252565D02*
X0082969Y0252565D01*
X0082969Y0251966D02*
X0075148Y0251966D01*
X0074872Y0251368D02*
X0082969Y0251368D01*
X0083427Y0254360D02*
X0075165Y0254360D01*
X0075165Y0254959D02*
X0096478Y0254959D01*
X0096240Y0254721D02*
X0096240Y0250826D01*
X0096767Y0250298D01*
X0102237Y0250298D01*
X0102630Y0250692D01*
X0112552Y0240770D01*
X0112552Y0236344D01*
X0113080Y0235817D01*
X0115925Y0235817D01*
X0116452Y0236344D01*
X0116452Y0244889D01*
X0115925Y0245417D01*
X0113080Y0245417D01*
X0112552Y0244889D01*
X0112552Y0244164D01*
X0102799Y0253917D01*
X0102765Y0253917D01*
X0102765Y0254721D01*
X0102237Y0255248D01*
X0096767Y0255248D01*
X0096240Y0254721D01*
X0096240Y0254360D02*
X0087578Y0254360D01*
X0088036Y0253762D02*
X0096240Y0253762D01*
X0096240Y0253163D02*
X0088036Y0253163D01*
X0088036Y0252565D02*
X0096240Y0252565D01*
X0096240Y0251966D02*
X0088036Y0251966D01*
X0088036Y0251368D02*
X0096240Y0251368D01*
X0096297Y0250769D02*
X0088036Y0250769D01*
X0087531Y0250171D02*
X0103151Y0250171D01*
X0103750Y0249572D02*
X0086902Y0249572D01*
X0086902Y0248974D02*
X0104348Y0248974D01*
X0104947Y0248375D02*
X0086902Y0248375D01*
X0086902Y0247777D02*
X0105545Y0247777D01*
X0106144Y0247178D02*
X0086902Y0247178D01*
X0086902Y0246580D02*
X0106742Y0246580D01*
X0107341Y0245981D02*
X0086902Y0245981D01*
X0086902Y0245383D02*
X0107939Y0245383D01*
X0108538Y0244784D02*
X0086902Y0244784D01*
X0086902Y0244186D02*
X0109136Y0244186D01*
X0109735Y0243587D02*
X0086902Y0243587D01*
X0086902Y0242989D02*
X0110333Y0242989D01*
X0110932Y0242390D02*
X0086902Y0242390D01*
X0086902Y0241792D02*
X0111530Y0241792D01*
X0112129Y0241193D02*
X0101691Y0241193D01*
X0101536Y0241235D02*
X0099302Y0241235D01*
X0099302Y0238660D01*
X0102665Y0238660D01*
X0102665Y0240106D01*
X0102576Y0240436D01*
X0102405Y0240733D01*
X0102163Y0240975D01*
X0101866Y0241146D01*
X0101536Y0241235D01*
X0102485Y0240595D02*
X0112552Y0240595D01*
X0112552Y0239996D02*
X0102665Y0239996D01*
X0102665Y0239398D02*
X0112552Y0239398D01*
X0112552Y0238799D02*
X0102665Y0238799D01*
X0102665Y0237602D02*
X0112552Y0237602D01*
X0112552Y0237004D02*
X0102665Y0237004D01*
X0102609Y0236405D02*
X0112552Y0236405D01*
X0112552Y0238201D02*
X0099302Y0238201D01*
X0099302Y0238799D02*
X0098702Y0238799D01*
X0098702Y0239398D02*
X0099302Y0239398D01*
X0099302Y0239996D02*
X0098702Y0239996D01*
X0098702Y0240595D02*
X0099302Y0240595D01*
X0099302Y0241193D02*
X0098702Y0241193D01*
X0098702Y0237602D02*
X0099302Y0237602D01*
X0099302Y0237004D02*
X0098702Y0237004D01*
X0098702Y0236405D02*
X0099302Y0236405D01*
X0099302Y0235806D02*
X0098702Y0235806D01*
X0098702Y0231717D02*
X0099002Y0231273D01*
X0099302Y0231717D01*
X0093399Y0224435D02*
X0119702Y0224435D01*
X0119702Y0223836D02*
X0092801Y0223836D01*
X0092202Y0223238D02*
X0119702Y0223238D01*
X0119702Y0222639D02*
X0073457Y0222639D01*
X0073457Y0222041D02*
X0119702Y0222041D01*
X0119702Y0221442D02*
X0073457Y0221442D01*
X0073457Y0220844D02*
X0119702Y0220844D01*
X0119702Y0220245D02*
X0073457Y0220245D01*
X0073457Y0223238D02*
X0090003Y0223238D01*
X0089404Y0223836D02*
X0073457Y0223836D01*
X0073457Y0224435D02*
X0088806Y0224435D01*
X0091102Y0225517D02*
X0085502Y0231117D01*
X0085502Y0231470D01*
X0085502Y0231117D02*
X0077702Y0231117D01*
X0069902Y0223317D01*
X0069408Y0222817D01*
X0065358Y0222639D02*
X0040302Y0222639D01*
X0040002Y0222817D02*
X0035102Y0217917D01*
X0035102Y0171117D01*
X0038102Y0168117D01*
X0033902Y0163917D01*
X0033902Y0105717D01*
X0036902Y0102717D01*
X0040502Y0102717D01*
X0051302Y0113517D01*
X0047102Y0117717D01*
X0046546Y0117817D01*
X0047102Y0118317D01*
X0063902Y0135117D01*
X0066609Y0135596D01*
X0066902Y0135717D01*
X0091502Y0135717D01*
X0091502Y0141717D01*
X0092702Y0142917D01*
X0095102Y0142917D01*
X0095396Y0143273D01*
X0095702Y0143517D01*
X0095702Y0145317D01*
X0095396Y0145832D01*
X0095353Y0145790D02*
X0091346Y0145790D01*
X0091346Y0144976D01*
X0091435Y0144646D01*
X0091488Y0144553D01*
X0091435Y0144460D01*
X0091346Y0144129D01*
X0091346Y0143316D01*
X0095353Y0143316D01*
X0095353Y0143231D01*
X0091346Y0143231D01*
X0091346Y0142417D01*
X0091435Y0142086D01*
X0091606Y0141790D01*
X0091746Y0141650D01*
X0091746Y0139656D01*
X0091968Y0139435D01*
X0091746Y0139213D01*
X0091746Y0137097D01*
X0091968Y0136876D01*
X0091746Y0136654D01*
X0091746Y0134661D01*
X0091606Y0134520D01*
X0091435Y0134224D01*
X0091346Y0133893D01*
X0091346Y0133080D01*
X0095353Y0133080D01*
X0095353Y0132995D01*
X0091346Y0132995D01*
X0091346Y0132181D01*
X0091435Y0131850D01*
X0091606Y0131554D01*
X0091746Y0131414D01*
X0091746Y0131057D01*
X0091502Y0130814D01*
X0091502Y0129820D01*
X0091746Y0129576D01*
X0091746Y0129420D01*
X0091968Y0129198D01*
X0091746Y0128977D01*
X0091746Y0126983D01*
X0091606Y0126843D01*
X0091435Y0126547D01*
X0091346Y0126216D01*
X0091346Y0125402D01*
X0095353Y0125402D01*
X0095353Y0125317D01*
X0091346Y0125317D01*
X0091346Y0124504D01*
X0091427Y0124201D01*
X0087407Y0124201D01*
X0080202Y0116996D01*
X0080202Y0111995D01*
X0079213Y0111006D01*
X0079213Y0109027D01*
X0080613Y0107628D01*
X0082592Y0107628D01*
X0083991Y0109027D01*
X0083991Y0111006D01*
X0083002Y0111995D01*
X0083002Y0115837D01*
X0088567Y0121401D01*
X0091847Y0121401D01*
X0091746Y0121300D01*
X0091746Y0119184D01*
X0091968Y0118962D01*
X0091746Y0118741D01*
X0091746Y0116625D01*
X0092273Y0116098D01*
X0095284Y0116098D01*
X0098595Y0112787D01*
X0097613Y0111806D01*
X0097613Y0109827D01*
X0099013Y0108428D01*
X0100992Y0108428D01*
X0102391Y0109827D01*
X0102391Y0111806D01*
X0101202Y0112995D01*
X0101202Y0113573D01*
X0098598Y0116177D01*
X0099046Y0116625D01*
X0099046Y0118741D01*
X0098824Y0118962D01*
X0098904Y0119042D01*
X0101580Y0119042D01*
X0101613Y0119009D01*
X0101613Y0117327D01*
X0103013Y0115928D01*
X0104992Y0115928D01*
X0106391Y0117327D01*
X0106391Y0119306D01*
X0104992Y0120706D01*
X0103310Y0120706D01*
X0103277Y0120739D01*
X0102615Y0121401D01*
X0108081Y0121401D01*
X0113803Y0115679D01*
X0113803Y0110991D01*
X0114330Y0110464D01*
X0120194Y0110464D01*
X0120721Y0110991D01*
X0120721Y0117642D01*
X0120194Y0118169D01*
X0115273Y0118169D01*
X0109241Y0124201D01*
X0099365Y0124201D01*
X0099446Y0124504D01*
X0099446Y0125317D01*
X0095439Y0125317D01*
X0095439Y0125402D01*
X0099446Y0125402D01*
X0099446Y0126216D01*
X0099357Y0126547D01*
X0099186Y0126843D01*
X0099046Y0126983D01*
X0099046Y0128917D01*
X0108524Y0128917D01*
X0109513Y0127928D01*
X0111492Y0127928D01*
X0112681Y0129117D01*
X0114799Y0129117D01*
X0115399Y0129717D01*
X0117240Y0129717D01*
X0117240Y0129412D01*
X0117767Y0128885D01*
X0123237Y0128885D01*
X0123765Y0129412D01*
X0123765Y0133307D01*
X0123237Y0133835D01*
X0117767Y0133835D01*
X0117240Y0133307D01*
X0117240Y0132117D01*
X0114405Y0132117D01*
X0113805Y0131517D01*
X0112681Y0131517D01*
X0111492Y0132706D01*
X0109513Y0132706D01*
X0108524Y0131717D01*
X0099280Y0131717D01*
X0099357Y0131850D01*
X0099446Y0132181D01*
X0099446Y0132995D01*
X0095439Y0132995D01*
X0095439Y0133080D01*
X0099446Y0133080D01*
X0099446Y0133893D01*
X0099357Y0134224D01*
X0099186Y0134520D01*
X0099046Y0134661D01*
X0099046Y0134963D01*
X0099302Y0135220D01*
X0105199Y0141117D01*
X0113606Y0141117D01*
X0113606Y0139582D01*
X0114134Y0139054D01*
X0119603Y0139054D01*
X0120131Y0139582D01*
X0120131Y0145052D01*
X0119603Y0145579D01*
X0114134Y0145579D01*
X0113606Y0145052D01*
X0113606Y0143517D01*
X0105199Y0143517D01*
X0113685Y0152003D01*
X0114134Y0151554D01*
X0119603Y0151554D01*
X0120131Y0152082D01*
X0120131Y0157552D01*
X0119603Y0158079D01*
X0114134Y0158079D01*
X0113606Y0157552D01*
X0113606Y0155318D01*
X0099046Y0140757D01*
X0099046Y0141650D01*
X0099186Y0141790D01*
X0099357Y0142086D01*
X0099446Y0142417D01*
X0099446Y0143231D01*
X0095439Y0143231D01*
X0095439Y0143316D01*
X0099446Y0143316D01*
X0099446Y0144129D01*
X0099357Y0144460D01*
X0099304Y0144553D01*
X0099357Y0144646D01*
X0099446Y0144976D01*
X0099446Y0145790D01*
X0095439Y0145790D01*
X0095439Y0145875D01*
X0099446Y0145875D01*
X0099446Y0146689D01*
X0099357Y0147019D01*
X0099186Y0147316D01*
X0099046Y0147456D01*
X0099046Y0149449D01*
X0098824Y0149671D01*
X0099046Y0149893D01*
X0099046Y0152008D01*
X0098519Y0152535D01*
X0092273Y0152535D01*
X0091746Y0152008D01*
X0091746Y0149893D01*
X0091968Y0149671D01*
X0091746Y0149449D01*
X0091746Y0147456D01*
X0091606Y0147316D01*
X0091435Y0147019D01*
X0091346Y0146689D01*
X0091346Y0145875D01*
X0095353Y0145875D01*
X0095353Y0145790D01*
X0095354Y0145790D02*
X0095439Y0145790D01*
X0095439Y0143316D01*
X0095354Y0143316D01*
X0095354Y0145258D01*
X0095354Y0145790D01*
X0095354Y0145431D02*
X0095439Y0145431D01*
X0095439Y0144833D02*
X0095354Y0144833D01*
X0095354Y0144234D02*
X0095439Y0144234D01*
X0095439Y0143636D02*
X0095354Y0143636D01*
X0099446Y0143636D02*
X0101924Y0143636D01*
X0101326Y0143037D02*
X0099446Y0143037D01*
X0099446Y0142439D02*
X0100727Y0142439D01*
X0100129Y0141840D02*
X0099215Y0141840D01*
X0099046Y0141242D02*
X0099530Y0141242D01*
X0098702Y0138717D02*
X0098502Y0138717D01*
X0097941Y0138155D01*
X0095396Y0138155D01*
X0095702Y0135717D02*
X0095396Y0135596D01*
X0095702Y0135717D02*
X0098102Y0135717D01*
X0104702Y0142317D01*
X0116869Y0142317D01*
X0120131Y0142439D02*
X0121874Y0142439D01*
X0121874Y0143037D02*
X0120131Y0143037D01*
X0120131Y0143636D02*
X0121874Y0143636D01*
X0121874Y0144234D02*
X0120131Y0144234D01*
X0120131Y0144833D02*
X0121874Y0144833D01*
X0121874Y0145052D02*
X0121874Y0139582D01*
X0122401Y0139054D01*
X0123902Y0139054D01*
X0123902Y0126649D01*
X0123663Y0126888D01*
X0123366Y0127059D01*
X0123036Y0127148D01*
X0120802Y0127148D01*
X0120802Y0124573D01*
X0120202Y0124573D01*
X0120202Y0123973D01*
X0116840Y0123973D01*
X0116840Y0122527D01*
X0116929Y0122197D01*
X0117100Y0121900D01*
X0117342Y0121658D01*
X0117638Y0121487D01*
X0117969Y0121398D01*
X0120202Y0121398D01*
X0120202Y0123973D01*
X0120802Y0123973D01*
X0120802Y0121398D01*
X0123036Y0121398D01*
X0123366Y0121487D01*
X0123663Y0121658D01*
X0123902Y0121898D01*
X0123902Y0118169D01*
X0121811Y0118169D01*
X0121283Y0117642D01*
X0121283Y0110991D01*
X0121811Y0110464D01*
X0127674Y0110464D01*
X0128202Y0110991D01*
X0128202Y0117642D01*
X0127674Y0118169D01*
X0126302Y0118169D01*
X0126302Y0139054D01*
X0127871Y0139054D01*
X0128398Y0139582D01*
X0128398Y0145052D01*
X0127871Y0145579D01*
X0126302Y0145579D01*
X0126302Y0151554D01*
X0127871Y0151554D01*
X0128398Y0152082D01*
X0128398Y0157552D01*
X0127871Y0158079D01*
X0122401Y0158079D01*
X0121874Y0157552D01*
X0121874Y0152082D01*
X0122401Y0151554D01*
X0123902Y0151554D01*
X0123902Y0145579D01*
X0122401Y0145579D01*
X0121874Y0145052D01*
X0122254Y0145431D02*
X0119751Y0145431D01*
X0120131Y0141840D02*
X0121874Y0141840D01*
X0121874Y0141242D02*
X0120131Y0141242D01*
X0120131Y0140643D02*
X0121874Y0140643D01*
X0121874Y0140045D02*
X0120131Y0140045D01*
X0119995Y0139446D02*
X0122009Y0139446D01*
X0123902Y0138848D02*
X0102930Y0138848D01*
X0102332Y0138249D02*
X0123902Y0138249D01*
X0123902Y0137651D02*
X0101733Y0137651D01*
X0101135Y0137052D02*
X0123902Y0137052D01*
X0123902Y0136454D02*
X0100536Y0136454D01*
X0099938Y0135855D02*
X0123902Y0135855D01*
X0123902Y0135257D02*
X0099339Y0135257D01*
X0099049Y0134658D02*
X0123902Y0134658D01*
X0123902Y0134060D02*
X0099401Y0134060D01*
X0099446Y0133461D02*
X0117394Y0133461D01*
X0117240Y0132863D02*
X0099446Y0132863D01*
X0099446Y0132264D02*
X0109071Y0132264D01*
X0110502Y0130317D02*
X0114302Y0130317D01*
X0114902Y0130917D01*
X0120302Y0130917D01*
X0120502Y0131360D01*
X0117240Y0132264D02*
X0111933Y0132264D01*
X0112532Y0131666D02*
X0113954Y0131666D01*
X0114954Y0129271D02*
X0117381Y0129271D01*
X0117969Y0127148D02*
X0117638Y0127059D01*
X0117342Y0126888D01*
X0117100Y0126646D01*
X0116929Y0126350D01*
X0116840Y0126019D01*
X0116840Y0124573D01*
X0120202Y0124573D01*
X0120202Y0127148D01*
X0117969Y0127148D01*
X0117331Y0126877D02*
X0099152Y0126877D01*
X0099046Y0127476D02*
X0123902Y0127476D01*
X0123902Y0128074D02*
X0111639Y0128074D01*
X0112237Y0128673D02*
X0123902Y0128673D01*
X0123902Y0129117D02*
X0123902Y0133317D01*
X0123302Y0133917D01*
X0096302Y0133917D01*
X0095702Y0133317D01*
X0095396Y0133037D01*
X0092702Y0133317D01*
X0091502Y0132117D01*
X0091502Y0125360D01*
X0083457Y0125360D01*
X0073502Y0115406D01*
X0073502Y0104817D01*
X0076810Y0101141D02*
X0031802Y0101141D01*
X0031802Y0100543D02*
X0076718Y0100543D01*
X0076718Y0099944D02*
X0031802Y0099944D01*
X0031802Y0099346D02*
X0076718Y0099346D01*
X0076718Y0098747D02*
X0031802Y0098747D01*
X0031802Y0098149D02*
X0076718Y0098149D01*
X0076718Y0097550D02*
X0031802Y0097550D01*
X0031802Y0096952D02*
X0076718Y0096952D01*
X0076718Y0096353D02*
X0031802Y0096353D01*
X0031802Y0095755D02*
X0076718Y0095755D01*
X0076581Y0095156D02*
X0031802Y0095156D01*
X0031802Y0094558D02*
X0076276Y0094558D01*
X0076074Y0093959D02*
X0031802Y0093959D01*
X0031802Y0093361D02*
X0075956Y0093361D01*
X0075915Y0092762D02*
X0031802Y0092762D01*
X0031802Y0092164D02*
X0075915Y0092164D01*
X0075915Y0091565D02*
X0031802Y0091565D01*
X0031802Y0090967D02*
X0075915Y0090967D01*
X0075915Y0090368D02*
X0031802Y0090368D01*
X0031802Y0089770D02*
X0075915Y0089770D01*
X0076718Y0089171D02*
X0031802Y0089171D01*
X0031802Y0088573D02*
X0075915Y0088573D01*
X0075915Y0087974D02*
X0031802Y0087974D01*
X0031802Y0087376D02*
X0075915Y0087376D01*
X0075915Y0086777D02*
X0031802Y0086777D01*
X0031802Y0086179D02*
X0036630Y0086179D01*
X0035997Y0085916D02*
X0034703Y0084622D01*
X0034002Y0082932D01*
X0034002Y0081102D01*
X0034703Y0079411D01*
X0035997Y0078117D01*
X0037687Y0077417D01*
X0039517Y0077417D01*
X0041208Y0078117D01*
X0042502Y0079411D01*
X0043202Y0081102D01*
X0043202Y0082932D01*
X0042502Y0084622D01*
X0041208Y0085916D01*
X0039517Y0086617D01*
X0037687Y0086617D01*
X0035997Y0085916D01*
X0035661Y0085580D02*
X0031802Y0085580D01*
X0031802Y0084982D02*
X0035062Y0084982D01*
X0034604Y0084383D02*
X0031802Y0084383D01*
X0031802Y0083785D02*
X0034356Y0083785D01*
X0034108Y0083186D02*
X0031802Y0083186D01*
X0031802Y0082588D02*
X0034002Y0082588D01*
X0034002Y0081989D02*
X0031802Y0081989D01*
X0031802Y0081391D02*
X0034002Y0081391D01*
X0034131Y0080792D02*
X0031802Y0080792D01*
X0031802Y0080194D02*
X0034378Y0080194D01*
X0034626Y0079595D02*
X0031802Y0079595D01*
X0031802Y0078997D02*
X0035117Y0078997D01*
X0035716Y0078398D02*
X0031802Y0078398D01*
X0031802Y0077799D02*
X0036763Y0077799D01*
X0040442Y0077799D02*
X0054563Y0077799D01*
X0053797Y0078117D02*
X0055487Y0077417D01*
X0057317Y0077417D01*
X0059008Y0078117D01*
X0060302Y0079411D01*
X0061002Y0081102D01*
X0061002Y0082932D01*
X0060302Y0084622D01*
X0059008Y0085916D01*
X0057317Y0086617D01*
X0055487Y0086617D01*
X0053797Y0085916D01*
X0052503Y0084622D01*
X0051802Y0082932D01*
X0051802Y0081102D01*
X0052503Y0079411D01*
X0053797Y0078117D01*
X0053516Y0078398D02*
X0041489Y0078398D01*
X0042088Y0078997D02*
X0052917Y0078997D01*
X0052426Y0079595D02*
X0042578Y0079595D01*
X0042826Y0080194D02*
X0052178Y0080194D01*
X0051931Y0080792D02*
X0043074Y0080792D01*
X0043202Y0081391D02*
X0051802Y0081391D01*
X0051802Y0081989D02*
X0043202Y0081989D01*
X0043202Y0082588D02*
X0051802Y0082588D01*
X0051908Y0083186D02*
X0043097Y0083186D01*
X0042849Y0083785D02*
X0052156Y0083785D01*
X0052404Y0084383D02*
X0042601Y0084383D01*
X0042143Y0084982D02*
X0052862Y0084982D01*
X0053461Y0085580D02*
X0041544Y0085580D01*
X0040575Y0086179D02*
X0054430Y0086179D01*
X0058375Y0086179D02*
X0075915Y0086179D01*
X0075930Y0085580D02*
X0059344Y0085580D01*
X0059943Y0084982D02*
X0076025Y0084982D01*
X0076215Y0084383D02*
X0060401Y0084383D01*
X0060649Y0083785D02*
X0076496Y0083785D01*
X0076718Y0083186D02*
X0060897Y0083186D01*
X0061002Y0082588D02*
X0076718Y0082588D01*
X0076718Y0081989D02*
X0061002Y0081989D01*
X0061002Y0081391D02*
X0076718Y0081391D01*
X0076718Y0080792D02*
X0060874Y0080792D01*
X0060626Y0080194D02*
X0076718Y0080194D01*
X0076718Y0079595D02*
X0060378Y0079595D01*
X0059888Y0078997D02*
X0076718Y0078997D01*
X0076718Y0078398D02*
X0059289Y0078398D01*
X0058242Y0077799D02*
X0076718Y0077799D01*
X0076718Y0077201D02*
X0031802Y0077201D01*
X0031802Y0101740D02*
X0088734Y0101740D01*
X0088923Y0101740D02*
X0089523Y0101740D01*
X0089712Y0101740D02*
X0135202Y0101740D01*
X0135202Y0102338D02*
X0031802Y0102338D01*
X0031802Y0102937D02*
X0054624Y0102937D01*
X0054483Y0102983D02*
X0055232Y0102740D01*
X0056009Y0102617D01*
X0056102Y0102617D01*
X0056102Y0107317D01*
X0051402Y0107317D01*
X0051402Y0107223D01*
X0051525Y0106446D01*
X0051769Y0105697D01*
X0052126Y0104996D01*
X0052589Y0104359D01*
X0053145Y0103803D01*
X0053782Y0103340D01*
X0054483Y0102983D01*
X0053513Y0103535D02*
X0040770Y0103535D01*
X0041625Y0104134D02*
X0052814Y0104134D01*
X0052317Y0104733D02*
X0042224Y0104733D01*
X0042635Y0105331D02*
X0051955Y0105331D01*
X0051693Y0105930D02*
X0042883Y0105930D01*
X0043130Y0106528D02*
X0051512Y0106528D01*
X0051418Y0107127D02*
X0043202Y0107127D01*
X0043202Y0107725D02*
X0056102Y0107725D01*
X0056102Y0107917D02*
X0056102Y0107317D01*
X0056702Y0107317D01*
X0056702Y0107917D01*
X0056102Y0107917D01*
X0056102Y0112617D01*
X0056009Y0112617D01*
X0055232Y0112493D01*
X0054483Y0112250D01*
X0053782Y0111893D01*
X0053145Y0111430D01*
X0052589Y0110874D01*
X0052126Y0110237D01*
X0051769Y0109536D01*
X0051525Y0108787D01*
X0051402Y0108010D01*
X0051402Y0107917D01*
X0056102Y0107917D01*
X0056102Y0108324D02*
X0056702Y0108324D01*
X0056702Y0108117D02*
X0056402Y0107617D01*
X0056702Y0107725D02*
X0080515Y0107725D01*
X0079917Y0108324D02*
X0061353Y0108324D01*
X0061402Y0108010D02*
X0061279Y0108787D01*
X0061036Y0109536D01*
X0060679Y0110237D01*
X0060216Y0110874D01*
X0059660Y0111430D01*
X0059023Y0111893D01*
X0058322Y0112250D01*
X0057573Y0112493D01*
X0056796Y0112617D01*
X0056702Y0112617D01*
X0056702Y0107917D01*
X0061402Y0107917D01*
X0061402Y0108010D01*
X0061402Y0107317D02*
X0056702Y0107317D01*
X0056702Y0102617D01*
X0056796Y0102617D01*
X0057573Y0102740D01*
X0058322Y0102983D01*
X0059023Y0103340D01*
X0059660Y0103803D01*
X0060216Y0104359D01*
X0060679Y0104996D01*
X0061036Y0105697D01*
X0061279Y0106446D01*
X0061402Y0107223D01*
X0061402Y0107317D01*
X0061387Y0107127D02*
X0135202Y0107127D01*
X0135202Y0107725D02*
X0082689Y0107725D01*
X0083288Y0108324D02*
X0135202Y0108324D01*
X0135202Y0108922D02*
X0101486Y0108922D01*
X0102085Y0109521D02*
X0135202Y0109521D01*
X0135202Y0110119D02*
X0102391Y0110119D01*
X0102391Y0110718D02*
X0114077Y0110718D01*
X0113803Y0111316D02*
X0102391Y0111316D01*
X0102283Y0111915D02*
X0113803Y0111915D01*
X0113803Y0112513D02*
X0101684Y0112513D01*
X0101202Y0113112D02*
X0113803Y0113112D01*
X0113803Y0113710D02*
X0101066Y0113710D01*
X0100467Y0114309D02*
X0113803Y0114309D01*
X0113803Y0114907D02*
X0099869Y0114907D01*
X0099270Y0115506D02*
X0113803Y0115506D01*
X0113378Y0116104D02*
X0105169Y0116104D01*
X0105767Y0116703D02*
X0112780Y0116703D01*
X0112181Y0117301D02*
X0106366Y0117301D01*
X0106391Y0117900D02*
X0111582Y0117900D01*
X0110984Y0118498D02*
X0106391Y0118498D01*
X0106391Y0119097D02*
X0110385Y0119097D01*
X0109787Y0119695D02*
X0106002Y0119695D01*
X0105404Y0120294D02*
X0109188Y0120294D01*
X0108590Y0120892D02*
X0103124Y0120892D01*
X0102077Y0120242D02*
X0104002Y0118317D01*
X0102238Y0116703D02*
X0099046Y0116703D01*
X0099046Y0117301D02*
X0101639Y0117301D01*
X0101613Y0117900D02*
X0099046Y0117900D01*
X0099046Y0118498D02*
X0101613Y0118498D01*
X0102077Y0120242D02*
X0095396Y0120242D01*
X0095396Y0117683D02*
X0100002Y0113076D01*
X0100002Y0110817D01*
X0098320Y0112513D02*
X0083002Y0112513D01*
X0083002Y0113112D02*
X0098270Y0113112D01*
X0097672Y0113710D02*
X0083002Y0113710D01*
X0083002Y0114309D02*
X0097073Y0114309D01*
X0096475Y0114907D02*
X0083002Y0114907D01*
X0083002Y0115506D02*
X0095876Y0115506D01*
X0097722Y0111915D02*
X0083083Y0111915D01*
X0083681Y0111316D02*
X0097613Y0111316D01*
X0097613Y0110718D02*
X0083991Y0110718D01*
X0083991Y0110119D02*
X0097613Y0110119D01*
X0097920Y0109521D02*
X0083991Y0109521D01*
X0083886Y0108922D02*
X0098518Y0108922D01*
X0098672Y0116104D02*
X0102836Y0116104D01*
X0099441Y0124483D02*
X0120202Y0124483D01*
X0120502Y0124273D02*
X0120902Y0124317D01*
X0120902Y0126117D01*
X0123902Y0129117D01*
X0123902Y0129271D02*
X0123624Y0129271D01*
X0123765Y0129870D02*
X0123902Y0129870D01*
X0123902Y0130468D02*
X0123765Y0130468D01*
X0123765Y0131067D02*
X0123902Y0131067D01*
X0123902Y0131666D02*
X0123765Y0131666D01*
X0123765Y0132264D02*
X0123902Y0132264D01*
X0123902Y0132863D02*
X0123765Y0132863D01*
X0123902Y0133461D02*
X0123611Y0133461D01*
X0126302Y0133461D02*
X0135202Y0133461D01*
X0135202Y0132863D02*
X0126302Y0132863D01*
X0126302Y0132264D02*
X0135202Y0132264D01*
X0135202Y0131666D02*
X0126302Y0131666D01*
X0126302Y0131067D02*
X0135202Y0131067D01*
X0135202Y0130468D02*
X0126302Y0130468D01*
X0126302Y0129870D02*
X0135202Y0129870D01*
X0135202Y0129271D02*
X0126302Y0129271D01*
X0126302Y0128673D02*
X0135202Y0128673D01*
X0135202Y0128074D02*
X0126302Y0128074D01*
X0126302Y0127476D02*
X0135202Y0127476D01*
X0135202Y0126877D02*
X0126302Y0126877D01*
X0126302Y0126279D02*
X0135202Y0126279D01*
X0135202Y0125680D02*
X0126302Y0125680D01*
X0126302Y0125082D02*
X0135202Y0125082D01*
X0135202Y0124483D02*
X0126302Y0124483D01*
X0126302Y0123885D02*
X0135202Y0123885D01*
X0135202Y0123286D02*
X0126302Y0123286D01*
X0126302Y0122688D02*
X0135202Y0122688D01*
X0135202Y0122089D02*
X0126302Y0122089D01*
X0126302Y0121491D02*
X0135202Y0121491D01*
X0135202Y0120892D02*
X0126302Y0120892D01*
X0126302Y0120294D02*
X0135202Y0120294D01*
X0135202Y0119695D02*
X0126302Y0119695D01*
X0126302Y0119097D02*
X0135202Y0119097D01*
X0135202Y0118498D02*
X0126302Y0118498D01*
X0127944Y0117900D02*
X0135202Y0117900D01*
X0135202Y0117301D02*
X0128202Y0117301D01*
X0128202Y0116703D02*
X0135202Y0116703D01*
X0135202Y0116104D02*
X0128202Y0116104D01*
X0128202Y0115506D02*
X0135202Y0115506D01*
X0135202Y0114907D02*
X0128202Y0114907D01*
X0128202Y0114309D02*
X0135202Y0114309D01*
X0135202Y0113710D02*
X0128202Y0113710D01*
X0128202Y0113112D02*
X0135202Y0113112D01*
X0135202Y0112513D02*
X0128202Y0112513D01*
X0128202Y0111915D02*
X0135202Y0111915D01*
X0135202Y0111316D02*
X0128202Y0111316D01*
X0127928Y0110718D02*
X0135202Y0110718D01*
X0135202Y0106528D02*
X0061292Y0106528D01*
X0061112Y0105930D02*
X0135202Y0105930D01*
X0135202Y0105331D02*
X0060849Y0105331D01*
X0060487Y0104733D02*
X0135202Y0104733D01*
X0135202Y0104134D02*
X0059991Y0104134D01*
X0059292Y0103535D02*
X0135202Y0103535D01*
X0135202Y0102937D02*
X0058180Y0102937D01*
X0056702Y0102937D02*
X0056102Y0102937D01*
X0056102Y0103535D02*
X0056702Y0103535D01*
X0056702Y0104134D02*
X0056102Y0104134D01*
X0056102Y0104733D02*
X0056702Y0104733D01*
X0056702Y0105331D02*
X0056102Y0105331D01*
X0056102Y0105930D02*
X0056702Y0105930D01*
X0056702Y0106528D02*
X0056102Y0106528D01*
X0056102Y0107127D02*
X0056702Y0107127D01*
X0056702Y0108117D02*
X0051302Y0113517D01*
X0049161Y0114656D02*
X0049332Y0114953D01*
X0049420Y0115283D01*
X0049420Y0117517D01*
X0046846Y0117517D01*
X0046846Y0118117D01*
X0046246Y0118117D01*
X0046246Y0121479D01*
X0044800Y0121479D01*
X0044469Y0121390D01*
X0044173Y0121219D01*
X0043931Y0120977D01*
X0043759Y0120681D01*
X0043671Y0120350D01*
X0043671Y0118117D01*
X0046246Y0118117D01*
X0046246Y0117517D01*
X0043671Y0117517D01*
X0043671Y0115283D01*
X0043759Y0114953D01*
X0043931Y0114656D01*
X0044173Y0114414D01*
X0044469Y0114243D01*
X0044800Y0114154D01*
X0046246Y0114154D01*
X0046246Y0117517D01*
X0046846Y0117517D01*
X0046846Y0114154D01*
X0048292Y0114154D01*
X0048622Y0114243D01*
X0048919Y0114414D01*
X0049161Y0114656D01*
X0049306Y0114907D02*
X0080202Y0114907D01*
X0080202Y0114309D02*
X0048736Y0114309D01*
X0049420Y0115506D02*
X0080202Y0115506D01*
X0080202Y0116104D02*
X0069738Y0116104D01*
X0069731Y0116098D02*
X0070259Y0116625D01*
X0070259Y0118741D01*
X0070037Y0118962D01*
X0070259Y0119184D01*
X0070259Y0121300D01*
X0070037Y0121521D01*
X0070259Y0121743D01*
X0070259Y0123859D01*
X0070037Y0124080D01*
X0070259Y0124302D01*
X0070259Y0126418D01*
X0070037Y0126639D01*
X0070259Y0126861D01*
X0070259Y0128977D01*
X0070037Y0129198D01*
X0070259Y0129420D01*
X0070259Y0131536D01*
X0070037Y0131758D01*
X0070259Y0131979D01*
X0070259Y0133973D01*
X0070399Y0134113D01*
X0070570Y0134409D01*
X0070659Y0134740D01*
X0070659Y0135554D01*
X0066651Y0135554D01*
X0066651Y0135639D01*
X0070659Y0135639D01*
X0070659Y0136452D01*
X0070570Y0136783D01*
X0070399Y0137079D01*
X0070259Y0137220D01*
X0070259Y0139213D01*
X0070037Y0139435D01*
X0070259Y0139656D01*
X0070259Y0140376D01*
X0094999Y0165117D01*
X0095702Y0165820D01*
X0095702Y0175420D01*
X0103752Y0183470D01*
X0103752Y0182626D01*
X0103959Y0182419D01*
X0103752Y0182212D01*
X0103752Y0180067D01*
X0103959Y0179860D01*
X0103752Y0179653D01*
X0103752Y0177508D01*
X0103959Y0177301D01*
X0103752Y0177094D01*
X0103752Y0174949D01*
X0103959Y0174742D01*
X0103752Y0174535D01*
X0103752Y0172389D01*
X0103959Y0172183D01*
X0103752Y0171976D01*
X0103752Y0169830D01*
X0103959Y0169624D01*
X0103880Y0169544D01*
X0103533Y0169544D01*
X0097694Y0163706D01*
X0096013Y0163706D01*
X0094613Y0162306D01*
X0094613Y0160327D01*
X0096013Y0158928D01*
X0097992Y0158928D01*
X0099391Y0160327D01*
X0099391Y0162009D01*
X0103752Y0166370D01*
X0103752Y0164712D01*
X0104280Y0164185D01*
X0104655Y0164185D01*
X0102505Y0162035D01*
X0101802Y0161332D01*
X0101802Y0159995D01*
X0100613Y0158806D01*
X0100613Y0156827D01*
X0102013Y0155428D01*
X0103992Y0155428D01*
X0105391Y0156827D01*
X0105391Y0158806D01*
X0104202Y0159995D01*
X0104202Y0160338D01*
X0108049Y0164185D01*
X0111625Y0164185D01*
X0112152Y0164712D01*
X0112152Y0166858D01*
X0111946Y0167065D01*
X0112152Y0167271D01*
X0112152Y0169417D01*
X0111946Y0169624D01*
X0112152Y0169830D01*
X0112152Y0171976D01*
X0111946Y0172183D01*
X0112152Y0172389D01*
X0112152Y0174535D01*
X0111946Y0174742D01*
X0112152Y0174949D01*
X0112152Y0177094D01*
X0111946Y0177301D01*
X0112152Y0177508D01*
X0112152Y0179653D01*
X0111946Y0179860D01*
X0112152Y0180067D01*
X0112152Y0180470D01*
X0112502Y0180820D01*
X0125702Y0194020D01*
X0125702Y0197617D01*
X0128328Y0197617D01*
X0128855Y0198145D01*
X0128855Y0204008D01*
X0128328Y0204535D01*
X0121677Y0204535D01*
X0121150Y0204008D01*
X0121150Y0198145D01*
X0121677Y0197617D01*
X0123302Y0197617D01*
X0123302Y0195014D01*
X0112152Y0183864D01*
X0112152Y0184771D01*
X0111946Y0184978D01*
X0112152Y0185185D01*
X0112152Y0187330D01*
X0111946Y0187537D01*
X0112152Y0187744D01*
X0112152Y0189889D01*
X0111946Y0190096D01*
X0112152Y0190303D01*
X0112152Y0192448D01*
X0111946Y0192655D01*
X0112152Y0192862D01*
X0112152Y0195007D01*
X0111946Y0195214D01*
X0112152Y0195421D01*
X0112152Y0195617D01*
X0114324Y0195617D01*
X0115513Y0194428D01*
X0117492Y0194428D01*
X0118891Y0195827D01*
X0118891Y0197806D01*
X0117492Y0199206D01*
X0115513Y0199206D01*
X0114324Y0198017D01*
X0112152Y0198017D01*
X0112152Y0200126D01*
X0111946Y0200332D01*
X0112130Y0200517D01*
X0112999Y0200517D01*
X0116478Y0203995D01*
X0117181Y0204698D01*
X0117181Y0205608D01*
X0118370Y0206797D01*
X0118370Y0208776D01*
X0116971Y0210176D01*
X0115459Y0210176D01*
X0122102Y0216820D01*
X0122102Y0228820D01*
X0122171Y0228888D01*
X0122171Y0228117D01*
X0124746Y0228117D01*
X0124746Y0231463D01*
X0129099Y0235817D01*
X0130925Y0235817D01*
X0131452Y0236344D01*
X0131452Y0244889D01*
X0130925Y0245417D01*
X0128080Y0245417D01*
X0127552Y0244889D01*
X0127552Y0237664D01*
X0126852Y0236964D01*
X0126852Y0240392D01*
X0124727Y0240392D01*
X0124502Y0240617D02*
X0125102Y0242517D01*
X0114902Y0252717D01*
X0113702Y0252717D01*
X0103502Y0262917D01*
X0102902Y0262917D01*
X0105302Y0265317D01*
X0115502Y0265317D01*
X0119102Y0261717D01*
X0119102Y0260517D01*
X0119502Y0260017D01*
X0119702Y0260517D01*
X0124502Y0260517D01*
X0124502Y0260017D01*
X0124277Y0260242D02*
X0124277Y0259792D01*
X0122152Y0259792D01*
X0122152Y0255945D01*
X0122241Y0255615D01*
X0122412Y0255318D01*
X0122654Y0255076D01*
X0122951Y0254905D01*
X0123281Y0254817D01*
X0124277Y0254817D01*
X0124277Y0259791D01*
X0124727Y0259791D01*
X0124727Y0254817D01*
X0125724Y0254817D01*
X0126054Y0254905D01*
X0126351Y0255076D01*
X0126593Y0255318D01*
X0126764Y0255615D01*
X0126852Y0255945D01*
X0126852Y0259792D01*
X0124727Y0259792D01*
X0124727Y0260242D01*
X0124277Y0260242D01*
X0124277Y0265217D01*
X0123281Y0265217D01*
X0122951Y0265128D01*
X0122654Y0264957D01*
X0122412Y0264715D01*
X0122241Y0264418D01*
X0122152Y0264088D01*
X0122152Y0260242D01*
X0124277Y0260242D01*
X0124277Y0260345D02*
X0124727Y0260345D01*
X0124727Y0260242D02*
X0124727Y0265217D01*
X0125724Y0265217D01*
X0126054Y0265128D01*
X0126351Y0264957D01*
X0126593Y0264715D01*
X0126764Y0264418D01*
X0126852Y0264088D01*
X0126852Y0260242D01*
X0124727Y0260242D01*
X0124727Y0259747D02*
X0124277Y0259747D01*
X0124277Y0259148D02*
X0124727Y0259148D01*
X0124727Y0258550D02*
X0124277Y0258550D01*
X0124277Y0257951D02*
X0124727Y0257951D01*
X0124727Y0257353D02*
X0124277Y0257353D01*
X0124277Y0256754D02*
X0124727Y0256754D01*
X0124727Y0256156D02*
X0124277Y0256156D01*
X0124277Y0255557D02*
X0124727Y0255557D01*
X0124727Y0254959D02*
X0124277Y0254959D01*
X0122858Y0254959D02*
X0121147Y0254959D01*
X0121054Y0254905D02*
X0121351Y0255076D01*
X0121593Y0255318D01*
X0121764Y0255615D01*
X0121852Y0255945D01*
X0121852Y0259792D01*
X0119727Y0259792D01*
X0119727Y0260242D01*
X0119277Y0260242D01*
X0119277Y0265217D01*
X0118281Y0265217D01*
X0117951Y0265128D01*
X0117654Y0264957D01*
X0117412Y0264715D01*
X0117241Y0264418D01*
X0117152Y0264088D01*
X0117152Y0260242D01*
X0119277Y0260242D01*
X0119277Y0259792D01*
X0117152Y0259792D01*
X0117152Y0255945D01*
X0117241Y0255615D01*
X0117412Y0255318D01*
X0117654Y0255076D01*
X0117951Y0254905D01*
X0118281Y0254817D01*
X0119277Y0254817D01*
X0119277Y0259791D01*
X0119727Y0259791D01*
X0119727Y0254817D01*
X0120724Y0254817D01*
X0121054Y0254905D01*
X0121731Y0255557D02*
X0122274Y0255557D01*
X0122152Y0256156D02*
X0121852Y0256156D01*
X0121852Y0256754D02*
X0122152Y0256754D01*
X0122152Y0257353D02*
X0121852Y0257353D01*
X0121852Y0257951D02*
X0122152Y0257951D01*
X0122152Y0258550D02*
X0121852Y0258550D01*
X0121852Y0259148D02*
X0122152Y0259148D01*
X0122152Y0259747D02*
X0121852Y0259747D01*
X0121852Y0260242D02*
X0119727Y0260242D01*
X0119727Y0265217D01*
X0120724Y0265217D01*
X0121054Y0265128D01*
X0121351Y0264957D01*
X0121593Y0264715D01*
X0121764Y0264418D01*
X0121852Y0264088D01*
X0121852Y0260242D01*
X0121852Y0260345D02*
X0122152Y0260345D01*
X0122152Y0260944D02*
X0121852Y0260944D01*
X0121852Y0261542D02*
X0122152Y0261542D01*
X0122152Y0262141D02*
X0121852Y0262141D01*
X0121852Y0262739D02*
X0122152Y0262739D01*
X0122152Y0263338D02*
X0121852Y0263338D01*
X0121852Y0263937D02*
X0122152Y0263937D01*
X0122308Y0264535D02*
X0121696Y0264535D01*
X0121033Y0265134D02*
X0122971Y0265134D01*
X0124277Y0265134D02*
X0124727Y0265134D01*
X0124727Y0264535D02*
X0124277Y0264535D01*
X0124277Y0263937D02*
X0124727Y0263937D01*
X0124727Y0263338D02*
X0124277Y0263338D01*
X0124277Y0262739D02*
X0124727Y0262739D01*
X0124727Y0262141D02*
X0124277Y0262141D01*
X0124277Y0261542D02*
X0124727Y0261542D01*
X0124727Y0260944D02*
X0124277Y0260944D01*
X0126033Y0265134D02*
X0135202Y0265134D01*
X0135202Y0264535D02*
X0131207Y0264535D01*
X0131452Y0263937D02*
X0135202Y0263937D01*
X0135202Y0263338D02*
X0131452Y0263338D01*
X0131452Y0262739D02*
X0135202Y0262739D01*
X0135202Y0262141D02*
X0131452Y0262141D01*
X0131452Y0261542D02*
X0135202Y0261542D01*
X0135202Y0260944D02*
X0131452Y0260944D01*
X0131452Y0260345D02*
X0135202Y0260345D01*
X0135202Y0259747D02*
X0131769Y0259747D01*
X0132368Y0259148D02*
X0135202Y0259148D01*
X0135202Y0258550D02*
X0132966Y0258550D01*
X0133565Y0257951D02*
X0135202Y0257951D01*
X0135202Y0257353D02*
X0134163Y0257353D01*
X0134762Y0256754D02*
X0135202Y0256754D01*
X0134102Y0255717D02*
X0129902Y0259917D01*
X0129502Y0260017D01*
X0127552Y0259747D02*
X0126852Y0259747D01*
X0126852Y0260345D02*
X0127552Y0260345D01*
X0127552Y0260944D02*
X0126852Y0260944D01*
X0126852Y0261542D02*
X0127552Y0261542D01*
X0127552Y0262141D02*
X0126852Y0262141D01*
X0126852Y0262739D02*
X0127552Y0262739D01*
X0127552Y0263338D02*
X0126852Y0263338D01*
X0126852Y0263937D02*
X0127552Y0263937D01*
X0127798Y0264535D02*
X0126696Y0264535D01*
X0126852Y0259148D02*
X0127552Y0259148D01*
X0127552Y0258550D02*
X0126852Y0258550D01*
X0126852Y0257951D02*
X0127552Y0257951D01*
X0127552Y0257353D02*
X0126852Y0257353D01*
X0126852Y0256754D02*
X0127552Y0256754D01*
X0127552Y0256156D02*
X0126852Y0256156D01*
X0126731Y0255557D02*
X0127739Y0255557D01*
X0126147Y0254959D02*
X0132902Y0254959D01*
X0132902Y0254360D02*
X0102765Y0254360D01*
X0102954Y0253762D02*
X0132902Y0253762D01*
X0132902Y0253163D02*
X0103553Y0253163D01*
X0104151Y0252565D02*
X0132902Y0252565D01*
X0132902Y0251966D02*
X0104750Y0251966D01*
X0105348Y0251368D02*
X0132902Y0251368D01*
X0132902Y0250769D02*
X0105947Y0250769D01*
X0106545Y0250171D02*
X0132902Y0250171D01*
X0132902Y0249572D02*
X0107144Y0249572D01*
X0107742Y0248974D02*
X0132902Y0248974D01*
X0132902Y0248375D02*
X0108341Y0248375D01*
X0108939Y0247777D02*
X0132902Y0247777D01*
X0132902Y0247178D02*
X0109538Y0247178D01*
X0110136Y0246580D02*
X0132902Y0246580D01*
X0132902Y0245981D02*
X0110735Y0245981D01*
X0111333Y0245383D02*
X0113046Y0245383D01*
X0112552Y0244784D02*
X0111932Y0244784D01*
X0112530Y0244186D02*
X0112552Y0244186D01*
X0114302Y0240717D02*
X0114502Y0240617D01*
X0114302Y0240717D02*
X0102302Y0252717D01*
X0099902Y0252717D01*
X0099502Y0252773D01*
X0099202Y0256985D02*
X0096969Y0256985D01*
X0096638Y0257074D01*
X0096342Y0257245D01*
X0096100Y0257487D01*
X0095929Y0257783D01*
X0095840Y0258114D01*
X0095840Y0259560D01*
X0099202Y0259560D01*
X0099202Y0260160D01*
X0095840Y0260160D01*
X0095840Y0261606D01*
X0095929Y0261936D01*
X0096100Y0262233D01*
X0096342Y0262475D01*
X0096638Y0262646D01*
X0096969Y0262735D01*
X0099202Y0262735D01*
X0099202Y0260160D01*
X0099802Y0260160D01*
X0099802Y0262735D01*
X0102036Y0262735D01*
X0102366Y0262646D01*
X0102663Y0262475D01*
X0102905Y0262233D01*
X0103076Y0261936D01*
X0103165Y0261606D01*
X0103165Y0260160D01*
X0099802Y0260160D01*
X0099802Y0259560D01*
X0099802Y0256985D01*
X0102036Y0256985D01*
X0102366Y0257074D01*
X0102663Y0257245D01*
X0102905Y0257487D01*
X0103076Y0257783D01*
X0103165Y0258114D01*
X0103165Y0259560D01*
X0099802Y0259560D01*
X0099202Y0259560D01*
X0099202Y0256985D01*
X0099202Y0257353D02*
X0099802Y0257353D01*
X0099802Y0257951D02*
X0099202Y0257951D01*
X0099202Y0258550D02*
X0099802Y0258550D01*
X0099802Y0259148D02*
X0099202Y0259148D01*
X0099202Y0259747D02*
X0088386Y0259747D01*
X0088348Y0259602D02*
X0088436Y0259933D01*
X0088436Y0261044D01*
X0085802Y0261044D01*
X0085802Y0258804D01*
X0087307Y0258804D01*
X0087638Y0258893D01*
X0087934Y0259064D01*
X0088176Y0259306D01*
X0088348Y0259602D01*
X0088019Y0259148D02*
X0095840Y0259148D01*
X0095840Y0258550D02*
X0074402Y0258550D01*
X0074765Y0259148D02*
X0082986Y0259148D01*
X0083070Y0259064D02*
X0083367Y0258893D01*
X0083697Y0258804D01*
X0085202Y0258804D01*
X0085202Y0261044D01*
X0082569Y0261044D01*
X0082569Y0259933D01*
X0082657Y0259602D01*
X0082828Y0259306D01*
X0083070Y0259064D01*
X0082618Y0259747D02*
X0074765Y0259747D01*
X0074765Y0260345D02*
X0082569Y0260345D01*
X0082569Y0260944D02*
X0074765Y0260944D01*
X0074765Y0261542D02*
X0085202Y0261542D01*
X0085202Y0261644D02*
X0085202Y0261044D01*
X0085802Y0261044D01*
X0085802Y0261644D01*
X0085202Y0261644D01*
X0082569Y0261644D01*
X0082569Y0262755D01*
X0082657Y0263086D01*
X0082828Y0263383D01*
X0083070Y0263625D01*
X0083367Y0263796D01*
X0083697Y0263884D01*
X0085202Y0263884D01*
X0085202Y0261644D01*
X0085202Y0262141D02*
X0085802Y0262141D01*
X0085802Y0261644D02*
X0085802Y0263884D01*
X0087307Y0263884D01*
X0087638Y0263796D01*
X0087934Y0263625D01*
X0088176Y0263383D01*
X0088348Y0263086D01*
X0088436Y0262755D01*
X0088436Y0261644D01*
X0085802Y0261644D01*
X0085802Y0261542D02*
X0095840Y0261542D01*
X0095702Y0261117D02*
X0098102Y0261117D01*
X0099302Y0259917D01*
X0099502Y0259860D01*
X0099902Y0259917D01*
X0102902Y0262917D01*
X0102958Y0262141D02*
X0106453Y0262141D01*
X0106453Y0262739D02*
X0088436Y0262739D01*
X0088436Y0262141D02*
X0096047Y0262141D01*
X0095840Y0260944D02*
X0088436Y0260944D01*
X0088436Y0260345D02*
X0095840Y0260345D01*
X0095884Y0257951D02*
X0061904Y0257951D01*
X0062152Y0258550D02*
X0068603Y0258550D01*
X0068240Y0259148D02*
X0062400Y0259148D01*
X0062627Y0259747D02*
X0068240Y0259747D01*
X0068240Y0262739D02*
X0062294Y0262739D01*
X0062046Y0263338D02*
X0082803Y0263338D01*
X0082569Y0262739D02*
X0074765Y0262739D01*
X0074765Y0262141D02*
X0082569Y0262141D01*
X0085202Y0262739D02*
X0085802Y0262739D01*
X0085802Y0263338D02*
X0085202Y0263338D01*
X0085202Y0260944D02*
X0085802Y0260944D01*
X0085802Y0260345D02*
X0085202Y0260345D01*
X0085202Y0259747D02*
X0085802Y0259747D01*
X0085802Y0259148D02*
X0085202Y0259148D01*
X0088202Y0263338D02*
X0106645Y0263338D01*
X0106453Y0263145D02*
X0106453Y0261166D01*
X0107852Y0259767D01*
X0109534Y0259767D01*
X0109781Y0259520D01*
X0109781Y0259520D01*
X0110484Y0258817D01*
X0112552Y0258817D01*
X0112552Y0255744D01*
X0113080Y0255217D01*
X0115925Y0255217D01*
X0116452Y0255744D01*
X0116452Y0264289D01*
X0115925Y0264817D01*
X0113080Y0264817D01*
X0112552Y0264289D01*
X0112552Y0261217D01*
X0111478Y0261217D01*
X0111231Y0261464D01*
X0111231Y0263145D01*
X0109831Y0264545D01*
X0107852Y0264545D01*
X0106453Y0263145D01*
X0107244Y0263937D02*
X0061798Y0263937D01*
X0061239Y0264535D02*
X0107842Y0264535D01*
X0109841Y0264535D02*
X0112798Y0264535D01*
X0112552Y0263937D02*
X0110439Y0263937D01*
X0111038Y0263338D02*
X0112552Y0263338D01*
X0112552Y0262739D02*
X0111231Y0262739D01*
X0111231Y0262141D02*
X0112552Y0262141D01*
X0112552Y0261542D02*
X0111231Y0261542D01*
X0110981Y0260017D02*
X0108842Y0262156D01*
X0107274Y0260345D02*
X0103165Y0260345D01*
X0103165Y0260944D02*
X0106675Y0260944D01*
X0106453Y0261542D02*
X0103165Y0261542D01*
X0103165Y0259148D02*
X0110152Y0259148D01*
X0109554Y0259747D02*
X0099802Y0259747D01*
X0099802Y0260345D02*
X0099202Y0260345D01*
X0099202Y0260944D02*
X0099802Y0260944D01*
X0099802Y0261542D02*
X0099202Y0261542D01*
X0099202Y0262141D02*
X0099802Y0262141D01*
X0102771Y0257353D02*
X0112552Y0257353D01*
X0112552Y0257951D02*
X0103121Y0257951D01*
X0103165Y0258550D02*
X0112552Y0258550D01*
X0112552Y0256754D02*
X0060895Y0256754D01*
X0060297Y0256156D02*
X0068109Y0256156D01*
X0067850Y0255557D02*
X0059004Y0255557D01*
X0061494Y0257353D02*
X0096234Y0257353D01*
X0102527Y0254959D02*
X0117858Y0254959D01*
X0117274Y0255557D02*
X0116266Y0255557D01*
X0116452Y0256156D02*
X0117152Y0256156D01*
X0117152Y0256754D02*
X0116452Y0256754D01*
X0116452Y0257353D02*
X0117152Y0257353D01*
X0117152Y0257951D02*
X0116452Y0257951D01*
X0116452Y0258550D02*
X0117152Y0258550D01*
X0117152Y0259148D02*
X0116452Y0259148D01*
X0116452Y0259747D02*
X0117152Y0259747D01*
X0117152Y0260345D02*
X0116452Y0260345D01*
X0116452Y0260944D02*
X0117152Y0260944D01*
X0117152Y0261542D02*
X0116452Y0261542D01*
X0116452Y0262141D02*
X0117152Y0262141D01*
X0117152Y0262739D02*
X0116452Y0262739D01*
X0116452Y0263338D02*
X0117152Y0263338D01*
X0117152Y0263937D02*
X0116452Y0263937D01*
X0116207Y0264535D02*
X0117308Y0264535D01*
X0117971Y0265134D02*
X0060640Y0265134D01*
X0057302Y0261117D02*
X0057002Y0260817D01*
X0056702Y0261117D01*
X0037502Y0261117D01*
X0037002Y0260817D01*
X0037502Y0260517D01*
X0037502Y0241317D01*
X0037002Y0240817D01*
X0037502Y0240717D01*
X0056702Y0240717D01*
X0057002Y0240817D01*
X0059233Y0245981D02*
X0068931Y0245981D01*
X0069032Y0246040D02*
X0068736Y0245869D01*
X0068494Y0245627D01*
X0068322Y0245330D01*
X0068234Y0245000D01*
X0068234Y0242963D01*
X0071202Y0242963D01*
X0071202Y0242363D01*
X0068234Y0242363D01*
X0068234Y0240327D01*
X0068322Y0239996D01*
X0062627Y0239996D01*
X0062627Y0240595D02*
X0068234Y0240595D01*
X0068234Y0241193D02*
X0062627Y0241193D01*
X0062627Y0241792D02*
X0068234Y0241792D01*
X0068234Y0242989D02*
X0062191Y0242989D01*
X0061943Y0243587D02*
X0068234Y0243587D01*
X0068234Y0244186D02*
X0061588Y0244186D01*
X0060990Y0244784D02*
X0068234Y0244784D01*
X0068353Y0245383D02*
X0060391Y0245383D01*
X0062439Y0242390D02*
X0071202Y0242390D01*
X0071202Y0242363D02*
X0071802Y0242363D01*
X0071802Y0239198D01*
X0073642Y0239198D01*
X0073973Y0239286D01*
X0074269Y0239457D01*
X0074511Y0239699D01*
X0074682Y0239996D01*
X0074771Y0240327D01*
X0074771Y0242363D01*
X0071802Y0242363D01*
X0071802Y0242963D01*
X0071202Y0242963D01*
X0071202Y0246128D01*
X0069363Y0246128D01*
X0069032Y0246040D01*
X0071202Y0245981D02*
X0071802Y0245981D01*
X0071802Y0246128D02*
X0071802Y0242963D01*
X0074771Y0242963D01*
X0074771Y0245000D01*
X0074682Y0245330D01*
X0074511Y0245627D01*
X0074269Y0245869D01*
X0073973Y0246040D01*
X0073642Y0246128D01*
X0071802Y0246128D01*
X0071802Y0245383D02*
X0071202Y0245383D01*
X0071202Y0244784D02*
X0071802Y0244784D01*
X0071802Y0244186D02*
X0071202Y0244186D01*
X0071202Y0243587D02*
X0071802Y0243587D01*
X0071802Y0242989D02*
X0071202Y0242989D01*
X0071202Y0242363D02*
X0071202Y0239198D01*
X0069363Y0239198D01*
X0069032Y0239286D01*
X0068736Y0239457D01*
X0068494Y0239699D01*
X0068322Y0239996D01*
X0068839Y0239398D02*
X0062503Y0239398D01*
X0062255Y0238799D02*
X0068925Y0238799D01*
X0068634Y0238201D02*
X0062007Y0238201D01*
X0061743Y0237602D02*
X0065909Y0237602D01*
X0065311Y0237004D02*
X0061144Y0237004D01*
X0060546Y0236405D02*
X0065013Y0236405D01*
X0065013Y0235806D02*
X0059606Y0235806D01*
X0059580Y0226230D02*
X0065446Y0226230D01*
X0065358Y0225632D02*
X0059580Y0225632D01*
X0059580Y0225033D02*
X0065358Y0225033D01*
X0065358Y0224435D02*
X0059580Y0224435D01*
X0059397Y0223836D02*
X0065358Y0223836D01*
X0065358Y0223238D02*
X0044998Y0223238D01*
X0044903Y0223836D02*
X0053237Y0223836D01*
X0053055Y0224435D02*
X0044734Y0224435D01*
X0044485Y0225033D02*
X0053055Y0225033D01*
X0053055Y0225632D02*
X0044137Y0225632D01*
X0043660Y0226230D02*
X0053055Y0226230D01*
X0053055Y0226829D02*
X0042987Y0226829D01*
X0041967Y0227427D02*
X0053055Y0227427D01*
X0053481Y0222041D02*
X0044942Y0222041D01*
X0044813Y0221442D02*
X0053055Y0221442D01*
X0053055Y0220844D02*
X0044609Y0220844D01*
X0044304Y0220245D02*
X0053055Y0220245D01*
X0053055Y0219647D02*
X0043880Y0219647D01*
X0043305Y0219048D02*
X0053055Y0219048D01*
X0053055Y0218450D02*
X0042445Y0218450D01*
X0041313Y0217253D02*
X0053055Y0217253D01*
X0053055Y0217851D02*
X0040614Y0217851D01*
X0040302Y0217851D02*
X0039702Y0217851D01*
X0039391Y0217851D02*
X0031802Y0217851D01*
X0031802Y0217253D02*
X0038692Y0217253D01*
X0039087Y0217417D02*
X0037397Y0216716D01*
X0036103Y0215422D01*
X0035402Y0213732D01*
X0035402Y0211902D01*
X0036103Y0210211D01*
X0037397Y0208917D01*
X0039087Y0208217D01*
X0040917Y0208217D01*
X0042608Y0208917D01*
X0043902Y0210211D01*
X0044602Y0211902D01*
X0044602Y0213732D01*
X0043902Y0215422D01*
X0042608Y0216716D01*
X0040917Y0217417D01*
X0039087Y0217417D01*
X0039702Y0218450D02*
X0040302Y0218450D01*
X0040302Y0219048D02*
X0039702Y0219048D01*
X0039702Y0219647D02*
X0040302Y0219647D01*
X0040302Y0220245D02*
X0039702Y0220245D01*
X0039702Y0220844D02*
X0040302Y0220844D01*
X0040302Y0221442D02*
X0039702Y0221442D01*
X0039702Y0222041D02*
X0040302Y0222041D01*
X0040302Y0223238D02*
X0039702Y0223238D01*
X0039702Y0223836D02*
X0040302Y0223836D01*
X0040302Y0224435D02*
X0039702Y0224435D01*
X0039702Y0225033D02*
X0040302Y0225033D01*
X0040302Y0225632D02*
X0039702Y0225632D01*
X0039702Y0226230D02*
X0040302Y0226230D01*
X0040302Y0226829D02*
X0039702Y0226829D01*
X0039702Y0227427D02*
X0040302Y0227427D01*
X0036125Y0219647D02*
X0031802Y0219647D01*
X0031802Y0220245D02*
X0035701Y0220245D01*
X0035396Y0220844D02*
X0031802Y0220844D01*
X0031802Y0221442D02*
X0035192Y0221442D01*
X0035063Y0222041D02*
X0031802Y0222041D01*
X0031802Y0219048D02*
X0036700Y0219048D01*
X0037559Y0218450D02*
X0031802Y0218450D01*
X0031802Y0216654D02*
X0037335Y0216654D01*
X0036736Y0216056D02*
X0031802Y0216056D01*
X0031802Y0215457D02*
X0036138Y0215457D01*
X0035869Y0214859D02*
X0031802Y0214859D01*
X0031802Y0214260D02*
X0035621Y0214260D01*
X0035402Y0213662D02*
X0031802Y0213662D01*
X0031802Y0213063D02*
X0035402Y0213063D01*
X0035402Y0212465D02*
X0031802Y0212465D01*
X0031802Y0211866D02*
X0035417Y0211866D01*
X0035665Y0211268D02*
X0031802Y0211268D01*
X0031802Y0210669D02*
X0035913Y0210669D01*
X0036243Y0210070D02*
X0031802Y0210070D01*
X0031802Y0209472D02*
X0036842Y0209472D01*
X0037501Y0208873D02*
X0031802Y0208873D01*
X0031802Y0208275D02*
X0038946Y0208275D01*
X0038270Y0207078D02*
X0031802Y0207078D01*
X0031802Y0207676D02*
X0052713Y0207676D01*
X0052713Y0207078D02*
X0041735Y0207078D01*
X0042845Y0206479D02*
X0052713Y0206479D01*
X0052713Y0205881D02*
X0043443Y0205881D01*
X0043960Y0205282D02*
X0052713Y0205282D01*
X0052713Y0204684D02*
X0044208Y0204684D01*
X0044267Y0201093D02*
X0052713Y0201093D01*
X0052713Y0200494D02*
X0044019Y0200494D01*
X0043587Y0199896D02*
X0052713Y0199896D01*
X0052713Y0199297D02*
X0042988Y0199297D01*
X0042081Y0198699D02*
X0053017Y0198699D01*
X0056196Y0195108D02*
X0044032Y0195108D01*
X0043902Y0195422D02*
X0042608Y0196716D01*
X0040917Y0197417D01*
X0039087Y0197417D01*
X0037397Y0196716D01*
X0036103Y0195422D01*
X0035402Y0193732D01*
X0035402Y0191902D01*
X0036103Y0190211D01*
X0037397Y0188917D01*
X0039087Y0188217D01*
X0040917Y0188217D01*
X0042608Y0188917D01*
X0043902Y0190211D01*
X0044602Y0191902D01*
X0044602Y0193732D01*
X0043902Y0195422D01*
X0043618Y0195706D02*
X0062552Y0195706D01*
X0062552Y0196305D02*
X0043020Y0196305D01*
X0042157Y0196903D02*
X0062552Y0196903D01*
X0062552Y0197502D02*
X0031802Y0197502D01*
X0031802Y0198100D02*
X0062552Y0198100D01*
X0063752Y0193917D02*
X0063752Y0209067D01*
X0061252Y0211567D01*
X0059969Y0213662D02*
X0044602Y0213662D01*
X0044602Y0213063D02*
X0059370Y0213063D01*
X0058863Y0212465D02*
X0044602Y0212465D01*
X0044588Y0211866D02*
X0058863Y0211866D01*
X0058863Y0211268D02*
X0044340Y0211268D01*
X0044092Y0210669D02*
X0058863Y0210669D01*
X0059370Y0210070D02*
X0043762Y0210070D01*
X0043163Y0209472D02*
X0053105Y0209472D01*
X0052713Y0208873D02*
X0042503Y0208873D01*
X0041058Y0208275D02*
X0052713Y0208275D01*
X0058002Y0204041D02*
X0057902Y0203517D01*
X0055598Y0194509D02*
X0044280Y0194509D01*
X0044528Y0193911D02*
X0055502Y0193911D01*
X0055610Y0193312D02*
X0044602Y0193312D01*
X0044602Y0192714D02*
X0053202Y0192714D01*
X0052604Y0192115D02*
X0044602Y0192115D01*
X0044443Y0191517D02*
X0052005Y0191517D01*
X0051407Y0190918D02*
X0044195Y0190918D01*
X0043947Y0190320D02*
X0051302Y0190320D01*
X0051302Y0189721D02*
X0043412Y0189721D01*
X0042814Y0189123D02*
X0051302Y0189123D01*
X0051302Y0188524D02*
X0041660Y0188524D01*
X0041133Y0187327D02*
X0051302Y0187327D01*
X0051302Y0186729D02*
X0042578Y0186729D01*
X0042608Y0186716D02*
X0040917Y0187417D01*
X0039087Y0187417D01*
X0037397Y0186716D01*
X0036103Y0185422D01*
X0035402Y0183732D01*
X0035402Y0181902D01*
X0036103Y0180211D01*
X0037397Y0178917D01*
X0039087Y0178217D01*
X0040917Y0178217D01*
X0042608Y0178917D01*
X0043902Y0180211D01*
X0044602Y0181902D01*
X0044602Y0183732D01*
X0043902Y0185422D01*
X0042608Y0186716D01*
X0043194Y0186130D02*
X0051302Y0186130D01*
X0051020Y0185532D02*
X0043793Y0185532D01*
X0044105Y0184933D02*
X0050422Y0184933D01*
X0049823Y0184335D02*
X0044353Y0184335D01*
X0044601Y0183736D02*
X0049225Y0183736D01*
X0048626Y0183137D02*
X0044602Y0183137D01*
X0044602Y0182539D02*
X0048028Y0182539D01*
X0047429Y0181940D02*
X0044602Y0181940D01*
X0044371Y0181342D02*
X0046831Y0181342D01*
X0046232Y0180743D02*
X0044123Y0180743D01*
X0043836Y0180145D02*
X0045634Y0180145D01*
X0045035Y0179546D02*
X0043238Y0179546D01*
X0042639Y0178948D02*
X0044437Y0178948D01*
X0043838Y0178349D02*
X0041238Y0178349D01*
X0041555Y0177152D02*
X0042641Y0177152D01*
X0043240Y0177751D02*
X0031802Y0177751D01*
X0031802Y0178349D02*
X0038767Y0178349D01*
X0038450Y0177152D02*
X0031802Y0177152D01*
X0031802Y0176554D02*
X0037234Y0176554D01*
X0036636Y0175955D02*
X0031802Y0175955D01*
X0031802Y0175357D02*
X0036076Y0175357D01*
X0035828Y0174758D02*
X0031802Y0174758D01*
X0031802Y0174160D02*
X0035580Y0174160D01*
X0035402Y0173561D02*
X0031802Y0173561D01*
X0031802Y0172963D02*
X0035402Y0172963D01*
X0035402Y0172364D02*
X0031802Y0172364D01*
X0031802Y0171766D02*
X0035459Y0171766D01*
X0035707Y0171167D02*
X0031802Y0171167D01*
X0031802Y0170569D02*
X0035954Y0170569D01*
X0036343Y0169970D02*
X0031802Y0169970D01*
X0031802Y0169372D02*
X0036942Y0169372D01*
X0037744Y0168773D02*
X0031802Y0168773D01*
X0031802Y0168175D02*
X0045052Y0168175D01*
X0045052Y0168773D02*
X0042261Y0168773D01*
X0042302Y0168117D02*
X0038102Y0168117D01*
X0038028Y0166978D02*
X0031802Y0166978D01*
X0031802Y0167576D02*
X0045052Y0167576D01*
X0045052Y0166978D02*
X0041977Y0166978D01*
X0042608Y0166716D02*
X0040917Y0167417D01*
X0039087Y0167417D01*
X0037397Y0166716D01*
X0036103Y0165422D01*
X0035402Y0163732D01*
X0035402Y0161902D01*
X0036103Y0160211D01*
X0037397Y0158917D01*
X0039087Y0158217D01*
X0040917Y0158217D01*
X0042608Y0158917D01*
X0043902Y0160211D01*
X0044602Y0161902D01*
X0044602Y0163732D01*
X0043902Y0165422D01*
X0042608Y0166716D01*
X0042945Y0166379D02*
X0045052Y0166379D01*
X0045052Y0165781D02*
X0043544Y0165781D01*
X0044002Y0165182D02*
X0045052Y0165182D01*
X0045052Y0164584D02*
X0044249Y0164584D01*
X0044497Y0163985D02*
X0045052Y0163985D01*
X0045052Y0163387D02*
X0044602Y0163387D01*
X0044602Y0162788D02*
X0045052Y0162788D01*
X0045052Y0162190D02*
X0044602Y0162190D01*
X0044474Y0161591D02*
X0045052Y0161591D01*
X0045052Y0160993D02*
X0044226Y0160993D01*
X0043978Y0160394D02*
X0045052Y0160394D01*
X0045052Y0159796D02*
X0043487Y0159796D01*
X0042888Y0159197D02*
X0045052Y0159197D01*
X0045052Y0158599D02*
X0041839Y0158599D01*
X0045052Y0158000D02*
X0031802Y0158000D01*
X0031802Y0157402D02*
X0045052Y0157402D01*
X0045052Y0156803D02*
X0031802Y0156803D01*
X0031802Y0156204D02*
X0045052Y0156204D01*
X0045052Y0155606D02*
X0031802Y0155606D01*
X0031802Y0155007D02*
X0045052Y0155007D01*
X0045052Y0154409D02*
X0031802Y0154409D01*
X0031802Y0153810D02*
X0045052Y0153810D01*
X0045052Y0153212D02*
X0031802Y0153212D01*
X0031802Y0152613D02*
X0045052Y0152613D01*
X0045004Y0152015D02*
X0031802Y0152015D01*
X0031802Y0151416D02*
X0044405Y0151416D01*
X0043807Y0150818D02*
X0031802Y0150818D01*
X0031802Y0150219D02*
X0043208Y0150219D01*
X0044221Y0147825D02*
X0044783Y0147825D01*
X0044783Y0147227D02*
X0044221Y0147227D01*
X0044221Y0146628D02*
X0044783Y0146628D01*
X0044783Y0146030D02*
X0044221Y0146030D01*
X0044221Y0145431D02*
X0044783Y0145431D01*
X0044783Y0144833D02*
X0044221Y0144833D01*
X0044221Y0144234D02*
X0044783Y0144234D01*
X0044783Y0143636D02*
X0044221Y0143636D01*
X0044221Y0143037D02*
X0044783Y0143037D01*
X0047932Y0140643D02*
X0038102Y0140643D01*
X0038102Y0140045D02*
X0047702Y0140045D01*
X0047702Y0139446D02*
X0038102Y0139446D01*
X0038102Y0138848D02*
X0047702Y0138848D01*
X0047702Y0138249D02*
X0038102Y0138249D01*
X0038102Y0137651D02*
X0047702Y0137651D01*
X0047702Y0137052D02*
X0038102Y0137052D01*
X0038102Y0136454D02*
X0047702Y0136454D01*
X0047702Y0135855D02*
X0038102Y0135855D01*
X0038102Y0135257D02*
X0047702Y0135257D01*
X0047702Y0134658D02*
X0043590Y0134658D01*
X0043975Y0134060D02*
X0045382Y0134060D01*
X0045374Y0133461D02*
X0044031Y0133461D01*
X0044031Y0132863D02*
X0045374Y0132863D01*
X0045374Y0132264D02*
X0044031Y0132264D01*
X0044031Y0131666D02*
X0045374Y0131666D01*
X0045374Y0131067D02*
X0040669Y0131067D01*
X0040502Y0130917D02*
X0040369Y0131317D01*
X0040502Y0130917D02*
X0040502Y0124317D01*
X0046502Y0118317D01*
X0046546Y0117817D01*
X0046846Y0117900D02*
X0062959Y0117900D01*
X0062959Y0118498D02*
X0049420Y0118498D01*
X0049420Y0118117D02*
X0049420Y0120350D01*
X0049332Y0120681D01*
X0049161Y0120977D01*
X0048919Y0121219D01*
X0048622Y0121390D01*
X0048292Y0121479D01*
X0046846Y0121479D01*
X0046846Y0118117D01*
X0049420Y0118117D01*
X0049420Y0117301D02*
X0062959Y0117301D01*
X0062959Y0116703D02*
X0049420Y0116703D01*
X0049420Y0116104D02*
X0063479Y0116104D01*
X0063486Y0116098D02*
X0069731Y0116098D01*
X0070259Y0116703D02*
X0080202Y0116703D01*
X0080507Y0117301D02*
X0070259Y0117301D01*
X0070259Y0117900D02*
X0081106Y0117900D01*
X0081704Y0118498D02*
X0070259Y0118498D01*
X0070171Y0119097D02*
X0082303Y0119097D01*
X0082901Y0119695D02*
X0070259Y0119695D01*
X0070259Y0120294D02*
X0083500Y0120294D01*
X0084098Y0120892D02*
X0070259Y0120892D01*
X0070067Y0121491D02*
X0084697Y0121491D01*
X0085295Y0122089D02*
X0070259Y0122089D01*
X0070259Y0122688D02*
X0085894Y0122688D01*
X0086492Y0123286D02*
X0070259Y0123286D01*
X0070232Y0123885D02*
X0087091Y0123885D01*
X0088058Y0120892D02*
X0091746Y0120892D01*
X0091746Y0120294D02*
X0087459Y0120294D01*
X0086861Y0119695D02*
X0091746Y0119695D01*
X0091833Y0119097D02*
X0086262Y0119097D01*
X0085664Y0118498D02*
X0091746Y0118498D01*
X0091746Y0117900D02*
X0085065Y0117900D01*
X0084467Y0117301D02*
X0091746Y0117301D01*
X0091746Y0116703D02*
X0083868Y0116703D01*
X0083270Y0116104D02*
X0092267Y0116104D01*
X0091352Y0124483D02*
X0070259Y0124483D01*
X0070259Y0125082D02*
X0091346Y0125082D01*
X0091502Y0125360D02*
X0095396Y0125360D01*
X0099446Y0125082D02*
X0116840Y0125082D01*
X0116840Y0125680D02*
X0099446Y0125680D01*
X0099429Y0126279D02*
X0116910Y0126279D01*
X0116840Y0123885D02*
X0109557Y0123885D01*
X0110156Y0123286D02*
X0116840Y0123286D01*
X0116840Y0122688D02*
X0110754Y0122688D01*
X0111353Y0122089D02*
X0116991Y0122089D01*
X0117632Y0121491D02*
X0111951Y0121491D01*
X0112550Y0120892D02*
X0123902Y0120892D01*
X0123902Y0120294D02*
X0113148Y0120294D01*
X0113747Y0119695D02*
X0123902Y0119695D01*
X0123902Y0119097D02*
X0114345Y0119097D01*
X0114944Y0118498D02*
X0123902Y0118498D01*
X0123902Y0121491D02*
X0123373Y0121491D01*
X0123902Y0123973D02*
X0120802Y0123973D01*
X0120802Y0124573D01*
X0123902Y0124573D01*
X0123902Y0123973D01*
X0123902Y0124483D02*
X0120802Y0124483D01*
X0120802Y0123885D02*
X0120202Y0123885D01*
X0120202Y0123286D02*
X0120802Y0123286D01*
X0120802Y0122688D02*
X0120202Y0122688D01*
X0120202Y0122089D02*
X0120802Y0122089D01*
X0120802Y0121491D02*
X0120202Y0121491D01*
X0120464Y0117900D02*
X0121541Y0117900D01*
X0121283Y0117301D02*
X0120721Y0117301D01*
X0120721Y0116703D02*
X0121283Y0116703D01*
X0121283Y0116104D02*
X0120721Y0116104D01*
X0120721Y0115506D02*
X0121283Y0115506D01*
X0121283Y0114907D02*
X0120721Y0114907D01*
X0120721Y0114309D02*
X0121283Y0114309D01*
X0121283Y0113710D02*
X0120721Y0113710D01*
X0120721Y0113112D02*
X0121283Y0113112D01*
X0121283Y0112513D02*
X0120721Y0112513D01*
X0120721Y0111915D02*
X0121283Y0111915D01*
X0121283Y0111316D02*
X0120721Y0111316D01*
X0120448Y0110718D02*
X0121557Y0110718D01*
X0124743Y0114317D02*
X0125102Y0114717D01*
X0125102Y0142317D01*
X0125136Y0142317D01*
X0125102Y0142317D02*
X0125102Y0154317D01*
X0125136Y0154817D01*
X0126302Y0151416D02*
X0135202Y0151416D01*
X0135202Y0150818D02*
X0126302Y0150818D01*
X0126302Y0150219D02*
X0135202Y0150219D01*
X0135202Y0149621D02*
X0126302Y0149621D01*
X0126302Y0149022D02*
X0135202Y0149022D01*
X0135202Y0148424D02*
X0126302Y0148424D01*
X0126302Y0147825D02*
X0135202Y0147825D01*
X0135202Y0147227D02*
X0126302Y0147227D01*
X0126302Y0146628D02*
X0135202Y0146628D01*
X0135202Y0146030D02*
X0126302Y0146030D01*
X0128019Y0145431D02*
X0135202Y0145431D01*
X0135202Y0144833D02*
X0128398Y0144833D01*
X0128398Y0144234D02*
X0135202Y0144234D01*
X0135202Y0143636D02*
X0128398Y0143636D01*
X0128398Y0143037D02*
X0135202Y0143037D01*
X0135202Y0142439D02*
X0128398Y0142439D01*
X0128398Y0141840D02*
X0135202Y0141840D01*
X0135202Y0141242D02*
X0128398Y0141242D01*
X0128398Y0140643D02*
X0135202Y0140643D01*
X0135202Y0140045D02*
X0128398Y0140045D01*
X0128263Y0139446D02*
X0135202Y0139446D01*
X0135202Y0138848D02*
X0126302Y0138848D01*
X0126302Y0138249D02*
X0135202Y0138249D01*
X0135202Y0137651D02*
X0126302Y0137651D01*
X0126302Y0137052D02*
X0135202Y0137052D01*
X0135202Y0136454D02*
X0126302Y0136454D01*
X0126302Y0135855D02*
X0135202Y0135855D01*
X0135202Y0135257D02*
X0126302Y0135257D01*
X0126302Y0134658D02*
X0135202Y0134658D01*
X0135202Y0134060D02*
X0126302Y0134060D01*
X0123902Y0126877D02*
X0123674Y0126877D01*
X0120802Y0126877D02*
X0120202Y0126877D01*
X0120202Y0126279D02*
X0120802Y0126279D01*
X0120802Y0125680D02*
X0120202Y0125680D01*
X0120202Y0125082D02*
X0120802Y0125082D01*
X0116702Y0114717D02*
X0116854Y0114608D01*
X0117262Y0114317D01*
X0120493Y0100347D02*
X0128293Y0100347D01*
X0128293Y0096407D01*
X0127879Y0096708D01*
X0127227Y0097040D01*
X0126531Y0097266D01*
X0125809Y0097380D01*
X0125743Y0097380D01*
X0125743Y0089687D01*
X0125143Y0089687D01*
X0125143Y0089087D01*
X0125743Y0089087D01*
X0125743Y0081395D01*
X0125809Y0081395D01*
X0126531Y0081509D01*
X0127227Y0081735D01*
X0127879Y0082067D01*
X0128293Y0082368D01*
X0128293Y0076617D01*
X0126048Y0076617D01*
X0124283Y0075886D01*
X0122933Y0074536D01*
X0122202Y0072771D01*
X0122202Y0069221D01*
X0121402Y0069218D01*
X0121402Y0072189D01*
X0120875Y0072717D01*
X0119726Y0072717D01*
X0119726Y0093944D01*
X0119966Y0093944D01*
X0120493Y0094471D01*
X0120493Y0100347D01*
X0120493Y0099944D02*
X0128293Y0099944D01*
X0128293Y0099346D02*
X0120493Y0099346D01*
X0120493Y0098747D02*
X0128293Y0098747D01*
X0128293Y0098149D02*
X0120493Y0098149D01*
X0120493Y0097550D02*
X0128293Y0097550D01*
X0128293Y0096952D02*
X0127400Y0096952D01*
X0125743Y0096952D02*
X0125143Y0096952D01*
X0125143Y0097380D02*
X0125078Y0097380D01*
X0124355Y0097266D01*
X0123660Y0097040D01*
X0123008Y0096708D01*
X0122416Y0096278D01*
X0121899Y0095761D01*
X0121469Y0095169D01*
X0121137Y0094518D01*
X0120911Y0093822D01*
X0120797Y0093100D01*
X0120797Y0089687D01*
X0125143Y0089687D01*
X0125143Y0097380D01*
X0125143Y0096353D02*
X0125743Y0096353D01*
X0125743Y0095755D02*
X0125143Y0095755D01*
X0125143Y0095156D02*
X0125743Y0095156D01*
X0125743Y0094558D02*
X0125143Y0094558D01*
X0125143Y0093959D02*
X0125743Y0093959D01*
X0125743Y0093361D02*
X0125143Y0093361D01*
X0125143Y0092762D02*
X0125743Y0092762D01*
X0125743Y0092164D02*
X0125143Y0092164D01*
X0125143Y0091565D02*
X0125743Y0091565D01*
X0125743Y0090967D02*
X0125143Y0090967D01*
X0125143Y0090368D02*
X0125743Y0090368D01*
X0125743Y0089770D02*
X0125143Y0089770D01*
X0125143Y0089171D02*
X0119726Y0089171D01*
X0119726Y0088573D02*
X0120797Y0088573D01*
X0120797Y0089087D02*
X0120797Y0085675D01*
X0120911Y0084953D01*
X0121137Y0084257D01*
X0121469Y0083606D01*
X0121899Y0083014D01*
X0122416Y0082497D01*
X0123008Y0082067D01*
X0123660Y0081735D01*
X0124355Y0081509D01*
X0125078Y0081395D01*
X0125143Y0081395D01*
X0125143Y0089087D01*
X0120797Y0089087D01*
X0120797Y0089770D02*
X0119726Y0089770D01*
X0119726Y0090368D02*
X0120797Y0090368D01*
X0120797Y0090967D02*
X0119726Y0090967D01*
X0119726Y0091565D02*
X0120797Y0091565D01*
X0120797Y0092164D02*
X0119726Y0092164D01*
X0119726Y0092762D02*
X0120797Y0092762D01*
X0120838Y0093361D02*
X0119726Y0093361D01*
X0119981Y0093959D02*
X0120956Y0093959D01*
X0121158Y0094558D02*
X0120493Y0094558D01*
X0120493Y0095156D02*
X0121463Y0095156D01*
X0121895Y0095755D02*
X0120493Y0095755D01*
X0120493Y0096353D02*
X0122520Y0096353D01*
X0123487Y0096952D02*
X0120493Y0096952D01*
X0120797Y0087974D02*
X0119726Y0087974D01*
X0119726Y0087376D02*
X0120797Y0087376D01*
X0120797Y0086777D02*
X0119726Y0086777D01*
X0119726Y0086179D02*
X0120797Y0086179D01*
X0120812Y0085580D02*
X0119726Y0085580D01*
X0119726Y0084982D02*
X0120907Y0084982D01*
X0121096Y0084383D02*
X0119726Y0084383D01*
X0119726Y0083785D02*
X0121378Y0083785D01*
X0121774Y0083186D02*
X0119726Y0083186D01*
X0119726Y0082588D02*
X0122326Y0082588D01*
X0123161Y0081989D02*
X0119726Y0081989D01*
X0119726Y0081391D02*
X0128293Y0081391D01*
X0128293Y0081989D02*
X0127726Y0081989D01*
X0128293Y0080792D02*
X0119726Y0080792D01*
X0119726Y0080194D02*
X0128293Y0080194D01*
X0128293Y0079595D02*
X0119726Y0079595D01*
X0119726Y0078997D02*
X0128293Y0078997D01*
X0128293Y0078398D02*
X0119726Y0078398D01*
X0119726Y0077799D02*
X0128293Y0077799D01*
X0128293Y0077201D02*
X0119726Y0077201D01*
X0119726Y0076602D02*
X0126014Y0076602D01*
X0124569Y0076004D02*
X0119726Y0076004D01*
X0119726Y0075405D02*
X0123803Y0075405D01*
X0123205Y0074807D02*
X0119726Y0074807D01*
X0119726Y0074208D02*
X0122798Y0074208D01*
X0122550Y0073610D02*
X0119726Y0073610D01*
X0119726Y0073011D02*
X0122302Y0073011D01*
X0122202Y0072413D02*
X0121179Y0072413D01*
X0121402Y0071814D02*
X0122202Y0071814D01*
X0122202Y0071216D02*
X0121402Y0071216D01*
X0121402Y0070617D02*
X0122202Y0070617D01*
X0122202Y0070019D02*
X0121402Y0070019D01*
X0121402Y0069420D02*
X0122202Y0069420D01*
X0118502Y0067817D02*
X0118326Y0067993D01*
X0118502Y0067817D02*
X0118502Y0046917D01*
X0118002Y0046817D01*
X0107252Y0048067D02*
X0107102Y0048117D01*
X0105302Y0049917D01*
X0101102Y0049917D02*
X0099302Y0048117D01*
X0098752Y0048067D01*
X0098752Y0069317D01*
X0099409Y0072717D02*
X0095880Y0072717D01*
X0095352Y0072189D01*
X0095352Y0069109D01*
X0091802Y0069094D01*
X0091802Y0071988D01*
X0091714Y0072318D01*
X0091543Y0072615D01*
X0091301Y0072857D01*
X0091004Y0073028D01*
X0090674Y0073117D01*
X0088302Y0073117D01*
X0088302Y0069079D01*
X0087702Y0069077D01*
X0087702Y0073117D01*
X0085331Y0073117D01*
X0085001Y0073028D01*
X0084704Y0072857D01*
X0084462Y0072615D01*
X0084302Y0072338D01*
X0084302Y0072771D01*
X0083572Y0074536D01*
X0082221Y0075886D01*
X0080457Y0076617D01*
X0077712Y0076617D01*
X0077712Y0082368D01*
X0078126Y0082067D01*
X0078778Y0081735D01*
X0079473Y0081509D01*
X0080196Y0081395D01*
X0080261Y0081395D01*
X0080261Y0089087D01*
X0080861Y0089087D01*
X0080861Y0081395D01*
X0080927Y0081395D01*
X0081649Y0081509D01*
X0082345Y0081735D01*
X0082997Y0082067D01*
X0083588Y0082497D01*
X0084106Y0083014D01*
X0084535Y0083606D01*
X0084867Y0084257D01*
X0085093Y0084953D01*
X0085208Y0085675D01*
X0085208Y0089087D01*
X0080861Y0089087D01*
X0080861Y0089687D01*
X0085208Y0089687D01*
X0085208Y0093100D01*
X0085093Y0093822D01*
X0084867Y0094518D01*
X0084535Y0095169D01*
X0084106Y0095761D01*
X0083588Y0096278D01*
X0082997Y0096708D01*
X0082345Y0097040D01*
X0081649Y0097266D01*
X0080927Y0097380D01*
X0080861Y0097380D01*
X0080861Y0089687D01*
X0080261Y0089687D01*
X0080261Y0097380D01*
X0080196Y0097380D01*
X0079473Y0097266D01*
X0078778Y0097040D01*
X0078126Y0096708D01*
X0077712Y0096407D01*
X0077712Y0100347D01*
X0086101Y0100347D01*
X0086087Y0100333D01*
X0085707Y0099810D01*
X0085413Y0099233D01*
X0085213Y0098618D01*
X0085112Y0097979D01*
X0085112Y0097955D01*
X0088923Y0097955D01*
X0088923Y0097355D01*
X0089523Y0097355D01*
X0089523Y0097955D01*
X0093334Y0097955D01*
X0093334Y0097979D01*
X0093233Y0098618D01*
X0093033Y0099233D01*
X0092739Y0099810D01*
X0092359Y0100333D01*
X0092345Y0100347D01*
X0096509Y0100347D01*
X0095919Y0099757D01*
X0095354Y0098393D01*
X0095354Y0096917D01*
X0095871Y0095670D01*
X0095430Y0095853D01*
X0092918Y0095853D01*
X0093033Y0096077D01*
X0093233Y0096692D01*
X0093334Y0097332D01*
X0093334Y0097355D01*
X0089523Y0097355D01*
X0089523Y0093910D01*
X0088663Y0093050D01*
X0087679Y0090673D01*
X0087679Y0088101D01*
X0088663Y0085725D01*
X0090482Y0083906D01*
X0092858Y0082922D01*
X0095430Y0082922D01*
X0097806Y0083906D01*
X0099409Y0085509D01*
X0099409Y0072717D01*
X0099409Y0073011D02*
X0091033Y0073011D01*
X0091659Y0072413D02*
X0095576Y0072413D01*
X0095352Y0071814D02*
X0091802Y0071814D01*
X0091802Y0071216D02*
X0095352Y0071216D01*
X0095352Y0070617D02*
X0091802Y0070617D01*
X0091802Y0070019D02*
X0095352Y0070019D01*
X0095352Y0069420D02*
X0091802Y0069420D01*
X0088302Y0069420D02*
X0087702Y0069420D01*
X0087702Y0070019D02*
X0088302Y0070019D01*
X0088302Y0070617D02*
X0087702Y0070617D01*
X0087702Y0071216D02*
X0088302Y0071216D01*
X0088302Y0071814D02*
X0087702Y0071814D01*
X0087702Y0072413D02*
X0088302Y0072413D01*
X0088302Y0073011D02*
X0087702Y0073011D01*
X0084972Y0073011D02*
X0084203Y0073011D01*
X0084302Y0072413D02*
X0084346Y0072413D01*
X0083955Y0073610D02*
X0099409Y0073610D01*
X0099409Y0074208D02*
X0083707Y0074208D01*
X0083300Y0074807D02*
X0099409Y0074807D01*
X0099409Y0075405D02*
X0082702Y0075405D01*
X0081936Y0076004D02*
X0099409Y0076004D01*
X0099409Y0076602D02*
X0080491Y0076602D01*
X0080261Y0081989D02*
X0080861Y0081989D01*
X0080861Y0082588D02*
X0080261Y0082588D01*
X0080261Y0083186D02*
X0080861Y0083186D01*
X0080861Y0083785D02*
X0080261Y0083785D01*
X0080261Y0084383D02*
X0080861Y0084383D01*
X0080861Y0084982D02*
X0080261Y0084982D01*
X0080261Y0085580D02*
X0080861Y0085580D01*
X0080861Y0086179D02*
X0080261Y0086179D01*
X0080261Y0086777D02*
X0080861Y0086777D01*
X0080861Y0087376D02*
X0080261Y0087376D01*
X0080261Y0087974D02*
X0080861Y0087974D01*
X0080861Y0088573D02*
X0080261Y0088573D01*
X0080861Y0089171D02*
X0087679Y0089171D01*
X0087679Y0088573D02*
X0085208Y0088573D01*
X0085208Y0087974D02*
X0087731Y0087974D01*
X0087979Y0087376D02*
X0085208Y0087376D01*
X0085208Y0086777D02*
X0088227Y0086777D01*
X0088475Y0086179D02*
X0085208Y0086179D01*
X0085193Y0085580D02*
X0088808Y0085580D01*
X0089407Y0084982D02*
X0085098Y0084982D01*
X0084908Y0084383D02*
X0090005Y0084383D01*
X0090776Y0083785D02*
X0084627Y0083785D01*
X0084231Y0083186D02*
X0092221Y0083186D01*
X0096067Y0083186D02*
X0099409Y0083186D01*
X0099409Y0082588D02*
X0083679Y0082588D01*
X0082844Y0081989D02*
X0099409Y0081989D01*
X0099409Y0081391D02*
X0077712Y0081391D01*
X0077712Y0081989D02*
X0078279Y0081989D01*
X0077712Y0080792D02*
X0099409Y0080792D01*
X0099409Y0080194D02*
X0077712Y0080194D01*
X0077712Y0079595D02*
X0099409Y0079595D01*
X0099409Y0078997D02*
X0077712Y0078997D01*
X0077712Y0078398D02*
X0099409Y0078398D01*
X0099409Y0077799D02*
X0077712Y0077799D01*
X0077712Y0077201D02*
X0099409Y0077201D01*
X0099409Y0083785D02*
X0097512Y0083785D01*
X0098283Y0084383D02*
X0099409Y0084383D01*
X0099409Y0084982D02*
X0098882Y0084982D01*
X0095836Y0095755D02*
X0095667Y0095755D01*
X0095588Y0096353D02*
X0093122Y0096353D01*
X0093274Y0096952D02*
X0095354Y0096952D01*
X0095354Y0097550D02*
X0089523Y0097550D01*
X0089523Y0096952D02*
X0088923Y0096952D01*
X0088923Y0097355D02*
X0088923Y0093544D01*
X0088899Y0093544D01*
X0088260Y0093645D01*
X0087645Y0093845D01*
X0087068Y0094139D01*
X0086545Y0094519D01*
X0086087Y0094977D01*
X0085707Y0095501D01*
X0085413Y0096077D01*
X0085213Y0096692D01*
X0085112Y0097332D01*
X0085112Y0097355D01*
X0088923Y0097355D01*
X0088923Y0097550D02*
X0077712Y0097550D01*
X0077712Y0096952D02*
X0078605Y0096952D01*
X0077712Y0098149D02*
X0085139Y0098149D01*
X0085255Y0098747D02*
X0077712Y0098747D01*
X0077712Y0099346D02*
X0085470Y0099346D01*
X0085805Y0099944D02*
X0077712Y0099944D01*
X0080261Y0096952D02*
X0080861Y0096952D01*
X0080861Y0096353D02*
X0080261Y0096353D01*
X0080261Y0095755D02*
X0080861Y0095755D01*
X0080861Y0095156D02*
X0080261Y0095156D01*
X0080261Y0094558D02*
X0080861Y0094558D01*
X0080861Y0093959D02*
X0080261Y0093959D01*
X0080261Y0093361D02*
X0080861Y0093361D01*
X0080861Y0092762D02*
X0080261Y0092762D01*
X0080261Y0092164D02*
X0080861Y0092164D01*
X0080861Y0091565D02*
X0080261Y0091565D01*
X0080261Y0090967D02*
X0080861Y0090967D01*
X0080861Y0090368D02*
X0080261Y0090368D01*
X0080261Y0089770D02*
X0080861Y0089770D01*
X0084847Y0094558D02*
X0086506Y0094558D01*
X0085957Y0095156D02*
X0084542Y0095156D01*
X0084110Y0095755D02*
X0085577Y0095755D01*
X0085323Y0096353D02*
X0083485Y0096353D01*
X0082518Y0096952D02*
X0085172Y0096952D01*
X0085049Y0093959D02*
X0087421Y0093959D01*
X0088923Y0093959D02*
X0089523Y0093959D01*
X0089523Y0094558D02*
X0088923Y0094558D01*
X0088923Y0095156D02*
X0089523Y0095156D01*
X0089523Y0095755D02*
X0088923Y0095755D01*
X0088923Y0096353D02*
X0089523Y0096353D01*
X0088974Y0093361D02*
X0085166Y0093361D01*
X0085208Y0092762D02*
X0088544Y0092762D01*
X0088296Y0092164D02*
X0085208Y0092164D01*
X0085208Y0091565D02*
X0088048Y0091565D01*
X0087800Y0090967D02*
X0085208Y0090967D01*
X0085208Y0090368D02*
X0087679Y0090368D01*
X0087679Y0089770D02*
X0085208Y0089770D01*
X0093307Y0098149D02*
X0095354Y0098149D01*
X0095501Y0098747D02*
X0093191Y0098747D01*
X0092975Y0099346D02*
X0095749Y0099346D01*
X0096106Y0099944D02*
X0092641Y0099944D01*
X0079318Y0108922D02*
X0061235Y0108922D01*
X0061041Y0109521D02*
X0079213Y0109521D01*
X0079213Y0110119D02*
X0060739Y0110119D01*
X0060330Y0110718D02*
X0079213Y0110718D01*
X0079523Y0111316D02*
X0059774Y0111316D01*
X0058980Y0111915D02*
X0080122Y0111915D01*
X0080202Y0112513D02*
X0057449Y0112513D01*
X0056702Y0112513D02*
X0056102Y0112513D01*
X0056102Y0111915D02*
X0056702Y0111915D01*
X0056702Y0111316D02*
X0056102Y0111316D01*
X0056102Y0110718D02*
X0056702Y0110718D01*
X0056702Y0110119D02*
X0056102Y0110119D01*
X0056102Y0109521D02*
X0056702Y0109521D01*
X0056702Y0108922D02*
X0056102Y0108922D01*
X0055356Y0112513D02*
X0040502Y0112513D01*
X0040502Y0111915D02*
X0053824Y0111915D01*
X0053031Y0111316D02*
X0041408Y0111316D01*
X0042007Y0110718D02*
X0052475Y0110718D01*
X0052066Y0110119D02*
X0042545Y0110119D01*
X0042793Y0109521D02*
X0051764Y0109521D01*
X0051569Y0108922D02*
X0043041Y0108922D01*
X0043202Y0108324D02*
X0051452Y0108324D01*
X0046846Y0114309D02*
X0046246Y0114309D01*
X0046246Y0114907D02*
X0046846Y0114907D01*
X0046846Y0115506D02*
X0046246Y0115506D01*
X0046246Y0116104D02*
X0046846Y0116104D01*
X0046846Y0116703D02*
X0046246Y0116703D01*
X0046246Y0117301D02*
X0046846Y0117301D01*
X0046246Y0117900D02*
X0041934Y0117900D01*
X0041934Y0118498D02*
X0043671Y0118498D01*
X0043671Y0119097D02*
X0041934Y0119097D01*
X0041934Y0119695D02*
X0043671Y0119695D01*
X0043671Y0120294D02*
X0041934Y0120294D01*
X0041593Y0120892D02*
X0043882Y0120892D01*
X0043671Y0117301D02*
X0041934Y0117301D01*
X0041934Y0116703D02*
X0043671Y0116703D01*
X0043671Y0116104D02*
X0041934Y0116104D01*
X0041934Y0115506D02*
X0043671Y0115506D01*
X0043786Y0114907D02*
X0041759Y0114907D01*
X0040502Y0114309D02*
X0044355Y0114309D01*
X0040502Y0113710D02*
X0080202Y0113710D01*
X0080202Y0113112D02*
X0040502Y0113112D01*
X0039302Y0108717D02*
X0039302Y0117717D01*
X0039459Y0117817D01*
X0039302Y0118317D01*
X0039302Y0126117D01*
X0036902Y0128517D01*
X0036902Y0142317D01*
X0040502Y0145917D01*
X0040762Y0146317D01*
X0041252Y0146567D01*
X0046252Y0151567D01*
X0046252Y0169067D01*
X0055002Y0177817D01*
X0055002Y0177518D01*
X0061502Y0177518D01*
X0074901Y0190917D01*
X0078593Y0190917D01*
X0079052Y0191376D01*
X0078752Y0191567D01*
X0053752Y0191567D01*
X0052502Y0190317D01*
X0052502Y0185317D01*
X0040002Y0172817D01*
X0043063Y0169372D02*
X0045052Y0169372D01*
X0045459Y0169970D02*
X0043661Y0169970D01*
X0044050Y0170569D02*
X0046057Y0170569D01*
X0046656Y0171167D02*
X0044298Y0171167D01*
X0044702Y0171117D02*
X0044702Y0170517D01*
X0042302Y0168117D01*
X0044546Y0171766D02*
X0047255Y0171766D01*
X0047853Y0172364D02*
X0044602Y0172364D01*
X0044602Y0172963D02*
X0048452Y0172963D01*
X0049050Y0173561D02*
X0044602Y0173561D01*
X0044425Y0174160D02*
X0049649Y0174160D01*
X0050247Y0174758D02*
X0044177Y0174758D01*
X0044240Y0175357D02*
X0050846Y0175357D01*
X0051444Y0175955D02*
X0044838Y0175955D01*
X0045437Y0176554D02*
X0052043Y0176554D01*
X0052641Y0177152D02*
X0046035Y0177152D01*
X0046634Y0177751D02*
X0053240Y0177751D01*
X0053838Y0178349D02*
X0047232Y0178349D01*
X0047831Y0178948D02*
X0052753Y0178948D01*
X0052369Y0179546D02*
X0048429Y0179546D01*
X0049028Y0180145D02*
X0052313Y0180145D01*
X0052313Y0180743D02*
X0049626Y0180743D01*
X0050225Y0181342D02*
X0052313Y0181342D01*
X0052313Y0181940D02*
X0050823Y0181940D01*
X0051422Y0182539D02*
X0052313Y0182539D01*
X0052313Y0183137D02*
X0052020Y0183137D01*
X0051302Y0187926D02*
X0031802Y0187926D01*
X0031802Y0188524D02*
X0038345Y0188524D01*
X0037191Y0189123D02*
X0031802Y0189123D01*
X0031802Y0189721D02*
X0036592Y0189721D01*
X0036058Y0190320D02*
X0031802Y0190320D01*
X0031802Y0190918D02*
X0035810Y0190918D01*
X0035562Y0191517D02*
X0031802Y0191517D01*
X0031802Y0192115D02*
X0035402Y0192115D01*
X0035402Y0192714D02*
X0031802Y0192714D01*
X0031802Y0193312D02*
X0035402Y0193312D01*
X0035477Y0193911D02*
X0031802Y0193911D01*
X0031802Y0194509D02*
X0035724Y0194509D01*
X0035972Y0195108D02*
X0031802Y0195108D01*
X0031802Y0195706D02*
X0036387Y0195706D01*
X0036985Y0196305D02*
X0031802Y0196305D01*
X0031802Y0196903D02*
X0037848Y0196903D01*
X0037923Y0198699D02*
X0031802Y0198699D01*
X0031802Y0199297D02*
X0037016Y0199297D01*
X0036418Y0199896D02*
X0031802Y0199896D01*
X0031802Y0200494D02*
X0035985Y0200494D01*
X0035737Y0201093D02*
X0031802Y0201093D01*
X0031802Y0201691D02*
X0035489Y0201691D01*
X0035402Y0202290D02*
X0031802Y0202290D01*
X0031802Y0202888D02*
X0035402Y0202888D01*
X0035402Y0203487D02*
X0031802Y0203487D01*
X0031802Y0204085D02*
X0035549Y0204085D01*
X0035797Y0204684D02*
X0031802Y0204684D01*
X0031802Y0205282D02*
X0036045Y0205282D01*
X0036561Y0205881D02*
X0031802Y0205881D01*
X0031802Y0206479D02*
X0037160Y0206479D01*
X0040002Y0202817D02*
X0040502Y0202917D01*
X0044383Y0214260D02*
X0063702Y0214260D01*
X0063702Y0214859D02*
X0044136Y0214859D01*
X0043867Y0215457D02*
X0063702Y0215457D01*
X0063702Y0216056D02*
X0059491Y0216056D01*
X0059580Y0216654D02*
X0063702Y0216654D01*
X0063469Y0213662D02*
X0062536Y0213662D01*
X0065358Y0220245D02*
X0059580Y0220245D01*
X0059580Y0220844D02*
X0065358Y0220844D01*
X0065358Y0221442D02*
X0059580Y0221442D01*
X0059153Y0222041D02*
X0065358Y0222041D01*
X0068477Y0233412D02*
X0068653Y0233412D01*
X0071102Y0235917D02*
X0071502Y0235970D01*
X0071702Y0236517D01*
X0071802Y0239398D02*
X0071202Y0239398D01*
X0071202Y0239996D02*
X0071802Y0239996D01*
X0071802Y0240595D02*
X0071202Y0240595D01*
X0071202Y0241193D02*
X0071802Y0241193D01*
X0071802Y0241792D02*
X0071202Y0241792D01*
X0071802Y0242390D02*
X0084102Y0242390D01*
X0084102Y0241792D02*
X0074771Y0241792D01*
X0074771Y0241193D02*
X0083126Y0241193D01*
X0082634Y0240595D02*
X0074771Y0240595D01*
X0074682Y0239996D02*
X0082634Y0239996D01*
X0082634Y0239398D02*
X0074165Y0239398D01*
X0074080Y0238799D02*
X0082634Y0238799D01*
X0082634Y0238201D02*
X0074371Y0238201D01*
X0074771Y0242989D02*
X0084102Y0242989D01*
X0084102Y0243587D02*
X0074771Y0243587D01*
X0074771Y0244186D02*
X0084102Y0244186D01*
X0084102Y0244784D02*
X0074771Y0244784D01*
X0074652Y0245383D02*
X0084102Y0245383D01*
X0084102Y0245981D02*
X0074074Y0245981D01*
X0071802Y0254360D02*
X0071202Y0254360D01*
X0071202Y0254959D02*
X0071802Y0254959D01*
X0071802Y0255557D02*
X0071202Y0255557D01*
X0071202Y0256156D02*
X0071802Y0256156D01*
X0074895Y0256156D02*
X0112552Y0256156D01*
X0112739Y0255557D02*
X0075154Y0255557D01*
X0071502Y0260860D02*
X0071102Y0261117D01*
X0057302Y0261117D01*
X0055000Y0255557D02*
X0049668Y0255557D01*
X0050497Y0254959D02*
X0067840Y0254959D01*
X0067840Y0254360D02*
X0051095Y0254360D01*
X0053110Y0256754D02*
X0040895Y0256754D01*
X0040297Y0256156D02*
X0045782Y0256156D01*
X0044337Y0255557D02*
X0039004Y0255557D01*
X0038702Y0254959D02*
X0043508Y0254959D01*
X0042909Y0254360D02*
X0038702Y0254360D01*
X0038702Y0253762D02*
X0042377Y0253762D01*
X0042129Y0253163D02*
X0038702Y0253163D01*
X0038702Y0252565D02*
X0041882Y0252565D01*
X0041634Y0251966D02*
X0038702Y0251966D01*
X0038702Y0251368D02*
X0041602Y0251368D01*
X0041602Y0250769D02*
X0038702Y0250769D01*
X0038702Y0250171D02*
X0041602Y0250171D01*
X0041673Y0249572D02*
X0038702Y0249572D01*
X0038702Y0248974D02*
X0041921Y0248974D01*
X0042169Y0248375D02*
X0038702Y0248375D01*
X0038702Y0247777D02*
X0042417Y0247777D01*
X0043004Y0247178D02*
X0038702Y0247178D01*
X0038702Y0246580D02*
X0043602Y0246580D01*
X0044565Y0245981D02*
X0039233Y0245981D01*
X0041494Y0257353D02*
X0052511Y0257353D01*
X0052101Y0257951D02*
X0041904Y0257951D01*
X0042152Y0258550D02*
X0051853Y0258550D01*
X0051605Y0259148D02*
X0042400Y0259148D01*
X0042627Y0259747D02*
X0051377Y0259747D01*
X0053708Y0256156D02*
X0048223Y0256156D01*
X0056317Y0218880D02*
X0056702Y0218517D01*
X0053055Y0216654D02*
X0042670Y0216654D01*
X0043269Y0216056D02*
X0053144Y0216056D01*
X0056702Y0193917D02*
X0063752Y0193917D01*
X0078902Y0193917D01*
X0079052Y0193935D01*
X0079052Y0199053D02*
X0079502Y0199317D01*
X0095102Y0199317D01*
X0104702Y0208917D01*
X0107702Y0208917D01*
X0107952Y0209289D01*
X0107952Y0211848D02*
X0107702Y0211917D01*
X0107937Y0213662D02*
X0115550Y0213662D01*
X0116149Y0214260D02*
X0107339Y0214260D01*
X0106740Y0214859D02*
X0116747Y0214859D01*
X0117346Y0215457D02*
X0106142Y0215457D01*
X0105543Y0216056D02*
X0117944Y0216056D01*
X0118543Y0216654D02*
X0104945Y0216654D01*
X0104346Y0217253D02*
X0119141Y0217253D01*
X0119702Y0217851D02*
X0103748Y0217851D01*
X0103149Y0218450D02*
X0119702Y0218450D01*
X0119702Y0219048D02*
X0102551Y0219048D01*
X0101952Y0219647D02*
X0119702Y0219647D01*
X0122102Y0219647D02*
X0125135Y0219647D01*
X0124537Y0219048D02*
X0122102Y0219048D01*
X0122102Y0218450D02*
X0123938Y0218450D01*
X0123902Y0217851D02*
X0122102Y0217851D01*
X0122102Y0217253D02*
X0123902Y0217253D01*
X0123902Y0216654D02*
X0121937Y0216654D01*
X0121338Y0216056D02*
X0123902Y0216056D01*
X0123902Y0215457D02*
X0120740Y0215457D01*
X0120141Y0214859D02*
X0123902Y0214859D01*
X0123902Y0214260D02*
X0119543Y0214260D01*
X0118944Y0213662D02*
X0123902Y0213662D01*
X0123902Y0213063D02*
X0118346Y0213063D01*
X0117747Y0212465D02*
X0123902Y0212465D01*
X0126302Y0212465D02*
X0135202Y0212465D01*
X0135202Y0213063D02*
X0126302Y0213063D01*
X0126302Y0213662D02*
X0135202Y0213662D01*
X0135202Y0214260D02*
X0126302Y0214260D01*
X0126302Y0214859D02*
X0135202Y0214859D01*
X0135202Y0215457D02*
X0126302Y0215457D01*
X0126302Y0216056D02*
X0135202Y0216056D01*
X0135202Y0216654D02*
X0126302Y0216654D01*
X0126302Y0217253D02*
X0135202Y0217253D01*
X0135202Y0217851D02*
X0126734Y0217851D01*
X0127332Y0218450D02*
X0135202Y0218450D01*
X0135202Y0219048D02*
X0127931Y0219048D01*
X0128530Y0219647D02*
X0135202Y0219647D01*
X0135202Y0220245D02*
X0129128Y0220245D01*
X0129727Y0220844D02*
X0135202Y0220844D01*
X0135202Y0221442D02*
X0130325Y0221442D01*
X0130924Y0222041D02*
X0135202Y0222041D01*
X0135202Y0222639D02*
X0131522Y0222639D01*
X0132121Y0223238D02*
X0135202Y0223238D01*
X0135202Y0223836D02*
X0132719Y0223836D01*
X0133318Y0224435D02*
X0135202Y0224435D01*
X0135202Y0225033D02*
X0133916Y0225033D01*
X0134515Y0225632D02*
X0135202Y0225632D01*
X0135202Y0226230D02*
X0135113Y0226230D01*
X0134102Y0226917D02*
X0134102Y0255717D01*
X0132565Y0255557D02*
X0131266Y0255557D01*
X0131452Y0256156D02*
X0131966Y0256156D01*
X0131102Y0245517D02*
X0128102Y0245517D01*
X0125102Y0242517D01*
X0124502Y0241917D01*
X0124502Y0240617D01*
X0124277Y0240595D02*
X0121452Y0240595D01*
X0121452Y0241193D02*
X0122152Y0241193D01*
X0122152Y0241792D02*
X0121452Y0241792D01*
X0121452Y0242390D02*
X0122152Y0242390D01*
X0122152Y0242989D02*
X0121452Y0242989D01*
X0121452Y0243587D02*
X0122152Y0243587D01*
X0122152Y0244186D02*
X0121452Y0244186D01*
X0121452Y0244784D02*
X0122178Y0244784D01*
X0122480Y0245383D02*
X0120959Y0245383D01*
X0119502Y0240617D02*
X0119102Y0240117D01*
X0118502Y0239517D01*
X0117102Y0239398D02*
X0116452Y0239398D01*
X0116452Y0239996D02*
X0117102Y0239996D01*
X0117552Y0240595D02*
X0116452Y0240595D01*
X0116452Y0241193D02*
X0117552Y0241193D01*
X0117552Y0241792D02*
X0116452Y0241792D01*
X0116452Y0242390D02*
X0117552Y0242390D01*
X0117552Y0242989D02*
X0116452Y0242989D01*
X0116452Y0243587D02*
X0117552Y0243587D01*
X0117552Y0244186D02*
X0116452Y0244186D01*
X0116452Y0244784D02*
X0117552Y0244784D01*
X0118046Y0245383D02*
X0115959Y0245383D01*
X0116452Y0238799D02*
X0117102Y0238799D01*
X0117102Y0238201D02*
X0116452Y0238201D01*
X0116452Y0237602D02*
X0117102Y0237602D01*
X0117102Y0237004D02*
X0116452Y0237004D01*
X0116452Y0236405D02*
X0117102Y0236405D01*
X0117102Y0233412D02*
X0111185Y0233412D01*
X0110986Y0229821D02*
X0115484Y0229821D01*
X0117959Y0227817D02*
X0118502Y0228117D01*
X0119967Y0231018D02*
X0120907Y0231018D01*
X0121506Y0231617D02*
X0119902Y0231617D01*
X0119902Y0232215D02*
X0122104Y0232215D01*
X0122703Y0232814D02*
X0119902Y0232814D01*
X0119902Y0233412D02*
X0123301Y0233412D01*
X0123900Y0234011D02*
X0119902Y0234011D01*
X0119902Y0234609D02*
X0124498Y0234609D01*
X0125097Y0235208D02*
X0119902Y0235208D01*
X0119902Y0235806D02*
X0122524Y0235806D01*
X0122190Y0236405D02*
X0121452Y0236405D01*
X0121452Y0237004D02*
X0122152Y0237004D01*
X0122152Y0237602D02*
X0121452Y0237602D01*
X0121452Y0238201D02*
X0122152Y0238201D01*
X0122152Y0238799D02*
X0121452Y0238799D01*
X0121452Y0239398D02*
X0122152Y0239398D01*
X0122152Y0239996D02*
X0121452Y0239996D01*
X0124277Y0239996D02*
X0124727Y0239996D01*
X0124727Y0239398D02*
X0124277Y0239398D01*
X0124277Y0238799D02*
X0124727Y0238799D01*
X0124727Y0238201D02*
X0124277Y0238201D01*
X0124277Y0237602D02*
X0124727Y0237602D01*
X0124727Y0237004D02*
X0124277Y0237004D01*
X0124277Y0236405D02*
X0124727Y0236405D01*
X0124727Y0235806D02*
X0124277Y0235806D01*
X0126097Y0232814D02*
X0132902Y0232814D01*
X0132902Y0233412D02*
X0126695Y0233412D01*
X0127294Y0234011D02*
X0132902Y0234011D01*
X0132902Y0234609D02*
X0127892Y0234609D01*
X0128491Y0235208D02*
X0132902Y0235208D01*
X0132902Y0235806D02*
X0129089Y0235806D01*
X0127491Y0237602D02*
X0126852Y0237602D01*
X0126852Y0237004D02*
X0126892Y0237004D01*
X0126852Y0238201D02*
X0127552Y0238201D01*
X0127552Y0238799D02*
X0126852Y0238799D01*
X0126852Y0239398D02*
X0127552Y0239398D01*
X0127552Y0239996D02*
X0126852Y0239996D01*
X0126852Y0240842D02*
X0126852Y0244688D01*
X0126764Y0245018D01*
X0126593Y0245315D01*
X0126351Y0245557D01*
X0126054Y0245728D01*
X0125724Y0245817D01*
X0124727Y0245817D01*
X0124727Y0240842D01*
X0126852Y0240842D01*
X0126852Y0241193D02*
X0127552Y0241193D01*
X0127552Y0241792D02*
X0126852Y0241792D01*
X0126852Y0242390D02*
X0127552Y0242390D01*
X0127552Y0242989D02*
X0126852Y0242989D01*
X0126852Y0243587D02*
X0127552Y0243587D01*
X0127552Y0244186D02*
X0126852Y0244186D01*
X0126827Y0244784D02*
X0127552Y0244784D01*
X0128046Y0245383D02*
X0126525Y0245383D01*
X0124727Y0245383D02*
X0124277Y0245383D01*
X0124277Y0244784D02*
X0124727Y0244784D01*
X0124727Y0244186D02*
X0124277Y0244186D01*
X0124277Y0243587D02*
X0124727Y0243587D01*
X0124727Y0242989D02*
X0124277Y0242989D01*
X0124277Y0242390D02*
X0124727Y0242390D01*
X0124727Y0241792D02*
X0124277Y0241792D01*
X0124277Y0241193D02*
X0124727Y0241193D01*
X0125498Y0232215D02*
X0132902Y0232215D01*
X0132902Y0231617D02*
X0124900Y0231617D01*
X0125346Y0231479D02*
X0125346Y0228117D01*
X0124746Y0228117D01*
X0124746Y0227517D01*
X0122171Y0227517D01*
X0122171Y0225283D01*
X0122259Y0224953D01*
X0122431Y0224656D01*
X0122673Y0224414D01*
X0122969Y0224243D01*
X0123300Y0224154D01*
X0124746Y0224154D01*
X0124746Y0227517D01*
X0125346Y0227517D01*
X0125346Y0228117D01*
X0127920Y0228117D01*
X0127920Y0230350D01*
X0127832Y0230681D01*
X0127661Y0230977D01*
X0127419Y0231219D01*
X0127122Y0231390D01*
X0126792Y0231479D01*
X0125346Y0231479D01*
X0125346Y0231018D02*
X0124746Y0231018D01*
X0124746Y0230420D02*
X0125346Y0230420D01*
X0125102Y0229917D02*
X0125102Y0228117D01*
X0125046Y0227817D01*
X0125346Y0228026D02*
X0132902Y0228026D01*
X0132902Y0228624D02*
X0127920Y0228624D01*
X0127920Y0229223D02*
X0132902Y0229223D01*
X0132902Y0229821D02*
X0127920Y0229821D01*
X0127902Y0230420D02*
X0132902Y0230420D01*
X0132902Y0231018D02*
X0127619Y0231018D01*
X0125346Y0229821D02*
X0124746Y0229821D01*
X0125102Y0229917D02*
X0131702Y0236517D01*
X0131702Y0244917D01*
X0131102Y0245517D01*
X0130959Y0245383D02*
X0132902Y0245383D01*
X0132902Y0244784D02*
X0131452Y0244784D01*
X0131452Y0244186D02*
X0132902Y0244186D01*
X0132902Y0243587D02*
X0131452Y0243587D01*
X0131452Y0242989D02*
X0132902Y0242989D01*
X0132902Y0242390D02*
X0131452Y0242390D01*
X0131452Y0241792D02*
X0132902Y0241792D01*
X0132902Y0241193D02*
X0131452Y0241193D01*
X0131452Y0240595D02*
X0132902Y0240595D01*
X0132902Y0239996D02*
X0131452Y0239996D01*
X0131452Y0239398D02*
X0132902Y0239398D01*
X0132902Y0238799D02*
X0131452Y0238799D01*
X0131452Y0238201D02*
X0132902Y0238201D01*
X0132902Y0237602D02*
X0131452Y0237602D01*
X0131452Y0237004D02*
X0132902Y0237004D01*
X0132902Y0236405D02*
X0131452Y0236405D01*
X0132902Y0227427D02*
X0127920Y0227427D01*
X0127920Y0227517D02*
X0125346Y0227517D01*
X0125346Y0224154D01*
X0126792Y0224154D01*
X0127122Y0224243D01*
X0127419Y0224414D01*
X0127661Y0224656D01*
X0127832Y0224953D01*
X0127920Y0225283D01*
X0127920Y0227517D01*
X0127920Y0226829D02*
X0132318Y0226829D01*
X0131719Y0226230D02*
X0127920Y0226230D01*
X0127920Y0225632D02*
X0131121Y0225632D01*
X0130522Y0225033D02*
X0127853Y0225033D01*
X0127439Y0224435D02*
X0129923Y0224435D01*
X0129325Y0223836D02*
X0122102Y0223836D01*
X0122102Y0223238D02*
X0128726Y0223238D01*
X0128128Y0222639D02*
X0122102Y0222639D01*
X0122102Y0222041D02*
X0127529Y0222041D01*
X0126931Y0221442D02*
X0122102Y0221442D01*
X0122102Y0220844D02*
X0126332Y0220844D01*
X0125734Y0220245D02*
X0122102Y0220245D01*
X0125102Y0217917D02*
X0134102Y0226917D01*
X0125346Y0226829D02*
X0124746Y0226829D01*
X0124746Y0227427D02*
X0125346Y0227427D01*
X0124746Y0228026D02*
X0122102Y0228026D01*
X0122102Y0228624D02*
X0122171Y0228624D01*
X0122171Y0227427D02*
X0122102Y0227427D01*
X0122102Y0226829D02*
X0122171Y0226829D01*
X0122171Y0226230D02*
X0122102Y0226230D01*
X0122102Y0225632D02*
X0122171Y0225632D01*
X0122102Y0225033D02*
X0122238Y0225033D01*
X0122102Y0224435D02*
X0122652Y0224435D01*
X0124746Y0224435D02*
X0125346Y0224435D01*
X0125346Y0225033D02*
X0124746Y0225033D01*
X0124746Y0225632D02*
X0125346Y0225632D01*
X0125346Y0226230D02*
X0124746Y0226230D01*
X0124746Y0228624D02*
X0125346Y0228624D01*
X0125346Y0229223D02*
X0124746Y0229223D01*
X0125102Y0217917D02*
X0125102Y0208917D01*
X0125002Y0208557D01*
X0121150Y0208275D02*
X0118370Y0208275D01*
X0118370Y0207676D02*
X0121150Y0207676D01*
X0121150Y0207078D02*
X0118370Y0207078D01*
X0118052Y0206479D02*
X0121150Y0206479D01*
X0121150Y0205881D02*
X0117454Y0205881D01*
X0117181Y0205282D02*
X0121492Y0205282D01*
X0121227Y0204085D02*
X0116568Y0204085D01*
X0115970Y0203487D02*
X0121150Y0203487D01*
X0121150Y0202888D02*
X0115371Y0202888D01*
X0114773Y0202290D02*
X0121150Y0202290D01*
X0121150Y0201691D02*
X0114174Y0201691D01*
X0113576Y0201093D02*
X0121150Y0201093D01*
X0121150Y0200494D02*
X0112108Y0200494D01*
X0112152Y0199896D02*
X0121150Y0199896D01*
X0121150Y0199297D02*
X0112152Y0199297D01*
X0112152Y0198699D02*
X0115006Y0198699D01*
X0114408Y0198100D02*
X0112152Y0198100D01*
X0112052Y0195108D02*
X0114833Y0195108D01*
X0115431Y0194509D02*
X0112152Y0194509D01*
X0112152Y0193911D02*
X0122199Y0193911D01*
X0121601Y0193312D02*
X0112152Y0193312D01*
X0112004Y0192714D02*
X0121002Y0192714D01*
X0120404Y0192115D02*
X0112152Y0192115D01*
X0112152Y0191517D02*
X0119805Y0191517D01*
X0119207Y0190918D02*
X0112152Y0190918D01*
X0112152Y0190320D02*
X0118608Y0190320D01*
X0118010Y0189721D02*
X0112152Y0189721D01*
X0112152Y0189123D02*
X0117411Y0189123D01*
X0116813Y0188524D02*
X0112152Y0188524D01*
X0112152Y0187926D02*
X0116214Y0187926D01*
X0115616Y0187327D02*
X0112152Y0187327D01*
X0112152Y0186729D02*
X0115017Y0186729D01*
X0114419Y0186130D02*
X0112152Y0186130D01*
X0112152Y0185532D02*
X0113820Y0185532D01*
X0113222Y0184933D02*
X0111991Y0184933D01*
X0112152Y0184335D02*
X0112623Y0184335D01*
X0114222Y0182539D02*
X0135202Y0182539D01*
X0135202Y0183137D02*
X0114820Y0183137D01*
X0115419Y0183736D02*
X0135202Y0183736D01*
X0135202Y0184335D02*
X0116017Y0184335D01*
X0116616Y0184933D02*
X0135202Y0184933D01*
X0135202Y0185532D02*
X0117214Y0185532D01*
X0117813Y0186130D02*
X0135202Y0186130D01*
X0135202Y0186729D02*
X0118411Y0186729D01*
X0119010Y0187327D02*
X0135202Y0187327D01*
X0135202Y0187926D02*
X0119608Y0187926D01*
X0120207Y0188524D02*
X0135202Y0188524D01*
X0135202Y0189123D02*
X0120805Y0189123D01*
X0121404Y0189721D02*
X0135202Y0189721D01*
X0135202Y0190320D02*
X0122002Y0190320D01*
X0122601Y0190918D02*
X0135202Y0190918D01*
X0135202Y0191517D02*
X0123199Y0191517D01*
X0123798Y0192115D02*
X0135202Y0192115D01*
X0135202Y0192714D02*
X0124396Y0192714D01*
X0124995Y0193312D02*
X0135202Y0193312D01*
X0135202Y0193911D02*
X0125594Y0193911D01*
X0125702Y0194509D02*
X0135202Y0194509D01*
X0135202Y0195108D02*
X0125702Y0195108D01*
X0125702Y0195706D02*
X0135202Y0195706D01*
X0135202Y0196305D02*
X0125702Y0196305D01*
X0125702Y0196903D02*
X0135202Y0196903D01*
X0135202Y0197502D02*
X0125702Y0197502D01*
X0124502Y0194517D02*
X0111302Y0181317D01*
X0108302Y0181317D01*
X0107952Y0181139D01*
X0107702Y0186117D02*
X0107952Y0186258D01*
X0107702Y0186117D02*
X0104702Y0186117D01*
X0094502Y0175917D01*
X0094502Y0166317D01*
X0069302Y0141117D01*
X0066902Y0141117D01*
X0066609Y0140714D01*
X0066609Y0143273D02*
X0066302Y0143517D01*
X0063902Y0143517D01*
X0061502Y0145917D01*
X0059806Y0144234D02*
X0054917Y0144234D01*
X0054319Y0143636D02*
X0060405Y0143636D01*
X0060513Y0143528D02*
X0062194Y0143528D01*
X0062959Y0142763D01*
X0062959Y0142215D01*
X0063180Y0141994D01*
X0062959Y0141772D01*
X0062959Y0139656D01*
X0063180Y0139435D01*
X0062959Y0139213D01*
X0062959Y0137220D01*
X0062818Y0137079D01*
X0062647Y0136783D01*
X0062559Y0136452D01*
X0062559Y0135639D01*
X0066566Y0135639D01*
X0066566Y0135554D01*
X0062559Y0135554D01*
X0062559Y0134740D01*
X0062647Y0134409D01*
X0062818Y0134113D01*
X0062959Y0133973D01*
X0062959Y0131979D01*
X0063180Y0131758D01*
X0062959Y0131536D01*
X0062959Y0129420D01*
X0063180Y0129198D01*
X0062959Y0128977D01*
X0062959Y0126861D01*
X0063180Y0126639D01*
X0062959Y0126418D01*
X0062959Y0124302D01*
X0063180Y0124080D01*
X0062959Y0123859D01*
X0062959Y0121743D01*
X0063180Y0121521D01*
X0062959Y0121300D01*
X0062959Y0119184D01*
X0063180Y0118962D01*
X0062959Y0118741D01*
X0062959Y0116625D01*
X0063486Y0116098D01*
X0063046Y0119097D02*
X0049420Y0119097D01*
X0049420Y0119695D02*
X0062959Y0119695D01*
X0062959Y0120294D02*
X0049420Y0120294D01*
X0049210Y0120892D02*
X0062959Y0120892D01*
X0063150Y0121491D02*
X0040502Y0121491D01*
X0040502Y0122089D02*
X0062959Y0122089D01*
X0062959Y0122688D02*
X0040502Y0122688D01*
X0040502Y0123286D02*
X0062959Y0123286D01*
X0062985Y0123885D02*
X0040502Y0123885D01*
X0040502Y0124483D02*
X0062959Y0124483D01*
X0062959Y0125082D02*
X0040502Y0125082D01*
X0040502Y0125680D02*
X0062959Y0125680D01*
X0062959Y0126279D02*
X0040502Y0126279D01*
X0040239Y0126877D02*
X0062959Y0126877D01*
X0062959Y0127476D02*
X0039640Y0127476D01*
X0040069Y0128074D02*
X0040668Y0128074D01*
X0040668Y0128673D02*
X0040069Y0128673D01*
X0040069Y0129271D02*
X0040668Y0129271D01*
X0040668Y0129870D02*
X0040069Y0129870D01*
X0040069Y0130468D02*
X0040668Y0130468D01*
X0040668Y0131666D02*
X0040069Y0131666D01*
X0040069Y0132264D02*
X0040668Y0132264D01*
X0040668Y0132863D02*
X0040069Y0132863D01*
X0040069Y0133461D02*
X0040668Y0133461D01*
X0040668Y0134060D02*
X0040069Y0134060D01*
X0040069Y0134658D02*
X0040668Y0134658D01*
X0044031Y0130468D02*
X0045374Y0130468D01*
X0045374Y0129870D02*
X0044031Y0129870D01*
X0044031Y0129271D02*
X0045374Y0129271D01*
X0045374Y0128673D02*
X0044001Y0128673D01*
X0043689Y0128074D02*
X0045881Y0128074D01*
X0048636Y0131317D02*
X0048902Y0131517D01*
X0048902Y0139917D01*
X0057302Y0148317D01*
X0057302Y0158517D01*
X0057502Y0158576D01*
X0058502Y0155007D02*
X0073696Y0155007D01*
X0073098Y0154409D02*
X0058502Y0154409D01*
X0058502Y0153810D02*
X0072499Y0153810D01*
X0071901Y0153212D02*
X0058502Y0153212D01*
X0058502Y0152613D02*
X0071302Y0152613D01*
X0071205Y0152517D02*
X0069750Y0152517D01*
X0069731Y0152535D01*
X0067301Y0152535D01*
X0067265Y0152564D01*
X0067009Y0152535D01*
X0063486Y0152535D01*
X0062959Y0152008D01*
X0062959Y0149893D01*
X0063180Y0149671D01*
X0062959Y0149449D01*
X0062959Y0147839D01*
X0062492Y0148306D01*
X0060513Y0148306D01*
X0059113Y0146906D01*
X0059113Y0144927D01*
X0060513Y0143528D01*
X0059208Y0144833D02*
X0055516Y0144833D01*
X0056114Y0145431D02*
X0059113Y0145431D01*
X0059113Y0146030D02*
X0056713Y0146030D01*
X0057311Y0146628D02*
X0059113Y0146628D01*
X0059434Y0147227D02*
X0057910Y0147227D01*
X0058502Y0147825D02*
X0060033Y0147825D01*
X0059102Y0148317D02*
X0059102Y0139917D01*
X0063902Y0135117D01*
X0066302Y0135117D01*
X0066609Y0135596D01*
X0062872Y0134060D02*
X0051890Y0134060D01*
X0051898Y0133461D02*
X0062959Y0133461D01*
X0062959Y0132863D02*
X0051898Y0132863D01*
X0051898Y0132264D02*
X0062959Y0132264D01*
X0063088Y0131666D02*
X0051898Y0131666D01*
X0051898Y0131067D02*
X0062959Y0131067D01*
X0062959Y0130468D02*
X0051898Y0130468D01*
X0051898Y0129870D02*
X0062959Y0129870D01*
X0063107Y0129271D02*
X0051898Y0129271D01*
X0051898Y0128673D02*
X0062959Y0128673D01*
X0062959Y0128074D02*
X0051391Y0128074D01*
X0050102Y0134658D02*
X0062581Y0134658D01*
X0062559Y0135257D02*
X0050102Y0135257D01*
X0050102Y0135855D02*
X0062559Y0135855D01*
X0062559Y0136454D02*
X0050102Y0136454D01*
X0050102Y0137052D02*
X0062803Y0137052D01*
X0062959Y0137651D02*
X0050102Y0137651D01*
X0050102Y0138249D02*
X0062959Y0138249D01*
X0062959Y0138848D02*
X0050102Y0138848D01*
X0050129Y0139446D02*
X0063169Y0139446D01*
X0062959Y0140045D02*
X0050727Y0140045D01*
X0051326Y0140643D02*
X0062959Y0140643D01*
X0062959Y0141242D02*
X0051925Y0141242D01*
X0052523Y0141840D02*
X0063027Y0141840D01*
X0062959Y0142439D02*
X0053122Y0142439D01*
X0053720Y0143037D02*
X0062685Y0143037D01*
X0062959Y0148424D02*
X0058502Y0148424D01*
X0058502Y0149022D02*
X0062959Y0149022D01*
X0063130Y0149621D02*
X0058502Y0149621D01*
X0058502Y0150219D02*
X0062959Y0150219D01*
X0062959Y0150818D02*
X0058502Y0150818D01*
X0058502Y0151416D02*
X0062959Y0151416D01*
X0062965Y0152015D02*
X0058502Y0152015D01*
X0059102Y0148317D02*
X0063902Y0153117D01*
X0071702Y0153117D01*
X0083702Y0165117D01*
X0083702Y0184917D01*
X0082502Y0186117D01*
X0079502Y0186117D01*
X0079052Y0186258D01*
X0083252Y0187926D02*
X0102414Y0187926D01*
X0103013Y0188524D02*
X0083252Y0188524D01*
X0083252Y0189123D02*
X0103611Y0189123D01*
X0103502Y0189014D02*
X0092102Y0177614D01*
X0092102Y0173414D01*
X0071205Y0152517D01*
X0071702Y0151317D02*
X0093302Y0172917D01*
X0093302Y0177117D01*
X0104702Y0188517D01*
X0107702Y0188517D01*
X0107952Y0188817D01*
X0107952Y0191376D02*
X0107702Y0191517D01*
X0104702Y0191517D01*
X0103502Y0192717D01*
X0103502Y0205317D01*
X0107952Y0201612D02*
X0108302Y0201717D01*
X0112502Y0201717D01*
X0115981Y0205195D01*
X0115981Y0207787D01*
X0117675Y0209472D02*
X0121150Y0209472D01*
X0121150Y0210070D02*
X0117076Y0210070D01*
X0115952Y0210669D02*
X0121150Y0210669D01*
X0121150Y0211268D02*
X0116550Y0211268D01*
X0117149Y0211866D02*
X0121527Y0211866D01*
X0121150Y0208873D02*
X0118273Y0208873D01*
X0117167Y0204684D02*
X0135202Y0204684D01*
X0135202Y0205282D02*
X0128513Y0205282D01*
X0128855Y0205881D02*
X0135202Y0205881D01*
X0135202Y0206479D02*
X0128855Y0206479D01*
X0128855Y0207078D02*
X0135202Y0207078D01*
X0135202Y0207676D02*
X0128855Y0207676D01*
X0128855Y0208275D02*
X0135202Y0208275D01*
X0135202Y0208873D02*
X0128855Y0208873D01*
X0128855Y0209472D02*
X0135202Y0209472D01*
X0135202Y0210070D02*
X0128855Y0210070D01*
X0128855Y0210669D02*
X0135202Y0210669D01*
X0135202Y0211268D02*
X0128855Y0211268D01*
X0128478Y0211866D02*
X0135202Y0211866D01*
X0135202Y0204085D02*
X0128778Y0204085D01*
X0128855Y0203487D02*
X0135202Y0203487D01*
X0135202Y0202888D02*
X0128855Y0202888D01*
X0128855Y0202290D02*
X0135202Y0202290D01*
X0135202Y0201691D02*
X0128855Y0201691D01*
X0128855Y0201093D02*
X0135202Y0201093D01*
X0135202Y0200494D02*
X0128855Y0200494D01*
X0128855Y0199896D02*
X0135202Y0199896D01*
X0135202Y0199297D02*
X0128855Y0199297D01*
X0128855Y0198699D02*
X0135202Y0198699D01*
X0135202Y0198100D02*
X0128811Y0198100D01*
X0125002Y0201076D02*
X0124502Y0200517D01*
X0124502Y0194517D01*
X0123302Y0195108D02*
X0118172Y0195108D01*
X0118771Y0195706D02*
X0123302Y0195706D01*
X0123302Y0196305D02*
X0118891Y0196305D01*
X0118891Y0196903D02*
X0123302Y0196903D01*
X0123302Y0197502D02*
X0118891Y0197502D01*
X0118597Y0198100D02*
X0121194Y0198100D01*
X0121150Y0198699D02*
X0117999Y0198699D01*
X0116502Y0196817D02*
X0109102Y0196817D01*
X0109002Y0196917D01*
X0108302Y0196917D01*
X0107952Y0196494D01*
X0103005Y0191517D02*
X0103752Y0190770D01*
X0103752Y0190303D01*
X0103959Y0190096D01*
X0103752Y0189889D01*
X0103752Y0189264D01*
X0103502Y0189014D01*
X0103752Y0189721D02*
X0083252Y0189721D01*
X0083252Y0190320D02*
X0103752Y0190320D01*
X0103604Y0190918D02*
X0083252Y0190918D01*
X0083599Y0187327D02*
X0101816Y0187327D01*
X0101217Y0186729D02*
X0083652Y0186729D01*
X0083652Y0186130D02*
X0100619Y0186130D01*
X0100020Y0185532D02*
X0083652Y0185532D01*
X0083493Y0184933D02*
X0099422Y0184933D01*
X0098823Y0184335D02*
X0083252Y0184335D01*
X0083252Y0183736D02*
X0098225Y0183736D01*
X0097626Y0183137D02*
X0083252Y0183137D01*
X0083166Y0182539D02*
X0097028Y0182539D01*
X0096429Y0181940D02*
X0083252Y0181940D01*
X0083252Y0181342D02*
X0095831Y0181342D01*
X0095232Y0180743D02*
X0083252Y0180743D01*
X0083252Y0180145D02*
X0094634Y0180145D01*
X0094035Y0179546D02*
X0083252Y0179546D01*
X0083252Y0178948D02*
X0093437Y0178948D01*
X0092838Y0178349D02*
X0083252Y0178349D01*
X0083252Y0177751D02*
X0092240Y0177751D01*
X0092102Y0177152D02*
X0083194Y0177152D01*
X0083252Y0176554D02*
X0092102Y0176554D01*
X0092102Y0175955D02*
X0083252Y0175955D01*
X0083252Y0175357D02*
X0092102Y0175357D01*
X0092102Y0174758D02*
X0083062Y0174758D01*
X0083252Y0174160D02*
X0092102Y0174160D01*
X0092102Y0173561D02*
X0083252Y0173561D01*
X0083252Y0172963D02*
X0091652Y0172963D01*
X0091053Y0172364D02*
X0083227Y0172364D01*
X0083252Y0171766D02*
X0090455Y0171766D01*
X0089856Y0171167D02*
X0083252Y0171167D01*
X0083252Y0170569D02*
X0089257Y0170569D01*
X0088659Y0169970D02*
X0083252Y0169970D01*
X0083252Y0169372D02*
X0088060Y0169372D01*
X0087462Y0168773D02*
X0083252Y0168773D01*
X0083252Y0168175D02*
X0086863Y0168175D01*
X0086265Y0167576D02*
X0083252Y0167576D01*
X0083133Y0166978D02*
X0085666Y0166978D01*
X0085068Y0166379D02*
X0083252Y0166379D01*
X0083252Y0165781D02*
X0084469Y0165781D01*
X0083871Y0165182D02*
X0083252Y0165182D01*
X0083272Y0164584D02*
X0083124Y0164584D01*
X0082674Y0163985D02*
X0061355Y0163985D01*
X0061355Y0163387D02*
X0082075Y0163387D01*
X0081477Y0162788D02*
X0061018Y0162788D01*
X0061272Y0161591D02*
X0080280Y0161591D01*
X0080878Y0162190D02*
X0049702Y0162190D01*
X0049702Y0162788D02*
X0053986Y0162788D01*
X0053650Y0163387D02*
X0049752Y0163387D01*
X0049702Y0161591D02*
X0053732Y0161591D01*
X0053650Y0160993D02*
X0049702Y0160993D01*
X0049702Y0160394D02*
X0053650Y0160394D01*
X0053650Y0159796D02*
X0049702Y0159796D01*
X0049702Y0159197D02*
X0053650Y0159197D01*
X0053650Y0158599D02*
X0049702Y0158599D01*
X0049702Y0158000D02*
X0053650Y0158000D01*
X0053650Y0157402D02*
X0049702Y0157402D01*
X0049702Y0156803D02*
X0053650Y0156803D01*
X0053650Y0156204D02*
X0049702Y0156204D01*
X0049702Y0155606D02*
X0053688Y0155606D01*
X0056102Y0155007D02*
X0049702Y0155007D01*
X0049702Y0154409D02*
X0056102Y0154409D01*
X0056102Y0153810D02*
X0049702Y0153810D01*
X0049702Y0153212D02*
X0056102Y0153212D01*
X0056102Y0152613D02*
X0049702Y0152613D01*
X0049702Y0152015D02*
X0056102Y0152015D01*
X0056102Y0151416D02*
X0049702Y0151416D01*
X0049702Y0150818D02*
X0056102Y0150818D01*
X0056102Y0150219D02*
X0049702Y0150219D01*
X0051702Y0149621D02*
X0056102Y0149621D01*
X0056102Y0149022D02*
X0051702Y0149022D01*
X0051702Y0148424D02*
X0055713Y0148424D01*
X0055114Y0147825D02*
X0051702Y0147825D01*
X0051702Y0147227D02*
X0054516Y0147227D01*
X0053917Y0146628D02*
X0051702Y0146628D01*
X0051702Y0146030D02*
X0053319Y0146030D01*
X0052720Y0145431D02*
X0051702Y0145431D01*
X0051702Y0144833D02*
X0052122Y0144833D01*
X0049727Y0142439D02*
X0038722Y0142439D01*
X0038123Y0141840D02*
X0049129Y0141840D01*
X0048530Y0141242D02*
X0038102Y0141242D01*
X0035926Y0143037D02*
X0031802Y0143037D01*
X0031802Y0142439D02*
X0035702Y0142439D01*
X0035702Y0141840D02*
X0031802Y0141840D01*
X0031802Y0141242D02*
X0035702Y0141242D01*
X0035702Y0140643D02*
X0031802Y0140643D01*
X0031802Y0140045D02*
X0035702Y0140045D01*
X0035702Y0139446D02*
X0031802Y0139446D01*
X0031802Y0138848D02*
X0035702Y0138848D01*
X0035702Y0138249D02*
X0031802Y0138249D01*
X0031802Y0137651D02*
X0035702Y0137651D01*
X0035702Y0137052D02*
X0031802Y0137052D01*
X0031802Y0136454D02*
X0035702Y0136454D01*
X0035702Y0135855D02*
X0031802Y0135855D01*
X0031802Y0135257D02*
X0035702Y0135257D01*
X0035702Y0134658D02*
X0031802Y0134658D01*
X0031802Y0134060D02*
X0035702Y0134060D01*
X0035702Y0133461D02*
X0031802Y0133461D01*
X0031802Y0132863D02*
X0035702Y0132863D01*
X0035702Y0132264D02*
X0031802Y0132264D01*
X0031802Y0131666D02*
X0035702Y0131666D01*
X0035702Y0131067D02*
X0031802Y0131067D01*
X0031802Y0130468D02*
X0035702Y0130468D01*
X0035702Y0129870D02*
X0031802Y0129870D01*
X0031802Y0129271D02*
X0035702Y0129271D01*
X0035702Y0128673D02*
X0031802Y0128673D01*
X0031802Y0128074D02*
X0035702Y0128074D01*
X0036246Y0127476D02*
X0031802Y0127476D01*
X0031802Y0126877D02*
X0036844Y0126877D01*
X0037443Y0126279D02*
X0031802Y0126279D01*
X0031802Y0125680D02*
X0038041Y0125680D01*
X0038102Y0125082D02*
X0031802Y0125082D01*
X0031802Y0124483D02*
X0038102Y0124483D01*
X0038102Y0123885D02*
X0031802Y0123885D01*
X0031802Y0123286D02*
X0038102Y0123286D01*
X0038102Y0122688D02*
X0031802Y0122688D01*
X0031802Y0122089D02*
X0038102Y0122089D01*
X0038102Y0121491D02*
X0031802Y0121491D01*
X0031802Y0120892D02*
X0037325Y0120892D01*
X0036984Y0120294D02*
X0031802Y0120294D01*
X0031802Y0119695D02*
X0036984Y0119695D01*
X0036984Y0119097D02*
X0031802Y0119097D01*
X0031802Y0118498D02*
X0036984Y0118498D01*
X0036984Y0117900D02*
X0031802Y0117900D01*
X0031802Y0117301D02*
X0036984Y0117301D01*
X0036984Y0116703D02*
X0031802Y0116703D01*
X0031802Y0116104D02*
X0036984Y0116104D01*
X0036984Y0115506D02*
X0031802Y0115506D01*
X0031802Y0114907D02*
X0037159Y0114907D01*
X0038102Y0114309D02*
X0031802Y0114309D01*
X0031802Y0113710D02*
X0038102Y0113710D01*
X0038102Y0113112D02*
X0031802Y0113112D01*
X0031802Y0112513D02*
X0038102Y0112513D01*
X0036958Y0111915D02*
X0031802Y0111915D01*
X0031802Y0111316D02*
X0035797Y0111316D01*
X0035198Y0110718D02*
X0031802Y0110718D01*
X0031802Y0110119D02*
X0034660Y0110119D01*
X0034412Y0109521D02*
X0031802Y0109521D01*
X0031802Y0108922D02*
X0034164Y0108922D01*
X0034002Y0108324D02*
X0031802Y0108324D01*
X0031802Y0107725D02*
X0034002Y0107725D01*
X0034002Y0107127D02*
X0031802Y0107127D01*
X0031802Y0106528D02*
X0034074Y0106528D01*
X0034322Y0105930D02*
X0031802Y0105930D01*
X0031802Y0105331D02*
X0034570Y0105331D01*
X0034981Y0104733D02*
X0031802Y0104733D01*
X0031802Y0104134D02*
X0035580Y0104134D01*
X0036435Y0103535D02*
X0031802Y0103535D01*
X0038602Y0107617D02*
X0038702Y0108117D01*
X0039302Y0108717D01*
X0046246Y0118498D02*
X0046846Y0118498D01*
X0046846Y0119097D02*
X0046246Y0119097D01*
X0046246Y0119695D02*
X0046846Y0119695D01*
X0046846Y0120294D02*
X0046246Y0120294D01*
X0046246Y0120892D02*
X0046846Y0120892D01*
X0036524Y0143636D02*
X0031802Y0143636D01*
X0031802Y0144234D02*
X0037123Y0144234D01*
X0037303Y0144833D02*
X0031802Y0144833D01*
X0031802Y0145431D02*
X0037303Y0145431D01*
X0037303Y0146030D02*
X0031802Y0146030D01*
X0031802Y0146628D02*
X0037303Y0146628D01*
X0037303Y0147227D02*
X0031802Y0147227D01*
X0031802Y0147825D02*
X0037303Y0147825D01*
X0037303Y0148424D02*
X0031802Y0148424D01*
X0031802Y0149022D02*
X0037303Y0149022D01*
X0037303Y0149621D02*
X0031802Y0149621D01*
X0031802Y0158599D02*
X0038165Y0158599D01*
X0037117Y0159197D02*
X0031802Y0159197D01*
X0031802Y0159796D02*
X0036518Y0159796D01*
X0036027Y0160394D02*
X0031802Y0160394D01*
X0031802Y0160993D02*
X0035779Y0160993D01*
X0035531Y0161591D02*
X0031802Y0161591D01*
X0031802Y0162190D02*
X0035402Y0162190D01*
X0035402Y0162788D02*
X0031802Y0162788D01*
X0031802Y0163387D02*
X0035402Y0163387D01*
X0035507Y0163985D02*
X0031802Y0163985D01*
X0031802Y0164584D02*
X0035755Y0164584D01*
X0036003Y0165182D02*
X0031802Y0165182D01*
X0031802Y0165781D02*
X0036461Y0165781D01*
X0037060Y0166379D02*
X0031802Y0166379D01*
X0031802Y0178948D02*
X0037366Y0178948D01*
X0036767Y0179546D02*
X0031802Y0179546D01*
X0031802Y0180145D02*
X0036169Y0180145D01*
X0035882Y0180743D02*
X0031802Y0180743D01*
X0031802Y0181342D02*
X0035634Y0181342D01*
X0035402Y0181940D02*
X0031802Y0181940D01*
X0031802Y0182539D02*
X0035402Y0182539D01*
X0035402Y0183137D02*
X0031802Y0183137D01*
X0031802Y0183736D02*
X0035404Y0183736D01*
X0035652Y0184335D02*
X0031802Y0184335D01*
X0031802Y0184933D02*
X0035900Y0184933D01*
X0036212Y0185532D02*
X0031802Y0185532D01*
X0031802Y0186130D02*
X0036810Y0186130D01*
X0037426Y0186729D02*
X0031802Y0186729D01*
X0031802Y0187327D02*
X0038871Y0187327D01*
X0044702Y0171117D02*
X0057902Y0184317D01*
X0058002Y0184592D01*
X0058302Y0184335D02*
X0066622Y0184335D01*
X0067220Y0184933D02*
X0063692Y0184933D01*
X0063692Y0184892D02*
X0063692Y0189429D01*
X0063604Y0189759D01*
X0063432Y0190056D01*
X0063190Y0190298D01*
X0063071Y0190367D01*
X0072654Y0190367D01*
X0063692Y0181405D01*
X0063692Y0184292D01*
X0058302Y0184292D01*
X0058302Y0184892D01*
X0063692Y0184892D01*
X0063692Y0185532D02*
X0067819Y0185532D01*
X0068417Y0186130D02*
X0063692Y0186130D01*
X0063692Y0186729D02*
X0069016Y0186729D01*
X0069614Y0187327D02*
X0063692Y0187327D01*
X0063692Y0187926D02*
X0070213Y0187926D01*
X0070811Y0188524D02*
X0063692Y0188524D01*
X0063692Y0189123D02*
X0071410Y0189123D01*
X0072008Y0189721D02*
X0063614Y0189721D01*
X0063152Y0190320D02*
X0072607Y0190320D01*
X0074074Y0186130D02*
X0074452Y0186130D01*
X0074452Y0185532D02*
X0073475Y0185532D01*
X0072877Y0184933D02*
X0074612Y0184933D01*
X0074852Y0184335D02*
X0072278Y0184335D01*
X0071680Y0183736D02*
X0074852Y0183736D01*
X0074852Y0183137D02*
X0071081Y0183137D01*
X0070483Y0182539D02*
X0074939Y0182539D01*
X0074852Y0181940D02*
X0069884Y0181940D01*
X0069286Y0181342D02*
X0074852Y0181342D01*
X0074852Y0180743D02*
X0068687Y0180743D01*
X0068089Y0180145D02*
X0074852Y0180145D01*
X0074852Y0179546D02*
X0067490Y0179546D01*
X0066892Y0178948D02*
X0074852Y0178948D01*
X0074852Y0178349D02*
X0066293Y0178349D01*
X0065695Y0177751D02*
X0074852Y0177751D01*
X0074911Y0177152D02*
X0065096Y0177152D01*
X0064498Y0176554D02*
X0074852Y0176554D01*
X0074852Y0175955D02*
X0063899Y0175955D01*
X0063301Y0175357D02*
X0074852Y0175357D01*
X0075043Y0174758D02*
X0062702Y0174758D01*
X0062291Y0174348D02*
X0062291Y0174348D01*
X0062104Y0174160D02*
X0074852Y0174160D01*
X0074250Y0173561D02*
X0061505Y0173561D01*
X0060972Y0169372D02*
X0070060Y0169372D01*
X0069462Y0168773D02*
X0061355Y0168773D01*
X0061355Y0168175D02*
X0068863Y0168175D01*
X0068265Y0167576D02*
X0061355Y0167576D01*
X0061355Y0164584D02*
X0074981Y0164584D01*
X0074852Y0165182D02*
X0069265Y0165182D01*
X0069863Y0165781D02*
X0074852Y0165781D01*
X0074852Y0166379D02*
X0070462Y0166379D01*
X0071060Y0166978D02*
X0074972Y0166978D01*
X0074852Y0167576D02*
X0071659Y0167576D01*
X0072258Y0168175D02*
X0074852Y0168175D01*
X0074852Y0168773D02*
X0072856Y0168773D01*
X0073455Y0169372D02*
X0074852Y0169372D01*
X0074852Y0169970D02*
X0074053Y0169970D01*
X0074652Y0170569D02*
X0074852Y0170569D01*
X0075302Y0172917D02*
X0078902Y0172917D01*
X0079052Y0173462D01*
X0075302Y0172917D02*
X0068702Y0166317D01*
X0057902Y0166317D01*
X0057502Y0166057D01*
X0053650Y0165781D02*
X0052991Y0165781D01*
X0052991Y0166379D02*
X0053650Y0166379D01*
X0053650Y0166978D02*
X0052991Y0166978D01*
X0052621Y0167576D02*
X0053650Y0167576D01*
X0053650Y0168175D02*
X0052023Y0168175D01*
X0052002Y0168773D02*
X0053650Y0168773D01*
X0054033Y0169372D02*
X0052537Y0169372D01*
X0053136Y0169970D02*
X0070659Y0169970D01*
X0071257Y0170569D02*
X0053734Y0170569D01*
X0054333Y0171167D02*
X0071856Y0171167D01*
X0072455Y0171766D02*
X0054931Y0171766D01*
X0055530Y0172364D02*
X0073053Y0172364D01*
X0073652Y0172963D02*
X0056128Y0172963D01*
X0055002Y0177518D02*
X0054704Y0177518D01*
X0053650Y0165182D02*
X0052946Y0165182D01*
X0052348Y0164584D02*
X0053650Y0164584D01*
X0053650Y0163985D02*
X0051749Y0163985D01*
X0048302Y0146517D02*
X0048243Y0146317D01*
X0040762Y0146317D02*
X0040502Y0146517D01*
X0061316Y0155606D02*
X0074295Y0155606D01*
X0074893Y0156204D02*
X0061355Y0156204D01*
X0061355Y0156803D02*
X0075492Y0156803D01*
X0076090Y0157402D02*
X0061355Y0157402D01*
X0061355Y0158000D02*
X0076689Y0158000D01*
X0077287Y0158599D02*
X0061355Y0158599D01*
X0061355Y0159197D02*
X0077886Y0159197D01*
X0078484Y0159796D02*
X0061355Y0159796D01*
X0061355Y0160394D02*
X0079083Y0160394D01*
X0079681Y0160993D02*
X0061355Y0160993D01*
X0066902Y0151317D02*
X0066609Y0150950D01*
X0066902Y0151317D02*
X0071702Y0151317D01*
X0075913Y0146030D02*
X0091346Y0146030D01*
X0091346Y0146628D02*
X0076511Y0146628D01*
X0077110Y0147227D02*
X0091555Y0147227D01*
X0091746Y0147825D02*
X0077708Y0147825D01*
X0078307Y0148424D02*
X0091746Y0148424D01*
X0091746Y0149022D02*
X0078905Y0149022D01*
X0079504Y0149621D02*
X0091918Y0149621D01*
X0091746Y0150219D02*
X0080102Y0150219D01*
X0080701Y0150818D02*
X0091746Y0150818D01*
X0091746Y0151416D02*
X0081299Y0151416D01*
X0081898Y0152015D02*
X0091753Y0152015D01*
X0091346Y0145431D02*
X0075314Y0145431D01*
X0074716Y0144833D02*
X0091384Y0144833D01*
X0091374Y0144234D02*
X0074117Y0144234D01*
X0073519Y0143636D02*
X0091346Y0143636D01*
X0091346Y0143037D02*
X0072920Y0143037D01*
X0072322Y0142439D02*
X0091346Y0142439D01*
X0091577Y0141840D02*
X0071723Y0141840D01*
X0071125Y0141242D02*
X0091746Y0141242D01*
X0091746Y0140643D02*
X0070526Y0140643D01*
X0070259Y0140045D02*
X0091746Y0140045D01*
X0091956Y0139446D02*
X0070048Y0139446D01*
X0070259Y0138848D02*
X0091746Y0138848D01*
X0091746Y0138249D02*
X0070259Y0138249D01*
X0070259Y0137651D02*
X0091746Y0137651D01*
X0091791Y0137052D02*
X0070415Y0137052D01*
X0070658Y0136454D02*
X0091746Y0136454D01*
X0091746Y0135855D02*
X0070659Y0135855D01*
X0070659Y0135257D02*
X0091746Y0135257D01*
X0091502Y0135717D02*
X0091502Y0134517D01*
X0092702Y0133317D01*
X0095102Y0133317D01*
X0095396Y0133037D01*
X0095396Y0130478D02*
X0095102Y0130317D01*
X0092702Y0130317D01*
X0091502Y0130468D02*
X0070259Y0130468D01*
X0070259Y0129870D02*
X0091502Y0129870D01*
X0091895Y0129271D02*
X0070110Y0129271D01*
X0070259Y0128673D02*
X0091746Y0128673D01*
X0091746Y0128074D02*
X0070259Y0128074D01*
X0070259Y0127476D02*
X0091746Y0127476D01*
X0091640Y0126877D02*
X0070259Y0126877D01*
X0070259Y0126279D02*
X0091363Y0126279D01*
X0091346Y0125680D02*
X0070259Y0125680D01*
X0070259Y0131067D02*
X0091746Y0131067D01*
X0091541Y0131666D02*
X0070129Y0131666D01*
X0070259Y0132264D02*
X0091346Y0132264D01*
X0091346Y0132863D02*
X0070259Y0132863D01*
X0070259Y0133461D02*
X0091346Y0133461D01*
X0091391Y0134060D02*
X0070346Y0134060D01*
X0070637Y0134658D02*
X0091744Y0134658D01*
X0095396Y0130478D02*
X0095557Y0130317D01*
X0099046Y0128673D02*
X0108767Y0128673D01*
X0109366Y0128074D02*
X0099046Y0128074D01*
X0098702Y0138717D02*
X0114302Y0154317D01*
X0116702Y0154317D01*
X0116869Y0154817D01*
X0120131Y0155007D02*
X0121874Y0155007D01*
X0121874Y0154409D02*
X0120131Y0154409D01*
X0120131Y0153810D02*
X0121874Y0153810D01*
X0121874Y0153212D02*
X0120131Y0153212D01*
X0120131Y0152613D02*
X0121874Y0152613D01*
X0121941Y0152015D02*
X0120064Y0152015D01*
X0120131Y0155606D02*
X0121874Y0155606D01*
X0121874Y0156204D02*
X0120131Y0156204D01*
X0120131Y0156803D02*
X0121874Y0156803D01*
X0121874Y0157402D02*
X0120131Y0157402D01*
X0119682Y0158000D02*
X0122322Y0158000D01*
X0123902Y0151416D02*
X0113099Y0151416D01*
X0112501Y0150818D02*
X0123902Y0150818D01*
X0123902Y0150219D02*
X0111902Y0150219D01*
X0111304Y0149621D02*
X0123902Y0149621D01*
X0123902Y0149022D02*
X0110705Y0149022D01*
X0110107Y0148424D02*
X0123902Y0148424D01*
X0123902Y0147825D02*
X0109508Y0147825D01*
X0108910Y0147227D02*
X0123902Y0147227D01*
X0123902Y0146628D02*
X0108311Y0146628D01*
X0107713Y0146030D02*
X0123902Y0146030D01*
X0128332Y0152015D02*
X0135202Y0152015D01*
X0135202Y0152613D02*
X0128398Y0152613D01*
X0128398Y0153212D02*
X0135202Y0153212D01*
X0135202Y0153810D02*
X0128398Y0153810D01*
X0128398Y0154409D02*
X0135202Y0154409D01*
X0135202Y0155007D02*
X0128398Y0155007D01*
X0128398Y0155606D02*
X0135202Y0155606D01*
X0135202Y0156204D02*
X0128398Y0156204D01*
X0128398Y0156803D02*
X0135202Y0156803D01*
X0135202Y0157402D02*
X0128398Y0157402D01*
X0127950Y0158000D02*
X0135202Y0158000D01*
X0135202Y0158599D02*
X0105391Y0158599D01*
X0105391Y0158000D02*
X0114055Y0158000D01*
X0113606Y0157402D02*
X0105391Y0157402D01*
X0105367Y0156803D02*
X0113606Y0156803D01*
X0113606Y0156204D02*
X0104769Y0156204D01*
X0104170Y0155606D02*
X0113606Y0155606D01*
X0113296Y0155007D02*
X0084890Y0155007D01*
X0084292Y0154409D02*
X0112698Y0154409D01*
X0112099Y0153810D02*
X0083693Y0153810D01*
X0083095Y0153212D02*
X0111501Y0153212D01*
X0110902Y0152613D02*
X0082496Y0152613D01*
X0085489Y0155606D02*
X0101834Y0155606D01*
X0101236Y0156204D02*
X0086087Y0156204D01*
X0086686Y0156803D02*
X0100637Y0156803D01*
X0100613Y0157402D02*
X0087284Y0157402D01*
X0087883Y0158000D02*
X0100613Y0158000D01*
X0100613Y0158599D02*
X0088481Y0158599D01*
X0089080Y0159197D02*
X0095743Y0159197D01*
X0095145Y0159796D02*
X0089678Y0159796D01*
X0090277Y0160394D02*
X0094613Y0160394D01*
X0094613Y0160993D02*
X0090875Y0160993D01*
X0091474Y0161591D02*
X0094613Y0161591D01*
X0094613Y0162190D02*
X0092072Y0162190D01*
X0092671Y0162788D02*
X0095095Y0162788D01*
X0095694Y0163387D02*
X0093269Y0163387D01*
X0093868Y0163985D02*
X0097974Y0163985D01*
X0098572Y0164584D02*
X0094466Y0164584D01*
X0095065Y0165182D02*
X0099171Y0165182D01*
X0099769Y0165781D02*
X0095663Y0165781D01*
X0095702Y0166379D02*
X0100368Y0166379D01*
X0100966Y0166978D02*
X0095702Y0166978D01*
X0095702Y0167576D02*
X0101565Y0167576D01*
X0102163Y0168175D02*
X0095702Y0168175D01*
X0095702Y0168773D02*
X0102762Y0168773D01*
X0103360Y0169372D02*
X0095702Y0169372D01*
X0095702Y0169970D02*
X0103752Y0169970D01*
X0103752Y0170569D02*
X0095702Y0170569D01*
X0095702Y0171167D02*
X0103752Y0171167D01*
X0103752Y0171766D02*
X0095702Y0171766D01*
X0095702Y0172364D02*
X0103778Y0172364D01*
X0103752Y0172963D02*
X0095702Y0172963D01*
X0095702Y0173561D02*
X0103752Y0173561D01*
X0103752Y0174160D02*
X0095702Y0174160D01*
X0095702Y0174758D02*
X0103943Y0174758D01*
X0103752Y0175357D02*
X0095702Y0175357D01*
X0096238Y0175955D02*
X0103752Y0175955D01*
X0103752Y0176554D02*
X0096837Y0176554D01*
X0097435Y0177152D02*
X0103811Y0177152D01*
X0103752Y0177751D02*
X0098034Y0177751D01*
X0098632Y0178349D02*
X0103752Y0178349D01*
X0103752Y0178948D02*
X0099231Y0178948D01*
X0099829Y0179546D02*
X0103752Y0179546D01*
X0103752Y0180145D02*
X0100428Y0180145D01*
X0101026Y0180743D02*
X0103752Y0180743D01*
X0103752Y0181342D02*
X0101625Y0181342D01*
X0102223Y0181940D02*
X0103752Y0181940D01*
X0103839Y0182539D02*
X0102822Y0182539D01*
X0103420Y0183137D02*
X0103752Y0183137D01*
X0104030Y0168344D02*
X0097002Y0161317D01*
X0098860Y0159796D02*
X0101603Y0159796D01*
X0101802Y0160394D02*
X0099391Y0160394D01*
X0099391Y0160993D02*
X0101802Y0160993D01*
X0102061Y0161591D02*
X0099391Y0161591D01*
X0099572Y0162190D02*
X0102660Y0162190D01*
X0103258Y0162788D02*
X0100171Y0162788D01*
X0100769Y0163387D02*
X0103857Y0163387D01*
X0104455Y0163985D02*
X0101368Y0163985D01*
X0101966Y0164584D02*
X0103881Y0164584D01*
X0103752Y0165182D02*
X0102565Y0165182D01*
X0103163Y0165781D02*
X0103752Y0165781D01*
X0104030Y0168344D02*
X0107952Y0168344D01*
X0107952Y0165785D02*
X0103002Y0160835D01*
X0103002Y0157817D01*
X0104402Y0159796D02*
X0135202Y0159796D01*
X0135202Y0160394D02*
X0104258Y0160394D01*
X0104857Y0160993D02*
X0135202Y0160993D01*
X0135202Y0161591D02*
X0105455Y0161591D01*
X0106054Y0162190D02*
X0135202Y0162190D01*
X0135202Y0162788D02*
X0106652Y0162788D01*
X0107251Y0163387D02*
X0135202Y0163387D01*
X0135202Y0163985D02*
X0107849Y0163985D01*
X0105000Y0159197D02*
X0135202Y0159197D01*
X0135202Y0164584D02*
X0112024Y0164584D01*
X0112152Y0165182D02*
X0135202Y0165182D01*
X0135202Y0165781D02*
X0112152Y0165781D01*
X0112152Y0166379D02*
X0135202Y0166379D01*
X0135202Y0166978D02*
X0112033Y0166978D01*
X0112152Y0167576D02*
X0135202Y0167576D01*
X0135202Y0168175D02*
X0112152Y0168175D01*
X0112152Y0168773D02*
X0135202Y0168773D01*
X0135202Y0169372D02*
X0112152Y0169372D01*
X0112152Y0169970D02*
X0135202Y0169970D01*
X0135202Y0170569D02*
X0112152Y0170569D01*
X0112152Y0171167D02*
X0135202Y0171167D01*
X0135202Y0171766D02*
X0112152Y0171766D01*
X0112127Y0172364D02*
X0135202Y0172364D01*
X0135202Y0172963D02*
X0112152Y0172963D01*
X0112152Y0173561D02*
X0135202Y0173561D01*
X0135202Y0174160D02*
X0112152Y0174160D01*
X0111962Y0174758D02*
X0135202Y0174758D01*
X0135202Y0175357D02*
X0112152Y0175357D01*
X0112152Y0175955D02*
X0135202Y0175955D01*
X0135202Y0176554D02*
X0112152Y0176554D01*
X0112094Y0177152D02*
X0135202Y0177152D01*
X0135202Y0177751D02*
X0112152Y0177751D01*
X0112152Y0178349D02*
X0135202Y0178349D01*
X0135202Y0178948D02*
X0112152Y0178948D01*
X0112152Y0179546D02*
X0135202Y0179546D01*
X0135202Y0180145D02*
X0112152Y0180145D01*
X0112426Y0180743D02*
X0135202Y0180743D01*
X0135202Y0181342D02*
X0113025Y0181342D01*
X0113623Y0181940D02*
X0135202Y0181940D01*
X0122798Y0194509D02*
X0117573Y0194509D01*
X0112558Y0210669D02*
X0112046Y0210669D01*
X0112152Y0211268D02*
X0113156Y0211268D01*
X0113755Y0211866D02*
X0112152Y0211866D01*
X0112152Y0212465D02*
X0114353Y0212465D01*
X0114952Y0213063D02*
X0112010Y0213063D01*
X0119277Y0254959D02*
X0119727Y0254959D01*
X0119727Y0255557D02*
X0119277Y0255557D01*
X0119277Y0256156D02*
X0119727Y0256156D01*
X0119727Y0256754D02*
X0119277Y0256754D01*
X0119277Y0257353D02*
X0119727Y0257353D01*
X0119727Y0257951D02*
X0119277Y0257951D01*
X0119277Y0258550D02*
X0119727Y0258550D01*
X0119727Y0259148D02*
X0119277Y0259148D01*
X0119277Y0259747D02*
X0119727Y0259747D01*
X0119727Y0260345D02*
X0119277Y0260345D01*
X0119277Y0260944D02*
X0119727Y0260944D01*
X0119727Y0261542D02*
X0119277Y0261542D01*
X0119277Y0262141D02*
X0119727Y0262141D01*
X0119727Y0262739D02*
X0119277Y0262739D01*
X0119277Y0263338D02*
X0119727Y0263338D01*
X0119727Y0263937D02*
X0119277Y0263937D01*
X0119277Y0264535D02*
X0119727Y0264535D01*
X0119727Y0265134D02*
X0119277Y0265134D01*
X0114502Y0260017D02*
X0110981Y0260017D01*
X0085502Y0238163D02*
X0085502Y0237717D01*
X0084302Y0236517D01*
X0066023Y0183736D02*
X0063692Y0183736D01*
X0063692Y0183137D02*
X0065425Y0183137D01*
X0064826Y0182539D02*
X0063692Y0182539D01*
X0063692Y0181940D02*
X0064228Y0181940D01*
X0098261Y0159197D02*
X0101004Y0159197D01*
X0099039Y0152015D02*
X0110304Y0152015D01*
X0109705Y0151416D02*
X0099046Y0151416D01*
X0099046Y0150818D02*
X0109107Y0150818D01*
X0108508Y0150219D02*
X0099046Y0150219D01*
X0098874Y0149621D02*
X0107910Y0149621D01*
X0107311Y0149022D02*
X0099046Y0149022D01*
X0099046Y0148424D02*
X0106713Y0148424D01*
X0106114Y0147825D02*
X0099046Y0147825D01*
X0099238Y0147227D02*
X0105516Y0147227D01*
X0104917Y0146628D02*
X0099446Y0146628D01*
X0099446Y0146030D02*
X0104319Y0146030D01*
X0103720Y0145431D02*
X0099446Y0145431D01*
X0099408Y0144833D02*
X0103122Y0144833D01*
X0102523Y0144234D02*
X0099418Y0144234D01*
X0104127Y0140045D02*
X0113606Y0140045D01*
X0113606Y0140643D02*
X0104726Y0140643D01*
X0103529Y0139446D02*
X0113742Y0139446D01*
X0113606Y0143636D02*
X0105319Y0143636D01*
X0105917Y0144234D02*
X0113606Y0144234D01*
X0113606Y0144833D02*
X0106516Y0144833D01*
X0107114Y0145431D02*
X0113986Y0145431D01*
X0129195Y0101141D02*
X0135202Y0101141D01*
X0135202Y0100543D02*
X0129287Y0100543D01*
X0129287Y0099944D02*
X0135202Y0099944D01*
X0135202Y0099346D02*
X0129287Y0099346D01*
X0129287Y0098747D02*
X0135202Y0098747D01*
X0135202Y0098149D02*
X0129287Y0098149D01*
X0129287Y0097550D02*
X0135202Y0097550D01*
X0135202Y0096952D02*
X0129287Y0096952D01*
X0129287Y0096353D02*
X0135202Y0096353D01*
X0135202Y0095755D02*
X0129287Y0095755D01*
X0129424Y0095156D02*
X0135202Y0095156D01*
X0135202Y0094558D02*
X0129729Y0094558D01*
X0129931Y0093959D02*
X0135202Y0093959D01*
X0135202Y0093361D02*
X0130048Y0093361D01*
X0130090Y0092762D02*
X0135202Y0092762D01*
X0135202Y0092164D02*
X0130090Y0092164D01*
X0130090Y0091565D02*
X0135202Y0091565D01*
X0135202Y0090967D02*
X0130090Y0090967D01*
X0130090Y0090368D02*
X0135202Y0090368D01*
X0135202Y0089770D02*
X0130090Y0089770D01*
X0129287Y0089171D02*
X0135202Y0089171D01*
X0135202Y0088573D02*
X0130090Y0088573D01*
X0130090Y0087974D02*
X0135202Y0087974D01*
X0135202Y0087376D02*
X0130090Y0087376D01*
X0130090Y0086777D02*
X0135202Y0086777D01*
X0135202Y0086179D02*
X0130090Y0086179D01*
X0130075Y0085580D02*
X0135202Y0085580D01*
X0135202Y0084982D02*
X0129980Y0084982D01*
X0129790Y0084383D02*
X0135202Y0084383D01*
X0135202Y0083785D02*
X0129508Y0083785D01*
X0129287Y0083186D02*
X0135202Y0083186D01*
X0135202Y0082588D02*
X0129287Y0082588D01*
X0129287Y0081989D02*
X0135202Y0081989D01*
X0135202Y0081391D02*
X0129287Y0081391D01*
X0129287Y0080792D02*
X0135202Y0080792D01*
X0135202Y0080194D02*
X0129287Y0080194D01*
X0129287Y0079595D02*
X0135202Y0079595D01*
X0135202Y0078997D02*
X0129287Y0078997D01*
X0129287Y0078398D02*
X0135202Y0078398D01*
X0135202Y0077799D02*
X0129287Y0077799D01*
X0129287Y0077201D02*
X0135202Y0077201D01*
X0125743Y0081989D02*
X0125143Y0081989D01*
X0125143Y0082588D02*
X0125743Y0082588D01*
X0125743Y0083186D02*
X0125143Y0083186D01*
X0125143Y0083785D02*
X0125743Y0083785D01*
X0125743Y0084383D02*
X0125143Y0084383D01*
X0125143Y0084982D02*
X0125743Y0084982D01*
X0125743Y0085580D02*
X0125143Y0085580D01*
X0125143Y0086179D02*
X0125743Y0086179D01*
X0125743Y0086777D02*
X0125143Y0086777D01*
X0125143Y0087376D02*
X0125743Y0087376D01*
X0125743Y0087974D02*
X0125143Y0087974D01*
X0125143Y0088573D02*
X0125743Y0088573D01*
X0087902Y0046917D02*
X0088002Y0046817D01*
D32*
X0073502Y0104817D03*
X0081602Y0110017D03*
X0100002Y0110817D03*
X0104002Y0118317D03*
X0110502Y0130317D03*
X0103002Y0157817D03*
X0097002Y0161317D03*
X0116502Y0196817D03*
X0115981Y0207787D03*
X0109502Y0231717D03*
X0108842Y0262156D03*
X0091102Y0225517D03*
X0067402Y0235717D03*
X0065102Y0211917D03*
X0061252Y0211567D03*
X0050602Y0166217D03*
X0061502Y0145917D03*
M02*
