G75*
%MOIN*%
%OFA0B0*%
%FSLAX25Y25*%
%IPPOS*%
%LPD*%
%AMOC8*
5,1,8,0,0,1.08239X$1,22.5*
%
%ADD10C,0.00000*%
%ADD11C,0.00400*%
D10*
X0027002Y0059583D02*
X0027002Y0236543D01*
X0182703Y0236543D01*
X0182703Y0059583D01*
X0027002Y0059583D01*
X0096979Y0072654D02*
X0096981Y0072747D01*
X0096987Y0072839D01*
X0096997Y0072931D01*
X0097011Y0073022D01*
X0097028Y0073113D01*
X0097050Y0073203D01*
X0097075Y0073292D01*
X0097104Y0073380D01*
X0097137Y0073466D01*
X0097174Y0073551D01*
X0097214Y0073635D01*
X0097258Y0073716D01*
X0097305Y0073796D01*
X0097355Y0073874D01*
X0097409Y0073949D01*
X0097466Y0074022D01*
X0097526Y0074092D01*
X0097589Y0074160D01*
X0097655Y0074225D01*
X0097723Y0074287D01*
X0097794Y0074347D01*
X0097868Y0074403D01*
X0097944Y0074456D01*
X0098022Y0074505D01*
X0098102Y0074552D01*
X0098184Y0074594D01*
X0098268Y0074634D01*
X0098353Y0074669D01*
X0098440Y0074701D01*
X0098528Y0074730D01*
X0098617Y0074754D01*
X0098707Y0074775D01*
X0098798Y0074791D01*
X0098890Y0074804D01*
X0098982Y0074813D01*
X0099075Y0074818D01*
X0099167Y0074819D01*
X0099260Y0074816D01*
X0099352Y0074809D01*
X0099444Y0074798D01*
X0099535Y0074783D01*
X0099626Y0074765D01*
X0099716Y0074742D01*
X0099804Y0074716D01*
X0099892Y0074686D01*
X0099978Y0074652D01*
X0100062Y0074615D01*
X0100145Y0074573D01*
X0100226Y0074529D01*
X0100306Y0074481D01*
X0100383Y0074430D01*
X0100457Y0074375D01*
X0100530Y0074317D01*
X0100600Y0074257D01*
X0100667Y0074193D01*
X0100731Y0074127D01*
X0100793Y0074057D01*
X0100851Y0073986D01*
X0100906Y0073912D01*
X0100958Y0073835D01*
X0101007Y0073756D01*
X0101053Y0073676D01*
X0101095Y0073593D01*
X0101133Y0073509D01*
X0101168Y0073423D01*
X0101199Y0073336D01*
X0101226Y0073248D01*
X0101249Y0073158D01*
X0101269Y0073068D01*
X0101285Y0072977D01*
X0101297Y0072885D01*
X0101305Y0072793D01*
X0101309Y0072700D01*
X0101309Y0072608D01*
X0101305Y0072515D01*
X0101297Y0072423D01*
X0101285Y0072331D01*
X0101269Y0072240D01*
X0101249Y0072150D01*
X0101226Y0072060D01*
X0101199Y0071972D01*
X0101168Y0071885D01*
X0101133Y0071799D01*
X0101095Y0071715D01*
X0101053Y0071632D01*
X0101007Y0071552D01*
X0100958Y0071473D01*
X0100906Y0071396D01*
X0100851Y0071322D01*
X0100793Y0071251D01*
X0100731Y0071181D01*
X0100667Y0071115D01*
X0100600Y0071051D01*
X0100530Y0070991D01*
X0100457Y0070933D01*
X0100383Y0070878D01*
X0100306Y0070827D01*
X0100227Y0070779D01*
X0100145Y0070735D01*
X0100062Y0070693D01*
X0099978Y0070656D01*
X0099892Y0070622D01*
X0099804Y0070592D01*
X0099716Y0070566D01*
X0099626Y0070543D01*
X0099535Y0070525D01*
X0099444Y0070510D01*
X0099352Y0070499D01*
X0099260Y0070492D01*
X0099167Y0070489D01*
X0099075Y0070490D01*
X0098982Y0070495D01*
X0098890Y0070504D01*
X0098798Y0070517D01*
X0098707Y0070533D01*
X0098617Y0070554D01*
X0098528Y0070578D01*
X0098440Y0070607D01*
X0098353Y0070639D01*
X0098268Y0070674D01*
X0098184Y0070714D01*
X0098102Y0070756D01*
X0098022Y0070803D01*
X0097944Y0070852D01*
X0097868Y0070905D01*
X0097794Y0070961D01*
X0097723Y0071021D01*
X0097655Y0071083D01*
X0097589Y0071148D01*
X0097526Y0071216D01*
X0097466Y0071286D01*
X0097409Y0071359D01*
X0097355Y0071434D01*
X0097305Y0071512D01*
X0097258Y0071592D01*
X0097214Y0071673D01*
X0097174Y0071757D01*
X0097137Y0071842D01*
X0097104Y0071928D01*
X0097075Y0072016D01*
X0097050Y0072105D01*
X0097028Y0072195D01*
X0097011Y0072286D01*
X0096997Y0072377D01*
X0096987Y0072469D01*
X0096981Y0072561D01*
X0096979Y0072654D01*
X0114696Y0072654D02*
X0114698Y0072747D01*
X0114704Y0072839D01*
X0114714Y0072931D01*
X0114728Y0073022D01*
X0114745Y0073113D01*
X0114767Y0073203D01*
X0114792Y0073292D01*
X0114821Y0073380D01*
X0114854Y0073466D01*
X0114891Y0073551D01*
X0114931Y0073635D01*
X0114975Y0073716D01*
X0115022Y0073796D01*
X0115072Y0073874D01*
X0115126Y0073949D01*
X0115183Y0074022D01*
X0115243Y0074092D01*
X0115306Y0074160D01*
X0115372Y0074225D01*
X0115440Y0074287D01*
X0115511Y0074347D01*
X0115585Y0074403D01*
X0115661Y0074456D01*
X0115739Y0074505D01*
X0115819Y0074552D01*
X0115901Y0074594D01*
X0115985Y0074634D01*
X0116070Y0074669D01*
X0116157Y0074701D01*
X0116245Y0074730D01*
X0116334Y0074754D01*
X0116424Y0074775D01*
X0116515Y0074791D01*
X0116607Y0074804D01*
X0116699Y0074813D01*
X0116792Y0074818D01*
X0116884Y0074819D01*
X0116977Y0074816D01*
X0117069Y0074809D01*
X0117161Y0074798D01*
X0117252Y0074783D01*
X0117343Y0074765D01*
X0117433Y0074742D01*
X0117521Y0074716D01*
X0117609Y0074686D01*
X0117695Y0074652D01*
X0117779Y0074615D01*
X0117862Y0074573D01*
X0117943Y0074529D01*
X0118023Y0074481D01*
X0118100Y0074430D01*
X0118174Y0074375D01*
X0118247Y0074317D01*
X0118317Y0074257D01*
X0118384Y0074193D01*
X0118448Y0074127D01*
X0118510Y0074057D01*
X0118568Y0073986D01*
X0118623Y0073912D01*
X0118675Y0073835D01*
X0118724Y0073756D01*
X0118770Y0073676D01*
X0118812Y0073593D01*
X0118850Y0073509D01*
X0118885Y0073423D01*
X0118916Y0073336D01*
X0118943Y0073248D01*
X0118966Y0073158D01*
X0118986Y0073068D01*
X0119002Y0072977D01*
X0119014Y0072885D01*
X0119022Y0072793D01*
X0119026Y0072700D01*
X0119026Y0072608D01*
X0119022Y0072515D01*
X0119014Y0072423D01*
X0119002Y0072331D01*
X0118986Y0072240D01*
X0118966Y0072150D01*
X0118943Y0072060D01*
X0118916Y0071972D01*
X0118885Y0071885D01*
X0118850Y0071799D01*
X0118812Y0071715D01*
X0118770Y0071632D01*
X0118724Y0071552D01*
X0118675Y0071473D01*
X0118623Y0071396D01*
X0118568Y0071322D01*
X0118510Y0071251D01*
X0118448Y0071181D01*
X0118384Y0071115D01*
X0118317Y0071051D01*
X0118247Y0070991D01*
X0118174Y0070933D01*
X0118100Y0070878D01*
X0118023Y0070827D01*
X0117944Y0070779D01*
X0117862Y0070735D01*
X0117779Y0070693D01*
X0117695Y0070656D01*
X0117609Y0070622D01*
X0117521Y0070592D01*
X0117433Y0070566D01*
X0117343Y0070543D01*
X0117252Y0070525D01*
X0117161Y0070510D01*
X0117069Y0070499D01*
X0116977Y0070492D01*
X0116884Y0070489D01*
X0116792Y0070490D01*
X0116699Y0070495D01*
X0116607Y0070504D01*
X0116515Y0070517D01*
X0116424Y0070533D01*
X0116334Y0070554D01*
X0116245Y0070578D01*
X0116157Y0070607D01*
X0116070Y0070639D01*
X0115985Y0070674D01*
X0115901Y0070714D01*
X0115819Y0070756D01*
X0115739Y0070803D01*
X0115661Y0070852D01*
X0115585Y0070905D01*
X0115511Y0070961D01*
X0115440Y0071021D01*
X0115372Y0071083D01*
X0115306Y0071148D01*
X0115243Y0071216D01*
X0115183Y0071286D01*
X0115126Y0071359D01*
X0115072Y0071434D01*
X0115022Y0071512D01*
X0114975Y0071592D01*
X0114931Y0071673D01*
X0114891Y0071757D01*
X0114854Y0071842D01*
X0114821Y0071928D01*
X0114792Y0072016D01*
X0114767Y0072105D01*
X0114745Y0072195D01*
X0114728Y0072286D01*
X0114714Y0072377D01*
X0114704Y0072469D01*
X0114698Y0072561D01*
X0114696Y0072654D01*
D11*
X0134907Y0092212D02*
X0134907Y0092723D01*
X0139507Y0094256D01*
X0139507Y0092212D02*
X0136441Y0093234D01*
X0136441Y0090333D02*
X0136441Y0089055D01*
X0136440Y0089055D02*
X0136442Y0089000D01*
X0136448Y0088946D01*
X0136458Y0088892D01*
X0136471Y0088839D01*
X0136488Y0088787D01*
X0136509Y0088736D01*
X0136534Y0088687D01*
X0136562Y0088640D01*
X0136593Y0088595D01*
X0136627Y0088553D01*
X0136665Y0088513D01*
X0136705Y0088475D01*
X0136747Y0088441D01*
X0136792Y0088410D01*
X0136839Y0088382D01*
X0136888Y0088357D01*
X0136939Y0088336D01*
X0136991Y0088319D01*
X0137044Y0088306D01*
X0137098Y0088296D01*
X0137152Y0088290D01*
X0137207Y0088288D01*
X0138741Y0088288D01*
X0138796Y0088290D01*
X0138850Y0088296D01*
X0138904Y0088306D01*
X0138957Y0088319D01*
X0139009Y0088336D01*
X0139060Y0088357D01*
X0139109Y0088382D01*
X0139156Y0088410D01*
X0139201Y0088441D01*
X0139243Y0088475D01*
X0139283Y0088513D01*
X0139321Y0088553D01*
X0139355Y0088595D01*
X0139386Y0088640D01*
X0139414Y0088687D01*
X0139439Y0088736D01*
X0139460Y0088787D01*
X0139477Y0088839D01*
X0139490Y0088892D01*
X0139500Y0088946D01*
X0139506Y0089000D01*
X0139508Y0089055D01*
X0139507Y0089055D02*
X0139507Y0090333D01*
X0141041Y0090333D02*
X0136441Y0090333D01*
X0137463Y0086456D02*
X0138485Y0086456D01*
X0138548Y0086454D01*
X0138611Y0086448D01*
X0138673Y0086439D01*
X0138734Y0086425D01*
X0138795Y0086408D01*
X0138854Y0086387D01*
X0138912Y0086362D01*
X0138969Y0086334D01*
X0139023Y0086303D01*
X0139075Y0086268D01*
X0139126Y0086230D01*
X0139174Y0086189D01*
X0139219Y0086145D01*
X0139261Y0086099D01*
X0139301Y0086050D01*
X0139337Y0085999D01*
X0139370Y0085945D01*
X0139400Y0085890D01*
X0139426Y0085832D01*
X0139449Y0085774D01*
X0139468Y0085714D01*
X0139483Y0085653D01*
X0139495Y0085591D01*
X0139503Y0085528D01*
X0139507Y0085465D01*
X0139507Y0085403D01*
X0139503Y0085340D01*
X0139495Y0085277D01*
X0139483Y0085215D01*
X0139468Y0085154D01*
X0139449Y0085094D01*
X0139426Y0085036D01*
X0139400Y0084978D01*
X0139370Y0084923D01*
X0139337Y0084869D01*
X0139301Y0084818D01*
X0139261Y0084769D01*
X0139219Y0084723D01*
X0139174Y0084679D01*
X0139126Y0084638D01*
X0139075Y0084600D01*
X0139023Y0084565D01*
X0138969Y0084534D01*
X0138912Y0084506D01*
X0138854Y0084481D01*
X0138795Y0084460D01*
X0138734Y0084443D01*
X0138673Y0084429D01*
X0138611Y0084420D01*
X0138548Y0084414D01*
X0138485Y0084412D01*
X0137463Y0084412D01*
X0137400Y0084414D01*
X0137337Y0084420D01*
X0137275Y0084429D01*
X0137214Y0084443D01*
X0137153Y0084460D01*
X0137094Y0084481D01*
X0137036Y0084506D01*
X0136979Y0084534D01*
X0136925Y0084565D01*
X0136873Y0084600D01*
X0136822Y0084638D01*
X0136774Y0084679D01*
X0136729Y0084723D01*
X0136687Y0084769D01*
X0136647Y0084818D01*
X0136611Y0084869D01*
X0136578Y0084923D01*
X0136548Y0084978D01*
X0136522Y0085036D01*
X0136499Y0085094D01*
X0136480Y0085154D01*
X0136465Y0085215D01*
X0136453Y0085277D01*
X0136445Y0085340D01*
X0136441Y0085403D01*
X0136441Y0085465D01*
X0136445Y0085528D01*
X0136453Y0085591D01*
X0136465Y0085653D01*
X0136480Y0085714D01*
X0136499Y0085774D01*
X0136522Y0085832D01*
X0136548Y0085890D01*
X0136578Y0085945D01*
X0136611Y0085999D01*
X0136647Y0086050D01*
X0136687Y0086099D01*
X0136729Y0086145D01*
X0136774Y0086189D01*
X0136822Y0086230D01*
X0136873Y0086268D01*
X0136925Y0086303D01*
X0136979Y0086334D01*
X0137036Y0086362D01*
X0137094Y0086387D01*
X0137153Y0086408D01*
X0137214Y0086425D01*
X0137275Y0086439D01*
X0137337Y0086448D01*
X0137400Y0086454D01*
X0137463Y0086456D01*
X0138996Y0082971D02*
X0139507Y0082971D01*
X0139507Y0081438D01*
X0136441Y0081438D01*
X0136441Y0078300D02*
X0136441Y0077023D01*
X0141041Y0077023D01*
X0141041Y0078300D01*
X0141040Y0078300D02*
X0141038Y0078363D01*
X0141032Y0078426D01*
X0141023Y0078488D01*
X0141009Y0078549D01*
X0140992Y0078610D01*
X0140971Y0078669D01*
X0140946Y0078727D01*
X0140918Y0078784D01*
X0140887Y0078838D01*
X0140852Y0078890D01*
X0140814Y0078941D01*
X0140773Y0078989D01*
X0140729Y0079034D01*
X0140683Y0079076D01*
X0140634Y0079116D01*
X0140583Y0079152D01*
X0140529Y0079185D01*
X0140474Y0079215D01*
X0140416Y0079241D01*
X0140358Y0079264D01*
X0140298Y0079283D01*
X0140237Y0079298D01*
X0140175Y0079310D01*
X0140112Y0079318D01*
X0140049Y0079322D01*
X0139987Y0079322D01*
X0139924Y0079318D01*
X0139861Y0079310D01*
X0139799Y0079298D01*
X0139738Y0079283D01*
X0139678Y0079264D01*
X0139620Y0079241D01*
X0139562Y0079215D01*
X0139507Y0079185D01*
X0139453Y0079152D01*
X0139402Y0079116D01*
X0139353Y0079076D01*
X0139307Y0079034D01*
X0139263Y0078989D01*
X0139222Y0078941D01*
X0139184Y0078890D01*
X0139149Y0078838D01*
X0139118Y0078784D01*
X0139090Y0078727D01*
X0139065Y0078669D01*
X0139044Y0078610D01*
X0139027Y0078549D01*
X0139013Y0078488D01*
X0139004Y0078426D01*
X0138998Y0078363D01*
X0138996Y0078300D01*
X0138996Y0077023D01*
X0138996Y0078300D02*
X0138994Y0078370D01*
X0138988Y0078441D01*
X0138979Y0078510D01*
X0138965Y0078579D01*
X0138948Y0078648D01*
X0138927Y0078715D01*
X0138902Y0078781D01*
X0138874Y0078845D01*
X0138842Y0078908D01*
X0138807Y0078969D01*
X0138768Y0079028D01*
X0138727Y0079085D01*
X0138682Y0079139D01*
X0138634Y0079191D01*
X0138584Y0079240D01*
X0138530Y0079287D01*
X0138475Y0079330D01*
X0138417Y0079370D01*
X0138357Y0079407D01*
X0138295Y0079440D01*
X0138231Y0079470D01*
X0138166Y0079497D01*
X0138100Y0079520D01*
X0138032Y0079539D01*
X0137963Y0079554D01*
X0137894Y0079566D01*
X0137824Y0079574D01*
X0137753Y0079578D01*
X0137683Y0079578D01*
X0137612Y0079574D01*
X0137542Y0079566D01*
X0137473Y0079554D01*
X0137404Y0079539D01*
X0137336Y0079520D01*
X0137270Y0079497D01*
X0137205Y0079470D01*
X0137141Y0079440D01*
X0137079Y0079407D01*
X0137019Y0079370D01*
X0136961Y0079330D01*
X0136906Y0079287D01*
X0136852Y0079240D01*
X0136802Y0079191D01*
X0136754Y0079139D01*
X0136709Y0079085D01*
X0136668Y0079028D01*
X0136629Y0078969D01*
X0136594Y0078908D01*
X0136562Y0078845D01*
X0136534Y0078781D01*
X0136509Y0078715D01*
X0136488Y0078648D01*
X0136471Y0078579D01*
X0136457Y0078510D01*
X0136448Y0078441D01*
X0136442Y0078370D01*
X0136440Y0078300D01*
X0142407Y0082763D02*
X0142407Y0083274D01*
X0147007Y0084807D01*
X0147007Y0082763D02*
X0143941Y0083785D01*
X0143941Y0079939D02*
X0147007Y0079939D01*
X0147007Y0081472D01*
X0146496Y0081472D01*
X0145985Y0077907D02*
X0144963Y0077907D01*
X0144900Y0077905D01*
X0144837Y0077899D01*
X0144775Y0077890D01*
X0144714Y0077876D01*
X0144653Y0077859D01*
X0144594Y0077838D01*
X0144536Y0077813D01*
X0144479Y0077785D01*
X0144425Y0077754D01*
X0144373Y0077719D01*
X0144322Y0077681D01*
X0144274Y0077640D01*
X0144229Y0077596D01*
X0144187Y0077550D01*
X0144147Y0077501D01*
X0144111Y0077450D01*
X0144078Y0077396D01*
X0144048Y0077341D01*
X0144022Y0077283D01*
X0143999Y0077225D01*
X0143980Y0077165D01*
X0143965Y0077104D01*
X0143953Y0077042D01*
X0143945Y0076979D01*
X0143941Y0076916D01*
X0143941Y0076854D01*
X0143945Y0076791D01*
X0143953Y0076728D01*
X0143965Y0076666D01*
X0143980Y0076605D01*
X0143999Y0076545D01*
X0144022Y0076487D01*
X0144048Y0076429D01*
X0144078Y0076374D01*
X0144111Y0076320D01*
X0144147Y0076269D01*
X0144187Y0076220D01*
X0144229Y0076174D01*
X0144274Y0076130D01*
X0144322Y0076089D01*
X0144373Y0076051D01*
X0144425Y0076016D01*
X0144479Y0075985D01*
X0144536Y0075957D01*
X0144594Y0075932D01*
X0144653Y0075911D01*
X0144714Y0075894D01*
X0144775Y0075880D01*
X0144837Y0075871D01*
X0144900Y0075865D01*
X0144963Y0075863D01*
X0145985Y0075863D01*
X0146048Y0075865D01*
X0146111Y0075871D01*
X0146173Y0075880D01*
X0146234Y0075894D01*
X0146295Y0075911D01*
X0146354Y0075932D01*
X0146412Y0075957D01*
X0146469Y0075985D01*
X0146523Y0076016D01*
X0146575Y0076051D01*
X0146626Y0076089D01*
X0146674Y0076130D01*
X0146719Y0076174D01*
X0146761Y0076220D01*
X0146801Y0076269D01*
X0146837Y0076320D01*
X0146870Y0076374D01*
X0146900Y0076429D01*
X0146926Y0076487D01*
X0146949Y0076545D01*
X0146968Y0076605D01*
X0146983Y0076666D01*
X0146995Y0076728D01*
X0147003Y0076791D01*
X0147007Y0076854D01*
X0147007Y0076916D01*
X0147003Y0076979D01*
X0146995Y0077042D01*
X0146983Y0077104D01*
X0146968Y0077165D01*
X0146949Y0077225D01*
X0146926Y0077283D01*
X0146900Y0077341D01*
X0146870Y0077396D01*
X0146837Y0077450D01*
X0146801Y0077501D01*
X0146761Y0077550D01*
X0146719Y0077596D01*
X0146674Y0077640D01*
X0146626Y0077681D01*
X0146575Y0077719D01*
X0146523Y0077754D01*
X0146469Y0077785D01*
X0146412Y0077813D01*
X0146354Y0077838D01*
X0146295Y0077859D01*
X0146234Y0077876D01*
X0146173Y0077890D01*
X0146111Y0077899D01*
X0146048Y0077905D01*
X0145985Y0077907D01*
X0143941Y0073992D02*
X0145985Y0072970D01*
X0145985Y0072714D02*
X0145985Y0071436D01*
X0145985Y0072714D02*
X0145987Y0072784D01*
X0145993Y0072855D01*
X0146002Y0072924D01*
X0146016Y0072993D01*
X0146033Y0073062D01*
X0146054Y0073129D01*
X0146079Y0073195D01*
X0146107Y0073259D01*
X0146139Y0073322D01*
X0146174Y0073383D01*
X0146213Y0073442D01*
X0146254Y0073499D01*
X0146299Y0073553D01*
X0146347Y0073605D01*
X0146397Y0073654D01*
X0146451Y0073701D01*
X0146506Y0073744D01*
X0146564Y0073784D01*
X0146624Y0073821D01*
X0146686Y0073854D01*
X0146750Y0073884D01*
X0146815Y0073911D01*
X0146881Y0073934D01*
X0146949Y0073953D01*
X0147018Y0073968D01*
X0147087Y0073980D01*
X0147157Y0073988D01*
X0147228Y0073992D01*
X0147298Y0073992D01*
X0147369Y0073988D01*
X0147439Y0073980D01*
X0147508Y0073968D01*
X0147577Y0073953D01*
X0147645Y0073934D01*
X0147711Y0073911D01*
X0147776Y0073884D01*
X0147840Y0073854D01*
X0147902Y0073821D01*
X0147962Y0073784D01*
X0148020Y0073744D01*
X0148075Y0073701D01*
X0148129Y0073654D01*
X0148179Y0073605D01*
X0148227Y0073553D01*
X0148272Y0073499D01*
X0148313Y0073442D01*
X0148352Y0073383D01*
X0148387Y0073322D01*
X0148419Y0073259D01*
X0148447Y0073195D01*
X0148472Y0073129D01*
X0148493Y0073062D01*
X0148510Y0072993D01*
X0148524Y0072924D01*
X0148533Y0072855D01*
X0148539Y0072784D01*
X0148541Y0072714D01*
X0148541Y0071436D01*
X0143941Y0071436D01*
X0143941Y0089107D02*
X0148541Y0089107D01*
X0146496Y0089107D02*
X0146496Y0091663D01*
X0148541Y0091663D02*
X0143941Y0091663D01*
X0143941Y0094584D02*
X0143941Y0095734D01*
X0146241Y0095734D01*
X0145729Y0095734D02*
X0145729Y0094584D01*
X0146241Y0095735D02*
X0146296Y0095733D01*
X0146350Y0095727D01*
X0146404Y0095717D01*
X0146457Y0095704D01*
X0146509Y0095687D01*
X0146560Y0095666D01*
X0146609Y0095641D01*
X0146656Y0095613D01*
X0146701Y0095582D01*
X0146743Y0095548D01*
X0146783Y0095510D01*
X0146821Y0095470D01*
X0146855Y0095428D01*
X0146886Y0095383D01*
X0146914Y0095336D01*
X0146939Y0095287D01*
X0146960Y0095236D01*
X0146977Y0095184D01*
X0146990Y0095131D01*
X0147000Y0095077D01*
X0147006Y0095023D01*
X0147008Y0094968D01*
X0147007Y0094968D02*
X0147007Y0093945D01*
X0145729Y0094584D02*
X0145727Y0094526D01*
X0145721Y0094467D01*
X0145712Y0094410D01*
X0145699Y0094353D01*
X0145682Y0094297D01*
X0145661Y0094242D01*
X0145637Y0094189D01*
X0145609Y0094137D01*
X0145578Y0094087D01*
X0145544Y0094040D01*
X0145507Y0093995D01*
X0145467Y0093952D01*
X0145424Y0093912D01*
X0145379Y0093875D01*
X0145332Y0093841D01*
X0145282Y0093810D01*
X0145230Y0093782D01*
X0145177Y0093758D01*
X0145122Y0093737D01*
X0145066Y0093720D01*
X0145009Y0093707D01*
X0144952Y0093698D01*
X0144893Y0093692D01*
X0144835Y0093690D01*
X0144777Y0093692D01*
X0144718Y0093698D01*
X0144661Y0093707D01*
X0144604Y0093720D01*
X0144548Y0093737D01*
X0144493Y0093758D01*
X0144440Y0093782D01*
X0144388Y0093810D01*
X0144338Y0093841D01*
X0144291Y0093875D01*
X0144246Y0093912D01*
X0144203Y0093952D01*
X0144163Y0093995D01*
X0144126Y0094040D01*
X0144092Y0094087D01*
X0144061Y0094137D01*
X0144033Y0094189D01*
X0144009Y0094242D01*
X0143988Y0094297D01*
X0143971Y0094353D01*
X0143958Y0094410D01*
X0143949Y0094467D01*
X0143943Y0094526D01*
X0143941Y0094584D01*
X0143941Y0097913D02*
X0147007Y0097913D01*
X0147007Y0099191D01*
X0147008Y0099191D02*
X0147006Y0099246D01*
X0147000Y0099300D01*
X0146990Y0099354D01*
X0146977Y0099407D01*
X0146960Y0099459D01*
X0146939Y0099510D01*
X0146914Y0099559D01*
X0146886Y0099606D01*
X0146855Y0099651D01*
X0146821Y0099693D01*
X0146783Y0099733D01*
X0146743Y0099771D01*
X0146701Y0099805D01*
X0146656Y0099836D01*
X0146609Y0099864D01*
X0146560Y0099889D01*
X0146509Y0099910D01*
X0146457Y0099927D01*
X0146404Y0099940D01*
X0146350Y0099950D01*
X0146296Y0099956D01*
X0146241Y0099958D01*
X0146241Y0099957D02*
X0143941Y0099957D01*
X0144707Y0101968D02*
X0146241Y0101968D01*
X0146296Y0101970D01*
X0146350Y0101976D01*
X0146404Y0101986D01*
X0146457Y0101999D01*
X0146509Y0102016D01*
X0146560Y0102037D01*
X0146609Y0102062D01*
X0146656Y0102090D01*
X0146701Y0102121D01*
X0146743Y0102155D01*
X0146783Y0102193D01*
X0146821Y0102233D01*
X0146855Y0102275D01*
X0146886Y0102320D01*
X0146914Y0102367D01*
X0146939Y0102416D01*
X0146960Y0102467D01*
X0146977Y0102519D01*
X0146990Y0102572D01*
X0147000Y0102626D01*
X0147006Y0102680D01*
X0147008Y0102735D01*
X0147007Y0102735D02*
X0147007Y0103757D01*
X0145985Y0105413D02*
X0144963Y0105413D01*
X0144900Y0105415D01*
X0144837Y0105421D01*
X0144775Y0105430D01*
X0144714Y0105444D01*
X0144653Y0105461D01*
X0144594Y0105482D01*
X0144536Y0105507D01*
X0144479Y0105535D01*
X0144425Y0105566D01*
X0144373Y0105601D01*
X0144322Y0105639D01*
X0144274Y0105680D01*
X0144229Y0105724D01*
X0144187Y0105770D01*
X0144147Y0105819D01*
X0144111Y0105870D01*
X0144078Y0105924D01*
X0144048Y0105979D01*
X0144022Y0106037D01*
X0143999Y0106095D01*
X0143980Y0106155D01*
X0143965Y0106216D01*
X0143953Y0106278D01*
X0143945Y0106341D01*
X0143941Y0106404D01*
X0143941Y0106466D01*
X0143945Y0106529D01*
X0143953Y0106592D01*
X0143965Y0106654D01*
X0143980Y0106715D01*
X0143999Y0106775D01*
X0144022Y0106833D01*
X0144048Y0106891D01*
X0144078Y0106946D01*
X0144111Y0107000D01*
X0144147Y0107051D01*
X0144187Y0107100D01*
X0144229Y0107146D01*
X0144274Y0107190D01*
X0144322Y0107231D01*
X0144373Y0107269D01*
X0144425Y0107304D01*
X0144479Y0107335D01*
X0144536Y0107363D01*
X0144594Y0107388D01*
X0144653Y0107409D01*
X0144714Y0107426D01*
X0144775Y0107440D01*
X0144837Y0107449D01*
X0144900Y0107455D01*
X0144963Y0107457D01*
X0145985Y0107457D01*
X0146048Y0107455D01*
X0146111Y0107449D01*
X0146173Y0107440D01*
X0146234Y0107426D01*
X0146295Y0107409D01*
X0146354Y0107388D01*
X0146412Y0107363D01*
X0146469Y0107335D01*
X0146523Y0107304D01*
X0146575Y0107269D01*
X0146626Y0107231D01*
X0146674Y0107190D01*
X0146719Y0107146D01*
X0146761Y0107100D01*
X0146801Y0107051D01*
X0146837Y0107000D01*
X0146870Y0106946D01*
X0146900Y0106891D01*
X0146926Y0106833D01*
X0146949Y0106775D01*
X0146968Y0106715D01*
X0146983Y0106654D01*
X0146995Y0106592D01*
X0147003Y0106529D01*
X0147007Y0106466D01*
X0147007Y0106404D01*
X0147003Y0106341D01*
X0146995Y0106278D01*
X0146983Y0106216D01*
X0146968Y0106155D01*
X0146949Y0106095D01*
X0146926Y0106037D01*
X0146900Y0105979D01*
X0146870Y0105924D01*
X0146837Y0105870D01*
X0146801Y0105819D01*
X0146761Y0105770D01*
X0146719Y0105724D01*
X0146674Y0105680D01*
X0146626Y0105639D01*
X0146575Y0105601D01*
X0146523Y0105566D01*
X0146469Y0105535D01*
X0146412Y0105507D01*
X0146354Y0105482D01*
X0146295Y0105461D01*
X0146234Y0105444D01*
X0146173Y0105430D01*
X0146111Y0105421D01*
X0146048Y0105415D01*
X0145985Y0105413D01*
X0143940Y0102735D02*
X0143942Y0102680D01*
X0143948Y0102626D01*
X0143958Y0102572D01*
X0143971Y0102519D01*
X0143988Y0102467D01*
X0144009Y0102416D01*
X0144034Y0102367D01*
X0144062Y0102320D01*
X0144093Y0102275D01*
X0144127Y0102233D01*
X0144165Y0102193D01*
X0144205Y0102155D01*
X0144247Y0102121D01*
X0144292Y0102090D01*
X0144339Y0102062D01*
X0144388Y0102037D01*
X0144439Y0102016D01*
X0144491Y0101999D01*
X0144544Y0101986D01*
X0144598Y0101976D01*
X0144652Y0101970D01*
X0144707Y0101968D01*
X0143941Y0102735D02*
X0143941Y0103757D01*
X0141041Y0099834D02*
X0141041Y0098556D01*
X0136441Y0098556D01*
X0136441Y0099834D01*
X0136440Y0099834D02*
X0136442Y0099903D01*
X0136447Y0099972D01*
X0136457Y0100041D01*
X0136470Y0100109D01*
X0136487Y0100176D01*
X0136507Y0100242D01*
X0136531Y0100307D01*
X0136558Y0100371D01*
X0136589Y0100433D01*
X0136623Y0100493D01*
X0136660Y0100551D01*
X0136701Y0100607D01*
X0136744Y0100661D01*
X0136790Y0100713D01*
X0136839Y0100762D01*
X0136891Y0100808D01*
X0136945Y0100851D01*
X0137001Y0100892D01*
X0137059Y0100929D01*
X0137119Y0100963D01*
X0137181Y0100994D01*
X0137245Y0101021D01*
X0137310Y0101045D01*
X0137376Y0101065D01*
X0137443Y0101082D01*
X0137511Y0101095D01*
X0137580Y0101105D01*
X0137649Y0101110D01*
X0137718Y0101112D01*
X0139763Y0101112D01*
X0139832Y0101110D01*
X0139901Y0101105D01*
X0139970Y0101095D01*
X0140038Y0101082D01*
X0140105Y0101065D01*
X0140171Y0101045D01*
X0140236Y0101021D01*
X0140300Y0100994D01*
X0140362Y0100963D01*
X0140422Y0100929D01*
X0140480Y0100892D01*
X0140536Y0100851D01*
X0140590Y0100808D01*
X0140642Y0100762D01*
X0140691Y0100713D01*
X0140737Y0100661D01*
X0140780Y0100607D01*
X0140821Y0100551D01*
X0140858Y0100493D01*
X0140892Y0100433D01*
X0140923Y0100371D01*
X0140950Y0100307D01*
X0140974Y0100242D01*
X0140994Y0100176D01*
X0141011Y0100109D01*
X0141024Y0100041D01*
X0141034Y0099972D01*
X0141039Y0099903D01*
X0141041Y0099834D01*
X0139507Y0103312D02*
X0137207Y0103312D01*
X0137207Y0103311D02*
X0137152Y0103313D01*
X0137098Y0103319D01*
X0137044Y0103329D01*
X0136991Y0103342D01*
X0136939Y0103359D01*
X0136888Y0103380D01*
X0136839Y0103405D01*
X0136792Y0103433D01*
X0136747Y0103464D01*
X0136705Y0103498D01*
X0136665Y0103536D01*
X0136627Y0103576D01*
X0136593Y0103618D01*
X0136562Y0103663D01*
X0136534Y0103710D01*
X0136509Y0103759D01*
X0136488Y0103810D01*
X0136471Y0103862D01*
X0136458Y0103915D01*
X0136448Y0103969D01*
X0136442Y0104023D01*
X0136440Y0104078D01*
X0136441Y0104078D02*
X0136441Y0105356D01*
X0139507Y0105356D01*
X0139507Y0107512D02*
X0136441Y0107512D01*
X0136441Y0109556D02*
X0138741Y0109556D01*
X0138796Y0109554D01*
X0138850Y0109548D01*
X0138904Y0109538D01*
X0138957Y0109525D01*
X0139009Y0109508D01*
X0139060Y0109487D01*
X0139109Y0109462D01*
X0139156Y0109434D01*
X0139201Y0109403D01*
X0139243Y0109369D01*
X0139283Y0109331D01*
X0139321Y0109291D01*
X0139355Y0109249D01*
X0139386Y0109204D01*
X0139414Y0109157D01*
X0139439Y0109108D01*
X0139460Y0109057D01*
X0139477Y0109005D01*
X0139490Y0108952D01*
X0139500Y0108898D01*
X0139506Y0108844D01*
X0139508Y0108789D01*
X0139507Y0108789D02*
X0139507Y0107512D01*
X0141041Y0111620D02*
X0137207Y0111620D01*
X0137152Y0111622D01*
X0137098Y0111628D01*
X0137044Y0111638D01*
X0136991Y0111651D01*
X0136939Y0111668D01*
X0136888Y0111689D01*
X0136839Y0111714D01*
X0136792Y0111742D01*
X0136747Y0111773D01*
X0136705Y0111807D01*
X0136665Y0111845D01*
X0136627Y0111885D01*
X0136593Y0111927D01*
X0136562Y0111972D01*
X0136534Y0112019D01*
X0136509Y0112068D01*
X0136488Y0112119D01*
X0136471Y0112171D01*
X0136458Y0112224D01*
X0136448Y0112278D01*
X0136442Y0112332D01*
X0136440Y0112387D01*
X0137463Y0113962D02*
X0138485Y0113962D01*
X0138548Y0113964D01*
X0138611Y0113970D01*
X0138673Y0113979D01*
X0138734Y0113993D01*
X0138795Y0114010D01*
X0138854Y0114031D01*
X0138912Y0114056D01*
X0138969Y0114084D01*
X0139023Y0114115D01*
X0139075Y0114150D01*
X0139126Y0114188D01*
X0139174Y0114229D01*
X0139219Y0114273D01*
X0139261Y0114319D01*
X0139301Y0114368D01*
X0139337Y0114419D01*
X0139370Y0114473D01*
X0139400Y0114528D01*
X0139426Y0114586D01*
X0139449Y0114644D01*
X0139468Y0114704D01*
X0139483Y0114765D01*
X0139495Y0114827D01*
X0139503Y0114890D01*
X0139507Y0114953D01*
X0139507Y0115015D01*
X0139503Y0115078D01*
X0139495Y0115141D01*
X0139483Y0115203D01*
X0139468Y0115264D01*
X0139449Y0115324D01*
X0139426Y0115382D01*
X0139400Y0115440D01*
X0139370Y0115495D01*
X0139337Y0115549D01*
X0139301Y0115600D01*
X0139261Y0115649D01*
X0139219Y0115695D01*
X0139174Y0115739D01*
X0139126Y0115780D01*
X0139075Y0115818D01*
X0139023Y0115853D01*
X0138969Y0115884D01*
X0138912Y0115912D01*
X0138854Y0115937D01*
X0138795Y0115958D01*
X0138734Y0115975D01*
X0138673Y0115989D01*
X0138611Y0115998D01*
X0138548Y0116004D01*
X0138485Y0116006D01*
X0137463Y0116006D01*
X0137400Y0116004D01*
X0137337Y0115998D01*
X0137275Y0115989D01*
X0137214Y0115975D01*
X0137153Y0115958D01*
X0137094Y0115937D01*
X0137036Y0115912D01*
X0136979Y0115884D01*
X0136925Y0115853D01*
X0136873Y0115818D01*
X0136822Y0115780D01*
X0136774Y0115739D01*
X0136729Y0115695D01*
X0136687Y0115649D01*
X0136647Y0115600D01*
X0136611Y0115549D01*
X0136578Y0115495D01*
X0136548Y0115440D01*
X0136522Y0115382D01*
X0136499Y0115324D01*
X0136480Y0115264D01*
X0136465Y0115203D01*
X0136453Y0115141D01*
X0136445Y0115078D01*
X0136441Y0115015D01*
X0136441Y0114953D01*
X0136445Y0114890D01*
X0136453Y0114827D01*
X0136465Y0114765D01*
X0136480Y0114704D01*
X0136499Y0114644D01*
X0136522Y0114586D01*
X0136548Y0114528D01*
X0136578Y0114473D01*
X0136611Y0114419D01*
X0136647Y0114368D01*
X0136687Y0114319D01*
X0136729Y0114273D01*
X0136774Y0114229D01*
X0136822Y0114188D01*
X0136873Y0114150D01*
X0136925Y0114115D01*
X0136979Y0114084D01*
X0137036Y0114056D01*
X0137094Y0114031D01*
X0137153Y0114010D01*
X0137214Y0113993D01*
X0137275Y0113979D01*
X0137337Y0113970D01*
X0137400Y0113964D01*
X0137463Y0113962D01*
X0136441Y0118035D02*
X0136441Y0119313D01*
X0136440Y0119313D02*
X0136442Y0119368D01*
X0136448Y0119422D01*
X0136458Y0119476D01*
X0136471Y0119529D01*
X0136488Y0119581D01*
X0136509Y0119632D01*
X0136534Y0119681D01*
X0136562Y0119728D01*
X0136593Y0119773D01*
X0136627Y0119815D01*
X0136665Y0119855D01*
X0136705Y0119893D01*
X0136747Y0119927D01*
X0136792Y0119958D01*
X0136839Y0119986D01*
X0136888Y0120011D01*
X0136939Y0120032D01*
X0136991Y0120049D01*
X0137044Y0120062D01*
X0137098Y0120072D01*
X0137152Y0120078D01*
X0137207Y0120080D01*
X0137207Y0120079D02*
X0138741Y0120079D01*
X0138741Y0120080D02*
X0138796Y0120078D01*
X0138850Y0120072D01*
X0138904Y0120062D01*
X0138957Y0120049D01*
X0139009Y0120032D01*
X0139060Y0120011D01*
X0139109Y0119986D01*
X0139156Y0119958D01*
X0139201Y0119927D01*
X0139243Y0119893D01*
X0139283Y0119855D01*
X0139321Y0119815D01*
X0139355Y0119773D01*
X0139386Y0119728D01*
X0139414Y0119681D01*
X0139439Y0119632D01*
X0139460Y0119581D01*
X0139477Y0119529D01*
X0139490Y0119476D01*
X0139500Y0119422D01*
X0139506Y0119368D01*
X0139508Y0119313D01*
X0139507Y0119313D02*
X0139507Y0118035D01*
X0134907Y0118035D01*
X0135674Y0124284D02*
X0141807Y0124284D01*
X0143941Y0125924D02*
X0148541Y0125924D01*
X0148541Y0127202D01*
X0148540Y0127202D02*
X0148538Y0127265D01*
X0148532Y0127328D01*
X0148523Y0127390D01*
X0148509Y0127451D01*
X0148492Y0127512D01*
X0148471Y0127571D01*
X0148446Y0127629D01*
X0148418Y0127686D01*
X0148387Y0127740D01*
X0148352Y0127792D01*
X0148314Y0127843D01*
X0148273Y0127891D01*
X0148229Y0127936D01*
X0148183Y0127978D01*
X0148134Y0128018D01*
X0148083Y0128054D01*
X0148029Y0128087D01*
X0147974Y0128117D01*
X0147916Y0128143D01*
X0147858Y0128166D01*
X0147798Y0128185D01*
X0147737Y0128200D01*
X0147675Y0128212D01*
X0147612Y0128220D01*
X0147549Y0128224D01*
X0147487Y0128224D01*
X0147424Y0128220D01*
X0147361Y0128212D01*
X0147299Y0128200D01*
X0147238Y0128185D01*
X0147178Y0128166D01*
X0147120Y0128143D01*
X0147062Y0128117D01*
X0147007Y0128087D01*
X0146953Y0128054D01*
X0146902Y0128018D01*
X0146853Y0127978D01*
X0146807Y0127936D01*
X0146763Y0127891D01*
X0146722Y0127843D01*
X0146684Y0127792D01*
X0146649Y0127740D01*
X0146618Y0127686D01*
X0146590Y0127629D01*
X0146565Y0127571D01*
X0146544Y0127512D01*
X0146527Y0127451D01*
X0146513Y0127390D01*
X0146504Y0127328D01*
X0146498Y0127265D01*
X0146496Y0127202D01*
X0146496Y0125924D01*
X0146496Y0127202D02*
X0146494Y0127272D01*
X0146488Y0127343D01*
X0146479Y0127412D01*
X0146465Y0127481D01*
X0146448Y0127550D01*
X0146427Y0127617D01*
X0146402Y0127683D01*
X0146374Y0127747D01*
X0146342Y0127810D01*
X0146307Y0127871D01*
X0146268Y0127930D01*
X0146227Y0127987D01*
X0146182Y0128041D01*
X0146134Y0128093D01*
X0146084Y0128142D01*
X0146030Y0128189D01*
X0145975Y0128232D01*
X0145917Y0128272D01*
X0145857Y0128309D01*
X0145795Y0128342D01*
X0145731Y0128372D01*
X0145666Y0128399D01*
X0145600Y0128422D01*
X0145532Y0128441D01*
X0145463Y0128456D01*
X0145394Y0128468D01*
X0145324Y0128476D01*
X0145253Y0128480D01*
X0145183Y0128480D01*
X0145112Y0128476D01*
X0145042Y0128468D01*
X0144973Y0128456D01*
X0144904Y0128441D01*
X0144836Y0128422D01*
X0144770Y0128399D01*
X0144705Y0128372D01*
X0144641Y0128342D01*
X0144579Y0128309D01*
X0144519Y0128272D01*
X0144461Y0128232D01*
X0144406Y0128189D01*
X0144352Y0128142D01*
X0144302Y0128093D01*
X0144254Y0128041D01*
X0144209Y0127987D01*
X0144168Y0127930D01*
X0144129Y0127871D01*
X0144094Y0127810D01*
X0144062Y0127747D01*
X0144034Y0127683D01*
X0144009Y0127617D01*
X0143988Y0127550D01*
X0143971Y0127481D01*
X0143957Y0127412D01*
X0143948Y0127343D01*
X0143942Y0127272D01*
X0143940Y0127202D01*
X0143941Y0127202D02*
X0143941Y0125924D01*
X0141041Y0128706D02*
X0141041Y0129984D01*
X0141041Y0128706D02*
X0136441Y0128706D01*
X0136441Y0129984D01*
X0136440Y0129984D02*
X0136442Y0130053D01*
X0136447Y0130122D01*
X0136457Y0130191D01*
X0136470Y0130259D01*
X0136487Y0130326D01*
X0136507Y0130392D01*
X0136531Y0130457D01*
X0136558Y0130521D01*
X0136589Y0130583D01*
X0136623Y0130643D01*
X0136660Y0130701D01*
X0136701Y0130757D01*
X0136744Y0130811D01*
X0136790Y0130863D01*
X0136839Y0130912D01*
X0136891Y0130958D01*
X0136945Y0131001D01*
X0137001Y0131042D01*
X0137059Y0131079D01*
X0137119Y0131113D01*
X0137181Y0131144D01*
X0137245Y0131171D01*
X0137310Y0131195D01*
X0137376Y0131215D01*
X0137443Y0131232D01*
X0137511Y0131245D01*
X0137580Y0131255D01*
X0137649Y0131260D01*
X0137718Y0131262D01*
X0139763Y0131262D01*
X0139832Y0131260D01*
X0139901Y0131255D01*
X0139970Y0131245D01*
X0140038Y0131232D01*
X0140105Y0131215D01*
X0140171Y0131195D01*
X0140236Y0131171D01*
X0140300Y0131144D01*
X0140362Y0131113D01*
X0140422Y0131079D01*
X0140480Y0131042D01*
X0140536Y0131001D01*
X0140590Y0130958D01*
X0140642Y0130912D01*
X0140691Y0130863D01*
X0140737Y0130811D01*
X0140780Y0130757D01*
X0140821Y0130701D01*
X0140858Y0130643D01*
X0140892Y0130583D01*
X0140923Y0130521D01*
X0140950Y0130457D01*
X0140974Y0130392D01*
X0140994Y0130326D01*
X0141011Y0130259D01*
X0141024Y0130191D01*
X0141034Y0130122D01*
X0141039Y0130053D01*
X0141041Y0129984D01*
X0139507Y0133544D02*
X0139507Y0134566D01*
X0139508Y0134566D02*
X0139506Y0134621D01*
X0139500Y0134675D01*
X0139490Y0134729D01*
X0139477Y0134782D01*
X0139460Y0134834D01*
X0139439Y0134885D01*
X0139414Y0134934D01*
X0139386Y0134981D01*
X0139355Y0135026D01*
X0139321Y0135068D01*
X0139283Y0135108D01*
X0139243Y0135146D01*
X0139201Y0135180D01*
X0139156Y0135211D01*
X0139109Y0135239D01*
X0139060Y0135264D01*
X0139009Y0135285D01*
X0138957Y0135302D01*
X0138904Y0135315D01*
X0138850Y0135325D01*
X0138796Y0135331D01*
X0138741Y0135333D01*
X0136441Y0135333D01*
X0136441Y0134183D01*
X0136443Y0134125D01*
X0136449Y0134066D01*
X0136458Y0134009D01*
X0136471Y0133952D01*
X0136488Y0133896D01*
X0136509Y0133841D01*
X0136533Y0133788D01*
X0136561Y0133736D01*
X0136592Y0133686D01*
X0136626Y0133639D01*
X0136663Y0133594D01*
X0136703Y0133551D01*
X0136746Y0133511D01*
X0136791Y0133474D01*
X0136838Y0133440D01*
X0136888Y0133409D01*
X0136940Y0133381D01*
X0136993Y0133357D01*
X0137048Y0133336D01*
X0137104Y0133319D01*
X0137161Y0133306D01*
X0137218Y0133297D01*
X0137277Y0133291D01*
X0137335Y0133289D01*
X0137393Y0133291D01*
X0137452Y0133297D01*
X0137509Y0133306D01*
X0137566Y0133319D01*
X0137622Y0133336D01*
X0137677Y0133357D01*
X0137730Y0133381D01*
X0137782Y0133409D01*
X0137832Y0133440D01*
X0137879Y0133474D01*
X0137924Y0133511D01*
X0137967Y0133551D01*
X0138007Y0133594D01*
X0138044Y0133639D01*
X0138078Y0133686D01*
X0138109Y0133736D01*
X0138137Y0133788D01*
X0138161Y0133841D01*
X0138182Y0133896D01*
X0138199Y0133952D01*
X0138212Y0134009D01*
X0138221Y0134066D01*
X0138227Y0134125D01*
X0138229Y0134183D01*
X0138229Y0135333D01*
X0139507Y0137212D02*
X0136441Y0138234D01*
X0139507Y0139256D01*
X0139507Y0140934D02*
X0136441Y0140934D01*
X0137207Y0142738D02*
X0138741Y0142738D01*
X0138796Y0142740D01*
X0138850Y0142746D01*
X0138904Y0142756D01*
X0138957Y0142769D01*
X0139009Y0142786D01*
X0139060Y0142807D01*
X0139109Y0142832D01*
X0139156Y0142860D01*
X0139201Y0142891D01*
X0139243Y0142925D01*
X0139283Y0142963D01*
X0139321Y0143003D01*
X0139355Y0143045D01*
X0139386Y0143090D01*
X0139414Y0143137D01*
X0139439Y0143186D01*
X0139460Y0143237D01*
X0139477Y0143289D01*
X0139490Y0143342D01*
X0139500Y0143396D01*
X0139506Y0143450D01*
X0139508Y0143505D01*
X0139507Y0143505D02*
X0139507Y0144783D01*
X0141041Y0144783D02*
X0136441Y0144783D01*
X0136441Y0143505D01*
X0136440Y0143505D02*
X0136442Y0143450D01*
X0136448Y0143396D01*
X0136458Y0143342D01*
X0136471Y0143289D01*
X0136488Y0143237D01*
X0136509Y0143186D01*
X0136534Y0143137D01*
X0136562Y0143090D01*
X0136593Y0143045D01*
X0136627Y0143003D01*
X0136665Y0142963D01*
X0136705Y0142925D01*
X0136747Y0142891D01*
X0136792Y0142860D01*
X0136839Y0142832D01*
X0136888Y0142807D01*
X0136939Y0142786D01*
X0136991Y0142769D01*
X0137044Y0142756D01*
X0137098Y0142746D01*
X0137152Y0142740D01*
X0137207Y0142738D01*
X0140785Y0141062D02*
X0140785Y0140806D01*
X0141041Y0140806D01*
X0141041Y0141062D01*
X0140785Y0141062D01*
X0143941Y0141280D02*
X0143941Y0142557D01*
X0143940Y0141280D02*
X0143942Y0141225D01*
X0143948Y0141171D01*
X0143958Y0141117D01*
X0143971Y0141064D01*
X0143988Y0141012D01*
X0144009Y0140961D01*
X0144034Y0140912D01*
X0144062Y0140865D01*
X0144093Y0140820D01*
X0144127Y0140778D01*
X0144165Y0140738D01*
X0144205Y0140700D01*
X0144247Y0140666D01*
X0144292Y0140635D01*
X0144339Y0140607D01*
X0144388Y0140582D01*
X0144439Y0140561D01*
X0144491Y0140544D01*
X0144544Y0140531D01*
X0144598Y0140521D01*
X0144652Y0140515D01*
X0144707Y0140513D01*
X0145985Y0140513D01*
X0145474Y0140513D02*
X0145474Y0142557D01*
X0145985Y0142557D01*
X0146048Y0142555D01*
X0146111Y0142549D01*
X0146173Y0142540D01*
X0146234Y0142526D01*
X0146295Y0142509D01*
X0146354Y0142488D01*
X0146412Y0142463D01*
X0146469Y0142435D01*
X0146523Y0142404D01*
X0146575Y0142369D01*
X0146626Y0142331D01*
X0146674Y0142290D01*
X0146719Y0142246D01*
X0146761Y0142200D01*
X0146801Y0142151D01*
X0146837Y0142100D01*
X0146870Y0142046D01*
X0146900Y0141991D01*
X0146926Y0141933D01*
X0146949Y0141875D01*
X0146968Y0141815D01*
X0146983Y0141754D01*
X0146995Y0141692D01*
X0147003Y0141629D01*
X0147007Y0141566D01*
X0147007Y0141504D01*
X0147003Y0141441D01*
X0146995Y0141378D01*
X0146983Y0141316D01*
X0146968Y0141255D01*
X0146949Y0141195D01*
X0146926Y0141137D01*
X0146900Y0141079D01*
X0146870Y0141024D01*
X0146837Y0140970D01*
X0146801Y0140919D01*
X0146761Y0140870D01*
X0146719Y0140824D01*
X0146674Y0140780D01*
X0146626Y0140739D01*
X0146575Y0140701D01*
X0146523Y0140666D01*
X0146469Y0140635D01*
X0146412Y0140607D01*
X0146354Y0140582D01*
X0146295Y0140561D01*
X0146234Y0140544D01*
X0146173Y0140530D01*
X0146111Y0140521D01*
X0146048Y0140515D01*
X0145985Y0140513D01*
X0147007Y0138861D02*
X0145474Y0136816D01*
X0146113Y0137711D02*
X0143941Y0138861D01*
X0143941Y0136816D02*
X0148541Y0136816D01*
X0146241Y0134584D02*
X0143941Y0134584D01*
X0143941Y0133434D01*
X0143943Y0133376D01*
X0143949Y0133317D01*
X0143958Y0133260D01*
X0143971Y0133203D01*
X0143988Y0133147D01*
X0144009Y0133092D01*
X0144033Y0133039D01*
X0144061Y0132987D01*
X0144092Y0132937D01*
X0144126Y0132890D01*
X0144163Y0132845D01*
X0144203Y0132802D01*
X0144246Y0132762D01*
X0144291Y0132725D01*
X0144338Y0132691D01*
X0144388Y0132660D01*
X0144440Y0132632D01*
X0144493Y0132608D01*
X0144548Y0132587D01*
X0144604Y0132570D01*
X0144661Y0132557D01*
X0144718Y0132548D01*
X0144777Y0132542D01*
X0144835Y0132540D01*
X0144893Y0132542D01*
X0144952Y0132548D01*
X0145009Y0132557D01*
X0145066Y0132570D01*
X0145122Y0132587D01*
X0145177Y0132608D01*
X0145230Y0132632D01*
X0145282Y0132660D01*
X0145332Y0132691D01*
X0145379Y0132725D01*
X0145424Y0132762D01*
X0145467Y0132802D01*
X0145507Y0132845D01*
X0145544Y0132890D01*
X0145578Y0132937D01*
X0145609Y0132987D01*
X0145637Y0133039D01*
X0145661Y0133092D01*
X0145682Y0133147D01*
X0145699Y0133203D01*
X0145712Y0133260D01*
X0145721Y0133317D01*
X0145727Y0133376D01*
X0145729Y0133434D01*
X0145729Y0134584D01*
X0146241Y0134584D02*
X0146296Y0134582D01*
X0146350Y0134576D01*
X0146404Y0134566D01*
X0146457Y0134553D01*
X0146509Y0134536D01*
X0146560Y0134515D01*
X0146609Y0134490D01*
X0146656Y0134462D01*
X0146701Y0134431D01*
X0146743Y0134397D01*
X0146783Y0134359D01*
X0146821Y0134319D01*
X0146855Y0134277D01*
X0146886Y0134232D01*
X0146914Y0134185D01*
X0146939Y0134136D01*
X0146960Y0134085D01*
X0146977Y0134033D01*
X0146990Y0133980D01*
X0147000Y0133926D01*
X0147006Y0133872D01*
X0147008Y0133817D01*
X0147007Y0133817D02*
X0147007Y0132795D01*
X0144707Y0130221D02*
X0144652Y0130223D01*
X0144598Y0130229D01*
X0144544Y0130239D01*
X0144491Y0130252D01*
X0144439Y0130269D01*
X0144388Y0130290D01*
X0144339Y0130315D01*
X0144292Y0130343D01*
X0144247Y0130374D01*
X0144205Y0130408D01*
X0144165Y0130446D01*
X0144127Y0130486D01*
X0144093Y0130528D01*
X0144062Y0130573D01*
X0144034Y0130620D01*
X0144009Y0130669D01*
X0143988Y0130720D01*
X0143971Y0130772D01*
X0143958Y0130825D01*
X0143948Y0130879D01*
X0143942Y0130933D01*
X0143940Y0130988D01*
X0144707Y0130222D02*
X0148541Y0130222D01*
X0149307Y0121435D02*
X0143174Y0121435D01*
X0143941Y0115011D02*
X0146113Y0113861D01*
X0145474Y0112966D02*
X0147007Y0115011D01*
X0148541Y0112966D02*
X0143941Y0112966D01*
X0143941Y0111107D02*
X0143941Y0110085D01*
X0143940Y0110085D02*
X0143942Y0110030D01*
X0143948Y0109976D01*
X0143958Y0109922D01*
X0143971Y0109869D01*
X0143988Y0109817D01*
X0144009Y0109766D01*
X0144034Y0109717D01*
X0144062Y0109670D01*
X0144093Y0109625D01*
X0144127Y0109583D01*
X0144165Y0109543D01*
X0144205Y0109505D01*
X0144247Y0109471D01*
X0144292Y0109440D01*
X0144339Y0109412D01*
X0144388Y0109387D01*
X0144439Y0109366D01*
X0144491Y0109349D01*
X0144544Y0109336D01*
X0144598Y0109326D01*
X0144652Y0109320D01*
X0144707Y0109318D01*
X0146241Y0109318D01*
X0146296Y0109320D01*
X0146350Y0109326D01*
X0146404Y0109336D01*
X0146457Y0109349D01*
X0146509Y0109366D01*
X0146560Y0109387D01*
X0146609Y0109412D01*
X0146656Y0109440D01*
X0146701Y0109471D01*
X0146743Y0109505D01*
X0146783Y0109543D01*
X0146821Y0109583D01*
X0146855Y0109625D01*
X0146886Y0109670D01*
X0146914Y0109717D01*
X0146939Y0109766D01*
X0146960Y0109817D01*
X0146977Y0109869D01*
X0146990Y0109922D01*
X0147000Y0109976D01*
X0147006Y0110030D01*
X0147008Y0110085D01*
X0147007Y0110085D02*
X0147007Y0111107D01*
X0159149Y0112802D02*
X0159149Y0113824D01*
X0159149Y0112802D02*
X0159151Y0112740D01*
X0159156Y0112679D01*
X0159166Y0112618D01*
X0159179Y0112557D01*
X0159195Y0112498D01*
X0159215Y0112440D01*
X0159239Y0112383D01*
X0159266Y0112327D01*
X0159296Y0112273D01*
X0159330Y0112221D01*
X0159366Y0112172D01*
X0159406Y0112124D01*
X0159448Y0112079D01*
X0159493Y0112037D01*
X0159541Y0111997D01*
X0159590Y0111961D01*
X0159642Y0111927D01*
X0159696Y0111897D01*
X0159752Y0111870D01*
X0159809Y0111846D01*
X0159867Y0111826D01*
X0159926Y0111810D01*
X0159987Y0111797D01*
X0160048Y0111787D01*
X0160109Y0111782D01*
X0160171Y0111780D01*
X0162727Y0111780D01*
X0162789Y0111782D01*
X0162850Y0111787D01*
X0162911Y0111797D01*
X0162972Y0111810D01*
X0163031Y0111826D01*
X0163089Y0111846D01*
X0163146Y0111870D01*
X0163202Y0111897D01*
X0163256Y0111927D01*
X0163308Y0111961D01*
X0163357Y0111997D01*
X0163405Y0112037D01*
X0163450Y0112079D01*
X0163492Y0112124D01*
X0163531Y0112172D01*
X0163568Y0112221D01*
X0163602Y0112273D01*
X0163632Y0112327D01*
X0163659Y0112383D01*
X0163683Y0112440D01*
X0163703Y0112498D01*
X0163719Y0112557D01*
X0163732Y0112618D01*
X0163742Y0112679D01*
X0163747Y0112740D01*
X0163749Y0112802D01*
X0163749Y0113824D01*
X0162216Y0115731D02*
X0162216Y0116753D01*
X0162214Y0116808D01*
X0162208Y0116862D01*
X0162198Y0116916D01*
X0162185Y0116969D01*
X0162168Y0117021D01*
X0162147Y0117072D01*
X0162122Y0117121D01*
X0162094Y0117168D01*
X0162063Y0117213D01*
X0162029Y0117255D01*
X0161991Y0117295D01*
X0161951Y0117333D01*
X0161909Y0117367D01*
X0161864Y0117398D01*
X0161817Y0117426D01*
X0161768Y0117451D01*
X0161717Y0117472D01*
X0161665Y0117489D01*
X0161612Y0117502D01*
X0161558Y0117512D01*
X0161504Y0117518D01*
X0161449Y0117520D01*
X0159149Y0117520D01*
X0159149Y0116370D01*
X0159150Y0116370D02*
X0159152Y0116312D01*
X0159158Y0116253D01*
X0159167Y0116196D01*
X0159180Y0116139D01*
X0159197Y0116083D01*
X0159218Y0116028D01*
X0159242Y0115975D01*
X0159270Y0115923D01*
X0159301Y0115873D01*
X0159335Y0115826D01*
X0159372Y0115781D01*
X0159412Y0115738D01*
X0159455Y0115698D01*
X0159500Y0115661D01*
X0159547Y0115627D01*
X0159597Y0115596D01*
X0159649Y0115568D01*
X0159702Y0115544D01*
X0159757Y0115523D01*
X0159813Y0115506D01*
X0159870Y0115493D01*
X0159927Y0115484D01*
X0159986Y0115478D01*
X0160044Y0115476D01*
X0160102Y0115478D01*
X0160161Y0115484D01*
X0160218Y0115493D01*
X0160275Y0115506D01*
X0160331Y0115523D01*
X0160386Y0115544D01*
X0160439Y0115568D01*
X0160491Y0115596D01*
X0160541Y0115627D01*
X0160588Y0115661D01*
X0160633Y0115698D01*
X0160676Y0115738D01*
X0160716Y0115781D01*
X0160753Y0115826D01*
X0160787Y0115873D01*
X0160818Y0115923D01*
X0160846Y0115975D01*
X0160870Y0116028D01*
X0160891Y0116083D01*
X0160908Y0116139D01*
X0160921Y0116196D01*
X0160930Y0116253D01*
X0160936Y0116312D01*
X0160938Y0116370D01*
X0160938Y0117520D01*
X0162216Y0119722D02*
X0162216Y0121000D01*
X0162214Y0121055D01*
X0162208Y0121109D01*
X0162198Y0121163D01*
X0162185Y0121216D01*
X0162168Y0121268D01*
X0162147Y0121319D01*
X0162122Y0121368D01*
X0162094Y0121415D01*
X0162063Y0121460D01*
X0162029Y0121502D01*
X0161991Y0121542D01*
X0161951Y0121580D01*
X0161909Y0121614D01*
X0161864Y0121645D01*
X0161817Y0121673D01*
X0161768Y0121698D01*
X0161717Y0121719D01*
X0161665Y0121736D01*
X0161612Y0121749D01*
X0161558Y0121759D01*
X0161504Y0121765D01*
X0161449Y0121767D01*
X0161449Y0121766D02*
X0159916Y0121766D01*
X0159916Y0121767D02*
X0159861Y0121765D01*
X0159807Y0121759D01*
X0159753Y0121749D01*
X0159700Y0121736D01*
X0159648Y0121719D01*
X0159597Y0121698D01*
X0159548Y0121673D01*
X0159501Y0121645D01*
X0159456Y0121614D01*
X0159414Y0121580D01*
X0159374Y0121542D01*
X0159336Y0121502D01*
X0159302Y0121460D01*
X0159271Y0121415D01*
X0159243Y0121368D01*
X0159218Y0121319D01*
X0159197Y0121268D01*
X0159180Y0121216D01*
X0159167Y0121163D01*
X0159157Y0121109D01*
X0159151Y0121055D01*
X0159149Y0121000D01*
X0159149Y0119722D01*
X0157616Y0119722D02*
X0162216Y0119722D01*
X0160938Y0123982D02*
X0160427Y0125260D01*
X0160428Y0125260D02*
X0160407Y0125307D01*
X0160382Y0125352D01*
X0160355Y0125395D01*
X0160324Y0125435D01*
X0160290Y0125474D01*
X0160253Y0125509D01*
X0160214Y0125542D01*
X0160172Y0125571D01*
X0160128Y0125597D01*
X0160082Y0125620D01*
X0160035Y0125639D01*
X0159986Y0125654D01*
X0159936Y0125665D01*
X0159885Y0125673D01*
X0159834Y0125677D01*
X0159783Y0125676D01*
X0159732Y0125672D01*
X0159682Y0125664D01*
X0159632Y0125652D01*
X0159584Y0125636D01*
X0159536Y0125617D01*
X0159491Y0125594D01*
X0159447Y0125568D01*
X0159406Y0125538D01*
X0159366Y0125505D01*
X0159330Y0125469D01*
X0159296Y0125431D01*
X0159266Y0125390D01*
X0159238Y0125347D01*
X0159215Y0125301D01*
X0159194Y0125254D01*
X0159177Y0125206D01*
X0159165Y0125157D01*
X0159155Y0125106D01*
X0159150Y0125056D01*
X0159149Y0125005D01*
X0161960Y0125387D02*
X0161999Y0125297D01*
X0162035Y0125204D01*
X0162068Y0125111D01*
X0162097Y0125017D01*
X0162124Y0124922D01*
X0162147Y0124826D01*
X0162167Y0124729D01*
X0162183Y0124631D01*
X0162196Y0124533D01*
X0162206Y0124435D01*
X0162213Y0124336D01*
X0162216Y0124237D01*
X0162215Y0124186D01*
X0162210Y0124136D01*
X0162200Y0124085D01*
X0162188Y0124036D01*
X0162171Y0123988D01*
X0162150Y0123941D01*
X0162127Y0123895D01*
X0162099Y0123852D01*
X0162069Y0123811D01*
X0162035Y0123773D01*
X0161999Y0123737D01*
X0161959Y0123704D01*
X0161918Y0123674D01*
X0161874Y0123648D01*
X0161829Y0123625D01*
X0161781Y0123606D01*
X0161733Y0123590D01*
X0161683Y0123578D01*
X0161633Y0123570D01*
X0161582Y0123566D01*
X0161531Y0123565D01*
X0161480Y0123569D01*
X0161429Y0123577D01*
X0161379Y0123588D01*
X0161330Y0123603D01*
X0161283Y0123622D01*
X0161237Y0123645D01*
X0161193Y0123671D01*
X0161151Y0123700D01*
X0161112Y0123733D01*
X0161075Y0123768D01*
X0161041Y0123807D01*
X0161010Y0123847D01*
X0160983Y0123890D01*
X0160958Y0123935D01*
X0160937Y0123982D01*
X0162216Y0127118D02*
X0162216Y0128651D01*
X0163749Y0127629D02*
X0159916Y0127629D01*
X0159916Y0127628D02*
X0159861Y0127630D01*
X0159807Y0127636D01*
X0159753Y0127646D01*
X0159700Y0127659D01*
X0159648Y0127676D01*
X0159597Y0127697D01*
X0159548Y0127722D01*
X0159501Y0127750D01*
X0159456Y0127781D01*
X0159414Y0127815D01*
X0159374Y0127853D01*
X0159336Y0127893D01*
X0159302Y0127935D01*
X0159271Y0127980D01*
X0159243Y0128027D01*
X0159218Y0128076D01*
X0159197Y0128127D01*
X0159180Y0128179D01*
X0159167Y0128232D01*
X0159157Y0128286D01*
X0159151Y0128340D01*
X0159149Y0128395D01*
X0159149Y0128651D01*
X0160171Y0130349D02*
X0161194Y0130349D01*
X0161257Y0130351D01*
X0161320Y0130357D01*
X0161382Y0130366D01*
X0161443Y0130380D01*
X0161504Y0130397D01*
X0161563Y0130418D01*
X0161621Y0130443D01*
X0161678Y0130471D01*
X0161732Y0130502D01*
X0161784Y0130537D01*
X0161835Y0130575D01*
X0161883Y0130616D01*
X0161928Y0130660D01*
X0161970Y0130706D01*
X0162010Y0130755D01*
X0162046Y0130806D01*
X0162079Y0130860D01*
X0162109Y0130915D01*
X0162135Y0130973D01*
X0162158Y0131031D01*
X0162177Y0131091D01*
X0162192Y0131152D01*
X0162204Y0131214D01*
X0162212Y0131277D01*
X0162216Y0131340D01*
X0162216Y0131402D01*
X0162212Y0131465D01*
X0162204Y0131528D01*
X0162192Y0131590D01*
X0162177Y0131651D01*
X0162158Y0131711D01*
X0162135Y0131769D01*
X0162109Y0131827D01*
X0162079Y0131882D01*
X0162046Y0131936D01*
X0162010Y0131987D01*
X0161970Y0132036D01*
X0161928Y0132082D01*
X0161883Y0132126D01*
X0161835Y0132167D01*
X0161784Y0132205D01*
X0161732Y0132240D01*
X0161678Y0132271D01*
X0161621Y0132299D01*
X0161563Y0132324D01*
X0161504Y0132345D01*
X0161443Y0132362D01*
X0161382Y0132376D01*
X0161320Y0132385D01*
X0161257Y0132391D01*
X0161194Y0132393D01*
X0160171Y0132393D01*
X0160108Y0132391D01*
X0160045Y0132385D01*
X0159983Y0132376D01*
X0159922Y0132362D01*
X0159861Y0132345D01*
X0159802Y0132324D01*
X0159744Y0132299D01*
X0159687Y0132271D01*
X0159633Y0132240D01*
X0159581Y0132205D01*
X0159530Y0132167D01*
X0159482Y0132126D01*
X0159437Y0132082D01*
X0159395Y0132036D01*
X0159355Y0131987D01*
X0159319Y0131936D01*
X0159286Y0131882D01*
X0159256Y0131827D01*
X0159230Y0131769D01*
X0159207Y0131711D01*
X0159188Y0131651D01*
X0159173Y0131590D01*
X0159161Y0131528D01*
X0159153Y0131465D01*
X0159149Y0131402D01*
X0159149Y0131340D01*
X0159153Y0131277D01*
X0159161Y0131214D01*
X0159173Y0131152D01*
X0159188Y0131091D01*
X0159207Y0131031D01*
X0159230Y0130973D01*
X0159256Y0130915D01*
X0159286Y0130860D01*
X0159319Y0130806D01*
X0159355Y0130755D01*
X0159395Y0130706D01*
X0159437Y0130660D01*
X0159482Y0130616D01*
X0159530Y0130575D01*
X0159581Y0130537D01*
X0159633Y0130502D01*
X0159687Y0130471D01*
X0159744Y0130443D01*
X0159802Y0130418D01*
X0159861Y0130397D01*
X0159922Y0130380D01*
X0159983Y0130366D01*
X0160045Y0130357D01*
X0160108Y0130351D01*
X0160171Y0130349D01*
X0159149Y0134399D02*
X0162216Y0134399D01*
X0162216Y0135676D01*
X0162214Y0135731D01*
X0162208Y0135785D01*
X0162198Y0135839D01*
X0162185Y0135892D01*
X0162168Y0135944D01*
X0162147Y0135995D01*
X0162122Y0136044D01*
X0162094Y0136091D01*
X0162063Y0136136D01*
X0162029Y0136178D01*
X0161991Y0136218D01*
X0161951Y0136256D01*
X0161909Y0136290D01*
X0161864Y0136321D01*
X0161817Y0136349D01*
X0161768Y0136374D01*
X0161717Y0136395D01*
X0161665Y0136412D01*
X0161612Y0136425D01*
X0161558Y0136435D01*
X0161504Y0136441D01*
X0161449Y0136443D01*
X0159149Y0136443D01*
X0159916Y0138449D02*
X0161194Y0138449D01*
X0160683Y0138449D02*
X0160683Y0140493D01*
X0161194Y0140493D01*
X0161257Y0140491D01*
X0161320Y0140485D01*
X0161382Y0140476D01*
X0161443Y0140462D01*
X0161504Y0140445D01*
X0161563Y0140424D01*
X0161621Y0140399D01*
X0161678Y0140371D01*
X0161732Y0140340D01*
X0161784Y0140305D01*
X0161835Y0140267D01*
X0161883Y0140226D01*
X0161928Y0140182D01*
X0161970Y0140136D01*
X0162010Y0140087D01*
X0162046Y0140036D01*
X0162079Y0139982D01*
X0162109Y0139927D01*
X0162135Y0139869D01*
X0162158Y0139811D01*
X0162177Y0139751D01*
X0162192Y0139690D01*
X0162204Y0139628D01*
X0162212Y0139565D01*
X0162216Y0139502D01*
X0162216Y0139440D01*
X0162212Y0139377D01*
X0162204Y0139314D01*
X0162192Y0139252D01*
X0162177Y0139191D01*
X0162158Y0139131D01*
X0162135Y0139073D01*
X0162109Y0139015D01*
X0162079Y0138960D01*
X0162046Y0138906D01*
X0162010Y0138855D01*
X0161970Y0138806D01*
X0161928Y0138760D01*
X0161883Y0138716D01*
X0161835Y0138675D01*
X0161784Y0138637D01*
X0161732Y0138602D01*
X0161678Y0138571D01*
X0161621Y0138543D01*
X0161563Y0138518D01*
X0161504Y0138497D01*
X0161443Y0138480D01*
X0161382Y0138466D01*
X0161320Y0138457D01*
X0161257Y0138451D01*
X0161194Y0138449D01*
X0159916Y0138448D02*
X0159861Y0138450D01*
X0159807Y0138456D01*
X0159753Y0138466D01*
X0159700Y0138479D01*
X0159648Y0138496D01*
X0159597Y0138517D01*
X0159548Y0138542D01*
X0159501Y0138570D01*
X0159456Y0138601D01*
X0159414Y0138635D01*
X0159374Y0138673D01*
X0159336Y0138713D01*
X0159302Y0138755D01*
X0159271Y0138800D01*
X0159243Y0138847D01*
X0159218Y0138896D01*
X0159197Y0138947D01*
X0159180Y0138999D01*
X0159167Y0139052D01*
X0159157Y0139106D01*
X0159151Y0139160D01*
X0159149Y0139215D01*
X0159149Y0140493D01*
X0159149Y0144793D02*
X0159149Y0147349D01*
X0160171Y0149549D02*
X0162727Y0151593D01*
X0163111Y0151466D02*
X0163166Y0151445D01*
X0163219Y0151421D01*
X0163271Y0151394D01*
X0163321Y0151363D01*
X0163369Y0151330D01*
X0163415Y0151293D01*
X0163459Y0151254D01*
X0163500Y0151212D01*
X0163538Y0151168D01*
X0163574Y0151121D01*
X0163606Y0151072D01*
X0163636Y0151021D01*
X0163662Y0150969D01*
X0163685Y0150915D01*
X0163705Y0150860D01*
X0163721Y0150803D01*
X0163734Y0150746D01*
X0163743Y0150688D01*
X0163748Y0150630D01*
X0163750Y0150571D01*
X0163748Y0150512D01*
X0163743Y0150454D01*
X0163734Y0150396D01*
X0163721Y0150339D01*
X0163705Y0150282D01*
X0163685Y0150227D01*
X0163662Y0150173D01*
X0163636Y0150121D01*
X0163606Y0150070D01*
X0163574Y0150021D01*
X0163538Y0149974D01*
X0163500Y0149930D01*
X0163459Y0149888D01*
X0163415Y0149849D01*
X0163369Y0149812D01*
X0163321Y0149779D01*
X0163271Y0149748D01*
X0163219Y0149721D01*
X0163166Y0149697D01*
X0163111Y0149676D01*
X0163110Y0151466D02*
X0163006Y0151514D01*
X0162901Y0151560D01*
X0162795Y0151602D01*
X0162687Y0151641D01*
X0162578Y0151677D01*
X0162468Y0151709D01*
X0162357Y0151739D01*
X0162245Y0151764D01*
X0162133Y0151787D01*
X0162020Y0151806D01*
X0161906Y0151821D01*
X0161792Y0151833D01*
X0161678Y0151842D01*
X0161564Y0151847D01*
X0161449Y0151849D01*
X0161449Y0149293D02*
X0161564Y0149295D01*
X0161678Y0149300D01*
X0161792Y0149309D01*
X0161906Y0149321D01*
X0162020Y0149336D01*
X0162133Y0149355D01*
X0162245Y0149378D01*
X0162357Y0149403D01*
X0162468Y0149433D01*
X0162578Y0149465D01*
X0162687Y0149501D01*
X0162795Y0149540D01*
X0162901Y0149582D01*
X0163006Y0149628D01*
X0163110Y0149676D01*
X0161449Y0151849D02*
X0161334Y0151847D01*
X0161220Y0151842D01*
X0161106Y0151833D01*
X0160992Y0151821D01*
X0160878Y0151806D01*
X0160765Y0151787D01*
X0160653Y0151764D01*
X0160541Y0151739D01*
X0160430Y0151709D01*
X0160320Y0151677D01*
X0160211Y0151641D01*
X0160103Y0151602D01*
X0159997Y0151560D01*
X0159892Y0151514D01*
X0159788Y0151466D01*
X0159733Y0151445D01*
X0159680Y0151421D01*
X0159628Y0151394D01*
X0159578Y0151363D01*
X0159530Y0151330D01*
X0159484Y0151293D01*
X0159440Y0151254D01*
X0159399Y0151212D01*
X0159361Y0151168D01*
X0159325Y0151121D01*
X0159293Y0151072D01*
X0159263Y0151021D01*
X0159237Y0150969D01*
X0159214Y0150915D01*
X0159194Y0150860D01*
X0159178Y0150803D01*
X0159165Y0150746D01*
X0159156Y0150688D01*
X0159151Y0150630D01*
X0159149Y0150571D01*
X0159151Y0150512D01*
X0159156Y0150454D01*
X0159165Y0150396D01*
X0159178Y0150339D01*
X0159194Y0150282D01*
X0159214Y0150227D01*
X0159237Y0150173D01*
X0159263Y0150121D01*
X0159293Y0150070D01*
X0159325Y0150021D01*
X0159361Y0149974D01*
X0159399Y0149930D01*
X0159440Y0149888D01*
X0159484Y0149849D01*
X0159530Y0149812D01*
X0159578Y0149779D01*
X0159628Y0149748D01*
X0159680Y0149721D01*
X0159733Y0149697D01*
X0159788Y0149676D01*
X0161705Y0146965D02*
X0159149Y0144793D01*
X0162727Y0144794D02*
X0162797Y0144819D01*
X0162866Y0144847D01*
X0162933Y0144878D01*
X0162999Y0144913D01*
X0163062Y0144951D01*
X0163124Y0144993D01*
X0163184Y0145037D01*
X0163241Y0145084D01*
X0163296Y0145134D01*
X0163348Y0145187D01*
X0163398Y0145243D01*
X0163444Y0145301D01*
X0163488Y0145361D01*
X0163529Y0145423D01*
X0163566Y0145487D01*
X0163600Y0145553D01*
X0163631Y0145621D01*
X0163658Y0145690D01*
X0163682Y0145760D01*
X0163703Y0145831D01*
X0163719Y0145904D01*
X0163732Y0145977D01*
X0163742Y0146051D01*
X0163747Y0146125D01*
X0163749Y0146199D01*
X0163747Y0146266D01*
X0163741Y0146333D01*
X0163732Y0146399D01*
X0163718Y0146464D01*
X0163701Y0146529D01*
X0163680Y0146592D01*
X0163655Y0146654D01*
X0163627Y0146715D01*
X0163595Y0146774D01*
X0163560Y0146831D01*
X0163521Y0146886D01*
X0163480Y0146938D01*
X0163435Y0146988D01*
X0163388Y0147035D01*
X0163338Y0147080D01*
X0163286Y0147121D01*
X0163231Y0147160D01*
X0163174Y0147195D01*
X0163115Y0147227D01*
X0163054Y0147255D01*
X0162992Y0147280D01*
X0162929Y0147301D01*
X0162864Y0147318D01*
X0162799Y0147332D01*
X0162733Y0147341D01*
X0162666Y0147347D01*
X0162599Y0147349D01*
X0162599Y0147348D02*
X0162532Y0147346D01*
X0162466Y0147341D01*
X0162400Y0147332D01*
X0162334Y0147319D01*
X0162270Y0147303D01*
X0162206Y0147284D01*
X0162143Y0147261D01*
X0162082Y0147235D01*
X0162022Y0147205D01*
X0161964Y0147172D01*
X0161908Y0147137D01*
X0161854Y0147098D01*
X0161802Y0147056D01*
X0161752Y0147012D01*
X0161705Y0146965D01*
X0169460Y0144655D02*
X0169499Y0144565D01*
X0169535Y0144472D01*
X0169568Y0144379D01*
X0169597Y0144285D01*
X0169624Y0144190D01*
X0169647Y0144094D01*
X0169667Y0143997D01*
X0169683Y0143899D01*
X0169696Y0143801D01*
X0169706Y0143703D01*
X0169713Y0143604D01*
X0169716Y0143505D01*
X0169715Y0143454D01*
X0169710Y0143404D01*
X0169700Y0143353D01*
X0169688Y0143304D01*
X0169671Y0143256D01*
X0169650Y0143209D01*
X0169627Y0143163D01*
X0169599Y0143120D01*
X0169569Y0143079D01*
X0169535Y0143041D01*
X0169499Y0143005D01*
X0169459Y0142972D01*
X0169418Y0142942D01*
X0169374Y0142916D01*
X0169329Y0142893D01*
X0169281Y0142874D01*
X0169233Y0142858D01*
X0169183Y0142846D01*
X0169133Y0142838D01*
X0169082Y0142834D01*
X0169031Y0142833D01*
X0168980Y0142837D01*
X0168929Y0142845D01*
X0168879Y0142856D01*
X0168830Y0142871D01*
X0168783Y0142890D01*
X0168737Y0142913D01*
X0168693Y0142939D01*
X0168651Y0142968D01*
X0168612Y0143001D01*
X0168575Y0143036D01*
X0168541Y0143075D01*
X0168510Y0143115D01*
X0168483Y0143158D01*
X0168458Y0143203D01*
X0168437Y0143250D01*
X0168438Y0143250D02*
X0167927Y0144528D01*
X0167928Y0144528D02*
X0167907Y0144575D01*
X0167882Y0144620D01*
X0167855Y0144663D01*
X0167824Y0144703D01*
X0167790Y0144742D01*
X0167753Y0144777D01*
X0167714Y0144810D01*
X0167672Y0144839D01*
X0167628Y0144865D01*
X0167582Y0144888D01*
X0167535Y0144907D01*
X0167486Y0144922D01*
X0167436Y0144933D01*
X0167385Y0144941D01*
X0167334Y0144945D01*
X0167283Y0144944D01*
X0167232Y0144940D01*
X0167182Y0144932D01*
X0167132Y0144920D01*
X0167084Y0144904D01*
X0167036Y0144885D01*
X0166991Y0144862D01*
X0166947Y0144836D01*
X0166906Y0144806D01*
X0166866Y0144773D01*
X0166830Y0144737D01*
X0166796Y0144699D01*
X0166766Y0144658D01*
X0166738Y0144615D01*
X0166715Y0144569D01*
X0166694Y0144522D01*
X0166677Y0144474D01*
X0166665Y0144425D01*
X0166655Y0144374D01*
X0166650Y0144324D01*
X0166649Y0144273D01*
X0166649Y0140139D02*
X0169716Y0139117D01*
X0168694Y0137411D02*
X0167671Y0137411D01*
X0167608Y0137409D01*
X0167545Y0137403D01*
X0167483Y0137394D01*
X0167422Y0137380D01*
X0167361Y0137363D01*
X0167302Y0137342D01*
X0167244Y0137317D01*
X0167187Y0137289D01*
X0167133Y0137258D01*
X0167081Y0137223D01*
X0167030Y0137185D01*
X0166982Y0137144D01*
X0166937Y0137100D01*
X0166895Y0137054D01*
X0166855Y0137005D01*
X0166819Y0136954D01*
X0166786Y0136900D01*
X0166756Y0136845D01*
X0166730Y0136787D01*
X0166707Y0136729D01*
X0166688Y0136669D01*
X0166673Y0136608D01*
X0166661Y0136546D01*
X0166653Y0136483D01*
X0166649Y0136420D01*
X0166649Y0136358D01*
X0166653Y0136295D01*
X0166661Y0136232D01*
X0166673Y0136170D01*
X0166688Y0136109D01*
X0166707Y0136049D01*
X0166730Y0135991D01*
X0166756Y0135933D01*
X0166786Y0135878D01*
X0166819Y0135824D01*
X0166855Y0135773D01*
X0166895Y0135724D01*
X0166937Y0135678D01*
X0166982Y0135634D01*
X0167030Y0135593D01*
X0167081Y0135555D01*
X0167133Y0135520D01*
X0167187Y0135489D01*
X0167244Y0135461D01*
X0167302Y0135436D01*
X0167361Y0135415D01*
X0167422Y0135398D01*
X0167483Y0135384D01*
X0167545Y0135375D01*
X0167608Y0135369D01*
X0167671Y0135367D01*
X0168694Y0135367D01*
X0168757Y0135369D01*
X0168820Y0135375D01*
X0168882Y0135384D01*
X0168943Y0135398D01*
X0169004Y0135415D01*
X0169063Y0135436D01*
X0169121Y0135461D01*
X0169178Y0135489D01*
X0169232Y0135520D01*
X0169284Y0135555D01*
X0169335Y0135593D01*
X0169383Y0135634D01*
X0169428Y0135678D01*
X0169470Y0135724D01*
X0169510Y0135773D01*
X0169546Y0135824D01*
X0169579Y0135878D01*
X0169609Y0135933D01*
X0169635Y0135991D01*
X0169658Y0136049D01*
X0169677Y0136109D01*
X0169692Y0136170D01*
X0169704Y0136232D01*
X0169712Y0136295D01*
X0169716Y0136358D01*
X0169716Y0136420D01*
X0169712Y0136483D01*
X0169704Y0136546D01*
X0169692Y0136608D01*
X0169677Y0136669D01*
X0169658Y0136729D01*
X0169635Y0136787D01*
X0169609Y0136845D01*
X0169579Y0136900D01*
X0169546Y0136954D01*
X0169510Y0137005D01*
X0169470Y0137054D01*
X0169428Y0137100D01*
X0169383Y0137144D01*
X0169335Y0137185D01*
X0169284Y0137223D01*
X0169232Y0137258D01*
X0169178Y0137289D01*
X0169121Y0137317D01*
X0169063Y0137342D01*
X0169004Y0137363D01*
X0168943Y0137380D01*
X0168882Y0137394D01*
X0168820Y0137403D01*
X0168757Y0137409D01*
X0168694Y0137411D01*
X0169716Y0141161D02*
X0165116Y0139628D01*
X0165116Y0139117D01*
X0166649Y0132406D02*
X0166649Y0131128D01*
X0171249Y0131128D01*
X0171249Y0132406D01*
X0171247Y0132469D01*
X0171241Y0132532D01*
X0171232Y0132594D01*
X0171218Y0132655D01*
X0171201Y0132716D01*
X0171180Y0132775D01*
X0171155Y0132833D01*
X0171127Y0132890D01*
X0171096Y0132944D01*
X0171061Y0132996D01*
X0171023Y0133047D01*
X0170982Y0133095D01*
X0170938Y0133140D01*
X0170892Y0133182D01*
X0170843Y0133222D01*
X0170792Y0133258D01*
X0170738Y0133291D01*
X0170683Y0133321D01*
X0170625Y0133347D01*
X0170567Y0133370D01*
X0170507Y0133389D01*
X0170446Y0133404D01*
X0170384Y0133416D01*
X0170321Y0133424D01*
X0170258Y0133428D01*
X0170196Y0133428D01*
X0170133Y0133424D01*
X0170070Y0133416D01*
X0170008Y0133404D01*
X0169947Y0133389D01*
X0169887Y0133370D01*
X0169829Y0133347D01*
X0169771Y0133321D01*
X0169716Y0133291D01*
X0169662Y0133258D01*
X0169611Y0133222D01*
X0169562Y0133182D01*
X0169516Y0133140D01*
X0169472Y0133095D01*
X0169431Y0133047D01*
X0169393Y0132996D01*
X0169358Y0132944D01*
X0169327Y0132890D01*
X0169299Y0132833D01*
X0169274Y0132775D01*
X0169253Y0132716D01*
X0169236Y0132655D01*
X0169222Y0132594D01*
X0169213Y0132532D01*
X0169207Y0132469D01*
X0169205Y0132406D01*
X0169205Y0131128D01*
X0169205Y0132406D02*
X0169203Y0132476D01*
X0169197Y0132547D01*
X0169188Y0132616D01*
X0169174Y0132685D01*
X0169157Y0132754D01*
X0169136Y0132821D01*
X0169111Y0132887D01*
X0169083Y0132951D01*
X0169051Y0133014D01*
X0169016Y0133075D01*
X0168977Y0133134D01*
X0168936Y0133191D01*
X0168891Y0133245D01*
X0168843Y0133297D01*
X0168793Y0133346D01*
X0168739Y0133393D01*
X0168684Y0133436D01*
X0168626Y0133476D01*
X0168566Y0133513D01*
X0168504Y0133546D01*
X0168440Y0133576D01*
X0168375Y0133603D01*
X0168309Y0133626D01*
X0168241Y0133645D01*
X0168172Y0133660D01*
X0168103Y0133672D01*
X0168033Y0133680D01*
X0167962Y0133684D01*
X0167892Y0133684D01*
X0167821Y0133680D01*
X0167751Y0133672D01*
X0167682Y0133660D01*
X0167613Y0133645D01*
X0167545Y0133626D01*
X0167479Y0133603D01*
X0167414Y0133576D01*
X0167350Y0133546D01*
X0167288Y0133513D01*
X0167228Y0133476D01*
X0167170Y0133436D01*
X0167115Y0133393D01*
X0167061Y0133346D01*
X0167011Y0133297D01*
X0166963Y0133245D01*
X0166918Y0133191D01*
X0166877Y0133134D01*
X0166838Y0133075D01*
X0166803Y0133014D01*
X0166771Y0132951D01*
X0166743Y0132887D01*
X0166718Y0132821D01*
X0166697Y0132754D01*
X0166680Y0132685D01*
X0166666Y0132616D01*
X0166657Y0132547D01*
X0166651Y0132476D01*
X0166649Y0132406D01*
X0168438Y0128922D02*
X0168438Y0125856D01*
X0169205Y0123604D02*
X0169205Y0122070D01*
X0171249Y0122070D02*
X0171249Y0124115D01*
X0171249Y0122070D02*
X0166649Y0122070D01*
X0166649Y0124115D01*
X0159405Y0123599D02*
X0159363Y0123722D01*
X0159324Y0123847D01*
X0159289Y0123972D01*
X0159258Y0124099D01*
X0159231Y0124227D01*
X0159208Y0124355D01*
X0159188Y0124484D01*
X0159173Y0124614D01*
X0159161Y0124743D01*
X0159153Y0124874D01*
X0159149Y0125004D01*
X0166649Y0118989D02*
X0171249Y0118989D01*
X0171249Y0117711D02*
X0171249Y0120267D01*
X0171249Y0116367D02*
X0171249Y0113811D01*
X0171249Y0115089D02*
X0166649Y0115089D01*
X0163749Y0107696D02*
X0163749Y0105652D01*
X0159149Y0105652D01*
X0159149Y0107696D01*
X0161705Y0107185D02*
X0161705Y0105652D01*
X0163749Y0103774D02*
X0163749Y0102752D01*
X0163747Y0102690D01*
X0163742Y0102629D01*
X0163732Y0102568D01*
X0163719Y0102507D01*
X0163703Y0102448D01*
X0163683Y0102390D01*
X0163659Y0102333D01*
X0163632Y0102277D01*
X0163602Y0102223D01*
X0163568Y0102171D01*
X0163531Y0102122D01*
X0163492Y0102074D01*
X0163450Y0102029D01*
X0163405Y0101987D01*
X0163357Y0101947D01*
X0163308Y0101911D01*
X0163256Y0101877D01*
X0163202Y0101847D01*
X0163146Y0101820D01*
X0163089Y0101796D01*
X0163031Y0101776D01*
X0162972Y0101760D01*
X0162911Y0101747D01*
X0162850Y0101737D01*
X0162789Y0101732D01*
X0162727Y0101730D01*
X0160171Y0101730D01*
X0160109Y0101732D01*
X0160048Y0101737D01*
X0159987Y0101747D01*
X0159926Y0101760D01*
X0159867Y0101776D01*
X0159809Y0101796D01*
X0159752Y0101820D01*
X0159696Y0101847D01*
X0159642Y0101877D01*
X0159590Y0101911D01*
X0159541Y0101947D01*
X0159493Y0101987D01*
X0159448Y0102029D01*
X0159406Y0102074D01*
X0159366Y0102122D01*
X0159330Y0102171D01*
X0159296Y0102223D01*
X0159266Y0102277D01*
X0159239Y0102333D01*
X0159215Y0102390D01*
X0159195Y0102448D01*
X0159179Y0102507D01*
X0159166Y0102568D01*
X0159156Y0102629D01*
X0159151Y0102690D01*
X0159149Y0102752D01*
X0159149Y0103774D01*
X0159149Y0100046D02*
X0159149Y0098002D01*
X0163749Y0098002D01*
X0163749Y0100046D01*
X0161705Y0099535D02*
X0161705Y0098002D01*
X0166905Y0142867D02*
X0166863Y0142990D01*
X0166824Y0143115D01*
X0166789Y0143240D01*
X0166758Y0143367D01*
X0166731Y0143495D01*
X0166708Y0143623D01*
X0166688Y0143752D01*
X0166673Y0143882D01*
X0166661Y0144011D01*
X0166653Y0144142D01*
X0166649Y0144272D01*
X0161449Y0149293D02*
X0161334Y0149295D01*
X0161220Y0149300D01*
X0161106Y0149309D01*
X0160992Y0149321D01*
X0160878Y0149336D01*
X0160765Y0149355D01*
X0160653Y0149378D01*
X0160541Y0149403D01*
X0160430Y0149433D01*
X0160320Y0149465D01*
X0160211Y0149501D01*
X0160103Y0149540D01*
X0159997Y0149582D01*
X0159892Y0149628D01*
X0159788Y0149676D01*
X0159149Y0153793D02*
X0159149Y0156348D01*
X0159149Y0155071D02*
X0163749Y0155071D01*
X0162727Y0153793D01*
X0162471Y0158293D02*
X0162216Y0158293D01*
X0162154Y0158295D01*
X0162093Y0158300D01*
X0162032Y0158310D01*
X0161971Y0158323D01*
X0161912Y0158339D01*
X0161854Y0158359D01*
X0161797Y0158383D01*
X0161741Y0158410D01*
X0161687Y0158440D01*
X0161635Y0158474D01*
X0161586Y0158510D01*
X0161538Y0158550D01*
X0161493Y0158592D01*
X0161451Y0158637D01*
X0161411Y0158685D01*
X0161375Y0158734D01*
X0161341Y0158786D01*
X0161311Y0158840D01*
X0161284Y0158896D01*
X0161260Y0158953D01*
X0161240Y0159011D01*
X0161224Y0159070D01*
X0161211Y0159131D01*
X0161201Y0159192D01*
X0161196Y0159253D01*
X0161194Y0159315D01*
X0161194Y0160848D01*
X0162471Y0160848D01*
X0162471Y0160849D02*
X0162541Y0160847D01*
X0162612Y0160841D01*
X0162681Y0160832D01*
X0162750Y0160818D01*
X0162819Y0160801D01*
X0162886Y0160780D01*
X0162952Y0160755D01*
X0163016Y0160727D01*
X0163079Y0160695D01*
X0163140Y0160660D01*
X0163199Y0160621D01*
X0163256Y0160580D01*
X0163310Y0160535D01*
X0163362Y0160487D01*
X0163411Y0160437D01*
X0163458Y0160383D01*
X0163501Y0160328D01*
X0163541Y0160270D01*
X0163578Y0160210D01*
X0163611Y0160148D01*
X0163641Y0160084D01*
X0163668Y0160019D01*
X0163691Y0159953D01*
X0163710Y0159885D01*
X0163725Y0159816D01*
X0163737Y0159747D01*
X0163745Y0159677D01*
X0163749Y0159606D01*
X0163749Y0159536D01*
X0163745Y0159465D01*
X0163737Y0159395D01*
X0163725Y0159326D01*
X0163710Y0159257D01*
X0163691Y0159189D01*
X0163668Y0159123D01*
X0163641Y0159058D01*
X0163611Y0158994D01*
X0163578Y0158932D01*
X0163541Y0158872D01*
X0163501Y0158814D01*
X0163458Y0158759D01*
X0163411Y0158705D01*
X0163362Y0158655D01*
X0163310Y0158607D01*
X0163256Y0158562D01*
X0163199Y0158521D01*
X0163140Y0158482D01*
X0163079Y0158447D01*
X0163016Y0158415D01*
X0162952Y0158387D01*
X0162886Y0158362D01*
X0162819Y0158341D01*
X0162750Y0158324D01*
X0162681Y0158310D01*
X0162612Y0158301D01*
X0162541Y0158295D01*
X0162471Y0158293D01*
X0161194Y0160848D02*
X0161105Y0160846D01*
X0161016Y0160840D01*
X0160927Y0160831D01*
X0160839Y0160817D01*
X0160752Y0160800D01*
X0160665Y0160778D01*
X0160579Y0160753D01*
X0160495Y0160725D01*
X0160412Y0160692D01*
X0160330Y0160656D01*
X0160250Y0160617D01*
X0160172Y0160574D01*
X0160096Y0160528D01*
X0160022Y0160478D01*
X0159950Y0160426D01*
X0159880Y0160370D01*
X0159813Y0160311D01*
X0159749Y0160249D01*
X0159687Y0160185D01*
X0159628Y0160118D01*
X0159572Y0160048D01*
X0159520Y0159976D01*
X0159470Y0159902D01*
X0159424Y0159826D01*
X0159381Y0159748D01*
X0159342Y0159668D01*
X0159306Y0159586D01*
X0159273Y0159503D01*
X0159245Y0159419D01*
X0159220Y0159333D01*
X0159198Y0159246D01*
X0159181Y0159159D01*
X0159167Y0159071D01*
X0159158Y0158982D01*
X0159152Y0158893D01*
X0159150Y0158804D01*
X0148541Y0159934D02*
X0143941Y0159934D01*
X0143941Y0158656D01*
X0143940Y0158656D02*
X0143942Y0158601D01*
X0143948Y0158547D01*
X0143958Y0158493D01*
X0143971Y0158440D01*
X0143988Y0158388D01*
X0144009Y0158337D01*
X0144034Y0158288D01*
X0144062Y0158241D01*
X0144093Y0158196D01*
X0144127Y0158154D01*
X0144165Y0158114D01*
X0144205Y0158076D01*
X0144247Y0158042D01*
X0144292Y0158011D01*
X0144339Y0157983D01*
X0144388Y0157958D01*
X0144439Y0157937D01*
X0144491Y0157920D01*
X0144544Y0157907D01*
X0144598Y0157897D01*
X0144652Y0157891D01*
X0144707Y0157889D01*
X0144707Y0157890D02*
X0146241Y0157890D01*
X0146241Y0157889D02*
X0146296Y0157891D01*
X0146350Y0157897D01*
X0146404Y0157907D01*
X0146457Y0157920D01*
X0146509Y0157937D01*
X0146560Y0157958D01*
X0146609Y0157983D01*
X0146656Y0158011D01*
X0146701Y0158042D01*
X0146743Y0158076D01*
X0146783Y0158114D01*
X0146821Y0158154D01*
X0146855Y0158196D01*
X0146886Y0158241D01*
X0146914Y0158288D01*
X0146939Y0158337D01*
X0146960Y0158388D01*
X0146977Y0158440D01*
X0146990Y0158493D01*
X0147000Y0158547D01*
X0147006Y0158601D01*
X0147008Y0158656D01*
X0147007Y0158656D02*
X0147007Y0159934D01*
X0147007Y0162113D02*
X0147007Y0163391D01*
X0147008Y0163391D02*
X0147006Y0163446D01*
X0147000Y0163500D01*
X0146990Y0163554D01*
X0146977Y0163607D01*
X0146960Y0163659D01*
X0146939Y0163710D01*
X0146914Y0163759D01*
X0146886Y0163806D01*
X0146855Y0163851D01*
X0146821Y0163893D01*
X0146783Y0163933D01*
X0146743Y0163971D01*
X0146701Y0164005D01*
X0146656Y0164036D01*
X0146609Y0164064D01*
X0146560Y0164089D01*
X0146509Y0164110D01*
X0146457Y0164127D01*
X0146404Y0164140D01*
X0146350Y0164150D01*
X0146296Y0164156D01*
X0146241Y0164158D01*
X0146241Y0164157D02*
X0143941Y0164157D01*
X0143941Y0162113D02*
X0147007Y0162113D01*
X0147007Y0166013D02*
X0143941Y0167035D01*
X0142407Y0166524D02*
X0147007Y0168057D01*
X0145474Y0169966D02*
X0147007Y0172011D01*
X0146113Y0170861D02*
X0143941Y0172011D01*
X0143941Y0169966D02*
X0148541Y0169966D01*
X0142407Y0166524D02*
X0142407Y0166013D01*
X0139507Y0167838D02*
X0139507Y0169371D01*
X0138996Y0169371D01*
X0139507Y0167838D02*
X0136441Y0167838D01*
X0136441Y0165806D02*
X0136441Y0164528D01*
X0136440Y0164528D02*
X0136442Y0164473D01*
X0136448Y0164419D01*
X0136458Y0164365D01*
X0136471Y0164312D01*
X0136488Y0164260D01*
X0136509Y0164209D01*
X0136534Y0164160D01*
X0136562Y0164113D01*
X0136593Y0164068D01*
X0136627Y0164026D01*
X0136665Y0163986D01*
X0136705Y0163948D01*
X0136747Y0163914D01*
X0136792Y0163883D01*
X0136839Y0163855D01*
X0136888Y0163830D01*
X0136939Y0163809D01*
X0136991Y0163792D01*
X0137044Y0163779D01*
X0137098Y0163769D01*
X0137152Y0163763D01*
X0137207Y0163761D01*
X0138485Y0163761D01*
X0137974Y0163761D02*
X0137974Y0165806D01*
X0138485Y0165806D01*
X0138548Y0165804D01*
X0138611Y0165798D01*
X0138673Y0165789D01*
X0138734Y0165775D01*
X0138795Y0165758D01*
X0138854Y0165737D01*
X0138912Y0165712D01*
X0138969Y0165684D01*
X0139023Y0165653D01*
X0139075Y0165618D01*
X0139126Y0165580D01*
X0139174Y0165539D01*
X0139219Y0165495D01*
X0139261Y0165449D01*
X0139301Y0165400D01*
X0139337Y0165349D01*
X0139370Y0165295D01*
X0139400Y0165240D01*
X0139426Y0165182D01*
X0139449Y0165124D01*
X0139468Y0165064D01*
X0139483Y0165003D01*
X0139495Y0164941D01*
X0139503Y0164878D01*
X0139507Y0164815D01*
X0139507Y0164753D01*
X0139503Y0164690D01*
X0139495Y0164627D01*
X0139483Y0164565D01*
X0139468Y0164504D01*
X0139449Y0164444D01*
X0139426Y0164386D01*
X0139400Y0164328D01*
X0139370Y0164273D01*
X0139337Y0164219D01*
X0139301Y0164168D01*
X0139261Y0164119D01*
X0139219Y0164073D01*
X0139174Y0164029D01*
X0139126Y0163988D01*
X0139075Y0163950D01*
X0139023Y0163915D01*
X0138969Y0163884D01*
X0138912Y0163856D01*
X0138854Y0163831D01*
X0138795Y0163810D01*
X0138734Y0163793D01*
X0138673Y0163779D01*
X0138611Y0163770D01*
X0138548Y0163764D01*
X0138485Y0163762D01*
X0139507Y0162056D02*
X0136441Y0160011D01*
X0136441Y0162056D01*
X0139507Y0162056D02*
X0139507Y0160011D01*
X0139507Y0158464D02*
X0139507Y0156931D01*
X0141041Y0157442D02*
X0137207Y0157442D01*
X0137207Y0157441D02*
X0137152Y0157443D01*
X0137098Y0157449D01*
X0137044Y0157459D01*
X0136991Y0157472D01*
X0136939Y0157489D01*
X0136888Y0157510D01*
X0136839Y0157535D01*
X0136792Y0157563D01*
X0136747Y0157594D01*
X0136705Y0157628D01*
X0136665Y0157666D01*
X0136627Y0157706D01*
X0136593Y0157748D01*
X0136562Y0157793D01*
X0136534Y0157840D01*
X0136509Y0157889D01*
X0136488Y0157940D01*
X0136471Y0157992D01*
X0136458Y0158045D01*
X0136448Y0158099D01*
X0136442Y0158153D01*
X0136440Y0158208D01*
X0136441Y0158208D02*
X0136441Y0158464D01*
X0136441Y0155306D02*
X0139507Y0155306D01*
X0139507Y0153262D02*
X0137207Y0153262D01*
X0137207Y0153261D02*
X0137152Y0153263D01*
X0137098Y0153269D01*
X0137044Y0153279D01*
X0136991Y0153292D01*
X0136939Y0153309D01*
X0136888Y0153330D01*
X0136839Y0153355D01*
X0136792Y0153383D01*
X0136747Y0153414D01*
X0136705Y0153448D01*
X0136665Y0153486D01*
X0136627Y0153526D01*
X0136593Y0153568D01*
X0136562Y0153613D01*
X0136534Y0153660D01*
X0136509Y0153709D01*
X0136488Y0153760D01*
X0136471Y0153812D01*
X0136458Y0153865D01*
X0136448Y0153919D01*
X0136442Y0153973D01*
X0136440Y0154028D01*
X0136441Y0154028D02*
X0136441Y0155306D01*
X0136441Y0151459D02*
X0136441Y0149415D01*
X0141041Y0149415D01*
X0143941Y0151910D02*
X0143941Y0152165D01*
X0143940Y0151910D02*
X0143942Y0151855D01*
X0143948Y0151801D01*
X0143958Y0151747D01*
X0143971Y0151694D01*
X0143988Y0151642D01*
X0144009Y0151591D01*
X0144034Y0151542D01*
X0144062Y0151495D01*
X0144093Y0151450D01*
X0144127Y0151408D01*
X0144165Y0151368D01*
X0144205Y0151330D01*
X0144247Y0151296D01*
X0144292Y0151265D01*
X0144339Y0151237D01*
X0144388Y0151212D01*
X0144439Y0151191D01*
X0144491Y0151174D01*
X0144544Y0151161D01*
X0144598Y0151151D01*
X0144652Y0151145D01*
X0144707Y0151143D01*
X0148541Y0151143D01*
X0147007Y0150632D02*
X0147007Y0152165D01*
X0147007Y0154095D02*
X0147007Y0155117D01*
X0147008Y0155117D02*
X0147006Y0155172D01*
X0147000Y0155226D01*
X0146990Y0155280D01*
X0146977Y0155333D01*
X0146960Y0155385D01*
X0146939Y0155436D01*
X0146914Y0155485D01*
X0146886Y0155532D01*
X0146855Y0155577D01*
X0146821Y0155619D01*
X0146783Y0155659D01*
X0146743Y0155697D01*
X0146701Y0155731D01*
X0146656Y0155762D01*
X0146609Y0155790D01*
X0146560Y0155815D01*
X0146509Y0155836D01*
X0146457Y0155853D01*
X0146404Y0155866D01*
X0146350Y0155876D01*
X0146296Y0155882D01*
X0146241Y0155884D01*
X0143941Y0155884D01*
X0143941Y0154734D01*
X0143943Y0154676D01*
X0143949Y0154617D01*
X0143958Y0154560D01*
X0143971Y0154503D01*
X0143988Y0154447D01*
X0144009Y0154392D01*
X0144033Y0154339D01*
X0144061Y0154287D01*
X0144092Y0154237D01*
X0144126Y0154190D01*
X0144163Y0154145D01*
X0144203Y0154102D01*
X0144246Y0154062D01*
X0144291Y0154025D01*
X0144338Y0153991D01*
X0144388Y0153960D01*
X0144440Y0153932D01*
X0144493Y0153908D01*
X0144548Y0153887D01*
X0144604Y0153870D01*
X0144661Y0153857D01*
X0144718Y0153848D01*
X0144777Y0153842D01*
X0144835Y0153840D01*
X0144893Y0153842D01*
X0144952Y0153848D01*
X0145009Y0153857D01*
X0145066Y0153870D01*
X0145122Y0153887D01*
X0145177Y0153908D01*
X0145230Y0153932D01*
X0145282Y0153960D01*
X0145332Y0153991D01*
X0145379Y0154025D01*
X0145424Y0154062D01*
X0145467Y0154102D01*
X0145507Y0154145D01*
X0145544Y0154190D01*
X0145578Y0154237D01*
X0145609Y0154287D01*
X0145637Y0154339D01*
X0145661Y0154392D01*
X0145682Y0154447D01*
X0145699Y0154503D01*
X0145712Y0154560D01*
X0145721Y0154617D01*
X0145727Y0154676D01*
X0145729Y0154734D01*
X0145729Y0155884D01*
X0145857Y0148752D02*
X0146624Y0147346D01*
X0148541Y0147857D02*
X0148539Y0147939D01*
X0148534Y0148021D01*
X0148525Y0148103D01*
X0148513Y0148184D01*
X0148497Y0148265D01*
X0148478Y0148345D01*
X0148455Y0148424D01*
X0148429Y0148502D01*
X0148400Y0148579D01*
X0148367Y0148654D01*
X0148331Y0148728D01*
X0148293Y0148801D01*
X0148251Y0148872D01*
X0148206Y0148940D01*
X0148158Y0149007D01*
X0146624Y0147346D02*
X0146658Y0147292D01*
X0146695Y0147241D01*
X0146735Y0147192D01*
X0146778Y0147145D01*
X0146824Y0147102D01*
X0146872Y0147061D01*
X0146923Y0147023D01*
X0146976Y0146988D01*
X0147031Y0146956D01*
X0147088Y0146928D01*
X0147146Y0146904D01*
X0147206Y0146883D01*
X0147267Y0146866D01*
X0147329Y0146852D01*
X0147392Y0146843D01*
X0147455Y0146837D01*
X0147518Y0146835D01*
X0147580Y0146837D01*
X0147641Y0146842D01*
X0147702Y0146852D01*
X0147763Y0146865D01*
X0147822Y0146881D01*
X0147880Y0146901D01*
X0147937Y0146925D01*
X0147993Y0146952D01*
X0148047Y0146982D01*
X0148099Y0147016D01*
X0148148Y0147053D01*
X0148196Y0147092D01*
X0148241Y0147134D01*
X0148283Y0147179D01*
X0148323Y0147227D01*
X0148359Y0147276D01*
X0148393Y0147328D01*
X0148423Y0147382D01*
X0148450Y0147438D01*
X0148474Y0147495D01*
X0148494Y0147553D01*
X0148510Y0147612D01*
X0148523Y0147673D01*
X0148533Y0147734D01*
X0148538Y0147795D01*
X0148540Y0147857D01*
X0144580Y0146708D02*
X0144517Y0146772D01*
X0144458Y0146840D01*
X0144401Y0146909D01*
X0144347Y0146981D01*
X0144296Y0147055D01*
X0144248Y0147131D01*
X0144204Y0147208D01*
X0144163Y0147288D01*
X0144125Y0147369D01*
X0144090Y0147452D01*
X0144059Y0147536D01*
X0144032Y0147622D01*
X0144008Y0147708D01*
X0143987Y0147796D01*
X0143971Y0147884D01*
X0143958Y0147973D01*
X0143948Y0148062D01*
X0143943Y0148151D01*
X0143941Y0148241D01*
X0143943Y0148303D01*
X0143948Y0148364D01*
X0143958Y0148425D01*
X0143971Y0148486D01*
X0143987Y0148545D01*
X0144007Y0148603D01*
X0144031Y0148660D01*
X0144058Y0148716D01*
X0144088Y0148770D01*
X0144122Y0148822D01*
X0144158Y0148871D01*
X0144198Y0148919D01*
X0144240Y0148964D01*
X0144285Y0149006D01*
X0144333Y0149046D01*
X0144382Y0149082D01*
X0144434Y0149116D01*
X0144488Y0149146D01*
X0144544Y0149173D01*
X0144601Y0149197D01*
X0144659Y0149217D01*
X0144718Y0149233D01*
X0144779Y0149246D01*
X0144840Y0149256D01*
X0144901Y0149261D01*
X0144963Y0149263D01*
X0145026Y0149261D01*
X0145089Y0149255D01*
X0145152Y0149246D01*
X0145214Y0149232D01*
X0145275Y0149215D01*
X0145335Y0149194D01*
X0145393Y0149170D01*
X0145450Y0149142D01*
X0145505Y0149110D01*
X0145558Y0149075D01*
X0145609Y0149037D01*
X0145657Y0148996D01*
X0145703Y0148953D01*
X0145746Y0148906D01*
X0145786Y0148857D01*
X0145823Y0148806D01*
X0145857Y0148752D01*
M02*
