G75*
%MOIN*%
%OFA0B0*%
%FSLAX25Y25*%
%IPPOS*%
%LPD*%
%AMOC8*
5,1,8,0,0,1.08239X$1,22.5*
%
%ADD10C,0.01500*%
%ADD11C,0.01200*%
%ADD12C,0.01000*%
%ADD13C,0.00512*%
%ADD14C,0.00300*%
%ADD15C,0.00000*%
%ADD16C,0.00500*%
D10*
X0115586Y0152883D02*
X0119086Y0152883D01*
X0119086Y0153856D01*
X0119085Y0153856D02*
X0119083Y0153902D01*
X0119078Y0153947D01*
X0119069Y0153992D01*
X0119056Y0154036D01*
X0119041Y0154079D01*
X0119021Y0154121D01*
X0118999Y0154161D01*
X0118974Y0154199D01*
X0118945Y0154235D01*
X0118914Y0154268D01*
X0118881Y0154299D01*
X0118845Y0154328D01*
X0118807Y0154353D01*
X0118767Y0154375D01*
X0118725Y0154395D01*
X0118682Y0154410D01*
X0118638Y0154423D01*
X0118593Y0154432D01*
X0118548Y0154437D01*
X0118502Y0154439D01*
X0117336Y0154439D01*
X0117288Y0154437D01*
X0117240Y0154431D01*
X0117193Y0154421D01*
X0117147Y0154407D01*
X0117102Y0154390D01*
X0117059Y0154369D01*
X0117017Y0154344D01*
X0116978Y0154316D01*
X0116941Y0154285D01*
X0116907Y0154251D01*
X0116876Y0154214D01*
X0116848Y0154175D01*
X0116823Y0154133D01*
X0116802Y0154090D01*
X0116785Y0154045D01*
X0116771Y0153999D01*
X0116761Y0153952D01*
X0116755Y0153904D01*
X0116753Y0153856D01*
X0116752Y0153856D02*
X0116752Y0152883D01*
X0116752Y0150129D02*
X0118502Y0150129D01*
X0118113Y0150129D02*
X0118113Y0149254D01*
X0118502Y0150128D02*
X0118548Y0150126D01*
X0118593Y0150121D01*
X0118638Y0150112D01*
X0118682Y0150099D01*
X0118725Y0150084D01*
X0118767Y0150064D01*
X0118807Y0150042D01*
X0118845Y0150017D01*
X0118881Y0149988D01*
X0118914Y0149957D01*
X0118945Y0149924D01*
X0118974Y0149888D01*
X0118999Y0149850D01*
X0119021Y0149810D01*
X0119041Y0149768D01*
X0119056Y0149725D01*
X0119069Y0149681D01*
X0119078Y0149636D01*
X0119083Y0149591D01*
X0119085Y0149545D01*
X0119086Y0149545D02*
X0119086Y0148768D01*
X0118114Y0149254D02*
X0118112Y0149203D01*
X0118106Y0149153D01*
X0118097Y0149102D01*
X0118084Y0149053D01*
X0118067Y0149005D01*
X0118047Y0148959D01*
X0118023Y0148914D01*
X0117996Y0148870D01*
X0117965Y0148829D01*
X0117932Y0148791D01*
X0117896Y0148755D01*
X0117858Y0148722D01*
X0117817Y0148691D01*
X0117774Y0148664D01*
X0117728Y0148640D01*
X0117682Y0148620D01*
X0117634Y0148603D01*
X0117585Y0148590D01*
X0117534Y0148581D01*
X0117484Y0148575D01*
X0117433Y0148573D01*
X0117382Y0148575D01*
X0117332Y0148581D01*
X0117281Y0148590D01*
X0117232Y0148603D01*
X0117184Y0148620D01*
X0117138Y0148640D01*
X0117093Y0148664D01*
X0117049Y0148691D01*
X0117008Y0148722D01*
X0116970Y0148755D01*
X0116934Y0148791D01*
X0116901Y0148829D01*
X0116870Y0148870D01*
X0116843Y0148914D01*
X0116819Y0148959D01*
X0116799Y0149005D01*
X0116782Y0149053D01*
X0116769Y0149102D01*
X0116760Y0149153D01*
X0116754Y0149203D01*
X0116752Y0149254D01*
X0116752Y0150129D01*
X0116752Y0146508D02*
X0116752Y0145731D01*
X0116754Y0145675D01*
X0116760Y0145620D01*
X0116770Y0145566D01*
X0116784Y0145512D01*
X0116801Y0145459D01*
X0116822Y0145408D01*
X0116847Y0145358D01*
X0116876Y0145310D01*
X0116907Y0145265D01*
X0116942Y0145222D01*
X0116980Y0145181D01*
X0117021Y0145143D01*
X0117064Y0145108D01*
X0117109Y0145077D01*
X0117157Y0145048D01*
X0117207Y0145023D01*
X0117258Y0145002D01*
X0117311Y0144985D01*
X0117365Y0144971D01*
X0117419Y0144961D01*
X0117474Y0144955D01*
X0117530Y0144953D01*
X0119475Y0144953D01*
X0119531Y0144955D01*
X0119586Y0144961D01*
X0119640Y0144971D01*
X0119694Y0144985D01*
X0119747Y0145002D01*
X0119798Y0145023D01*
X0119848Y0145048D01*
X0119896Y0145077D01*
X0119941Y0145108D01*
X0119984Y0145143D01*
X0120025Y0145181D01*
X0120063Y0145222D01*
X0120098Y0145265D01*
X0120129Y0145310D01*
X0120158Y0145358D01*
X0120183Y0145408D01*
X0120204Y0145459D01*
X0120221Y0145512D01*
X0120235Y0145566D01*
X0120245Y0145620D01*
X0120251Y0145675D01*
X0120253Y0145731D01*
X0120252Y0145731D02*
X0120252Y0146508D01*
X0120252Y0140411D02*
X0120252Y0138855D01*
X0116752Y0138855D01*
X0116752Y0140411D01*
X0118697Y0140022D02*
X0118697Y0138855D01*
X0120252Y0136458D02*
X0120252Y0135681D01*
X0120253Y0135681D02*
X0120251Y0135625D01*
X0120245Y0135570D01*
X0120235Y0135516D01*
X0120221Y0135462D01*
X0120204Y0135409D01*
X0120183Y0135358D01*
X0120158Y0135308D01*
X0120129Y0135260D01*
X0120098Y0135215D01*
X0120063Y0135172D01*
X0120025Y0135131D01*
X0119984Y0135093D01*
X0119941Y0135058D01*
X0119896Y0135027D01*
X0119848Y0134998D01*
X0119798Y0134973D01*
X0119747Y0134952D01*
X0119694Y0134935D01*
X0119640Y0134921D01*
X0119586Y0134911D01*
X0119531Y0134905D01*
X0119475Y0134903D01*
X0117530Y0134903D01*
X0117474Y0134905D01*
X0117419Y0134911D01*
X0117365Y0134921D01*
X0117311Y0134935D01*
X0117258Y0134952D01*
X0117207Y0134973D01*
X0117157Y0134998D01*
X0117109Y0135027D01*
X0117064Y0135058D01*
X0117021Y0135093D01*
X0116980Y0135131D01*
X0116942Y0135172D01*
X0116907Y0135215D01*
X0116876Y0135260D01*
X0116847Y0135308D01*
X0116822Y0135358D01*
X0116801Y0135409D01*
X0116784Y0135462D01*
X0116770Y0135516D01*
X0116760Y0135570D01*
X0116754Y0135625D01*
X0116752Y0135681D01*
X0116752Y0136458D01*
X0116752Y0132761D02*
X0116752Y0131205D01*
X0120252Y0131205D01*
X0120252Y0132761D01*
X0118697Y0132372D02*
X0118697Y0131205D01*
X0124252Y0129515D02*
X0127752Y0129515D01*
X0127752Y0128543D02*
X0127752Y0130487D01*
X0127752Y0132443D02*
X0127752Y0134388D01*
X0127752Y0133415D02*
X0124252Y0133415D01*
X0124252Y0136814D02*
X0127752Y0136814D01*
X0127752Y0138370D01*
X0126197Y0137981D02*
X0126197Y0136814D01*
X0124252Y0136814D02*
X0124252Y0138370D01*
X0125613Y0140649D02*
X0125613Y0142982D01*
X0125030Y0145612D02*
X0126975Y0145612D01*
X0127031Y0145614D01*
X0127086Y0145620D01*
X0127140Y0145630D01*
X0127194Y0145644D01*
X0127247Y0145661D01*
X0127298Y0145682D01*
X0127348Y0145707D01*
X0127396Y0145736D01*
X0127441Y0145767D01*
X0127484Y0145802D01*
X0127525Y0145840D01*
X0127563Y0145881D01*
X0127598Y0145924D01*
X0127629Y0145969D01*
X0127658Y0146017D01*
X0127683Y0146067D01*
X0127704Y0146118D01*
X0127721Y0146171D01*
X0127735Y0146225D01*
X0127745Y0146279D01*
X0127751Y0146334D01*
X0127753Y0146390D01*
X0127752Y0146390D02*
X0127752Y0147168D01*
X0125808Y0149287D02*
X0125030Y0149287D01*
X0124974Y0149289D01*
X0124919Y0149295D01*
X0124865Y0149305D01*
X0124811Y0149319D01*
X0124758Y0149336D01*
X0124707Y0149357D01*
X0124657Y0149382D01*
X0124609Y0149411D01*
X0124564Y0149442D01*
X0124521Y0149477D01*
X0124480Y0149515D01*
X0124442Y0149556D01*
X0124407Y0149599D01*
X0124376Y0149644D01*
X0124347Y0149692D01*
X0124322Y0149742D01*
X0124301Y0149793D01*
X0124284Y0149846D01*
X0124270Y0149900D01*
X0124260Y0149954D01*
X0124254Y0150009D01*
X0124252Y0150065D01*
X0124254Y0150121D01*
X0124260Y0150176D01*
X0124270Y0150230D01*
X0124284Y0150284D01*
X0124301Y0150337D01*
X0124322Y0150388D01*
X0124347Y0150438D01*
X0124376Y0150486D01*
X0124407Y0150531D01*
X0124442Y0150574D01*
X0124480Y0150615D01*
X0124521Y0150653D01*
X0124564Y0150688D01*
X0124609Y0150719D01*
X0124657Y0150748D01*
X0124707Y0150773D01*
X0124758Y0150794D01*
X0124811Y0150811D01*
X0124865Y0150825D01*
X0124919Y0150835D01*
X0124974Y0150841D01*
X0125030Y0150843D01*
X0125808Y0150843D01*
X0125864Y0150841D01*
X0125919Y0150835D01*
X0125973Y0150825D01*
X0126027Y0150811D01*
X0126080Y0150794D01*
X0126131Y0150773D01*
X0126181Y0150748D01*
X0126229Y0150719D01*
X0126274Y0150688D01*
X0126317Y0150653D01*
X0126358Y0150615D01*
X0126396Y0150574D01*
X0126431Y0150531D01*
X0126462Y0150486D01*
X0126491Y0150438D01*
X0126516Y0150388D01*
X0126537Y0150337D01*
X0126554Y0150284D01*
X0126568Y0150230D01*
X0126578Y0150176D01*
X0126584Y0150121D01*
X0126586Y0150065D01*
X0126584Y0150009D01*
X0126578Y0149954D01*
X0126568Y0149900D01*
X0126554Y0149846D01*
X0126537Y0149793D01*
X0126516Y0149742D01*
X0126491Y0149692D01*
X0126462Y0149644D01*
X0126431Y0149599D01*
X0126396Y0149556D01*
X0126358Y0149515D01*
X0126317Y0149477D01*
X0126274Y0149442D01*
X0126229Y0149411D01*
X0126181Y0149382D01*
X0126131Y0149357D01*
X0126080Y0149336D01*
X0126027Y0149319D01*
X0125973Y0149305D01*
X0125919Y0149295D01*
X0125864Y0149289D01*
X0125808Y0149287D01*
X0124252Y0147168D02*
X0124252Y0146390D01*
X0124254Y0146334D01*
X0124260Y0146279D01*
X0124270Y0146225D01*
X0124284Y0146171D01*
X0124301Y0146118D01*
X0124322Y0146067D01*
X0124347Y0146017D01*
X0124376Y0145969D01*
X0124407Y0145924D01*
X0124442Y0145881D01*
X0124480Y0145840D01*
X0124521Y0145802D01*
X0124564Y0145767D01*
X0124609Y0145736D01*
X0124657Y0145707D01*
X0124707Y0145682D01*
X0124758Y0145661D01*
X0124811Y0145644D01*
X0124865Y0145630D01*
X0124919Y0145620D01*
X0124974Y0145614D01*
X0125030Y0145612D01*
X0124252Y0153549D02*
X0126586Y0153549D01*
X0126586Y0155299D01*
X0126585Y0155299D02*
X0126583Y0155345D01*
X0126578Y0155390D01*
X0126569Y0155435D01*
X0126556Y0155479D01*
X0126541Y0155522D01*
X0126521Y0155564D01*
X0126499Y0155604D01*
X0126474Y0155642D01*
X0126445Y0155678D01*
X0126414Y0155711D01*
X0126381Y0155742D01*
X0126345Y0155771D01*
X0126307Y0155796D01*
X0126267Y0155818D01*
X0126225Y0155838D01*
X0126182Y0155853D01*
X0126138Y0155866D01*
X0126093Y0155875D01*
X0126048Y0155880D01*
X0126002Y0155882D01*
X0124252Y0155882D01*
X0124252Y0154715D02*
X0126586Y0154715D01*
X0126586Y0158949D02*
X0124252Y0158949D01*
X0124252Y0160115D02*
X0126586Y0160115D01*
X0126586Y0160699D02*
X0126586Y0158949D01*
X0126585Y0160699D02*
X0126583Y0160745D01*
X0126578Y0160790D01*
X0126569Y0160835D01*
X0126556Y0160879D01*
X0126541Y0160922D01*
X0126521Y0160964D01*
X0126499Y0161004D01*
X0126474Y0161042D01*
X0126445Y0161078D01*
X0126414Y0161111D01*
X0126381Y0161142D01*
X0126345Y0161171D01*
X0126307Y0161196D01*
X0126267Y0161218D01*
X0126225Y0161238D01*
X0126182Y0161253D01*
X0126138Y0161266D01*
X0126093Y0161275D01*
X0126048Y0161280D01*
X0126002Y0161282D01*
X0124252Y0161282D01*
X0124836Y0164137D02*
X0126586Y0164137D01*
X0126586Y0165693D02*
X0124252Y0165693D01*
X0124252Y0164721D01*
X0124253Y0164721D02*
X0124255Y0164675D01*
X0124260Y0164630D01*
X0124269Y0164585D01*
X0124282Y0164541D01*
X0124297Y0164498D01*
X0124317Y0164456D01*
X0124339Y0164416D01*
X0124364Y0164378D01*
X0124393Y0164342D01*
X0124424Y0164309D01*
X0124457Y0164278D01*
X0124493Y0164249D01*
X0124531Y0164224D01*
X0124571Y0164202D01*
X0124613Y0164182D01*
X0124656Y0164167D01*
X0124700Y0164154D01*
X0124745Y0164145D01*
X0124790Y0164140D01*
X0124836Y0164138D01*
X0124252Y0168337D02*
X0126586Y0168337D01*
X0126586Y0169310D01*
X0126585Y0169310D02*
X0126583Y0169356D01*
X0126578Y0169401D01*
X0126569Y0169446D01*
X0126556Y0169490D01*
X0126541Y0169533D01*
X0126521Y0169575D01*
X0126499Y0169615D01*
X0126474Y0169653D01*
X0126445Y0169689D01*
X0126414Y0169722D01*
X0126381Y0169753D01*
X0126345Y0169782D01*
X0126307Y0169807D01*
X0126267Y0169829D01*
X0126225Y0169849D01*
X0126182Y0169864D01*
X0126138Y0169877D01*
X0126093Y0169886D01*
X0126048Y0169891D01*
X0126002Y0169893D01*
X0124252Y0169893D01*
X0124252Y0172115D02*
X0126586Y0172115D01*
X0127558Y0172212D02*
X0127558Y0172018D01*
X0127752Y0172018D01*
X0127752Y0172212D01*
X0127558Y0172212D01*
X0126002Y0174200D02*
X0124836Y0174200D01*
X0124790Y0174202D01*
X0124745Y0174207D01*
X0124700Y0174216D01*
X0124656Y0174229D01*
X0124613Y0174244D01*
X0124571Y0174264D01*
X0124531Y0174286D01*
X0124493Y0174311D01*
X0124457Y0174340D01*
X0124424Y0174371D01*
X0124393Y0174404D01*
X0124364Y0174440D01*
X0124339Y0174478D01*
X0124317Y0174518D01*
X0124297Y0174560D01*
X0124282Y0174603D01*
X0124269Y0174647D01*
X0124260Y0174692D01*
X0124255Y0174737D01*
X0124253Y0174783D01*
X0124252Y0174783D02*
X0124252Y0175561D01*
X0126002Y0174200D02*
X0126048Y0174202D01*
X0126093Y0174207D01*
X0126138Y0174216D01*
X0126182Y0174229D01*
X0126225Y0174244D01*
X0126267Y0174264D01*
X0126307Y0174286D01*
X0126345Y0174311D01*
X0126381Y0174340D01*
X0126414Y0174371D01*
X0126445Y0174404D01*
X0126474Y0174440D01*
X0126499Y0174478D01*
X0126521Y0174518D01*
X0126541Y0174560D01*
X0126556Y0174603D01*
X0126569Y0174647D01*
X0126578Y0174692D01*
X0126583Y0174737D01*
X0126585Y0174783D01*
X0126586Y0174783D02*
X0126586Y0175561D01*
X0126586Y0177777D02*
X0126586Y0178555D01*
X0126585Y0178555D02*
X0126583Y0178601D01*
X0126578Y0178646D01*
X0126569Y0178691D01*
X0126556Y0178735D01*
X0126541Y0178778D01*
X0126521Y0178820D01*
X0126499Y0178860D01*
X0126474Y0178898D01*
X0126445Y0178934D01*
X0126414Y0178967D01*
X0126381Y0178998D01*
X0126345Y0179027D01*
X0126307Y0179052D01*
X0126267Y0179074D01*
X0126225Y0179094D01*
X0126182Y0179109D01*
X0126138Y0179122D01*
X0126093Y0179131D01*
X0126048Y0179136D01*
X0126002Y0179138D01*
X0124252Y0179138D01*
X0124252Y0178263D01*
X0124254Y0178212D01*
X0124260Y0178162D01*
X0124269Y0178111D01*
X0124282Y0178062D01*
X0124299Y0178014D01*
X0124319Y0177968D01*
X0124343Y0177923D01*
X0124370Y0177879D01*
X0124401Y0177838D01*
X0124434Y0177800D01*
X0124470Y0177764D01*
X0124508Y0177731D01*
X0124549Y0177700D01*
X0124593Y0177673D01*
X0124638Y0177649D01*
X0124684Y0177629D01*
X0124732Y0177612D01*
X0124781Y0177599D01*
X0124832Y0177590D01*
X0124882Y0177584D01*
X0124933Y0177582D01*
X0124984Y0177584D01*
X0125034Y0177590D01*
X0125085Y0177599D01*
X0125134Y0177612D01*
X0125182Y0177629D01*
X0125228Y0177649D01*
X0125274Y0177673D01*
X0125317Y0177700D01*
X0125358Y0177731D01*
X0125396Y0177764D01*
X0125432Y0177800D01*
X0125465Y0177838D01*
X0125496Y0177879D01*
X0125523Y0177923D01*
X0125547Y0177968D01*
X0125567Y0178014D01*
X0125584Y0178062D01*
X0125597Y0178111D01*
X0125606Y0178162D01*
X0125612Y0178212D01*
X0125614Y0178263D01*
X0125613Y0178263D02*
X0125613Y0179138D01*
X0126586Y0181195D02*
X0126586Y0182362D01*
X0127752Y0181584D02*
X0124836Y0181584D01*
X0124836Y0181585D02*
X0124790Y0181587D01*
X0124745Y0181592D01*
X0124700Y0181601D01*
X0124656Y0181614D01*
X0124613Y0181629D01*
X0124571Y0181649D01*
X0124531Y0181671D01*
X0124493Y0181696D01*
X0124457Y0181725D01*
X0124424Y0181756D01*
X0124393Y0181789D01*
X0124364Y0181825D01*
X0124339Y0181863D01*
X0124317Y0181903D01*
X0124297Y0181945D01*
X0124282Y0181988D01*
X0124269Y0182032D01*
X0124260Y0182077D01*
X0124255Y0182122D01*
X0124253Y0182168D01*
X0124252Y0182168D02*
X0124252Y0182362D01*
X0124252Y0184265D02*
X0126586Y0184265D01*
X0127558Y0184362D02*
X0127558Y0184168D01*
X0127752Y0184168D01*
X0127752Y0184362D01*
X0127558Y0184362D01*
X0125808Y0186337D02*
X0125030Y0186337D01*
X0124974Y0186339D01*
X0124919Y0186345D01*
X0124865Y0186355D01*
X0124811Y0186369D01*
X0124758Y0186386D01*
X0124707Y0186407D01*
X0124657Y0186432D01*
X0124609Y0186461D01*
X0124564Y0186492D01*
X0124521Y0186527D01*
X0124480Y0186565D01*
X0124442Y0186606D01*
X0124407Y0186649D01*
X0124376Y0186694D01*
X0124347Y0186742D01*
X0124322Y0186792D01*
X0124301Y0186843D01*
X0124284Y0186896D01*
X0124270Y0186950D01*
X0124260Y0187004D01*
X0124254Y0187059D01*
X0124252Y0187115D01*
X0124254Y0187171D01*
X0124260Y0187226D01*
X0124270Y0187280D01*
X0124284Y0187334D01*
X0124301Y0187387D01*
X0124322Y0187438D01*
X0124347Y0187488D01*
X0124376Y0187536D01*
X0124407Y0187581D01*
X0124442Y0187624D01*
X0124480Y0187665D01*
X0124521Y0187703D01*
X0124564Y0187738D01*
X0124609Y0187769D01*
X0124657Y0187798D01*
X0124707Y0187823D01*
X0124758Y0187844D01*
X0124811Y0187861D01*
X0124865Y0187875D01*
X0124919Y0187885D01*
X0124974Y0187891D01*
X0125030Y0187893D01*
X0125808Y0187893D01*
X0125864Y0187891D01*
X0125919Y0187885D01*
X0125973Y0187875D01*
X0126027Y0187861D01*
X0126080Y0187844D01*
X0126131Y0187823D01*
X0126181Y0187798D01*
X0126229Y0187769D01*
X0126274Y0187738D01*
X0126317Y0187703D01*
X0126358Y0187665D01*
X0126396Y0187624D01*
X0126431Y0187581D01*
X0126462Y0187536D01*
X0126491Y0187488D01*
X0126516Y0187438D01*
X0126537Y0187387D01*
X0126554Y0187334D01*
X0126568Y0187280D01*
X0126578Y0187226D01*
X0126584Y0187171D01*
X0126586Y0187115D01*
X0126584Y0187059D01*
X0126578Y0187004D01*
X0126568Y0186950D01*
X0126554Y0186896D01*
X0126537Y0186843D01*
X0126516Y0186792D01*
X0126491Y0186742D01*
X0126462Y0186694D01*
X0126431Y0186649D01*
X0126396Y0186606D01*
X0126358Y0186565D01*
X0126317Y0186527D01*
X0126274Y0186492D01*
X0126229Y0186461D01*
X0126181Y0186432D01*
X0126131Y0186407D01*
X0126080Y0186386D01*
X0126027Y0186369D01*
X0125973Y0186355D01*
X0125919Y0186345D01*
X0125864Y0186339D01*
X0125808Y0186337D01*
X0126586Y0190387D02*
X0124252Y0190387D01*
X0124252Y0191943D02*
X0126002Y0191943D01*
X0126048Y0191941D01*
X0126093Y0191936D01*
X0126138Y0191927D01*
X0126182Y0191914D01*
X0126225Y0191899D01*
X0126267Y0191879D01*
X0126307Y0191857D01*
X0126345Y0191832D01*
X0126381Y0191803D01*
X0126414Y0191772D01*
X0126445Y0191739D01*
X0126474Y0191703D01*
X0126499Y0191665D01*
X0126521Y0191625D01*
X0126541Y0191583D01*
X0126556Y0191540D01*
X0126569Y0191496D01*
X0126578Y0191451D01*
X0126583Y0191406D01*
X0126585Y0191360D01*
X0126586Y0191360D02*
X0126586Y0190387D01*
X0125613Y0194729D02*
X0125225Y0195701D01*
X0125224Y0195701D02*
X0125206Y0195741D01*
X0125185Y0195779D01*
X0125160Y0195815D01*
X0125132Y0195849D01*
X0125102Y0195880D01*
X0125069Y0195909D01*
X0125034Y0195935D01*
X0124996Y0195957D01*
X0124957Y0195976D01*
X0124916Y0195992D01*
X0124874Y0196004D01*
X0124831Y0196012D01*
X0124788Y0196017D01*
X0124744Y0196018D01*
X0124700Y0196015D01*
X0124657Y0196008D01*
X0124615Y0195998D01*
X0124573Y0195984D01*
X0124533Y0195966D01*
X0124495Y0195945D01*
X0124459Y0195921D01*
X0124425Y0195894D01*
X0124393Y0195864D01*
X0124364Y0195831D01*
X0124338Y0195796D01*
X0124315Y0195758D01*
X0124296Y0195719D01*
X0124280Y0195679D01*
X0124267Y0195637D01*
X0124258Y0195594D01*
X0124253Y0195550D01*
X0124252Y0195507D01*
X0126391Y0195798D02*
X0126427Y0195715D01*
X0126459Y0195631D01*
X0126487Y0195545D01*
X0126512Y0195459D01*
X0126533Y0195371D01*
X0126551Y0195283D01*
X0126565Y0195193D01*
X0126576Y0195104D01*
X0126583Y0195014D01*
X0126586Y0194924D01*
X0126586Y0194923D02*
X0126585Y0194880D01*
X0126580Y0194836D01*
X0126571Y0194793D01*
X0126558Y0194751D01*
X0126542Y0194711D01*
X0126523Y0194672D01*
X0126500Y0194634D01*
X0126474Y0194599D01*
X0126445Y0194566D01*
X0126413Y0194536D01*
X0126379Y0194509D01*
X0126343Y0194485D01*
X0126305Y0194464D01*
X0126265Y0194446D01*
X0126223Y0194432D01*
X0126181Y0194422D01*
X0126138Y0194415D01*
X0126094Y0194412D01*
X0126050Y0194413D01*
X0126007Y0194418D01*
X0125964Y0194426D01*
X0125922Y0194438D01*
X0125881Y0194454D01*
X0125842Y0194473D01*
X0125804Y0194495D01*
X0125769Y0194521D01*
X0125736Y0194550D01*
X0125706Y0194581D01*
X0125678Y0194615D01*
X0125653Y0194651D01*
X0125632Y0194689D01*
X0125614Y0194729D01*
X0124447Y0194437D02*
X0124412Y0194541D01*
X0124380Y0194645D01*
X0124351Y0194751D01*
X0124327Y0194857D01*
X0124305Y0194964D01*
X0124287Y0195072D01*
X0124273Y0195180D01*
X0124263Y0195289D01*
X0124256Y0195398D01*
X0124252Y0195507D01*
X0119280Y0193428D02*
X0118308Y0193428D01*
X0118308Y0192262D01*
X0118308Y0193429D02*
X0118232Y0193427D01*
X0118155Y0193422D01*
X0118080Y0193412D01*
X0118004Y0193399D01*
X0117930Y0193382D01*
X0117856Y0193362D01*
X0117784Y0193338D01*
X0117713Y0193311D01*
X0117643Y0193280D01*
X0117575Y0193245D01*
X0117508Y0193208D01*
X0117444Y0193167D01*
X0117381Y0193123D01*
X0117321Y0193076D01*
X0117263Y0193026D01*
X0117208Y0192973D01*
X0117155Y0192918D01*
X0117105Y0192860D01*
X0117058Y0192800D01*
X0117014Y0192737D01*
X0116973Y0192673D01*
X0116936Y0192606D01*
X0116901Y0192538D01*
X0116870Y0192468D01*
X0116843Y0192397D01*
X0116819Y0192325D01*
X0116799Y0192251D01*
X0116782Y0192177D01*
X0116769Y0192101D01*
X0116759Y0192026D01*
X0116754Y0191949D01*
X0116752Y0191873D01*
X0118308Y0192262D02*
X0118310Y0192206D01*
X0118316Y0192151D01*
X0118326Y0192097D01*
X0118340Y0192043D01*
X0118357Y0191990D01*
X0118378Y0191939D01*
X0118403Y0191889D01*
X0118432Y0191841D01*
X0118463Y0191796D01*
X0118498Y0191753D01*
X0118536Y0191712D01*
X0118577Y0191674D01*
X0118620Y0191639D01*
X0118665Y0191608D01*
X0118713Y0191579D01*
X0118763Y0191554D01*
X0118814Y0191533D01*
X0118867Y0191516D01*
X0118921Y0191502D01*
X0118975Y0191492D01*
X0119030Y0191486D01*
X0119086Y0191484D01*
X0119280Y0191484D01*
X0119341Y0191486D01*
X0119402Y0191492D01*
X0119462Y0191501D01*
X0119522Y0191515D01*
X0119580Y0191532D01*
X0119638Y0191552D01*
X0119694Y0191577D01*
X0119748Y0191604D01*
X0119801Y0191635D01*
X0119851Y0191670D01*
X0119900Y0191707D01*
X0119945Y0191747D01*
X0119989Y0191791D01*
X0120029Y0191836D01*
X0120066Y0191885D01*
X0120101Y0191935D01*
X0120132Y0191988D01*
X0120159Y0192042D01*
X0120184Y0192098D01*
X0120204Y0192156D01*
X0120221Y0192214D01*
X0120235Y0192274D01*
X0120244Y0192334D01*
X0120250Y0192395D01*
X0120252Y0192456D01*
X0120250Y0192517D01*
X0120244Y0192578D01*
X0120235Y0192638D01*
X0120221Y0192698D01*
X0120204Y0192756D01*
X0120184Y0192814D01*
X0120159Y0192870D01*
X0120132Y0192924D01*
X0120101Y0192977D01*
X0120066Y0193027D01*
X0120029Y0193076D01*
X0119989Y0193121D01*
X0119945Y0193165D01*
X0119900Y0193205D01*
X0119851Y0193242D01*
X0119801Y0193277D01*
X0119748Y0193308D01*
X0119694Y0193335D01*
X0119638Y0193360D01*
X0119580Y0193380D01*
X0119522Y0193397D01*
X0119462Y0193411D01*
X0119402Y0193420D01*
X0119341Y0193426D01*
X0119280Y0193428D01*
X0116752Y0188928D02*
X0116752Y0186984D01*
X0116752Y0187956D02*
X0120252Y0187956D01*
X0119475Y0186984D01*
X0118502Y0182484D02*
X0118401Y0182486D01*
X0118301Y0182491D01*
X0118201Y0182500D01*
X0118101Y0182512D01*
X0118001Y0182528D01*
X0117903Y0182547D01*
X0117805Y0182570D01*
X0117707Y0182596D01*
X0117611Y0182625D01*
X0117516Y0182658D01*
X0117422Y0182694D01*
X0117329Y0182733D01*
X0117238Y0182776D01*
X0117530Y0182678D02*
X0119475Y0184234D01*
X0120252Y0183456D02*
X0120250Y0183404D01*
X0120244Y0183351D01*
X0120235Y0183300D01*
X0120222Y0183249D01*
X0120205Y0183199D01*
X0120184Y0183151D01*
X0120160Y0183105D01*
X0120133Y0183060D01*
X0120102Y0183017D01*
X0120069Y0182977D01*
X0120033Y0182939D01*
X0119994Y0182904D01*
X0119952Y0182872D01*
X0119908Y0182843D01*
X0119863Y0182817D01*
X0119815Y0182795D01*
X0119766Y0182776D01*
X0120252Y0183456D02*
X0120250Y0183508D01*
X0120244Y0183561D01*
X0120235Y0183612D01*
X0120222Y0183663D01*
X0120205Y0183713D01*
X0120184Y0183761D01*
X0120160Y0183808D01*
X0120133Y0183852D01*
X0120102Y0183895D01*
X0120069Y0183935D01*
X0120033Y0183973D01*
X0119994Y0184008D01*
X0119952Y0184040D01*
X0119908Y0184069D01*
X0119863Y0184095D01*
X0119815Y0184117D01*
X0119766Y0184136D01*
X0119766Y0182776D02*
X0119675Y0182733D01*
X0119582Y0182694D01*
X0119488Y0182658D01*
X0119393Y0182625D01*
X0119297Y0182596D01*
X0119199Y0182570D01*
X0119101Y0182547D01*
X0119003Y0182528D01*
X0118903Y0182512D01*
X0118803Y0182500D01*
X0118703Y0182491D01*
X0118603Y0182486D01*
X0118502Y0182484D01*
X0118502Y0184428D02*
X0118603Y0184426D01*
X0118703Y0184421D01*
X0118803Y0184412D01*
X0118903Y0184400D01*
X0119003Y0184384D01*
X0119101Y0184365D01*
X0119199Y0184342D01*
X0119297Y0184316D01*
X0119393Y0184287D01*
X0119488Y0184254D01*
X0119582Y0184218D01*
X0119675Y0184179D01*
X0119766Y0184136D01*
X0118502Y0184428D02*
X0118401Y0184426D01*
X0118301Y0184421D01*
X0118201Y0184412D01*
X0118101Y0184400D01*
X0118001Y0184384D01*
X0117903Y0184365D01*
X0117805Y0184342D01*
X0117707Y0184316D01*
X0117611Y0184287D01*
X0117516Y0184254D01*
X0117422Y0184218D01*
X0117329Y0184179D01*
X0117238Y0184136D01*
X0117239Y0184136D02*
X0117190Y0184117D01*
X0117142Y0184095D01*
X0117097Y0184069D01*
X0117053Y0184040D01*
X0117011Y0184008D01*
X0116972Y0183973D01*
X0116936Y0183935D01*
X0116903Y0183895D01*
X0116872Y0183852D01*
X0116845Y0183808D01*
X0116821Y0183761D01*
X0116800Y0183713D01*
X0116783Y0183663D01*
X0116770Y0183612D01*
X0116761Y0183561D01*
X0116755Y0183508D01*
X0116753Y0183456D01*
X0116755Y0183404D01*
X0116761Y0183351D01*
X0116770Y0183300D01*
X0116783Y0183249D01*
X0116800Y0183199D01*
X0116821Y0183151D01*
X0116845Y0183105D01*
X0116872Y0183060D01*
X0116903Y0183017D01*
X0116936Y0182977D01*
X0116972Y0182939D01*
X0117011Y0182904D01*
X0117053Y0182872D01*
X0117097Y0182843D01*
X0117142Y0182817D01*
X0117190Y0182795D01*
X0117239Y0182776D01*
X0116752Y0179928D02*
X0116752Y0177984D01*
X0118697Y0179637D01*
X0120252Y0179053D02*
X0120250Y0178989D01*
X0120245Y0178925D01*
X0120236Y0178861D01*
X0120223Y0178798D01*
X0120206Y0178736D01*
X0120187Y0178675D01*
X0120163Y0178615D01*
X0120137Y0178557D01*
X0120107Y0178500D01*
X0120073Y0178445D01*
X0120037Y0178392D01*
X0119998Y0178341D01*
X0119956Y0178293D01*
X0119911Y0178246D01*
X0119864Y0178203D01*
X0119814Y0178162D01*
X0119762Y0178125D01*
X0119708Y0178090D01*
X0119652Y0178058D01*
X0119594Y0178030D01*
X0119535Y0178005D01*
X0119474Y0177984D01*
X0118696Y0179636D02*
X0118738Y0179677D01*
X0118782Y0179716D01*
X0118829Y0179751D01*
X0118877Y0179784D01*
X0118928Y0179814D01*
X0118980Y0179840D01*
X0119034Y0179863D01*
X0119089Y0179883D01*
X0119145Y0179899D01*
X0119202Y0179912D01*
X0119260Y0179921D01*
X0119318Y0179926D01*
X0119377Y0179928D01*
X0119434Y0179926D01*
X0119491Y0179921D01*
X0119548Y0179911D01*
X0119603Y0179898D01*
X0119658Y0179882D01*
X0119712Y0179861D01*
X0119764Y0179838D01*
X0119815Y0179811D01*
X0119863Y0179781D01*
X0119910Y0179747D01*
X0119954Y0179711D01*
X0119996Y0179672D01*
X0120035Y0179630D01*
X0120071Y0179586D01*
X0120105Y0179539D01*
X0120135Y0179491D01*
X0120162Y0179440D01*
X0120185Y0179388D01*
X0120206Y0179334D01*
X0120222Y0179279D01*
X0120235Y0179224D01*
X0120245Y0179167D01*
X0120250Y0179110D01*
X0120252Y0179053D01*
X0118308Y0173134D02*
X0117919Y0173134D01*
X0117919Y0171578D01*
X0118308Y0171578D02*
X0117336Y0171578D01*
X0117336Y0171579D02*
X0117290Y0171581D01*
X0117245Y0171586D01*
X0117200Y0171595D01*
X0117156Y0171608D01*
X0117113Y0171623D01*
X0117071Y0171643D01*
X0117031Y0171665D01*
X0116993Y0171690D01*
X0116957Y0171719D01*
X0116924Y0171750D01*
X0116893Y0171783D01*
X0116864Y0171819D01*
X0116839Y0171857D01*
X0116817Y0171897D01*
X0116797Y0171939D01*
X0116782Y0171982D01*
X0116769Y0172026D01*
X0116760Y0172071D01*
X0116755Y0172116D01*
X0116753Y0172162D01*
X0116752Y0172162D02*
X0116752Y0173134D01*
X0118308Y0173134D02*
X0118364Y0173132D01*
X0118419Y0173126D01*
X0118473Y0173116D01*
X0118527Y0173102D01*
X0118580Y0173085D01*
X0118631Y0173064D01*
X0118681Y0173039D01*
X0118729Y0173010D01*
X0118774Y0172979D01*
X0118817Y0172944D01*
X0118858Y0172906D01*
X0118896Y0172865D01*
X0118931Y0172822D01*
X0118962Y0172777D01*
X0118991Y0172729D01*
X0119016Y0172679D01*
X0119037Y0172628D01*
X0119054Y0172575D01*
X0119068Y0172521D01*
X0119078Y0172467D01*
X0119084Y0172412D01*
X0119086Y0172356D01*
X0119084Y0172300D01*
X0119078Y0172245D01*
X0119068Y0172191D01*
X0119054Y0172137D01*
X0119037Y0172084D01*
X0119016Y0172033D01*
X0118991Y0171983D01*
X0118962Y0171935D01*
X0118931Y0171890D01*
X0118896Y0171847D01*
X0118858Y0171806D01*
X0118817Y0171768D01*
X0118774Y0171733D01*
X0118729Y0171702D01*
X0118681Y0171673D01*
X0118631Y0171648D01*
X0118580Y0171627D01*
X0118527Y0171610D01*
X0118473Y0171596D01*
X0118419Y0171586D01*
X0118364Y0171580D01*
X0118308Y0171578D01*
X0118502Y0169084D02*
X0116752Y0169084D01*
X0116752Y0167528D02*
X0119086Y0167528D01*
X0119086Y0168500D01*
X0119085Y0168500D02*
X0119083Y0168546D01*
X0119078Y0168591D01*
X0119069Y0168636D01*
X0119056Y0168680D01*
X0119041Y0168723D01*
X0119021Y0168765D01*
X0118999Y0168805D01*
X0118974Y0168843D01*
X0118945Y0168879D01*
X0118914Y0168912D01*
X0118881Y0168943D01*
X0118845Y0168972D01*
X0118807Y0168997D01*
X0118767Y0169019D01*
X0118725Y0169039D01*
X0118682Y0169054D01*
X0118638Y0169067D01*
X0118593Y0169076D01*
X0118548Y0169081D01*
X0118502Y0169083D01*
X0118308Y0165034D02*
X0117530Y0165034D01*
X0117474Y0165032D01*
X0117419Y0165026D01*
X0117365Y0165016D01*
X0117311Y0165002D01*
X0117258Y0164985D01*
X0117207Y0164964D01*
X0117157Y0164939D01*
X0117109Y0164910D01*
X0117064Y0164879D01*
X0117021Y0164844D01*
X0116980Y0164806D01*
X0116942Y0164765D01*
X0116907Y0164722D01*
X0116876Y0164677D01*
X0116847Y0164629D01*
X0116822Y0164579D01*
X0116801Y0164528D01*
X0116784Y0164475D01*
X0116770Y0164421D01*
X0116760Y0164367D01*
X0116754Y0164312D01*
X0116752Y0164256D01*
X0116754Y0164200D01*
X0116760Y0164145D01*
X0116770Y0164091D01*
X0116784Y0164037D01*
X0116801Y0163984D01*
X0116822Y0163933D01*
X0116847Y0163883D01*
X0116876Y0163835D01*
X0116907Y0163790D01*
X0116942Y0163747D01*
X0116980Y0163706D01*
X0117021Y0163668D01*
X0117064Y0163633D01*
X0117109Y0163602D01*
X0117157Y0163573D01*
X0117207Y0163548D01*
X0117258Y0163527D01*
X0117311Y0163510D01*
X0117365Y0163496D01*
X0117419Y0163486D01*
X0117474Y0163480D01*
X0117530Y0163478D01*
X0118308Y0163478D01*
X0118364Y0163480D01*
X0118419Y0163486D01*
X0118473Y0163496D01*
X0118527Y0163510D01*
X0118580Y0163527D01*
X0118631Y0163548D01*
X0118681Y0163573D01*
X0118729Y0163602D01*
X0118774Y0163633D01*
X0118817Y0163668D01*
X0118858Y0163706D01*
X0118896Y0163747D01*
X0118931Y0163790D01*
X0118962Y0163835D01*
X0118991Y0163883D01*
X0119016Y0163933D01*
X0119037Y0163984D01*
X0119054Y0164037D01*
X0119068Y0164091D01*
X0119078Y0164145D01*
X0119084Y0164200D01*
X0119086Y0164256D01*
X0119084Y0164312D01*
X0119078Y0164367D01*
X0119068Y0164421D01*
X0119054Y0164475D01*
X0119037Y0164528D01*
X0119016Y0164579D01*
X0118991Y0164629D01*
X0118962Y0164677D01*
X0118931Y0164722D01*
X0118896Y0164765D01*
X0118858Y0164806D01*
X0118817Y0164844D01*
X0118774Y0164879D01*
X0118729Y0164910D01*
X0118681Y0164939D01*
X0118631Y0164964D01*
X0118580Y0164985D01*
X0118527Y0165002D01*
X0118473Y0165016D01*
X0118419Y0165026D01*
X0118364Y0165032D01*
X0118308Y0165034D01*
X0119086Y0161303D02*
X0119086Y0160136D01*
X0120252Y0160525D02*
X0117336Y0160525D01*
X0117336Y0160526D02*
X0117290Y0160528D01*
X0117245Y0160533D01*
X0117200Y0160542D01*
X0117156Y0160555D01*
X0117113Y0160570D01*
X0117071Y0160590D01*
X0117031Y0160612D01*
X0116993Y0160637D01*
X0116957Y0160666D01*
X0116924Y0160697D01*
X0116893Y0160730D01*
X0116864Y0160766D01*
X0116839Y0160804D01*
X0116817Y0160844D01*
X0116797Y0160886D01*
X0116782Y0160929D01*
X0116769Y0160973D01*
X0116760Y0161018D01*
X0116755Y0161063D01*
X0116753Y0161109D01*
X0116752Y0161109D02*
X0116752Y0161303D01*
X0117725Y0157992D02*
X0118113Y0157020D01*
X0118114Y0157020D02*
X0118132Y0156980D01*
X0118153Y0156942D01*
X0118178Y0156906D01*
X0118206Y0156872D01*
X0118236Y0156841D01*
X0118269Y0156812D01*
X0118304Y0156786D01*
X0118342Y0156764D01*
X0118381Y0156745D01*
X0118422Y0156729D01*
X0118464Y0156717D01*
X0118507Y0156709D01*
X0118550Y0156704D01*
X0118594Y0156703D01*
X0118638Y0156706D01*
X0118681Y0156713D01*
X0118723Y0156723D01*
X0118765Y0156737D01*
X0118805Y0156755D01*
X0118843Y0156776D01*
X0118879Y0156800D01*
X0118913Y0156827D01*
X0118945Y0156857D01*
X0118974Y0156890D01*
X0119000Y0156925D01*
X0119023Y0156963D01*
X0119042Y0157002D01*
X0119058Y0157042D01*
X0119071Y0157084D01*
X0119080Y0157127D01*
X0119085Y0157171D01*
X0119086Y0157214D01*
X0116947Y0156728D02*
X0116912Y0156832D01*
X0116880Y0156936D01*
X0116851Y0157042D01*
X0116827Y0157148D01*
X0116805Y0157255D01*
X0116787Y0157363D01*
X0116773Y0157471D01*
X0116763Y0157580D01*
X0116756Y0157689D01*
X0116752Y0157798D01*
X0116753Y0157841D01*
X0116758Y0157885D01*
X0116767Y0157928D01*
X0116780Y0157970D01*
X0116796Y0158010D01*
X0116815Y0158049D01*
X0116838Y0158087D01*
X0116864Y0158122D01*
X0116893Y0158155D01*
X0116925Y0158185D01*
X0116959Y0158212D01*
X0116995Y0158236D01*
X0117033Y0158257D01*
X0117073Y0158275D01*
X0117115Y0158289D01*
X0117157Y0158299D01*
X0117200Y0158306D01*
X0117244Y0158309D01*
X0117288Y0158308D01*
X0117331Y0158303D01*
X0117374Y0158295D01*
X0117416Y0158283D01*
X0117457Y0158267D01*
X0117496Y0158248D01*
X0117534Y0158226D01*
X0117569Y0158200D01*
X0117602Y0158171D01*
X0117632Y0158140D01*
X0117660Y0158106D01*
X0117685Y0158070D01*
X0117706Y0158032D01*
X0117724Y0157992D01*
X0118891Y0158089D02*
X0118927Y0158006D01*
X0118959Y0157922D01*
X0118987Y0157836D01*
X0119012Y0157750D01*
X0119033Y0157662D01*
X0119051Y0157574D01*
X0119065Y0157484D01*
X0119076Y0157395D01*
X0119083Y0157305D01*
X0119086Y0157215D01*
D11*
X0103902Y0171460D02*
X0103902Y0172238D01*
X0103900Y0172287D01*
X0103894Y0172335D01*
X0103885Y0172383D01*
X0103872Y0172430D01*
X0103855Y0172476D01*
X0103834Y0172520D01*
X0103810Y0172563D01*
X0103783Y0172604D01*
X0103753Y0172642D01*
X0103720Y0172678D01*
X0103684Y0172711D01*
X0103646Y0172741D01*
X0103605Y0172768D01*
X0103562Y0172792D01*
X0103518Y0172813D01*
X0103472Y0172830D01*
X0103425Y0172843D01*
X0103377Y0172852D01*
X0103329Y0172858D01*
X0103280Y0172860D01*
X0103231Y0172858D01*
X0103183Y0172852D01*
X0103135Y0172843D01*
X0103088Y0172830D01*
X0103042Y0172813D01*
X0102998Y0172792D01*
X0102955Y0172768D01*
X0102914Y0172741D01*
X0102876Y0172711D01*
X0102840Y0172678D01*
X0102807Y0172642D01*
X0102777Y0172604D01*
X0102750Y0172563D01*
X0102726Y0172520D01*
X0102705Y0172476D01*
X0102688Y0172430D01*
X0102675Y0172383D01*
X0102666Y0172335D01*
X0102660Y0172287D01*
X0102658Y0172238D01*
X0102658Y0171460D01*
X0102658Y0172238D02*
X0102656Y0172294D01*
X0102650Y0172349D01*
X0102640Y0172403D01*
X0102626Y0172457D01*
X0102609Y0172510D01*
X0102588Y0172561D01*
X0102563Y0172611D01*
X0102534Y0172659D01*
X0102503Y0172704D01*
X0102468Y0172747D01*
X0102430Y0172788D01*
X0102389Y0172826D01*
X0102346Y0172861D01*
X0102301Y0172892D01*
X0102253Y0172921D01*
X0102203Y0172946D01*
X0102152Y0172967D01*
X0102099Y0172984D01*
X0102045Y0172998D01*
X0101991Y0173008D01*
X0101936Y0173014D01*
X0101880Y0173016D01*
X0101824Y0173014D01*
X0101769Y0173008D01*
X0101715Y0172998D01*
X0101661Y0172984D01*
X0101608Y0172967D01*
X0101557Y0172946D01*
X0101507Y0172921D01*
X0101459Y0172892D01*
X0101414Y0172861D01*
X0101371Y0172826D01*
X0101330Y0172788D01*
X0101292Y0172747D01*
X0101257Y0172704D01*
X0101226Y0172659D01*
X0101197Y0172611D01*
X0101172Y0172561D01*
X0101151Y0172510D01*
X0101134Y0172457D01*
X0101120Y0172403D01*
X0101110Y0172349D01*
X0101104Y0172294D01*
X0101102Y0172238D01*
X0101102Y0171460D01*
X0103902Y0171460D01*
X0103902Y0174676D02*
X0101569Y0174676D01*
X0101569Y0174675D02*
X0101528Y0174677D01*
X0101488Y0174682D01*
X0101448Y0174691D01*
X0101409Y0174703D01*
X0101372Y0174719D01*
X0101336Y0174738D01*
X0101301Y0174759D01*
X0101269Y0174784D01*
X0101239Y0174812D01*
X0101211Y0174842D01*
X0101186Y0174874D01*
X0101165Y0174909D01*
X0101146Y0174945D01*
X0101130Y0174982D01*
X0101118Y0175021D01*
X0101109Y0175061D01*
X0101104Y0175101D01*
X0101102Y0175142D01*
X0101102Y0177149D02*
X0101102Y0177849D01*
X0102502Y0177849D01*
X0102191Y0177849D02*
X0102191Y0177149D01*
X0102502Y0177850D02*
X0102543Y0177848D01*
X0102583Y0177843D01*
X0102623Y0177834D01*
X0102662Y0177822D01*
X0102699Y0177806D01*
X0102736Y0177787D01*
X0102770Y0177766D01*
X0102802Y0177741D01*
X0102832Y0177713D01*
X0102860Y0177683D01*
X0102885Y0177651D01*
X0102906Y0177617D01*
X0102925Y0177580D01*
X0102941Y0177543D01*
X0102953Y0177504D01*
X0102962Y0177464D01*
X0102967Y0177424D01*
X0102969Y0177383D01*
X0102969Y0176760D01*
X0102191Y0177149D02*
X0102189Y0177104D01*
X0102184Y0177059D01*
X0102174Y0177015D01*
X0102162Y0176972D01*
X0102145Y0176930D01*
X0102125Y0176890D01*
X0102102Y0176851D01*
X0102076Y0176815D01*
X0102047Y0176781D01*
X0102015Y0176749D01*
X0101981Y0176720D01*
X0101945Y0176694D01*
X0101906Y0176671D01*
X0101866Y0176651D01*
X0101824Y0176634D01*
X0101781Y0176622D01*
X0101737Y0176612D01*
X0101692Y0176607D01*
X0101647Y0176605D01*
X0101602Y0176607D01*
X0101557Y0176612D01*
X0101513Y0176622D01*
X0101470Y0176634D01*
X0101428Y0176651D01*
X0101388Y0176671D01*
X0101349Y0176694D01*
X0101313Y0176720D01*
X0101279Y0176749D01*
X0101247Y0176781D01*
X0101218Y0176815D01*
X0101192Y0176851D01*
X0101169Y0176890D01*
X0101149Y0176930D01*
X0101132Y0176972D01*
X0101120Y0177015D01*
X0101110Y0177059D01*
X0101105Y0177104D01*
X0101103Y0177149D01*
X0101102Y0180110D02*
X0103902Y0180110D01*
X0102969Y0181355D02*
X0102036Y0180110D01*
X0102425Y0180655D02*
X0101102Y0181355D01*
X0101569Y0183009D02*
X0102347Y0183009D01*
X0102036Y0183009D02*
X0102036Y0184253D01*
X0102347Y0184253D01*
X0102396Y0184251D01*
X0102444Y0184245D01*
X0102492Y0184236D01*
X0102539Y0184223D01*
X0102585Y0184206D01*
X0102629Y0184185D01*
X0102672Y0184161D01*
X0102713Y0184134D01*
X0102751Y0184104D01*
X0102787Y0184071D01*
X0102820Y0184035D01*
X0102850Y0183997D01*
X0102877Y0183956D01*
X0102901Y0183913D01*
X0102922Y0183869D01*
X0102939Y0183823D01*
X0102952Y0183776D01*
X0102961Y0183728D01*
X0102967Y0183680D01*
X0102969Y0183631D01*
X0102967Y0183582D01*
X0102961Y0183534D01*
X0102952Y0183486D01*
X0102939Y0183439D01*
X0102922Y0183393D01*
X0102901Y0183349D01*
X0102877Y0183306D01*
X0102850Y0183265D01*
X0102820Y0183227D01*
X0102787Y0183191D01*
X0102751Y0183158D01*
X0102713Y0183128D01*
X0102672Y0183101D01*
X0102629Y0183077D01*
X0102585Y0183056D01*
X0102539Y0183039D01*
X0102492Y0183026D01*
X0102444Y0183017D01*
X0102396Y0183011D01*
X0102347Y0183009D01*
X0101569Y0183009D02*
X0101528Y0183011D01*
X0101488Y0183016D01*
X0101448Y0183025D01*
X0101409Y0183037D01*
X0101372Y0183053D01*
X0101336Y0183072D01*
X0101301Y0183093D01*
X0101269Y0183118D01*
X0101239Y0183146D01*
X0101211Y0183176D01*
X0101186Y0183208D01*
X0101165Y0183243D01*
X0101146Y0183279D01*
X0101130Y0183316D01*
X0101118Y0183355D01*
X0101109Y0183395D01*
X0101104Y0183435D01*
X0101102Y0183476D01*
X0101102Y0184253D01*
X0102736Y0188402D02*
X0102269Y0189258D01*
X0101103Y0188947D02*
X0101105Y0188878D01*
X0101110Y0188809D01*
X0101119Y0188740D01*
X0101132Y0188672D01*
X0101148Y0188605D01*
X0101168Y0188539D01*
X0101191Y0188474D01*
X0101218Y0188410D01*
X0101248Y0188348D01*
X0101281Y0188287D01*
X0101317Y0188228D01*
X0101357Y0188171D01*
X0101399Y0188116D01*
X0101444Y0188064D01*
X0101492Y0188014D01*
X0102269Y0189258D02*
X0102244Y0189297D01*
X0102216Y0189335D01*
X0102185Y0189370D01*
X0102152Y0189403D01*
X0102116Y0189433D01*
X0102078Y0189461D01*
X0102039Y0189486D01*
X0101997Y0189507D01*
X0101954Y0189526D01*
X0101910Y0189541D01*
X0101864Y0189553D01*
X0101818Y0189562D01*
X0101772Y0189567D01*
X0101725Y0189569D01*
X0101676Y0189567D01*
X0101628Y0189561D01*
X0101580Y0189552D01*
X0101533Y0189539D01*
X0101487Y0189522D01*
X0101443Y0189501D01*
X0101400Y0189477D01*
X0101359Y0189450D01*
X0101321Y0189420D01*
X0101285Y0189387D01*
X0101252Y0189351D01*
X0101222Y0189313D01*
X0101195Y0189272D01*
X0101171Y0189229D01*
X0101150Y0189185D01*
X0101133Y0189139D01*
X0101120Y0189092D01*
X0101111Y0189044D01*
X0101105Y0188996D01*
X0101103Y0188947D01*
X0103670Y0189413D02*
X0103706Y0189362D01*
X0103739Y0189309D01*
X0103770Y0189255D01*
X0103797Y0189198D01*
X0103822Y0189141D01*
X0103843Y0189082D01*
X0103861Y0189022D01*
X0103876Y0188961D01*
X0103888Y0188900D01*
X0103896Y0188838D01*
X0103901Y0188776D01*
X0103903Y0188713D01*
X0103902Y0188713D02*
X0103900Y0188664D01*
X0103894Y0188616D01*
X0103885Y0188568D01*
X0103872Y0188521D01*
X0103855Y0188475D01*
X0103834Y0188431D01*
X0103810Y0188388D01*
X0103783Y0188347D01*
X0103753Y0188309D01*
X0103720Y0188273D01*
X0103684Y0188240D01*
X0103646Y0188210D01*
X0103605Y0188183D01*
X0103562Y0188159D01*
X0103518Y0188138D01*
X0103472Y0188121D01*
X0103425Y0188108D01*
X0103377Y0188099D01*
X0103329Y0188093D01*
X0103280Y0188091D01*
X0103233Y0188093D01*
X0103187Y0188098D01*
X0103141Y0188107D01*
X0103095Y0188119D01*
X0103051Y0188134D01*
X0103008Y0188153D01*
X0102966Y0188174D01*
X0102927Y0188199D01*
X0102889Y0188227D01*
X0102853Y0188257D01*
X0102820Y0188290D01*
X0102789Y0188325D01*
X0102761Y0188363D01*
X0102736Y0188402D01*
X0102969Y0191015D02*
X0102969Y0191949D01*
X0103902Y0191326D02*
X0101569Y0191326D01*
X0101528Y0191328D01*
X0101488Y0191333D01*
X0101448Y0191342D01*
X0101409Y0191354D01*
X0101372Y0191370D01*
X0101336Y0191389D01*
X0101301Y0191410D01*
X0101269Y0191435D01*
X0101239Y0191463D01*
X0101211Y0191493D01*
X0101186Y0191525D01*
X0101165Y0191560D01*
X0101146Y0191596D01*
X0101130Y0191633D01*
X0101118Y0191672D01*
X0101109Y0191712D01*
X0101104Y0191752D01*
X0101102Y0191793D01*
X0101102Y0191949D01*
X0101102Y0194189D02*
X0101102Y0194889D01*
X0102502Y0194889D01*
X0102191Y0194889D02*
X0102191Y0194189D01*
X0102502Y0194890D02*
X0102543Y0194888D01*
X0102583Y0194883D01*
X0102623Y0194874D01*
X0102662Y0194862D01*
X0102699Y0194846D01*
X0102736Y0194827D01*
X0102770Y0194806D01*
X0102802Y0194781D01*
X0102832Y0194753D01*
X0102860Y0194723D01*
X0102885Y0194691D01*
X0102906Y0194657D01*
X0102925Y0194620D01*
X0102941Y0194583D01*
X0102953Y0194544D01*
X0102962Y0194504D01*
X0102967Y0194464D01*
X0102969Y0194423D01*
X0102969Y0193800D01*
X0102191Y0194189D02*
X0102189Y0194144D01*
X0102184Y0194099D01*
X0102174Y0194055D01*
X0102162Y0194012D01*
X0102145Y0193970D01*
X0102125Y0193930D01*
X0102102Y0193891D01*
X0102076Y0193855D01*
X0102047Y0193821D01*
X0102015Y0193789D01*
X0101981Y0193760D01*
X0101945Y0193734D01*
X0101906Y0193711D01*
X0101866Y0193691D01*
X0101824Y0193674D01*
X0101781Y0193662D01*
X0101737Y0193652D01*
X0101692Y0193647D01*
X0101647Y0193645D01*
X0101602Y0193647D01*
X0101557Y0193652D01*
X0101513Y0193662D01*
X0101470Y0193674D01*
X0101428Y0193691D01*
X0101388Y0193711D01*
X0101349Y0193734D01*
X0101313Y0193760D01*
X0101279Y0193789D01*
X0101247Y0193821D01*
X0101218Y0193855D01*
X0101192Y0193891D01*
X0101169Y0193930D01*
X0101149Y0193970D01*
X0101132Y0194012D01*
X0101120Y0194055D01*
X0101110Y0194099D01*
X0101105Y0194144D01*
X0101103Y0194189D01*
X0101569Y0196885D02*
X0102502Y0196885D01*
X0102502Y0196884D02*
X0102543Y0196886D01*
X0102583Y0196891D01*
X0102623Y0196900D01*
X0102662Y0196912D01*
X0102699Y0196928D01*
X0102736Y0196947D01*
X0102770Y0196968D01*
X0102802Y0196993D01*
X0102832Y0197021D01*
X0102860Y0197051D01*
X0102885Y0197083D01*
X0102906Y0197118D01*
X0102925Y0197154D01*
X0102941Y0197191D01*
X0102953Y0197230D01*
X0102962Y0197270D01*
X0102967Y0197310D01*
X0102969Y0197351D01*
X0102969Y0198129D01*
X0103902Y0198129D02*
X0101102Y0198129D01*
X0101102Y0197351D01*
X0101104Y0197310D01*
X0101109Y0197270D01*
X0101118Y0197230D01*
X0101130Y0197191D01*
X0101146Y0197154D01*
X0101165Y0197118D01*
X0101186Y0197083D01*
X0101211Y0197051D01*
X0101239Y0197021D01*
X0101269Y0196993D01*
X0101301Y0196968D01*
X0101336Y0196947D01*
X0101372Y0196928D01*
X0101409Y0196912D01*
X0101448Y0196900D01*
X0101488Y0196891D01*
X0101528Y0196886D01*
X0101569Y0196884D01*
X0101102Y0200289D02*
X0102969Y0200289D01*
X0102969Y0201067D01*
X0102967Y0201108D01*
X0102962Y0201148D01*
X0102953Y0201188D01*
X0102941Y0201227D01*
X0102925Y0201264D01*
X0102906Y0201301D01*
X0102885Y0201335D01*
X0102860Y0201367D01*
X0102832Y0201397D01*
X0102802Y0201425D01*
X0102770Y0201450D01*
X0102736Y0201471D01*
X0102699Y0201490D01*
X0102662Y0201506D01*
X0102623Y0201518D01*
X0102583Y0201527D01*
X0102543Y0201532D01*
X0102502Y0201534D01*
X0102502Y0201533D02*
X0101102Y0201533D01*
X0100169Y0203409D02*
X0100169Y0203720D01*
X0102969Y0204653D01*
X0102969Y0203409D02*
X0101102Y0204031D01*
X0101102Y0206630D02*
X0103902Y0206630D01*
X0102969Y0207874D02*
X0102036Y0206630D01*
X0102425Y0207174D02*
X0101102Y0207874D01*
X0096969Y0207329D02*
X0096969Y0206551D01*
X0094169Y0206551D01*
X0095102Y0206551D02*
X0095102Y0207329D01*
X0095104Y0207370D01*
X0095109Y0207410D01*
X0095118Y0207450D01*
X0095130Y0207489D01*
X0095146Y0207526D01*
X0095165Y0207563D01*
X0095186Y0207597D01*
X0095211Y0207629D01*
X0095239Y0207659D01*
X0095269Y0207687D01*
X0095301Y0207712D01*
X0095336Y0207733D01*
X0095372Y0207752D01*
X0095409Y0207768D01*
X0095448Y0207780D01*
X0095488Y0207789D01*
X0095528Y0207794D01*
X0095569Y0207796D01*
X0095569Y0207795D02*
X0096502Y0207795D01*
X0096502Y0207796D02*
X0096543Y0207794D01*
X0096583Y0207789D01*
X0096623Y0207780D01*
X0096662Y0207768D01*
X0096699Y0207752D01*
X0096736Y0207733D01*
X0096770Y0207712D01*
X0096802Y0207687D01*
X0096832Y0207659D01*
X0096860Y0207629D01*
X0096885Y0207597D01*
X0096906Y0207563D01*
X0096925Y0207526D01*
X0096941Y0207489D01*
X0096953Y0207450D01*
X0096962Y0207410D01*
X0096967Y0207370D01*
X0096969Y0207329D01*
X0096347Y0204511D02*
X0095725Y0204511D01*
X0095676Y0204509D01*
X0095628Y0204503D01*
X0095580Y0204494D01*
X0095533Y0204481D01*
X0095487Y0204464D01*
X0095443Y0204443D01*
X0095400Y0204419D01*
X0095359Y0204392D01*
X0095321Y0204362D01*
X0095285Y0204329D01*
X0095252Y0204293D01*
X0095222Y0204255D01*
X0095195Y0204214D01*
X0095171Y0204171D01*
X0095150Y0204127D01*
X0095133Y0204081D01*
X0095120Y0204034D01*
X0095111Y0203986D01*
X0095105Y0203938D01*
X0095103Y0203889D01*
X0095105Y0203840D01*
X0095111Y0203792D01*
X0095120Y0203744D01*
X0095133Y0203697D01*
X0095150Y0203651D01*
X0095171Y0203607D01*
X0095195Y0203564D01*
X0095222Y0203523D01*
X0095252Y0203485D01*
X0095285Y0203449D01*
X0095321Y0203416D01*
X0095359Y0203386D01*
X0095400Y0203359D01*
X0095443Y0203335D01*
X0095487Y0203314D01*
X0095533Y0203297D01*
X0095580Y0203284D01*
X0095628Y0203275D01*
X0095676Y0203269D01*
X0095725Y0203267D01*
X0096347Y0203267D01*
X0096396Y0203269D01*
X0096444Y0203275D01*
X0096492Y0203284D01*
X0096539Y0203297D01*
X0096585Y0203314D01*
X0096629Y0203335D01*
X0096672Y0203359D01*
X0096713Y0203386D01*
X0096751Y0203416D01*
X0096787Y0203449D01*
X0096820Y0203485D01*
X0096850Y0203523D01*
X0096877Y0203564D01*
X0096901Y0203607D01*
X0096922Y0203651D01*
X0096939Y0203697D01*
X0096952Y0203744D01*
X0096961Y0203792D01*
X0096967Y0203840D01*
X0096969Y0203889D01*
X0096967Y0203938D01*
X0096961Y0203986D01*
X0096952Y0204034D01*
X0096939Y0204081D01*
X0096922Y0204127D01*
X0096901Y0204171D01*
X0096877Y0204214D01*
X0096850Y0204255D01*
X0096820Y0204293D01*
X0096787Y0204329D01*
X0096751Y0204362D01*
X0096713Y0204392D01*
X0096672Y0204419D01*
X0096629Y0204443D01*
X0096585Y0204464D01*
X0096539Y0204481D01*
X0096492Y0204494D01*
X0096444Y0204503D01*
X0096396Y0204509D01*
X0096347Y0204511D01*
X0095102Y0201760D02*
X0095104Y0201719D01*
X0095109Y0201679D01*
X0095118Y0201639D01*
X0095130Y0201600D01*
X0095146Y0201563D01*
X0095165Y0201527D01*
X0095186Y0201492D01*
X0095211Y0201460D01*
X0095239Y0201430D01*
X0095269Y0201402D01*
X0095301Y0201377D01*
X0095336Y0201356D01*
X0095372Y0201337D01*
X0095409Y0201321D01*
X0095448Y0201309D01*
X0095488Y0201300D01*
X0095528Y0201295D01*
X0095569Y0201293D01*
X0095569Y0201294D02*
X0097902Y0201294D01*
X0096502Y0199351D02*
X0095102Y0199351D01*
X0095102Y0198107D02*
X0096969Y0198107D01*
X0096969Y0198885D01*
X0096967Y0198926D01*
X0096962Y0198966D01*
X0096953Y0199006D01*
X0096941Y0199045D01*
X0096925Y0199082D01*
X0096906Y0199119D01*
X0096885Y0199153D01*
X0096860Y0199185D01*
X0096832Y0199215D01*
X0096802Y0199243D01*
X0096770Y0199268D01*
X0096736Y0199289D01*
X0096699Y0199308D01*
X0096662Y0199324D01*
X0096623Y0199336D01*
X0096583Y0199345D01*
X0096543Y0199350D01*
X0096502Y0199352D01*
X0096969Y0195991D02*
X0095102Y0195991D01*
X0095102Y0195213D01*
X0095104Y0195172D01*
X0095109Y0195132D01*
X0095118Y0195092D01*
X0095130Y0195053D01*
X0095146Y0195016D01*
X0095165Y0194980D01*
X0095186Y0194945D01*
X0095211Y0194913D01*
X0095239Y0194883D01*
X0095269Y0194855D01*
X0095301Y0194830D01*
X0095336Y0194809D01*
X0095372Y0194790D01*
X0095409Y0194774D01*
X0095448Y0194762D01*
X0095488Y0194753D01*
X0095528Y0194748D01*
X0095569Y0194746D01*
X0095569Y0194747D02*
X0096969Y0194747D01*
X0097125Y0192547D02*
X0095880Y0192547D01*
X0095824Y0192545D01*
X0095769Y0192539D01*
X0095715Y0192529D01*
X0095661Y0192515D01*
X0095608Y0192498D01*
X0095557Y0192477D01*
X0095507Y0192452D01*
X0095459Y0192423D01*
X0095414Y0192392D01*
X0095371Y0192357D01*
X0095330Y0192319D01*
X0095292Y0192278D01*
X0095257Y0192235D01*
X0095226Y0192190D01*
X0095197Y0192142D01*
X0095172Y0192092D01*
X0095151Y0192041D01*
X0095134Y0191988D01*
X0095120Y0191934D01*
X0095110Y0191880D01*
X0095104Y0191825D01*
X0095102Y0191769D01*
X0095102Y0190991D01*
X0097902Y0190991D01*
X0097902Y0191769D01*
X0097903Y0191769D02*
X0097901Y0191825D01*
X0097895Y0191880D01*
X0097885Y0191934D01*
X0097871Y0191988D01*
X0097854Y0192041D01*
X0097833Y0192092D01*
X0097808Y0192142D01*
X0097779Y0192190D01*
X0097748Y0192235D01*
X0097713Y0192278D01*
X0097675Y0192319D01*
X0097634Y0192357D01*
X0097591Y0192392D01*
X0097546Y0192423D01*
X0097498Y0192452D01*
X0097448Y0192477D01*
X0097397Y0192498D01*
X0097344Y0192515D01*
X0097290Y0192529D01*
X0097236Y0192539D01*
X0097181Y0192545D01*
X0097125Y0192547D01*
X0096969Y0187111D02*
X0094169Y0186178D01*
X0094169Y0185867D01*
X0095102Y0186489D02*
X0096969Y0185867D01*
X0096969Y0183947D02*
X0096969Y0183169D01*
X0096967Y0183128D01*
X0096962Y0183088D01*
X0096953Y0183048D01*
X0096941Y0183009D01*
X0096925Y0182972D01*
X0096906Y0182936D01*
X0096885Y0182901D01*
X0096860Y0182869D01*
X0096832Y0182839D01*
X0096802Y0182811D01*
X0096770Y0182786D01*
X0096736Y0182765D01*
X0096699Y0182746D01*
X0096662Y0182730D01*
X0096623Y0182718D01*
X0096583Y0182709D01*
X0096543Y0182704D01*
X0096502Y0182702D01*
X0096502Y0182703D02*
X0095569Y0182703D01*
X0095569Y0182702D02*
X0095528Y0182704D01*
X0095488Y0182709D01*
X0095448Y0182718D01*
X0095409Y0182730D01*
X0095372Y0182746D01*
X0095336Y0182765D01*
X0095301Y0182786D01*
X0095269Y0182811D01*
X0095239Y0182839D01*
X0095211Y0182869D01*
X0095186Y0182901D01*
X0095165Y0182936D01*
X0095146Y0182972D01*
X0095130Y0183009D01*
X0095118Y0183048D01*
X0095109Y0183088D01*
X0095104Y0183128D01*
X0095102Y0183169D01*
X0095102Y0183947D01*
X0097902Y0183947D01*
X0096347Y0180871D02*
X0095725Y0180871D01*
X0095676Y0180869D01*
X0095628Y0180863D01*
X0095580Y0180854D01*
X0095533Y0180841D01*
X0095487Y0180824D01*
X0095443Y0180803D01*
X0095400Y0180779D01*
X0095359Y0180752D01*
X0095321Y0180722D01*
X0095285Y0180689D01*
X0095252Y0180653D01*
X0095222Y0180615D01*
X0095195Y0180574D01*
X0095171Y0180531D01*
X0095150Y0180487D01*
X0095133Y0180441D01*
X0095120Y0180394D01*
X0095111Y0180346D01*
X0095105Y0180298D01*
X0095103Y0180249D01*
X0095105Y0180200D01*
X0095111Y0180152D01*
X0095120Y0180104D01*
X0095133Y0180057D01*
X0095150Y0180011D01*
X0095171Y0179967D01*
X0095195Y0179924D01*
X0095222Y0179883D01*
X0095252Y0179845D01*
X0095285Y0179809D01*
X0095321Y0179776D01*
X0095359Y0179746D01*
X0095400Y0179719D01*
X0095443Y0179695D01*
X0095487Y0179674D01*
X0095533Y0179657D01*
X0095580Y0179644D01*
X0095628Y0179635D01*
X0095676Y0179629D01*
X0095725Y0179627D01*
X0096347Y0179627D01*
X0096396Y0179629D01*
X0096444Y0179635D01*
X0096492Y0179644D01*
X0096539Y0179657D01*
X0096585Y0179674D01*
X0096629Y0179695D01*
X0096672Y0179719D01*
X0096713Y0179746D01*
X0096751Y0179776D01*
X0096787Y0179809D01*
X0096820Y0179845D01*
X0096850Y0179883D01*
X0096877Y0179924D01*
X0096901Y0179967D01*
X0096922Y0180011D01*
X0096939Y0180057D01*
X0096952Y0180104D01*
X0096961Y0180152D01*
X0096967Y0180200D01*
X0096969Y0180249D01*
X0096967Y0180298D01*
X0096961Y0180346D01*
X0096952Y0180394D01*
X0096939Y0180441D01*
X0096922Y0180487D01*
X0096901Y0180531D01*
X0096877Y0180574D01*
X0096850Y0180615D01*
X0096820Y0180653D01*
X0096787Y0180689D01*
X0096751Y0180722D01*
X0096713Y0180752D01*
X0096672Y0180779D01*
X0096629Y0180803D01*
X0096585Y0180824D01*
X0096539Y0180841D01*
X0096492Y0180854D01*
X0096444Y0180863D01*
X0096396Y0180869D01*
X0096347Y0180871D01*
X0096658Y0178210D02*
X0096969Y0178210D01*
X0096969Y0177277D01*
X0095102Y0177277D01*
X0095102Y0174616D02*
X0095102Y0173838D01*
X0097902Y0173838D01*
X0097902Y0174616D01*
X0097900Y0174665D01*
X0097894Y0174713D01*
X0097885Y0174761D01*
X0097872Y0174808D01*
X0097855Y0174854D01*
X0097834Y0174898D01*
X0097810Y0174941D01*
X0097783Y0174982D01*
X0097753Y0175020D01*
X0097720Y0175056D01*
X0097684Y0175089D01*
X0097646Y0175119D01*
X0097605Y0175146D01*
X0097562Y0175170D01*
X0097518Y0175191D01*
X0097472Y0175208D01*
X0097425Y0175221D01*
X0097377Y0175230D01*
X0097329Y0175236D01*
X0097280Y0175238D01*
X0097231Y0175236D01*
X0097183Y0175230D01*
X0097135Y0175221D01*
X0097088Y0175208D01*
X0097042Y0175191D01*
X0096998Y0175170D01*
X0096955Y0175146D01*
X0096914Y0175119D01*
X0096876Y0175089D01*
X0096840Y0175056D01*
X0096807Y0175020D01*
X0096777Y0174982D01*
X0096750Y0174941D01*
X0096726Y0174898D01*
X0096705Y0174854D01*
X0096688Y0174808D01*
X0096675Y0174761D01*
X0096666Y0174713D01*
X0096660Y0174665D01*
X0096658Y0174616D01*
X0096658Y0173838D01*
X0096658Y0174616D02*
X0096656Y0174672D01*
X0096650Y0174727D01*
X0096640Y0174781D01*
X0096626Y0174835D01*
X0096609Y0174888D01*
X0096588Y0174939D01*
X0096563Y0174989D01*
X0096534Y0175037D01*
X0096503Y0175082D01*
X0096468Y0175125D01*
X0096430Y0175166D01*
X0096389Y0175204D01*
X0096346Y0175239D01*
X0096301Y0175270D01*
X0096253Y0175299D01*
X0096203Y0175324D01*
X0096152Y0175345D01*
X0096099Y0175362D01*
X0096045Y0175376D01*
X0095991Y0175386D01*
X0095936Y0175392D01*
X0095880Y0175394D01*
X0095824Y0175392D01*
X0095769Y0175386D01*
X0095715Y0175376D01*
X0095661Y0175362D01*
X0095608Y0175345D01*
X0095557Y0175324D01*
X0095507Y0175299D01*
X0095459Y0175270D01*
X0095414Y0175239D01*
X0095371Y0175204D01*
X0095330Y0175166D01*
X0095292Y0175125D01*
X0095257Y0175082D01*
X0095226Y0175037D01*
X0095197Y0174989D01*
X0095172Y0174939D01*
X0095151Y0174888D01*
X0095134Y0174835D01*
X0095120Y0174781D01*
X0095110Y0174727D01*
X0095104Y0174672D01*
X0095102Y0174616D01*
X0091902Y0174371D02*
X0091902Y0173594D01*
X0089102Y0173594D01*
X0090347Y0173594D02*
X0090347Y0174371D01*
X0090347Y0174527D02*
X0089102Y0175149D01*
X0089725Y0177054D02*
X0090347Y0177054D01*
X0090396Y0177056D01*
X0090444Y0177062D01*
X0090492Y0177071D01*
X0090539Y0177084D01*
X0090585Y0177101D01*
X0090629Y0177122D01*
X0090672Y0177146D01*
X0090713Y0177173D01*
X0090751Y0177203D01*
X0090787Y0177236D01*
X0090820Y0177272D01*
X0090850Y0177310D01*
X0090877Y0177351D01*
X0090901Y0177394D01*
X0090922Y0177438D01*
X0090939Y0177484D01*
X0090952Y0177531D01*
X0090961Y0177579D01*
X0090967Y0177627D01*
X0090969Y0177676D01*
X0090967Y0177725D01*
X0090961Y0177773D01*
X0090952Y0177821D01*
X0090939Y0177868D01*
X0090922Y0177914D01*
X0090901Y0177958D01*
X0090877Y0178001D01*
X0090850Y0178042D01*
X0090820Y0178080D01*
X0090787Y0178116D01*
X0090751Y0178149D01*
X0090713Y0178179D01*
X0090672Y0178206D01*
X0090629Y0178230D01*
X0090585Y0178251D01*
X0090539Y0178268D01*
X0090492Y0178281D01*
X0090444Y0178290D01*
X0090396Y0178296D01*
X0090347Y0178298D01*
X0089725Y0178298D01*
X0089676Y0178296D01*
X0089628Y0178290D01*
X0089580Y0178281D01*
X0089533Y0178268D01*
X0089487Y0178251D01*
X0089443Y0178230D01*
X0089400Y0178206D01*
X0089359Y0178179D01*
X0089321Y0178149D01*
X0089285Y0178116D01*
X0089252Y0178080D01*
X0089222Y0178042D01*
X0089195Y0178001D01*
X0089171Y0177958D01*
X0089150Y0177914D01*
X0089133Y0177868D01*
X0089120Y0177821D01*
X0089111Y0177773D01*
X0089105Y0177725D01*
X0089103Y0177676D01*
X0089105Y0177627D01*
X0089111Y0177579D01*
X0089120Y0177531D01*
X0089133Y0177484D01*
X0089150Y0177438D01*
X0089171Y0177394D01*
X0089195Y0177351D01*
X0089222Y0177310D01*
X0089252Y0177272D01*
X0089285Y0177236D01*
X0089321Y0177203D01*
X0089359Y0177173D01*
X0089400Y0177146D01*
X0089443Y0177122D01*
X0089487Y0177101D01*
X0089533Y0177084D01*
X0089580Y0177071D01*
X0089628Y0177062D01*
X0089676Y0177056D01*
X0089725Y0177054D01*
X0090347Y0174371D02*
X0090349Y0174427D01*
X0090355Y0174482D01*
X0090365Y0174536D01*
X0090379Y0174590D01*
X0090396Y0174643D01*
X0090417Y0174694D01*
X0090442Y0174744D01*
X0090471Y0174792D01*
X0090502Y0174837D01*
X0090537Y0174880D01*
X0090575Y0174921D01*
X0090616Y0174959D01*
X0090659Y0174994D01*
X0090704Y0175025D01*
X0090752Y0175054D01*
X0090802Y0175079D01*
X0090853Y0175100D01*
X0090906Y0175117D01*
X0090960Y0175131D01*
X0091014Y0175141D01*
X0091069Y0175147D01*
X0091125Y0175149D01*
X0091181Y0175147D01*
X0091236Y0175141D01*
X0091290Y0175131D01*
X0091344Y0175117D01*
X0091397Y0175100D01*
X0091448Y0175079D01*
X0091498Y0175054D01*
X0091546Y0175025D01*
X0091591Y0174994D01*
X0091634Y0174959D01*
X0091675Y0174921D01*
X0091713Y0174880D01*
X0091748Y0174837D01*
X0091779Y0174792D01*
X0091808Y0174744D01*
X0091833Y0174694D01*
X0091854Y0174643D01*
X0091871Y0174590D01*
X0091885Y0174536D01*
X0091895Y0174482D01*
X0091901Y0174427D01*
X0091903Y0174371D01*
X0090969Y0180344D02*
X0089102Y0180344D01*
X0090658Y0181277D02*
X0090969Y0181277D01*
X0090969Y0180344D01*
X0090969Y0182574D02*
X0089102Y0183196D01*
X0088169Y0182885D02*
X0090969Y0183818D01*
X0090658Y0187698D02*
X0090658Y0189254D01*
X0091902Y0189254D02*
X0089102Y0189254D01*
X0089102Y0187698D02*
X0091902Y0187698D01*
X0090969Y0191445D02*
X0090969Y0192068D01*
X0090967Y0192109D01*
X0090962Y0192149D01*
X0090953Y0192189D01*
X0090941Y0192228D01*
X0090925Y0192265D01*
X0090906Y0192302D01*
X0090885Y0192336D01*
X0090860Y0192368D01*
X0090832Y0192398D01*
X0090802Y0192426D01*
X0090770Y0192451D01*
X0090736Y0192472D01*
X0090699Y0192491D01*
X0090662Y0192507D01*
X0090623Y0192519D01*
X0090583Y0192528D01*
X0090543Y0192533D01*
X0090502Y0192535D01*
X0090502Y0192534D02*
X0089102Y0192534D01*
X0089102Y0191834D01*
X0089103Y0191834D02*
X0089105Y0191789D01*
X0089110Y0191744D01*
X0089120Y0191700D01*
X0089132Y0191657D01*
X0089149Y0191615D01*
X0089169Y0191575D01*
X0089192Y0191536D01*
X0089218Y0191500D01*
X0089247Y0191466D01*
X0089279Y0191434D01*
X0089313Y0191405D01*
X0089349Y0191379D01*
X0089388Y0191356D01*
X0089428Y0191336D01*
X0089470Y0191319D01*
X0089513Y0191307D01*
X0089557Y0191297D01*
X0089602Y0191292D01*
X0089647Y0191290D01*
X0089692Y0191292D01*
X0089737Y0191297D01*
X0089781Y0191307D01*
X0089824Y0191319D01*
X0089866Y0191336D01*
X0089906Y0191356D01*
X0089945Y0191379D01*
X0089981Y0191405D01*
X0090015Y0191434D01*
X0090047Y0191466D01*
X0090076Y0191500D01*
X0090102Y0191536D01*
X0090125Y0191575D01*
X0090145Y0191615D01*
X0090162Y0191657D01*
X0090174Y0191700D01*
X0090184Y0191744D01*
X0090189Y0191789D01*
X0090191Y0191834D01*
X0090191Y0192534D01*
X0090969Y0194694D02*
X0090969Y0195472D01*
X0090967Y0195513D01*
X0090962Y0195553D01*
X0090953Y0195593D01*
X0090941Y0195632D01*
X0090925Y0195669D01*
X0090906Y0195706D01*
X0090885Y0195740D01*
X0090860Y0195772D01*
X0090832Y0195802D01*
X0090802Y0195830D01*
X0090770Y0195855D01*
X0090736Y0195876D01*
X0090699Y0195895D01*
X0090662Y0195911D01*
X0090623Y0195923D01*
X0090583Y0195932D01*
X0090543Y0195937D01*
X0090502Y0195939D01*
X0090502Y0195938D02*
X0089102Y0195938D01*
X0089102Y0194694D02*
X0090969Y0194694D01*
X0090502Y0197944D02*
X0089569Y0197944D01*
X0089528Y0197946D01*
X0089488Y0197951D01*
X0089448Y0197960D01*
X0089409Y0197972D01*
X0089372Y0197988D01*
X0089336Y0198007D01*
X0089301Y0198028D01*
X0089269Y0198053D01*
X0089239Y0198081D01*
X0089211Y0198111D01*
X0089186Y0198143D01*
X0089165Y0198178D01*
X0089146Y0198214D01*
X0089130Y0198251D01*
X0089118Y0198290D01*
X0089109Y0198330D01*
X0089104Y0198370D01*
X0089102Y0198411D01*
X0089102Y0199033D01*
X0090502Y0197944D02*
X0090543Y0197946D01*
X0090583Y0197951D01*
X0090623Y0197960D01*
X0090662Y0197972D01*
X0090699Y0197988D01*
X0090736Y0198007D01*
X0090770Y0198028D01*
X0090802Y0198053D01*
X0090832Y0198081D01*
X0090860Y0198111D01*
X0090885Y0198143D01*
X0090906Y0198178D01*
X0090925Y0198214D01*
X0090941Y0198251D01*
X0090953Y0198290D01*
X0090962Y0198330D01*
X0090967Y0198370D01*
X0090969Y0198411D01*
X0090969Y0199033D01*
X0090347Y0200694D02*
X0089725Y0200694D01*
X0089676Y0200696D01*
X0089628Y0200702D01*
X0089580Y0200711D01*
X0089533Y0200724D01*
X0089487Y0200741D01*
X0089443Y0200762D01*
X0089400Y0200786D01*
X0089359Y0200813D01*
X0089321Y0200843D01*
X0089285Y0200876D01*
X0089252Y0200912D01*
X0089222Y0200950D01*
X0089195Y0200991D01*
X0089171Y0201034D01*
X0089150Y0201078D01*
X0089133Y0201124D01*
X0089120Y0201171D01*
X0089111Y0201219D01*
X0089105Y0201267D01*
X0089103Y0201316D01*
X0089105Y0201365D01*
X0089111Y0201413D01*
X0089120Y0201461D01*
X0089133Y0201508D01*
X0089150Y0201554D01*
X0089171Y0201598D01*
X0089195Y0201641D01*
X0089222Y0201682D01*
X0089252Y0201720D01*
X0089285Y0201756D01*
X0089321Y0201789D01*
X0089359Y0201819D01*
X0089400Y0201846D01*
X0089443Y0201870D01*
X0089487Y0201891D01*
X0089533Y0201908D01*
X0089580Y0201921D01*
X0089628Y0201930D01*
X0089676Y0201936D01*
X0089725Y0201938D01*
X0090347Y0201938D01*
X0090396Y0201936D01*
X0090444Y0201930D01*
X0090492Y0201921D01*
X0090539Y0201908D01*
X0090585Y0201891D01*
X0090629Y0201870D01*
X0090672Y0201846D01*
X0090713Y0201819D01*
X0090751Y0201789D01*
X0090787Y0201756D01*
X0090820Y0201720D01*
X0090850Y0201682D01*
X0090877Y0201641D01*
X0090901Y0201598D01*
X0090922Y0201554D01*
X0090939Y0201508D01*
X0090952Y0201461D01*
X0090961Y0201413D01*
X0090967Y0201365D01*
X0090969Y0201316D01*
X0090967Y0201267D01*
X0090961Y0201219D01*
X0090952Y0201171D01*
X0090939Y0201124D01*
X0090922Y0201078D01*
X0090901Y0201034D01*
X0090877Y0200991D01*
X0090850Y0200950D01*
X0090820Y0200912D01*
X0090787Y0200876D01*
X0090751Y0200843D01*
X0090713Y0200813D01*
X0090672Y0200786D01*
X0090629Y0200762D01*
X0090585Y0200741D01*
X0090539Y0200724D01*
X0090492Y0200711D01*
X0090444Y0200702D01*
X0090396Y0200696D01*
X0090347Y0200694D01*
X0090502Y0203824D02*
X0089569Y0203824D01*
X0089569Y0203823D02*
X0089528Y0203825D01*
X0089488Y0203830D01*
X0089448Y0203839D01*
X0089409Y0203851D01*
X0089372Y0203867D01*
X0089336Y0203886D01*
X0089301Y0203907D01*
X0089269Y0203932D01*
X0089239Y0203960D01*
X0089211Y0203990D01*
X0089186Y0204022D01*
X0089165Y0204057D01*
X0089146Y0204093D01*
X0089130Y0204130D01*
X0089118Y0204169D01*
X0089109Y0204209D01*
X0089104Y0204249D01*
X0089102Y0204290D01*
X0089102Y0204913D01*
X0090502Y0203823D02*
X0090543Y0203825D01*
X0090583Y0203830D01*
X0090623Y0203839D01*
X0090662Y0203851D01*
X0090699Y0203867D01*
X0090736Y0203886D01*
X0090770Y0203907D01*
X0090802Y0203932D01*
X0090832Y0203960D01*
X0090860Y0203990D01*
X0090885Y0204022D01*
X0090906Y0204057D01*
X0090925Y0204093D01*
X0090941Y0204130D01*
X0090953Y0204169D01*
X0090962Y0204209D01*
X0090967Y0204249D01*
X0090969Y0204290D01*
X0090969Y0204913D01*
X0090036Y0206795D02*
X0090969Y0208040D01*
X0090425Y0207340D02*
X0089102Y0208040D01*
X0089102Y0206795D02*
X0091902Y0206795D01*
X0084969Y0206926D02*
X0084969Y0205992D01*
X0083102Y0205992D01*
X0084658Y0206926D02*
X0084969Y0206926D01*
X0084347Y0203947D02*
X0084036Y0203947D01*
X0084036Y0202703D01*
X0084347Y0202703D02*
X0083569Y0202703D01*
X0083569Y0202702D02*
X0083528Y0202704D01*
X0083488Y0202709D01*
X0083448Y0202718D01*
X0083409Y0202730D01*
X0083372Y0202746D01*
X0083336Y0202765D01*
X0083301Y0202786D01*
X0083269Y0202811D01*
X0083239Y0202839D01*
X0083211Y0202869D01*
X0083186Y0202901D01*
X0083165Y0202936D01*
X0083146Y0202972D01*
X0083130Y0203009D01*
X0083118Y0203048D01*
X0083109Y0203088D01*
X0083104Y0203128D01*
X0083102Y0203169D01*
X0083102Y0203947D01*
X0084347Y0203947D02*
X0084396Y0203945D01*
X0084444Y0203939D01*
X0084492Y0203930D01*
X0084539Y0203917D01*
X0084585Y0203900D01*
X0084629Y0203879D01*
X0084672Y0203855D01*
X0084713Y0203828D01*
X0084751Y0203798D01*
X0084787Y0203765D01*
X0084820Y0203729D01*
X0084850Y0203691D01*
X0084877Y0203650D01*
X0084901Y0203607D01*
X0084922Y0203563D01*
X0084939Y0203517D01*
X0084952Y0203470D01*
X0084961Y0203422D01*
X0084967Y0203374D01*
X0084969Y0203325D01*
X0084967Y0203276D01*
X0084961Y0203228D01*
X0084952Y0203180D01*
X0084939Y0203133D01*
X0084922Y0203087D01*
X0084901Y0203043D01*
X0084877Y0203000D01*
X0084850Y0202959D01*
X0084820Y0202921D01*
X0084787Y0202885D01*
X0084751Y0202852D01*
X0084713Y0202822D01*
X0084672Y0202795D01*
X0084629Y0202771D01*
X0084585Y0202750D01*
X0084539Y0202733D01*
X0084492Y0202720D01*
X0084444Y0202711D01*
X0084396Y0202705D01*
X0084347Y0202703D01*
X0084969Y0200947D02*
X0083102Y0199703D01*
X0083102Y0200947D01*
X0083102Y0198083D02*
X0083102Y0197927D01*
X0083104Y0197886D01*
X0083109Y0197846D01*
X0083118Y0197806D01*
X0083130Y0197767D01*
X0083146Y0197730D01*
X0083165Y0197694D01*
X0083186Y0197659D01*
X0083211Y0197627D01*
X0083239Y0197597D01*
X0083269Y0197569D01*
X0083301Y0197544D01*
X0083336Y0197523D01*
X0083372Y0197504D01*
X0083409Y0197488D01*
X0083448Y0197476D01*
X0083488Y0197467D01*
X0083528Y0197462D01*
X0083569Y0197460D01*
X0085902Y0197460D01*
X0084969Y0197149D02*
X0084969Y0198083D01*
X0084969Y0199703D02*
X0084969Y0200947D01*
X0084969Y0195547D02*
X0083102Y0195547D01*
X0083102Y0194769D01*
X0083104Y0194728D01*
X0083109Y0194688D01*
X0083118Y0194648D01*
X0083130Y0194609D01*
X0083146Y0194572D01*
X0083165Y0194536D01*
X0083186Y0194501D01*
X0083211Y0194469D01*
X0083239Y0194439D01*
X0083269Y0194411D01*
X0083301Y0194386D01*
X0083336Y0194365D01*
X0083372Y0194346D01*
X0083409Y0194330D01*
X0083448Y0194318D01*
X0083488Y0194309D01*
X0083528Y0194304D01*
X0083569Y0194302D01*
X0083569Y0194303D02*
X0084969Y0194303D01*
X0085902Y0191284D02*
X0083102Y0191284D01*
X0083102Y0192529D01*
X0083102Y0187103D02*
X0083102Y0186325D01*
X0083104Y0186284D01*
X0083109Y0186244D01*
X0083118Y0186204D01*
X0083130Y0186165D01*
X0083146Y0186128D01*
X0083165Y0186092D01*
X0083186Y0186057D01*
X0083211Y0186025D01*
X0083239Y0185995D01*
X0083269Y0185967D01*
X0083301Y0185942D01*
X0083336Y0185921D01*
X0083372Y0185902D01*
X0083409Y0185886D01*
X0083448Y0185874D01*
X0083488Y0185865D01*
X0083528Y0185860D01*
X0083569Y0185858D01*
X0083569Y0185859D02*
X0084502Y0185859D01*
X0084502Y0185858D02*
X0084543Y0185860D01*
X0084583Y0185865D01*
X0084623Y0185874D01*
X0084662Y0185886D01*
X0084699Y0185902D01*
X0084736Y0185921D01*
X0084770Y0185942D01*
X0084802Y0185967D01*
X0084832Y0185995D01*
X0084860Y0186025D01*
X0084885Y0186057D01*
X0084906Y0186092D01*
X0084925Y0186128D01*
X0084941Y0186165D01*
X0084953Y0186204D01*
X0084962Y0186244D01*
X0084967Y0186284D01*
X0084969Y0186325D01*
X0084969Y0187103D01*
X0085902Y0187103D02*
X0083102Y0187103D01*
X0083102Y0184245D02*
X0084969Y0184245D01*
X0085747Y0184323D02*
X0085747Y0184167D01*
X0085902Y0184167D01*
X0085902Y0184323D01*
X0085747Y0184323D01*
X0084969Y0182707D02*
X0083102Y0182085D01*
X0084969Y0181463D01*
X0084502Y0179543D02*
X0083102Y0179543D01*
X0083102Y0178843D01*
X0083103Y0178843D02*
X0083105Y0178798D01*
X0083110Y0178753D01*
X0083120Y0178709D01*
X0083132Y0178666D01*
X0083149Y0178624D01*
X0083169Y0178584D01*
X0083192Y0178545D01*
X0083218Y0178509D01*
X0083247Y0178475D01*
X0083279Y0178443D01*
X0083313Y0178414D01*
X0083349Y0178388D01*
X0083388Y0178365D01*
X0083428Y0178345D01*
X0083470Y0178328D01*
X0083513Y0178316D01*
X0083557Y0178306D01*
X0083602Y0178301D01*
X0083647Y0178299D01*
X0083692Y0178301D01*
X0083737Y0178306D01*
X0083781Y0178316D01*
X0083824Y0178328D01*
X0083866Y0178345D01*
X0083906Y0178365D01*
X0083945Y0178388D01*
X0083981Y0178414D01*
X0084015Y0178443D01*
X0084047Y0178475D01*
X0084076Y0178509D01*
X0084102Y0178545D01*
X0084125Y0178584D01*
X0084145Y0178624D01*
X0084162Y0178666D01*
X0084174Y0178709D01*
X0084184Y0178753D01*
X0084189Y0178798D01*
X0084191Y0178843D01*
X0084191Y0179543D01*
X0084502Y0179544D02*
X0084543Y0179542D01*
X0084583Y0179537D01*
X0084623Y0179528D01*
X0084662Y0179516D01*
X0084699Y0179500D01*
X0084736Y0179481D01*
X0084770Y0179460D01*
X0084802Y0179435D01*
X0084832Y0179407D01*
X0084860Y0179377D01*
X0084885Y0179345D01*
X0084906Y0179311D01*
X0084925Y0179274D01*
X0084941Y0179237D01*
X0084953Y0179198D01*
X0084962Y0179158D01*
X0084967Y0179118D01*
X0084969Y0179077D01*
X0084969Y0178454D01*
X0085125Y0176263D02*
X0083880Y0176263D01*
X0083824Y0176261D01*
X0083769Y0176255D01*
X0083715Y0176245D01*
X0083661Y0176231D01*
X0083608Y0176214D01*
X0083557Y0176193D01*
X0083507Y0176168D01*
X0083459Y0176139D01*
X0083414Y0176108D01*
X0083371Y0176073D01*
X0083330Y0176035D01*
X0083292Y0175994D01*
X0083257Y0175951D01*
X0083226Y0175906D01*
X0083197Y0175858D01*
X0083172Y0175808D01*
X0083151Y0175757D01*
X0083134Y0175704D01*
X0083120Y0175650D01*
X0083110Y0175596D01*
X0083104Y0175541D01*
X0083102Y0175485D01*
X0083102Y0174707D01*
X0085902Y0174707D01*
X0085902Y0175485D01*
X0085903Y0175485D02*
X0085901Y0175541D01*
X0085895Y0175596D01*
X0085885Y0175650D01*
X0085871Y0175704D01*
X0085854Y0175757D01*
X0085833Y0175808D01*
X0085808Y0175858D01*
X0085779Y0175906D01*
X0085748Y0175951D01*
X0085713Y0175994D01*
X0085675Y0176035D01*
X0085634Y0176073D01*
X0085591Y0176108D01*
X0085546Y0176139D01*
X0085498Y0176168D01*
X0085448Y0176193D01*
X0085397Y0176214D01*
X0085344Y0176231D01*
X0085290Y0176245D01*
X0085236Y0176255D01*
X0085181Y0176261D01*
X0085125Y0176263D01*
X0088169Y0182574D02*
X0088169Y0182885D01*
D12*
X0140002Y0270317D02*
X0140002Y0071817D01*
X0127002Y0071817D01*
X0127002Y0019317D01*
X0079502Y0019317D01*
X0079502Y0071817D01*
X0027002Y0071817D01*
X0027002Y0270317D01*
X0140002Y0270317D01*
X0036102Y0119155D02*
X0036102Y0118544D01*
X0033902Y0118544D01*
X0034880Y0118544D02*
X0034880Y0119155D01*
X0034880Y0119278D02*
X0033902Y0119766D01*
X0034269Y0121309D02*
X0034880Y0121309D01*
X0034636Y0121309D02*
X0034636Y0122287D01*
X0034880Y0122287D01*
X0034923Y0122285D01*
X0034965Y0122280D01*
X0035007Y0122270D01*
X0035047Y0122258D01*
X0035087Y0122241D01*
X0035125Y0122221D01*
X0035160Y0122199D01*
X0035194Y0122173D01*
X0035226Y0122144D01*
X0035255Y0122112D01*
X0035281Y0122078D01*
X0035303Y0122043D01*
X0035323Y0122005D01*
X0035340Y0121965D01*
X0035352Y0121925D01*
X0035362Y0121883D01*
X0035367Y0121841D01*
X0035369Y0121798D01*
X0035367Y0121755D01*
X0035362Y0121713D01*
X0035352Y0121671D01*
X0035340Y0121631D01*
X0035323Y0121591D01*
X0035303Y0121554D01*
X0035281Y0121518D01*
X0035255Y0121484D01*
X0035226Y0121452D01*
X0035194Y0121423D01*
X0035160Y0121397D01*
X0035125Y0121375D01*
X0035087Y0121355D01*
X0035047Y0121338D01*
X0035007Y0121326D01*
X0034965Y0121316D01*
X0034923Y0121311D01*
X0034880Y0121309D01*
X0034269Y0121309D02*
X0034233Y0121311D01*
X0034197Y0121316D01*
X0034162Y0121325D01*
X0034129Y0121337D01*
X0034096Y0121352D01*
X0034065Y0121371D01*
X0034036Y0121392D01*
X0034009Y0121416D01*
X0033985Y0121443D01*
X0033964Y0121472D01*
X0033945Y0121503D01*
X0033930Y0121536D01*
X0033918Y0121569D01*
X0033909Y0121604D01*
X0033904Y0121640D01*
X0033902Y0121676D01*
X0033902Y0122287D01*
X0033902Y0124198D02*
X0035369Y0124687D01*
X0035369Y0123709D02*
X0033902Y0124198D01*
X0033902Y0125865D02*
X0033902Y0125987D01*
X0034025Y0125987D01*
X0034025Y0125865D01*
X0033902Y0125865D01*
X0033902Y0128867D02*
X0033902Y0130089D01*
X0033902Y0128867D02*
X0035125Y0129906D01*
X0036103Y0129539D02*
X0036101Y0129487D01*
X0036095Y0129435D01*
X0036086Y0129383D01*
X0036072Y0129333D01*
X0036055Y0129283D01*
X0036034Y0129235D01*
X0036010Y0129189D01*
X0035983Y0129145D01*
X0035952Y0129102D01*
X0035918Y0129062D01*
X0035882Y0129025D01*
X0035842Y0128991D01*
X0035800Y0128959D01*
X0035757Y0128931D01*
X0035711Y0128906D01*
X0035663Y0128884D01*
X0035614Y0128866D01*
X0035124Y0129906D02*
X0035158Y0129939D01*
X0035195Y0129969D01*
X0035235Y0129997D01*
X0035276Y0130021D01*
X0035319Y0130041D01*
X0035364Y0130058D01*
X0035410Y0130072D01*
X0035457Y0130081D01*
X0035504Y0130087D01*
X0035552Y0130089D01*
X0035597Y0130087D01*
X0035643Y0130081D01*
X0035687Y0130072D01*
X0035731Y0130059D01*
X0035773Y0130043D01*
X0035814Y0130023D01*
X0035853Y0129999D01*
X0035890Y0129973D01*
X0035925Y0129944D01*
X0035957Y0129912D01*
X0035986Y0129877D01*
X0036012Y0129840D01*
X0036036Y0129801D01*
X0036056Y0129760D01*
X0036072Y0129718D01*
X0036085Y0129674D01*
X0036094Y0129630D01*
X0036100Y0129584D01*
X0036102Y0129539D01*
X0036102Y0119155D02*
X0036100Y0119203D01*
X0036094Y0119251D01*
X0036085Y0119298D01*
X0036072Y0119344D01*
X0036055Y0119389D01*
X0036035Y0119432D01*
X0036012Y0119474D01*
X0035985Y0119514D01*
X0035956Y0119552D01*
X0035923Y0119587D01*
X0035888Y0119620D01*
X0035850Y0119649D01*
X0035810Y0119676D01*
X0035768Y0119699D01*
X0035725Y0119719D01*
X0035680Y0119736D01*
X0035634Y0119749D01*
X0035587Y0119758D01*
X0035539Y0119764D01*
X0035491Y0119766D01*
X0035443Y0119764D01*
X0035395Y0119758D01*
X0035348Y0119749D01*
X0035302Y0119736D01*
X0035257Y0119719D01*
X0035214Y0119699D01*
X0035172Y0119676D01*
X0035132Y0119649D01*
X0035094Y0119620D01*
X0035059Y0119587D01*
X0035026Y0119552D01*
X0034997Y0119514D01*
X0034970Y0119474D01*
X0034947Y0119432D01*
X0034927Y0119389D01*
X0034910Y0119344D01*
X0034897Y0119298D01*
X0034888Y0119251D01*
X0034882Y0119203D01*
X0034880Y0119155D01*
D13*
X0003325Y0019317D02*
X0079502Y0019317D01*
X0079502Y0071817D02*
X0003325Y0071817D01*
X0003825Y0071817D02*
X0027002Y0071817D01*
X0011502Y0072072D02*
X0012526Y0082053D01*
X0012759Y0082053D02*
X0011502Y0072072D01*
X0010479Y0082053D01*
X0010246Y0082053D02*
X0012759Y0082053D01*
X0012014Y0082053D02*
X0011502Y0072072D01*
X0010991Y0082053D01*
X0010246Y0082053D02*
X0011502Y0072072D01*
X0011502Y0270061D01*
X0012526Y0260080D01*
X0012759Y0260080D02*
X0011502Y0270061D01*
X0010479Y0260080D01*
X0010246Y0260080D02*
X0012759Y0260080D01*
X0012014Y0260080D02*
X0011502Y0270061D01*
X0010991Y0260080D01*
X0010246Y0260080D02*
X0011502Y0270061D01*
X0003825Y0270317D02*
X0027002Y0270317D01*
X0027002Y0281494D01*
X0027258Y0273817D02*
X0037239Y0272793D01*
X0037239Y0272560D02*
X0027258Y0273817D01*
X0037239Y0274840D01*
X0037239Y0275073D02*
X0037239Y0272560D01*
X0037239Y0273305D02*
X0027258Y0273817D01*
X0037239Y0274328D01*
X0037239Y0275073D02*
X0027258Y0273817D01*
X0139746Y0273817D01*
X0129766Y0272793D01*
X0129766Y0272560D02*
X0139746Y0273817D01*
X0129766Y0274840D01*
X0129766Y0275073D02*
X0129766Y0272560D01*
X0129766Y0273305D02*
X0139746Y0273817D01*
X0129766Y0274328D01*
X0129766Y0275073D02*
X0139746Y0273817D01*
X0140002Y0270317D02*
X0140002Y0281494D01*
X0011002Y0071561D02*
X0012026Y0061580D01*
X0012259Y0061580D02*
X0011002Y0071561D01*
X0009979Y0061580D01*
X0009746Y0061580D02*
X0012259Y0061580D01*
X0011514Y0061580D02*
X0011002Y0071561D01*
X0010491Y0061580D01*
X0009746Y0061580D02*
X0011002Y0071561D01*
X0011002Y0019572D01*
X0012026Y0029553D01*
X0012259Y0029553D02*
X0011002Y0019572D01*
X0009979Y0029553D01*
X0009746Y0029553D02*
X0012259Y0029553D01*
X0011514Y0029553D02*
X0011002Y0019572D01*
X0010491Y0029553D01*
X0009746Y0029553D02*
X0011002Y0019572D01*
D14*
X0009541Y0039953D02*
X0009541Y0041565D01*
X0009541Y0040759D02*
X0006641Y0040759D01*
X0007285Y0039953D01*
X0006641Y0042833D02*
X0006641Y0043800D01*
X0006643Y0043849D01*
X0006649Y0043898D01*
X0006658Y0043947D01*
X0006671Y0043994D01*
X0006688Y0044041D01*
X0006708Y0044086D01*
X0006731Y0044129D01*
X0006758Y0044171D01*
X0006788Y0044210D01*
X0006821Y0044247D01*
X0006857Y0044281D01*
X0006895Y0044312D01*
X0006935Y0044341D01*
X0006977Y0044366D01*
X0007022Y0044388D01*
X0007067Y0044406D01*
X0007114Y0044421D01*
X0007162Y0044432D01*
X0007211Y0044440D01*
X0007260Y0044444D01*
X0007310Y0044444D01*
X0007359Y0044440D01*
X0007408Y0044432D01*
X0007456Y0044421D01*
X0007503Y0044406D01*
X0007548Y0044388D01*
X0007593Y0044366D01*
X0007635Y0044341D01*
X0007675Y0044312D01*
X0007713Y0044281D01*
X0007749Y0044247D01*
X0007782Y0044210D01*
X0007812Y0044171D01*
X0007839Y0044129D01*
X0007862Y0044086D01*
X0007882Y0044041D01*
X0007899Y0043994D01*
X0007912Y0043947D01*
X0007921Y0043898D01*
X0007927Y0043849D01*
X0007929Y0043800D01*
X0007929Y0043156D01*
X0007929Y0043639D02*
X0007931Y0043694D01*
X0007937Y0043749D01*
X0007946Y0043803D01*
X0007959Y0043856D01*
X0007976Y0043909D01*
X0007996Y0043960D01*
X0008019Y0044010D01*
X0008046Y0044058D01*
X0008077Y0044104D01*
X0008110Y0044148D01*
X0008146Y0044189D01*
X0008185Y0044228D01*
X0008226Y0044264D01*
X0008270Y0044297D01*
X0008316Y0044328D01*
X0008364Y0044355D01*
X0008414Y0044378D01*
X0008465Y0044398D01*
X0008518Y0044415D01*
X0008571Y0044428D01*
X0008625Y0044437D01*
X0008680Y0044443D01*
X0008735Y0044445D01*
X0008790Y0044443D01*
X0008845Y0044437D01*
X0008899Y0044428D01*
X0008952Y0044415D01*
X0009005Y0044398D01*
X0009056Y0044378D01*
X0009106Y0044355D01*
X0009154Y0044328D01*
X0009200Y0044297D01*
X0009244Y0044264D01*
X0009285Y0044228D01*
X0009324Y0044189D01*
X0009360Y0044148D01*
X0009393Y0044104D01*
X0009424Y0044058D01*
X0009451Y0044010D01*
X0009474Y0043960D01*
X0009494Y0043909D01*
X0009511Y0043856D01*
X0009524Y0043803D01*
X0009533Y0043749D01*
X0009539Y0043694D01*
X0009541Y0043639D01*
X0009541Y0042833D01*
X0009541Y0045574D02*
X0009541Y0045736D01*
X0009379Y0045736D01*
X0009379Y0045574D01*
X0009541Y0045574D01*
X0009541Y0046865D02*
X0009541Y0047671D01*
X0009539Y0047726D01*
X0009533Y0047781D01*
X0009524Y0047835D01*
X0009511Y0047888D01*
X0009494Y0047941D01*
X0009474Y0047992D01*
X0009451Y0048042D01*
X0009424Y0048090D01*
X0009393Y0048136D01*
X0009360Y0048180D01*
X0009324Y0048221D01*
X0009285Y0048260D01*
X0009244Y0048296D01*
X0009200Y0048329D01*
X0009154Y0048360D01*
X0009106Y0048387D01*
X0009056Y0048410D01*
X0009005Y0048430D01*
X0008952Y0048447D01*
X0008899Y0048460D01*
X0008845Y0048469D01*
X0008790Y0048475D01*
X0008735Y0048477D01*
X0008680Y0048475D01*
X0008625Y0048469D01*
X0008571Y0048460D01*
X0008518Y0048447D01*
X0008465Y0048430D01*
X0008414Y0048410D01*
X0008364Y0048387D01*
X0008316Y0048360D01*
X0008270Y0048329D01*
X0008226Y0048296D01*
X0008185Y0048260D01*
X0008146Y0048221D01*
X0008110Y0048180D01*
X0008077Y0048136D01*
X0008046Y0048090D01*
X0008019Y0048042D01*
X0007996Y0047992D01*
X0007976Y0047941D01*
X0007959Y0047888D01*
X0007946Y0047835D01*
X0007937Y0047781D01*
X0007931Y0047726D01*
X0007929Y0047671D01*
X0007929Y0047832D02*
X0007929Y0047188D01*
X0007929Y0047832D02*
X0007927Y0047881D01*
X0007921Y0047930D01*
X0007912Y0047979D01*
X0007899Y0048026D01*
X0007882Y0048073D01*
X0007862Y0048118D01*
X0007839Y0048161D01*
X0007812Y0048203D01*
X0007782Y0048242D01*
X0007749Y0048279D01*
X0007713Y0048313D01*
X0007675Y0048344D01*
X0007635Y0048373D01*
X0007593Y0048398D01*
X0007548Y0048420D01*
X0007503Y0048438D01*
X0007456Y0048453D01*
X0007408Y0048464D01*
X0007359Y0048472D01*
X0007310Y0048476D01*
X0007260Y0048476D01*
X0007211Y0048472D01*
X0007162Y0048464D01*
X0007114Y0048453D01*
X0007067Y0048438D01*
X0007022Y0048420D01*
X0006977Y0048398D01*
X0006935Y0048373D01*
X0006895Y0048344D01*
X0006857Y0048313D01*
X0006821Y0048279D01*
X0006788Y0048242D01*
X0006758Y0048203D01*
X0006731Y0048161D01*
X0006708Y0048118D01*
X0006688Y0048073D01*
X0006671Y0048026D01*
X0006658Y0047979D01*
X0006649Y0047930D01*
X0006643Y0047881D01*
X0006641Y0047832D01*
X0006641Y0046865D01*
X0006641Y0050390D02*
X0008896Y0049745D01*
X0008896Y0051357D01*
X0008252Y0050873D02*
X0009541Y0050873D01*
X0010041Y0165453D02*
X0010041Y0166420D01*
X0010040Y0166420D02*
X0010038Y0166468D01*
X0010033Y0166516D01*
X0010024Y0166563D01*
X0010011Y0166610D01*
X0009995Y0166655D01*
X0009976Y0166699D01*
X0009954Y0166742D01*
X0009928Y0166783D01*
X0009899Y0166822D01*
X0009868Y0166858D01*
X0009834Y0166892D01*
X0009798Y0166923D01*
X0009759Y0166952D01*
X0009718Y0166978D01*
X0009675Y0167000D01*
X0009631Y0167019D01*
X0009586Y0167035D01*
X0009539Y0167048D01*
X0009492Y0167057D01*
X0009444Y0167062D01*
X0009396Y0167064D01*
X0009396Y0167065D02*
X0009074Y0167065D01*
X0009074Y0167064D02*
X0009023Y0167062D01*
X0008973Y0167056D01*
X0008924Y0167046D01*
X0008875Y0167032D01*
X0008828Y0167015D01*
X0008782Y0166994D01*
X0008738Y0166969D01*
X0008695Y0166941D01*
X0008656Y0166910D01*
X0008619Y0166875D01*
X0008584Y0166838D01*
X0008553Y0166799D01*
X0008525Y0166756D01*
X0008500Y0166712D01*
X0008479Y0166666D01*
X0008462Y0166619D01*
X0008448Y0166570D01*
X0008438Y0166521D01*
X0008432Y0166471D01*
X0008430Y0166420D01*
X0008429Y0166420D02*
X0008429Y0165453D01*
X0007141Y0165453D01*
X0007141Y0167065D01*
X0008591Y0169945D02*
X0008681Y0169943D01*
X0008772Y0169938D01*
X0008861Y0169930D01*
X0008951Y0169918D01*
X0009040Y0169902D01*
X0009128Y0169884D01*
X0009216Y0169862D01*
X0009303Y0169837D01*
X0009388Y0169808D01*
X0009473Y0169776D01*
X0009556Y0169741D01*
X0009638Y0169703D01*
X0009637Y0169703D02*
X0009680Y0169686D01*
X0009722Y0169666D01*
X0009762Y0169643D01*
X0009800Y0169617D01*
X0009836Y0169588D01*
X0009870Y0169556D01*
X0009901Y0169522D01*
X0009929Y0169485D01*
X0009954Y0169447D01*
X0009977Y0169406D01*
X0009996Y0169364D01*
X0010012Y0169321D01*
X0010024Y0169276D01*
X0010033Y0169231D01*
X0010038Y0169185D01*
X0010040Y0169139D01*
X0010038Y0169093D01*
X0010033Y0169047D01*
X0010024Y0169002D01*
X0010012Y0168957D01*
X0009996Y0168914D01*
X0009977Y0168872D01*
X0009954Y0168831D01*
X0009929Y0168793D01*
X0009901Y0168756D01*
X0009870Y0168722D01*
X0009836Y0168690D01*
X0009800Y0168661D01*
X0009762Y0168635D01*
X0009722Y0168612D01*
X0009680Y0168592D01*
X0009637Y0168575D01*
X0009396Y0168495D02*
X0007785Y0169783D01*
X0007544Y0169703D02*
X0007501Y0169686D01*
X0007459Y0169666D01*
X0007419Y0169643D01*
X0007381Y0169617D01*
X0007345Y0169588D01*
X0007311Y0169556D01*
X0007280Y0169522D01*
X0007252Y0169485D01*
X0007227Y0169447D01*
X0007204Y0169406D01*
X0007185Y0169364D01*
X0007169Y0169321D01*
X0007157Y0169276D01*
X0007148Y0169231D01*
X0007143Y0169185D01*
X0007141Y0169139D01*
X0007143Y0169093D01*
X0007148Y0169047D01*
X0007157Y0169002D01*
X0007169Y0168957D01*
X0007185Y0168914D01*
X0007204Y0168872D01*
X0007227Y0168831D01*
X0007252Y0168793D01*
X0007280Y0168756D01*
X0007311Y0168722D01*
X0007345Y0168690D01*
X0007381Y0168661D01*
X0007419Y0168635D01*
X0007459Y0168612D01*
X0007501Y0168592D01*
X0007544Y0168575D01*
X0007544Y0169703D02*
X0007626Y0169741D01*
X0007709Y0169776D01*
X0007794Y0169808D01*
X0007879Y0169837D01*
X0007966Y0169862D01*
X0008054Y0169884D01*
X0008142Y0169902D01*
X0008231Y0169918D01*
X0008321Y0169930D01*
X0008410Y0169938D01*
X0008501Y0169943D01*
X0008591Y0169945D01*
X0008591Y0168333D02*
X0008501Y0168335D01*
X0008410Y0168340D01*
X0008321Y0168348D01*
X0008231Y0168360D01*
X0008142Y0168376D01*
X0008054Y0168394D01*
X0007966Y0168416D01*
X0007879Y0168441D01*
X0007794Y0168470D01*
X0007709Y0168502D01*
X0007626Y0168537D01*
X0007544Y0168575D01*
X0008591Y0168333D02*
X0008681Y0168335D01*
X0008772Y0168340D01*
X0008861Y0168348D01*
X0008951Y0168360D01*
X0009040Y0168376D01*
X0009128Y0168394D01*
X0009216Y0168416D01*
X0009303Y0168441D01*
X0009388Y0168470D01*
X0009473Y0168502D01*
X0009556Y0168537D01*
X0009638Y0168575D01*
X0009879Y0171074D02*
X0009879Y0171236D01*
X0010041Y0171236D01*
X0010041Y0171074D01*
X0009879Y0171074D01*
X0009396Y0172365D02*
X0009396Y0173977D01*
X0008752Y0173493D02*
X0010041Y0173493D01*
X0009396Y0172365D02*
X0007141Y0173010D01*
X0008430Y0176615D02*
X0008393Y0176652D01*
X0008353Y0176686D01*
X0008311Y0176718D01*
X0008266Y0176746D01*
X0008220Y0176772D01*
X0008173Y0176794D01*
X0008124Y0176813D01*
X0008074Y0176829D01*
X0008023Y0176841D01*
X0007971Y0176850D01*
X0007919Y0176855D01*
X0007866Y0176857D01*
X0008429Y0176615D02*
X0010041Y0175245D01*
X0010041Y0176857D01*
X0007785Y0175246D02*
X0007730Y0175266D01*
X0007676Y0175289D01*
X0007624Y0175316D01*
X0007574Y0175346D01*
X0007525Y0175378D01*
X0007479Y0175414D01*
X0007435Y0175453D01*
X0007394Y0175494D01*
X0007355Y0175538D01*
X0007319Y0175584D01*
X0007286Y0175633D01*
X0007256Y0175683D01*
X0007230Y0175735D01*
X0007206Y0175789D01*
X0007187Y0175844D01*
X0007170Y0175900D01*
X0007158Y0175957D01*
X0007148Y0176015D01*
X0007143Y0176073D01*
X0007141Y0176132D01*
X0007143Y0176184D01*
X0007148Y0176235D01*
X0007158Y0176286D01*
X0007170Y0176336D01*
X0007187Y0176385D01*
X0007207Y0176433D01*
X0007230Y0176479D01*
X0007256Y0176524D01*
X0007286Y0176566D01*
X0007318Y0176607D01*
X0007353Y0176645D01*
X0007391Y0176680D01*
X0007432Y0176712D01*
X0007474Y0176742D01*
X0007519Y0176768D01*
X0007565Y0176791D01*
X0007613Y0176811D01*
X0007662Y0176828D01*
X0007712Y0176840D01*
X0007763Y0176850D01*
X0007814Y0176855D01*
X0007866Y0176857D01*
X0077889Y0275278D02*
X0079500Y0275278D01*
X0077889Y0275278D02*
X0079259Y0276890D01*
X0078775Y0278178D02*
X0078716Y0278176D01*
X0078658Y0278171D01*
X0078600Y0278161D01*
X0078543Y0278149D01*
X0078487Y0278132D01*
X0078432Y0278113D01*
X0078378Y0278089D01*
X0078326Y0278063D01*
X0078276Y0278033D01*
X0078227Y0278000D01*
X0078181Y0277964D01*
X0078137Y0277925D01*
X0078096Y0277884D01*
X0078057Y0277840D01*
X0078021Y0277794D01*
X0077989Y0277745D01*
X0077959Y0277695D01*
X0077932Y0277643D01*
X0077909Y0277589D01*
X0077889Y0277534D01*
X0079259Y0276889D02*
X0079296Y0276926D01*
X0079330Y0276966D01*
X0079362Y0277008D01*
X0079390Y0277053D01*
X0079416Y0277099D01*
X0079438Y0277146D01*
X0079457Y0277195D01*
X0079473Y0277245D01*
X0079485Y0277296D01*
X0079494Y0277348D01*
X0079499Y0277400D01*
X0079501Y0277453D01*
X0079500Y0277453D02*
X0079498Y0277505D01*
X0079493Y0277556D01*
X0079483Y0277607D01*
X0079471Y0277657D01*
X0079454Y0277706D01*
X0079434Y0277754D01*
X0079411Y0277800D01*
X0079385Y0277845D01*
X0079355Y0277887D01*
X0079323Y0277928D01*
X0079288Y0277966D01*
X0079250Y0278001D01*
X0079209Y0278033D01*
X0079167Y0278063D01*
X0079122Y0278089D01*
X0079076Y0278112D01*
X0079028Y0278132D01*
X0078979Y0278149D01*
X0078929Y0278161D01*
X0078878Y0278171D01*
X0078827Y0278176D01*
X0078775Y0278178D01*
X0080931Y0277534D02*
X0080933Y0277485D01*
X0080939Y0277436D01*
X0080948Y0277387D01*
X0080961Y0277340D01*
X0080978Y0277293D01*
X0080998Y0277248D01*
X0081021Y0277205D01*
X0081048Y0277163D01*
X0081078Y0277124D01*
X0081111Y0277087D01*
X0081147Y0277053D01*
X0081185Y0277022D01*
X0081225Y0276993D01*
X0081267Y0276968D01*
X0081312Y0276946D01*
X0081357Y0276928D01*
X0081404Y0276913D01*
X0081452Y0276902D01*
X0081501Y0276894D01*
X0081550Y0276890D01*
X0081600Y0276890D01*
X0081649Y0276894D01*
X0081698Y0276902D01*
X0081746Y0276913D01*
X0081793Y0276928D01*
X0081838Y0276946D01*
X0081883Y0276968D01*
X0081925Y0276993D01*
X0081965Y0277022D01*
X0082003Y0277053D01*
X0082039Y0277087D01*
X0082072Y0277124D01*
X0082102Y0277163D01*
X0082129Y0277205D01*
X0082152Y0277248D01*
X0082172Y0277293D01*
X0082189Y0277340D01*
X0082202Y0277387D01*
X0082211Y0277436D01*
X0082217Y0277485D01*
X0082219Y0277534D01*
X0082217Y0277583D01*
X0082211Y0277632D01*
X0082202Y0277681D01*
X0082189Y0277728D01*
X0082172Y0277775D01*
X0082152Y0277820D01*
X0082129Y0277863D01*
X0082102Y0277905D01*
X0082072Y0277944D01*
X0082039Y0277981D01*
X0082003Y0278015D01*
X0081965Y0278046D01*
X0081925Y0278075D01*
X0081883Y0278100D01*
X0081838Y0278122D01*
X0081793Y0278140D01*
X0081746Y0278155D01*
X0081698Y0278166D01*
X0081649Y0278174D01*
X0081600Y0278178D01*
X0081550Y0278178D01*
X0081501Y0278174D01*
X0081452Y0278166D01*
X0081404Y0278155D01*
X0081357Y0278140D01*
X0081312Y0278122D01*
X0081267Y0278100D01*
X0081225Y0278075D01*
X0081185Y0278046D01*
X0081147Y0278015D01*
X0081111Y0277981D01*
X0081078Y0277944D01*
X0081048Y0277905D01*
X0081021Y0277863D01*
X0080998Y0277820D01*
X0080978Y0277775D01*
X0080961Y0277728D01*
X0080948Y0277681D01*
X0080939Y0277632D01*
X0080933Y0277583D01*
X0080931Y0277534D01*
X0080769Y0276084D02*
X0080771Y0276029D01*
X0080777Y0275974D01*
X0080786Y0275920D01*
X0080799Y0275867D01*
X0080816Y0275814D01*
X0080836Y0275763D01*
X0080859Y0275713D01*
X0080886Y0275665D01*
X0080917Y0275619D01*
X0080950Y0275575D01*
X0080986Y0275534D01*
X0081025Y0275495D01*
X0081066Y0275459D01*
X0081110Y0275426D01*
X0081156Y0275395D01*
X0081204Y0275368D01*
X0081254Y0275345D01*
X0081305Y0275325D01*
X0081358Y0275308D01*
X0081411Y0275295D01*
X0081465Y0275286D01*
X0081520Y0275280D01*
X0081575Y0275278D01*
X0081630Y0275280D01*
X0081685Y0275286D01*
X0081739Y0275295D01*
X0081792Y0275308D01*
X0081845Y0275325D01*
X0081896Y0275345D01*
X0081946Y0275368D01*
X0081994Y0275395D01*
X0082040Y0275426D01*
X0082084Y0275459D01*
X0082125Y0275495D01*
X0082164Y0275534D01*
X0082200Y0275575D01*
X0082233Y0275619D01*
X0082264Y0275665D01*
X0082291Y0275713D01*
X0082314Y0275763D01*
X0082334Y0275814D01*
X0082351Y0275867D01*
X0082364Y0275920D01*
X0082373Y0275974D01*
X0082379Y0276029D01*
X0082381Y0276084D01*
X0082379Y0276139D01*
X0082373Y0276194D01*
X0082364Y0276248D01*
X0082351Y0276301D01*
X0082334Y0276354D01*
X0082314Y0276405D01*
X0082291Y0276455D01*
X0082264Y0276503D01*
X0082233Y0276549D01*
X0082200Y0276593D01*
X0082164Y0276634D01*
X0082125Y0276673D01*
X0082084Y0276709D01*
X0082040Y0276742D01*
X0081994Y0276773D01*
X0081946Y0276800D01*
X0081896Y0276823D01*
X0081845Y0276843D01*
X0081792Y0276860D01*
X0081739Y0276873D01*
X0081685Y0276882D01*
X0081630Y0276888D01*
X0081575Y0276890D01*
X0081520Y0276888D01*
X0081465Y0276882D01*
X0081411Y0276873D01*
X0081358Y0276860D01*
X0081305Y0276843D01*
X0081254Y0276823D01*
X0081204Y0276800D01*
X0081156Y0276773D01*
X0081110Y0276742D01*
X0081066Y0276709D01*
X0081025Y0276673D01*
X0080986Y0276634D01*
X0080950Y0276593D01*
X0080917Y0276549D01*
X0080886Y0276503D01*
X0080859Y0276455D01*
X0080836Y0276405D01*
X0080816Y0276354D01*
X0080799Y0276301D01*
X0080786Y0276248D01*
X0080777Y0276194D01*
X0080771Y0276139D01*
X0080769Y0276084D01*
X0083510Y0275440D02*
X0083671Y0275440D01*
X0083671Y0275278D01*
X0083510Y0275278D01*
X0083510Y0275440D01*
X0085607Y0275278D02*
X0086412Y0278178D01*
X0084801Y0278178D01*
X0084801Y0277856D01*
X0089292Y0276728D02*
X0089290Y0276638D01*
X0089285Y0276547D01*
X0089277Y0276458D01*
X0089265Y0276368D01*
X0089249Y0276279D01*
X0089231Y0276191D01*
X0089209Y0276103D01*
X0089184Y0276016D01*
X0089155Y0275931D01*
X0089123Y0275846D01*
X0089088Y0275763D01*
X0089050Y0275681D01*
X0089051Y0275681D02*
X0089034Y0275638D01*
X0089014Y0275596D01*
X0088991Y0275556D01*
X0088965Y0275518D01*
X0088936Y0275482D01*
X0088904Y0275448D01*
X0088870Y0275417D01*
X0088833Y0275389D01*
X0088795Y0275364D01*
X0088754Y0275341D01*
X0088712Y0275322D01*
X0088669Y0275306D01*
X0088624Y0275294D01*
X0088579Y0275285D01*
X0088533Y0275280D01*
X0088487Y0275278D01*
X0088487Y0275279D02*
X0088441Y0275281D01*
X0088395Y0275286D01*
X0088350Y0275295D01*
X0088305Y0275307D01*
X0088262Y0275323D01*
X0088220Y0275342D01*
X0088179Y0275365D01*
X0088141Y0275390D01*
X0088104Y0275418D01*
X0088070Y0275449D01*
X0088038Y0275483D01*
X0088009Y0275519D01*
X0087983Y0275557D01*
X0087960Y0275597D01*
X0087940Y0275639D01*
X0087923Y0275682D01*
X0087842Y0275923D02*
X0089131Y0277534D01*
X0089051Y0277775D02*
X0089034Y0277818D01*
X0089014Y0277860D01*
X0088991Y0277900D01*
X0088965Y0277938D01*
X0088936Y0277974D01*
X0088904Y0278008D01*
X0088870Y0278039D01*
X0088833Y0278067D01*
X0088795Y0278092D01*
X0088754Y0278115D01*
X0088712Y0278134D01*
X0088669Y0278150D01*
X0088624Y0278162D01*
X0088579Y0278171D01*
X0088533Y0278176D01*
X0088487Y0278178D01*
X0088441Y0278176D01*
X0088395Y0278171D01*
X0088350Y0278162D01*
X0088305Y0278150D01*
X0088262Y0278134D01*
X0088220Y0278115D01*
X0088179Y0278092D01*
X0088141Y0278067D01*
X0088104Y0278039D01*
X0088070Y0278008D01*
X0088038Y0277974D01*
X0088009Y0277938D01*
X0087983Y0277900D01*
X0087960Y0277860D01*
X0087940Y0277818D01*
X0087923Y0277775D01*
X0089051Y0277775D02*
X0089089Y0277693D01*
X0089124Y0277610D01*
X0089156Y0277525D01*
X0089185Y0277440D01*
X0089210Y0277353D01*
X0089232Y0277265D01*
X0089250Y0277177D01*
X0089266Y0277088D01*
X0089278Y0276998D01*
X0089286Y0276909D01*
X0089291Y0276818D01*
X0089293Y0276728D01*
X0087681Y0276728D02*
X0087683Y0276818D01*
X0087688Y0276909D01*
X0087696Y0276998D01*
X0087708Y0277088D01*
X0087724Y0277177D01*
X0087742Y0277265D01*
X0087764Y0277353D01*
X0087789Y0277440D01*
X0087818Y0277525D01*
X0087850Y0277610D01*
X0087885Y0277693D01*
X0087923Y0277775D01*
X0087681Y0276728D02*
X0087683Y0276638D01*
X0087688Y0276547D01*
X0087696Y0276458D01*
X0087708Y0276368D01*
X0087724Y0276279D01*
X0087742Y0276191D01*
X0087764Y0276103D01*
X0087789Y0276016D01*
X0087818Y0275931D01*
X0087850Y0275846D01*
X0087885Y0275763D01*
X0087923Y0275681D01*
D15*
X0091979Y0089387D02*
X0091981Y0089480D01*
X0091987Y0089572D01*
X0091997Y0089664D01*
X0092011Y0089755D01*
X0092028Y0089846D01*
X0092050Y0089936D01*
X0092075Y0090025D01*
X0092104Y0090113D01*
X0092137Y0090199D01*
X0092174Y0090284D01*
X0092214Y0090368D01*
X0092258Y0090449D01*
X0092305Y0090529D01*
X0092355Y0090607D01*
X0092409Y0090682D01*
X0092466Y0090755D01*
X0092526Y0090825D01*
X0092589Y0090893D01*
X0092655Y0090958D01*
X0092723Y0091020D01*
X0092794Y0091080D01*
X0092868Y0091136D01*
X0092944Y0091189D01*
X0093022Y0091238D01*
X0093102Y0091285D01*
X0093184Y0091327D01*
X0093268Y0091367D01*
X0093353Y0091402D01*
X0093440Y0091434D01*
X0093528Y0091463D01*
X0093617Y0091487D01*
X0093707Y0091508D01*
X0093798Y0091524D01*
X0093890Y0091537D01*
X0093982Y0091546D01*
X0094075Y0091551D01*
X0094167Y0091552D01*
X0094260Y0091549D01*
X0094352Y0091542D01*
X0094444Y0091531D01*
X0094535Y0091516D01*
X0094626Y0091498D01*
X0094716Y0091475D01*
X0094804Y0091449D01*
X0094892Y0091419D01*
X0094978Y0091385D01*
X0095062Y0091348D01*
X0095145Y0091306D01*
X0095226Y0091262D01*
X0095306Y0091214D01*
X0095383Y0091163D01*
X0095457Y0091108D01*
X0095530Y0091050D01*
X0095600Y0090990D01*
X0095667Y0090926D01*
X0095731Y0090860D01*
X0095793Y0090790D01*
X0095851Y0090719D01*
X0095906Y0090645D01*
X0095958Y0090568D01*
X0096007Y0090489D01*
X0096053Y0090409D01*
X0096095Y0090326D01*
X0096133Y0090242D01*
X0096168Y0090156D01*
X0096199Y0090069D01*
X0096226Y0089981D01*
X0096249Y0089891D01*
X0096269Y0089801D01*
X0096285Y0089710D01*
X0096297Y0089618D01*
X0096305Y0089526D01*
X0096309Y0089433D01*
X0096309Y0089341D01*
X0096305Y0089248D01*
X0096297Y0089156D01*
X0096285Y0089064D01*
X0096269Y0088973D01*
X0096249Y0088883D01*
X0096226Y0088793D01*
X0096199Y0088705D01*
X0096168Y0088618D01*
X0096133Y0088532D01*
X0096095Y0088448D01*
X0096053Y0088365D01*
X0096007Y0088285D01*
X0095958Y0088206D01*
X0095906Y0088129D01*
X0095851Y0088055D01*
X0095793Y0087984D01*
X0095731Y0087914D01*
X0095667Y0087848D01*
X0095600Y0087784D01*
X0095530Y0087724D01*
X0095457Y0087666D01*
X0095383Y0087611D01*
X0095306Y0087560D01*
X0095227Y0087512D01*
X0095145Y0087468D01*
X0095062Y0087426D01*
X0094978Y0087389D01*
X0094892Y0087355D01*
X0094804Y0087325D01*
X0094716Y0087299D01*
X0094626Y0087276D01*
X0094535Y0087258D01*
X0094444Y0087243D01*
X0094352Y0087232D01*
X0094260Y0087225D01*
X0094167Y0087222D01*
X0094075Y0087223D01*
X0093982Y0087228D01*
X0093890Y0087237D01*
X0093798Y0087250D01*
X0093707Y0087266D01*
X0093617Y0087287D01*
X0093528Y0087311D01*
X0093440Y0087340D01*
X0093353Y0087372D01*
X0093268Y0087407D01*
X0093184Y0087447D01*
X0093102Y0087489D01*
X0093022Y0087536D01*
X0092944Y0087585D01*
X0092868Y0087638D01*
X0092794Y0087694D01*
X0092723Y0087754D01*
X0092655Y0087816D01*
X0092589Y0087881D01*
X0092526Y0087949D01*
X0092466Y0088019D01*
X0092409Y0088092D01*
X0092355Y0088167D01*
X0092305Y0088245D01*
X0092258Y0088325D01*
X0092214Y0088406D01*
X0092174Y0088490D01*
X0092137Y0088575D01*
X0092104Y0088661D01*
X0092075Y0088749D01*
X0092050Y0088838D01*
X0092028Y0088928D01*
X0092011Y0089019D01*
X0091997Y0089110D01*
X0091987Y0089202D01*
X0091981Y0089294D01*
X0091979Y0089387D01*
X0109696Y0089387D02*
X0109698Y0089480D01*
X0109704Y0089572D01*
X0109714Y0089664D01*
X0109728Y0089755D01*
X0109745Y0089846D01*
X0109767Y0089936D01*
X0109792Y0090025D01*
X0109821Y0090113D01*
X0109854Y0090199D01*
X0109891Y0090284D01*
X0109931Y0090368D01*
X0109975Y0090449D01*
X0110022Y0090529D01*
X0110072Y0090607D01*
X0110126Y0090682D01*
X0110183Y0090755D01*
X0110243Y0090825D01*
X0110306Y0090893D01*
X0110372Y0090958D01*
X0110440Y0091020D01*
X0110511Y0091080D01*
X0110585Y0091136D01*
X0110661Y0091189D01*
X0110739Y0091238D01*
X0110819Y0091285D01*
X0110901Y0091327D01*
X0110985Y0091367D01*
X0111070Y0091402D01*
X0111157Y0091434D01*
X0111245Y0091463D01*
X0111334Y0091487D01*
X0111424Y0091508D01*
X0111515Y0091524D01*
X0111607Y0091537D01*
X0111699Y0091546D01*
X0111792Y0091551D01*
X0111884Y0091552D01*
X0111977Y0091549D01*
X0112069Y0091542D01*
X0112161Y0091531D01*
X0112252Y0091516D01*
X0112343Y0091498D01*
X0112433Y0091475D01*
X0112521Y0091449D01*
X0112609Y0091419D01*
X0112695Y0091385D01*
X0112779Y0091348D01*
X0112862Y0091306D01*
X0112943Y0091262D01*
X0113023Y0091214D01*
X0113100Y0091163D01*
X0113174Y0091108D01*
X0113247Y0091050D01*
X0113317Y0090990D01*
X0113384Y0090926D01*
X0113448Y0090860D01*
X0113510Y0090790D01*
X0113568Y0090719D01*
X0113623Y0090645D01*
X0113675Y0090568D01*
X0113724Y0090489D01*
X0113770Y0090409D01*
X0113812Y0090326D01*
X0113850Y0090242D01*
X0113885Y0090156D01*
X0113916Y0090069D01*
X0113943Y0089981D01*
X0113966Y0089891D01*
X0113986Y0089801D01*
X0114002Y0089710D01*
X0114014Y0089618D01*
X0114022Y0089526D01*
X0114026Y0089433D01*
X0114026Y0089341D01*
X0114022Y0089248D01*
X0114014Y0089156D01*
X0114002Y0089064D01*
X0113986Y0088973D01*
X0113966Y0088883D01*
X0113943Y0088793D01*
X0113916Y0088705D01*
X0113885Y0088618D01*
X0113850Y0088532D01*
X0113812Y0088448D01*
X0113770Y0088365D01*
X0113724Y0088285D01*
X0113675Y0088206D01*
X0113623Y0088129D01*
X0113568Y0088055D01*
X0113510Y0087984D01*
X0113448Y0087914D01*
X0113384Y0087848D01*
X0113317Y0087784D01*
X0113247Y0087724D01*
X0113174Y0087666D01*
X0113100Y0087611D01*
X0113023Y0087560D01*
X0112944Y0087512D01*
X0112862Y0087468D01*
X0112779Y0087426D01*
X0112695Y0087389D01*
X0112609Y0087355D01*
X0112521Y0087325D01*
X0112433Y0087299D01*
X0112343Y0087276D01*
X0112252Y0087258D01*
X0112161Y0087243D01*
X0112069Y0087232D01*
X0111977Y0087225D01*
X0111884Y0087222D01*
X0111792Y0087223D01*
X0111699Y0087228D01*
X0111607Y0087237D01*
X0111515Y0087250D01*
X0111424Y0087266D01*
X0111334Y0087287D01*
X0111245Y0087311D01*
X0111157Y0087340D01*
X0111070Y0087372D01*
X0110985Y0087407D01*
X0110901Y0087447D01*
X0110819Y0087489D01*
X0110739Y0087536D01*
X0110661Y0087585D01*
X0110585Y0087638D01*
X0110511Y0087694D01*
X0110440Y0087754D01*
X0110372Y0087816D01*
X0110306Y0087881D01*
X0110243Y0087949D01*
X0110183Y0088019D01*
X0110126Y0088092D01*
X0110072Y0088167D01*
X0110022Y0088245D01*
X0109975Y0088325D01*
X0109931Y0088406D01*
X0109891Y0088490D01*
X0109854Y0088575D01*
X0109821Y0088661D01*
X0109792Y0088749D01*
X0109767Y0088838D01*
X0109745Y0088928D01*
X0109728Y0089019D01*
X0109714Y0089110D01*
X0109704Y0089202D01*
X0109698Y0089294D01*
X0109696Y0089387D01*
D16*
X0126752Y0071817D02*
X0126752Y0019317D01*
X0079252Y0019317D01*
X0079252Y0071817D01*
M02*
