G75*
%MOIN*%
%OFA0B0*%
%FSLAX25Y25*%
%IPPOS*%
%LPD*%
%AMOC8*
5,1,8,0,0,1.08239X$1,22.5*
%
%ADD10C,0.05622*%
%ADD11R,0.05622X0.05622*%
%ADD12C,0.06693*%
%ADD13R,0.00788X0.03150*%
%ADD14C,0.09000*%
%ADD15C,0.09450*%
%ADD16C,0.07400*%
%ADD17R,0.02362X0.01574*%
%ADD18C,0.00600*%
%ADD19C,0.02978*%
%ADD20C,0.02000*%
D10*
X0094223Y0080921D03*
X0104065Y0080921D03*
X0111939Y0080921D03*
D11*
X0121782Y0080921D03*
D12*
X0130443Y0076000D02*
X0130443Y0069307D01*
X0085561Y0069307D02*
X0085561Y0076000D01*
D13*
X0083002Y0170583D03*
X0101002Y0197583D03*
X0163002Y0168583D03*
X0163002Y0138583D03*
D14*
X0047002Y0217583D03*
D15*
X0037002Y0227583D03*
X0037002Y0207583D03*
X0057002Y0207583D03*
X0057002Y0227583D03*
D16*
X0084002Y0210583D03*
X0094002Y0210583D03*
X0116002Y0211583D03*
X0126002Y0211583D03*
X0136002Y0211583D03*
X0146002Y0211583D03*
X0084002Y0155583D03*
X0084002Y0145583D03*
X0084081Y0135094D03*
X0084081Y0125094D03*
X0084081Y0115094D03*
X0084081Y0105094D03*
X0074081Y0105094D03*
X0074081Y0115094D03*
X0074081Y0125094D03*
X0074081Y0135094D03*
X0074002Y0145583D03*
X0074002Y0155583D03*
X0064002Y0155583D03*
X0064002Y0145583D03*
X0064081Y0135094D03*
X0064081Y0125094D03*
X0064081Y0115094D03*
X0064081Y0105094D03*
X0054081Y0105094D03*
X0054081Y0115094D03*
X0054081Y0125094D03*
X0054081Y0135094D03*
X0054002Y0145583D03*
X0054002Y0155583D03*
X0051102Y0093383D03*
X0068902Y0093383D03*
X0068902Y0067783D03*
X0051102Y0067783D03*
D17*
X0069002Y0207583D03*
D18*
X0068002Y0201183D02*
X0064402Y0201183D01*
X0068002Y0201183D02*
X0082402Y0215583D01*
X0089002Y0215583D01*
X0094002Y0210583D01*
X0094402Y0210183D01*
X0103402Y0210183D01*
X0125002Y0188583D01*
X0125002Y0182583D01*
X0122602Y0187383D02*
X0107002Y0187383D01*
X0084202Y0210183D01*
X0084002Y0210583D01*
X0047002Y0217383D02*
X0046402Y0216783D01*
X0046402Y0205383D01*
X0047002Y0217383D02*
X0047002Y0217583D01*
X0062002Y0160383D02*
X0059002Y0157383D01*
X0059002Y0153783D01*
X0055402Y0150183D01*
X0051802Y0150183D01*
X0049402Y0147783D01*
X0049402Y0143583D01*
X0053002Y0139983D01*
X0057802Y0139983D01*
X0062602Y0135183D01*
X0063802Y0135183D01*
X0064081Y0135094D01*
X0059002Y0140583D02*
X0054002Y0145583D01*
X0059002Y0140583D02*
X0085402Y0140583D01*
X0126802Y0099183D01*
X0123802Y0096183D02*
X0119602Y0096183D01*
X0104602Y0081183D01*
X0104065Y0080921D01*
X0111939Y0080921D02*
X0112402Y0081183D01*
X0123802Y0092583D01*
X0121402Y0085983D02*
X0121402Y0081183D01*
X0121782Y0080921D01*
X0113602Y0108783D02*
X0092602Y0129783D01*
X0072202Y0129783D01*
X0068002Y0125583D01*
X0064402Y0125583D01*
X0064081Y0125094D01*
X0062602Y0120183D02*
X0059002Y0116583D01*
X0059002Y0109983D01*
X0054202Y0105183D01*
X0054081Y0105094D01*
X0059002Y0103383D02*
X0059002Y0108183D01*
X0063802Y0112983D01*
X0063802Y0114783D01*
X0064081Y0115094D01*
X0062602Y0120183D02*
X0086002Y0120183D01*
X0087802Y0121983D01*
X0089602Y0121983D01*
X0067402Y0145983D02*
X0071602Y0150183D01*
X0091402Y0150183D01*
X0174202Y0150183D01*
X0113602Y0160383D02*
X0062002Y0160383D01*
X0064402Y0145983D02*
X0064002Y0145583D01*
X0064402Y0145983D02*
X0067402Y0145983D01*
X0059002Y0103383D02*
X0051202Y0095583D01*
X0051202Y0093783D01*
X0051102Y0093383D01*
X0068902Y0093383D02*
X0069202Y0093183D01*
X0085402Y0076983D01*
X0085402Y0072783D01*
X0085561Y0072654D01*
D19*
X0113602Y0108783D03*
X0123802Y0096183D03*
X0123802Y0092583D03*
X0126802Y0099183D03*
X0121402Y0085983D03*
X0089602Y0121983D03*
X0091402Y0150183D03*
X0113602Y0160383D03*
X0125002Y0182583D03*
X0122602Y0187383D03*
X0174202Y0150183D03*
X0064402Y0201183D03*
X0046402Y0205383D03*
D20*
X0032002Y0203072D02*
X0032002Y0064583D01*
X0046807Y0064583D01*
X0046609Y0064780D01*
X0045802Y0066728D01*
X0045802Y0068837D01*
X0046609Y0070785D01*
X0048100Y0072276D01*
X0050048Y0073083D01*
X0052157Y0073083D01*
X0054105Y0072276D01*
X0055595Y0070785D01*
X0056402Y0068837D01*
X0056402Y0066728D01*
X0055595Y0064780D01*
X0055398Y0064583D01*
X0064607Y0064583D01*
X0064409Y0064780D01*
X0063602Y0066728D01*
X0063602Y0068837D01*
X0064409Y0070785D01*
X0065900Y0072276D01*
X0067848Y0073083D01*
X0069957Y0073083D01*
X0071905Y0072276D01*
X0073395Y0070785D01*
X0074202Y0068837D01*
X0074202Y0066728D01*
X0073395Y0064780D01*
X0073198Y0064583D01*
X0083057Y0064583D01*
X0082759Y0064734D01*
X0082078Y0065229D01*
X0081483Y0065824D01*
X0080989Y0066505D01*
X0080607Y0067255D01*
X0080347Y0068055D01*
X0080215Y0068886D01*
X0080215Y0072571D01*
X0085479Y0072571D01*
X0085479Y0072736D01*
X0080215Y0072736D01*
X0080215Y0076421D01*
X0080347Y0077252D01*
X0080607Y0078052D01*
X0080989Y0078802D01*
X0081483Y0079483D01*
X0082078Y0080078D01*
X0082759Y0080573D01*
X0083509Y0080955D01*
X0084309Y0081215D01*
X0085141Y0081346D01*
X0085479Y0081346D01*
X0085479Y0072736D01*
X0085644Y0072736D01*
X0090908Y0072736D01*
X0090908Y0076421D01*
X0090776Y0077252D01*
X0090626Y0077714D01*
X0091089Y0077252D01*
X0091701Y0076806D01*
X0092376Y0076463D01*
X0092896Y0076294D01*
X0091979Y0074079D01*
X0091979Y0071228D01*
X0093070Y0068595D01*
X0095085Y0066579D01*
X0097719Y0065488D01*
X0100569Y0065488D01*
X0103203Y0066579D01*
X0105219Y0068595D01*
X0106309Y0071228D01*
X0106309Y0074079D01*
X0105250Y0076637D01*
X0106564Y0077182D01*
X0107805Y0078423D01*
X0108002Y0078899D01*
X0108200Y0078423D01*
X0109441Y0077182D01*
X0110755Y0076637D01*
X0109695Y0074079D01*
X0109695Y0071228D01*
X0110786Y0068595D01*
X0112802Y0066579D01*
X0115435Y0065488D01*
X0118286Y0065488D01*
X0120919Y0066579D01*
X0122935Y0068595D01*
X0124026Y0071228D01*
X0124026Y0074079D01*
X0123019Y0076510D01*
X0125111Y0076510D01*
X0125097Y0076421D01*
X0125097Y0072736D01*
X0130361Y0072736D01*
X0130361Y0081346D01*
X0130023Y0081346D01*
X0129191Y0081215D01*
X0128391Y0080955D01*
X0127641Y0080573D01*
X0126960Y0080078D01*
X0126365Y0079483D01*
X0126193Y0079246D01*
X0126193Y0084395D01*
X0125256Y0085332D01*
X0124476Y0085332D01*
X0124491Y0085368D01*
X0124491Y0086597D01*
X0124021Y0087732D01*
X0123152Y0088601D01*
X0122697Y0088790D01*
X0123400Y0089494D01*
X0124417Y0089494D01*
X0125552Y0089964D01*
X0126421Y0090833D01*
X0126891Y0091968D01*
X0126891Y0093197D01*
X0126421Y0094332D01*
X0126371Y0094383D01*
X0126421Y0094433D01*
X0126891Y0095568D01*
X0126891Y0096094D01*
X0127417Y0096094D01*
X0128552Y0096564D01*
X0129421Y0097433D01*
X0129891Y0098568D01*
X0129891Y0099797D01*
X0129421Y0100932D01*
X0128552Y0101801D01*
X0127417Y0102272D01*
X0126400Y0102272D01*
X0087302Y0141370D01*
X0087294Y0141379D01*
X0088495Y0142580D01*
X0089302Y0144528D01*
X0089302Y0146637D01*
X0088621Y0148283D01*
X0088934Y0148283D01*
X0089653Y0147564D01*
X0090788Y0147094D01*
X0092017Y0147094D01*
X0093152Y0147564D01*
X0093871Y0148283D01*
X0171734Y0148283D01*
X0172453Y0147564D01*
X0173588Y0147094D01*
X0174817Y0147094D01*
X0175952Y0147564D01*
X0176821Y0148433D01*
X0177291Y0149568D01*
X0177291Y0150797D01*
X0176821Y0151932D01*
X0175952Y0152801D01*
X0174817Y0153272D01*
X0173588Y0153272D01*
X0172453Y0152801D01*
X0171734Y0152083D01*
X0093871Y0152083D01*
X0093152Y0152801D01*
X0092017Y0153272D01*
X0090788Y0153272D01*
X0089653Y0152801D01*
X0088934Y0152083D01*
X0087998Y0152083D01*
X0088495Y0152580D01*
X0089302Y0154528D01*
X0089302Y0156637D01*
X0088538Y0158483D01*
X0111134Y0158483D01*
X0111853Y0157764D01*
X0112988Y0157294D01*
X0114217Y0157294D01*
X0115352Y0157764D01*
X0116221Y0158633D01*
X0116691Y0159768D01*
X0116691Y0160997D01*
X0116221Y0162132D01*
X0115352Y0163001D01*
X0114217Y0163472D01*
X0112988Y0163472D01*
X0111853Y0163001D01*
X0111134Y0162283D01*
X0061215Y0162283D01*
X0058215Y0159283D01*
X0058007Y0159074D01*
X0057005Y0160076D01*
X0055057Y0160883D01*
X0052948Y0160883D01*
X0051000Y0160076D01*
X0049509Y0158585D01*
X0048702Y0156637D01*
X0048702Y0154528D01*
X0049509Y0152580D01*
X0050511Y0151579D01*
X0048615Y0149683D01*
X0047502Y0148570D01*
X0047502Y0142796D01*
X0050895Y0139403D01*
X0049588Y0138097D01*
X0048781Y0136149D01*
X0048781Y0134040D01*
X0049588Y0132092D01*
X0051079Y0130601D01*
X0052303Y0130094D01*
X0051079Y0129588D01*
X0049588Y0128097D01*
X0048781Y0126149D01*
X0048781Y0124040D01*
X0049588Y0122092D01*
X0051079Y0120601D01*
X0052303Y0120094D01*
X0051079Y0119588D01*
X0049588Y0118097D01*
X0048781Y0116149D01*
X0048781Y0114040D01*
X0049588Y0112092D01*
X0051079Y0110601D01*
X0052303Y0110094D01*
X0051079Y0109588D01*
X0049588Y0108097D01*
X0048781Y0106149D01*
X0048781Y0104040D01*
X0049588Y0102092D01*
X0051079Y0100601D01*
X0052815Y0099882D01*
X0051615Y0098683D01*
X0050048Y0098683D01*
X0048100Y0097876D01*
X0046609Y0096385D01*
X0045802Y0094437D01*
X0045802Y0092328D01*
X0046609Y0090380D01*
X0048100Y0088890D01*
X0050048Y0088083D01*
X0052157Y0088083D01*
X0054105Y0088890D01*
X0055595Y0090380D01*
X0056402Y0092328D01*
X0056402Y0094437D01*
X0055595Y0096385D01*
X0055144Y0096837D01*
X0059789Y0101483D01*
X0059993Y0101687D01*
X0061079Y0100601D01*
X0063027Y0099794D01*
X0065135Y0099794D01*
X0067083Y0100601D01*
X0068574Y0102092D01*
X0069081Y0103316D01*
X0069588Y0102092D01*
X0071079Y0100601D01*
X0073027Y0099794D01*
X0075135Y0099794D01*
X0077083Y0100601D01*
X0078574Y0102092D01*
X0079081Y0103316D01*
X0079588Y0102092D01*
X0081079Y0100601D01*
X0083027Y0099794D01*
X0085135Y0099794D01*
X0087083Y0100601D01*
X0088574Y0102092D01*
X0089381Y0104040D01*
X0089381Y0106149D01*
X0088574Y0108097D01*
X0087083Y0109588D01*
X0085860Y0110094D01*
X0087083Y0110601D01*
X0088574Y0112092D01*
X0089381Y0114040D01*
X0089381Y0116149D01*
X0088574Y0118097D01*
X0087589Y0119082D01*
X0087865Y0119359D01*
X0088988Y0118894D01*
X0090217Y0118894D01*
X0091352Y0119364D01*
X0092221Y0120233D01*
X0092691Y0121368D01*
X0092691Y0122597D01*
X0092221Y0123732D01*
X0091352Y0124601D01*
X0090217Y0125072D01*
X0089381Y0125072D01*
X0089381Y0126149D01*
X0088663Y0127883D01*
X0091815Y0127883D01*
X0110513Y0109185D01*
X0110513Y0108168D01*
X0110984Y0107033D01*
X0111853Y0106164D01*
X0112988Y0105694D01*
X0114217Y0105694D01*
X0115352Y0106164D01*
X0116221Y0107033D01*
X0116234Y0107064D01*
X0123713Y0099585D01*
X0123713Y0099272D01*
X0123188Y0099272D01*
X0122053Y0098801D01*
X0121334Y0098083D01*
X0118815Y0098083D01*
X0105736Y0085004D01*
X0104943Y0085332D01*
X0103188Y0085332D01*
X0101567Y0084661D01*
X0100326Y0083420D01*
X0099654Y0081799D01*
X0099654Y0080044D01*
X0099748Y0079819D01*
X0098919Y0079819D01*
X0099034Y0080543D01*
X0099034Y0080921D01*
X0094223Y0080921D01*
X0094223Y0080921D01*
X0099034Y0080921D01*
X0099034Y0081300D01*
X0098915Y0082048D01*
X0098681Y0082768D01*
X0098338Y0083443D01*
X0097892Y0084055D01*
X0097357Y0084591D01*
X0096744Y0085036D01*
X0096070Y0085380D01*
X0095349Y0085614D01*
X0094601Y0085732D01*
X0094223Y0085732D01*
X0094223Y0080921D01*
X0089412Y0080921D01*
X0089412Y0080543D01*
X0089530Y0079795D01*
X0089628Y0079495D01*
X0089044Y0080078D01*
X0088364Y0080573D01*
X0087614Y0080955D01*
X0086813Y0081215D01*
X0085982Y0081346D01*
X0085644Y0081346D01*
X0085644Y0072736D01*
X0085644Y0072571D01*
X0090908Y0072571D01*
X0090908Y0068886D01*
X0090776Y0068055D01*
X0090516Y0067255D01*
X0090134Y0066505D01*
X0089639Y0065824D01*
X0089044Y0065229D01*
X0088364Y0064734D01*
X0088066Y0064583D01*
X0127939Y0064583D01*
X0127641Y0064734D01*
X0126960Y0065229D01*
X0126365Y0065824D01*
X0125871Y0066505D01*
X0125489Y0067255D01*
X0125228Y0068055D01*
X0125097Y0068886D01*
X0125097Y0072571D01*
X0130361Y0072571D01*
X0130361Y0072736D01*
X0130526Y0072736D01*
X0135790Y0072736D01*
X0135790Y0076421D01*
X0135658Y0077252D01*
X0135398Y0078052D01*
X0135016Y0078802D01*
X0134521Y0079483D01*
X0133926Y0080078D01*
X0133245Y0080573D01*
X0132496Y0080955D01*
X0131695Y0081215D01*
X0130864Y0081346D01*
X0130526Y0081346D01*
X0130526Y0072736D01*
X0130526Y0072571D01*
X0135790Y0072571D01*
X0135790Y0068886D01*
X0135658Y0068055D01*
X0135398Y0067255D01*
X0135016Y0066505D01*
X0134521Y0065824D01*
X0133926Y0065229D01*
X0133245Y0064734D01*
X0132948Y0064583D01*
X0177703Y0064583D01*
X0177703Y0231543D01*
X0062440Y0231543D01*
X0062606Y0231327D01*
X0063047Y0230563D01*
X0063384Y0229749D01*
X0063612Y0228897D01*
X0063710Y0228158D01*
X0057577Y0228158D01*
X0057577Y0227008D01*
X0057577Y0220875D01*
X0058317Y0220973D01*
X0059169Y0221201D01*
X0059983Y0221538D01*
X0060747Y0221979D01*
X0061446Y0222516D01*
X0062069Y0223139D01*
X0062606Y0223838D01*
X0063047Y0224602D01*
X0063384Y0225416D01*
X0063612Y0226268D01*
X0063710Y0227008D01*
X0057577Y0227008D01*
X0056427Y0227008D01*
X0050295Y0227008D01*
X0050392Y0226268D01*
X0050621Y0225416D01*
X0050958Y0224602D01*
X0051399Y0223838D01*
X0051935Y0223139D01*
X0052559Y0222516D01*
X0053258Y0221979D01*
X0054022Y0221538D01*
X0054836Y0221201D01*
X0055688Y0220973D01*
X0056427Y0220875D01*
X0056427Y0227008D01*
X0056427Y0228158D01*
X0050295Y0228158D01*
X0050392Y0228897D01*
X0050621Y0229749D01*
X0050958Y0230563D01*
X0051399Y0231327D01*
X0051565Y0231543D01*
X0042440Y0231543D01*
X0042606Y0231327D01*
X0043047Y0230563D01*
X0043384Y0229749D01*
X0043612Y0228897D01*
X0043710Y0228158D01*
X0037577Y0228158D01*
X0037577Y0227008D01*
X0037577Y0220875D01*
X0038317Y0220973D01*
X0039169Y0221201D01*
X0039983Y0221538D01*
X0040747Y0221979D01*
X0041446Y0222516D01*
X0042069Y0223139D01*
X0042606Y0223838D01*
X0043047Y0224602D01*
X0043384Y0225416D01*
X0043612Y0226268D01*
X0043710Y0227008D01*
X0037577Y0227008D01*
X0036427Y0227008D01*
X0036427Y0220875D01*
X0035688Y0220973D01*
X0034836Y0221201D01*
X0034022Y0221538D01*
X0033258Y0221979D01*
X0032559Y0222516D01*
X0032002Y0223072D01*
X0032002Y0212093D01*
X0032559Y0212650D01*
X0033258Y0213186D01*
X0034022Y0213627D01*
X0034836Y0213964D01*
X0035688Y0214193D01*
X0036427Y0214290D01*
X0036427Y0208158D01*
X0037577Y0208158D01*
X0037577Y0214290D01*
X0038317Y0214193D01*
X0039169Y0213964D01*
X0039983Y0213627D01*
X0040747Y0213186D01*
X0041446Y0212650D01*
X0042069Y0212026D01*
X0042606Y0211327D01*
X0043047Y0210563D01*
X0043384Y0209749D01*
X0043612Y0208897D01*
X0043710Y0208158D01*
X0037577Y0208158D01*
X0037577Y0207008D01*
X0037577Y0200875D01*
X0038317Y0200973D01*
X0039169Y0201201D01*
X0039983Y0201538D01*
X0040747Y0201979D01*
X0041446Y0202516D01*
X0042069Y0203139D01*
X0042606Y0203838D01*
X0043047Y0204602D01*
X0043313Y0205246D01*
X0043313Y0204768D01*
X0043784Y0203633D01*
X0044653Y0202764D01*
X0045788Y0202294D01*
X0047017Y0202294D01*
X0048152Y0202764D01*
X0049021Y0203633D01*
X0049491Y0204768D01*
X0049491Y0205997D01*
X0049021Y0207132D01*
X0048302Y0207851D01*
X0048302Y0211519D01*
X0050458Y0212411D01*
X0052174Y0214127D01*
X0053102Y0216369D01*
X0053102Y0218796D01*
X0052174Y0221038D01*
X0050458Y0222754D01*
X0048216Y0223683D01*
X0045789Y0223683D01*
X0043547Y0222754D01*
X0041831Y0221038D01*
X0040902Y0218796D01*
X0040902Y0216369D01*
X0041831Y0214127D01*
X0043547Y0212411D01*
X0044502Y0212016D01*
X0044502Y0207851D01*
X0043784Y0207132D01*
X0043699Y0206929D01*
X0043710Y0207008D01*
X0037577Y0207008D01*
X0036427Y0207008D01*
X0036427Y0200875D01*
X0035688Y0200973D01*
X0034836Y0201201D01*
X0034022Y0201538D01*
X0033258Y0201979D01*
X0032559Y0202516D01*
X0032002Y0203072D01*
X0032002Y0201477D02*
X0034170Y0201477D01*
X0036427Y0201477D02*
X0037577Y0201477D01*
X0037577Y0203475D02*
X0036427Y0203475D01*
X0036427Y0205474D02*
X0037577Y0205474D01*
X0037577Y0207473D02*
X0044124Y0207473D01*
X0044502Y0209471D02*
X0043459Y0209471D01*
X0042497Y0211470D02*
X0044502Y0211470D01*
X0042490Y0213468D02*
X0040259Y0213468D01*
X0041276Y0215467D02*
X0032002Y0215467D01*
X0032002Y0217465D02*
X0040902Y0217465D01*
X0041179Y0219464D02*
X0032002Y0219464D01*
X0032002Y0221462D02*
X0034205Y0221462D01*
X0036427Y0221462D02*
X0037577Y0221462D01*
X0037577Y0223461D02*
X0036427Y0223461D01*
X0036427Y0225459D02*
X0037577Y0225459D01*
X0037577Y0227458D02*
X0056427Y0227458D01*
X0057577Y0227458D02*
X0177703Y0227458D01*
X0177703Y0229456D02*
X0063463Y0229456D01*
X0062508Y0231455D02*
X0177703Y0231455D01*
X0177703Y0225459D02*
X0063396Y0225459D01*
X0062316Y0223461D02*
X0177703Y0223461D01*
X0177703Y0221462D02*
X0059799Y0221462D01*
X0057577Y0221462D02*
X0056427Y0221462D01*
X0056427Y0223461D02*
X0057577Y0223461D01*
X0057577Y0225459D02*
X0056427Y0225459D01*
X0054205Y0221462D02*
X0051750Y0221462D01*
X0051689Y0223461D02*
X0048752Y0223461D01*
X0050609Y0225459D02*
X0043396Y0225459D01*
X0042316Y0223461D02*
X0045253Y0223461D01*
X0042255Y0221462D02*
X0039799Y0221462D01*
X0037577Y0213468D02*
X0036427Y0213468D01*
X0036427Y0211470D02*
X0037577Y0211470D01*
X0037577Y0209471D02*
X0036427Y0209471D01*
X0033746Y0213468D02*
X0032002Y0213468D01*
X0039835Y0201477D02*
X0054170Y0201477D01*
X0054022Y0201538D02*
X0054836Y0201201D01*
X0055688Y0200973D01*
X0056427Y0200875D01*
X0056427Y0207008D01*
X0050295Y0207008D01*
X0050392Y0206268D01*
X0050621Y0205416D01*
X0050958Y0204602D01*
X0051399Y0203838D01*
X0051935Y0203139D01*
X0052559Y0202516D01*
X0053258Y0201979D01*
X0054022Y0201538D01*
X0056427Y0201477D02*
X0057577Y0201477D01*
X0057577Y0200875D02*
X0058317Y0200973D01*
X0059169Y0201201D01*
X0059983Y0201538D01*
X0060747Y0201979D01*
X0061446Y0202516D01*
X0061728Y0202798D01*
X0061313Y0201797D01*
X0061313Y0200568D01*
X0061784Y0199433D01*
X0062653Y0198564D01*
X0063788Y0198094D01*
X0065017Y0198094D01*
X0066152Y0198564D01*
X0066871Y0199283D01*
X0068789Y0199283D01*
X0078800Y0209293D01*
X0079509Y0207580D01*
X0081000Y0206090D01*
X0082948Y0205283D01*
X0085057Y0205283D01*
X0086017Y0205681D01*
X0106215Y0185483D01*
X0120134Y0185483D01*
X0120853Y0184764D01*
X0121988Y0184294D01*
X0122368Y0184294D01*
X0121913Y0183197D01*
X0121913Y0181968D01*
X0122384Y0180833D01*
X0123253Y0179964D01*
X0124388Y0179494D01*
X0125617Y0179494D01*
X0126752Y0179964D01*
X0127621Y0180833D01*
X0128091Y0181968D01*
X0128091Y0183197D01*
X0127621Y0184332D01*
X0126902Y0185051D01*
X0126902Y0189370D01*
X0105302Y0210970D01*
X0104189Y0212083D01*
X0099118Y0212083D01*
X0098495Y0213585D01*
X0097005Y0215076D01*
X0095057Y0215883D01*
X0092948Y0215883D01*
X0091846Y0215426D01*
X0089789Y0217483D01*
X0081615Y0217483D01*
X0080502Y0216370D01*
X0067215Y0203083D01*
X0066871Y0203083D01*
X0066152Y0203801D01*
X0065017Y0204272D01*
X0063788Y0204272D01*
X0062653Y0203801D01*
X0062330Y0203479D01*
X0062606Y0203838D01*
X0063047Y0204602D01*
X0063384Y0205416D01*
X0063612Y0206268D01*
X0063710Y0207008D01*
X0057577Y0207008D01*
X0057577Y0200875D01*
X0057577Y0203475D02*
X0056427Y0203475D01*
X0056427Y0205474D02*
X0057577Y0205474D01*
X0057577Y0207008D02*
X0056427Y0207008D01*
X0056427Y0208158D01*
X0056427Y0214290D01*
X0055688Y0214193D01*
X0054836Y0213964D01*
X0054022Y0213627D01*
X0053258Y0213186D01*
X0052559Y0212650D01*
X0051935Y0212026D01*
X0051399Y0211327D01*
X0050958Y0210563D01*
X0050621Y0209749D01*
X0050392Y0208897D01*
X0050295Y0208158D01*
X0056427Y0208158D01*
X0057577Y0208158D01*
X0057577Y0214290D01*
X0058317Y0214193D01*
X0059169Y0213964D01*
X0059983Y0213627D01*
X0060747Y0213186D01*
X0061446Y0212650D01*
X0062069Y0212026D01*
X0062606Y0211327D01*
X0063047Y0210563D01*
X0063384Y0209749D01*
X0063612Y0208897D01*
X0063710Y0208158D01*
X0057577Y0208158D01*
X0057577Y0207008D01*
X0057577Y0207473D02*
X0071605Y0207473D01*
X0073604Y0209471D02*
X0063459Y0209471D01*
X0062497Y0211470D02*
X0075602Y0211470D01*
X0077601Y0213468D02*
X0060259Y0213468D01*
X0057577Y0213468D02*
X0056427Y0213468D01*
X0056427Y0211470D02*
X0057577Y0211470D01*
X0057577Y0209471D02*
X0056427Y0209471D01*
X0056427Y0207473D02*
X0048681Y0207473D01*
X0048302Y0209471D02*
X0050546Y0209471D01*
X0051508Y0211470D02*
X0048302Y0211470D01*
X0051514Y0213468D02*
X0053746Y0213468D01*
X0052728Y0215467D02*
X0079599Y0215467D01*
X0081598Y0217465D02*
X0053102Y0217465D01*
X0052826Y0219464D02*
X0177703Y0219464D01*
X0177703Y0217465D02*
X0089807Y0217465D01*
X0091805Y0215467D02*
X0091944Y0215467D01*
X0096061Y0215467D02*
X0112391Y0215467D01*
X0113000Y0216076D02*
X0111509Y0214585D01*
X0110702Y0212637D01*
X0110702Y0210528D01*
X0111509Y0208580D01*
X0113000Y0207090D01*
X0114948Y0206283D01*
X0117057Y0206283D01*
X0119005Y0207090D01*
X0120495Y0208580D01*
X0121002Y0209804D01*
X0121509Y0208580D01*
X0123000Y0207090D01*
X0124948Y0206283D01*
X0127057Y0206283D01*
X0129005Y0207090D01*
X0130495Y0208580D01*
X0131002Y0209804D01*
X0131509Y0208580D01*
X0133000Y0207090D01*
X0134948Y0206283D01*
X0137057Y0206283D01*
X0139005Y0207090D01*
X0140495Y0208580D01*
X0141002Y0209804D01*
X0141509Y0208580D01*
X0143000Y0207090D01*
X0144948Y0206283D01*
X0147057Y0206283D01*
X0149005Y0207090D01*
X0150495Y0208580D01*
X0151302Y0210528D01*
X0151302Y0212637D01*
X0150495Y0214585D01*
X0149005Y0216076D01*
X0147057Y0216883D01*
X0144948Y0216883D01*
X0143000Y0216076D01*
X0141509Y0214585D01*
X0141002Y0213361D01*
X0140495Y0214585D01*
X0139005Y0216076D01*
X0137057Y0216883D01*
X0134948Y0216883D01*
X0133000Y0216076D01*
X0131509Y0214585D01*
X0131002Y0213361D01*
X0130495Y0214585D01*
X0129005Y0216076D01*
X0127057Y0216883D01*
X0124948Y0216883D01*
X0123000Y0216076D01*
X0121509Y0214585D01*
X0121002Y0213361D01*
X0120495Y0214585D01*
X0119005Y0216076D01*
X0117057Y0216883D01*
X0114948Y0216883D01*
X0113000Y0216076D01*
X0111047Y0213468D02*
X0098544Y0213468D01*
X0104802Y0211470D02*
X0110702Y0211470D01*
X0111140Y0209471D02*
X0106801Y0209471D01*
X0108800Y0207473D02*
X0112617Y0207473D01*
X0110798Y0205474D02*
X0177703Y0205474D01*
X0177703Y0203475D02*
X0112797Y0203475D01*
X0114795Y0201477D02*
X0177703Y0201477D01*
X0177703Y0199478D02*
X0116794Y0199478D01*
X0118792Y0197480D02*
X0177703Y0197480D01*
X0177703Y0195481D02*
X0120791Y0195481D01*
X0122789Y0193483D02*
X0177703Y0193483D01*
X0177703Y0191484D02*
X0124788Y0191484D01*
X0126786Y0189486D02*
X0177703Y0189486D01*
X0177703Y0187487D02*
X0126902Y0187487D01*
X0126902Y0185489D02*
X0177703Y0185489D01*
X0177703Y0183490D02*
X0127970Y0183490D01*
X0127894Y0181492D02*
X0177703Y0181492D01*
X0177703Y0179493D02*
X0032002Y0179493D01*
X0032002Y0177495D02*
X0177703Y0177495D01*
X0177703Y0175496D02*
X0032002Y0175496D01*
X0032002Y0173498D02*
X0177703Y0173498D01*
X0177703Y0171499D02*
X0032002Y0171499D01*
X0032002Y0169501D02*
X0177703Y0169501D01*
X0177703Y0167502D02*
X0032002Y0167502D01*
X0032002Y0165504D02*
X0177703Y0165504D01*
X0177703Y0163505D02*
X0032002Y0163505D01*
X0032002Y0161507D02*
X0060439Y0161507D01*
X0058441Y0159508D02*
X0057572Y0159508D01*
X0050433Y0159508D02*
X0032002Y0159508D01*
X0032002Y0157510D02*
X0049064Y0157510D01*
X0048702Y0155511D02*
X0032002Y0155511D01*
X0032002Y0153513D02*
X0049123Y0153513D01*
X0050447Y0151514D02*
X0032002Y0151514D01*
X0032002Y0149516D02*
X0048448Y0149516D01*
X0047502Y0147517D02*
X0032002Y0147517D01*
X0032002Y0145519D02*
X0047502Y0145519D01*
X0047502Y0143520D02*
X0032002Y0143520D01*
X0032002Y0141522D02*
X0048776Y0141522D01*
X0050775Y0139523D02*
X0032002Y0139523D01*
X0032002Y0137525D02*
X0049351Y0137525D01*
X0048781Y0135526D02*
X0032002Y0135526D01*
X0032002Y0133528D02*
X0048993Y0133528D01*
X0050151Y0131529D02*
X0032002Y0131529D01*
X0032002Y0129531D02*
X0051022Y0129531D01*
X0049354Y0127532D02*
X0032002Y0127532D01*
X0032002Y0125534D02*
X0048781Y0125534D01*
X0048990Y0123535D02*
X0032002Y0123535D01*
X0032002Y0121537D02*
X0050144Y0121537D01*
X0051029Y0119538D02*
X0032002Y0119538D01*
X0032002Y0117540D02*
X0049357Y0117540D01*
X0048781Y0115541D02*
X0032002Y0115541D01*
X0032002Y0113542D02*
X0048987Y0113542D01*
X0050136Y0111544D02*
X0032002Y0111544D01*
X0032002Y0109545D02*
X0051037Y0109545D01*
X0049360Y0107547D02*
X0032002Y0107547D01*
X0032002Y0105548D02*
X0048781Y0105548D01*
X0048984Y0103550D02*
X0032002Y0103550D01*
X0032002Y0101551D02*
X0050129Y0101551D01*
X0052486Y0099553D02*
X0032002Y0099553D01*
X0032002Y0097554D02*
X0047779Y0097554D01*
X0046266Y0095556D02*
X0032002Y0095556D01*
X0032002Y0093557D02*
X0045802Y0093557D01*
X0046121Y0091559D02*
X0032002Y0091559D01*
X0032002Y0089560D02*
X0047429Y0089560D01*
X0054775Y0089560D02*
X0064664Y0089560D01*
X0064555Y0089669D02*
X0065189Y0089035D01*
X0065915Y0088508D01*
X0066714Y0088100D01*
X0067568Y0087823D01*
X0068454Y0087683D01*
X0068902Y0087683D01*
X0068902Y0093383D01*
X0068902Y0093383D01*
X0063202Y0093383D01*
X0063202Y0093831D01*
X0063343Y0094717D01*
X0063620Y0095571D01*
X0064027Y0096370D01*
X0064555Y0097096D01*
X0065189Y0097730D01*
X0065915Y0098258D01*
X0066714Y0098665D01*
X0067568Y0098942D01*
X0068454Y0099083D01*
X0068902Y0099083D01*
X0068902Y0093383D01*
X0068902Y0093383D01*
X0063202Y0093383D01*
X0063202Y0092934D01*
X0063343Y0092048D01*
X0063620Y0091195D01*
X0064027Y0090395D01*
X0064555Y0089669D01*
X0063502Y0091559D02*
X0056084Y0091559D01*
X0056402Y0093557D02*
X0063202Y0093557D01*
X0063615Y0095556D02*
X0055939Y0095556D01*
X0055861Y0097554D02*
X0065013Y0097554D01*
X0068902Y0097554D02*
X0068902Y0097554D01*
X0068902Y0099083D02*
X0068902Y0093383D01*
X0068902Y0093383D01*
X0074602Y0093383D01*
X0074602Y0093831D01*
X0074462Y0094717D01*
X0074185Y0095571D01*
X0073777Y0096370D01*
X0073250Y0097096D01*
X0072616Y0097730D01*
X0071890Y0098258D01*
X0071090Y0098665D01*
X0070237Y0098942D01*
X0069351Y0099083D01*
X0068902Y0099083D01*
X0068033Y0101551D02*
X0070129Y0101551D01*
X0072792Y0097554D02*
X0118287Y0097554D01*
X0116289Y0095556D02*
X0074190Y0095556D01*
X0074602Y0093557D02*
X0114290Y0093557D01*
X0112292Y0091559D02*
X0074303Y0091559D01*
X0074185Y0091195D02*
X0074462Y0092048D01*
X0074602Y0092934D01*
X0074602Y0093383D01*
X0068902Y0093383D01*
X0068902Y0093383D01*
X0068902Y0087683D01*
X0069351Y0087683D01*
X0070237Y0087823D01*
X0071090Y0088100D01*
X0071890Y0088508D01*
X0072616Y0089035D01*
X0073250Y0089669D01*
X0073777Y0090395D01*
X0074185Y0091195D01*
X0073141Y0089560D02*
X0110293Y0089560D01*
X0108295Y0087562D02*
X0032002Y0087562D01*
X0032002Y0085563D02*
X0092941Y0085563D01*
X0093096Y0085614D02*
X0092376Y0085380D01*
X0091701Y0085036D01*
X0091089Y0084591D01*
X0090553Y0084055D01*
X0090108Y0083443D01*
X0089764Y0082768D01*
X0089530Y0082048D01*
X0089412Y0081300D01*
X0089412Y0080921D01*
X0094223Y0080921D01*
X0094223Y0080921D01*
X0094223Y0080921D01*
X0094223Y0085732D01*
X0093844Y0085732D01*
X0093096Y0085614D01*
X0094223Y0085563D02*
X0094223Y0085563D01*
X0095505Y0085563D02*
X0106296Y0085563D01*
X0100471Y0083565D02*
X0098249Y0083565D01*
X0098992Y0081566D02*
X0099654Y0081566D01*
X0094223Y0081566D02*
X0094223Y0081566D01*
X0094223Y0083565D02*
X0094223Y0083565D01*
X0090771Y0077569D02*
X0090673Y0077569D01*
X0090908Y0075571D02*
X0092597Y0075571D01*
X0091979Y0073572D02*
X0090908Y0073572D01*
X0090908Y0071574D02*
X0091979Y0071574D01*
X0092663Y0069575D02*
X0090908Y0069575D01*
X0090621Y0067577D02*
X0094088Y0067577D01*
X0097501Y0065578D02*
X0089394Y0065578D01*
X0085644Y0073572D02*
X0085479Y0073572D01*
X0085479Y0075571D02*
X0085644Y0075571D01*
X0085644Y0077569D02*
X0085479Y0077569D01*
X0085479Y0079568D02*
X0085644Y0079568D01*
X0089555Y0079568D02*
X0089604Y0079568D01*
X0089454Y0081566D02*
X0032002Y0081566D01*
X0032002Y0079568D02*
X0081568Y0079568D01*
X0080450Y0077569D02*
X0032002Y0077569D01*
X0032002Y0075571D02*
X0080215Y0075571D01*
X0080215Y0073572D02*
X0032002Y0073572D01*
X0032002Y0071574D02*
X0047398Y0071574D01*
X0046108Y0069575D02*
X0032002Y0069575D01*
X0032002Y0067577D02*
X0045802Y0067577D01*
X0046279Y0065578D02*
X0032002Y0065578D01*
X0032002Y0083565D02*
X0090197Y0083565D01*
X0080215Y0071574D02*
X0072607Y0071574D01*
X0073897Y0069575D02*
X0080215Y0069575D01*
X0080502Y0067577D02*
X0074202Y0067577D01*
X0073726Y0065578D02*
X0081729Y0065578D01*
X0065198Y0071574D02*
X0054807Y0071574D01*
X0056097Y0069575D02*
X0063908Y0069575D01*
X0063602Y0067577D02*
X0056402Y0067577D01*
X0055926Y0065578D02*
X0064079Y0065578D01*
X0068902Y0089560D02*
X0068902Y0089560D01*
X0068902Y0091559D02*
X0068902Y0091559D01*
X0068902Y0093557D02*
X0068902Y0093557D01*
X0068902Y0095556D02*
X0068902Y0095556D01*
X0060129Y0101551D02*
X0059858Y0101551D01*
X0057860Y0099553D02*
X0123713Y0099553D01*
X0121747Y0101551D02*
X0088033Y0101551D01*
X0089178Y0103550D02*
X0119748Y0103550D01*
X0117750Y0105548D02*
X0089381Y0105548D01*
X0088802Y0107547D02*
X0110771Y0107547D01*
X0110153Y0109545D02*
X0087125Y0109545D01*
X0088026Y0111544D02*
X0108154Y0111544D01*
X0106156Y0113542D02*
X0089175Y0113542D01*
X0089381Y0115541D02*
X0104157Y0115541D01*
X0102159Y0117540D02*
X0088805Y0117540D01*
X0091526Y0119538D02*
X0100160Y0119538D01*
X0098162Y0121537D02*
X0092691Y0121537D01*
X0092303Y0123535D02*
X0096163Y0123535D01*
X0094164Y0125534D02*
X0089381Y0125534D01*
X0088808Y0127532D02*
X0092166Y0127532D01*
X0097143Y0131529D02*
X0177703Y0131529D01*
X0177703Y0129531D02*
X0099141Y0129531D01*
X0101140Y0127532D02*
X0177703Y0127532D01*
X0177703Y0125534D02*
X0103138Y0125534D01*
X0105137Y0123535D02*
X0177703Y0123535D01*
X0177703Y0121537D02*
X0107135Y0121537D01*
X0109134Y0119538D02*
X0177703Y0119538D01*
X0177703Y0117540D02*
X0111133Y0117540D01*
X0113131Y0115541D02*
X0177703Y0115541D01*
X0177703Y0113542D02*
X0115130Y0113542D01*
X0117128Y0111544D02*
X0177703Y0111544D01*
X0177703Y0109545D02*
X0119127Y0109545D01*
X0121125Y0107547D02*
X0177703Y0107547D01*
X0177703Y0105548D02*
X0123124Y0105548D01*
X0125122Y0103550D02*
X0177703Y0103550D01*
X0177703Y0101551D02*
X0128802Y0101551D01*
X0129891Y0099553D02*
X0177703Y0099553D01*
X0177703Y0097554D02*
X0129471Y0097554D01*
X0126886Y0095556D02*
X0177703Y0095556D01*
X0177703Y0093557D02*
X0126742Y0093557D01*
X0126722Y0091559D02*
X0177703Y0091559D01*
X0177703Y0089560D02*
X0124578Y0089560D01*
X0124092Y0087562D02*
X0177703Y0087562D01*
X0177703Y0085563D02*
X0124491Y0085563D01*
X0126193Y0083565D02*
X0177703Y0083565D01*
X0177703Y0081566D02*
X0126193Y0081566D01*
X0126193Y0079568D02*
X0126450Y0079568D01*
X0125097Y0075571D02*
X0123408Y0075571D01*
X0124026Y0073572D02*
X0125097Y0073572D01*
X0125097Y0071574D02*
X0124026Y0071574D01*
X0123341Y0069575D02*
X0125097Y0069575D01*
X0125384Y0067577D02*
X0121917Y0067577D01*
X0118503Y0065578D02*
X0126611Y0065578D01*
X0130361Y0073572D02*
X0130526Y0073572D01*
X0130526Y0075571D02*
X0130361Y0075571D01*
X0130361Y0077569D02*
X0130526Y0077569D01*
X0130526Y0079568D02*
X0130361Y0079568D01*
X0134437Y0079568D02*
X0177703Y0079568D01*
X0177703Y0077569D02*
X0135555Y0077569D01*
X0135790Y0075571D02*
X0177703Y0075571D01*
X0177703Y0073572D02*
X0135790Y0073572D01*
X0135790Y0071574D02*
X0177703Y0071574D01*
X0177703Y0069575D02*
X0135790Y0069575D01*
X0135503Y0067577D02*
X0177703Y0067577D01*
X0177703Y0065578D02*
X0134275Y0065578D01*
X0115218Y0065578D02*
X0100787Y0065578D01*
X0104201Y0067577D02*
X0111804Y0067577D01*
X0110380Y0069575D02*
X0105625Y0069575D01*
X0106309Y0071574D02*
X0109695Y0071574D01*
X0109695Y0073572D02*
X0106309Y0073572D01*
X0105691Y0075571D02*
X0110313Y0075571D01*
X0109053Y0077569D02*
X0106952Y0077569D01*
X0080129Y0101551D02*
X0078033Y0101551D01*
X0095144Y0133528D02*
X0177703Y0133528D01*
X0177703Y0135526D02*
X0093146Y0135526D01*
X0091147Y0137525D02*
X0177703Y0137525D01*
X0177703Y0139523D02*
X0089149Y0139523D01*
X0087437Y0141522D02*
X0177703Y0141522D01*
X0177703Y0143520D02*
X0088885Y0143520D01*
X0089302Y0145519D02*
X0177703Y0145519D01*
X0177703Y0147517D02*
X0175839Y0147517D01*
X0177270Y0149516D02*
X0177703Y0149516D01*
X0177703Y0151514D02*
X0176994Y0151514D01*
X0177703Y0153513D02*
X0088882Y0153513D01*
X0089302Y0155511D02*
X0177703Y0155511D01*
X0177703Y0157510D02*
X0114738Y0157510D01*
X0112466Y0157510D02*
X0088941Y0157510D01*
X0088938Y0147517D02*
X0089766Y0147517D01*
X0093039Y0147517D02*
X0172566Y0147517D01*
X0177703Y0159508D02*
X0116584Y0159508D01*
X0116480Y0161507D02*
X0177703Y0161507D01*
X0177703Y0207473D02*
X0149388Y0207473D01*
X0150864Y0209471D02*
X0177703Y0209471D01*
X0177703Y0211470D02*
X0151302Y0211470D01*
X0150958Y0213468D02*
X0177703Y0213468D01*
X0177703Y0215467D02*
X0149614Y0215467D01*
X0142391Y0215467D02*
X0139614Y0215467D01*
X0140958Y0213468D02*
X0141047Y0213468D01*
X0141140Y0209471D02*
X0140864Y0209471D01*
X0139388Y0207473D02*
X0142617Y0207473D01*
X0132617Y0207473D02*
X0129388Y0207473D01*
X0130864Y0209471D02*
X0131140Y0209471D01*
X0131047Y0213468D02*
X0130958Y0213468D01*
X0129614Y0215467D02*
X0132391Y0215467D01*
X0122391Y0215467D02*
X0119614Y0215467D01*
X0120958Y0213468D02*
X0121047Y0213468D01*
X0121140Y0209471D02*
X0120864Y0209471D01*
X0119388Y0207473D02*
X0122617Y0207473D01*
X0104211Y0187487D02*
X0032002Y0187487D01*
X0032002Y0185489D02*
X0106209Y0185489D01*
X0102212Y0189486D02*
X0032002Y0189486D01*
X0032002Y0191484D02*
X0100214Y0191484D01*
X0098215Y0193483D02*
X0032002Y0193483D01*
X0032002Y0195481D02*
X0096217Y0195481D01*
X0094218Y0197480D02*
X0032002Y0197480D01*
X0032002Y0199478D02*
X0061765Y0199478D01*
X0061313Y0201477D02*
X0059835Y0201477D01*
X0063400Y0205474D02*
X0069607Y0205474D01*
X0067608Y0203475D02*
X0066478Y0203475D01*
X0068985Y0199478D02*
X0092220Y0199478D01*
X0090221Y0201477D02*
X0070984Y0201477D01*
X0072982Y0203475D02*
X0088223Y0203475D01*
X0086224Y0205474D02*
X0085518Y0205474D01*
X0082486Y0205474D02*
X0074981Y0205474D01*
X0076979Y0207473D02*
X0079617Y0207473D01*
X0051677Y0203475D02*
X0048864Y0203475D01*
X0049491Y0205474D02*
X0050605Y0205474D01*
X0043941Y0203475D02*
X0042327Y0203475D01*
X0032002Y0183490D02*
X0122035Y0183490D01*
X0122111Y0181492D02*
X0032002Y0181492D01*
X0043463Y0229456D02*
X0050542Y0229456D01*
X0051497Y0231455D02*
X0042508Y0231455D01*
M02*
