G75*
%MOIN*%
%OFA0B0*%
%FSLAX25Y25*%
%IPPOS*%
%LPD*%
%AMOC8*
5,1,8,0,0,1.08239X$1,22.5*
%
%ADD10C,0.00512*%
%ADD11C,0.00400*%
%ADD12R,0.03150X0.04724*%
%ADD13R,0.09331X0.08780*%
%ADD14R,0.03268X0.02480*%
%ADD15C,0.05622*%
%ADD16R,0.05622X0.05622*%
%ADD17C,0.06693*%
%ADD18R,0.04724X0.04724*%
%ADD19R,0.05118X0.05906*%
%ADD20C,0.09000*%
%ADD21C,0.09450*%
%ADD22C,0.07400*%
%ADD23R,0.06299X0.05906*%
%ADD24R,0.06600X0.01400*%
%ADD25R,0.02100X0.07800*%
%ADD26R,0.05500X0.01370*%
%ADD27R,0.03937X0.04331*%
%ADD28C,0.00600*%
%ADD29C,0.02978*%
%ADD30C,0.02000*%
D10*
X0010325Y0059583D02*
X0043002Y0059583D01*
X0018002Y0059839D02*
X0019026Y0069819D01*
X0019259Y0069819D02*
X0018002Y0059839D01*
X0016979Y0069819D01*
X0016746Y0069819D02*
X0019259Y0069819D01*
X0018514Y0069819D02*
X0018002Y0059839D01*
X0017491Y0069819D01*
X0016746Y0069819D02*
X0018002Y0059839D01*
X0018002Y0234287D01*
X0019026Y0224307D01*
X0019259Y0224307D02*
X0018002Y0234287D01*
X0016979Y0224307D01*
X0016746Y0224307D02*
X0019259Y0224307D01*
X0018514Y0224307D02*
X0018002Y0234287D01*
X0017491Y0224307D01*
X0016746Y0224307D02*
X0018002Y0234287D01*
X0010325Y0234543D02*
X0043002Y0234543D01*
X0043002Y0247260D01*
X0043258Y0239583D02*
X0053239Y0238559D01*
X0053239Y0238326D02*
X0043258Y0239583D01*
X0053239Y0240606D01*
X0053239Y0240840D02*
X0053239Y0238326D01*
X0053239Y0239071D02*
X0043258Y0239583D01*
X0053239Y0240094D01*
X0053239Y0240840D02*
X0043258Y0239583D01*
X0171447Y0239583D01*
X0161467Y0238559D01*
X0161467Y0238326D02*
X0171447Y0239583D01*
X0161467Y0240606D01*
X0161467Y0240840D02*
X0161467Y0238326D01*
X0161467Y0239071D02*
X0171447Y0239583D01*
X0161467Y0240094D01*
X0161467Y0240840D02*
X0171447Y0239583D01*
X0171703Y0234543D02*
X0171703Y0247260D01*
D11*
X0116447Y0244867D02*
X0116447Y0243589D01*
X0114914Y0243589D01*
X0116447Y0243589D02*
X0116445Y0243500D01*
X0116439Y0243411D01*
X0116430Y0243322D01*
X0116416Y0243234D01*
X0116399Y0243147D01*
X0116377Y0243060D01*
X0116352Y0242974D01*
X0116324Y0242890D01*
X0116291Y0242807D01*
X0116255Y0242725D01*
X0116216Y0242645D01*
X0116173Y0242567D01*
X0116127Y0242491D01*
X0116077Y0242417D01*
X0116025Y0242345D01*
X0115969Y0242275D01*
X0115910Y0242208D01*
X0115848Y0242144D01*
X0115784Y0242082D01*
X0115717Y0242023D01*
X0115647Y0241967D01*
X0115575Y0241915D01*
X0115501Y0241865D01*
X0115425Y0241819D01*
X0115347Y0241776D01*
X0115267Y0241737D01*
X0115185Y0241701D01*
X0115102Y0241668D01*
X0115018Y0241640D01*
X0114932Y0241615D01*
X0114845Y0241593D01*
X0114758Y0241576D01*
X0114670Y0241562D01*
X0114581Y0241553D01*
X0114492Y0241547D01*
X0114403Y0241545D01*
X0111947Y0242822D02*
X0111947Y0243078D01*
X0111945Y0243140D01*
X0111940Y0243201D01*
X0111930Y0243262D01*
X0111917Y0243323D01*
X0111901Y0243382D01*
X0111881Y0243440D01*
X0111857Y0243497D01*
X0111830Y0243553D01*
X0111800Y0243607D01*
X0111766Y0243659D01*
X0111730Y0243708D01*
X0111690Y0243756D01*
X0111648Y0243801D01*
X0111603Y0243843D01*
X0111555Y0243883D01*
X0111506Y0243919D01*
X0111454Y0243953D01*
X0111400Y0243983D01*
X0111344Y0244010D01*
X0111287Y0244034D01*
X0111229Y0244054D01*
X0111170Y0244070D01*
X0111109Y0244083D01*
X0111048Y0244093D01*
X0110987Y0244098D01*
X0110925Y0244100D01*
X0109392Y0244100D01*
X0109392Y0242822D01*
X0109391Y0242822D02*
X0109393Y0242752D01*
X0109399Y0242681D01*
X0109408Y0242612D01*
X0109422Y0242543D01*
X0109439Y0242474D01*
X0109460Y0242407D01*
X0109485Y0242341D01*
X0109513Y0242277D01*
X0109545Y0242214D01*
X0109580Y0242153D01*
X0109619Y0242094D01*
X0109660Y0242037D01*
X0109705Y0241983D01*
X0109753Y0241931D01*
X0109803Y0241882D01*
X0109857Y0241835D01*
X0109912Y0241792D01*
X0109970Y0241752D01*
X0110030Y0241715D01*
X0110092Y0241682D01*
X0110156Y0241652D01*
X0110221Y0241625D01*
X0110287Y0241602D01*
X0110355Y0241583D01*
X0110424Y0241568D01*
X0110493Y0241556D01*
X0110563Y0241548D01*
X0110634Y0241544D01*
X0110704Y0241544D01*
X0110775Y0241548D01*
X0110845Y0241556D01*
X0110914Y0241568D01*
X0110983Y0241583D01*
X0111051Y0241602D01*
X0111117Y0241625D01*
X0111182Y0241652D01*
X0111246Y0241682D01*
X0111308Y0241715D01*
X0111368Y0241752D01*
X0111426Y0241792D01*
X0111481Y0241835D01*
X0111535Y0241882D01*
X0111585Y0241931D01*
X0111633Y0241983D01*
X0111678Y0242037D01*
X0111719Y0242094D01*
X0111758Y0242153D01*
X0111793Y0242214D01*
X0111825Y0242277D01*
X0111853Y0242341D01*
X0111878Y0242407D01*
X0111899Y0242474D01*
X0111916Y0242543D01*
X0111930Y0242612D01*
X0111939Y0242681D01*
X0111945Y0242752D01*
X0111947Y0242822D01*
X0109392Y0244100D02*
X0109394Y0244189D01*
X0109400Y0244278D01*
X0109409Y0244367D01*
X0109423Y0244455D01*
X0109440Y0244542D01*
X0109462Y0244629D01*
X0109487Y0244715D01*
X0109515Y0244799D01*
X0109548Y0244882D01*
X0109584Y0244964D01*
X0109623Y0245044D01*
X0109666Y0245122D01*
X0109712Y0245198D01*
X0109762Y0245272D01*
X0109814Y0245344D01*
X0109870Y0245414D01*
X0109929Y0245481D01*
X0109991Y0245545D01*
X0110055Y0245607D01*
X0110122Y0245666D01*
X0110192Y0245722D01*
X0110264Y0245774D01*
X0110338Y0245824D01*
X0110414Y0245870D01*
X0110492Y0245913D01*
X0110572Y0245952D01*
X0110654Y0245988D01*
X0110737Y0246021D01*
X0110821Y0246049D01*
X0110907Y0246074D01*
X0110994Y0246096D01*
X0111081Y0246113D01*
X0111169Y0246127D01*
X0111258Y0246136D01*
X0111347Y0246142D01*
X0111436Y0246144D01*
X0113892Y0244867D02*
X0113892Y0244611D01*
X0113894Y0244549D01*
X0113899Y0244488D01*
X0113909Y0244427D01*
X0113922Y0244366D01*
X0113938Y0244307D01*
X0113958Y0244249D01*
X0113982Y0244192D01*
X0114009Y0244136D01*
X0114039Y0244082D01*
X0114073Y0244030D01*
X0114109Y0243981D01*
X0114149Y0243933D01*
X0114191Y0243888D01*
X0114236Y0243846D01*
X0114284Y0243806D01*
X0114333Y0243770D01*
X0114385Y0243736D01*
X0114439Y0243706D01*
X0114495Y0243679D01*
X0114552Y0243655D01*
X0114610Y0243635D01*
X0114669Y0243619D01*
X0114730Y0243606D01*
X0114791Y0243596D01*
X0114852Y0243591D01*
X0114914Y0243589D01*
X0113891Y0244867D02*
X0113893Y0244937D01*
X0113899Y0245008D01*
X0113908Y0245077D01*
X0113922Y0245146D01*
X0113939Y0245215D01*
X0113960Y0245282D01*
X0113985Y0245348D01*
X0114013Y0245412D01*
X0114045Y0245475D01*
X0114080Y0245536D01*
X0114119Y0245595D01*
X0114160Y0245652D01*
X0114205Y0245706D01*
X0114253Y0245758D01*
X0114303Y0245807D01*
X0114357Y0245854D01*
X0114412Y0245897D01*
X0114470Y0245937D01*
X0114530Y0245974D01*
X0114592Y0246007D01*
X0114656Y0246037D01*
X0114721Y0246064D01*
X0114787Y0246087D01*
X0114855Y0246106D01*
X0114924Y0246121D01*
X0114993Y0246133D01*
X0115063Y0246141D01*
X0115134Y0246145D01*
X0115204Y0246145D01*
X0115275Y0246141D01*
X0115345Y0246133D01*
X0115414Y0246121D01*
X0115483Y0246106D01*
X0115551Y0246087D01*
X0115617Y0246064D01*
X0115682Y0246037D01*
X0115746Y0246007D01*
X0115808Y0245974D01*
X0115868Y0245937D01*
X0115926Y0245897D01*
X0115981Y0245854D01*
X0116035Y0245807D01*
X0116085Y0245758D01*
X0116133Y0245706D01*
X0116178Y0245652D01*
X0116219Y0245595D01*
X0116258Y0245536D01*
X0116293Y0245475D01*
X0116325Y0245412D01*
X0116353Y0245348D01*
X0116378Y0245282D01*
X0116399Y0245215D01*
X0116416Y0245146D01*
X0116430Y0245077D01*
X0116439Y0245008D01*
X0116445Y0244937D01*
X0116447Y0244867D01*
X0107647Y0241800D02*
X0107647Y0241544D01*
X0107392Y0241544D01*
X0107392Y0241800D01*
X0107647Y0241800D01*
X0105647Y0241544D02*
X0103092Y0241544D01*
X0105264Y0244100D01*
X0104497Y0246144D02*
X0104423Y0246142D01*
X0104349Y0246137D01*
X0104275Y0246127D01*
X0104202Y0246114D01*
X0104129Y0246098D01*
X0104058Y0246077D01*
X0103988Y0246053D01*
X0103919Y0246026D01*
X0103851Y0245995D01*
X0103785Y0245961D01*
X0103721Y0245924D01*
X0103659Y0245883D01*
X0103599Y0245839D01*
X0103541Y0245793D01*
X0103485Y0245743D01*
X0103432Y0245691D01*
X0103382Y0245636D01*
X0103335Y0245579D01*
X0103291Y0245519D01*
X0103249Y0245457D01*
X0103211Y0245394D01*
X0103176Y0245328D01*
X0103145Y0245261D01*
X0103117Y0245192D01*
X0103092Y0245122D01*
X0105264Y0244100D02*
X0105311Y0244147D01*
X0105355Y0244197D01*
X0105397Y0244249D01*
X0105436Y0244303D01*
X0105471Y0244359D01*
X0105504Y0244417D01*
X0105534Y0244477D01*
X0105560Y0244538D01*
X0105583Y0244601D01*
X0105602Y0244665D01*
X0105618Y0244729D01*
X0105631Y0244795D01*
X0105640Y0244861D01*
X0105645Y0244927D01*
X0105647Y0244994D01*
X0105645Y0245061D01*
X0105639Y0245128D01*
X0105630Y0245194D01*
X0105616Y0245259D01*
X0105599Y0245324D01*
X0105578Y0245387D01*
X0105553Y0245449D01*
X0105525Y0245510D01*
X0105493Y0245569D01*
X0105458Y0245626D01*
X0105419Y0245681D01*
X0105378Y0245733D01*
X0105333Y0245783D01*
X0105286Y0245830D01*
X0105236Y0245875D01*
X0105184Y0245916D01*
X0105129Y0245955D01*
X0105072Y0245990D01*
X0105013Y0246022D01*
X0104952Y0246050D01*
X0104890Y0246075D01*
X0104827Y0246096D01*
X0104762Y0246113D01*
X0104697Y0246127D01*
X0104631Y0246136D01*
X0104564Y0246142D01*
X0104497Y0246144D01*
X0100125Y0246144D02*
X0098592Y0246144D01*
X0100125Y0246144D02*
X0100188Y0246142D01*
X0100251Y0246136D01*
X0100313Y0246127D01*
X0100374Y0246113D01*
X0100435Y0246096D01*
X0100494Y0246075D01*
X0100552Y0246050D01*
X0100609Y0246022D01*
X0100663Y0245991D01*
X0100715Y0245956D01*
X0100766Y0245918D01*
X0100814Y0245877D01*
X0100859Y0245833D01*
X0100901Y0245787D01*
X0100941Y0245738D01*
X0100977Y0245687D01*
X0101010Y0245633D01*
X0101040Y0245578D01*
X0101066Y0245520D01*
X0101089Y0245462D01*
X0101108Y0245402D01*
X0101123Y0245341D01*
X0101135Y0245279D01*
X0101143Y0245216D01*
X0101147Y0245153D01*
X0101147Y0245091D01*
X0101143Y0245028D01*
X0101135Y0244965D01*
X0101123Y0244903D01*
X0101108Y0244842D01*
X0101089Y0244782D01*
X0101066Y0244724D01*
X0101040Y0244666D01*
X0101010Y0244611D01*
X0100977Y0244557D01*
X0100941Y0244506D01*
X0100901Y0244457D01*
X0100859Y0244411D01*
X0100814Y0244367D01*
X0100766Y0244326D01*
X0100715Y0244288D01*
X0100663Y0244253D01*
X0100609Y0244222D01*
X0100552Y0244194D01*
X0100494Y0244169D01*
X0100435Y0244148D01*
X0100374Y0244131D01*
X0100313Y0244117D01*
X0100251Y0244108D01*
X0100188Y0244102D01*
X0100125Y0244100D01*
X0099103Y0244100D01*
X0099870Y0244100D02*
X0099940Y0244098D01*
X0100011Y0244092D01*
X0100080Y0244083D01*
X0100149Y0244069D01*
X0100218Y0244052D01*
X0100285Y0244031D01*
X0100351Y0244006D01*
X0100415Y0243978D01*
X0100478Y0243946D01*
X0100539Y0243911D01*
X0100598Y0243872D01*
X0100655Y0243831D01*
X0100709Y0243786D01*
X0100761Y0243738D01*
X0100810Y0243688D01*
X0100857Y0243634D01*
X0100900Y0243579D01*
X0100940Y0243521D01*
X0100977Y0243461D01*
X0101010Y0243399D01*
X0101040Y0243335D01*
X0101067Y0243270D01*
X0101090Y0243204D01*
X0101109Y0243136D01*
X0101124Y0243067D01*
X0101136Y0242998D01*
X0101144Y0242928D01*
X0101148Y0242857D01*
X0101148Y0242787D01*
X0101144Y0242716D01*
X0101136Y0242646D01*
X0101124Y0242577D01*
X0101109Y0242508D01*
X0101090Y0242440D01*
X0101067Y0242374D01*
X0101040Y0242309D01*
X0101010Y0242245D01*
X0100977Y0242183D01*
X0100940Y0242123D01*
X0100900Y0242065D01*
X0100857Y0242010D01*
X0100810Y0241956D01*
X0100761Y0241906D01*
X0100709Y0241858D01*
X0100655Y0241813D01*
X0100598Y0241772D01*
X0100539Y0241733D01*
X0100478Y0241698D01*
X0100415Y0241666D01*
X0100351Y0241638D01*
X0100285Y0241613D01*
X0100218Y0241592D01*
X0100149Y0241575D01*
X0100080Y0241561D01*
X0100011Y0241552D01*
X0099940Y0241546D01*
X0099870Y0241544D01*
X0098592Y0241544D01*
X0016041Y0155391D02*
X0013996Y0155391D01*
X0015018Y0156157D02*
X0015018Y0153602D01*
X0011441Y0154624D01*
X0011441Y0150124D02*
X0015018Y0149102D01*
X0015018Y0151657D01*
X0013996Y0150891D02*
X0016041Y0150891D01*
X0016041Y0147358D02*
X0016041Y0147102D01*
X0015785Y0147102D01*
X0015785Y0147358D01*
X0016041Y0147358D01*
X0015018Y0145358D02*
X0015018Y0142802D01*
X0011441Y0143824D01*
X0013996Y0144591D02*
X0016041Y0144591D01*
X0015018Y0140858D02*
X0015018Y0138302D01*
X0011441Y0139324D01*
X0013996Y0140091D02*
X0016041Y0140091D01*
D12*
X0049320Y0167820D03*
X0056407Y0167820D03*
X0079234Y0178459D03*
X0086321Y0178459D03*
X0086513Y0188498D03*
X0079426Y0188498D03*
X0158459Y0217583D03*
X0165546Y0217583D03*
X0165546Y0090583D03*
X0158459Y0090583D03*
X0158459Y0073583D03*
X0165546Y0073583D03*
D13*
X0170727Y0108583D03*
X0151278Y0108583D03*
D14*
X0069002Y0219055D03*
X0069002Y0228110D03*
D15*
X0094223Y0080921D03*
X0104065Y0080921D03*
X0111939Y0080921D03*
D16*
X0121782Y0080921D03*
D17*
X0130443Y0076000D02*
X0130443Y0069307D01*
X0085561Y0069307D02*
X0085561Y0076000D01*
D18*
X0158869Y0122583D03*
X0167136Y0122583D03*
X0167136Y0154583D03*
X0158869Y0154583D03*
X0105002Y0212449D03*
X0105002Y0220717D03*
X0040032Y0188111D03*
X0040032Y0180237D03*
D19*
X0079262Y0167720D03*
X0086743Y0167720D03*
X0097262Y0197583D03*
X0104743Y0197583D03*
X0159262Y0168583D03*
X0166743Y0168583D03*
X0166743Y0138583D03*
X0159262Y0138583D03*
D20*
X0047002Y0217583D03*
D21*
X0037002Y0227583D03*
X0037002Y0207583D03*
X0057002Y0207583D03*
X0057002Y0227583D03*
D22*
X0084002Y0210583D03*
X0094002Y0210583D03*
X0116002Y0211583D03*
X0126002Y0211583D03*
X0136002Y0211583D03*
X0146002Y0211583D03*
X0084002Y0155583D03*
X0084002Y0145583D03*
X0084081Y0135094D03*
X0084081Y0125094D03*
X0084081Y0115094D03*
X0084081Y0105094D03*
X0074081Y0105094D03*
X0074081Y0115094D03*
X0074081Y0125094D03*
X0074081Y0135094D03*
X0074002Y0145583D03*
X0074002Y0155583D03*
X0064002Y0155583D03*
X0064002Y0145583D03*
X0064081Y0135094D03*
X0064081Y0125094D03*
X0064081Y0115094D03*
X0064081Y0105094D03*
X0054081Y0105094D03*
X0054081Y0115094D03*
X0054081Y0125094D03*
X0054081Y0135094D03*
X0054002Y0145583D03*
X0054002Y0155583D03*
X0051102Y0093383D03*
X0068902Y0093383D03*
X0068902Y0067783D03*
X0051102Y0067783D03*
D23*
X0053123Y0184174D03*
D24*
X0104552Y0185055D03*
X0104552Y0182496D03*
X0104552Y0179937D03*
X0104552Y0177378D03*
X0104552Y0174819D03*
X0104552Y0172260D03*
X0104552Y0169701D03*
X0104552Y0167142D03*
X0104552Y0164583D03*
X0104552Y0162024D03*
X0104552Y0159465D03*
X0104552Y0156906D03*
X0104552Y0154346D03*
X0104552Y0151787D03*
X0104552Y0149228D03*
X0104552Y0146669D03*
X0104552Y0144110D03*
X0104552Y0141551D03*
X0133452Y0141551D03*
X0133452Y0144110D03*
X0133452Y0146669D03*
X0133452Y0149228D03*
X0133452Y0151787D03*
X0133452Y0154346D03*
X0133452Y0156906D03*
X0133452Y0159465D03*
X0133452Y0162024D03*
X0133452Y0164583D03*
X0133452Y0167142D03*
X0133452Y0169701D03*
X0133452Y0172260D03*
X0133452Y0174819D03*
X0133452Y0177378D03*
X0133452Y0179937D03*
X0133452Y0182496D03*
X0133452Y0185055D03*
X0133452Y0187614D03*
X0104552Y0187614D03*
D25*
X0155502Y0182883D03*
X0160502Y0182883D03*
X0165502Y0182883D03*
X0170502Y0182883D03*
X0170502Y0202283D03*
X0165502Y0202283D03*
X0160502Y0202283D03*
X0155502Y0202283D03*
D26*
X0133396Y0127217D03*
X0133396Y0124657D03*
X0133396Y0122098D03*
X0133396Y0119539D03*
X0133396Y0116980D03*
X0133396Y0114421D03*
X0133396Y0111862D03*
X0133396Y0109303D03*
X0133396Y0106744D03*
X0133396Y0104185D03*
X0133396Y0101626D03*
X0133396Y0099067D03*
X0133396Y0096508D03*
X0133396Y0093949D03*
X0104609Y0093949D03*
X0104609Y0096508D03*
X0104609Y0099067D03*
X0104609Y0101626D03*
X0104609Y0104185D03*
X0104609Y0106744D03*
X0104609Y0109303D03*
X0104609Y0111862D03*
X0104609Y0114421D03*
X0104609Y0116980D03*
X0104609Y0119539D03*
X0104609Y0122098D03*
X0104609Y0124657D03*
X0104609Y0127217D03*
D27*
X0069002Y0204236D03*
X0069002Y0210929D03*
D28*
X0069202Y0210783D01*
X0083602Y0210783D01*
X0084002Y0210583D01*
X0097402Y0223983D01*
X0120202Y0223983D01*
X0131002Y0213183D01*
X0131002Y0209583D01*
X0133402Y0207183D01*
X0133402Y0187983D01*
X0133452Y0187614D01*
X0133452Y0185055D02*
X0136402Y0184983D01*
X0145402Y0193983D01*
X0145402Y0202383D01*
X0136402Y0211383D01*
X0136002Y0211583D01*
X0128002Y0217983D02*
X0118402Y0227583D01*
X0069202Y0227583D01*
X0069002Y0228110D01*
X0068602Y0227583D01*
X0057002Y0227583D01*
X0037402Y0227583D01*
X0037002Y0227583D01*
X0037402Y0227583D02*
X0037402Y0207783D01*
X0037002Y0207583D01*
X0040402Y0202983D02*
X0047002Y0209583D01*
X0047002Y0217583D01*
X0047002Y0217983D01*
X0069202Y0217983D01*
X0069002Y0219055D01*
X0069202Y0218583D01*
X0069202Y0217983D01*
X0069202Y0211383D01*
X0069002Y0210929D01*
X0069202Y0204783D02*
X0069002Y0204236D01*
X0068602Y0204783D01*
X0059602Y0204783D01*
X0057202Y0207183D01*
X0057002Y0207583D01*
X0069202Y0204783D02*
X0082402Y0204783D01*
X0082402Y0186183D01*
X0079402Y0183183D01*
X0079402Y0178983D01*
X0079234Y0178459D01*
X0078802Y0178383D01*
X0059602Y0159183D01*
X0051202Y0167583D01*
X0049402Y0167583D01*
X0049320Y0167820D01*
X0051202Y0171183D02*
X0047002Y0171183D01*
X0046402Y0170583D01*
X0046402Y0156183D01*
X0052402Y0150183D01*
X0059602Y0150183D01*
X0062602Y0147183D01*
X0064002Y0145583D01*
X0063802Y0145983D01*
X0062602Y0147183D01*
X0068602Y0153183D01*
X0068602Y0156783D01*
X0072202Y0160383D01*
X0079402Y0160383D01*
X0086602Y0167583D01*
X0086743Y0167720D01*
X0087202Y0173583D02*
X0086002Y0174783D01*
X0079402Y0168183D01*
X0079262Y0167720D01*
X0086002Y0174783D02*
X0086002Y0178383D01*
X0086321Y0178459D01*
X0090202Y0184383D02*
X0086602Y0187983D01*
X0086513Y0188498D01*
X0086602Y0188583D01*
X0086602Y0202983D01*
X0093802Y0210183D01*
X0094002Y0210583D01*
X0089002Y0208983D02*
X0084802Y0204783D01*
X0082402Y0204783D01*
X0089002Y0208983D02*
X0089002Y0212583D01*
X0096802Y0220383D01*
X0104602Y0220383D01*
X0105002Y0220717D01*
X0105002Y0212449D02*
X0105202Y0211983D01*
X0105202Y0197583D01*
X0104743Y0197583D01*
X0097262Y0197583D02*
X0096802Y0197583D01*
X0096802Y0169983D01*
X0095002Y0168183D01*
X0095002Y0155583D01*
X0098602Y0151983D01*
X0104002Y0151983D01*
X0104552Y0151787D01*
X0110002Y0156783D02*
X0110002Y0138783D01*
X0106402Y0135183D01*
X0104002Y0135183D01*
X0090202Y0148983D01*
X0090202Y0184383D01*
X0099802Y0183183D02*
X0099802Y0181383D01*
X0101002Y0180183D01*
X0104002Y0180183D01*
X0104552Y0179937D01*
X0104602Y0177783D02*
X0104552Y0177378D01*
X0104602Y0177183D01*
X0104602Y0175383D01*
X0104552Y0174819D01*
X0104602Y0177783D02*
X0108202Y0177783D01*
X0116002Y0185583D01*
X0116002Y0211583D01*
X0113602Y0216183D02*
X0121402Y0216183D01*
X0126002Y0211583D01*
X0128002Y0217983D02*
X0158002Y0217983D01*
X0158459Y0217583D01*
X0158602Y0217383D01*
X0158602Y0207783D01*
X0160402Y0205983D01*
X0160402Y0202383D01*
X0160502Y0202283D01*
X0161002Y0201783D01*
X0161002Y0198783D01*
X0173002Y0186783D01*
X0173002Y0165783D01*
X0170602Y0163383D01*
X0169402Y0163383D01*
X0163402Y0157383D01*
X0163402Y0152583D01*
X0155602Y0144783D01*
X0155602Y0126183D01*
X0150202Y0126183D01*
X0146602Y0122583D01*
X0133402Y0122583D01*
X0133396Y0122098D01*
X0133402Y0121983D01*
X0133402Y0119583D01*
X0133396Y0119539D01*
X0133402Y0114783D02*
X0133396Y0114421D01*
X0133402Y0114783D02*
X0140602Y0114783D01*
X0148402Y0122583D01*
X0158869Y0122583D01*
X0162202Y0119583D02*
X0162202Y0125583D01*
X0161602Y0126183D01*
X0155602Y0126183D01*
X0162202Y0119583D02*
X0151402Y0108783D01*
X0151278Y0108583D01*
X0150802Y0108183D01*
X0150202Y0107583D01*
X0137602Y0107583D01*
X0136402Y0108783D01*
X0133402Y0108783D01*
X0133396Y0109303D01*
X0132802Y0109383D01*
X0131002Y0109383D01*
X0128602Y0111783D01*
X0105202Y0111783D01*
X0104609Y0111862D01*
X0104602Y0111783D01*
X0097402Y0111783D01*
X0079402Y0093783D01*
X0069202Y0093783D01*
X0068902Y0093383D01*
X0063802Y0088383D02*
X0049402Y0102783D01*
X0049402Y0136983D01*
X0056002Y0143583D01*
X0059002Y0140583D01*
X0089002Y0140583D01*
X0095602Y0133983D01*
X0104602Y0133983D01*
X0110002Y0128583D01*
X0110002Y0122583D01*
X0107002Y0119583D01*
X0105202Y0119583D01*
X0104609Y0119539D01*
X0104602Y0117183D02*
X0104609Y0116980D01*
X0104602Y0117183D02*
X0089002Y0117183D01*
X0086002Y0120183D01*
X0059002Y0120183D01*
X0054202Y0124983D01*
X0054081Y0125094D01*
X0058402Y0130383D02*
X0054202Y0134583D01*
X0054081Y0135094D01*
X0058402Y0130383D02*
X0085402Y0130383D01*
X0088402Y0127383D01*
X0104602Y0127383D01*
X0104609Y0127217D01*
X0105202Y0124983D02*
X0104609Y0124657D01*
X0105202Y0124983D02*
X0107602Y0124983D01*
X0108802Y0126183D01*
X0108802Y0127983D01*
X0104002Y0132783D01*
X0093202Y0132783D01*
X0090202Y0135783D01*
X0084081Y0135094D02*
X0083602Y0135183D01*
X0074602Y0135183D01*
X0074081Y0135094D01*
X0074081Y0125094D02*
X0074602Y0124983D01*
X0083602Y0124983D01*
X0084081Y0125094D01*
X0089602Y0121983D02*
X0104602Y0121983D01*
X0104609Y0122098D01*
X0105202Y0137583D02*
X0106402Y0137583D01*
X0108802Y0139983D01*
X0108802Y0168183D01*
X0107602Y0169383D01*
X0104602Y0169383D01*
X0104552Y0169701D01*
X0104002Y0167583D02*
X0104552Y0167142D01*
X0104002Y0167583D02*
X0098002Y0167583D01*
X0098002Y0164583D02*
X0096202Y0162783D01*
X0096202Y0157983D01*
X0097402Y0156783D01*
X0098602Y0161583D02*
X0104002Y0161583D01*
X0104552Y0162024D01*
X0104552Y0164583D02*
X0098002Y0164583D01*
X0110002Y0156783D02*
X0130402Y0177183D01*
X0133402Y0177183D01*
X0133452Y0177378D01*
X0133452Y0172260D02*
X0133402Y0171783D01*
X0129802Y0171783D01*
X0119602Y0161583D01*
X0119602Y0140583D01*
X0120802Y0139383D01*
X0137602Y0139383D01*
X0162802Y0164583D01*
X0170002Y0164583D01*
X0170602Y0165183D01*
X0170602Y0182583D01*
X0170502Y0182883D01*
X0170002Y0183183D01*
X0170002Y0184983D01*
X0158002Y0196983D01*
X0158002Y0206583D01*
X0153202Y0211383D01*
X0146002Y0211383D01*
X0146002Y0211583D01*
X0145402Y0202383D02*
X0155002Y0202383D01*
X0155502Y0202283D01*
X0165502Y0202283D02*
X0165802Y0201783D01*
X0165802Y0195783D01*
X0174202Y0187383D01*
X0174202Y0145983D01*
X0167002Y0138783D01*
X0166743Y0138583D01*
X0167002Y0138183D01*
X0167002Y0133383D01*
X0167002Y0129783D01*
X0170602Y0126183D01*
X0170602Y0108783D01*
X0170727Y0108583D01*
X0170602Y0108183D01*
X0165802Y0103383D01*
X0165802Y0090783D01*
X0165546Y0090583D01*
X0165802Y0090183D01*
X0165802Y0073983D01*
X0165546Y0073583D01*
X0158602Y0073983D02*
X0158459Y0073583D01*
X0158602Y0073983D02*
X0158602Y0090183D01*
X0158459Y0090583D01*
X0158002Y0090783D01*
X0158002Y0101583D01*
X0151402Y0108183D01*
X0151278Y0108583D01*
X0137602Y0107583D02*
X0137602Y0103383D01*
X0136402Y0102183D01*
X0133402Y0102183D01*
X0133396Y0101626D01*
X0133396Y0099067D02*
X0132802Y0098583D01*
X0114202Y0098583D01*
X0104002Y0088383D01*
X0063802Y0088383D01*
X0074081Y0105094D02*
X0074602Y0105183D01*
X0083602Y0105183D01*
X0084081Y0105094D01*
X0084081Y0115094D02*
X0083602Y0115383D01*
X0074602Y0115383D01*
X0074081Y0115094D01*
X0056002Y0143583D02*
X0054002Y0145583D01*
X0054202Y0145383D01*
X0063202Y0155583D02*
X0059602Y0159183D01*
X0063202Y0155583D02*
X0064002Y0155583D01*
X0074002Y0155583D02*
X0084002Y0155583D01*
X0084002Y0145583D02*
X0083602Y0145383D01*
X0074002Y0145383D01*
X0074002Y0145583D01*
X0056407Y0167820D02*
X0056002Y0168183D01*
X0054202Y0168183D01*
X0051202Y0171183D01*
X0053123Y0184174D02*
X0053602Y0184383D01*
X0057202Y0187983D01*
X0079402Y0187983D01*
X0079426Y0188498D01*
X0099802Y0183183D02*
X0101602Y0184983D01*
X0104002Y0184983D01*
X0104552Y0185055D01*
X0104602Y0185583D01*
X0108202Y0185583D01*
X0111202Y0188583D01*
X0111202Y0213783D01*
X0113602Y0216183D01*
X0133452Y0185055D02*
X0134002Y0184983D01*
X0136402Y0184983D01*
X0138202Y0183183D01*
X0138202Y0168783D01*
X0137002Y0167583D01*
X0134002Y0167583D01*
X0133452Y0167142D01*
X0133452Y0164583D02*
X0130402Y0164583D01*
X0129202Y0163383D01*
X0129202Y0159183D01*
X0122002Y0159183D01*
X0129202Y0159183D02*
X0129202Y0145383D01*
X0130402Y0144183D01*
X0133402Y0144183D01*
X0133452Y0144110D01*
X0133402Y0141783D02*
X0133452Y0141551D01*
X0133402Y0141783D02*
X0122002Y0141783D01*
X0129202Y0127983D02*
X0129202Y0113583D01*
X0130402Y0112383D01*
X0132802Y0112383D01*
X0133396Y0111862D01*
X0133396Y0106744D02*
X0132802Y0106383D01*
X0130402Y0106383D01*
X0127402Y0103383D01*
X0132802Y0096183D02*
X0133396Y0096508D01*
X0132802Y0096183D02*
X0119602Y0096183D01*
X0125002Y0093783D02*
X0132802Y0093783D01*
X0133396Y0093949D01*
X0130443Y0072654D02*
X0130402Y0072183D01*
X0125602Y0072183D01*
X0119602Y0066183D01*
X0096202Y0066183D01*
X0087802Y0074583D01*
X0085561Y0072654D01*
X0086002Y0072783D01*
X0087802Y0074583D01*
X0093802Y0080583D01*
X0094223Y0080921D01*
X0129202Y0127983D02*
X0155602Y0154383D01*
X0158602Y0154383D01*
X0158869Y0154583D01*
X0167002Y0154383D02*
X0167002Y0145983D01*
X0159802Y0138783D01*
X0159262Y0138583D01*
X0159802Y0138183D01*
X0159802Y0135183D01*
X0167002Y0127983D01*
X0167002Y0122583D01*
X0167136Y0122583D01*
X0167002Y0154383D02*
X0167136Y0154583D01*
X0166743Y0168583D02*
X0166402Y0168783D01*
X0161002Y0174183D01*
X0160402Y0174183D01*
X0155602Y0178983D01*
X0155602Y0182583D01*
X0155502Y0182883D01*
X0160502Y0182883D02*
X0161002Y0182583D01*
X0161002Y0177183D01*
X0161602Y0176583D01*
X0160502Y0182883D02*
X0161002Y0183183D01*
X0165202Y0183183D01*
X0165502Y0182883D01*
X0159262Y0168583D02*
X0159202Y0168183D01*
X0149002Y0168183D01*
X0138202Y0157383D01*
X0134002Y0157383D01*
X0133452Y0156906D01*
X0133452Y0162024D02*
X0134002Y0162183D01*
X0139402Y0162183D01*
X0170002Y0202383D02*
X0170502Y0202283D01*
X0170002Y0202383D02*
X0170002Y0204183D01*
X0165802Y0208383D01*
X0165802Y0217383D01*
X0165546Y0217583D01*
X0040402Y0202983D02*
X0040402Y0188583D01*
X0040032Y0188111D01*
X0190840Y0053940D02*
X0191296Y0054126D01*
D29*
X0190840Y0053940D03*
X0127402Y0103383D03*
X0125002Y0093783D03*
X0119602Y0096183D03*
X0089602Y0121983D03*
X0090202Y0135783D03*
X0105202Y0137583D03*
X0097402Y0156783D03*
X0098602Y0161583D03*
X0098002Y0167583D03*
X0087202Y0173583D03*
X0122002Y0159183D03*
X0122002Y0141783D03*
X0139402Y0162183D03*
X0161602Y0176583D03*
X0167002Y0133383D03*
D30*
X0170091Y0133528D02*
X0177703Y0133528D01*
X0177703Y0135526D02*
X0170902Y0135526D01*
X0170902Y0134967D02*
X0170902Y0139995D01*
X0176102Y0145196D01*
X0176102Y0188170D01*
X0174989Y0189283D01*
X0167702Y0196570D01*
X0167702Y0197270D01*
X0168002Y0197570D01*
X0168790Y0196783D01*
X0172215Y0196783D01*
X0173152Y0197720D01*
X0173152Y0206845D01*
X0172215Y0207783D01*
X0169089Y0207783D01*
X0167702Y0209170D01*
X0167702Y0213620D01*
X0167783Y0213620D01*
X0168720Y0214558D01*
X0168720Y0220608D01*
X0167783Y0221545D01*
X0163308Y0221545D01*
X0162371Y0220608D01*
X0162371Y0214558D01*
X0163308Y0213620D01*
X0163902Y0213620D01*
X0163902Y0207783D01*
X0163790Y0207783D01*
X0163250Y0207243D01*
X0163153Y0207411D01*
X0162780Y0207783D01*
X0162324Y0208046D01*
X0161816Y0208183D01*
X0160502Y0208183D01*
X0159189Y0208183D01*
X0159110Y0208162D01*
X0158789Y0208483D01*
X0153989Y0213283D01*
X0151035Y0213283D01*
X0150495Y0214585D01*
X0149005Y0216076D01*
X0147057Y0216883D01*
X0144948Y0216883D01*
X0143000Y0216076D01*
X0141509Y0214585D01*
X0141002Y0213361D01*
X0140495Y0214585D01*
X0139005Y0216076D01*
X0137057Y0216883D01*
X0134948Y0216883D01*
X0133000Y0216076D01*
X0131898Y0214974D01*
X0122102Y0224770D01*
X0120989Y0225883D01*
X0096615Y0225883D01*
X0086159Y0215426D01*
X0085057Y0215883D01*
X0082948Y0215883D01*
X0081000Y0215076D01*
X0079509Y0213585D01*
X0079136Y0212683D01*
X0072571Y0212683D01*
X0072571Y0213757D01*
X0071634Y0214694D01*
X0071102Y0214694D01*
X0071102Y0216215D01*
X0071299Y0216215D01*
X0072236Y0217152D01*
X0072236Y0220958D01*
X0071299Y0221895D01*
X0066706Y0221895D01*
X0065769Y0220958D01*
X0065769Y0219883D01*
X0052652Y0219883D01*
X0052174Y0221038D01*
X0050458Y0222754D01*
X0048216Y0223683D01*
X0045789Y0223683D01*
X0043547Y0222754D01*
X0041831Y0221038D01*
X0040902Y0218796D01*
X0040902Y0216369D01*
X0041831Y0214127D01*
X0043547Y0212411D01*
X0045102Y0211767D01*
X0045102Y0210370D01*
X0043614Y0208882D01*
X0043612Y0208897D01*
X0043384Y0209749D01*
X0043047Y0210563D01*
X0042606Y0211327D01*
X0042069Y0212026D01*
X0041446Y0212650D01*
X0040747Y0213186D01*
X0039983Y0213627D01*
X0039169Y0213964D01*
X0038317Y0214193D01*
X0037577Y0214290D01*
X0037577Y0208158D01*
X0036427Y0208158D01*
X0036427Y0214290D01*
X0035688Y0214193D01*
X0034836Y0213964D01*
X0034022Y0213627D01*
X0033258Y0213186D01*
X0032559Y0212650D01*
X0032002Y0212093D01*
X0032002Y0223072D01*
X0032559Y0222516D01*
X0033258Y0221979D01*
X0034022Y0221538D01*
X0034836Y0221201D01*
X0035688Y0220973D01*
X0036427Y0220875D01*
X0036427Y0227008D01*
X0037577Y0227008D01*
X0037577Y0220875D01*
X0038317Y0220973D01*
X0039169Y0221201D01*
X0039983Y0221538D01*
X0040747Y0221979D01*
X0041446Y0222516D01*
X0042069Y0223139D01*
X0042606Y0223838D01*
X0043047Y0224602D01*
X0043384Y0225416D01*
X0043612Y0226268D01*
X0043710Y0227008D01*
X0037577Y0227008D01*
X0037577Y0228158D01*
X0043710Y0228158D01*
X0043612Y0228897D01*
X0043384Y0229749D01*
X0043047Y0230563D01*
X0042606Y0231327D01*
X0042440Y0231543D01*
X0051565Y0231543D01*
X0051399Y0231327D01*
X0050958Y0230563D01*
X0050621Y0229749D01*
X0050392Y0228897D01*
X0050295Y0228158D01*
X0056427Y0228158D01*
X0056427Y0227008D01*
X0050295Y0227008D01*
X0050392Y0226268D01*
X0050621Y0225416D01*
X0050958Y0224602D01*
X0051399Y0223838D01*
X0051935Y0223139D01*
X0052559Y0222516D01*
X0053258Y0221979D01*
X0054022Y0221538D01*
X0054836Y0221201D01*
X0055688Y0220973D01*
X0056427Y0220875D01*
X0056427Y0227008D01*
X0057577Y0227008D01*
X0057577Y0220875D01*
X0058317Y0220973D01*
X0059169Y0221201D01*
X0059983Y0221538D01*
X0060747Y0221979D01*
X0061446Y0222516D01*
X0062069Y0223139D01*
X0062606Y0223838D01*
X0063047Y0224602D01*
X0063384Y0225416D01*
X0063612Y0226268D01*
X0063710Y0227008D01*
X0057577Y0227008D01*
X0057577Y0228158D01*
X0063710Y0228158D01*
X0063612Y0228897D01*
X0063384Y0229749D01*
X0063047Y0230563D01*
X0062606Y0231327D01*
X0062440Y0231543D01*
X0177703Y0231543D01*
X0177703Y0064583D01*
X0134987Y0064583D01*
X0134987Y0066464D01*
X0135016Y0066505D01*
X0135398Y0067255D01*
X0135658Y0068055D01*
X0135790Y0068886D01*
X0135790Y0072571D01*
X0134987Y0072571D01*
X0134987Y0072736D01*
X0135790Y0072736D01*
X0135790Y0076421D01*
X0135658Y0077252D01*
X0135398Y0078052D01*
X0135016Y0078802D01*
X0134987Y0078843D01*
X0134987Y0084606D01*
X0134286Y0085307D01*
X0125281Y0085307D01*
X0125256Y0085332D01*
X0118308Y0085332D01*
X0118283Y0085307D01*
X0112878Y0085307D01*
X0112817Y0085332D01*
X0111062Y0085332D01*
X0111001Y0085307D01*
X0105004Y0085307D01*
X0104943Y0085332D01*
X0103188Y0085332D01*
X0103127Y0085307D01*
X0096212Y0085307D01*
X0096070Y0085380D01*
X0095349Y0085614D01*
X0094601Y0085732D01*
X0094223Y0085732D01*
X0094223Y0085307D01*
X0094223Y0085307D01*
X0094223Y0085732D01*
X0093844Y0085732D01*
X0093096Y0085614D01*
X0092376Y0085380D01*
X0092233Y0085307D01*
X0081719Y0085307D01*
X0081018Y0084606D01*
X0081018Y0078843D01*
X0080989Y0078802D01*
X0080607Y0078052D01*
X0080347Y0077252D01*
X0080215Y0076421D01*
X0080215Y0072736D01*
X0081018Y0072736D01*
X0081018Y0072571D01*
X0080215Y0072571D01*
X0080215Y0068886D01*
X0080347Y0068055D01*
X0080607Y0067255D01*
X0080989Y0066505D01*
X0081018Y0066464D01*
X0081018Y0064583D01*
X0073198Y0064583D01*
X0073395Y0064780D01*
X0074202Y0066728D01*
X0074202Y0068837D01*
X0073395Y0070785D01*
X0071905Y0072276D01*
X0069957Y0073083D01*
X0067848Y0073083D01*
X0065900Y0072276D01*
X0064409Y0070785D01*
X0063602Y0068837D01*
X0063602Y0066728D01*
X0064409Y0064780D01*
X0064607Y0064583D01*
X0055398Y0064583D01*
X0055595Y0064780D01*
X0056402Y0066728D01*
X0056402Y0068837D01*
X0055595Y0070785D01*
X0054105Y0072276D01*
X0052157Y0073083D01*
X0050048Y0073083D01*
X0048100Y0072276D01*
X0046609Y0070785D01*
X0045802Y0068837D01*
X0045802Y0066728D01*
X0046609Y0064780D01*
X0046807Y0064583D01*
X0032002Y0064583D01*
X0032002Y0203072D01*
X0032559Y0202516D01*
X0033258Y0201979D01*
X0034022Y0201538D01*
X0034836Y0201201D01*
X0035688Y0200973D01*
X0036427Y0200875D01*
X0036427Y0207008D01*
X0037577Y0207008D01*
X0037577Y0200875D01*
X0038317Y0200973D01*
X0038502Y0201022D01*
X0038502Y0192073D01*
X0037007Y0192073D01*
X0036070Y0191136D01*
X0036070Y0185086D01*
X0036982Y0184174D01*
X0036070Y0183262D01*
X0036070Y0177212D01*
X0037007Y0176275D01*
X0043057Y0176275D01*
X0043994Y0177212D01*
X0043994Y0183262D01*
X0043082Y0184174D01*
X0043994Y0185086D01*
X0043994Y0191136D01*
X0043057Y0192073D01*
X0042302Y0192073D01*
X0042302Y0202196D01*
X0047789Y0207683D01*
X0048902Y0208796D01*
X0048902Y0211767D01*
X0050458Y0212411D01*
X0052174Y0214127D01*
X0052984Y0216083D01*
X0067302Y0216083D01*
X0067302Y0214694D01*
X0066371Y0214694D01*
X0065434Y0213757D01*
X0065434Y0208101D01*
X0065669Y0207866D01*
X0065433Y0207630D01*
X0065170Y0207174D01*
X0065034Y0206665D01*
X0065034Y0204236D01*
X0065034Y0201808D01*
X0065170Y0201299D01*
X0065433Y0200843D01*
X0065806Y0200470D01*
X0066262Y0200207D01*
X0066771Y0200071D01*
X0069002Y0200071D01*
X0069002Y0204236D01*
X0065034Y0204236D01*
X0069002Y0204236D01*
X0069002Y0204236D01*
X0069002Y0204236D01*
X0069002Y0200071D01*
X0071234Y0200071D01*
X0071743Y0200207D01*
X0072199Y0200470D01*
X0072571Y0200843D01*
X0072835Y0201299D01*
X0072971Y0201808D01*
X0072971Y0204236D01*
X0069002Y0204236D01*
X0069002Y0204236D01*
X0072971Y0204236D01*
X0072971Y0206665D01*
X0072835Y0207174D01*
X0072571Y0207630D01*
X0072335Y0207866D01*
X0072571Y0208101D01*
X0072571Y0208883D01*
X0078970Y0208883D01*
X0079509Y0207580D01*
X0081000Y0206090D01*
X0082948Y0205283D01*
X0085057Y0205283D01*
X0087005Y0206090D01*
X0088495Y0207580D01*
X0089002Y0208804D01*
X0089217Y0208285D01*
X0084702Y0203770D01*
X0084702Y0192460D01*
X0084275Y0192460D01*
X0083338Y0191523D01*
X0083338Y0185473D01*
X0084275Y0184535D01*
X0087363Y0184535D01*
X0088302Y0183596D01*
X0088302Y0182421D01*
X0084083Y0182421D01*
X0083146Y0181484D01*
X0083146Y0175434D01*
X0083556Y0175024D01*
X0080805Y0172272D01*
X0076040Y0172272D01*
X0075103Y0171335D01*
X0075103Y0164104D01*
X0076040Y0163167D01*
X0079499Y0163167D01*
X0078615Y0162283D01*
X0071415Y0162283D01*
X0068383Y0159250D01*
X0068350Y0159296D01*
X0067716Y0159930D01*
X0066990Y0160458D01*
X0066190Y0160865D01*
X0065337Y0161142D01*
X0064451Y0161283D01*
X0064002Y0161283D01*
X0063554Y0161283D01*
X0062668Y0161142D01*
X0061814Y0160865D01*
X0061015Y0160458D01*
X0060289Y0159930D01*
X0059655Y0159296D01*
X0059127Y0158570D01*
X0058782Y0157893D01*
X0058495Y0158585D01*
X0057005Y0160076D01*
X0055057Y0160883D01*
X0052948Y0160883D01*
X0051000Y0160076D01*
X0049509Y0158585D01*
X0048702Y0156637D01*
X0048702Y0156570D01*
X0048302Y0156970D01*
X0048302Y0163458D01*
X0049320Y0163458D01*
X0051158Y0163458D01*
X0051667Y0163594D01*
X0052123Y0163857D01*
X0052495Y0164230D01*
X0052758Y0164686D01*
X0052895Y0165194D01*
X0052895Y0166803D01*
X0053232Y0166466D01*
X0053232Y0164795D01*
X0054169Y0163858D01*
X0058644Y0163858D01*
X0059581Y0164795D01*
X0059581Y0170845D01*
X0058644Y0171782D01*
X0054169Y0171782D01*
X0053730Y0171343D01*
X0053102Y0171970D01*
X0051989Y0173083D01*
X0046215Y0173083D01*
X0045615Y0172483D01*
X0044502Y0171370D01*
X0044502Y0155396D01*
X0050411Y0149487D01*
X0049509Y0148585D01*
X0048702Y0146637D01*
X0048702Y0144528D01*
X0049509Y0142580D01*
X0050911Y0141179D01*
X0047502Y0137770D01*
X0047502Y0101996D01*
X0048615Y0100883D01*
X0048615Y0100883D01*
X0050815Y0098683D01*
X0050048Y0098683D01*
X0048100Y0097876D01*
X0046609Y0096385D01*
X0045802Y0094437D01*
X0045802Y0092328D01*
X0046609Y0090380D01*
X0048100Y0088890D01*
X0050048Y0088083D01*
X0052157Y0088083D01*
X0054105Y0088890D01*
X0055595Y0090380D01*
X0056402Y0092328D01*
X0056402Y0093096D01*
X0061902Y0087596D01*
X0061902Y0087596D01*
X0063015Y0086483D01*
X0104789Y0086483D01*
X0105902Y0087596D01*
X0114989Y0096683D01*
X0116513Y0096683D01*
X0116513Y0095568D01*
X0116984Y0094433D01*
X0117853Y0093564D01*
X0118988Y0093094D01*
X0120217Y0093094D01*
X0121352Y0093564D01*
X0121913Y0094125D01*
X0121913Y0093168D01*
X0122384Y0092033D01*
X0123253Y0091164D01*
X0124388Y0090694D01*
X0125617Y0090694D01*
X0126752Y0091164D01*
X0127471Y0091883D01*
X0129764Y0091883D01*
X0129983Y0091664D01*
X0136809Y0091664D01*
X0137746Y0092601D01*
X0137746Y0099712D01*
X0137746Y0099713D01*
X0138010Y0100169D01*
X0138146Y0100678D01*
X0138146Y0101626D01*
X0138146Y0102574D01*
X0138010Y0103083D01*
X0137746Y0103539D01*
X0137746Y0107390D01*
X0137746Y0107390D01*
X0138010Y0107846D01*
X0138146Y0108355D01*
X0138146Y0109303D01*
X0133396Y0109303D01*
X0128646Y0109303D01*
X0128646Y0108355D01*
X0128782Y0107846D01*
X0128927Y0107595D01*
X0127804Y0106472D01*
X0126788Y0106472D01*
X0125653Y0106001D01*
X0124784Y0105132D01*
X0124313Y0103997D01*
X0124313Y0102768D01*
X0124784Y0101633D01*
X0125653Y0100764D01*
X0126332Y0100483D01*
X0113415Y0100483D01*
X0108959Y0096026D01*
X0108959Y0109949D01*
X0109222Y0110405D01*
X0109359Y0110914D01*
X0109359Y0111862D01*
X0104609Y0111862D01*
X0104609Y0111862D01*
X0109359Y0111862D01*
X0109359Y0112811D01*
X0109222Y0113319D01*
X0108959Y0113775D01*
X0108959Y0113776D01*
X0108959Y0118852D01*
X0110789Y0120683D01*
X0111902Y0121796D01*
X0111902Y0129370D01*
X0107589Y0133683D01*
X0111902Y0137996D01*
X0111902Y0155996D01*
X0117702Y0161796D01*
X0117702Y0139796D01*
X0118902Y0138596D01*
X0120015Y0137483D01*
X0136015Y0137483D01*
X0128415Y0129883D01*
X0127302Y0128770D01*
X0127302Y0112796D01*
X0128502Y0111596D01*
X0128986Y0111112D01*
X0128782Y0110760D01*
X0128646Y0110251D01*
X0128646Y0109303D01*
X0133396Y0109303D01*
X0133396Y0109303D01*
X0133396Y0109303D01*
X0138146Y0109303D01*
X0138146Y0110251D01*
X0138010Y0110760D01*
X0137746Y0111216D01*
X0137746Y0111217D01*
X0137746Y0112883D01*
X0141389Y0112883D01*
X0142502Y0113996D01*
X0149189Y0120683D01*
X0154906Y0120683D01*
X0154906Y0119558D01*
X0155844Y0118620D01*
X0161893Y0118620D01*
X0162831Y0119558D01*
X0162831Y0125608D01*
X0161893Y0126545D01*
X0155844Y0126545D01*
X0154906Y0125608D01*
X0154906Y0124483D01*
X0147615Y0124483D01*
X0139815Y0116683D01*
X0137746Y0116683D01*
X0137746Y0117626D01*
X0137746Y0117626D01*
X0138010Y0118082D01*
X0138146Y0118591D01*
X0138146Y0119539D01*
X0136879Y0119539D01*
X0136880Y0119539D01*
X0138146Y0119539D01*
X0138146Y0120488D01*
X0138057Y0120819D01*
X0138146Y0121150D01*
X0138146Y0122098D01*
X0136880Y0122098D01*
X0136879Y0122098D01*
X0138146Y0122098D01*
X0138146Y0123047D01*
X0138010Y0123555D01*
X0137746Y0124011D01*
X0137746Y0124012D01*
X0137746Y0128564D01*
X0136809Y0129502D01*
X0133408Y0129502D01*
X0155185Y0151279D01*
X0155844Y0150620D01*
X0161893Y0150620D01*
X0162831Y0151558D01*
X0162831Y0157608D01*
X0161893Y0158545D01*
X0159452Y0158545D01*
X0163589Y0162683D01*
X0170789Y0162683D01*
X0171389Y0163283D01*
X0172302Y0164196D01*
X0172302Y0146770D01*
X0168668Y0143135D01*
X0166842Y0143135D01*
X0168902Y0145196D01*
X0168902Y0150620D01*
X0170161Y0150620D01*
X0171098Y0151558D01*
X0171098Y0157608D01*
X0170161Y0158545D01*
X0164111Y0158545D01*
X0163174Y0157608D01*
X0163174Y0151558D01*
X0164111Y0150620D01*
X0165102Y0150620D01*
X0165102Y0146770D01*
X0161468Y0143135D01*
X0156040Y0143135D01*
X0155103Y0142198D01*
X0155103Y0134967D01*
X0156040Y0134030D01*
X0158268Y0134030D01*
X0159015Y0133283D01*
X0165102Y0127196D01*
X0165102Y0126545D01*
X0164111Y0126545D01*
X0163174Y0125608D01*
X0163174Y0119558D01*
X0164111Y0118620D01*
X0168702Y0118620D01*
X0168702Y0114572D01*
X0165399Y0114572D01*
X0164461Y0113635D01*
X0164461Y0104729D01*
X0163902Y0104170D01*
X0163902Y0094545D01*
X0163308Y0094545D01*
X0162371Y0093608D01*
X0162371Y0087558D01*
X0163308Y0086620D01*
X0163902Y0086620D01*
X0163902Y0077545D01*
X0163308Y0077545D01*
X0162371Y0076608D01*
X0162371Y0070558D01*
X0163308Y0069620D01*
X0167783Y0069620D01*
X0168720Y0070558D01*
X0168720Y0076608D01*
X0167783Y0077545D01*
X0167702Y0077545D01*
X0167702Y0086620D01*
X0167783Y0086620D01*
X0168720Y0087558D01*
X0168720Y0093608D01*
X0167783Y0094545D01*
X0167702Y0094545D01*
X0167702Y0102593D01*
X0176055Y0102593D01*
X0176992Y0103530D01*
X0176992Y0113635D01*
X0176055Y0114572D01*
X0172502Y0114572D01*
X0172502Y0126970D01*
X0171389Y0128083D01*
X0168902Y0130570D01*
X0168902Y0130914D01*
X0169621Y0131633D01*
X0170091Y0132768D01*
X0170091Y0133997D01*
X0170045Y0134110D01*
X0170902Y0134967D01*
X0170902Y0137525D02*
X0177703Y0137525D01*
X0177703Y0139523D02*
X0170902Y0139523D01*
X0172428Y0141522D02*
X0177703Y0141522D01*
X0177703Y0143520D02*
X0174427Y0143520D01*
X0176102Y0145519D02*
X0177703Y0145519D01*
X0177703Y0147517D02*
X0176102Y0147517D01*
X0176102Y0149516D02*
X0177703Y0149516D01*
X0177703Y0151514D02*
X0176102Y0151514D01*
X0176102Y0153513D02*
X0177703Y0153513D01*
X0177703Y0155511D02*
X0176102Y0155511D01*
X0176102Y0157510D02*
X0177703Y0157510D01*
X0177703Y0159508D02*
X0176102Y0159508D01*
X0176102Y0161507D02*
X0177703Y0161507D01*
X0177703Y0163505D02*
X0176102Y0163505D01*
X0176102Y0165504D02*
X0177703Y0165504D01*
X0177703Y0167502D02*
X0176102Y0167502D01*
X0176102Y0169501D02*
X0177703Y0169501D01*
X0177703Y0171499D02*
X0176102Y0171499D01*
X0176102Y0173498D02*
X0177703Y0173498D01*
X0177703Y0175496D02*
X0176102Y0175496D01*
X0176102Y0177495D02*
X0177703Y0177495D01*
X0177703Y0179493D02*
X0176102Y0179493D01*
X0176102Y0181492D02*
X0177703Y0181492D01*
X0177703Y0183490D02*
X0176102Y0183490D01*
X0176102Y0185489D02*
X0177703Y0185489D01*
X0177703Y0187487D02*
X0176102Y0187487D01*
X0174786Y0189486D02*
X0177703Y0189486D01*
X0177703Y0191484D02*
X0172788Y0191484D01*
X0170789Y0193483D02*
X0177703Y0193483D01*
X0177703Y0195481D02*
X0168791Y0195481D01*
X0168092Y0197480D02*
X0167912Y0197480D01*
X0172912Y0197480D02*
X0177703Y0197480D01*
X0177703Y0199478D02*
X0173152Y0199478D01*
X0173152Y0201477D02*
X0177703Y0201477D01*
X0177703Y0203475D02*
X0173152Y0203475D01*
X0173152Y0205474D02*
X0177703Y0205474D01*
X0177703Y0207473D02*
X0172525Y0207473D01*
X0167702Y0209471D02*
X0177703Y0209471D01*
X0177703Y0211470D02*
X0167702Y0211470D01*
X0167702Y0213468D02*
X0177703Y0213468D01*
X0177703Y0215467D02*
X0168720Y0215467D01*
X0168720Y0217465D02*
X0177703Y0217465D01*
X0177703Y0219464D02*
X0168720Y0219464D01*
X0167866Y0221462D02*
X0177703Y0221462D01*
X0177703Y0223461D02*
X0123411Y0223461D01*
X0125410Y0221462D02*
X0155573Y0221462D01*
X0155656Y0221545D02*
X0155284Y0221173D01*
X0155021Y0220717D01*
X0154884Y0220208D01*
X0154884Y0217583D01*
X0158459Y0217583D01*
X0158459Y0221945D01*
X0156621Y0221945D01*
X0156112Y0221809D01*
X0155656Y0221545D01*
X0154884Y0219464D02*
X0127408Y0219464D01*
X0129407Y0217465D02*
X0154884Y0217465D01*
X0154884Y0217583D02*
X0154884Y0214957D01*
X0155021Y0214448D01*
X0155284Y0213992D01*
X0155656Y0213620D01*
X0156112Y0213357D01*
X0156621Y0213220D01*
X0158459Y0213220D01*
X0158459Y0217583D01*
X0158459Y0217583D01*
X0158459Y0221945D01*
X0160297Y0221945D01*
X0160806Y0221809D01*
X0161262Y0221545D01*
X0161634Y0221173D01*
X0161898Y0220717D01*
X0162034Y0220208D01*
X0162034Y0217583D01*
X0158459Y0217583D01*
X0158459Y0217583D01*
X0158459Y0217583D01*
X0154884Y0217583D01*
X0154884Y0215467D02*
X0149614Y0215467D01*
X0150958Y0213468D02*
X0155920Y0213468D01*
X0155802Y0211470D02*
X0163902Y0211470D01*
X0163902Y0213468D02*
X0160999Y0213468D01*
X0160806Y0213357D02*
X0161262Y0213620D01*
X0161634Y0213992D01*
X0161898Y0214448D01*
X0162034Y0214957D01*
X0162034Y0217583D01*
X0158459Y0217583D01*
X0158459Y0213220D01*
X0160297Y0213220D01*
X0160806Y0213357D01*
X0162034Y0215467D02*
X0162371Y0215467D01*
X0162371Y0217465D02*
X0162034Y0217465D01*
X0162034Y0219464D02*
X0162371Y0219464D01*
X0163225Y0221462D02*
X0161345Y0221462D01*
X0158459Y0221462D02*
X0158459Y0221462D01*
X0158459Y0219464D02*
X0158459Y0219464D01*
X0158459Y0217583D02*
X0158459Y0217583D01*
X0158459Y0217465D02*
X0158459Y0217465D01*
X0158459Y0215467D02*
X0158459Y0215467D01*
X0158459Y0213468D02*
X0158459Y0213468D01*
X0157801Y0209471D02*
X0163902Y0209471D01*
X0163479Y0207473D02*
X0163091Y0207473D01*
X0160502Y0207473D02*
X0160502Y0207473D01*
X0160502Y0208183D02*
X0160502Y0202283D01*
X0160502Y0202283D01*
X0160502Y0208183D01*
X0160502Y0205474D02*
X0160502Y0205474D01*
X0160502Y0203475D02*
X0160502Y0203475D01*
X0156102Y0196783D02*
X0153790Y0196783D01*
X0152852Y0197720D01*
X0152852Y0200483D01*
X0147302Y0200483D01*
X0147302Y0193196D01*
X0146189Y0192083D01*
X0139089Y0184983D01*
X0140102Y0183970D01*
X0140102Y0167996D01*
X0138989Y0166883D01*
X0138352Y0166246D01*
X0138352Y0165091D01*
X0138788Y0165272D01*
X0140017Y0165272D01*
X0141152Y0164801D01*
X0142021Y0163932D01*
X0142034Y0163901D01*
X0148215Y0170083D01*
X0155103Y0170083D01*
X0155103Y0172198D01*
X0156040Y0173135D01*
X0158763Y0173135D01*
X0154815Y0177083D01*
X0154515Y0177383D01*
X0153790Y0177383D01*
X0152852Y0178320D01*
X0152852Y0187445D01*
X0153790Y0188383D01*
X0157215Y0188383D01*
X0157755Y0187843D01*
X0157852Y0188011D01*
X0158224Y0188383D01*
X0158680Y0188646D01*
X0159189Y0188783D01*
X0160502Y0188783D01*
X0160502Y0182883D01*
X0160502Y0182883D01*
X0160502Y0188783D01*
X0161816Y0188783D01*
X0162324Y0188646D01*
X0162780Y0188383D01*
X0163002Y0188161D01*
X0163224Y0188383D01*
X0163662Y0188636D01*
X0156102Y0196196D01*
X0156102Y0196783D01*
X0156817Y0195481D02*
X0147302Y0195481D01*
X0147302Y0193483D02*
X0158815Y0193483D01*
X0160814Y0191484D02*
X0145591Y0191484D01*
X0143593Y0189486D02*
X0162812Y0189486D01*
X0160502Y0187487D02*
X0160502Y0187487D01*
X0160502Y0185489D02*
X0160502Y0185489D01*
X0160502Y0183490D02*
X0160502Y0183490D01*
X0160502Y0182883D02*
X0165502Y0182883D01*
X0165502Y0182883D01*
X0162452Y0182883D01*
X0160502Y0182883D01*
X0160502Y0182883D01*
X0160502Y0176983D01*
X0160289Y0176983D01*
X0161189Y0176083D01*
X0161789Y0176083D01*
X0162902Y0174970D01*
X0164737Y0173135D01*
X0168702Y0173135D01*
X0168702Y0177470D01*
X0168250Y0177923D01*
X0168153Y0177755D01*
X0167780Y0177382D01*
X0167324Y0177119D01*
X0166816Y0176983D01*
X0165502Y0176983D01*
X0165502Y0182883D01*
X0165502Y0182883D01*
X0165502Y0176983D01*
X0164189Y0176983D01*
X0163680Y0177119D01*
X0163224Y0177382D01*
X0163002Y0177604D01*
X0162780Y0177382D01*
X0162324Y0177119D01*
X0161816Y0176983D01*
X0160502Y0176983D01*
X0160502Y0182883D01*
X0160502Y0182883D01*
X0160502Y0181492D02*
X0160502Y0181492D01*
X0160502Y0179493D02*
X0160502Y0179493D01*
X0160502Y0177495D02*
X0160502Y0177495D01*
X0162376Y0175496D02*
X0168702Y0175496D01*
X0168702Y0173498D02*
X0164374Y0173498D01*
X0165502Y0177495D02*
X0165502Y0177495D01*
X0165502Y0179493D02*
X0165502Y0179493D01*
X0165502Y0181492D02*
X0165502Y0181492D01*
X0163112Y0177495D02*
X0162893Y0177495D01*
X0167893Y0177495D02*
X0168677Y0177495D01*
X0158400Y0173498D02*
X0140102Y0173498D01*
X0140102Y0175496D02*
X0156402Y0175496D01*
X0153677Y0177495D02*
X0140102Y0177495D01*
X0140102Y0179493D02*
X0152852Y0179493D01*
X0152852Y0181492D02*
X0140102Y0181492D01*
X0140102Y0183490D02*
X0152852Y0183490D01*
X0152852Y0185489D02*
X0139596Y0185489D01*
X0141594Y0187487D02*
X0152894Y0187487D01*
X0153092Y0197480D02*
X0147302Y0197480D01*
X0147302Y0199478D02*
X0152852Y0199478D01*
X0141047Y0213468D02*
X0140958Y0213468D01*
X0139614Y0215467D02*
X0142391Y0215467D01*
X0132391Y0215467D02*
X0131405Y0215467D01*
X0124713Y0216785D02*
X0123846Y0216426D01*
X0122189Y0218083D01*
X0112815Y0218083D01*
X0111702Y0216970D01*
X0109302Y0214570D01*
X0109302Y0189370D01*
X0109181Y0189248D01*
X0108515Y0189914D01*
X0100590Y0189914D01*
X0099652Y0188977D01*
X0099652Y0185720D01*
X0098702Y0184770D01*
X0098702Y0193030D01*
X0100484Y0193030D01*
X0101002Y0193548D01*
X0101521Y0193030D01*
X0107964Y0193030D01*
X0108902Y0193967D01*
X0108902Y0201198D01*
X0107964Y0202135D01*
X0107102Y0202135D01*
X0107102Y0208487D01*
X0108027Y0208487D01*
X0108965Y0209424D01*
X0108965Y0215474D01*
X0108027Y0216411D01*
X0107839Y0216411D01*
X0108137Y0216491D01*
X0108593Y0216754D01*
X0108965Y0217126D01*
X0109228Y0217582D01*
X0109365Y0218091D01*
X0109365Y0220535D01*
X0105184Y0220535D01*
X0105184Y0220898D01*
X0109365Y0220898D01*
X0109365Y0222083D01*
X0119415Y0222083D01*
X0124713Y0216785D01*
X0124033Y0217465D02*
X0122807Y0217465D01*
X0122034Y0219464D02*
X0109365Y0219464D01*
X0109365Y0221462D02*
X0120036Y0221462D01*
X0121413Y0225459D02*
X0177703Y0225459D01*
X0177703Y0227458D02*
X0072636Y0227458D01*
X0072636Y0228110D02*
X0069002Y0228110D01*
X0065369Y0228110D01*
X0065369Y0226607D01*
X0065505Y0226098D01*
X0065768Y0225642D01*
X0066140Y0225270D01*
X0066597Y0225006D01*
X0067105Y0224870D01*
X0069002Y0224870D01*
X0069002Y0228110D01*
X0069002Y0228110D01*
X0069002Y0228110D01*
X0065369Y0228110D01*
X0065369Y0229614D01*
X0065505Y0230122D01*
X0065768Y0230578D01*
X0066140Y0230951D01*
X0066597Y0231214D01*
X0067105Y0231350D01*
X0069002Y0231350D01*
X0069002Y0228110D01*
X0069002Y0224870D01*
X0070900Y0224870D01*
X0071408Y0225006D01*
X0071864Y0225270D01*
X0072237Y0225642D01*
X0072500Y0226098D01*
X0072636Y0226607D01*
X0072636Y0228110D01*
X0072636Y0229614D01*
X0072500Y0230122D01*
X0072237Y0230578D01*
X0071864Y0230951D01*
X0071408Y0231214D01*
X0070900Y0231350D01*
X0069002Y0231350D01*
X0069002Y0228110D01*
X0069002Y0228110D01*
X0069002Y0228110D01*
X0072636Y0228110D01*
X0072636Y0229456D02*
X0177703Y0229456D01*
X0177703Y0231455D02*
X0062508Y0231455D01*
X0063463Y0229456D02*
X0065369Y0229456D01*
X0065369Y0227458D02*
X0057577Y0227458D01*
X0056427Y0227458D02*
X0037577Y0227458D01*
X0037577Y0225459D02*
X0036427Y0225459D01*
X0036427Y0223461D02*
X0037577Y0223461D01*
X0037577Y0221462D02*
X0036427Y0221462D01*
X0034205Y0221462D02*
X0032002Y0221462D01*
X0032002Y0219464D02*
X0041179Y0219464D01*
X0040902Y0217465D02*
X0032002Y0217465D01*
X0032002Y0215467D02*
X0041276Y0215467D01*
X0040259Y0213468D02*
X0042490Y0213468D01*
X0042497Y0211470D02*
X0045102Y0211470D01*
X0044204Y0209471D02*
X0043459Y0209471D01*
X0045581Y0205474D02*
X0050605Y0205474D01*
X0050621Y0205416D02*
X0050958Y0204602D01*
X0051399Y0203838D01*
X0051935Y0203139D01*
X0052559Y0202516D01*
X0053258Y0201979D01*
X0054022Y0201538D01*
X0054836Y0201201D01*
X0055688Y0200973D01*
X0056427Y0200875D01*
X0056427Y0207008D01*
X0050295Y0207008D01*
X0050392Y0206268D01*
X0050621Y0205416D01*
X0051677Y0203475D02*
X0043582Y0203475D01*
X0042302Y0201477D02*
X0054170Y0201477D01*
X0056427Y0201477D02*
X0057577Y0201477D01*
X0057577Y0200875D02*
X0058317Y0200973D01*
X0059169Y0201201D01*
X0059983Y0201538D01*
X0060747Y0201979D01*
X0061446Y0202516D01*
X0062069Y0203139D01*
X0062606Y0203838D01*
X0063047Y0204602D01*
X0063384Y0205416D01*
X0063612Y0206268D01*
X0063710Y0207008D01*
X0057577Y0207008D01*
X0057577Y0200875D01*
X0059835Y0201477D02*
X0065122Y0201477D01*
X0065034Y0203475D02*
X0062327Y0203475D01*
X0063400Y0205474D02*
X0065034Y0205474D01*
X0065343Y0207473D02*
X0057577Y0207473D01*
X0057577Y0207008D02*
X0057577Y0208158D01*
X0056427Y0208158D01*
X0056427Y0214290D01*
X0055688Y0214193D01*
X0054836Y0213964D01*
X0054022Y0213627D01*
X0053258Y0213186D01*
X0052559Y0212650D01*
X0051935Y0212026D01*
X0051399Y0211327D01*
X0050958Y0210563D01*
X0050621Y0209749D01*
X0050392Y0208897D01*
X0050295Y0208158D01*
X0056427Y0208158D01*
X0056427Y0207008D01*
X0057577Y0207008D01*
X0057577Y0208158D02*
X0063710Y0208158D01*
X0063612Y0208897D01*
X0063384Y0209749D01*
X0063047Y0210563D01*
X0062606Y0211327D01*
X0062069Y0212026D01*
X0061446Y0212650D01*
X0060747Y0213186D01*
X0059983Y0213627D01*
X0059169Y0213964D01*
X0058317Y0214193D01*
X0057577Y0214290D01*
X0057577Y0208158D01*
X0057577Y0209471D02*
X0056427Y0209471D01*
X0056427Y0207473D02*
X0047579Y0207473D01*
X0048902Y0209471D02*
X0050546Y0209471D01*
X0051508Y0211470D02*
X0048902Y0211470D01*
X0051514Y0213468D02*
X0053746Y0213468D01*
X0052728Y0215467D02*
X0067302Y0215467D01*
X0065434Y0213468D02*
X0060259Y0213468D01*
X0057577Y0213468D02*
X0056427Y0213468D01*
X0056427Y0211470D02*
X0057577Y0211470D01*
X0062497Y0211470D02*
X0065434Y0211470D01*
X0065434Y0209471D02*
X0063459Y0209471D01*
X0057577Y0205474D02*
X0056427Y0205474D01*
X0056427Y0203475D02*
X0057577Y0203475D01*
X0056415Y0189883D02*
X0055259Y0188727D01*
X0049310Y0188727D01*
X0048373Y0187790D01*
X0048373Y0180559D01*
X0049310Y0179621D01*
X0056935Y0179621D01*
X0057872Y0180559D01*
X0057872Y0185966D01*
X0057989Y0186083D01*
X0076251Y0186083D01*
X0076251Y0185473D01*
X0077189Y0184535D01*
X0081664Y0184535D01*
X0082601Y0185473D01*
X0082601Y0191523D01*
X0081664Y0192460D01*
X0077189Y0192460D01*
X0076251Y0191523D01*
X0076251Y0189883D01*
X0056415Y0189883D01*
X0056019Y0189486D02*
X0043994Y0189486D01*
X0043994Y0187487D02*
X0048373Y0187487D01*
X0048373Y0185489D02*
X0043994Y0185489D01*
X0043766Y0183490D02*
X0048373Y0183490D01*
X0048373Y0181492D02*
X0043994Y0181492D01*
X0043994Y0179493D02*
X0075659Y0179493D01*
X0075659Y0178459D02*
X0079234Y0178459D01*
X0079234Y0178459D01*
X0079234Y0182821D01*
X0081072Y0182821D01*
X0081581Y0182685D01*
X0082037Y0182421D01*
X0082409Y0182049D01*
X0082672Y0181593D01*
X0082809Y0181084D01*
X0082809Y0178459D01*
X0079234Y0178459D01*
X0079234Y0182821D01*
X0077396Y0182821D01*
X0076887Y0182685D01*
X0076431Y0182421D01*
X0076059Y0182049D01*
X0075795Y0181593D01*
X0075659Y0181084D01*
X0075659Y0178459D01*
X0075659Y0175833D01*
X0075795Y0175325D01*
X0076059Y0174869D01*
X0076431Y0174496D01*
X0076887Y0174233D01*
X0077396Y0174097D01*
X0079234Y0174097D01*
X0081072Y0174097D01*
X0081581Y0174233D01*
X0082037Y0174496D01*
X0082409Y0174869D01*
X0082672Y0175325D01*
X0082809Y0175833D01*
X0082809Y0178459D01*
X0079234Y0178459D01*
X0079234Y0178459D01*
X0079234Y0178459D01*
X0075659Y0178459D01*
X0075659Y0177495D02*
X0043994Y0177495D01*
X0044632Y0171499D02*
X0032002Y0171499D01*
X0032002Y0169501D02*
X0044502Y0169501D01*
X0044502Y0167502D02*
X0032002Y0167502D01*
X0032002Y0165504D02*
X0044502Y0165504D01*
X0044502Y0163505D02*
X0032002Y0163505D01*
X0032002Y0161507D02*
X0044502Y0161507D01*
X0044502Y0159508D02*
X0032002Y0159508D01*
X0032002Y0157510D02*
X0044502Y0157510D01*
X0044502Y0155511D02*
X0032002Y0155511D01*
X0032002Y0153513D02*
X0046385Y0153513D01*
X0048384Y0151514D02*
X0032002Y0151514D01*
X0032002Y0149516D02*
X0050382Y0149516D01*
X0049067Y0147517D02*
X0032002Y0147517D01*
X0032002Y0145519D02*
X0048702Y0145519D01*
X0049120Y0143520D02*
X0032002Y0143520D01*
X0032002Y0141522D02*
X0050568Y0141522D01*
X0049256Y0139523D02*
X0032002Y0139523D01*
X0032002Y0137525D02*
X0047502Y0137525D01*
X0047502Y0135526D02*
X0032002Y0135526D01*
X0032002Y0133528D02*
X0047502Y0133528D01*
X0047502Y0131529D02*
X0032002Y0131529D01*
X0032002Y0129531D02*
X0047502Y0129531D01*
X0047502Y0127532D02*
X0032002Y0127532D01*
X0032002Y0125534D02*
X0047502Y0125534D01*
X0047502Y0123535D02*
X0032002Y0123535D01*
X0032002Y0121537D02*
X0047502Y0121537D01*
X0047502Y0119538D02*
X0032002Y0119538D01*
X0032002Y0117540D02*
X0047502Y0117540D01*
X0047502Y0115541D02*
X0032002Y0115541D01*
X0032002Y0113542D02*
X0047502Y0113542D01*
X0047502Y0111544D02*
X0032002Y0111544D01*
X0032002Y0109545D02*
X0047502Y0109545D01*
X0047502Y0107547D02*
X0032002Y0107547D01*
X0032002Y0105548D02*
X0047502Y0105548D01*
X0047502Y0103550D02*
X0032002Y0103550D01*
X0032002Y0101551D02*
X0047947Y0101551D01*
X0049945Y0099553D02*
X0032002Y0099553D01*
X0032002Y0097554D02*
X0047779Y0097554D01*
X0046266Y0095556D02*
X0032002Y0095556D01*
X0032002Y0093557D02*
X0045802Y0093557D01*
X0046121Y0091559D02*
X0032002Y0091559D01*
X0032002Y0089560D02*
X0047429Y0089560D01*
X0054775Y0089560D02*
X0059938Y0089560D01*
X0061936Y0087562D02*
X0032002Y0087562D01*
X0032002Y0085563D02*
X0092941Y0085563D01*
X0094223Y0085563D02*
X0094223Y0085563D01*
X0095505Y0085563D02*
X0163902Y0085563D01*
X0163902Y0083565D02*
X0134987Y0083565D01*
X0134987Y0081566D02*
X0163902Y0081566D01*
X0163902Y0079568D02*
X0134987Y0079568D01*
X0135555Y0077569D02*
X0155698Y0077569D01*
X0155656Y0077545D02*
X0155284Y0077173D01*
X0155021Y0076717D01*
X0154884Y0076208D01*
X0154884Y0073583D01*
X0158459Y0073583D01*
X0158459Y0077945D01*
X0156621Y0077945D01*
X0156112Y0077809D01*
X0155656Y0077545D01*
X0154884Y0075571D02*
X0135790Y0075571D01*
X0135790Y0073572D02*
X0154884Y0073572D01*
X0154884Y0073583D02*
X0154884Y0070957D01*
X0155021Y0070448D01*
X0155284Y0069992D01*
X0155656Y0069620D01*
X0156112Y0069357D01*
X0156621Y0069220D01*
X0158459Y0069220D01*
X0158459Y0073583D01*
X0158459Y0073583D01*
X0158459Y0077945D01*
X0160297Y0077945D01*
X0160806Y0077809D01*
X0161262Y0077545D01*
X0161634Y0077173D01*
X0161898Y0076717D01*
X0162034Y0076208D01*
X0162034Y0073583D01*
X0158459Y0073583D01*
X0158459Y0073583D01*
X0158459Y0073583D01*
X0154884Y0073583D01*
X0154884Y0071574D02*
X0135790Y0071574D01*
X0135790Y0069575D02*
X0155734Y0069575D01*
X0158459Y0069575D02*
X0158459Y0069575D01*
X0158459Y0069220D02*
X0160297Y0069220D01*
X0160806Y0069357D01*
X0161262Y0069620D01*
X0161634Y0069992D01*
X0161898Y0070448D01*
X0162034Y0070957D01*
X0162034Y0073583D01*
X0158459Y0073583D01*
X0158459Y0069220D01*
X0158459Y0071574D02*
X0158459Y0071574D01*
X0158459Y0073572D02*
X0158459Y0073572D01*
X0158459Y0073583D02*
X0158459Y0073583D01*
X0158459Y0075571D02*
X0158459Y0075571D01*
X0158459Y0077569D02*
X0158459Y0077569D01*
X0161220Y0077569D02*
X0163902Y0077569D01*
X0162371Y0075571D02*
X0162034Y0075571D01*
X0162034Y0073572D02*
X0162371Y0073572D01*
X0162371Y0071574D02*
X0162034Y0071574D01*
X0161184Y0069575D02*
X0177703Y0069575D01*
X0177703Y0067577D02*
X0135503Y0067577D01*
X0134987Y0065578D02*
X0177703Y0065578D01*
X0177703Y0071574D02*
X0168720Y0071574D01*
X0168720Y0073572D02*
X0177703Y0073572D01*
X0177703Y0075571D02*
X0168720Y0075571D01*
X0167702Y0077569D02*
X0177703Y0077569D01*
X0177703Y0079568D02*
X0167702Y0079568D01*
X0167702Y0081566D02*
X0177703Y0081566D01*
X0177703Y0083565D02*
X0167702Y0083565D01*
X0167702Y0085563D02*
X0177703Y0085563D01*
X0177703Y0087562D02*
X0168720Y0087562D01*
X0168720Y0089560D02*
X0177703Y0089560D01*
X0177703Y0091559D02*
X0168720Y0091559D01*
X0168720Y0093557D02*
X0177703Y0093557D01*
X0177703Y0095556D02*
X0167702Y0095556D01*
X0167702Y0097554D02*
X0177703Y0097554D01*
X0177703Y0099553D02*
X0167702Y0099553D01*
X0167702Y0101551D02*
X0177703Y0101551D01*
X0177703Y0103550D02*
X0176992Y0103550D01*
X0176992Y0105548D02*
X0177703Y0105548D01*
X0177703Y0107547D02*
X0176992Y0107547D01*
X0176992Y0109545D02*
X0177703Y0109545D01*
X0177703Y0111544D02*
X0176992Y0111544D01*
X0176992Y0113542D02*
X0177703Y0113542D01*
X0177703Y0115541D02*
X0172502Y0115541D01*
X0172502Y0117540D02*
X0177703Y0117540D01*
X0177703Y0119538D02*
X0172502Y0119538D01*
X0172502Y0121537D02*
X0177703Y0121537D01*
X0177703Y0123535D02*
X0172502Y0123535D01*
X0172502Y0125534D02*
X0177703Y0125534D01*
X0177703Y0127532D02*
X0171940Y0127532D01*
X0169941Y0129531D02*
X0177703Y0129531D01*
X0177703Y0131529D02*
X0169517Y0131529D01*
X0164766Y0127532D02*
X0137746Y0127532D01*
X0137746Y0125534D02*
X0154906Y0125534D01*
X0154926Y0119538D02*
X0148045Y0119538D01*
X0146046Y0117540D02*
X0168702Y0117540D01*
X0168702Y0115541D02*
X0144048Y0115541D01*
X0145385Y0114573D02*
X0145012Y0114200D01*
X0144749Y0113744D01*
X0144613Y0113236D01*
X0144613Y0109583D01*
X0150278Y0109583D01*
X0150278Y0114972D01*
X0146349Y0114972D01*
X0145841Y0114836D01*
X0145385Y0114573D01*
X0144695Y0113542D02*
X0142049Y0113542D01*
X0144613Y0111544D02*
X0137746Y0111544D01*
X0138146Y0109545D02*
X0150278Y0109545D01*
X0150278Y0109583D02*
X0150278Y0107583D01*
X0144613Y0107583D01*
X0144613Y0103930D01*
X0144749Y0103421D01*
X0145012Y0102965D01*
X0145385Y0102593D01*
X0145841Y0102329D01*
X0146349Y0102193D01*
X0150278Y0102193D01*
X0150278Y0107583D01*
X0152278Y0107583D01*
X0152278Y0109583D01*
X0150278Y0109583D01*
X0150278Y0111544D02*
X0152278Y0111544D01*
X0152278Y0109583D02*
X0152278Y0114972D01*
X0156207Y0114972D01*
X0156715Y0114836D01*
X0157171Y0114573D01*
X0157544Y0114200D01*
X0157807Y0113744D01*
X0157943Y0113236D01*
X0157943Y0109583D01*
X0152278Y0109583D01*
X0152278Y0109545D02*
X0164461Y0109545D01*
X0164461Y0107547D02*
X0157943Y0107547D01*
X0157943Y0107583D02*
X0152278Y0107583D01*
X0152278Y0102193D01*
X0156207Y0102193D01*
X0156715Y0102329D01*
X0157171Y0102593D01*
X0157544Y0102965D01*
X0157807Y0103421D01*
X0157943Y0103930D01*
X0157943Y0107583D01*
X0157943Y0105548D02*
X0164461Y0105548D01*
X0163902Y0103550D02*
X0157842Y0103550D01*
X0152278Y0103550D02*
X0150278Y0103550D01*
X0150278Y0105548D02*
X0152278Y0105548D01*
X0152278Y0107547D02*
X0150278Y0107547D01*
X0150278Y0113542D02*
X0152278Y0113542D01*
X0157861Y0113542D02*
X0164461Y0113542D01*
X0164461Y0111544D02*
X0157943Y0111544D01*
X0162811Y0119538D02*
X0163194Y0119538D01*
X0163174Y0121537D02*
X0162831Y0121537D01*
X0162831Y0123535D02*
X0163174Y0123535D01*
X0163174Y0125534D02*
X0162831Y0125534D01*
X0162767Y0129531D02*
X0133437Y0129531D01*
X0135436Y0131529D02*
X0160769Y0131529D01*
X0158770Y0133528D02*
X0137434Y0133528D01*
X0139433Y0135526D02*
X0155103Y0135526D01*
X0155103Y0137525D02*
X0141431Y0137525D01*
X0143430Y0139523D02*
X0155103Y0139523D01*
X0155103Y0141522D02*
X0145428Y0141522D01*
X0147427Y0143520D02*
X0161853Y0143520D01*
X0163851Y0145519D02*
X0149425Y0145519D01*
X0151424Y0147517D02*
X0165102Y0147517D01*
X0165102Y0149516D02*
X0153422Y0149516D01*
X0160415Y0159508D02*
X0172302Y0159508D01*
X0172302Y0157510D02*
X0171098Y0157510D01*
X0171098Y0155511D02*
X0172302Y0155511D01*
X0172302Y0153513D02*
X0171098Y0153513D01*
X0171055Y0151514D02*
X0172302Y0151514D01*
X0172302Y0149516D02*
X0168902Y0149516D01*
X0168902Y0147517D02*
X0172302Y0147517D01*
X0171051Y0145519D02*
X0168902Y0145519D01*
X0169053Y0143520D02*
X0167227Y0143520D01*
X0163218Y0151514D02*
X0162787Y0151514D01*
X0162831Y0153513D02*
X0163174Y0153513D01*
X0163174Y0155511D02*
X0162831Y0155511D01*
X0162831Y0157510D02*
X0163174Y0157510D01*
X0162413Y0161507D02*
X0172302Y0161507D01*
X0172302Y0163505D02*
X0171612Y0163505D01*
X0155103Y0171499D02*
X0140102Y0171499D01*
X0140102Y0169501D02*
X0147634Y0169501D01*
X0145635Y0167502D02*
X0139609Y0167502D01*
X0138352Y0165504D02*
X0143636Y0165504D01*
X0134059Y0135526D02*
X0109433Y0135526D01*
X0107744Y0133528D02*
X0132060Y0133528D01*
X0130062Y0131529D02*
X0109743Y0131529D01*
X0111741Y0129531D02*
X0128063Y0129531D01*
X0127302Y0127532D02*
X0111902Y0127532D01*
X0111902Y0125534D02*
X0127302Y0125534D01*
X0127302Y0123535D02*
X0111902Y0123535D01*
X0111643Y0121537D02*
X0127302Y0121537D01*
X0127302Y0119538D02*
X0109645Y0119538D01*
X0108959Y0117540D02*
X0127302Y0117540D01*
X0127302Y0115541D02*
X0108959Y0115541D01*
X0109093Y0113542D02*
X0127302Y0113542D01*
X0128554Y0111544D02*
X0109359Y0111544D01*
X0108959Y0109949D02*
X0108959Y0109949D01*
X0108959Y0109545D02*
X0128646Y0109545D01*
X0128880Y0107547D02*
X0108959Y0107547D01*
X0108959Y0105548D02*
X0125200Y0105548D01*
X0124313Y0103550D02*
X0108959Y0103550D01*
X0108959Y0101551D02*
X0124865Y0101551D01*
X0121913Y0093557D02*
X0121336Y0093557D01*
X0122858Y0091559D02*
X0109866Y0091559D01*
X0111864Y0093557D02*
X0117869Y0093557D01*
X0116518Y0095556D02*
X0113863Y0095556D01*
X0112486Y0099553D02*
X0108959Y0099553D01*
X0108959Y0097554D02*
X0110487Y0097554D01*
X0104596Y0091664D02*
X0103215Y0090283D01*
X0073696Y0090283D01*
X0073777Y0090395D01*
X0074185Y0091195D01*
X0074462Y0092048D01*
X0074602Y0092934D01*
X0074602Y0093383D01*
X0074602Y0093831D01*
X0074462Y0094717D01*
X0074185Y0095571D01*
X0073777Y0096370D01*
X0073250Y0097096D01*
X0072616Y0097730D01*
X0071890Y0098258D01*
X0071090Y0098665D01*
X0070237Y0098942D01*
X0069351Y0099083D01*
X0068902Y0099083D01*
X0068454Y0099083D01*
X0067568Y0098942D01*
X0066714Y0098665D01*
X0065915Y0098258D01*
X0065189Y0097730D01*
X0064555Y0097096D01*
X0064027Y0096370D01*
X0063620Y0095571D01*
X0063343Y0094717D01*
X0063202Y0093831D01*
X0063202Y0093383D01*
X0068902Y0093383D01*
X0068902Y0093383D01*
X0068902Y0099083D01*
X0068902Y0093383D01*
X0068902Y0093383D01*
X0063202Y0093383D01*
X0063202Y0092934D01*
X0063343Y0092048D01*
X0063592Y0091280D01*
X0055078Y0099794D01*
X0055135Y0099794D01*
X0057083Y0100601D01*
X0058574Y0102092D01*
X0059081Y0103316D01*
X0059588Y0102092D01*
X0061079Y0100601D01*
X0063027Y0099794D01*
X0065135Y0099794D01*
X0067083Y0100601D01*
X0068574Y0102092D01*
X0069081Y0103316D01*
X0069588Y0102092D01*
X0071079Y0100601D01*
X0073027Y0099794D01*
X0075135Y0099794D01*
X0077083Y0100601D01*
X0078574Y0102092D01*
X0079067Y0103283D01*
X0079095Y0103283D01*
X0079588Y0102092D01*
X0081079Y0100601D01*
X0083027Y0099794D01*
X0085135Y0099794D01*
X0087083Y0100601D01*
X0088574Y0102092D01*
X0089381Y0104040D01*
X0089381Y0106149D01*
X0088574Y0108097D01*
X0087083Y0109588D01*
X0085860Y0110094D01*
X0087083Y0110601D01*
X0088574Y0112092D01*
X0089381Y0114040D01*
X0089381Y0115283D01*
X0100259Y0115283D01*
X0100259Y0113776D01*
X0100258Y0113775D01*
X0099995Y0113319D01*
X0099859Y0112811D01*
X0099859Y0111862D01*
X0099859Y0110914D01*
X0099995Y0110405D01*
X0100258Y0109949D01*
X0100259Y0109949D01*
X0100259Y0092601D01*
X0101196Y0091664D01*
X0104596Y0091664D01*
X0104492Y0091559D02*
X0074303Y0091559D01*
X0074602Y0093383D02*
X0068902Y0093383D01*
X0074602Y0093383D01*
X0074602Y0093557D02*
X0100259Y0093557D01*
X0100259Y0095556D02*
X0074190Y0095556D01*
X0072792Y0097554D02*
X0100259Y0097554D01*
X0100259Y0099553D02*
X0055319Y0099553D01*
X0057318Y0097554D02*
X0065013Y0097554D01*
X0063615Y0095556D02*
X0059316Y0095556D01*
X0061315Y0093557D02*
X0063202Y0093557D01*
X0063313Y0091559D02*
X0063502Y0091559D01*
X0057939Y0091559D02*
X0056084Y0091559D01*
X0058033Y0101551D02*
X0060129Y0101551D01*
X0068033Y0101551D02*
X0070129Y0101551D01*
X0068902Y0097554D02*
X0068902Y0097554D01*
X0068902Y0095556D02*
X0068902Y0095556D01*
X0068902Y0093557D02*
X0068902Y0093557D01*
X0068902Y0093383D02*
X0068902Y0093383D01*
X0078033Y0101551D02*
X0080129Y0101551D01*
X0088033Y0101551D02*
X0100259Y0101551D01*
X0100259Y0103550D02*
X0089178Y0103550D01*
X0089381Y0105548D02*
X0100259Y0105548D01*
X0100259Y0107547D02*
X0088802Y0107547D01*
X0087125Y0109545D02*
X0100259Y0109545D01*
X0099859Y0111544D02*
X0088026Y0111544D01*
X0089175Y0113542D02*
X0100124Y0113542D01*
X0099859Y0111862D02*
X0104609Y0111862D01*
X0099859Y0111862D01*
X0104609Y0111862D02*
X0104609Y0111862D01*
X0107867Y0089560D02*
X0154884Y0089560D01*
X0154884Y0090583D02*
X0154884Y0087957D01*
X0155021Y0087448D01*
X0155284Y0086992D01*
X0155656Y0086620D01*
X0156112Y0086357D01*
X0156621Y0086220D01*
X0158459Y0086220D01*
X0158459Y0090583D01*
X0158459Y0094945D01*
X0156621Y0094945D01*
X0156112Y0094809D01*
X0155656Y0094545D01*
X0155284Y0094173D01*
X0155021Y0093717D01*
X0154884Y0093208D01*
X0154884Y0090583D01*
X0158459Y0090583D01*
X0158459Y0090583D01*
X0158459Y0094945D01*
X0160297Y0094945D01*
X0160806Y0094809D01*
X0161262Y0094545D01*
X0161634Y0094173D01*
X0161898Y0093717D01*
X0162034Y0093208D01*
X0162034Y0090583D01*
X0158459Y0090583D01*
X0158459Y0090583D01*
X0158459Y0090583D01*
X0154884Y0090583D01*
X0154884Y0091559D02*
X0127147Y0091559D01*
X0126193Y0082913D02*
X0132593Y0082913D01*
X0132593Y0080905D01*
X0132496Y0080955D01*
X0131695Y0081215D01*
X0130864Y0081346D01*
X0130526Y0081346D01*
X0130526Y0072736D01*
X0130361Y0072736D01*
X0130361Y0081346D01*
X0130023Y0081346D01*
X0129191Y0081215D01*
X0128391Y0080955D01*
X0127641Y0080573D01*
X0126960Y0080078D01*
X0126365Y0079483D01*
X0126193Y0079246D01*
X0126193Y0082913D01*
X0126193Y0081566D02*
X0132593Y0081566D01*
X0130526Y0079568D02*
X0130361Y0079568D01*
X0130361Y0077569D02*
X0130526Y0077569D01*
X0130526Y0075571D02*
X0130361Y0075571D01*
X0130361Y0073572D02*
X0130526Y0073572D01*
X0130361Y0072736D02*
X0130361Y0072571D01*
X0130526Y0072571D01*
X0130526Y0064583D01*
X0130361Y0064583D01*
X0130361Y0072571D01*
X0125097Y0072571D01*
X0125097Y0068886D01*
X0125228Y0068055D01*
X0125489Y0067255D01*
X0125871Y0066505D01*
X0126365Y0065824D01*
X0126960Y0065229D01*
X0127641Y0064734D01*
X0127939Y0064583D01*
X0088066Y0064583D01*
X0088364Y0064734D01*
X0089044Y0065229D01*
X0089639Y0065824D01*
X0090134Y0066505D01*
X0090516Y0067255D01*
X0090776Y0068055D01*
X0090908Y0068886D01*
X0090908Y0072571D01*
X0085644Y0072571D01*
X0085644Y0072736D01*
X0090908Y0072736D01*
X0090908Y0076421D01*
X0090776Y0077252D01*
X0090626Y0077714D01*
X0091089Y0077252D01*
X0091701Y0076806D01*
X0092376Y0076463D01*
X0092896Y0076294D01*
X0091979Y0074079D01*
X0091979Y0071228D01*
X0093070Y0068595D01*
X0095085Y0066579D01*
X0097719Y0065488D01*
X0100569Y0065488D01*
X0103203Y0066579D01*
X0105219Y0068595D01*
X0106309Y0071228D01*
X0106309Y0074079D01*
X0105250Y0076637D01*
X0106564Y0077182D01*
X0107805Y0078423D01*
X0108002Y0078899D01*
X0108200Y0078423D01*
X0109441Y0077182D01*
X0110755Y0076637D01*
X0109695Y0074079D01*
X0109695Y0071228D01*
X0110786Y0068595D01*
X0112802Y0066579D01*
X0115435Y0065488D01*
X0118286Y0065488D01*
X0120919Y0066579D01*
X0122935Y0068595D01*
X0124026Y0071228D01*
X0124026Y0074079D01*
X0123019Y0076510D01*
X0125111Y0076510D01*
X0125097Y0076421D01*
X0125097Y0072736D01*
X0130361Y0072736D01*
X0130361Y0071574D02*
X0130526Y0071574D01*
X0130526Y0069575D02*
X0130361Y0069575D01*
X0130361Y0067577D02*
X0130526Y0067577D01*
X0130526Y0065578D02*
X0130361Y0065578D01*
X0126611Y0065578D02*
X0118503Y0065578D01*
X0115218Y0065578D02*
X0100787Y0065578D01*
X0097501Y0065578D02*
X0089394Y0065578D01*
X0090621Y0067577D02*
X0094088Y0067577D01*
X0092663Y0069575D02*
X0090908Y0069575D01*
X0090908Y0071574D02*
X0091979Y0071574D01*
X0091979Y0073572D02*
X0090908Y0073572D01*
X0090908Y0075571D02*
X0092597Y0075571D01*
X0090771Y0077569D02*
X0090673Y0077569D01*
X0089628Y0079495D02*
X0089044Y0080078D01*
X0088364Y0080573D01*
X0087614Y0080955D01*
X0086813Y0081215D01*
X0085982Y0081346D01*
X0085644Y0081346D01*
X0085644Y0072736D01*
X0085479Y0072736D01*
X0085479Y0081346D01*
X0085141Y0081346D01*
X0084309Y0081215D01*
X0083509Y0080955D01*
X0083412Y0080905D01*
X0083412Y0082913D01*
X0089838Y0082913D01*
X0089764Y0082768D01*
X0089530Y0082048D01*
X0089412Y0081300D01*
X0089412Y0080921D01*
X0089412Y0080543D01*
X0089530Y0079795D01*
X0089628Y0079495D01*
X0089604Y0079568D02*
X0089555Y0079568D01*
X0089412Y0080921D02*
X0094223Y0080921D01*
X0094223Y0080921D01*
X0099034Y0080921D01*
X0099034Y0080543D01*
X0098919Y0079819D01*
X0099748Y0079819D01*
X0099654Y0080044D01*
X0099654Y0081799D01*
X0100116Y0082913D01*
X0098607Y0082913D01*
X0098681Y0082768D01*
X0098915Y0082048D01*
X0099034Y0081300D01*
X0099034Y0080921D01*
X0094223Y0080921D01*
X0094223Y0080921D01*
X0089412Y0080921D01*
X0089454Y0081566D02*
X0083412Y0081566D01*
X0081018Y0081566D02*
X0032002Y0081566D01*
X0032002Y0079568D02*
X0081018Y0079568D01*
X0080450Y0077569D02*
X0032002Y0077569D01*
X0032002Y0075571D02*
X0080215Y0075571D01*
X0080215Y0073572D02*
X0032002Y0073572D01*
X0032002Y0071574D02*
X0047398Y0071574D01*
X0046108Y0069575D02*
X0032002Y0069575D01*
X0032002Y0067577D02*
X0045802Y0067577D01*
X0046279Y0065578D02*
X0032002Y0065578D01*
X0032002Y0083565D02*
X0081018Y0083565D01*
X0085479Y0079568D02*
X0085644Y0079568D01*
X0085644Y0077569D02*
X0085479Y0077569D01*
X0085479Y0075571D02*
X0085644Y0075571D01*
X0085644Y0073572D02*
X0085479Y0073572D01*
X0080502Y0067577D02*
X0074202Y0067577D01*
X0073897Y0069575D02*
X0080215Y0069575D01*
X0080215Y0071574D02*
X0072607Y0071574D01*
X0073726Y0065578D02*
X0081018Y0065578D01*
X0065198Y0071574D02*
X0054807Y0071574D01*
X0056097Y0069575D02*
X0063908Y0069575D01*
X0063602Y0067577D02*
X0056402Y0067577D01*
X0055926Y0065578D02*
X0064079Y0065578D01*
X0098992Y0081566D02*
X0099654Y0081566D01*
X0105691Y0075571D02*
X0110313Y0075571D01*
X0109695Y0073572D02*
X0106309Y0073572D01*
X0106309Y0071574D02*
X0109695Y0071574D01*
X0110380Y0069575D02*
X0105625Y0069575D01*
X0104201Y0067577D02*
X0111804Y0067577D01*
X0109053Y0077569D02*
X0106952Y0077569D01*
X0105869Y0087562D02*
X0154990Y0087562D01*
X0158459Y0087562D02*
X0158459Y0087562D01*
X0158459Y0086220D02*
X0160297Y0086220D01*
X0160806Y0086357D01*
X0161262Y0086620D01*
X0161634Y0086992D01*
X0161898Y0087448D01*
X0162034Y0087957D01*
X0162034Y0090583D01*
X0158459Y0090583D01*
X0158459Y0086220D01*
X0158459Y0089560D02*
X0158459Y0089560D01*
X0158459Y0090583D02*
X0158459Y0090583D01*
X0158459Y0091559D02*
X0158459Y0091559D01*
X0158459Y0093557D02*
X0158459Y0093557D01*
X0154978Y0093557D02*
X0137746Y0093557D01*
X0137746Y0095556D02*
X0163902Y0095556D01*
X0163902Y0097554D02*
X0137746Y0097554D01*
X0137746Y0099553D02*
X0163902Y0099553D01*
X0163902Y0101551D02*
X0138146Y0101551D01*
X0138146Y0101626D02*
X0133396Y0101626D01*
X0138146Y0101626D01*
X0137746Y0103539D02*
X0137746Y0103539D01*
X0137746Y0103550D02*
X0144714Y0103550D01*
X0144613Y0105548D02*
X0137746Y0105548D01*
X0137837Y0107547D02*
X0144613Y0107547D01*
X0140672Y0117540D02*
X0137746Y0117540D01*
X0138146Y0119538D02*
X0142671Y0119538D01*
X0144669Y0121537D02*
X0138146Y0121537D01*
X0138015Y0123535D02*
X0146668Y0123535D01*
X0133396Y0122098D02*
X0133396Y0119539D01*
X0133396Y0122098D01*
X0133396Y0122098D01*
X0133396Y0121537D02*
X0133396Y0121537D01*
X0133396Y0119539D02*
X0133396Y0119539D01*
X0133396Y0101626D02*
X0133396Y0101626D01*
X0126450Y0079568D02*
X0126193Y0079568D01*
X0125097Y0075571D02*
X0123408Y0075571D01*
X0124026Y0073572D02*
X0125097Y0073572D01*
X0125097Y0071574D02*
X0124026Y0071574D01*
X0123341Y0069575D02*
X0125097Y0069575D01*
X0125384Y0067577D02*
X0121917Y0067577D01*
X0161928Y0087562D02*
X0162371Y0087562D01*
X0162371Y0089560D02*
X0162034Y0089560D01*
X0162034Y0091559D02*
X0162371Y0091559D01*
X0162371Y0093557D02*
X0161940Y0093557D01*
X0119973Y0137525D02*
X0111431Y0137525D01*
X0111902Y0139523D02*
X0117975Y0139523D01*
X0117702Y0141522D02*
X0111902Y0141522D01*
X0111902Y0143520D02*
X0117702Y0143520D01*
X0117702Y0145519D02*
X0111902Y0145519D01*
X0111902Y0147517D02*
X0117702Y0147517D01*
X0117702Y0149516D02*
X0111902Y0149516D01*
X0111902Y0151514D02*
X0117702Y0151514D01*
X0117702Y0153513D02*
X0111902Y0153513D01*
X0111902Y0155511D02*
X0117702Y0155511D01*
X0117702Y0157510D02*
X0113416Y0157510D01*
X0115415Y0159508D02*
X0117702Y0159508D01*
X0117702Y0161507D02*
X0117413Y0161507D01*
X0104552Y0162024D02*
X0099252Y0162024D01*
X0104552Y0162024D01*
X0104552Y0162024D01*
X0099652Y0160095D02*
X0099652Y0158901D01*
X0099152Y0159401D01*
X0098102Y0159836D01*
X0098102Y0161996D01*
X0098789Y0162683D01*
X0099252Y0162683D01*
X0099252Y0162024D01*
X0099252Y0161060D01*
X0099389Y0160552D01*
X0099652Y0160096D01*
X0099652Y0160095D01*
X0099652Y0159508D02*
X0098894Y0159508D01*
X0099252Y0161507D02*
X0098102Y0161507D01*
X0093102Y0161507D02*
X0092102Y0161507D01*
X0092102Y0163505D02*
X0093102Y0163505D01*
X0093102Y0165504D02*
X0092102Y0165504D01*
X0092102Y0167502D02*
X0093102Y0167502D01*
X0093102Y0168970D02*
X0093102Y0154796D01*
X0096702Y0151196D01*
X0097815Y0150083D01*
X0099652Y0150083D01*
X0099652Y0142220D01*
X0092102Y0149770D01*
X0092102Y0185170D01*
X0089688Y0187584D01*
X0089688Y0191523D01*
X0088750Y0192460D01*
X0088502Y0192460D01*
X0088502Y0202196D01*
X0091987Y0205681D01*
X0092948Y0205283D01*
X0095057Y0205283D01*
X0097005Y0206090D01*
X0098495Y0207580D01*
X0099302Y0209528D01*
X0099302Y0211637D01*
X0098495Y0213585D01*
X0097005Y0215076D01*
X0095057Y0215883D01*
X0092948Y0215883D01*
X0091311Y0215205D01*
X0098189Y0222083D01*
X0100640Y0222083D01*
X0100640Y0220898D01*
X0104821Y0220898D01*
X0104821Y0220535D01*
X0100640Y0220535D01*
X0100640Y0218091D01*
X0100776Y0217582D01*
X0101040Y0217126D01*
X0101412Y0216754D01*
X0101868Y0216491D01*
X0102165Y0216411D01*
X0101977Y0216411D01*
X0101040Y0215474D01*
X0101040Y0209424D01*
X0101977Y0208487D01*
X0103302Y0208487D01*
X0103302Y0202135D01*
X0101521Y0202135D01*
X0101002Y0201617D01*
X0100484Y0202135D01*
X0094040Y0202135D01*
X0093103Y0201198D01*
X0093103Y0193967D01*
X0094040Y0193030D01*
X0094902Y0193030D01*
X0094902Y0170770D01*
X0094215Y0170083D01*
X0093102Y0168970D01*
X0093633Y0169501D02*
X0092102Y0169501D01*
X0092102Y0171499D02*
X0094902Y0171499D01*
X0094215Y0170083D02*
X0094215Y0170083D01*
X0094902Y0173498D02*
X0092102Y0173498D01*
X0092102Y0175496D02*
X0094902Y0175496D01*
X0094902Y0177495D02*
X0092102Y0177495D01*
X0092102Y0179493D02*
X0094902Y0179493D01*
X0094902Y0181492D02*
X0092102Y0181492D01*
X0092102Y0183490D02*
X0094902Y0183490D01*
X0094902Y0185489D02*
X0091783Y0185489D01*
X0089785Y0187487D02*
X0094902Y0187487D01*
X0094902Y0189486D02*
X0089688Y0189486D01*
X0089688Y0191484D02*
X0094902Y0191484D01*
X0093587Y0193483D02*
X0088502Y0193483D01*
X0088502Y0195481D02*
X0093103Y0195481D01*
X0093103Y0197480D02*
X0088502Y0197480D01*
X0088502Y0199478D02*
X0093103Y0199478D01*
X0093382Y0201477D02*
X0088502Y0201477D01*
X0089782Y0203475D02*
X0103302Y0203475D01*
X0103302Y0205474D02*
X0095518Y0205474D01*
X0092486Y0205474D02*
X0091781Y0205474D01*
X0088405Y0207473D02*
X0088388Y0207473D01*
X0086407Y0205474D02*
X0085518Y0205474D01*
X0084702Y0203475D02*
X0072971Y0203475D01*
X0072971Y0205474D02*
X0082486Y0205474D01*
X0079617Y0207473D02*
X0072662Y0207473D01*
X0069002Y0203475D02*
X0069002Y0203475D01*
X0069002Y0201477D02*
X0069002Y0201477D01*
X0072882Y0201477D02*
X0084702Y0201477D01*
X0084702Y0199478D02*
X0042302Y0199478D01*
X0042302Y0197480D02*
X0084702Y0197480D01*
X0084702Y0195481D02*
X0042302Y0195481D01*
X0042302Y0193483D02*
X0084702Y0193483D01*
X0083338Y0191484D02*
X0082601Y0191484D01*
X0082601Y0189486D02*
X0083338Y0189486D01*
X0083338Y0187487D02*
X0082601Y0187487D01*
X0082601Y0185489D02*
X0083338Y0185489D01*
X0083154Y0181492D02*
X0082700Y0181492D01*
X0082809Y0179493D02*
X0083146Y0179493D01*
X0083146Y0177495D02*
X0082809Y0177495D01*
X0082718Y0175496D02*
X0083146Y0175496D01*
X0082031Y0173498D02*
X0032002Y0173498D01*
X0032002Y0175496D02*
X0075749Y0175496D01*
X0079234Y0175496D02*
X0079234Y0175496D01*
X0079234Y0174097D02*
X0079234Y0178459D01*
X0079234Y0178459D01*
X0079234Y0174097D01*
X0079234Y0177495D02*
X0079234Y0177495D01*
X0079234Y0179493D02*
X0079234Y0179493D01*
X0079234Y0181492D02*
X0079234Y0181492D01*
X0075768Y0181492D02*
X0057872Y0181492D01*
X0057872Y0183490D02*
X0088302Y0183490D01*
X0098702Y0185489D02*
X0099422Y0185489D01*
X0099652Y0187487D02*
X0098702Y0187487D01*
X0098702Y0189486D02*
X0100161Y0189486D01*
X0098702Y0191484D02*
X0109302Y0191484D01*
X0109302Y0189486D02*
X0108943Y0189486D01*
X0109302Y0193483D02*
X0108417Y0193483D01*
X0108902Y0195481D02*
X0109302Y0195481D01*
X0109302Y0197480D02*
X0108902Y0197480D01*
X0108902Y0199478D02*
X0109302Y0199478D01*
X0109302Y0201477D02*
X0108623Y0201477D01*
X0109302Y0203475D02*
X0107102Y0203475D01*
X0107102Y0205474D02*
X0109302Y0205474D01*
X0109302Y0207473D02*
X0107102Y0207473D01*
X0108965Y0209471D02*
X0109302Y0209471D01*
X0109302Y0211470D02*
X0108965Y0211470D01*
X0108965Y0213468D02*
X0109302Y0213468D01*
X0108965Y0215467D02*
X0110199Y0215467D01*
X0109161Y0217465D02*
X0112198Y0217465D01*
X0103302Y0207473D02*
X0098388Y0207473D01*
X0099279Y0209471D02*
X0101040Y0209471D01*
X0101040Y0211470D02*
X0099302Y0211470D01*
X0098544Y0213468D02*
X0101040Y0213468D01*
X0101040Y0215467D02*
X0096061Y0215467D01*
X0095570Y0219464D02*
X0100640Y0219464D01*
X0100640Y0221462D02*
X0097569Y0221462D01*
X0094193Y0223461D02*
X0062316Y0223461D01*
X0063396Y0225459D02*
X0065951Y0225459D01*
X0069002Y0225459D02*
X0069002Y0225459D01*
X0069002Y0227458D02*
X0069002Y0227458D01*
X0069002Y0229456D02*
X0069002Y0229456D01*
X0072054Y0225459D02*
X0096192Y0225459D01*
X0092195Y0221462D02*
X0071732Y0221462D01*
X0072236Y0219464D02*
X0090196Y0219464D01*
X0088198Y0217465D02*
X0072236Y0217465D01*
X0071102Y0215467D02*
X0081944Y0215467D01*
X0079461Y0213468D02*
X0072571Y0213468D01*
X0066273Y0221462D02*
X0059799Y0221462D01*
X0057577Y0221462D02*
X0056427Y0221462D01*
X0056427Y0223461D02*
X0057577Y0223461D01*
X0057577Y0225459D02*
X0056427Y0225459D01*
X0054205Y0221462D02*
X0051750Y0221462D01*
X0051689Y0223461D02*
X0048752Y0223461D01*
X0050609Y0225459D02*
X0043396Y0225459D01*
X0042316Y0223461D02*
X0045253Y0223461D01*
X0042255Y0221462D02*
X0039799Y0221462D01*
X0037577Y0213468D02*
X0036427Y0213468D01*
X0036427Y0211470D02*
X0037577Y0211470D01*
X0037577Y0209471D02*
X0036427Y0209471D01*
X0036427Y0205474D02*
X0037577Y0205474D01*
X0037577Y0203475D02*
X0036427Y0203475D01*
X0036427Y0201477D02*
X0037577Y0201477D01*
X0038502Y0199478D02*
X0032002Y0199478D01*
X0032002Y0197480D02*
X0038502Y0197480D01*
X0038502Y0195481D02*
X0032002Y0195481D01*
X0032002Y0193483D02*
X0038502Y0193483D01*
X0036418Y0191484D02*
X0032002Y0191484D01*
X0032002Y0189486D02*
X0036070Y0189486D01*
X0036070Y0187487D02*
X0032002Y0187487D01*
X0032002Y0185489D02*
X0036070Y0185489D01*
X0036298Y0183490D02*
X0032002Y0183490D01*
X0032002Y0181492D02*
X0036070Y0181492D01*
X0036070Y0179493D02*
X0032002Y0179493D01*
X0032002Y0177495D02*
X0036070Y0177495D01*
X0043646Y0191484D02*
X0076251Y0191484D01*
X0076251Y0185489D02*
X0057872Y0185489D01*
X0058927Y0171499D02*
X0075267Y0171499D01*
X0075103Y0169501D02*
X0059581Y0169501D01*
X0059581Y0167502D02*
X0075103Y0167502D01*
X0075103Y0165504D02*
X0059581Y0165504D01*
X0064002Y0161283D02*
X0064002Y0155583D01*
X0064002Y0155583D01*
X0059302Y0155583D01*
X0059302Y0155583D01*
X0064002Y0155583D01*
X0064002Y0155583D01*
X0064002Y0161283D01*
X0064002Y0159508D02*
X0064002Y0159508D01*
X0064002Y0157510D02*
X0064002Y0157510D01*
X0059867Y0159508D02*
X0057572Y0159508D01*
X0053232Y0165504D02*
X0052895Y0165504D01*
X0051336Y0163505D02*
X0075702Y0163505D01*
X0070639Y0161507D02*
X0048302Y0161507D01*
X0048302Y0159508D02*
X0050433Y0159508D01*
X0049064Y0157510D02*
X0048302Y0157510D01*
X0049320Y0163458D02*
X0049320Y0167820D01*
X0049320Y0163458D01*
X0049320Y0163505D02*
X0049320Y0163505D01*
X0049320Y0165504D02*
X0049320Y0165504D01*
X0049320Y0167502D02*
X0049320Y0167502D01*
X0049320Y0167820D02*
X0049320Y0167820D01*
X0053573Y0171499D02*
X0053886Y0171499D01*
X0068138Y0159508D02*
X0068641Y0159508D01*
X0092102Y0159508D02*
X0093102Y0159508D01*
X0093102Y0157510D02*
X0092102Y0157510D01*
X0092102Y0155511D02*
X0093102Y0155511D01*
X0092102Y0153513D02*
X0094385Y0153513D01*
X0096384Y0151514D02*
X0092102Y0151514D01*
X0092356Y0149516D02*
X0099652Y0149516D01*
X0099652Y0147517D02*
X0094355Y0147517D01*
X0096353Y0145519D02*
X0099652Y0145519D01*
X0099652Y0143520D02*
X0098352Y0143520D01*
X0100937Y0193483D02*
X0101068Y0193483D01*
X0089002Y0212361D02*
X0089380Y0213274D01*
X0088846Y0212739D01*
X0089002Y0212361D01*
X0091573Y0215467D02*
X0091944Y0215467D01*
X0093572Y0217465D02*
X0100844Y0217465D01*
X0086199Y0215467D02*
X0086061Y0215467D01*
X0051497Y0231455D02*
X0042508Y0231455D01*
X0043463Y0229456D02*
X0050542Y0229456D01*
X0033746Y0213468D02*
X0032002Y0213468D01*
X0032002Y0201477D02*
X0034170Y0201477D01*
M02*
