G75*
%MOIN*%
%OFA0B0*%
%FSLAX25Y25*%
%IPPOS*%
%LPD*%
%AMOC8*
5,1,8,0,0,1.08239X$1,22.5*
%
%ADD10C,0.00000*%
%ADD11C,0.01000*%
D10*
X0027002Y0059583D02*
X0027002Y0236543D01*
X0182703Y0236543D01*
X0182703Y0059583D01*
X0027002Y0059583D01*
X0096979Y0072654D02*
X0096981Y0072747D01*
X0096987Y0072839D01*
X0096997Y0072931D01*
X0097011Y0073022D01*
X0097028Y0073113D01*
X0097050Y0073203D01*
X0097075Y0073292D01*
X0097104Y0073380D01*
X0097137Y0073466D01*
X0097174Y0073551D01*
X0097214Y0073635D01*
X0097258Y0073716D01*
X0097305Y0073796D01*
X0097355Y0073874D01*
X0097409Y0073949D01*
X0097466Y0074022D01*
X0097526Y0074092D01*
X0097589Y0074160D01*
X0097655Y0074225D01*
X0097723Y0074287D01*
X0097794Y0074347D01*
X0097868Y0074403D01*
X0097944Y0074456D01*
X0098022Y0074505D01*
X0098102Y0074552D01*
X0098184Y0074594D01*
X0098268Y0074634D01*
X0098353Y0074669D01*
X0098440Y0074701D01*
X0098528Y0074730D01*
X0098617Y0074754D01*
X0098707Y0074775D01*
X0098798Y0074791D01*
X0098890Y0074804D01*
X0098982Y0074813D01*
X0099075Y0074818D01*
X0099167Y0074819D01*
X0099260Y0074816D01*
X0099352Y0074809D01*
X0099444Y0074798D01*
X0099535Y0074783D01*
X0099626Y0074765D01*
X0099716Y0074742D01*
X0099804Y0074716D01*
X0099892Y0074686D01*
X0099978Y0074652D01*
X0100062Y0074615D01*
X0100145Y0074573D01*
X0100226Y0074529D01*
X0100306Y0074481D01*
X0100383Y0074430D01*
X0100457Y0074375D01*
X0100530Y0074317D01*
X0100600Y0074257D01*
X0100667Y0074193D01*
X0100731Y0074127D01*
X0100793Y0074057D01*
X0100851Y0073986D01*
X0100906Y0073912D01*
X0100958Y0073835D01*
X0101007Y0073756D01*
X0101053Y0073676D01*
X0101095Y0073593D01*
X0101133Y0073509D01*
X0101168Y0073423D01*
X0101199Y0073336D01*
X0101226Y0073248D01*
X0101249Y0073158D01*
X0101269Y0073068D01*
X0101285Y0072977D01*
X0101297Y0072885D01*
X0101305Y0072793D01*
X0101309Y0072700D01*
X0101309Y0072608D01*
X0101305Y0072515D01*
X0101297Y0072423D01*
X0101285Y0072331D01*
X0101269Y0072240D01*
X0101249Y0072150D01*
X0101226Y0072060D01*
X0101199Y0071972D01*
X0101168Y0071885D01*
X0101133Y0071799D01*
X0101095Y0071715D01*
X0101053Y0071632D01*
X0101007Y0071552D01*
X0100958Y0071473D01*
X0100906Y0071396D01*
X0100851Y0071322D01*
X0100793Y0071251D01*
X0100731Y0071181D01*
X0100667Y0071115D01*
X0100600Y0071051D01*
X0100530Y0070991D01*
X0100457Y0070933D01*
X0100383Y0070878D01*
X0100306Y0070827D01*
X0100227Y0070779D01*
X0100145Y0070735D01*
X0100062Y0070693D01*
X0099978Y0070656D01*
X0099892Y0070622D01*
X0099804Y0070592D01*
X0099716Y0070566D01*
X0099626Y0070543D01*
X0099535Y0070525D01*
X0099444Y0070510D01*
X0099352Y0070499D01*
X0099260Y0070492D01*
X0099167Y0070489D01*
X0099075Y0070490D01*
X0098982Y0070495D01*
X0098890Y0070504D01*
X0098798Y0070517D01*
X0098707Y0070533D01*
X0098617Y0070554D01*
X0098528Y0070578D01*
X0098440Y0070607D01*
X0098353Y0070639D01*
X0098268Y0070674D01*
X0098184Y0070714D01*
X0098102Y0070756D01*
X0098022Y0070803D01*
X0097944Y0070852D01*
X0097868Y0070905D01*
X0097794Y0070961D01*
X0097723Y0071021D01*
X0097655Y0071083D01*
X0097589Y0071148D01*
X0097526Y0071216D01*
X0097466Y0071286D01*
X0097409Y0071359D01*
X0097355Y0071434D01*
X0097305Y0071512D01*
X0097258Y0071592D01*
X0097214Y0071673D01*
X0097174Y0071757D01*
X0097137Y0071842D01*
X0097104Y0071928D01*
X0097075Y0072016D01*
X0097050Y0072105D01*
X0097028Y0072195D01*
X0097011Y0072286D01*
X0096997Y0072377D01*
X0096987Y0072469D01*
X0096981Y0072561D01*
X0096979Y0072654D01*
X0114696Y0072654D02*
X0114698Y0072747D01*
X0114704Y0072839D01*
X0114714Y0072931D01*
X0114728Y0073022D01*
X0114745Y0073113D01*
X0114767Y0073203D01*
X0114792Y0073292D01*
X0114821Y0073380D01*
X0114854Y0073466D01*
X0114891Y0073551D01*
X0114931Y0073635D01*
X0114975Y0073716D01*
X0115022Y0073796D01*
X0115072Y0073874D01*
X0115126Y0073949D01*
X0115183Y0074022D01*
X0115243Y0074092D01*
X0115306Y0074160D01*
X0115372Y0074225D01*
X0115440Y0074287D01*
X0115511Y0074347D01*
X0115585Y0074403D01*
X0115661Y0074456D01*
X0115739Y0074505D01*
X0115819Y0074552D01*
X0115901Y0074594D01*
X0115985Y0074634D01*
X0116070Y0074669D01*
X0116157Y0074701D01*
X0116245Y0074730D01*
X0116334Y0074754D01*
X0116424Y0074775D01*
X0116515Y0074791D01*
X0116607Y0074804D01*
X0116699Y0074813D01*
X0116792Y0074818D01*
X0116884Y0074819D01*
X0116977Y0074816D01*
X0117069Y0074809D01*
X0117161Y0074798D01*
X0117252Y0074783D01*
X0117343Y0074765D01*
X0117433Y0074742D01*
X0117521Y0074716D01*
X0117609Y0074686D01*
X0117695Y0074652D01*
X0117779Y0074615D01*
X0117862Y0074573D01*
X0117943Y0074529D01*
X0118023Y0074481D01*
X0118100Y0074430D01*
X0118174Y0074375D01*
X0118247Y0074317D01*
X0118317Y0074257D01*
X0118384Y0074193D01*
X0118448Y0074127D01*
X0118510Y0074057D01*
X0118568Y0073986D01*
X0118623Y0073912D01*
X0118675Y0073835D01*
X0118724Y0073756D01*
X0118770Y0073676D01*
X0118812Y0073593D01*
X0118850Y0073509D01*
X0118885Y0073423D01*
X0118916Y0073336D01*
X0118943Y0073248D01*
X0118966Y0073158D01*
X0118986Y0073068D01*
X0119002Y0072977D01*
X0119014Y0072885D01*
X0119022Y0072793D01*
X0119026Y0072700D01*
X0119026Y0072608D01*
X0119022Y0072515D01*
X0119014Y0072423D01*
X0119002Y0072331D01*
X0118986Y0072240D01*
X0118966Y0072150D01*
X0118943Y0072060D01*
X0118916Y0071972D01*
X0118885Y0071885D01*
X0118850Y0071799D01*
X0118812Y0071715D01*
X0118770Y0071632D01*
X0118724Y0071552D01*
X0118675Y0071473D01*
X0118623Y0071396D01*
X0118568Y0071322D01*
X0118510Y0071251D01*
X0118448Y0071181D01*
X0118384Y0071115D01*
X0118317Y0071051D01*
X0118247Y0070991D01*
X0118174Y0070933D01*
X0118100Y0070878D01*
X0118023Y0070827D01*
X0117944Y0070779D01*
X0117862Y0070735D01*
X0117779Y0070693D01*
X0117695Y0070656D01*
X0117609Y0070622D01*
X0117521Y0070592D01*
X0117433Y0070566D01*
X0117343Y0070543D01*
X0117252Y0070525D01*
X0117161Y0070510D01*
X0117069Y0070499D01*
X0116977Y0070492D01*
X0116884Y0070489D01*
X0116792Y0070490D01*
X0116699Y0070495D01*
X0116607Y0070504D01*
X0116515Y0070517D01*
X0116424Y0070533D01*
X0116334Y0070554D01*
X0116245Y0070578D01*
X0116157Y0070607D01*
X0116070Y0070639D01*
X0115985Y0070674D01*
X0115901Y0070714D01*
X0115819Y0070756D01*
X0115739Y0070803D01*
X0115661Y0070852D01*
X0115585Y0070905D01*
X0115511Y0070961D01*
X0115440Y0071021D01*
X0115372Y0071083D01*
X0115306Y0071148D01*
X0115243Y0071216D01*
X0115183Y0071286D01*
X0115126Y0071359D01*
X0115072Y0071434D01*
X0115022Y0071512D01*
X0114975Y0071592D01*
X0114931Y0071673D01*
X0114891Y0071757D01*
X0114854Y0071842D01*
X0114821Y0071928D01*
X0114792Y0072016D01*
X0114767Y0072105D01*
X0114745Y0072195D01*
X0114728Y0072286D01*
X0114714Y0072377D01*
X0114704Y0072469D01*
X0114698Y0072561D01*
X0114696Y0072654D01*
X0183997Y0058126D02*
X0183997Y0235087D01*
D11*
X0157756Y0172482D02*
X0156423Y0170705D01*
X0156978Y0171482D02*
X0155090Y0172482D01*
X0155090Y0170705D02*
X0159090Y0170705D01*
X0157756Y0168489D02*
X0153756Y0167156D01*
X0153756Y0166711D01*
X0155090Y0167600D02*
X0157756Y0166711D01*
X0157090Y0164589D02*
X0155090Y0164589D01*
X0155090Y0162811D02*
X0157756Y0162811D01*
X0157756Y0163922D01*
X0157757Y0163922D02*
X0157755Y0163972D01*
X0157750Y0164021D01*
X0157740Y0164070D01*
X0157727Y0164119D01*
X0157711Y0164166D01*
X0157691Y0164211D01*
X0157668Y0164256D01*
X0157641Y0164298D01*
X0157611Y0164338D01*
X0157579Y0164376D01*
X0157544Y0164411D01*
X0157506Y0164443D01*
X0157466Y0164473D01*
X0157424Y0164500D01*
X0157379Y0164523D01*
X0157334Y0164543D01*
X0157287Y0164559D01*
X0157238Y0164572D01*
X0157189Y0164582D01*
X0157140Y0164587D01*
X0157090Y0164589D01*
X0157756Y0160349D02*
X0157756Y0159237D01*
X0157757Y0159237D02*
X0157755Y0159187D01*
X0157750Y0159138D01*
X0157740Y0159089D01*
X0157727Y0159040D01*
X0157711Y0158993D01*
X0157691Y0158948D01*
X0157668Y0158904D01*
X0157641Y0158861D01*
X0157611Y0158821D01*
X0157579Y0158783D01*
X0157544Y0158748D01*
X0157506Y0158716D01*
X0157466Y0158686D01*
X0157424Y0158659D01*
X0157379Y0158636D01*
X0157334Y0158616D01*
X0157287Y0158600D01*
X0157238Y0158587D01*
X0157189Y0158577D01*
X0157140Y0158572D01*
X0157090Y0158570D01*
X0157090Y0158571D02*
X0155756Y0158571D01*
X0155756Y0158570D02*
X0155706Y0158572D01*
X0155657Y0158577D01*
X0155608Y0158587D01*
X0155559Y0158600D01*
X0155512Y0158616D01*
X0155467Y0158636D01*
X0155423Y0158659D01*
X0155380Y0158686D01*
X0155340Y0158716D01*
X0155302Y0158748D01*
X0155267Y0158783D01*
X0155235Y0158821D01*
X0155205Y0158861D01*
X0155178Y0158904D01*
X0155155Y0158948D01*
X0155135Y0158993D01*
X0155119Y0159040D01*
X0155106Y0159089D01*
X0155096Y0159138D01*
X0155091Y0159187D01*
X0155089Y0159237D01*
X0155090Y0159237D02*
X0155090Y0160349D01*
X0159090Y0160349D01*
X0157090Y0156299D02*
X0155090Y0156299D01*
X0155090Y0155299D01*
X0155089Y0155299D02*
X0155091Y0155243D01*
X0155097Y0155188D01*
X0155107Y0155134D01*
X0155121Y0155080D01*
X0155138Y0155027D01*
X0155159Y0154976D01*
X0155184Y0154926D01*
X0155213Y0154878D01*
X0155244Y0154833D01*
X0155279Y0154790D01*
X0155317Y0154749D01*
X0155358Y0154711D01*
X0155401Y0154676D01*
X0155446Y0154645D01*
X0155494Y0154616D01*
X0155544Y0154591D01*
X0155595Y0154570D01*
X0155648Y0154553D01*
X0155702Y0154539D01*
X0155756Y0154529D01*
X0155811Y0154523D01*
X0155867Y0154521D01*
X0155923Y0154523D01*
X0155978Y0154529D01*
X0156032Y0154539D01*
X0156086Y0154553D01*
X0156139Y0154570D01*
X0156190Y0154591D01*
X0156240Y0154616D01*
X0156288Y0154645D01*
X0156333Y0154676D01*
X0156376Y0154711D01*
X0156417Y0154749D01*
X0156455Y0154790D01*
X0156490Y0154833D01*
X0156521Y0154878D01*
X0156550Y0154926D01*
X0156575Y0154976D01*
X0156596Y0155027D01*
X0156613Y0155080D01*
X0156627Y0155134D01*
X0156637Y0155188D01*
X0156643Y0155243D01*
X0156645Y0155299D01*
X0156645Y0156299D01*
X0157090Y0156299D02*
X0157140Y0156297D01*
X0157189Y0156292D01*
X0157238Y0156282D01*
X0157287Y0156269D01*
X0157334Y0156253D01*
X0157379Y0156233D01*
X0157424Y0156210D01*
X0157466Y0156183D01*
X0157506Y0156153D01*
X0157544Y0156121D01*
X0157579Y0156086D01*
X0157611Y0156048D01*
X0157641Y0156008D01*
X0157668Y0155966D01*
X0157691Y0155921D01*
X0157711Y0155876D01*
X0157727Y0155829D01*
X0157740Y0155780D01*
X0157750Y0155731D01*
X0157755Y0155682D01*
X0157757Y0155632D01*
X0157756Y0155632D02*
X0157756Y0154743D01*
X0157756Y0152603D02*
X0157756Y0151270D01*
X0159090Y0151714D02*
X0155756Y0151714D01*
X0155706Y0151716D01*
X0155657Y0151721D01*
X0155608Y0151731D01*
X0155559Y0151744D01*
X0155512Y0151760D01*
X0155467Y0151780D01*
X0155422Y0151803D01*
X0155380Y0151830D01*
X0155340Y0151860D01*
X0155302Y0151892D01*
X0155267Y0151927D01*
X0155235Y0151965D01*
X0155205Y0152005D01*
X0155178Y0152048D01*
X0155155Y0152092D01*
X0155135Y0152137D01*
X0155119Y0152184D01*
X0155106Y0152233D01*
X0155096Y0152282D01*
X0155091Y0152331D01*
X0155089Y0152381D01*
X0155090Y0152381D02*
X0155090Y0152603D01*
X0156756Y0149217D02*
X0157423Y0147995D01*
X0159090Y0148439D02*
X0159088Y0148516D01*
X0159083Y0148592D01*
X0159074Y0148668D01*
X0159062Y0148744D01*
X0159046Y0148819D01*
X0159027Y0148893D01*
X0159004Y0148966D01*
X0158979Y0149038D01*
X0158949Y0149109D01*
X0158917Y0149179D01*
X0158881Y0149246D01*
X0158843Y0149313D01*
X0158801Y0149377D01*
X0158757Y0149439D01*
X0157423Y0147995D02*
X0157454Y0147945D01*
X0157489Y0147898D01*
X0157526Y0147853D01*
X0157567Y0147810D01*
X0157610Y0147770D01*
X0157655Y0147734D01*
X0157703Y0147700D01*
X0157753Y0147669D01*
X0157805Y0147642D01*
X0157858Y0147618D01*
X0157913Y0147597D01*
X0157969Y0147580D01*
X0158026Y0147567D01*
X0158084Y0147558D01*
X0158142Y0147552D01*
X0158201Y0147550D01*
X0158259Y0147552D01*
X0158317Y0147558D01*
X0158374Y0147567D01*
X0158431Y0147580D01*
X0158487Y0147597D01*
X0158541Y0147618D01*
X0158594Y0147642D01*
X0158646Y0147669D01*
X0158695Y0147700D01*
X0158742Y0147734D01*
X0158787Y0147771D01*
X0158830Y0147810D01*
X0158869Y0147853D01*
X0158906Y0147898D01*
X0158940Y0147945D01*
X0158971Y0147995D01*
X0158998Y0148046D01*
X0159022Y0148099D01*
X0159043Y0148153D01*
X0159060Y0148209D01*
X0159073Y0148266D01*
X0159082Y0148323D01*
X0159088Y0148381D01*
X0159090Y0148439D01*
X0155645Y0147440D02*
X0155587Y0147499D01*
X0155533Y0147561D01*
X0155481Y0147625D01*
X0155432Y0147691D01*
X0155386Y0147759D01*
X0155343Y0147829D01*
X0155303Y0147902D01*
X0155267Y0147975D01*
X0155233Y0148051D01*
X0155203Y0148127D01*
X0155177Y0148205D01*
X0155154Y0148284D01*
X0155134Y0148364D01*
X0155118Y0148445D01*
X0155105Y0148527D01*
X0155096Y0148608D01*
X0155091Y0148691D01*
X0155089Y0148773D01*
X0155091Y0148831D01*
X0155097Y0148889D01*
X0155106Y0148946D01*
X0155119Y0149003D01*
X0155136Y0149059D01*
X0155157Y0149113D01*
X0155181Y0149166D01*
X0155208Y0149218D01*
X0155239Y0149267D01*
X0155273Y0149314D01*
X0155310Y0149359D01*
X0155349Y0149402D01*
X0155392Y0149441D01*
X0155437Y0149478D01*
X0155484Y0149512D01*
X0155534Y0149543D01*
X0155585Y0149570D01*
X0155638Y0149594D01*
X0155692Y0149615D01*
X0155748Y0149632D01*
X0155805Y0149645D01*
X0155862Y0149654D01*
X0155920Y0149660D01*
X0155978Y0149662D01*
X0156037Y0149660D01*
X0156095Y0149654D01*
X0156153Y0149645D01*
X0156210Y0149632D01*
X0156266Y0149615D01*
X0156321Y0149594D01*
X0156374Y0149570D01*
X0156426Y0149543D01*
X0156476Y0149512D01*
X0156524Y0149478D01*
X0156569Y0149442D01*
X0156612Y0149402D01*
X0156653Y0149359D01*
X0156690Y0149314D01*
X0156725Y0149267D01*
X0156756Y0149217D01*
X0156867Y0142989D02*
X0156423Y0142989D01*
X0156423Y0141211D01*
X0156867Y0141211D02*
X0155756Y0141211D01*
X0155706Y0141213D01*
X0155657Y0141218D01*
X0155608Y0141228D01*
X0155559Y0141241D01*
X0155512Y0141257D01*
X0155467Y0141277D01*
X0155423Y0141300D01*
X0155380Y0141327D01*
X0155340Y0141357D01*
X0155302Y0141389D01*
X0155267Y0141424D01*
X0155235Y0141462D01*
X0155205Y0141502D01*
X0155178Y0141545D01*
X0155155Y0141589D01*
X0155135Y0141634D01*
X0155119Y0141681D01*
X0155106Y0141730D01*
X0155096Y0141779D01*
X0155091Y0141828D01*
X0155089Y0141878D01*
X0155090Y0141878D02*
X0155090Y0142989D01*
X0156867Y0142989D02*
X0156925Y0142987D01*
X0156983Y0142981D01*
X0157040Y0142972D01*
X0157097Y0142959D01*
X0157153Y0142942D01*
X0157207Y0142921D01*
X0157260Y0142897D01*
X0157312Y0142870D01*
X0157361Y0142839D01*
X0157408Y0142805D01*
X0157453Y0142768D01*
X0157496Y0142729D01*
X0157535Y0142686D01*
X0157572Y0142641D01*
X0157606Y0142594D01*
X0157637Y0142545D01*
X0157664Y0142493D01*
X0157688Y0142440D01*
X0157709Y0142386D01*
X0157726Y0142330D01*
X0157739Y0142273D01*
X0157748Y0142216D01*
X0157754Y0142158D01*
X0157756Y0142100D01*
X0157754Y0142042D01*
X0157748Y0141984D01*
X0157739Y0141927D01*
X0157726Y0141870D01*
X0157709Y0141814D01*
X0157688Y0141760D01*
X0157664Y0141707D01*
X0157637Y0141656D01*
X0157606Y0141606D01*
X0157572Y0141559D01*
X0157535Y0141514D01*
X0157496Y0141471D01*
X0157453Y0141432D01*
X0157408Y0141395D01*
X0157361Y0141361D01*
X0157312Y0141330D01*
X0157260Y0141303D01*
X0157207Y0141279D01*
X0157153Y0141258D01*
X0157097Y0141241D01*
X0157040Y0141228D01*
X0156983Y0141219D01*
X0156925Y0141213D01*
X0156867Y0141211D01*
X0157756Y0139333D02*
X0156423Y0137555D01*
X0156978Y0138333D02*
X0155090Y0139333D01*
X0155090Y0137555D02*
X0159090Y0137555D01*
X0157090Y0134999D02*
X0155090Y0134999D01*
X0155090Y0133999D01*
X0155089Y0133999D02*
X0155091Y0133943D01*
X0155097Y0133888D01*
X0155107Y0133834D01*
X0155121Y0133780D01*
X0155138Y0133727D01*
X0155159Y0133676D01*
X0155184Y0133626D01*
X0155213Y0133578D01*
X0155244Y0133533D01*
X0155279Y0133490D01*
X0155317Y0133449D01*
X0155358Y0133411D01*
X0155401Y0133376D01*
X0155446Y0133345D01*
X0155494Y0133316D01*
X0155544Y0133291D01*
X0155595Y0133270D01*
X0155648Y0133253D01*
X0155702Y0133239D01*
X0155756Y0133229D01*
X0155811Y0133223D01*
X0155867Y0133221D01*
X0155923Y0133223D01*
X0155978Y0133229D01*
X0156032Y0133239D01*
X0156086Y0133253D01*
X0156139Y0133270D01*
X0156190Y0133291D01*
X0156240Y0133316D01*
X0156288Y0133345D01*
X0156333Y0133376D01*
X0156376Y0133411D01*
X0156417Y0133449D01*
X0156455Y0133490D01*
X0156490Y0133533D01*
X0156521Y0133578D01*
X0156550Y0133626D01*
X0156575Y0133676D01*
X0156596Y0133727D01*
X0156613Y0133780D01*
X0156627Y0133834D01*
X0156637Y0133888D01*
X0156643Y0133943D01*
X0156645Y0133999D01*
X0156645Y0134999D01*
X0157090Y0134999D02*
X0157140Y0134997D01*
X0157189Y0134992D01*
X0157238Y0134982D01*
X0157287Y0134969D01*
X0157334Y0134953D01*
X0157379Y0134933D01*
X0157424Y0134910D01*
X0157466Y0134883D01*
X0157506Y0134853D01*
X0157544Y0134821D01*
X0157579Y0134786D01*
X0157611Y0134748D01*
X0157641Y0134708D01*
X0157668Y0134666D01*
X0157691Y0134621D01*
X0157711Y0134576D01*
X0157727Y0134529D01*
X0157740Y0134480D01*
X0157750Y0134431D01*
X0157755Y0134382D01*
X0157757Y0134332D01*
X0157756Y0134332D02*
X0157756Y0133443D01*
X0155756Y0130852D02*
X0155706Y0130854D01*
X0155657Y0130859D01*
X0155608Y0130869D01*
X0155559Y0130882D01*
X0155512Y0130898D01*
X0155467Y0130918D01*
X0155423Y0130941D01*
X0155380Y0130968D01*
X0155340Y0130998D01*
X0155302Y0131030D01*
X0155267Y0131065D01*
X0155235Y0131103D01*
X0155205Y0131143D01*
X0155178Y0131186D01*
X0155155Y0131230D01*
X0155135Y0131275D01*
X0155119Y0131322D01*
X0155106Y0131371D01*
X0155096Y0131420D01*
X0155091Y0131469D01*
X0155089Y0131519D01*
X0155756Y0130852D02*
X0159090Y0130852D01*
X0159090Y0127817D02*
X0159090Y0126706D01*
X0155090Y0126706D01*
X0155090Y0127817D01*
X0155092Y0127883D01*
X0155098Y0127948D01*
X0155108Y0128014D01*
X0155121Y0128078D01*
X0155138Y0128141D01*
X0155160Y0128204D01*
X0155184Y0128265D01*
X0155213Y0128324D01*
X0155244Y0128382D01*
X0155280Y0128438D01*
X0155318Y0128491D01*
X0155359Y0128542D01*
X0155404Y0128591D01*
X0155451Y0128637D01*
X0155501Y0128680D01*
X0155553Y0128720D01*
X0155608Y0128756D01*
X0155665Y0128790D01*
X0155723Y0128820D01*
X0155783Y0128847D01*
X0155845Y0128869D01*
X0155908Y0128889D01*
X0155972Y0128904D01*
X0156037Y0128916D01*
X0156102Y0128924D01*
X0156168Y0128928D01*
X0156234Y0128928D01*
X0156300Y0128924D01*
X0156365Y0128916D01*
X0156430Y0128904D01*
X0156494Y0128889D01*
X0156557Y0128869D01*
X0156619Y0128847D01*
X0156679Y0128820D01*
X0156737Y0128790D01*
X0156794Y0128756D01*
X0156849Y0128720D01*
X0156901Y0128680D01*
X0156951Y0128637D01*
X0156998Y0128591D01*
X0157043Y0128542D01*
X0157084Y0128491D01*
X0157122Y0128438D01*
X0157158Y0128382D01*
X0157189Y0128324D01*
X0157218Y0128265D01*
X0157242Y0128204D01*
X0157264Y0128141D01*
X0157281Y0128078D01*
X0157294Y0128014D01*
X0157304Y0127948D01*
X0157310Y0127883D01*
X0157312Y0127817D01*
X0157312Y0126706D01*
X0157312Y0127817D02*
X0157314Y0127875D01*
X0157320Y0127933D01*
X0157329Y0127990D01*
X0157342Y0128047D01*
X0157359Y0128103D01*
X0157380Y0128157D01*
X0157404Y0128210D01*
X0157431Y0128262D01*
X0157462Y0128311D01*
X0157496Y0128358D01*
X0157533Y0128403D01*
X0157572Y0128446D01*
X0157615Y0128485D01*
X0157660Y0128522D01*
X0157707Y0128556D01*
X0157757Y0128587D01*
X0157808Y0128614D01*
X0157861Y0128638D01*
X0157915Y0128659D01*
X0157971Y0128676D01*
X0158028Y0128689D01*
X0158085Y0128698D01*
X0158143Y0128704D01*
X0158201Y0128706D01*
X0158259Y0128704D01*
X0158317Y0128698D01*
X0158374Y0128689D01*
X0158431Y0128676D01*
X0158487Y0128659D01*
X0158541Y0128638D01*
X0158594Y0128614D01*
X0158646Y0128587D01*
X0158695Y0128556D01*
X0158742Y0128522D01*
X0158787Y0128485D01*
X0158830Y0128446D01*
X0158869Y0128403D01*
X0158906Y0128358D01*
X0158940Y0128311D01*
X0158971Y0128262D01*
X0158998Y0128210D01*
X0159022Y0128157D01*
X0159043Y0128103D01*
X0159060Y0128047D01*
X0159073Y0127990D01*
X0159082Y0127933D01*
X0159088Y0127875D01*
X0159090Y0127817D01*
X0156645Y0121684D02*
X0156645Y0119017D01*
X0150256Y0116505D02*
X0150256Y0115393D01*
X0146256Y0115393D01*
X0147590Y0115393D02*
X0147590Y0116505D01*
X0147589Y0116505D02*
X0147591Y0116555D01*
X0147596Y0116604D01*
X0147606Y0116653D01*
X0147619Y0116702D01*
X0147635Y0116749D01*
X0147655Y0116794D01*
X0147678Y0116839D01*
X0147705Y0116881D01*
X0147735Y0116921D01*
X0147767Y0116959D01*
X0147802Y0116994D01*
X0147840Y0117026D01*
X0147880Y0117056D01*
X0147923Y0117083D01*
X0147967Y0117106D01*
X0148012Y0117126D01*
X0148059Y0117142D01*
X0148108Y0117155D01*
X0148157Y0117165D01*
X0148206Y0117170D01*
X0148256Y0117172D01*
X0148256Y0117171D02*
X0149590Y0117171D01*
X0149590Y0117172D02*
X0149640Y0117170D01*
X0149689Y0117165D01*
X0149738Y0117155D01*
X0149787Y0117142D01*
X0149834Y0117126D01*
X0149879Y0117106D01*
X0149924Y0117083D01*
X0149966Y0117056D01*
X0150006Y0117026D01*
X0150044Y0116994D01*
X0150079Y0116959D01*
X0150111Y0116921D01*
X0150141Y0116881D01*
X0150168Y0116839D01*
X0150191Y0116794D01*
X0150211Y0116749D01*
X0150227Y0116702D01*
X0150240Y0116653D01*
X0150250Y0116604D01*
X0150255Y0116555D01*
X0150257Y0116505D01*
X0149367Y0113081D02*
X0148478Y0113081D01*
X0148420Y0113079D01*
X0148362Y0113073D01*
X0148305Y0113064D01*
X0148248Y0113051D01*
X0148192Y0113034D01*
X0148138Y0113013D01*
X0148085Y0112989D01*
X0148034Y0112962D01*
X0147984Y0112931D01*
X0147937Y0112897D01*
X0147892Y0112860D01*
X0147849Y0112821D01*
X0147810Y0112778D01*
X0147773Y0112733D01*
X0147739Y0112686D01*
X0147708Y0112637D01*
X0147681Y0112585D01*
X0147657Y0112532D01*
X0147636Y0112478D01*
X0147619Y0112422D01*
X0147606Y0112365D01*
X0147597Y0112308D01*
X0147591Y0112250D01*
X0147589Y0112192D01*
X0147591Y0112134D01*
X0147597Y0112076D01*
X0147606Y0112019D01*
X0147619Y0111962D01*
X0147636Y0111906D01*
X0147657Y0111852D01*
X0147681Y0111799D01*
X0147708Y0111748D01*
X0147739Y0111698D01*
X0147773Y0111651D01*
X0147810Y0111606D01*
X0147849Y0111563D01*
X0147892Y0111524D01*
X0147937Y0111487D01*
X0147984Y0111453D01*
X0148034Y0111422D01*
X0148085Y0111395D01*
X0148138Y0111371D01*
X0148192Y0111350D01*
X0148248Y0111333D01*
X0148305Y0111320D01*
X0148362Y0111311D01*
X0148420Y0111305D01*
X0148478Y0111303D01*
X0149367Y0111303D01*
X0149425Y0111305D01*
X0149483Y0111311D01*
X0149540Y0111320D01*
X0149597Y0111333D01*
X0149653Y0111350D01*
X0149707Y0111371D01*
X0149760Y0111395D01*
X0149812Y0111422D01*
X0149861Y0111453D01*
X0149908Y0111487D01*
X0149953Y0111524D01*
X0149996Y0111563D01*
X0150035Y0111606D01*
X0150072Y0111651D01*
X0150106Y0111698D01*
X0150137Y0111748D01*
X0150164Y0111799D01*
X0150188Y0111852D01*
X0150209Y0111906D01*
X0150226Y0111962D01*
X0150239Y0112019D01*
X0150248Y0112076D01*
X0150254Y0112134D01*
X0150256Y0112192D01*
X0150254Y0112250D01*
X0150248Y0112308D01*
X0150239Y0112365D01*
X0150226Y0112422D01*
X0150209Y0112478D01*
X0150188Y0112532D01*
X0150164Y0112585D01*
X0150137Y0112637D01*
X0150106Y0112686D01*
X0150072Y0112733D01*
X0150035Y0112778D01*
X0149996Y0112821D01*
X0149953Y0112860D01*
X0149908Y0112897D01*
X0149861Y0112931D01*
X0149812Y0112962D01*
X0149760Y0112989D01*
X0149707Y0113013D01*
X0149653Y0113034D01*
X0149597Y0113051D01*
X0149540Y0113064D01*
X0149483Y0113073D01*
X0149425Y0113079D01*
X0149367Y0113081D01*
X0147589Y0109560D02*
X0147591Y0109510D01*
X0147596Y0109461D01*
X0147606Y0109412D01*
X0147619Y0109363D01*
X0147635Y0109316D01*
X0147655Y0109271D01*
X0147678Y0109227D01*
X0147705Y0109184D01*
X0147735Y0109144D01*
X0147767Y0109106D01*
X0147802Y0109071D01*
X0147840Y0109039D01*
X0147880Y0109009D01*
X0147923Y0108982D01*
X0147967Y0108959D01*
X0148012Y0108939D01*
X0148059Y0108923D01*
X0148108Y0108910D01*
X0148157Y0108900D01*
X0148206Y0108895D01*
X0148256Y0108893D01*
X0151590Y0108893D01*
X0149590Y0106631D02*
X0147590Y0106631D01*
X0147590Y0104853D02*
X0150256Y0104853D01*
X0150256Y0105964D01*
X0150257Y0105964D02*
X0150255Y0106014D01*
X0150250Y0106063D01*
X0150240Y0106112D01*
X0150227Y0106161D01*
X0150211Y0106208D01*
X0150191Y0106253D01*
X0150168Y0106298D01*
X0150141Y0106340D01*
X0150111Y0106380D01*
X0150079Y0106418D01*
X0150044Y0106453D01*
X0150006Y0106485D01*
X0149966Y0106515D01*
X0149924Y0106542D01*
X0149879Y0106565D01*
X0149834Y0106585D01*
X0149787Y0106601D01*
X0149738Y0106614D01*
X0149689Y0106624D01*
X0149640Y0106629D01*
X0149590Y0106631D01*
X0150256Y0102431D02*
X0147590Y0102431D01*
X0147590Y0101320D01*
X0147589Y0101320D02*
X0147591Y0101270D01*
X0147596Y0101221D01*
X0147606Y0101172D01*
X0147619Y0101123D01*
X0147635Y0101076D01*
X0147655Y0101031D01*
X0147678Y0100987D01*
X0147705Y0100944D01*
X0147735Y0100904D01*
X0147767Y0100866D01*
X0147802Y0100831D01*
X0147840Y0100799D01*
X0147880Y0100769D01*
X0147923Y0100742D01*
X0147967Y0100719D01*
X0148012Y0100699D01*
X0148059Y0100683D01*
X0148108Y0100670D01*
X0148157Y0100660D01*
X0148206Y0100655D01*
X0148256Y0100653D01*
X0150256Y0100653D01*
X0150478Y0098153D02*
X0148701Y0098153D01*
X0148636Y0098151D01*
X0148572Y0098145D01*
X0148508Y0098136D01*
X0148445Y0098123D01*
X0148382Y0098106D01*
X0148321Y0098086D01*
X0148261Y0098062D01*
X0148202Y0098035D01*
X0148146Y0098004D01*
X0148090Y0097970D01*
X0148038Y0097933D01*
X0147987Y0097893D01*
X0147939Y0097850D01*
X0147893Y0097804D01*
X0147850Y0097756D01*
X0147810Y0097705D01*
X0147773Y0097653D01*
X0147739Y0097598D01*
X0147708Y0097541D01*
X0147681Y0097482D01*
X0147657Y0097422D01*
X0147637Y0097361D01*
X0147620Y0097298D01*
X0147607Y0097235D01*
X0147598Y0097171D01*
X0147592Y0097107D01*
X0147590Y0097042D01*
X0147590Y0095931D01*
X0151590Y0095931D01*
X0151590Y0097042D01*
X0151589Y0097042D02*
X0151587Y0097107D01*
X0151581Y0097171D01*
X0151572Y0097235D01*
X0151559Y0097298D01*
X0151542Y0097361D01*
X0151522Y0097422D01*
X0151498Y0097482D01*
X0151471Y0097541D01*
X0151440Y0097598D01*
X0151406Y0097653D01*
X0151369Y0097705D01*
X0151329Y0097756D01*
X0151286Y0097804D01*
X0151240Y0097850D01*
X0151192Y0097893D01*
X0151141Y0097933D01*
X0151088Y0097970D01*
X0151033Y0098004D01*
X0150977Y0098035D01*
X0150918Y0098062D01*
X0150858Y0098086D01*
X0150797Y0098106D01*
X0150734Y0098123D01*
X0150671Y0098136D01*
X0150607Y0098145D01*
X0150543Y0098151D01*
X0150478Y0098153D01*
X0155090Y0097089D02*
X0157090Y0097089D01*
X0157090Y0097090D02*
X0157140Y0097088D01*
X0157189Y0097083D01*
X0157238Y0097073D01*
X0157287Y0097060D01*
X0157334Y0097044D01*
X0157379Y0097024D01*
X0157424Y0097001D01*
X0157466Y0096974D01*
X0157506Y0096944D01*
X0157544Y0096912D01*
X0157579Y0096877D01*
X0157611Y0096839D01*
X0157641Y0096799D01*
X0157668Y0096757D01*
X0157691Y0096712D01*
X0157711Y0096667D01*
X0157727Y0096620D01*
X0157740Y0096571D01*
X0157750Y0096522D01*
X0157755Y0096473D01*
X0157757Y0096423D01*
X0157756Y0096423D02*
X0157756Y0095312D01*
X0155090Y0095312D01*
X0155090Y0092849D02*
X0157090Y0092849D01*
X0156645Y0092849D02*
X0156645Y0091849D01*
X0157090Y0092849D02*
X0157140Y0092847D01*
X0157189Y0092842D01*
X0157238Y0092832D01*
X0157287Y0092819D01*
X0157334Y0092803D01*
X0157379Y0092783D01*
X0157424Y0092760D01*
X0157466Y0092733D01*
X0157506Y0092703D01*
X0157544Y0092671D01*
X0157579Y0092636D01*
X0157611Y0092598D01*
X0157641Y0092558D01*
X0157668Y0092516D01*
X0157691Y0092471D01*
X0157711Y0092426D01*
X0157727Y0092379D01*
X0157740Y0092330D01*
X0157750Y0092281D01*
X0157755Y0092232D01*
X0157757Y0092182D01*
X0157756Y0092182D02*
X0157756Y0091293D01*
X0156645Y0091849D02*
X0156643Y0091793D01*
X0156637Y0091738D01*
X0156627Y0091684D01*
X0156613Y0091630D01*
X0156596Y0091577D01*
X0156575Y0091526D01*
X0156550Y0091476D01*
X0156521Y0091428D01*
X0156490Y0091383D01*
X0156455Y0091340D01*
X0156417Y0091299D01*
X0156376Y0091261D01*
X0156333Y0091226D01*
X0156288Y0091195D01*
X0156240Y0091166D01*
X0156190Y0091141D01*
X0156139Y0091120D01*
X0156086Y0091103D01*
X0156032Y0091089D01*
X0155978Y0091079D01*
X0155923Y0091073D01*
X0155867Y0091071D01*
X0155811Y0091073D01*
X0155756Y0091079D01*
X0155702Y0091089D01*
X0155648Y0091103D01*
X0155595Y0091120D01*
X0155544Y0091141D01*
X0155494Y0091166D01*
X0155446Y0091195D01*
X0155401Y0091226D01*
X0155358Y0091261D01*
X0155317Y0091299D01*
X0155279Y0091340D01*
X0155244Y0091383D01*
X0155213Y0091428D01*
X0155184Y0091476D01*
X0155159Y0091526D01*
X0155138Y0091577D01*
X0155121Y0091630D01*
X0155107Y0091684D01*
X0155097Y0091738D01*
X0155091Y0091793D01*
X0155089Y0091849D01*
X0155090Y0091849D02*
X0155090Y0092849D01*
X0155090Y0088762D02*
X0159090Y0088762D01*
X0157312Y0088762D02*
X0157312Y0086539D01*
X0159090Y0086539D02*
X0155090Y0086539D01*
X0151590Y0087390D02*
X0147590Y0087390D01*
X0147590Y0086279D01*
X0147589Y0086279D02*
X0147591Y0086229D01*
X0147596Y0086180D01*
X0147606Y0086131D01*
X0147619Y0086082D01*
X0147635Y0086035D01*
X0147655Y0085990D01*
X0147678Y0085946D01*
X0147705Y0085903D01*
X0147735Y0085863D01*
X0147767Y0085825D01*
X0147802Y0085790D01*
X0147840Y0085758D01*
X0147880Y0085728D01*
X0147923Y0085701D01*
X0147967Y0085678D01*
X0148012Y0085658D01*
X0148059Y0085642D01*
X0148108Y0085629D01*
X0148157Y0085619D01*
X0148206Y0085614D01*
X0148256Y0085612D01*
X0149590Y0085612D01*
X0149640Y0085614D01*
X0149689Y0085619D01*
X0149738Y0085629D01*
X0149787Y0085642D01*
X0149834Y0085658D01*
X0149879Y0085678D01*
X0149924Y0085701D01*
X0149966Y0085728D01*
X0150006Y0085758D01*
X0150044Y0085790D01*
X0150079Y0085825D01*
X0150111Y0085863D01*
X0150141Y0085903D01*
X0150168Y0085946D01*
X0150191Y0085990D01*
X0150211Y0086035D01*
X0150227Y0086082D01*
X0150240Y0086131D01*
X0150250Y0086180D01*
X0150255Y0086229D01*
X0150257Y0086279D01*
X0150256Y0086279D02*
X0150256Y0087390D01*
X0150256Y0089553D02*
X0147590Y0090442D01*
X0146256Y0089997D02*
X0146256Y0089553D01*
X0146256Y0089997D02*
X0150256Y0091331D01*
X0149367Y0083531D02*
X0148478Y0083531D01*
X0148420Y0083529D01*
X0148362Y0083523D01*
X0148305Y0083514D01*
X0148248Y0083501D01*
X0148192Y0083484D01*
X0148138Y0083463D01*
X0148085Y0083439D01*
X0148034Y0083412D01*
X0147984Y0083381D01*
X0147937Y0083347D01*
X0147892Y0083310D01*
X0147849Y0083271D01*
X0147810Y0083228D01*
X0147773Y0083183D01*
X0147739Y0083136D01*
X0147708Y0083087D01*
X0147681Y0083035D01*
X0147657Y0082982D01*
X0147636Y0082928D01*
X0147619Y0082872D01*
X0147606Y0082815D01*
X0147597Y0082758D01*
X0147591Y0082700D01*
X0147589Y0082642D01*
X0147591Y0082584D01*
X0147597Y0082526D01*
X0147606Y0082469D01*
X0147619Y0082412D01*
X0147636Y0082356D01*
X0147657Y0082302D01*
X0147681Y0082249D01*
X0147708Y0082198D01*
X0147739Y0082148D01*
X0147773Y0082101D01*
X0147810Y0082056D01*
X0147849Y0082013D01*
X0147892Y0081974D01*
X0147937Y0081937D01*
X0147984Y0081903D01*
X0148034Y0081872D01*
X0148085Y0081845D01*
X0148138Y0081821D01*
X0148192Y0081800D01*
X0148248Y0081783D01*
X0148305Y0081770D01*
X0148362Y0081761D01*
X0148420Y0081755D01*
X0148478Y0081753D01*
X0149367Y0081753D01*
X0149425Y0081755D01*
X0149483Y0081761D01*
X0149540Y0081770D01*
X0149597Y0081783D01*
X0149653Y0081800D01*
X0149707Y0081821D01*
X0149760Y0081845D01*
X0149812Y0081872D01*
X0149861Y0081903D01*
X0149908Y0081937D01*
X0149953Y0081974D01*
X0149996Y0082013D01*
X0150035Y0082056D01*
X0150072Y0082101D01*
X0150106Y0082148D01*
X0150137Y0082198D01*
X0150164Y0082249D01*
X0150188Y0082302D01*
X0150209Y0082356D01*
X0150226Y0082412D01*
X0150239Y0082469D01*
X0150248Y0082526D01*
X0150254Y0082584D01*
X0150256Y0082642D01*
X0150254Y0082700D01*
X0150248Y0082758D01*
X0150239Y0082815D01*
X0150226Y0082872D01*
X0150209Y0082928D01*
X0150188Y0082982D01*
X0150164Y0083035D01*
X0150137Y0083087D01*
X0150106Y0083136D01*
X0150072Y0083183D01*
X0150035Y0083228D01*
X0149996Y0083271D01*
X0149953Y0083310D01*
X0149908Y0083347D01*
X0149861Y0083381D01*
X0149812Y0083412D01*
X0149760Y0083439D01*
X0149707Y0083463D01*
X0149653Y0083484D01*
X0149597Y0083501D01*
X0149540Y0083514D01*
X0149483Y0083523D01*
X0149425Y0083529D01*
X0149367Y0083531D01*
X0149812Y0080132D02*
X0150256Y0080132D01*
X0150256Y0078799D01*
X0147590Y0078799D01*
X0147590Y0075559D02*
X0147590Y0074447D01*
X0151590Y0074447D01*
X0151590Y0075559D01*
X0151588Y0075617D01*
X0151582Y0075675D01*
X0151573Y0075732D01*
X0151560Y0075789D01*
X0151543Y0075845D01*
X0151522Y0075899D01*
X0151498Y0075952D01*
X0151471Y0076004D01*
X0151440Y0076053D01*
X0151406Y0076100D01*
X0151369Y0076145D01*
X0151330Y0076188D01*
X0151287Y0076227D01*
X0151242Y0076264D01*
X0151195Y0076298D01*
X0151146Y0076329D01*
X0151094Y0076356D01*
X0151041Y0076380D01*
X0150987Y0076401D01*
X0150931Y0076418D01*
X0150874Y0076431D01*
X0150817Y0076440D01*
X0150759Y0076446D01*
X0150701Y0076448D01*
X0150643Y0076446D01*
X0150585Y0076440D01*
X0150528Y0076431D01*
X0150471Y0076418D01*
X0150415Y0076401D01*
X0150361Y0076380D01*
X0150308Y0076356D01*
X0150257Y0076329D01*
X0150207Y0076298D01*
X0150160Y0076264D01*
X0150115Y0076227D01*
X0150072Y0076188D01*
X0150033Y0076145D01*
X0149996Y0076100D01*
X0149962Y0076053D01*
X0149931Y0076004D01*
X0149904Y0075952D01*
X0149880Y0075899D01*
X0149859Y0075845D01*
X0149842Y0075789D01*
X0149829Y0075732D01*
X0149820Y0075675D01*
X0149814Y0075617D01*
X0149812Y0075559D01*
X0149812Y0074447D01*
X0149812Y0075559D02*
X0149810Y0075625D01*
X0149804Y0075690D01*
X0149794Y0075756D01*
X0149781Y0075820D01*
X0149764Y0075883D01*
X0149742Y0075946D01*
X0149718Y0076007D01*
X0149689Y0076066D01*
X0149658Y0076124D01*
X0149622Y0076180D01*
X0149584Y0076233D01*
X0149543Y0076284D01*
X0149498Y0076333D01*
X0149451Y0076379D01*
X0149401Y0076422D01*
X0149349Y0076462D01*
X0149294Y0076498D01*
X0149237Y0076532D01*
X0149179Y0076562D01*
X0149119Y0076589D01*
X0149057Y0076611D01*
X0148994Y0076631D01*
X0148930Y0076646D01*
X0148865Y0076658D01*
X0148800Y0076666D01*
X0148734Y0076670D01*
X0148668Y0076670D01*
X0148602Y0076666D01*
X0148537Y0076658D01*
X0148472Y0076646D01*
X0148408Y0076631D01*
X0148345Y0076611D01*
X0148283Y0076589D01*
X0148223Y0076562D01*
X0148165Y0076532D01*
X0148108Y0076498D01*
X0148053Y0076462D01*
X0148001Y0076422D01*
X0147951Y0076379D01*
X0147904Y0076333D01*
X0147859Y0076284D01*
X0147818Y0076233D01*
X0147780Y0076180D01*
X0147744Y0076124D01*
X0147713Y0076066D01*
X0147684Y0076007D01*
X0147660Y0075946D01*
X0147638Y0075883D01*
X0147621Y0075820D01*
X0147608Y0075756D01*
X0147598Y0075690D01*
X0147592Y0075625D01*
X0147590Y0075559D01*
X0153756Y0080162D02*
X0153756Y0080606D01*
X0157756Y0081939D01*
X0157756Y0080162D02*
X0155090Y0081050D01*
X0157312Y0078691D02*
X0157756Y0078691D01*
X0157756Y0077357D01*
X0155090Y0077357D01*
X0155978Y0075039D02*
X0156867Y0075039D01*
X0156867Y0075040D02*
X0156925Y0075038D01*
X0156983Y0075032D01*
X0157040Y0075023D01*
X0157097Y0075010D01*
X0157153Y0074993D01*
X0157207Y0074972D01*
X0157260Y0074948D01*
X0157312Y0074921D01*
X0157361Y0074890D01*
X0157408Y0074856D01*
X0157453Y0074819D01*
X0157496Y0074780D01*
X0157535Y0074737D01*
X0157572Y0074692D01*
X0157606Y0074645D01*
X0157637Y0074596D01*
X0157664Y0074544D01*
X0157688Y0074491D01*
X0157709Y0074437D01*
X0157726Y0074381D01*
X0157739Y0074324D01*
X0157748Y0074267D01*
X0157754Y0074209D01*
X0157756Y0074151D01*
X0157754Y0074093D01*
X0157748Y0074035D01*
X0157739Y0073978D01*
X0157726Y0073921D01*
X0157709Y0073865D01*
X0157688Y0073811D01*
X0157664Y0073758D01*
X0157637Y0073707D01*
X0157606Y0073657D01*
X0157572Y0073610D01*
X0157535Y0073565D01*
X0157496Y0073522D01*
X0157453Y0073483D01*
X0157408Y0073446D01*
X0157361Y0073412D01*
X0157312Y0073381D01*
X0157260Y0073354D01*
X0157207Y0073330D01*
X0157153Y0073309D01*
X0157097Y0073292D01*
X0157040Y0073279D01*
X0156983Y0073270D01*
X0156925Y0073264D01*
X0156867Y0073262D01*
X0155978Y0073262D01*
X0155920Y0073264D01*
X0155862Y0073270D01*
X0155805Y0073279D01*
X0155748Y0073292D01*
X0155692Y0073309D01*
X0155638Y0073330D01*
X0155585Y0073354D01*
X0155534Y0073381D01*
X0155484Y0073412D01*
X0155437Y0073446D01*
X0155392Y0073483D01*
X0155349Y0073522D01*
X0155310Y0073565D01*
X0155273Y0073610D01*
X0155239Y0073657D01*
X0155208Y0073707D01*
X0155181Y0073758D01*
X0155157Y0073811D01*
X0155136Y0073865D01*
X0155119Y0073921D01*
X0155106Y0073978D01*
X0155097Y0074035D01*
X0155091Y0074093D01*
X0155089Y0074151D01*
X0155091Y0074209D01*
X0155097Y0074267D01*
X0155106Y0074324D01*
X0155119Y0074381D01*
X0155136Y0074437D01*
X0155157Y0074491D01*
X0155181Y0074544D01*
X0155208Y0074596D01*
X0155239Y0074645D01*
X0155273Y0074692D01*
X0155310Y0074737D01*
X0155349Y0074780D01*
X0155392Y0074819D01*
X0155437Y0074856D01*
X0155484Y0074890D01*
X0155534Y0074921D01*
X0155585Y0074948D01*
X0155638Y0074972D01*
X0155692Y0074993D01*
X0155748Y0075010D01*
X0155805Y0075023D01*
X0155862Y0075032D01*
X0155920Y0075038D01*
X0155978Y0075040D01*
X0155090Y0071112D02*
X0156867Y0070223D01*
X0156867Y0070001D02*
X0156867Y0068890D01*
X0156867Y0070001D02*
X0156869Y0070067D01*
X0156875Y0070132D01*
X0156885Y0070198D01*
X0156898Y0070262D01*
X0156915Y0070325D01*
X0156937Y0070388D01*
X0156961Y0070449D01*
X0156990Y0070508D01*
X0157021Y0070566D01*
X0157057Y0070622D01*
X0157095Y0070675D01*
X0157136Y0070726D01*
X0157181Y0070775D01*
X0157228Y0070821D01*
X0157278Y0070864D01*
X0157330Y0070904D01*
X0157385Y0070940D01*
X0157442Y0070974D01*
X0157500Y0071004D01*
X0157560Y0071031D01*
X0157622Y0071053D01*
X0157685Y0071073D01*
X0157749Y0071088D01*
X0157814Y0071100D01*
X0157879Y0071108D01*
X0157945Y0071112D01*
X0158011Y0071112D01*
X0158077Y0071108D01*
X0158142Y0071100D01*
X0158207Y0071088D01*
X0158271Y0071073D01*
X0158334Y0071053D01*
X0158396Y0071031D01*
X0158456Y0071004D01*
X0158514Y0070974D01*
X0158571Y0070940D01*
X0158626Y0070904D01*
X0158678Y0070864D01*
X0158728Y0070821D01*
X0158775Y0070775D01*
X0158820Y0070726D01*
X0158861Y0070675D01*
X0158899Y0070622D01*
X0158935Y0070566D01*
X0158966Y0070508D01*
X0158995Y0070449D01*
X0159019Y0070388D01*
X0159041Y0070325D01*
X0159058Y0070262D01*
X0159071Y0070198D01*
X0159081Y0070132D01*
X0159087Y0070067D01*
X0159089Y0070001D01*
X0159090Y0070001D02*
X0159090Y0068890D01*
X0155090Y0068890D01*
X0155756Y0099371D02*
X0157090Y0099371D01*
X0157090Y0099370D02*
X0157140Y0099372D01*
X0157189Y0099377D01*
X0157238Y0099387D01*
X0157287Y0099400D01*
X0157334Y0099416D01*
X0157379Y0099436D01*
X0157424Y0099459D01*
X0157466Y0099486D01*
X0157506Y0099516D01*
X0157544Y0099548D01*
X0157579Y0099583D01*
X0157611Y0099621D01*
X0157641Y0099661D01*
X0157668Y0099704D01*
X0157691Y0099748D01*
X0157711Y0099793D01*
X0157727Y0099840D01*
X0157740Y0099889D01*
X0157750Y0099938D01*
X0157755Y0099987D01*
X0157757Y0100037D01*
X0157756Y0100037D02*
X0157756Y0100926D01*
X0156867Y0102812D02*
X0155978Y0102812D01*
X0155978Y0102811D02*
X0155920Y0102813D01*
X0155862Y0102819D01*
X0155805Y0102828D01*
X0155748Y0102841D01*
X0155692Y0102858D01*
X0155638Y0102879D01*
X0155585Y0102903D01*
X0155534Y0102930D01*
X0155484Y0102961D01*
X0155437Y0102995D01*
X0155392Y0103032D01*
X0155349Y0103071D01*
X0155310Y0103114D01*
X0155273Y0103159D01*
X0155239Y0103206D01*
X0155208Y0103256D01*
X0155181Y0103307D01*
X0155157Y0103360D01*
X0155136Y0103414D01*
X0155119Y0103470D01*
X0155106Y0103527D01*
X0155097Y0103584D01*
X0155091Y0103642D01*
X0155089Y0103700D01*
X0155091Y0103758D01*
X0155097Y0103816D01*
X0155106Y0103873D01*
X0155119Y0103930D01*
X0155136Y0103986D01*
X0155157Y0104040D01*
X0155181Y0104093D01*
X0155208Y0104145D01*
X0155239Y0104194D01*
X0155273Y0104241D01*
X0155310Y0104286D01*
X0155349Y0104329D01*
X0155392Y0104368D01*
X0155437Y0104405D01*
X0155484Y0104439D01*
X0155534Y0104470D01*
X0155585Y0104497D01*
X0155638Y0104521D01*
X0155692Y0104542D01*
X0155748Y0104559D01*
X0155805Y0104572D01*
X0155862Y0104581D01*
X0155920Y0104587D01*
X0155978Y0104589D01*
X0156867Y0104589D01*
X0156925Y0104587D01*
X0156983Y0104581D01*
X0157040Y0104572D01*
X0157097Y0104559D01*
X0157153Y0104542D01*
X0157207Y0104521D01*
X0157260Y0104497D01*
X0157312Y0104470D01*
X0157361Y0104439D01*
X0157408Y0104405D01*
X0157453Y0104368D01*
X0157496Y0104329D01*
X0157535Y0104286D01*
X0157572Y0104241D01*
X0157606Y0104194D01*
X0157637Y0104145D01*
X0157664Y0104093D01*
X0157688Y0104040D01*
X0157709Y0103986D01*
X0157726Y0103930D01*
X0157739Y0103873D01*
X0157748Y0103816D01*
X0157754Y0103758D01*
X0157756Y0103700D01*
X0157754Y0103642D01*
X0157748Y0103584D01*
X0157739Y0103527D01*
X0157726Y0103470D01*
X0157709Y0103414D01*
X0157688Y0103360D01*
X0157664Y0103307D01*
X0157637Y0103256D01*
X0157606Y0103206D01*
X0157572Y0103159D01*
X0157535Y0103114D01*
X0157496Y0103071D01*
X0157453Y0103032D01*
X0157408Y0102995D01*
X0157361Y0102961D01*
X0157312Y0102930D01*
X0157260Y0102903D01*
X0157207Y0102879D01*
X0157153Y0102858D01*
X0157097Y0102841D01*
X0157040Y0102828D01*
X0156983Y0102819D01*
X0156925Y0102813D01*
X0156867Y0102811D01*
X0155090Y0100926D02*
X0155090Y0100037D01*
X0155089Y0100037D02*
X0155091Y0099987D01*
X0155096Y0099938D01*
X0155106Y0099889D01*
X0155119Y0099840D01*
X0155135Y0099793D01*
X0155155Y0099748D01*
X0155178Y0099704D01*
X0155205Y0099661D01*
X0155235Y0099621D01*
X0155267Y0099583D01*
X0155302Y0099548D01*
X0155340Y0099516D01*
X0155380Y0099486D01*
X0155423Y0099459D01*
X0155467Y0099436D01*
X0155512Y0099416D01*
X0155559Y0099400D01*
X0155608Y0099387D01*
X0155657Y0099377D01*
X0155706Y0099372D01*
X0155756Y0099370D01*
X0155756Y0106721D02*
X0157090Y0106721D01*
X0157090Y0106720D02*
X0157140Y0106722D01*
X0157189Y0106727D01*
X0157238Y0106737D01*
X0157287Y0106750D01*
X0157334Y0106766D01*
X0157379Y0106786D01*
X0157424Y0106809D01*
X0157466Y0106836D01*
X0157506Y0106866D01*
X0157544Y0106898D01*
X0157579Y0106933D01*
X0157611Y0106971D01*
X0157641Y0107011D01*
X0157668Y0107054D01*
X0157691Y0107098D01*
X0157711Y0107143D01*
X0157727Y0107190D01*
X0157740Y0107239D01*
X0157750Y0107288D01*
X0157755Y0107337D01*
X0157757Y0107387D01*
X0157756Y0107387D02*
X0157756Y0108276D01*
X0155756Y0106720D02*
X0155706Y0106722D01*
X0155657Y0106727D01*
X0155608Y0106737D01*
X0155559Y0106750D01*
X0155512Y0106766D01*
X0155467Y0106786D01*
X0155423Y0106809D01*
X0155380Y0106836D01*
X0155340Y0106866D01*
X0155302Y0106898D01*
X0155267Y0106933D01*
X0155235Y0106971D01*
X0155205Y0107011D01*
X0155178Y0107054D01*
X0155155Y0107098D01*
X0155135Y0107143D01*
X0155119Y0107190D01*
X0155106Y0107239D01*
X0155096Y0107288D01*
X0155091Y0107337D01*
X0155089Y0107387D01*
X0155090Y0107387D02*
X0155090Y0108276D01*
X0155090Y0110405D02*
X0159090Y0110405D01*
X0157756Y0112183D02*
X0156423Y0110405D01*
X0156978Y0111183D02*
X0155090Y0112183D01*
X0149145Y0121808D02*
X0149145Y0124475D01*
X0147590Y0129381D02*
X0147590Y0130492D01*
X0147592Y0130557D01*
X0147598Y0130621D01*
X0147607Y0130685D01*
X0147620Y0130748D01*
X0147637Y0130811D01*
X0147657Y0130872D01*
X0147681Y0130932D01*
X0147708Y0130991D01*
X0147739Y0131048D01*
X0147773Y0131103D01*
X0147810Y0131155D01*
X0147850Y0131206D01*
X0147893Y0131254D01*
X0147939Y0131300D01*
X0147987Y0131343D01*
X0148038Y0131383D01*
X0148090Y0131420D01*
X0148146Y0131454D01*
X0148202Y0131485D01*
X0148261Y0131512D01*
X0148321Y0131536D01*
X0148382Y0131556D01*
X0148445Y0131573D01*
X0148508Y0131586D01*
X0148572Y0131595D01*
X0148636Y0131601D01*
X0148701Y0131603D01*
X0150478Y0131603D01*
X0150543Y0131601D01*
X0150607Y0131595D01*
X0150671Y0131586D01*
X0150734Y0131573D01*
X0150797Y0131556D01*
X0150858Y0131536D01*
X0150918Y0131512D01*
X0150977Y0131485D01*
X0151033Y0131454D01*
X0151088Y0131420D01*
X0151141Y0131383D01*
X0151192Y0131343D01*
X0151240Y0131300D01*
X0151286Y0131254D01*
X0151329Y0131206D01*
X0151369Y0131155D01*
X0151406Y0131103D01*
X0151440Y0131048D01*
X0151471Y0130991D01*
X0151498Y0130932D01*
X0151522Y0130872D01*
X0151542Y0130811D01*
X0151559Y0130748D01*
X0151572Y0130685D01*
X0151581Y0130621D01*
X0151587Y0130557D01*
X0151589Y0130492D01*
X0151590Y0130492D02*
X0151590Y0129381D01*
X0147590Y0129381D01*
X0147590Y0134690D02*
X0147590Y0135690D01*
X0149590Y0135690D01*
X0149145Y0135690D02*
X0149145Y0134690D01*
X0149590Y0135690D02*
X0149640Y0135688D01*
X0149689Y0135683D01*
X0149738Y0135673D01*
X0149787Y0135660D01*
X0149834Y0135644D01*
X0149879Y0135624D01*
X0149924Y0135601D01*
X0149966Y0135574D01*
X0150006Y0135544D01*
X0150044Y0135512D01*
X0150079Y0135477D01*
X0150111Y0135439D01*
X0150141Y0135399D01*
X0150168Y0135357D01*
X0150191Y0135312D01*
X0150211Y0135267D01*
X0150227Y0135220D01*
X0150240Y0135171D01*
X0150250Y0135122D01*
X0150255Y0135073D01*
X0150257Y0135023D01*
X0150256Y0135023D02*
X0150256Y0134134D01*
X0149145Y0134690D02*
X0149143Y0134634D01*
X0149137Y0134579D01*
X0149127Y0134525D01*
X0149113Y0134471D01*
X0149096Y0134418D01*
X0149075Y0134367D01*
X0149050Y0134317D01*
X0149021Y0134269D01*
X0148990Y0134224D01*
X0148955Y0134181D01*
X0148917Y0134140D01*
X0148876Y0134102D01*
X0148833Y0134067D01*
X0148788Y0134036D01*
X0148740Y0134007D01*
X0148690Y0133982D01*
X0148639Y0133961D01*
X0148586Y0133944D01*
X0148532Y0133930D01*
X0148478Y0133920D01*
X0148423Y0133914D01*
X0148367Y0133912D01*
X0148311Y0133914D01*
X0148256Y0133920D01*
X0148202Y0133930D01*
X0148148Y0133944D01*
X0148095Y0133961D01*
X0148044Y0133982D01*
X0147994Y0134007D01*
X0147946Y0134036D01*
X0147901Y0134067D01*
X0147858Y0134102D01*
X0147817Y0134140D01*
X0147779Y0134181D01*
X0147744Y0134224D01*
X0147713Y0134269D01*
X0147684Y0134317D01*
X0147659Y0134367D01*
X0147638Y0134418D01*
X0147621Y0134471D01*
X0147607Y0134525D01*
X0147597Y0134579D01*
X0147591Y0134634D01*
X0147589Y0134690D01*
X0147590Y0138742D02*
X0150256Y0139631D01*
X0150256Y0137853D02*
X0147590Y0138742D01*
X0147590Y0141442D02*
X0150256Y0141442D01*
X0151367Y0141553D02*
X0151367Y0141331D01*
X0151590Y0141331D01*
X0151590Y0141553D01*
X0151367Y0141553D01*
X0149590Y0143362D02*
X0148256Y0143362D01*
X0148206Y0143364D01*
X0148157Y0143369D01*
X0148108Y0143379D01*
X0148059Y0143392D01*
X0148012Y0143408D01*
X0147967Y0143428D01*
X0147923Y0143451D01*
X0147880Y0143478D01*
X0147840Y0143508D01*
X0147802Y0143540D01*
X0147767Y0143575D01*
X0147735Y0143613D01*
X0147705Y0143653D01*
X0147678Y0143696D01*
X0147655Y0143740D01*
X0147635Y0143785D01*
X0147619Y0143832D01*
X0147606Y0143881D01*
X0147596Y0143930D01*
X0147591Y0143979D01*
X0147589Y0144029D01*
X0147590Y0144029D02*
X0147590Y0145140D01*
X0151590Y0145140D01*
X0150256Y0145140D02*
X0150256Y0144029D01*
X0150257Y0144029D02*
X0150255Y0143979D01*
X0150250Y0143930D01*
X0150240Y0143881D01*
X0150227Y0143832D01*
X0150211Y0143785D01*
X0150191Y0143740D01*
X0150168Y0143696D01*
X0150141Y0143653D01*
X0150111Y0143613D01*
X0150079Y0143575D01*
X0150044Y0143540D01*
X0150006Y0143508D01*
X0149966Y0143478D01*
X0149924Y0143451D01*
X0149879Y0143428D01*
X0149834Y0143408D01*
X0149787Y0143392D01*
X0149738Y0143379D01*
X0149689Y0143369D01*
X0149640Y0143364D01*
X0149590Y0143362D01*
X0151590Y0150096D02*
X0147590Y0150096D01*
X0147590Y0151874D01*
X0148256Y0153903D02*
X0150256Y0153903D01*
X0150256Y0155681D02*
X0147590Y0155681D01*
X0147590Y0154569D01*
X0147589Y0154569D02*
X0147591Y0154519D01*
X0147596Y0154470D01*
X0147606Y0154421D01*
X0147619Y0154372D01*
X0147635Y0154325D01*
X0147655Y0154280D01*
X0147678Y0154236D01*
X0147705Y0154193D01*
X0147735Y0154153D01*
X0147767Y0154115D01*
X0147802Y0154080D01*
X0147840Y0154048D01*
X0147880Y0154018D01*
X0147923Y0153991D01*
X0147967Y0153968D01*
X0148012Y0153948D01*
X0148059Y0153932D01*
X0148108Y0153919D01*
X0148157Y0153909D01*
X0148206Y0153904D01*
X0148256Y0153902D01*
X0148256Y0157956D02*
X0151590Y0157956D01*
X0150256Y0157511D02*
X0150256Y0158845D01*
X0150256Y0160653D02*
X0150256Y0162431D01*
X0147590Y0160653D01*
X0147590Y0162431D01*
X0148256Y0164403D02*
X0149367Y0164403D01*
X0148923Y0164403D02*
X0148923Y0166180D01*
X0149367Y0166180D01*
X0149367Y0166181D02*
X0149425Y0166179D01*
X0149483Y0166173D01*
X0149540Y0166164D01*
X0149597Y0166151D01*
X0149653Y0166134D01*
X0149707Y0166113D01*
X0149760Y0166089D01*
X0149812Y0166062D01*
X0149861Y0166031D01*
X0149908Y0165997D01*
X0149953Y0165960D01*
X0149996Y0165921D01*
X0150035Y0165878D01*
X0150072Y0165833D01*
X0150106Y0165786D01*
X0150137Y0165737D01*
X0150164Y0165685D01*
X0150188Y0165632D01*
X0150209Y0165578D01*
X0150226Y0165522D01*
X0150239Y0165465D01*
X0150248Y0165408D01*
X0150254Y0165350D01*
X0150256Y0165292D01*
X0150254Y0165234D01*
X0150248Y0165176D01*
X0150239Y0165119D01*
X0150226Y0165062D01*
X0150209Y0165006D01*
X0150188Y0164952D01*
X0150164Y0164899D01*
X0150137Y0164848D01*
X0150106Y0164798D01*
X0150072Y0164751D01*
X0150035Y0164706D01*
X0149996Y0164663D01*
X0149953Y0164624D01*
X0149908Y0164587D01*
X0149861Y0164553D01*
X0149812Y0164522D01*
X0149760Y0164495D01*
X0149707Y0164471D01*
X0149653Y0164450D01*
X0149597Y0164433D01*
X0149540Y0164420D01*
X0149483Y0164411D01*
X0149425Y0164405D01*
X0149367Y0164403D01*
X0148256Y0164402D02*
X0148206Y0164404D01*
X0148157Y0164409D01*
X0148108Y0164419D01*
X0148059Y0164432D01*
X0148012Y0164448D01*
X0147967Y0164468D01*
X0147923Y0164491D01*
X0147880Y0164518D01*
X0147840Y0164548D01*
X0147802Y0164580D01*
X0147767Y0164615D01*
X0147735Y0164653D01*
X0147705Y0164693D01*
X0147678Y0164736D01*
X0147655Y0164780D01*
X0147635Y0164825D01*
X0147619Y0164872D01*
X0147606Y0164921D01*
X0147596Y0164970D01*
X0147591Y0165019D01*
X0147589Y0165069D01*
X0147590Y0165069D02*
X0147590Y0166180D01*
X0147590Y0168498D02*
X0150256Y0168498D01*
X0150256Y0169832D01*
X0149812Y0169832D01*
X0147590Y0158845D02*
X0147590Y0158622D01*
X0147589Y0158622D02*
X0147591Y0158572D01*
X0147596Y0158523D01*
X0147606Y0158474D01*
X0147619Y0158425D01*
X0147635Y0158378D01*
X0147655Y0158333D01*
X0147678Y0158289D01*
X0147705Y0158246D01*
X0147735Y0158206D01*
X0147767Y0158168D01*
X0147802Y0158133D01*
X0147840Y0158101D01*
X0147880Y0158071D01*
X0147922Y0158044D01*
X0147967Y0158021D01*
X0148012Y0158001D01*
X0148059Y0157985D01*
X0148108Y0157972D01*
X0148157Y0157962D01*
X0148206Y0157957D01*
X0148256Y0157955D01*
X0118958Y0135617D02*
X0118962Y0135504D01*
X0118968Y0135390D01*
X0118979Y0135278D01*
X0118992Y0135165D01*
X0119009Y0135053D01*
X0119029Y0134941D01*
X0119053Y0134830D01*
X0119080Y0134720D01*
X0119110Y0134611D01*
X0119144Y0134502D01*
X0119181Y0134395D01*
X0121626Y0134950D02*
X0121623Y0135044D01*
X0121616Y0135137D01*
X0121606Y0135231D01*
X0121593Y0135323D01*
X0121576Y0135416D01*
X0121555Y0135507D01*
X0121532Y0135598D01*
X0121504Y0135688D01*
X0121474Y0135776D01*
X0121440Y0135864D01*
X0121403Y0135950D01*
X0121625Y0134950D02*
X0121624Y0134903D01*
X0121619Y0134857D01*
X0121610Y0134810D01*
X0121597Y0134765D01*
X0121581Y0134721D01*
X0121561Y0134678D01*
X0121538Y0134637D01*
X0121511Y0134599D01*
X0121482Y0134562D01*
X0121449Y0134528D01*
X0121414Y0134497D01*
X0121377Y0134468D01*
X0121337Y0134443D01*
X0121296Y0134421D01*
X0121252Y0134403D01*
X0121208Y0134388D01*
X0121162Y0134377D01*
X0121116Y0134370D01*
X0121069Y0134366D01*
X0121022Y0134367D01*
X0120975Y0134371D01*
X0120929Y0134379D01*
X0120883Y0134390D01*
X0120839Y0134406D01*
X0120796Y0134425D01*
X0120754Y0134447D01*
X0120715Y0134473D01*
X0120678Y0134502D01*
X0120643Y0134533D01*
X0120611Y0134568D01*
X0120582Y0134605D01*
X0120556Y0134644D01*
X0120533Y0134685D01*
X0120514Y0134728D01*
X0120070Y0135839D01*
X0120051Y0135882D01*
X0120028Y0135923D01*
X0120002Y0135962D01*
X0119973Y0135999D01*
X0119941Y0136034D01*
X0119906Y0136065D01*
X0119869Y0136094D01*
X0119830Y0136120D01*
X0119788Y0136142D01*
X0119745Y0136161D01*
X0119701Y0136177D01*
X0119655Y0136188D01*
X0119609Y0136196D01*
X0119562Y0136200D01*
X0119515Y0136201D01*
X0119468Y0136197D01*
X0119422Y0136190D01*
X0119376Y0136179D01*
X0119332Y0136164D01*
X0119288Y0136146D01*
X0119247Y0136124D01*
X0119207Y0136099D01*
X0119170Y0136070D01*
X0119135Y0136039D01*
X0119102Y0136005D01*
X0119073Y0135968D01*
X0119046Y0135930D01*
X0119023Y0135889D01*
X0119003Y0135846D01*
X0118987Y0135802D01*
X0118974Y0135757D01*
X0118965Y0135710D01*
X0118960Y0135664D01*
X0118959Y0135617D01*
X0118959Y0131533D02*
X0121625Y0130645D01*
X0121625Y0132422D02*
X0117625Y0131089D01*
X0117625Y0130645D01*
X0119848Y0128672D02*
X0120736Y0128672D01*
X0120794Y0128670D01*
X0120852Y0128664D01*
X0120909Y0128655D01*
X0120966Y0128642D01*
X0121022Y0128625D01*
X0121076Y0128604D01*
X0121129Y0128580D01*
X0121180Y0128553D01*
X0121230Y0128522D01*
X0121277Y0128488D01*
X0121322Y0128451D01*
X0121365Y0128412D01*
X0121404Y0128369D01*
X0121441Y0128324D01*
X0121475Y0128277D01*
X0121506Y0128228D01*
X0121533Y0128176D01*
X0121557Y0128123D01*
X0121578Y0128069D01*
X0121595Y0128013D01*
X0121608Y0127956D01*
X0121617Y0127899D01*
X0121623Y0127841D01*
X0121625Y0127783D01*
X0121623Y0127725D01*
X0121617Y0127667D01*
X0121608Y0127610D01*
X0121595Y0127553D01*
X0121578Y0127497D01*
X0121557Y0127443D01*
X0121533Y0127390D01*
X0121506Y0127339D01*
X0121475Y0127289D01*
X0121441Y0127242D01*
X0121404Y0127197D01*
X0121365Y0127154D01*
X0121322Y0127115D01*
X0121277Y0127078D01*
X0121230Y0127044D01*
X0121181Y0127013D01*
X0121129Y0126986D01*
X0121076Y0126962D01*
X0121022Y0126941D01*
X0120966Y0126924D01*
X0120909Y0126911D01*
X0120852Y0126902D01*
X0120794Y0126896D01*
X0120736Y0126894D01*
X0120736Y0126895D02*
X0119848Y0126895D01*
X0119848Y0126894D02*
X0119790Y0126896D01*
X0119732Y0126902D01*
X0119675Y0126911D01*
X0119618Y0126924D01*
X0119562Y0126941D01*
X0119508Y0126962D01*
X0119455Y0126986D01*
X0119404Y0127013D01*
X0119354Y0127044D01*
X0119307Y0127078D01*
X0119262Y0127115D01*
X0119219Y0127154D01*
X0119180Y0127197D01*
X0119143Y0127242D01*
X0119109Y0127289D01*
X0119078Y0127339D01*
X0119051Y0127390D01*
X0119027Y0127443D01*
X0119006Y0127497D01*
X0118989Y0127553D01*
X0118976Y0127610D01*
X0118967Y0127667D01*
X0118961Y0127725D01*
X0118959Y0127783D01*
X0118961Y0127841D01*
X0118967Y0127899D01*
X0118976Y0127956D01*
X0118989Y0128013D01*
X0119006Y0128069D01*
X0119027Y0128123D01*
X0119051Y0128176D01*
X0119078Y0128228D01*
X0119109Y0128277D01*
X0119143Y0128324D01*
X0119180Y0128369D01*
X0119219Y0128412D01*
X0119262Y0128451D01*
X0119307Y0128488D01*
X0119354Y0128522D01*
X0119404Y0128553D01*
X0119455Y0128580D01*
X0119508Y0128604D01*
X0119562Y0128625D01*
X0119618Y0128642D01*
X0119675Y0128655D01*
X0119732Y0128664D01*
X0119790Y0128670D01*
X0119848Y0128672D01*
X0118959Y0123850D02*
X0118961Y0123916D01*
X0118967Y0123981D01*
X0118977Y0124047D01*
X0118990Y0124111D01*
X0119007Y0124174D01*
X0119029Y0124237D01*
X0119053Y0124298D01*
X0119082Y0124357D01*
X0119113Y0124415D01*
X0119149Y0124471D01*
X0119187Y0124524D01*
X0119228Y0124575D01*
X0119273Y0124624D01*
X0119320Y0124670D01*
X0119370Y0124713D01*
X0119422Y0124753D01*
X0119477Y0124789D01*
X0119534Y0124823D01*
X0119592Y0124853D01*
X0119652Y0124880D01*
X0119714Y0124902D01*
X0119777Y0124922D01*
X0119841Y0124937D01*
X0119906Y0124949D01*
X0119971Y0124957D01*
X0120037Y0124961D01*
X0120103Y0124961D01*
X0120169Y0124957D01*
X0120234Y0124949D01*
X0120299Y0124937D01*
X0120363Y0124922D01*
X0120426Y0124902D01*
X0120488Y0124880D01*
X0120548Y0124853D01*
X0120606Y0124823D01*
X0120663Y0124789D01*
X0120718Y0124753D01*
X0120770Y0124713D01*
X0120820Y0124670D01*
X0120867Y0124624D01*
X0120912Y0124575D01*
X0120953Y0124524D01*
X0120991Y0124471D01*
X0121027Y0124415D01*
X0121058Y0124357D01*
X0121087Y0124298D01*
X0121111Y0124237D01*
X0121133Y0124174D01*
X0121150Y0124111D01*
X0121163Y0124047D01*
X0121173Y0123981D01*
X0121179Y0123916D01*
X0121181Y0123850D01*
X0121181Y0122739D01*
X0121181Y0123850D02*
X0121183Y0123908D01*
X0121189Y0123966D01*
X0121198Y0124023D01*
X0121211Y0124080D01*
X0121228Y0124136D01*
X0121249Y0124190D01*
X0121273Y0124243D01*
X0121300Y0124295D01*
X0121331Y0124344D01*
X0121365Y0124391D01*
X0121402Y0124436D01*
X0121441Y0124479D01*
X0121484Y0124518D01*
X0121529Y0124555D01*
X0121576Y0124589D01*
X0121626Y0124620D01*
X0121677Y0124647D01*
X0121730Y0124671D01*
X0121784Y0124692D01*
X0121840Y0124709D01*
X0121897Y0124722D01*
X0121954Y0124731D01*
X0122012Y0124737D01*
X0122070Y0124739D01*
X0122128Y0124737D01*
X0122186Y0124731D01*
X0122243Y0124722D01*
X0122300Y0124709D01*
X0122356Y0124692D01*
X0122410Y0124671D01*
X0122463Y0124647D01*
X0122515Y0124620D01*
X0122564Y0124589D01*
X0122611Y0124555D01*
X0122656Y0124518D01*
X0122699Y0124479D01*
X0122738Y0124436D01*
X0122775Y0124391D01*
X0122809Y0124344D01*
X0122840Y0124295D01*
X0122867Y0124243D01*
X0122891Y0124190D01*
X0122912Y0124136D01*
X0122929Y0124080D01*
X0122942Y0124023D01*
X0122951Y0123966D01*
X0122957Y0123908D01*
X0122959Y0123850D01*
X0122959Y0122739D01*
X0118959Y0122739D01*
X0118959Y0123850D01*
X0120514Y0120117D02*
X0120514Y0117450D01*
X0118959Y0115416D02*
X0118959Y0113638D01*
X0122959Y0113638D01*
X0122959Y0115416D01*
X0121181Y0114971D02*
X0121181Y0113638D01*
X0122959Y0111495D02*
X0122959Y0109272D01*
X0122959Y0110383D02*
X0118959Y0110383D01*
X0118959Y0106483D02*
X0122959Y0106483D01*
X0122959Y0105372D02*
X0122959Y0107595D01*
X0115459Y0105114D02*
X0115459Y0104225D01*
X0115457Y0104167D01*
X0115451Y0104109D01*
X0115442Y0104052D01*
X0115429Y0103995D01*
X0115412Y0103939D01*
X0115391Y0103885D01*
X0115367Y0103832D01*
X0115340Y0103780D01*
X0115309Y0103731D01*
X0115275Y0103684D01*
X0115238Y0103639D01*
X0115199Y0103596D01*
X0115156Y0103557D01*
X0115111Y0103520D01*
X0115064Y0103486D01*
X0115014Y0103455D01*
X0114963Y0103428D01*
X0114910Y0103404D01*
X0114856Y0103383D01*
X0114800Y0103366D01*
X0114743Y0103353D01*
X0114686Y0103344D01*
X0114628Y0103338D01*
X0114570Y0103336D01*
X0112348Y0103336D01*
X0112290Y0103338D01*
X0112232Y0103344D01*
X0112175Y0103353D01*
X0112118Y0103366D01*
X0112062Y0103383D01*
X0112008Y0103404D01*
X0111955Y0103428D01*
X0111904Y0103455D01*
X0111854Y0103486D01*
X0111807Y0103520D01*
X0111762Y0103557D01*
X0111719Y0103596D01*
X0111680Y0103639D01*
X0111643Y0103684D01*
X0111609Y0103731D01*
X0111578Y0103781D01*
X0111551Y0103832D01*
X0111527Y0103885D01*
X0111506Y0103939D01*
X0111489Y0103995D01*
X0111476Y0104052D01*
X0111467Y0104109D01*
X0111461Y0104167D01*
X0111459Y0104225D01*
X0111459Y0105114D01*
X0111459Y0107768D02*
X0111459Y0108768D01*
X0113459Y0108768D01*
X0113014Y0108768D02*
X0113014Y0107768D01*
X0113459Y0108769D02*
X0113509Y0108767D01*
X0113558Y0108762D01*
X0113607Y0108752D01*
X0113656Y0108739D01*
X0113703Y0108723D01*
X0113748Y0108703D01*
X0113793Y0108680D01*
X0113835Y0108653D01*
X0113875Y0108623D01*
X0113913Y0108591D01*
X0113948Y0108556D01*
X0113980Y0108518D01*
X0114010Y0108478D01*
X0114037Y0108436D01*
X0114060Y0108391D01*
X0114080Y0108346D01*
X0114096Y0108299D01*
X0114109Y0108250D01*
X0114119Y0108201D01*
X0114124Y0108152D01*
X0114126Y0108102D01*
X0114125Y0108102D02*
X0114125Y0107213D01*
X0113014Y0107768D02*
X0113012Y0107712D01*
X0113006Y0107657D01*
X0112996Y0107603D01*
X0112982Y0107549D01*
X0112965Y0107496D01*
X0112944Y0107445D01*
X0112919Y0107395D01*
X0112890Y0107347D01*
X0112859Y0107302D01*
X0112824Y0107259D01*
X0112786Y0107218D01*
X0112745Y0107180D01*
X0112702Y0107145D01*
X0112657Y0107114D01*
X0112609Y0107085D01*
X0112559Y0107060D01*
X0112508Y0107039D01*
X0112455Y0107022D01*
X0112401Y0107008D01*
X0112347Y0106998D01*
X0112292Y0106992D01*
X0112236Y0106990D01*
X0112180Y0106992D01*
X0112125Y0106998D01*
X0112071Y0107008D01*
X0112017Y0107022D01*
X0111964Y0107039D01*
X0111913Y0107060D01*
X0111863Y0107085D01*
X0111815Y0107114D01*
X0111770Y0107145D01*
X0111727Y0107180D01*
X0111686Y0107218D01*
X0111648Y0107259D01*
X0111613Y0107302D01*
X0111582Y0107347D01*
X0111553Y0107395D01*
X0111528Y0107445D01*
X0111507Y0107496D01*
X0111490Y0107549D01*
X0111476Y0107603D01*
X0111466Y0107657D01*
X0111460Y0107712D01*
X0111458Y0107768D01*
X0111459Y0111272D02*
X0111459Y0112383D01*
X0111458Y0112383D02*
X0111460Y0112433D01*
X0111465Y0112482D01*
X0111475Y0112531D01*
X0111488Y0112580D01*
X0111504Y0112627D01*
X0111524Y0112672D01*
X0111547Y0112717D01*
X0111574Y0112759D01*
X0111604Y0112799D01*
X0111636Y0112837D01*
X0111671Y0112872D01*
X0111709Y0112904D01*
X0111749Y0112934D01*
X0111792Y0112961D01*
X0111836Y0112984D01*
X0111881Y0113004D01*
X0111928Y0113020D01*
X0111977Y0113033D01*
X0112026Y0113043D01*
X0112075Y0113048D01*
X0112125Y0113050D01*
X0113459Y0113050D01*
X0113509Y0113048D01*
X0113558Y0113043D01*
X0113607Y0113033D01*
X0113656Y0113020D01*
X0113703Y0113004D01*
X0113748Y0112984D01*
X0113793Y0112961D01*
X0113835Y0112934D01*
X0113875Y0112904D01*
X0113913Y0112872D01*
X0113948Y0112837D01*
X0113980Y0112799D01*
X0114010Y0112759D01*
X0114037Y0112717D01*
X0114060Y0112672D01*
X0114080Y0112627D01*
X0114096Y0112580D01*
X0114109Y0112531D01*
X0114119Y0112482D01*
X0114124Y0112433D01*
X0114126Y0112383D01*
X0114125Y0112383D02*
X0114125Y0111272D01*
X0110125Y0111272D01*
X0114126Y0115687D02*
X0114123Y0115781D01*
X0114116Y0115874D01*
X0114106Y0115968D01*
X0114093Y0116060D01*
X0114076Y0116153D01*
X0114055Y0116244D01*
X0114032Y0116335D01*
X0114004Y0116425D01*
X0113974Y0116513D01*
X0113940Y0116601D01*
X0113903Y0116687D01*
X0114125Y0115687D02*
X0114124Y0115640D01*
X0114119Y0115594D01*
X0114110Y0115547D01*
X0114097Y0115502D01*
X0114081Y0115458D01*
X0114061Y0115415D01*
X0114038Y0115374D01*
X0114011Y0115336D01*
X0113982Y0115299D01*
X0113949Y0115265D01*
X0113914Y0115234D01*
X0113877Y0115205D01*
X0113837Y0115180D01*
X0113796Y0115158D01*
X0113752Y0115140D01*
X0113708Y0115125D01*
X0113662Y0115114D01*
X0113616Y0115107D01*
X0113569Y0115103D01*
X0113522Y0115104D01*
X0113475Y0115108D01*
X0113429Y0115116D01*
X0113383Y0115127D01*
X0113339Y0115143D01*
X0113296Y0115162D01*
X0113254Y0115184D01*
X0113215Y0115210D01*
X0113178Y0115239D01*
X0113143Y0115270D01*
X0113111Y0115305D01*
X0113082Y0115342D01*
X0113056Y0115381D01*
X0113033Y0115422D01*
X0113014Y0115465D01*
X0112570Y0116576D01*
X0112551Y0116619D01*
X0112528Y0116660D01*
X0112502Y0116699D01*
X0112473Y0116736D01*
X0112441Y0116771D01*
X0112406Y0116802D01*
X0112369Y0116831D01*
X0112330Y0116857D01*
X0112288Y0116879D01*
X0112245Y0116898D01*
X0112201Y0116914D01*
X0112155Y0116925D01*
X0112109Y0116933D01*
X0112062Y0116937D01*
X0112015Y0116938D01*
X0111968Y0116934D01*
X0111922Y0116927D01*
X0111876Y0116916D01*
X0111832Y0116901D01*
X0111788Y0116883D01*
X0111747Y0116861D01*
X0111707Y0116836D01*
X0111670Y0116807D01*
X0111635Y0116776D01*
X0111602Y0116742D01*
X0111573Y0116705D01*
X0111546Y0116667D01*
X0111523Y0116626D01*
X0111503Y0116583D01*
X0111487Y0116539D01*
X0111474Y0116494D01*
X0111465Y0116447D01*
X0111460Y0116401D01*
X0111459Y0116354D01*
X0112125Y0119034D02*
X0115459Y0119034D01*
X0114125Y0118590D02*
X0114125Y0119923D01*
X0112125Y0119034D02*
X0112075Y0119036D01*
X0112026Y0119041D01*
X0111977Y0119051D01*
X0111928Y0119064D01*
X0111881Y0119080D01*
X0111836Y0119100D01*
X0111791Y0119123D01*
X0111749Y0119150D01*
X0111709Y0119180D01*
X0111671Y0119212D01*
X0111636Y0119247D01*
X0111604Y0119285D01*
X0111574Y0119325D01*
X0111547Y0119368D01*
X0111524Y0119412D01*
X0111504Y0119457D01*
X0111488Y0119504D01*
X0111475Y0119553D01*
X0111465Y0119602D01*
X0111460Y0119651D01*
X0111458Y0119701D01*
X0111459Y0119701D02*
X0111459Y0119923D01*
X0112348Y0121881D02*
X0113236Y0121881D01*
X0113294Y0121883D01*
X0113352Y0121889D01*
X0113409Y0121898D01*
X0113466Y0121911D01*
X0113522Y0121928D01*
X0113576Y0121949D01*
X0113629Y0121973D01*
X0113681Y0122000D01*
X0113730Y0122031D01*
X0113777Y0122065D01*
X0113822Y0122102D01*
X0113865Y0122141D01*
X0113904Y0122184D01*
X0113941Y0122229D01*
X0113975Y0122276D01*
X0114006Y0122326D01*
X0114033Y0122377D01*
X0114057Y0122430D01*
X0114078Y0122484D01*
X0114095Y0122540D01*
X0114108Y0122597D01*
X0114117Y0122654D01*
X0114123Y0122712D01*
X0114125Y0122770D01*
X0114123Y0122828D01*
X0114117Y0122886D01*
X0114108Y0122943D01*
X0114095Y0123000D01*
X0114078Y0123056D01*
X0114057Y0123110D01*
X0114033Y0123163D01*
X0114006Y0123215D01*
X0113975Y0123264D01*
X0113941Y0123311D01*
X0113904Y0123356D01*
X0113865Y0123399D01*
X0113822Y0123438D01*
X0113777Y0123475D01*
X0113730Y0123509D01*
X0113680Y0123540D01*
X0113629Y0123567D01*
X0113576Y0123591D01*
X0113522Y0123612D01*
X0113466Y0123629D01*
X0113409Y0123642D01*
X0113352Y0123651D01*
X0113294Y0123657D01*
X0113236Y0123659D01*
X0112348Y0123659D01*
X0112290Y0123657D01*
X0112232Y0123651D01*
X0112175Y0123642D01*
X0112118Y0123629D01*
X0112062Y0123612D01*
X0112008Y0123591D01*
X0111955Y0123567D01*
X0111904Y0123540D01*
X0111854Y0123509D01*
X0111807Y0123475D01*
X0111762Y0123438D01*
X0111719Y0123399D01*
X0111680Y0123356D01*
X0111643Y0123311D01*
X0111609Y0123264D01*
X0111578Y0123215D01*
X0111551Y0123163D01*
X0111527Y0123110D01*
X0111506Y0123056D01*
X0111489Y0123000D01*
X0111476Y0122943D01*
X0111467Y0122886D01*
X0111461Y0122828D01*
X0111459Y0122770D01*
X0111461Y0122712D01*
X0111467Y0122654D01*
X0111476Y0122597D01*
X0111489Y0122540D01*
X0111506Y0122484D01*
X0111527Y0122430D01*
X0111551Y0122377D01*
X0111578Y0122326D01*
X0111609Y0122276D01*
X0111643Y0122229D01*
X0111680Y0122184D01*
X0111719Y0122141D01*
X0111762Y0122102D01*
X0111807Y0122065D01*
X0111854Y0122031D01*
X0111904Y0122000D01*
X0111955Y0121973D01*
X0112008Y0121949D01*
X0112062Y0121928D01*
X0112118Y0121911D01*
X0112175Y0121898D01*
X0112232Y0121889D01*
X0112290Y0121883D01*
X0112348Y0121881D01*
X0111459Y0125931D02*
X0114125Y0125931D01*
X0114125Y0127042D01*
X0114126Y0127042D02*
X0114124Y0127092D01*
X0114119Y0127141D01*
X0114109Y0127190D01*
X0114096Y0127239D01*
X0114080Y0127286D01*
X0114060Y0127331D01*
X0114037Y0127376D01*
X0114010Y0127418D01*
X0113980Y0127458D01*
X0113948Y0127496D01*
X0113913Y0127531D01*
X0113875Y0127563D01*
X0113835Y0127593D01*
X0113793Y0127620D01*
X0113748Y0127643D01*
X0113703Y0127663D01*
X0113656Y0127679D01*
X0113607Y0127692D01*
X0113558Y0127702D01*
X0113509Y0127707D01*
X0113459Y0127709D01*
X0111459Y0127709D01*
X0112125Y0129981D02*
X0113236Y0129981D01*
X0112792Y0129981D02*
X0112792Y0131759D01*
X0113236Y0131759D01*
X0113294Y0131757D01*
X0113352Y0131751D01*
X0113409Y0131742D01*
X0113466Y0131729D01*
X0113522Y0131712D01*
X0113576Y0131691D01*
X0113629Y0131667D01*
X0113680Y0131640D01*
X0113730Y0131609D01*
X0113777Y0131575D01*
X0113822Y0131538D01*
X0113865Y0131499D01*
X0113904Y0131456D01*
X0113941Y0131411D01*
X0113975Y0131364D01*
X0114006Y0131315D01*
X0114033Y0131263D01*
X0114057Y0131210D01*
X0114078Y0131156D01*
X0114095Y0131100D01*
X0114108Y0131043D01*
X0114117Y0130986D01*
X0114123Y0130928D01*
X0114125Y0130870D01*
X0114123Y0130812D01*
X0114117Y0130754D01*
X0114108Y0130697D01*
X0114095Y0130640D01*
X0114078Y0130584D01*
X0114057Y0130530D01*
X0114033Y0130477D01*
X0114006Y0130426D01*
X0113975Y0130376D01*
X0113941Y0130329D01*
X0113904Y0130284D01*
X0113865Y0130241D01*
X0113822Y0130202D01*
X0113777Y0130165D01*
X0113730Y0130131D01*
X0113681Y0130100D01*
X0113629Y0130073D01*
X0113576Y0130049D01*
X0113522Y0130028D01*
X0113466Y0130011D01*
X0113409Y0129998D01*
X0113352Y0129989D01*
X0113294Y0129983D01*
X0113236Y0129981D01*
X0112125Y0129981D02*
X0112075Y0129983D01*
X0112026Y0129988D01*
X0111977Y0129998D01*
X0111928Y0130011D01*
X0111881Y0130027D01*
X0111836Y0130047D01*
X0111792Y0130070D01*
X0111749Y0130097D01*
X0111709Y0130127D01*
X0111671Y0130159D01*
X0111636Y0130194D01*
X0111604Y0130232D01*
X0111574Y0130272D01*
X0111547Y0130315D01*
X0111524Y0130359D01*
X0111504Y0130404D01*
X0111488Y0130451D01*
X0111475Y0130500D01*
X0111465Y0130549D01*
X0111460Y0130598D01*
X0111458Y0130648D01*
X0111459Y0130648D02*
X0111459Y0131759D01*
X0111459Y0136359D02*
X0111459Y0138581D01*
X0111459Y0136359D02*
X0113681Y0138248D01*
X0115459Y0137581D02*
X0115457Y0137511D01*
X0115451Y0137441D01*
X0115442Y0137371D01*
X0115428Y0137302D01*
X0115411Y0137234D01*
X0115390Y0137167D01*
X0115366Y0137101D01*
X0115338Y0137037D01*
X0115307Y0136974D01*
X0115272Y0136913D01*
X0115233Y0136854D01*
X0115192Y0136797D01*
X0115148Y0136743D01*
X0115101Y0136691D01*
X0115050Y0136641D01*
X0114998Y0136595D01*
X0114943Y0136551D01*
X0114885Y0136511D01*
X0114826Y0136474D01*
X0114764Y0136440D01*
X0114701Y0136409D01*
X0114636Y0136382D01*
X0114570Y0136359D01*
X0113681Y0138248D02*
X0113725Y0138291D01*
X0113772Y0138333D01*
X0113821Y0138371D01*
X0113872Y0138406D01*
X0113925Y0138439D01*
X0113980Y0138468D01*
X0114036Y0138494D01*
X0114094Y0138517D01*
X0114153Y0138536D01*
X0114213Y0138552D01*
X0114274Y0138565D01*
X0114335Y0138574D01*
X0114397Y0138579D01*
X0114459Y0138581D01*
X0114519Y0138579D01*
X0114580Y0138574D01*
X0114639Y0138565D01*
X0114698Y0138552D01*
X0114757Y0138536D01*
X0114814Y0138516D01*
X0114869Y0138493D01*
X0114924Y0138466D01*
X0114976Y0138437D01*
X0115027Y0138404D01*
X0115076Y0138368D01*
X0115122Y0138330D01*
X0115166Y0138288D01*
X0115208Y0138244D01*
X0115246Y0138198D01*
X0115282Y0138149D01*
X0115315Y0138098D01*
X0115344Y0138046D01*
X0115371Y0137991D01*
X0115394Y0137936D01*
X0115414Y0137879D01*
X0115430Y0137820D01*
X0115443Y0137761D01*
X0115452Y0137702D01*
X0115457Y0137641D01*
X0115459Y0137581D01*
X0113459Y0143081D02*
X0113352Y0143079D01*
X0113246Y0143074D01*
X0113139Y0143065D01*
X0113033Y0143053D01*
X0112927Y0143038D01*
X0112822Y0143019D01*
X0112718Y0142997D01*
X0112614Y0142971D01*
X0112511Y0142942D01*
X0112410Y0142910D01*
X0112309Y0142874D01*
X0112210Y0142835D01*
X0112111Y0142793D01*
X0112015Y0142748D01*
X0112014Y0142748D02*
X0111962Y0142727D01*
X0111910Y0142704D01*
X0111860Y0142676D01*
X0111813Y0142646D01*
X0111767Y0142612D01*
X0111724Y0142575D01*
X0111684Y0142535D01*
X0111647Y0142493D01*
X0111612Y0142448D01*
X0111581Y0142401D01*
X0111553Y0142351D01*
X0111528Y0142300D01*
X0111507Y0142248D01*
X0111490Y0142194D01*
X0111477Y0142139D01*
X0111467Y0142083D01*
X0111461Y0142027D01*
X0111459Y0141970D01*
X0111461Y0141913D01*
X0111467Y0141857D01*
X0111477Y0141801D01*
X0111490Y0141746D01*
X0111507Y0141692D01*
X0111528Y0141640D01*
X0111553Y0141589D01*
X0111581Y0141539D01*
X0111612Y0141492D01*
X0111647Y0141447D01*
X0111684Y0141405D01*
X0111724Y0141365D01*
X0111767Y0141328D01*
X0111813Y0141294D01*
X0111860Y0141264D01*
X0111910Y0141236D01*
X0111961Y0141213D01*
X0112014Y0141192D01*
X0112348Y0141081D02*
X0114570Y0142859D01*
X0114904Y0142748D02*
X0114956Y0142727D01*
X0115008Y0142704D01*
X0115058Y0142676D01*
X0115105Y0142646D01*
X0115151Y0142612D01*
X0115194Y0142575D01*
X0115234Y0142535D01*
X0115271Y0142493D01*
X0115306Y0142448D01*
X0115337Y0142401D01*
X0115365Y0142351D01*
X0115390Y0142300D01*
X0115411Y0142248D01*
X0115428Y0142194D01*
X0115441Y0142139D01*
X0115451Y0142083D01*
X0115457Y0142027D01*
X0115459Y0141970D01*
X0115458Y0141970D02*
X0115456Y0141913D01*
X0115450Y0141857D01*
X0115440Y0141801D01*
X0115427Y0141746D01*
X0115410Y0141692D01*
X0115389Y0141640D01*
X0115364Y0141589D01*
X0115336Y0141539D01*
X0115305Y0141492D01*
X0115270Y0141447D01*
X0115233Y0141405D01*
X0115193Y0141365D01*
X0115150Y0141328D01*
X0115104Y0141294D01*
X0115057Y0141264D01*
X0115007Y0141236D01*
X0114955Y0141213D01*
X0114903Y0141192D01*
X0114903Y0142748D02*
X0114807Y0142793D01*
X0114708Y0142835D01*
X0114609Y0142874D01*
X0114508Y0142909D01*
X0114407Y0142942D01*
X0114304Y0142971D01*
X0114200Y0142997D01*
X0114096Y0143019D01*
X0113991Y0143038D01*
X0113885Y0143053D01*
X0113779Y0143065D01*
X0113672Y0143074D01*
X0113566Y0143079D01*
X0113459Y0143081D01*
X0113459Y0140859D02*
X0113566Y0140861D01*
X0113672Y0140866D01*
X0113779Y0140875D01*
X0113885Y0140887D01*
X0113991Y0140902D01*
X0114096Y0140921D01*
X0114200Y0140943D01*
X0114304Y0140969D01*
X0114407Y0140998D01*
X0114508Y0141030D01*
X0114609Y0141066D01*
X0114708Y0141105D01*
X0114807Y0141147D01*
X0114903Y0141192D01*
X0113459Y0140859D02*
X0113352Y0140861D01*
X0113246Y0140866D01*
X0113139Y0140875D01*
X0113033Y0140887D01*
X0112927Y0140902D01*
X0112822Y0140921D01*
X0112718Y0140943D01*
X0112614Y0140969D01*
X0112511Y0140998D01*
X0112410Y0141030D01*
X0112309Y0141066D01*
X0112210Y0141105D01*
X0112111Y0141147D01*
X0112015Y0141192D01*
X0111459Y0145359D02*
X0111459Y0147581D01*
X0111459Y0146470D02*
X0115459Y0146470D01*
X0114570Y0145359D01*
X0114348Y0149859D02*
X0114125Y0149859D01*
X0114067Y0149861D01*
X0114009Y0149867D01*
X0113952Y0149876D01*
X0113895Y0149889D01*
X0113839Y0149906D01*
X0113785Y0149927D01*
X0113732Y0149951D01*
X0113681Y0149978D01*
X0113631Y0150009D01*
X0113584Y0150043D01*
X0113539Y0150080D01*
X0113496Y0150119D01*
X0113457Y0150162D01*
X0113420Y0150207D01*
X0113386Y0150254D01*
X0113355Y0150303D01*
X0113328Y0150355D01*
X0113304Y0150408D01*
X0113283Y0150462D01*
X0113266Y0150518D01*
X0113253Y0150575D01*
X0113244Y0150632D01*
X0113238Y0150690D01*
X0113236Y0150748D01*
X0113236Y0152081D01*
X0114348Y0152081D01*
X0114414Y0152079D01*
X0114479Y0152073D01*
X0114545Y0152063D01*
X0114609Y0152050D01*
X0114672Y0152033D01*
X0114735Y0152011D01*
X0114796Y0151987D01*
X0114855Y0151958D01*
X0114913Y0151927D01*
X0114969Y0151891D01*
X0115022Y0151853D01*
X0115073Y0151812D01*
X0115122Y0151767D01*
X0115168Y0151720D01*
X0115211Y0151670D01*
X0115251Y0151618D01*
X0115287Y0151563D01*
X0115321Y0151506D01*
X0115351Y0151448D01*
X0115378Y0151388D01*
X0115400Y0151326D01*
X0115420Y0151263D01*
X0115435Y0151199D01*
X0115447Y0151134D01*
X0115455Y0151069D01*
X0115459Y0151003D01*
X0115459Y0150937D01*
X0115455Y0150871D01*
X0115447Y0150806D01*
X0115435Y0150741D01*
X0115420Y0150677D01*
X0115400Y0150614D01*
X0115378Y0150552D01*
X0115351Y0150492D01*
X0115321Y0150434D01*
X0115287Y0150377D01*
X0115251Y0150322D01*
X0115211Y0150270D01*
X0115168Y0150220D01*
X0115122Y0150173D01*
X0115073Y0150128D01*
X0115022Y0150087D01*
X0114969Y0150049D01*
X0114913Y0150013D01*
X0114855Y0149982D01*
X0114796Y0149953D01*
X0114735Y0149929D01*
X0114672Y0149907D01*
X0114609Y0149890D01*
X0114545Y0149877D01*
X0114479Y0149867D01*
X0114414Y0149861D01*
X0114348Y0149859D01*
X0113236Y0152081D02*
X0113154Y0152079D01*
X0113072Y0152073D01*
X0112990Y0152064D01*
X0112909Y0152051D01*
X0112829Y0152034D01*
X0112749Y0152013D01*
X0112671Y0151989D01*
X0112594Y0151961D01*
X0112518Y0151930D01*
X0112443Y0151895D01*
X0112371Y0151856D01*
X0112300Y0151815D01*
X0112231Y0151770D01*
X0112165Y0151722D01*
X0112100Y0151671D01*
X0112038Y0151617D01*
X0111979Y0151560D01*
X0111922Y0151501D01*
X0111868Y0151439D01*
X0111817Y0151374D01*
X0111769Y0151308D01*
X0111724Y0151239D01*
X0111683Y0151168D01*
X0111644Y0151096D01*
X0111609Y0151021D01*
X0111578Y0150945D01*
X0111550Y0150868D01*
X0111526Y0150790D01*
X0111505Y0150710D01*
X0111488Y0150630D01*
X0111475Y0150549D01*
X0111466Y0150467D01*
X0111460Y0150385D01*
X0111458Y0150303D01*
X0111458Y0116353D02*
X0111462Y0116240D01*
X0111468Y0116126D01*
X0111479Y0116014D01*
X0111492Y0115901D01*
X0111509Y0115789D01*
X0111529Y0115677D01*
X0111553Y0115566D01*
X0111580Y0115456D01*
X0111610Y0115347D01*
X0111644Y0115238D01*
X0111681Y0115131D01*
X0111459Y0099002D02*
X0111459Y0097225D01*
X0115459Y0097225D01*
X0115459Y0099002D01*
X0113681Y0098558D02*
X0113681Y0097225D01*
X0115459Y0095064D02*
X0115459Y0094175D01*
X0115457Y0094117D01*
X0115451Y0094059D01*
X0115442Y0094002D01*
X0115429Y0093945D01*
X0115412Y0093889D01*
X0115391Y0093835D01*
X0115367Y0093782D01*
X0115340Y0093730D01*
X0115309Y0093681D01*
X0115275Y0093634D01*
X0115238Y0093589D01*
X0115199Y0093546D01*
X0115156Y0093507D01*
X0115111Y0093470D01*
X0115064Y0093436D01*
X0115014Y0093405D01*
X0114963Y0093378D01*
X0114910Y0093354D01*
X0114856Y0093333D01*
X0114800Y0093316D01*
X0114743Y0093303D01*
X0114686Y0093294D01*
X0114628Y0093288D01*
X0114570Y0093286D01*
X0112348Y0093286D01*
X0112290Y0093288D01*
X0112232Y0093294D01*
X0112175Y0093303D01*
X0112118Y0093316D01*
X0112062Y0093333D01*
X0112008Y0093354D01*
X0111955Y0093378D01*
X0111904Y0093405D01*
X0111854Y0093436D01*
X0111807Y0093470D01*
X0111762Y0093507D01*
X0111719Y0093546D01*
X0111680Y0093589D01*
X0111643Y0093634D01*
X0111609Y0093681D01*
X0111578Y0093731D01*
X0111551Y0093782D01*
X0111527Y0093835D01*
X0111506Y0093889D01*
X0111489Y0093945D01*
X0111476Y0094002D01*
X0111467Y0094059D01*
X0111461Y0094117D01*
X0111459Y0094175D01*
X0111459Y0095064D01*
X0111459Y0091352D02*
X0111459Y0089575D01*
X0115459Y0089575D01*
X0115459Y0091352D01*
X0113681Y0090908D02*
X0113681Y0089575D01*
M02*
