G75*
%MOIN*%
%OFA0B0*%
%FSLAX25Y25*%
%IPPOS*%
%LPD*%
%AMOC8*
5,1,8,0,0,1.08239X$1,22.5*
%
%ADD10C,0.05131*%
%ADD11C,0.06422*%
%ADD12R,0.06422X0.06422*%
%ADD13C,0.07493*%
%ADD14C,0.09800*%
%ADD15C,0.10250*%
%ADD16C,0.08200*%
%ADD17C,0.03778*%
D10*
X0094144Y0089387D03*
X0111861Y0089387D03*
D11*
X0106939Y0097655D03*
X0099065Y0097655D03*
X0089223Y0097655D03*
D12*
X0116782Y0097655D03*
D13*
X0125443Y0092734D02*
X0125443Y0086041D01*
X0080561Y0086041D02*
X0080561Y0092734D01*
D14*
X0047002Y0250817D03*
D15*
X0037002Y0260817D03*
X0037002Y0240817D03*
X0057002Y0240817D03*
X0057002Y0260817D03*
D16*
X0038602Y0082017D03*
X0038602Y0107617D03*
X0056402Y0107617D03*
X0056402Y0082017D03*
X0040002Y0162817D03*
X0040002Y0172817D03*
X0040002Y0182817D03*
X0040002Y0192817D03*
X0040002Y0202817D03*
X0040002Y0212817D03*
X0040002Y0222817D03*
D17*
X0061252Y0211567D03*
X0065102Y0211917D03*
X0067402Y0235717D03*
X0091102Y0225517D03*
X0109502Y0231717D03*
X0115981Y0207787D03*
X0116502Y0196817D03*
X0097002Y0161317D03*
X0103002Y0157817D03*
X0110502Y0130317D03*
X0104002Y0118317D03*
X0100002Y0110817D03*
X0081602Y0110017D03*
X0073502Y0104817D03*
X0061502Y0145917D03*
X0050602Y0166217D03*
X0108842Y0262156D03*
M02*
