G75*
%MOIN*%
%OFA0B0*%
%FSLAX25Y25*%
%IPPOS*%
%LPD*%
%AMOC8*
5,1,8,0,0,1.08239X$1,22.5*
%
%ADD10C,0.01000*%
%ADD11C,0.00512*%
%ADD12C,0.00300*%
%ADD13C,0.00800*%
%ADD14C,0.00600*%
%ADD15C,0.00500*%
%ADD16C,0.00200*%
%ADD17C,0.00591*%
%ADD18C,0.01969*%
%ADD19C,0.00000*%
%ADD20C,0.00100*%
D10*
X0027002Y0071817D02*
X0027002Y0270317D01*
X0140002Y0270317D01*
X0140002Y0071817D01*
X0127002Y0071817D01*
X0127002Y0019317D01*
X0079502Y0019317D01*
X0079502Y0071817D01*
X0027002Y0071817D01*
X0034002Y0128817D02*
X0034004Y0128861D01*
X0034010Y0128905D01*
X0034020Y0128948D01*
X0034033Y0128990D01*
X0034050Y0129031D01*
X0034071Y0129070D01*
X0034095Y0129107D01*
X0034122Y0129142D01*
X0034152Y0129174D01*
X0034185Y0129204D01*
X0034221Y0129230D01*
X0034258Y0129254D01*
X0034298Y0129273D01*
X0034339Y0129290D01*
X0034382Y0129302D01*
X0034425Y0129311D01*
X0034469Y0129316D01*
X0034513Y0129317D01*
X0034557Y0129314D01*
X0034601Y0129307D01*
X0034644Y0129296D01*
X0034686Y0129282D01*
X0034726Y0129264D01*
X0034765Y0129242D01*
X0034801Y0129218D01*
X0034835Y0129190D01*
X0034867Y0129159D01*
X0034896Y0129125D01*
X0034922Y0129089D01*
X0034944Y0129051D01*
X0034963Y0129011D01*
X0034978Y0128969D01*
X0034990Y0128927D01*
X0034998Y0128883D01*
X0035002Y0128839D01*
X0035002Y0128795D01*
X0034998Y0128751D01*
X0034990Y0128707D01*
X0034978Y0128665D01*
X0034963Y0128623D01*
X0034944Y0128583D01*
X0034922Y0128545D01*
X0034896Y0128509D01*
X0034867Y0128475D01*
X0034835Y0128444D01*
X0034801Y0128416D01*
X0034765Y0128392D01*
X0034726Y0128370D01*
X0034686Y0128352D01*
X0034644Y0128338D01*
X0034601Y0128327D01*
X0034557Y0128320D01*
X0034513Y0128317D01*
X0034469Y0128318D01*
X0034425Y0128323D01*
X0034382Y0128332D01*
X0034339Y0128344D01*
X0034298Y0128361D01*
X0034258Y0128380D01*
X0034221Y0128404D01*
X0034185Y0128430D01*
X0034152Y0128460D01*
X0034122Y0128492D01*
X0034095Y0128527D01*
X0034071Y0128564D01*
X0034050Y0128603D01*
X0034033Y0128644D01*
X0034020Y0128686D01*
X0034010Y0128729D01*
X0034004Y0128773D01*
X0034002Y0128817D01*
X0070002Y0157317D02*
X0070004Y0157361D01*
X0070010Y0157405D01*
X0070020Y0157448D01*
X0070033Y0157490D01*
X0070050Y0157531D01*
X0070071Y0157570D01*
X0070095Y0157607D01*
X0070122Y0157642D01*
X0070152Y0157674D01*
X0070185Y0157704D01*
X0070221Y0157730D01*
X0070258Y0157754D01*
X0070298Y0157773D01*
X0070339Y0157790D01*
X0070382Y0157802D01*
X0070425Y0157811D01*
X0070469Y0157816D01*
X0070513Y0157817D01*
X0070557Y0157814D01*
X0070601Y0157807D01*
X0070644Y0157796D01*
X0070686Y0157782D01*
X0070726Y0157764D01*
X0070765Y0157742D01*
X0070801Y0157718D01*
X0070835Y0157690D01*
X0070867Y0157659D01*
X0070896Y0157625D01*
X0070922Y0157589D01*
X0070944Y0157551D01*
X0070963Y0157511D01*
X0070978Y0157469D01*
X0070990Y0157427D01*
X0070998Y0157383D01*
X0071002Y0157339D01*
X0071002Y0157295D01*
X0070998Y0157251D01*
X0070990Y0157207D01*
X0070978Y0157165D01*
X0070963Y0157123D01*
X0070944Y0157083D01*
X0070922Y0157045D01*
X0070896Y0157009D01*
X0070867Y0156975D01*
X0070835Y0156944D01*
X0070801Y0156916D01*
X0070765Y0156892D01*
X0070726Y0156870D01*
X0070686Y0156852D01*
X0070644Y0156838D01*
X0070601Y0156827D01*
X0070557Y0156820D01*
X0070513Y0156817D01*
X0070469Y0156818D01*
X0070425Y0156823D01*
X0070382Y0156832D01*
X0070339Y0156844D01*
X0070298Y0156861D01*
X0070258Y0156880D01*
X0070221Y0156904D01*
X0070185Y0156930D01*
X0070152Y0156960D01*
X0070122Y0156992D01*
X0070095Y0157027D01*
X0070071Y0157064D01*
X0070050Y0157103D01*
X0070033Y0157144D01*
X0070020Y0157186D01*
X0070010Y0157229D01*
X0070004Y0157273D01*
X0070002Y0157317D01*
X0070392Y0217108D02*
X0061928Y0217108D01*
X0061928Y0228525D02*
X0070392Y0228525D01*
X0070392Y0226163D01*
X0070392Y0219470D02*
X0070392Y0217108D01*
X0076502Y0216817D02*
X0076504Y0216861D01*
X0076510Y0216905D01*
X0076520Y0216948D01*
X0076533Y0216990D01*
X0076550Y0217031D01*
X0076571Y0217070D01*
X0076595Y0217107D01*
X0076622Y0217142D01*
X0076652Y0217174D01*
X0076685Y0217204D01*
X0076721Y0217230D01*
X0076758Y0217254D01*
X0076798Y0217273D01*
X0076839Y0217290D01*
X0076882Y0217302D01*
X0076925Y0217311D01*
X0076969Y0217316D01*
X0077013Y0217317D01*
X0077057Y0217314D01*
X0077101Y0217307D01*
X0077144Y0217296D01*
X0077186Y0217282D01*
X0077226Y0217264D01*
X0077265Y0217242D01*
X0077301Y0217218D01*
X0077335Y0217190D01*
X0077367Y0217159D01*
X0077396Y0217125D01*
X0077422Y0217089D01*
X0077444Y0217051D01*
X0077463Y0217011D01*
X0077478Y0216969D01*
X0077490Y0216927D01*
X0077498Y0216883D01*
X0077502Y0216839D01*
X0077502Y0216795D01*
X0077498Y0216751D01*
X0077490Y0216707D01*
X0077478Y0216665D01*
X0077463Y0216623D01*
X0077444Y0216583D01*
X0077422Y0216545D01*
X0077396Y0216509D01*
X0077367Y0216475D01*
X0077335Y0216444D01*
X0077301Y0216416D01*
X0077265Y0216392D01*
X0077226Y0216370D01*
X0077186Y0216352D01*
X0077144Y0216338D01*
X0077101Y0216327D01*
X0077057Y0216320D01*
X0077013Y0216317D01*
X0076969Y0216318D01*
X0076925Y0216323D01*
X0076882Y0216332D01*
X0076839Y0216344D01*
X0076798Y0216361D01*
X0076758Y0216380D01*
X0076721Y0216404D01*
X0076685Y0216430D01*
X0076652Y0216460D01*
X0076622Y0216492D01*
X0076595Y0216527D01*
X0076571Y0216564D01*
X0076550Y0216603D01*
X0076533Y0216644D01*
X0076520Y0216686D01*
X0076510Y0216729D01*
X0076504Y0216773D01*
X0076502Y0216817D01*
X0108502Y0245317D02*
X0108504Y0245361D01*
X0108510Y0245405D01*
X0108520Y0245448D01*
X0108533Y0245490D01*
X0108550Y0245531D01*
X0108571Y0245570D01*
X0108595Y0245607D01*
X0108622Y0245642D01*
X0108652Y0245674D01*
X0108685Y0245704D01*
X0108721Y0245730D01*
X0108758Y0245754D01*
X0108798Y0245773D01*
X0108839Y0245790D01*
X0108882Y0245802D01*
X0108925Y0245811D01*
X0108969Y0245816D01*
X0109013Y0245817D01*
X0109057Y0245814D01*
X0109101Y0245807D01*
X0109144Y0245796D01*
X0109186Y0245782D01*
X0109226Y0245764D01*
X0109265Y0245742D01*
X0109301Y0245718D01*
X0109335Y0245690D01*
X0109367Y0245659D01*
X0109396Y0245625D01*
X0109422Y0245589D01*
X0109444Y0245551D01*
X0109463Y0245511D01*
X0109478Y0245469D01*
X0109490Y0245427D01*
X0109498Y0245383D01*
X0109502Y0245339D01*
X0109502Y0245295D01*
X0109498Y0245251D01*
X0109490Y0245207D01*
X0109478Y0245165D01*
X0109463Y0245123D01*
X0109444Y0245083D01*
X0109422Y0245045D01*
X0109396Y0245009D01*
X0109367Y0244975D01*
X0109335Y0244944D01*
X0109301Y0244916D01*
X0109265Y0244892D01*
X0109226Y0244870D01*
X0109186Y0244852D01*
X0109144Y0244838D01*
X0109101Y0244827D01*
X0109057Y0244820D01*
X0109013Y0244817D01*
X0108969Y0244818D01*
X0108925Y0244823D01*
X0108882Y0244832D01*
X0108839Y0244844D01*
X0108798Y0244861D01*
X0108758Y0244880D01*
X0108721Y0244904D01*
X0108685Y0244930D01*
X0108652Y0244960D01*
X0108622Y0244992D01*
X0108595Y0245027D01*
X0108571Y0245064D01*
X0108550Y0245103D01*
X0108533Y0245144D01*
X0108520Y0245186D01*
X0108510Y0245229D01*
X0108504Y0245273D01*
X0108502Y0245317D01*
X0111002Y0152817D02*
X0111004Y0152861D01*
X0111010Y0152905D01*
X0111020Y0152948D01*
X0111033Y0152990D01*
X0111050Y0153031D01*
X0111071Y0153070D01*
X0111095Y0153107D01*
X0111122Y0153142D01*
X0111152Y0153174D01*
X0111185Y0153204D01*
X0111221Y0153230D01*
X0111258Y0153254D01*
X0111298Y0153273D01*
X0111339Y0153290D01*
X0111382Y0153302D01*
X0111425Y0153311D01*
X0111469Y0153316D01*
X0111513Y0153317D01*
X0111557Y0153314D01*
X0111601Y0153307D01*
X0111644Y0153296D01*
X0111686Y0153282D01*
X0111726Y0153264D01*
X0111765Y0153242D01*
X0111801Y0153218D01*
X0111835Y0153190D01*
X0111867Y0153159D01*
X0111896Y0153125D01*
X0111922Y0153089D01*
X0111944Y0153051D01*
X0111963Y0153011D01*
X0111978Y0152969D01*
X0111990Y0152927D01*
X0111998Y0152883D01*
X0112002Y0152839D01*
X0112002Y0152795D01*
X0111998Y0152751D01*
X0111990Y0152707D01*
X0111978Y0152665D01*
X0111963Y0152623D01*
X0111944Y0152583D01*
X0111922Y0152545D01*
X0111896Y0152509D01*
X0111867Y0152475D01*
X0111835Y0152444D01*
X0111801Y0152416D01*
X0111765Y0152392D01*
X0111726Y0152370D01*
X0111686Y0152352D01*
X0111644Y0152338D01*
X0111601Y0152327D01*
X0111557Y0152320D01*
X0111513Y0152317D01*
X0111469Y0152318D01*
X0111425Y0152323D01*
X0111382Y0152332D01*
X0111339Y0152344D01*
X0111298Y0152361D01*
X0111258Y0152380D01*
X0111221Y0152404D01*
X0111185Y0152430D01*
X0111152Y0152460D01*
X0111122Y0152492D01*
X0111095Y0152527D01*
X0111071Y0152564D01*
X0111050Y0152603D01*
X0111033Y0152644D01*
X0111020Y0152686D01*
X0111010Y0152729D01*
X0111004Y0152773D01*
X0111002Y0152817D01*
X0111002Y0139317D02*
X0111004Y0139361D01*
X0111010Y0139405D01*
X0111020Y0139448D01*
X0111033Y0139490D01*
X0111050Y0139531D01*
X0111071Y0139570D01*
X0111095Y0139607D01*
X0111122Y0139642D01*
X0111152Y0139674D01*
X0111185Y0139704D01*
X0111221Y0139730D01*
X0111258Y0139754D01*
X0111298Y0139773D01*
X0111339Y0139790D01*
X0111382Y0139802D01*
X0111425Y0139811D01*
X0111469Y0139816D01*
X0111513Y0139817D01*
X0111557Y0139814D01*
X0111601Y0139807D01*
X0111644Y0139796D01*
X0111686Y0139782D01*
X0111726Y0139764D01*
X0111765Y0139742D01*
X0111801Y0139718D01*
X0111835Y0139690D01*
X0111867Y0139659D01*
X0111896Y0139625D01*
X0111922Y0139589D01*
X0111944Y0139551D01*
X0111963Y0139511D01*
X0111978Y0139469D01*
X0111990Y0139427D01*
X0111998Y0139383D01*
X0112002Y0139339D01*
X0112002Y0139295D01*
X0111998Y0139251D01*
X0111990Y0139207D01*
X0111978Y0139165D01*
X0111963Y0139123D01*
X0111944Y0139083D01*
X0111922Y0139045D01*
X0111896Y0139009D01*
X0111867Y0138975D01*
X0111835Y0138944D01*
X0111801Y0138916D01*
X0111765Y0138892D01*
X0111726Y0138870D01*
X0111686Y0138852D01*
X0111644Y0138838D01*
X0111601Y0138827D01*
X0111557Y0138820D01*
X0111513Y0138817D01*
X0111469Y0138818D01*
X0111425Y0138823D01*
X0111382Y0138832D01*
X0111339Y0138844D01*
X0111298Y0138861D01*
X0111258Y0138880D01*
X0111221Y0138904D01*
X0111185Y0138930D01*
X0111152Y0138960D01*
X0111122Y0138992D01*
X0111095Y0139027D01*
X0111071Y0139064D01*
X0111050Y0139103D01*
X0111033Y0139144D01*
X0111020Y0139186D01*
X0111010Y0139229D01*
X0111004Y0139273D01*
X0111002Y0139317D01*
D11*
X0079502Y0019317D02*
X0003325Y0019317D01*
X0011002Y0019572D02*
X0009979Y0029553D01*
X0009746Y0029553D02*
X0012259Y0029553D01*
X0011002Y0019572D01*
X0012026Y0029553D01*
X0011514Y0029553D02*
X0011002Y0019572D01*
X0010491Y0029553D01*
X0009746Y0029553D02*
X0011002Y0019572D01*
X0011002Y0071561D01*
X0012026Y0061580D01*
X0012259Y0061580D02*
X0011002Y0071561D01*
X0009979Y0061580D01*
X0009746Y0061580D02*
X0012259Y0061580D01*
X0011514Y0061580D02*
X0011002Y0071561D01*
X0010491Y0061580D01*
X0009746Y0061580D02*
X0011002Y0071561D01*
X0011502Y0072072D02*
X0012526Y0082053D01*
X0012759Y0082053D02*
X0011502Y0072072D01*
X0010479Y0082053D01*
X0010246Y0082053D02*
X0012759Y0082053D01*
X0012014Y0082053D02*
X0011502Y0072072D01*
X0010991Y0082053D01*
X0010246Y0082053D02*
X0011502Y0072072D01*
X0011502Y0270061D01*
X0012526Y0260080D01*
X0012759Y0260080D02*
X0011502Y0270061D01*
X0010479Y0260080D01*
X0010246Y0260080D02*
X0012759Y0260080D01*
X0012014Y0260080D02*
X0011502Y0270061D01*
X0010991Y0260080D01*
X0010246Y0260080D02*
X0011502Y0270061D01*
X0003825Y0270317D02*
X0027002Y0270317D01*
X0027002Y0281494D01*
X0027258Y0273817D02*
X0037239Y0272793D01*
X0037239Y0272560D02*
X0027258Y0273817D01*
X0037239Y0274840D01*
X0037239Y0275073D02*
X0037239Y0272560D01*
X0037239Y0273305D02*
X0027258Y0273817D01*
X0037239Y0274328D01*
X0037239Y0275073D02*
X0027258Y0273817D01*
X0139746Y0273817D01*
X0129766Y0272793D01*
X0129766Y0272560D02*
X0139746Y0273817D01*
X0129766Y0274840D01*
X0129766Y0275073D02*
X0129766Y0272560D01*
X0129766Y0273305D02*
X0139746Y0273817D01*
X0129766Y0274328D01*
X0129766Y0275073D02*
X0139746Y0273817D01*
X0140002Y0270317D02*
X0140002Y0281494D01*
X0079502Y0071817D02*
X0003325Y0071817D01*
X0003825Y0071817D02*
X0027002Y0071817D01*
D12*
X0009541Y0050873D02*
X0008252Y0050873D01*
X0008896Y0051357D02*
X0008896Y0049745D01*
X0006641Y0050390D01*
X0006641Y0047832D02*
X0006641Y0046865D01*
X0006641Y0047832D02*
X0006643Y0047881D01*
X0006649Y0047930D01*
X0006658Y0047979D01*
X0006671Y0048026D01*
X0006688Y0048073D01*
X0006708Y0048118D01*
X0006731Y0048161D01*
X0006758Y0048203D01*
X0006788Y0048242D01*
X0006821Y0048279D01*
X0006857Y0048313D01*
X0006895Y0048344D01*
X0006935Y0048373D01*
X0006977Y0048398D01*
X0007022Y0048420D01*
X0007067Y0048438D01*
X0007114Y0048453D01*
X0007162Y0048464D01*
X0007211Y0048472D01*
X0007260Y0048476D01*
X0007310Y0048476D01*
X0007359Y0048472D01*
X0007408Y0048464D01*
X0007456Y0048453D01*
X0007503Y0048438D01*
X0007548Y0048420D01*
X0007593Y0048398D01*
X0007635Y0048373D01*
X0007675Y0048344D01*
X0007713Y0048313D01*
X0007749Y0048279D01*
X0007782Y0048242D01*
X0007812Y0048203D01*
X0007839Y0048161D01*
X0007862Y0048118D01*
X0007882Y0048073D01*
X0007899Y0048026D01*
X0007912Y0047979D01*
X0007921Y0047930D01*
X0007927Y0047881D01*
X0007929Y0047832D01*
X0007929Y0047188D01*
X0007929Y0047671D02*
X0007931Y0047726D01*
X0007937Y0047781D01*
X0007946Y0047835D01*
X0007959Y0047888D01*
X0007976Y0047941D01*
X0007996Y0047992D01*
X0008019Y0048042D01*
X0008046Y0048090D01*
X0008077Y0048136D01*
X0008110Y0048180D01*
X0008146Y0048221D01*
X0008185Y0048260D01*
X0008226Y0048296D01*
X0008270Y0048329D01*
X0008316Y0048360D01*
X0008364Y0048387D01*
X0008414Y0048410D01*
X0008465Y0048430D01*
X0008518Y0048447D01*
X0008571Y0048460D01*
X0008625Y0048469D01*
X0008680Y0048475D01*
X0008735Y0048477D01*
X0008790Y0048475D01*
X0008845Y0048469D01*
X0008899Y0048460D01*
X0008952Y0048447D01*
X0009005Y0048430D01*
X0009056Y0048410D01*
X0009106Y0048387D01*
X0009154Y0048360D01*
X0009200Y0048329D01*
X0009244Y0048296D01*
X0009285Y0048260D01*
X0009324Y0048221D01*
X0009360Y0048180D01*
X0009393Y0048136D01*
X0009424Y0048090D01*
X0009451Y0048042D01*
X0009474Y0047992D01*
X0009494Y0047941D01*
X0009511Y0047888D01*
X0009524Y0047835D01*
X0009533Y0047781D01*
X0009539Y0047726D01*
X0009541Y0047671D01*
X0009541Y0046865D01*
X0009541Y0045736D02*
X0009541Y0045574D01*
X0009379Y0045574D01*
X0009379Y0045736D01*
X0009541Y0045736D01*
X0009541Y0043639D02*
X0009541Y0042833D01*
X0009541Y0043639D02*
X0009539Y0043694D01*
X0009533Y0043749D01*
X0009524Y0043803D01*
X0009511Y0043856D01*
X0009494Y0043909D01*
X0009474Y0043960D01*
X0009451Y0044010D01*
X0009424Y0044058D01*
X0009393Y0044104D01*
X0009360Y0044148D01*
X0009324Y0044189D01*
X0009285Y0044228D01*
X0009244Y0044264D01*
X0009200Y0044297D01*
X0009154Y0044328D01*
X0009106Y0044355D01*
X0009056Y0044378D01*
X0009005Y0044398D01*
X0008952Y0044415D01*
X0008899Y0044428D01*
X0008845Y0044437D01*
X0008790Y0044443D01*
X0008735Y0044445D01*
X0008680Y0044443D01*
X0008625Y0044437D01*
X0008571Y0044428D01*
X0008518Y0044415D01*
X0008465Y0044398D01*
X0008414Y0044378D01*
X0008364Y0044355D01*
X0008316Y0044328D01*
X0008270Y0044297D01*
X0008226Y0044264D01*
X0008185Y0044228D01*
X0008146Y0044189D01*
X0008110Y0044148D01*
X0008077Y0044104D01*
X0008046Y0044058D01*
X0008019Y0044010D01*
X0007996Y0043960D01*
X0007976Y0043909D01*
X0007959Y0043856D01*
X0007946Y0043803D01*
X0007937Y0043749D01*
X0007931Y0043694D01*
X0007929Y0043639D01*
X0007929Y0043800D02*
X0007929Y0043156D01*
X0007929Y0043800D02*
X0007927Y0043849D01*
X0007921Y0043898D01*
X0007912Y0043947D01*
X0007899Y0043994D01*
X0007882Y0044041D01*
X0007862Y0044086D01*
X0007839Y0044129D01*
X0007812Y0044171D01*
X0007782Y0044210D01*
X0007749Y0044247D01*
X0007713Y0044281D01*
X0007675Y0044312D01*
X0007635Y0044341D01*
X0007593Y0044366D01*
X0007548Y0044388D01*
X0007503Y0044406D01*
X0007456Y0044421D01*
X0007408Y0044432D01*
X0007359Y0044440D01*
X0007310Y0044444D01*
X0007260Y0044444D01*
X0007211Y0044440D01*
X0007162Y0044432D01*
X0007114Y0044421D01*
X0007067Y0044406D01*
X0007022Y0044388D01*
X0006977Y0044366D01*
X0006935Y0044341D01*
X0006895Y0044312D01*
X0006857Y0044281D01*
X0006821Y0044247D01*
X0006788Y0044210D01*
X0006758Y0044171D01*
X0006731Y0044129D01*
X0006708Y0044086D01*
X0006688Y0044041D01*
X0006671Y0043994D01*
X0006658Y0043947D01*
X0006649Y0043898D01*
X0006643Y0043849D01*
X0006641Y0043800D01*
X0006641Y0042833D01*
X0006641Y0040759D02*
X0009541Y0040759D01*
X0009541Y0039953D02*
X0009541Y0041565D01*
X0007285Y0039953D02*
X0006641Y0040759D01*
X0007141Y0165453D02*
X0007141Y0167065D01*
X0008429Y0166420D02*
X0008429Y0165453D01*
X0007141Y0165453D01*
X0008591Y0169945D02*
X0008681Y0169943D01*
X0008772Y0169938D01*
X0008861Y0169930D01*
X0008951Y0169918D01*
X0009040Y0169902D01*
X0009128Y0169884D01*
X0009216Y0169862D01*
X0009303Y0169837D01*
X0009388Y0169808D01*
X0009473Y0169776D01*
X0009556Y0169741D01*
X0009638Y0169703D01*
X0009637Y0169703D02*
X0009680Y0169686D01*
X0009722Y0169666D01*
X0009762Y0169643D01*
X0009800Y0169617D01*
X0009836Y0169588D01*
X0009870Y0169556D01*
X0009901Y0169522D01*
X0009929Y0169485D01*
X0009954Y0169447D01*
X0009977Y0169406D01*
X0009996Y0169364D01*
X0010012Y0169321D01*
X0010024Y0169276D01*
X0010033Y0169231D01*
X0010038Y0169185D01*
X0010040Y0169139D01*
X0010038Y0169093D01*
X0010033Y0169047D01*
X0010024Y0169002D01*
X0010012Y0168957D01*
X0009996Y0168914D01*
X0009977Y0168872D01*
X0009954Y0168831D01*
X0009929Y0168793D01*
X0009901Y0168756D01*
X0009870Y0168722D01*
X0009836Y0168690D01*
X0009800Y0168661D01*
X0009762Y0168635D01*
X0009722Y0168612D01*
X0009680Y0168592D01*
X0009637Y0168575D01*
X0009396Y0168495D02*
X0007785Y0169783D01*
X0007544Y0169703D02*
X0007501Y0169686D01*
X0007459Y0169666D01*
X0007419Y0169643D01*
X0007381Y0169617D01*
X0007345Y0169588D01*
X0007311Y0169556D01*
X0007280Y0169522D01*
X0007252Y0169485D01*
X0007227Y0169447D01*
X0007204Y0169406D01*
X0007185Y0169364D01*
X0007169Y0169321D01*
X0007157Y0169276D01*
X0007148Y0169231D01*
X0007143Y0169185D01*
X0007141Y0169139D01*
X0007143Y0169093D01*
X0007148Y0169047D01*
X0007157Y0169002D01*
X0007169Y0168957D01*
X0007185Y0168914D01*
X0007204Y0168872D01*
X0007227Y0168831D01*
X0007252Y0168793D01*
X0007280Y0168756D01*
X0007311Y0168722D01*
X0007345Y0168690D01*
X0007381Y0168661D01*
X0007419Y0168635D01*
X0007459Y0168612D01*
X0007501Y0168592D01*
X0007544Y0168575D01*
X0007544Y0169703D02*
X0007626Y0169741D01*
X0007709Y0169776D01*
X0007794Y0169808D01*
X0007879Y0169837D01*
X0007966Y0169862D01*
X0008054Y0169884D01*
X0008142Y0169902D01*
X0008231Y0169918D01*
X0008321Y0169930D01*
X0008410Y0169938D01*
X0008501Y0169943D01*
X0008591Y0169945D01*
X0008591Y0168333D02*
X0008501Y0168335D01*
X0008410Y0168340D01*
X0008321Y0168348D01*
X0008231Y0168360D01*
X0008142Y0168376D01*
X0008054Y0168394D01*
X0007966Y0168416D01*
X0007879Y0168441D01*
X0007794Y0168470D01*
X0007709Y0168502D01*
X0007626Y0168537D01*
X0007544Y0168575D01*
X0009074Y0167065D02*
X0009396Y0167065D01*
X0009396Y0167064D02*
X0009444Y0167062D01*
X0009492Y0167057D01*
X0009539Y0167048D01*
X0009586Y0167035D01*
X0009631Y0167019D01*
X0009675Y0167000D01*
X0009718Y0166978D01*
X0009759Y0166952D01*
X0009798Y0166923D01*
X0009834Y0166892D01*
X0009868Y0166858D01*
X0009899Y0166822D01*
X0009928Y0166783D01*
X0009954Y0166742D01*
X0009976Y0166699D01*
X0009995Y0166655D01*
X0010011Y0166610D01*
X0010024Y0166563D01*
X0010033Y0166516D01*
X0010038Y0166468D01*
X0010040Y0166420D01*
X0010041Y0166420D02*
X0010041Y0165453D01*
X0009074Y0167064D02*
X0009023Y0167062D01*
X0008973Y0167056D01*
X0008924Y0167046D01*
X0008875Y0167032D01*
X0008828Y0167015D01*
X0008782Y0166994D01*
X0008738Y0166969D01*
X0008695Y0166941D01*
X0008656Y0166910D01*
X0008619Y0166875D01*
X0008584Y0166838D01*
X0008553Y0166799D01*
X0008525Y0166756D01*
X0008500Y0166712D01*
X0008479Y0166666D01*
X0008462Y0166619D01*
X0008448Y0166570D01*
X0008438Y0166521D01*
X0008432Y0166471D01*
X0008430Y0166420D01*
X0008591Y0168333D02*
X0008681Y0168335D01*
X0008772Y0168340D01*
X0008861Y0168348D01*
X0008951Y0168360D01*
X0009040Y0168376D01*
X0009128Y0168394D01*
X0009216Y0168416D01*
X0009303Y0168441D01*
X0009388Y0168470D01*
X0009473Y0168502D01*
X0009556Y0168537D01*
X0009638Y0168575D01*
X0009879Y0171074D02*
X0009879Y0171236D01*
X0010041Y0171236D01*
X0010041Y0171074D01*
X0009879Y0171074D01*
X0009396Y0172365D02*
X0009396Y0173977D01*
X0008752Y0173493D02*
X0010041Y0173493D01*
X0009396Y0172365D02*
X0007141Y0173010D01*
X0008430Y0176615D02*
X0008393Y0176652D01*
X0008353Y0176686D01*
X0008311Y0176718D01*
X0008266Y0176746D01*
X0008220Y0176772D01*
X0008173Y0176794D01*
X0008124Y0176813D01*
X0008074Y0176829D01*
X0008023Y0176841D01*
X0007971Y0176850D01*
X0007919Y0176855D01*
X0007866Y0176857D01*
X0008429Y0176615D02*
X0010041Y0175245D01*
X0010041Y0176857D01*
X0007785Y0175246D02*
X0007730Y0175266D01*
X0007676Y0175289D01*
X0007624Y0175316D01*
X0007574Y0175346D01*
X0007525Y0175378D01*
X0007479Y0175414D01*
X0007435Y0175453D01*
X0007394Y0175494D01*
X0007355Y0175538D01*
X0007319Y0175584D01*
X0007286Y0175633D01*
X0007256Y0175683D01*
X0007230Y0175735D01*
X0007206Y0175789D01*
X0007187Y0175844D01*
X0007170Y0175900D01*
X0007158Y0175957D01*
X0007148Y0176015D01*
X0007143Y0176073D01*
X0007141Y0176132D01*
X0007143Y0176184D01*
X0007148Y0176235D01*
X0007158Y0176286D01*
X0007170Y0176336D01*
X0007187Y0176385D01*
X0007207Y0176433D01*
X0007230Y0176479D01*
X0007256Y0176524D01*
X0007286Y0176566D01*
X0007318Y0176607D01*
X0007353Y0176645D01*
X0007391Y0176680D01*
X0007432Y0176712D01*
X0007474Y0176742D01*
X0007519Y0176768D01*
X0007565Y0176791D01*
X0007613Y0176811D01*
X0007662Y0176828D01*
X0007712Y0176840D01*
X0007763Y0176850D01*
X0007814Y0176855D01*
X0007866Y0176857D01*
X0046152Y0220217D02*
X0046152Y0221023D01*
X0049052Y0221023D01*
X0049052Y0220217D01*
X0049053Y0220217D02*
X0049051Y0220162D01*
X0049045Y0220107D01*
X0049036Y0220053D01*
X0049023Y0220000D01*
X0049006Y0219947D01*
X0048986Y0219896D01*
X0048963Y0219846D01*
X0048936Y0219798D01*
X0048905Y0219752D01*
X0048872Y0219708D01*
X0048836Y0219667D01*
X0048797Y0219628D01*
X0048756Y0219592D01*
X0048712Y0219559D01*
X0048666Y0219528D01*
X0048618Y0219501D01*
X0048568Y0219478D01*
X0048517Y0219458D01*
X0048464Y0219441D01*
X0048411Y0219428D01*
X0048357Y0219419D01*
X0048302Y0219413D01*
X0048247Y0219411D01*
X0048247Y0219412D02*
X0046958Y0219412D01*
X0046958Y0219411D02*
X0046903Y0219413D01*
X0046848Y0219419D01*
X0046794Y0219428D01*
X0046741Y0219441D01*
X0046688Y0219458D01*
X0046637Y0219478D01*
X0046587Y0219501D01*
X0046539Y0219528D01*
X0046493Y0219559D01*
X0046449Y0219592D01*
X0046408Y0219628D01*
X0046369Y0219667D01*
X0046333Y0219708D01*
X0046300Y0219752D01*
X0046269Y0219798D01*
X0046242Y0219846D01*
X0046219Y0219896D01*
X0046199Y0219947D01*
X0046182Y0220000D01*
X0046169Y0220053D01*
X0046160Y0220107D01*
X0046154Y0220162D01*
X0046152Y0220217D01*
X0046152Y0222483D02*
X0049052Y0222483D01*
X0049052Y0224095D02*
X0046152Y0222483D01*
X0046152Y0224095D02*
X0049052Y0224095D01*
X0049052Y0225555D02*
X0049052Y0226522D01*
X0049050Y0226570D01*
X0049045Y0226618D01*
X0049036Y0226665D01*
X0049023Y0226712D01*
X0049007Y0226757D01*
X0048988Y0226801D01*
X0048966Y0226844D01*
X0048940Y0226885D01*
X0048911Y0226924D01*
X0048880Y0226960D01*
X0048846Y0226994D01*
X0048810Y0227025D01*
X0048771Y0227054D01*
X0048730Y0227080D01*
X0048687Y0227102D01*
X0048643Y0227121D01*
X0048598Y0227137D01*
X0048551Y0227150D01*
X0048504Y0227159D01*
X0048456Y0227164D01*
X0048408Y0227166D01*
X0048408Y0227167D02*
X0046797Y0227167D01*
X0046797Y0227166D02*
X0046749Y0227164D01*
X0046701Y0227159D01*
X0046654Y0227150D01*
X0046607Y0227137D01*
X0046562Y0227121D01*
X0046518Y0227102D01*
X0046475Y0227080D01*
X0046434Y0227054D01*
X0046395Y0227025D01*
X0046359Y0226994D01*
X0046325Y0226960D01*
X0046294Y0226924D01*
X0046265Y0226885D01*
X0046239Y0226844D01*
X0046217Y0226801D01*
X0046198Y0226757D01*
X0046182Y0226712D01*
X0046169Y0226665D01*
X0046160Y0226618D01*
X0046155Y0226570D01*
X0046153Y0226522D01*
X0046152Y0226522D02*
X0046152Y0225555D01*
X0047763Y0225555D01*
X0047763Y0226039D01*
X0061428Y0231317D02*
X0061426Y0231407D01*
X0061421Y0231498D01*
X0061413Y0231587D01*
X0061401Y0231677D01*
X0061385Y0231766D01*
X0061367Y0231854D01*
X0061345Y0231942D01*
X0061320Y0232029D01*
X0061291Y0232114D01*
X0061259Y0232199D01*
X0061224Y0232282D01*
X0061186Y0232364D01*
X0061267Y0232122D02*
X0059978Y0230511D01*
X0060058Y0230270D02*
X0060075Y0230227D01*
X0060095Y0230185D01*
X0060118Y0230145D01*
X0060144Y0230107D01*
X0060173Y0230071D01*
X0060205Y0230037D01*
X0060239Y0230006D01*
X0060276Y0229978D01*
X0060314Y0229953D01*
X0060355Y0229930D01*
X0060397Y0229911D01*
X0060440Y0229895D01*
X0060485Y0229883D01*
X0060530Y0229874D01*
X0060576Y0229869D01*
X0060622Y0229867D01*
X0060668Y0229869D01*
X0060714Y0229874D01*
X0060759Y0229883D01*
X0060804Y0229895D01*
X0060847Y0229911D01*
X0060889Y0229930D01*
X0060930Y0229953D01*
X0060968Y0229978D01*
X0061005Y0230006D01*
X0061039Y0230037D01*
X0061071Y0230071D01*
X0061100Y0230107D01*
X0061126Y0230145D01*
X0061149Y0230185D01*
X0061169Y0230227D01*
X0061186Y0230270D01*
X0064308Y0231317D02*
X0064306Y0231407D01*
X0064301Y0231498D01*
X0064293Y0231587D01*
X0064281Y0231677D01*
X0064265Y0231766D01*
X0064247Y0231854D01*
X0064225Y0231942D01*
X0064200Y0232029D01*
X0064171Y0232114D01*
X0064139Y0232199D01*
X0064104Y0232282D01*
X0064066Y0232364D01*
X0064147Y0232122D02*
X0062858Y0230511D01*
X0062938Y0230270D02*
X0062955Y0230227D01*
X0062975Y0230185D01*
X0062998Y0230145D01*
X0063024Y0230107D01*
X0063053Y0230071D01*
X0063085Y0230037D01*
X0063119Y0230006D01*
X0063156Y0229978D01*
X0063194Y0229953D01*
X0063235Y0229930D01*
X0063277Y0229911D01*
X0063320Y0229895D01*
X0063365Y0229883D01*
X0063410Y0229874D01*
X0063456Y0229869D01*
X0063502Y0229867D01*
X0063548Y0229869D01*
X0063594Y0229874D01*
X0063639Y0229883D01*
X0063684Y0229895D01*
X0063727Y0229911D01*
X0063769Y0229930D01*
X0063810Y0229953D01*
X0063848Y0229978D01*
X0063885Y0230006D01*
X0063919Y0230037D01*
X0063951Y0230071D01*
X0063980Y0230107D01*
X0064006Y0230145D01*
X0064029Y0230185D01*
X0064049Y0230227D01*
X0064066Y0230270D01*
X0062939Y0230270D02*
X0062901Y0230352D01*
X0062866Y0230435D01*
X0062834Y0230520D01*
X0062805Y0230605D01*
X0062780Y0230692D01*
X0062758Y0230780D01*
X0062740Y0230868D01*
X0062724Y0230957D01*
X0062712Y0231047D01*
X0062704Y0231136D01*
X0062699Y0231227D01*
X0062697Y0231317D01*
X0060059Y0232364D02*
X0060021Y0232282D01*
X0059986Y0232199D01*
X0059954Y0232114D01*
X0059925Y0232029D01*
X0059900Y0231942D01*
X0059878Y0231854D01*
X0059860Y0231766D01*
X0059844Y0231677D01*
X0059832Y0231587D01*
X0059824Y0231498D01*
X0059819Y0231407D01*
X0059817Y0231317D01*
X0061428Y0231317D02*
X0061426Y0231227D01*
X0061421Y0231136D01*
X0061413Y0231047D01*
X0061401Y0230957D01*
X0061385Y0230868D01*
X0061367Y0230780D01*
X0061345Y0230692D01*
X0061320Y0230605D01*
X0061291Y0230520D01*
X0061259Y0230435D01*
X0061224Y0230352D01*
X0061186Y0230270D01*
X0064066Y0230270D02*
X0064104Y0230352D01*
X0064139Y0230435D01*
X0064171Y0230520D01*
X0064200Y0230605D01*
X0064225Y0230692D01*
X0064247Y0230780D01*
X0064265Y0230868D01*
X0064281Y0230957D01*
X0064293Y0231047D01*
X0064301Y0231136D01*
X0064306Y0231227D01*
X0064308Y0231317D01*
X0062697Y0231317D02*
X0062699Y0231407D01*
X0062704Y0231498D01*
X0062712Y0231587D01*
X0062724Y0231677D01*
X0062740Y0231766D01*
X0062758Y0231854D01*
X0062780Y0231942D01*
X0062805Y0232029D01*
X0062834Y0232114D01*
X0062866Y0232199D01*
X0062901Y0232282D01*
X0062939Y0232364D01*
X0063502Y0232766D02*
X0063548Y0232764D01*
X0063594Y0232759D01*
X0063639Y0232750D01*
X0063684Y0232738D01*
X0063727Y0232722D01*
X0063769Y0232703D01*
X0063810Y0232680D01*
X0063848Y0232655D01*
X0063885Y0232627D01*
X0063919Y0232596D01*
X0063951Y0232562D01*
X0063980Y0232526D01*
X0064006Y0232488D01*
X0064029Y0232448D01*
X0064049Y0232406D01*
X0064066Y0232363D01*
X0063502Y0232766D02*
X0063456Y0232764D01*
X0063410Y0232759D01*
X0063365Y0232750D01*
X0063320Y0232738D01*
X0063277Y0232722D01*
X0063235Y0232703D01*
X0063194Y0232680D01*
X0063156Y0232655D01*
X0063119Y0232627D01*
X0063085Y0232596D01*
X0063053Y0232562D01*
X0063024Y0232526D01*
X0062998Y0232488D01*
X0062975Y0232448D01*
X0062955Y0232406D01*
X0062938Y0232363D01*
X0059817Y0231317D02*
X0059819Y0231227D01*
X0059824Y0231136D01*
X0059832Y0231047D01*
X0059844Y0230957D01*
X0059860Y0230868D01*
X0059878Y0230780D01*
X0059900Y0230692D01*
X0059925Y0230605D01*
X0059954Y0230520D01*
X0059986Y0230435D01*
X0060021Y0230352D01*
X0060059Y0230270D01*
X0060058Y0232363D02*
X0060075Y0232406D01*
X0060095Y0232448D01*
X0060118Y0232488D01*
X0060144Y0232526D01*
X0060173Y0232562D01*
X0060205Y0232596D01*
X0060239Y0232627D01*
X0060276Y0232655D01*
X0060314Y0232680D01*
X0060355Y0232703D01*
X0060397Y0232722D01*
X0060440Y0232738D01*
X0060485Y0232750D01*
X0060530Y0232759D01*
X0060576Y0232764D01*
X0060622Y0232766D01*
X0060668Y0232764D01*
X0060714Y0232759D01*
X0060759Y0232750D01*
X0060804Y0232738D01*
X0060847Y0232722D01*
X0060889Y0232703D01*
X0060930Y0232680D01*
X0060968Y0232655D01*
X0061005Y0232627D01*
X0061039Y0232596D01*
X0061071Y0232562D01*
X0061100Y0232526D01*
X0061126Y0232488D01*
X0061149Y0232448D01*
X0061169Y0232406D01*
X0061186Y0232363D01*
X0065577Y0232767D02*
X0067188Y0232767D01*
X0066382Y0232767D02*
X0066382Y0229867D01*
X0067188Y0230511D01*
X0075952Y0215217D02*
X0077388Y0214694D01*
X0078825Y0215217D01*
X0077388Y0214694D02*
X0076475Y0213519D01*
X0077388Y0214694D02*
X0078302Y0213519D01*
X0077388Y0214694D02*
X0077388Y0216261D01*
X0061188Y0174267D02*
X0060382Y0174267D01*
X0060327Y0174265D01*
X0060272Y0174259D01*
X0060218Y0174250D01*
X0060165Y0174237D01*
X0060112Y0174220D01*
X0060061Y0174200D01*
X0060011Y0174177D01*
X0059963Y0174150D01*
X0059917Y0174119D01*
X0059873Y0174086D01*
X0059832Y0174050D01*
X0059793Y0174011D01*
X0059757Y0173970D01*
X0059724Y0173926D01*
X0059693Y0173880D01*
X0059666Y0173832D01*
X0059643Y0173782D01*
X0059623Y0173731D01*
X0059606Y0173678D01*
X0059593Y0173625D01*
X0059584Y0173571D01*
X0059578Y0173516D01*
X0059576Y0173461D01*
X0059578Y0173406D01*
X0059584Y0173351D01*
X0059593Y0173297D01*
X0059606Y0173244D01*
X0059623Y0173191D01*
X0059643Y0173140D01*
X0059666Y0173090D01*
X0059693Y0173042D01*
X0059724Y0172996D01*
X0059757Y0172952D01*
X0059793Y0172911D01*
X0059832Y0172872D01*
X0059873Y0172836D01*
X0059917Y0172803D01*
X0059963Y0172772D01*
X0060011Y0172745D01*
X0060061Y0172722D01*
X0060112Y0172702D01*
X0060165Y0172685D01*
X0060218Y0172672D01*
X0060272Y0172663D01*
X0060327Y0172657D01*
X0060382Y0172655D01*
X0060221Y0172655D02*
X0060866Y0172655D01*
X0060221Y0172655D02*
X0060172Y0172653D01*
X0060123Y0172647D01*
X0060074Y0172638D01*
X0060027Y0172625D01*
X0059980Y0172608D01*
X0059935Y0172588D01*
X0059892Y0172565D01*
X0059850Y0172538D01*
X0059811Y0172508D01*
X0059774Y0172475D01*
X0059740Y0172439D01*
X0059709Y0172401D01*
X0059680Y0172361D01*
X0059655Y0172319D01*
X0059633Y0172274D01*
X0059615Y0172229D01*
X0059600Y0172182D01*
X0059589Y0172134D01*
X0059581Y0172085D01*
X0059577Y0172036D01*
X0059577Y0171986D01*
X0059581Y0171937D01*
X0059589Y0171888D01*
X0059600Y0171840D01*
X0059615Y0171793D01*
X0059633Y0171748D01*
X0059655Y0171703D01*
X0059680Y0171661D01*
X0059709Y0171621D01*
X0059740Y0171583D01*
X0059774Y0171547D01*
X0059811Y0171514D01*
X0059850Y0171484D01*
X0059892Y0171457D01*
X0059935Y0171434D01*
X0059980Y0171414D01*
X0060027Y0171397D01*
X0060074Y0171384D01*
X0060123Y0171375D01*
X0060172Y0171369D01*
X0060221Y0171367D01*
X0061188Y0171367D01*
X0058308Y0171367D02*
X0057341Y0171367D01*
X0057292Y0171369D01*
X0057243Y0171375D01*
X0057194Y0171384D01*
X0057147Y0171397D01*
X0057100Y0171414D01*
X0057055Y0171434D01*
X0057012Y0171457D01*
X0056970Y0171484D01*
X0056931Y0171514D01*
X0056894Y0171547D01*
X0056860Y0171583D01*
X0056829Y0171621D01*
X0056800Y0171661D01*
X0056775Y0171703D01*
X0056753Y0171748D01*
X0056735Y0171793D01*
X0056720Y0171840D01*
X0056709Y0171888D01*
X0056701Y0171937D01*
X0056697Y0171986D01*
X0056697Y0172036D01*
X0056701Y0172085D01*
X0056709Y0172134D01*
X0056720Y0172182D01*
X0056735Y0172229D01*
X0056753Y0172274D01*
X0056775Y0172319D01*
X0056800Y0172361D01*
X0056829Y0172401D01*
X0056860Y0172439D01*
X0056894Y0172475D01*
X0056931Y0172508D01*
X0056970Y0172538D01*
X0057012Y0172565D01*
X0057055Y0172588D01*
X0057100Y0172608D01*
X0057147Y0172625D01*
X0057194Y0172638D01*
X0057243Y0172647D01*
X0057292Y0172653D01*
X0057341Y0172655D01*
X0057986Y0172655D01*
X0057502Y0172655D02*
X0057447Y0172657D01*
X0057392Y0172663D01*
X0057338Y0172672D01*
X0057285Y0172685D01*
X0057232Y0172702D01*
X0057181Y0172722D01*
X0057131Y0172745D01*
X0057083Y0172772D01*
X0057037Y0172803D01*
X0056993Y0172836D01*
X0056952Y0172872D01*
X0056913Y0172911D01*
X0056877Y0172952D01*
X0056844Y0172996D01*
X0056813Y0173042D01*
X0056786Y0173090D01*
X0056763Y0173140D01*
X0056743Y0173191D01*
X0056726Y0173244D01*
X0056713Y0173297D01*
X0056704Y0173351D01*
X0056698Y0173406D01*
X0056696Y0173461D01*
X0056698Y0173516D01*
X0056704Y0173571D01*
X0056713Y0173625D01*
X0056726Y0173678D01*
X0056743Y0173731D01*
X0056763Y0173782D01*
X0056786Y0173832D01*
X0056813Y0173880D01*
X0056844Y0173926D01*
X0056877Y0173970D01*
X0056913Y0174011D01*
X0056952Y0174050D01*
X0056993Y0174086D01*
X0057037Y0174119D01*
X0057083Y0174150D01*
X0057131Y0174177D01*
X0057181Y0174200D01*
X0057232Y0174220D01*
X0057285Y0174237D01*
X0057338Y0174250D01*
X0057392Y0174259D01*
X0057447Y0174265D01*
X0057502Y0174267D01*
X0058308Y0174267D01*
X0054059Y0173864D02*
X0054021Y0173782D01*
X0053986Y0173699D01*
X0053954Y0173614D01*
X0053925Y0173529D01*
X0053900Y0173442D01*
X0053878Y0173354D01*
X0053860Y0173266D01*
X0053844Y0173177D01*
X0053832Y0173087D01*
X0053824Y0172998D01*
X0053819Y0172907D01*
X0053817Y0172817D01*
X0055428Y0172817D02*
X0055426Y0172727D01*
X0055421Y0172636D01*
X0055413Y0172547D01*
X0055401Y0172457D01*
X0055385Y0172368D01*
X0055367Y0172280D01*
X0055345Y0172192D01*
X0055320Y0172105D01*
X0055291Y0172020D01*
X0055259Y0171935D01*
X0055224Y0171852D01*
X0055186Y0171770D01*
X0055169Y0171727D01*
X0055149Y0171685D01*
X0055126Y0171645D01*
X0055100Y0171607D01*
X0055071Y0171571D01*
X0055039Y0171537D01*
X0055005Y0171506D01*
X0054968Y0171478D01*
X0054930Y0171453D01*
X0054889Y0171430D01*
X0054847Y0171411D01*
X0054804Y0171395D01*
X0054759Y0171383D01*
X0054714Y0171374D01*
X0054668Y0171369D01*
X0054622Y0171367D01*
X0054576Y0171369D01*
X0054530Y0171374D01*
X0054485Y0171383D01*
X0054440Y0171395D01*
X0054397Y0171411D01*
X0054355Y0171430D01*
X0054314Y0171453D01*
X0054276Y0171478D01*
X0054239Y0171506D01*
X0054205Y0171537D01*
X0054173Y0171571D01*
X0054144Y0171607D01*
X0054118Y0171645D01*
X0054095Y0171685D01*
X0054075Y0171727D01*
X0054058Y0171770D01*
X0053978Y0172011D02*
X0055267Y0173622D01*
X0054622Y0174266D02*
X0054576Y0174264D01*
X0054530Y0174259D01*
X0054485Y0174250D01*
X0054440Y0174238D01*
X0054397Y0174222D01*
X0054355Y0174203D01*
X0054314Y0174180D01*
X0054276Y0174155D01*
X0054239Y0174127D01*
X0054205Y0174096D01*
X0054173Y0174062D01*
X0054144Y0174026D01*
X0054118Y0173988D01*
X0054095Y0173948D01*
X0054075Y0173906D01*
X0054058Y0173863D01*
X0054622Y0174266D02*
X0054668Y0174264D01*
X0054714Y0174259D01*
X0054759Y0174250D01*
X0054804Y0174238D01*
X0054847Y0174222D01*
X0054889Y0174203D01*
X0054930Y0174180D01*
X0054968Y0174155D01*
X0055005Y0174127D01*
X0055039Y0174096D01*
X0055071Y0174062D01*
X0055100Y0174026D01*
X0055126Y0173988D01*
X0055149Y0173948D01*
X0055169Y0173906D01*
X0055186Y0173863D01*
X0053817Y0172817D02*
X0053819Y0172727D01*
X0053824Y0172636D01*
X0053832Y0172547D01*
X0053844Y0172457D01*
X0053860Y0172368D01*
X0053878Y0172280D01*
X0053900Y0172192D01*
X0053925Y0172105D01*
X0053954Y0172020D01*
X0053986Y0171935D01*
X0054021Y0171852D01*
X0054059Y0171770D01*
X0055428Y0172817D02*
X0055426Y0172907D01*
X0055421Y0172998D01*
X0055413Y0173087D01*
X0055401Y0173177D01*
X0055385Y0173266D01*
X0055367Y0173354D01*
X0055345Y0173442D01*
X0055320Y0173529D01*
X0055291Y0173614D01*
X0055259Y0173699D01*
X0055224Y0173782D01*
X0055186Y0173864D01*
X0084552Y0142476D02*
X0087452Y0142476D01*
X0087452Y0143765D01*
X0087452Y0141125D02*
X0086163Y0140481D01*
X0086163Y0140320D02*
X0086163Y0139514D01*
X0086164Y0140320D02*
X0086162Y0140375D01*
X0086156Y0140430D01*
X0086147Y0140484D01*
X0086134Y0140537D01*
X0086117Y0140590D01*
X0086097Y0140641D01*
X0086074Y0140691D01*
X0086047Y0140739D01*
X0086016Y0140785D01*
X0085983Y0140829D01*
X0085947Y0140870D01*
X0085908Y0140909D01*
X0085867Y0140945D01*
X0085823Y0140978D01*
X0085777Y0141009D01*
X0085729Y0141036D01*
X0085679Y0141059D01*
X0085628Y0141079D01*
X0085575Y0141096D01*
X0085522Y0141109D01*
X0085468Y0141118D01*
X0085413Y0141124D01*
X0085358Y0141126D01*
X0085303Y0141124D01*
X0085248Y0141118D01*
X0085194Y0141109D01*
X0085141Y0141096D01*
X0085088Y0141079D01*
X0085037Y0141059D01*
X0084987Y0141036D01*
X0084939Y0141009D01*
X0084893Y0140978D01*
X0084849Y0140945D01*
X0084808Y0140909D01*
X0084769Y0140870D01*
X0084733Y0140829D01*
X0084700Y0140785D01*
X0084669Y0140739D01*
X0084642Y0140691D01*
X0084619Y0140641D01*
X0084599Y0140590D01*
X0084582Y0140537D01*
X0084569Y0140484D01*
X0084560Y0140430D01*
X0084554Y0140375D01*
X0084552Y0140320D01*
X0084552Y0139514D01*
X0087452Y0139514D01*
X0087452Y0138129D02*
X0087452Y0136518D01*
X0085841Y0137887D01*
X0084553Y0137404D02*
X0084555Y0137345D01*
X0084560Y0137287D01*
X0084570Y0137229D01*
X0084582Y0137172D01*
X0084599Y0137116D01*
X0084618Y0137061D01*
X0084642Y0137007D01*
X0084668Y0136955D01*
X0084698Y0136905D01*
X0084731Y0136856D01*
X0084767Y0136810D01*
X0084806Y0136766D01*
X0084847Y0136725D01*
X0084891Y0136686D01*
X0084937Y0136650D01*
X0084986Y0136618D01*
X0085036Y0136588D01*
X0085088Y0136561D01*
X0085142Y0136538D01*
X0085197Y0136518D01*
X0085841Y0137887D02*
X0085804Y0137924D01*
X0085764Y0137958D01*
X0085722Y0137990D01*
X0085677Y0138018D01*
X0085631Y0138044D01*
X0085584Y0138066D01*
X0085535Y0138085D01*
X0085485Y0138101D01*
X0085434Y0138113D01*
X0085382Y0138122D01*
X0085330Y0138127D01*
X0085277Y0138129D01*
X0085225Y0138127D01*
X0085174Y0138122D01*
X0085123Y0138112D01*
X0085073Y0138100D01*
X0085024Y0138083D01*
X0084976Y0138063D01*
X0084930Y0138040D01*
X0084885Y0138014D01*
X0084843Y0137984D01*
X0084802Y0137952D01*
X0084764Y0137917D01*
X0084729Y0137879D01*
X0084697Y0137838D01*
X0084667Y0137796D01*
X0084641Y0137751D01*
X0084618Y0137705D01*
X0084598Y0137657D01*
X0084581Y0137608D01*
X0084569Y0137558D01*
X0084559Y0137507D01*
X0084554Y0137456D01*
X0084552Y0137404D01*
X0084552Y0134605D02*
X0084552Y0133638D01*
X0084553Y0134605D02*
X0084555Y0134654D01*
X0084561Y0134703D01*
X0084570Y0134752D01*
X0084583Y0134799D01*
X0084600Y0134846D01*
X0084620Y0134891D01*
X0084643Y0134934D01*
X0084670Y0134976D01*
X0084700Y0135015D01*
X0084733Y0135052D01*
X0084769Y0135086D01*
X0084807Y0135117D01*
X0084847Y0135146D01*
X0084889Y0135171D01*
X0084934Y0135193D01*
X0084979Y0135211D01*
X0085026Y0135226D01*
X0085074Y0135237D01*
X0085123Y0135245D01*
X0085172Y0135249D01*
X0085222Y0135249D01*
X0085271Y0135245D01*
X0085320Y0135237D01*
X0085368Y0135226D01*
X0085415Y0135211D01*
X0085460Y0135193D01*
X0085505Y0135171D01*
X0085547Y0135146D01*
X0085587Y0135117D01*
X0085625Y0135086D01*
X0085661Y0135052D01*
X0085694Y0135015D01*
X0085724Y0134976D01*
X0085751Y0134934D01*
X0085774Y0134891D01*
X0085794Y0134846D01*
X0085811Y0134799D01*
X0085824Y0134752D01*
X0085833Y0134703D01*
X0085839Y0134654D01*
X0085841Y0134605D01*
X0085841Y0133960D01*
X0085841Y0134444D02*
X0085843Y0134499D01*
X0085849Y0134554D01*
X0085858Y0134608D01*
X0085871Y0134661D01*
X0085888Y0134714D01*
X0085908Y0134765D01*
X0085931Y0134815D01*
X0085958Y0134863D01*
X0085989Y0134909D01*
X0086022Y0134953D01*
X0086058Y0134994D01*
X0086097Y0135033D01*
X0086138Y0135069D01*
X0086182Y0135102D01*
X0086228Y0135133D01*
X0086276Y0135160D01*
X0086326Y0135183D01*
X0086377Y0135203D01*
X0086430Y0135220D01*
X0086483Y0135233D01*
X0086537Y0135242D01*
X0086592Y0135248D01*
X0086647Y0135250D01*
X0086702Y0135248D01*
X0086757Y0135242D01*
X0086811Y0135233D01*
X0086864Y0135220D01*
X0086917Y0135203D01*
X0086968Y0135183D01*
X0087018Y0135160D01*
X0087066Y0135133D01*
X0087112Y0135102D01*
X0087156Y0135069D01*
X0087197Y0135033D01*
X0087236Y0134994D01*
X0087272Y0134953D01*
X0087305Y0134909D01*
X0087336Y0134863D01*
X0087363Y0134815D01*
X0087386Y0134765D01*
X0087406Y0134714D01*
X0087423Y0134661D01*
X0087436Y0134608D01*
X0087445Y0134554D01*
X0087451Y0134499D01*
X0087453Y0134444D01*
X0087452Y0134444D02*
X0087452Y0133638D01*
X0087452Y0132369D02*
X0087452Y0130758D01*
X0085841Y0132127D01*
X0084553Y0131644D02*
X0084555Y0131585D01*
X0084560Y0131527D01*
X0084570Y0131469D01*
X0084582Y0131412D01*
X0084599Y0131356D01*
X0084618Y0131301D01*
X0084642Y0131247D01*
X0084668Y0131195D01*
X0084698Y0131145D01*
X0084731Y0131096D01*
X0084767Y0131050D01*
X0084806Y0131006D01*
X0084847Y0130965D01*
X0084891Y0130926D01*
X0084937Y0130890D01*
X0084986Y0130858D01*
X0085036Y0130828D01*
X0085088Y0130801D01*
X0085142Y0130778D01*
X0085197Y0130758D01*
X0085841Y0132127D02*
X0085804Y0132164D01*
X0085764Y0132198D01*
X0085722Y0132230D01*
X0085677Y0132258D01*
X0085631Y0132284D01*
X0085584Y0132306D01*
X0085535Y0132325D01*
X0085485Y0132341D01*
X0085434Y0132353D01*
X0085382Y0132362D01*
X0085330Y0132367D01*
X0085277Y0132369D01*
X0085225Y0132367D01*
X0085174Y0132362D01*
X0085123Y0132352D01*
X0085073Y0132340D01*
X0085024Y0132323D01*
X0084976Y0132303D01*
X0084930Y0132280D01*
X0084885Y0132254D01*
X0084843Y0132224D01*
X0084802Y0132192D01*
X0084764Y0132157D01*
X0084729Y0132119D01*
X0084697Y0132078D01*
X0084667Y0132036D01*
X0084641Y0131991D01*
X0084618Y0131945D01*
X0084598Y0131897D01*
X0084581Y0131848D01*
X0084569Y0131798D01*
X0084559Y0131747D01*
X0084554Y0131696D01*
X0084552Y0131644D01*
X0084552Y0129681D02*
X0084552Y0128070D01*
X0084552Y0128875D02*
X0087452Y0128875D01*
X0085841Y0127157D02*
X0085841Y0125868D01*
X0084552Y0125868D02*
X0084552Y0127157D01*
X0084552Y0125868D02*
X0087452Y0125868D01*
X0118686Y0120864D02*
X0118724Y0120782D01*
X0118759Y0120699D01*
X0118791Y0120614D01*
X0118820Y0120529D01*
X0118845Y0120442D01*
X0118867Y0120354D01*
X0118885Y0120266D01*
X0118901Y0120177D01*
X0118913Y0120087D01*
X0118921Y0119998D01*
X0118926Y0119907D01*
X0118928Y0119817D01*
X0117317Y0119817D02*
X0117319Y0119727D01*
X0117324Y0119636D01*
X0117332Y0119547D01*
X0117344Y0119457D01*
X0117360Y0119368D01*
X0117378Y0119280D01*
X0117400Y0119192D01*
X0117425Y0119105D01*
X0117454Y0119020D01*
X0117486Y0118935D01*
X0117521Y0118852D01*
X0117559Y0118770D01*
X0117478Y0119011D02*
X0118767Y0120622D01*
X0118122Y0121266D02*
X0118076Y0121264D01*
X0118030Y0121259D01*
X0117985Y0121250D01*
X0117940Y0121238D01*
X0117897Y0121222D01*
X0117855Y0121203D01*
X0117814Y0121180D01*
X0117776Y0121155D01*
X0117739Y0121127D01*
X0117705Y0121096D01*
X0117673Y0121062D01*
X0117644Y0121026D01*
X0117618Y0120988D01*
X0117595Y0120948D01*
X0117575Y0120906D01*
X0117558Y0120863D01*
X0118122Y0121266D02*
X0118168Y0121264D01*
X0118214Y0121259D01*
X0118259Y0121250D01*
X0118304Y0121238D01*
X0118347Y0121222D01*
X0118389Y0121203D01*
X0118430Y0121180D01*
X0118468Y0121155D01*
X0118505Y0121127D01*
X0118539Y0121096D01*
X0118571Y0121062D01*
X0118600Y0121026D01*
X0118626Y0120988D01*
X0118649Y0120948D01*
X0118669Y0120906D01*
X0118686Y0120863D01*
X0117559Y0120864D02*
X0117521Y0120782D01*
X0117486Y0120699D01*
X0117454Y0120614D01*
X0117425Y0120529D01*
X0117400Y0120442D01*
X0117378Y0120354D01*
X0117360Y0120266D01*
X0117344Y0120177D01*
X0117332Y0120087D01*
X0117324Y0119998D01*
X0117319Y0119907D01*
X0117317Y0119817D01*
X0118928Y0119817D02*
X0118926Y0119727D01*
X0118921Y0119636D01*
X0118913Y0119547D01*
X0118901Y0119457D01*
X0118885Y0119368D01*
X0118867Y0119280D01*
X0118845Y0119192D01*
X0118820Y0119105D01*
X0118791Y0119020D01*
X0118759Y0118935D01*
X0118724Y0118852D01*
X0118686Y0118770D01*
X0118669Y0118727D01*
X0118649Y0118685D01*
X0118626Y0118645D01*
X0118600Y0118607D01*
X0118571Y0118571D01*
X0118539Y0118537D01*
X0118505Y0118506D01*
X0118468Y0118478D01*
X0118430Y0118453D01*
X0118389Y0118430D01*
X0118347Y0118411D01*
X0118304Y0118395D01*
X0118259Y0118383D01*
X0118214Y0118374D01*
X0118168Y0118369D01*
X0118122Y0118367D01*
X0118076Y0118369D01*
X0118030Y0118374D01*
X0117985Y0118383D01*
X0117940Y0118395D01*
X0117897Y0118411D01*
X0117855Y0118430D01*
X0117814Y0118453D01*
X0117776Y0118478D01*
X0117739Y0118506D01*
X0117705Y0118537D01*
X0117673Y0118571D01*
X0117644Y0118607D01*
X0117618Y0118645D01*
X0117595Y0118685D01*
X0117575Y0118727D01*
X0117558Y0118770D01*
X0120841Y0118367D02*
X0120792Y0118369D01*
X0120743Y0118375D01*
X0120694Y0118384D01*
X0120647Y0118397D01*
X0120600Y0118414D01*
X0120555Y0118434D01*
X0120512Y0118457D01*
X0120470Y0118484D01*
X0120431Y0118514D01*
X0120394Y0118547D01*
X0120360Y0118583D01*
X0120329Y0118621D01*
X0120300Y0118661D01*
X0120275Y0118703D01*
X0120253Y0118748D01*
X0120235Y0118793D01*
X0120220Y0118840D01*
X0120209Y0118888D01*
X0120201Y0118937D01*
X0120197Y0118986D01*
X0120197Y0119036D01*
X0120201Y0119085D01*
X0120209Y0119134D01*
X0120220Y0119182D01*
X0120235Y0119229D01*
X0120253Y0119274D01*
X0120275Y0119319D01*
X0120300Y0119361D01*
X0120329Y0119401D01*
X0120360Y0119439D01*
X0120394Y0119475D01*
X0120431Y0119508D01*
X0120470Y0119538D01*
X0120512Y0119565D01*
X0120555Y0119588D01*
X0120600Y0119608D01*
X0120647Y0119625D01*
X0120694Y0119638D01*
X0120743Y0119647D01*
X0120792Y0119653D01*
X0120841Y0119655D01*
X0121486Y0119655D01*
X0121002Y0119655D02*
X0120947Y0119657D01*
X0120892Y0119663D01*
X0120838Y0119672D01*
X0120785Y0119685D01*
X0120732Y0119702D01*
X0120681Y0119722D01*
X0120631Y0119745D01*
X0120583Y0119772D01*
X0120537Y0119803D01*
X0120493Y0119836D01*
X0120452Y0119872D01*
X0120413Y0119911D01*
X0120377Y0119952D01*
X0120344Y0119996D01*
X0120313Y0120042D01*
X0120286Y0120090D01*
X0120263Y0120140D01*
X0120243Y0120191D01*
X0120226Y0120244D01*
X0120213Y0120297D01*
X0120204Y0120351D01*
X0120198Y0120406D01*
X0120196Y0120461D01*
X0120198Y0120516D01*
X0120204Y0120571D01*
X0120213Y0120625D01*
X0120226Y0120678D01*
X0120243Y0120731D01*
X0120263Y0120782D01*
X0120286Y0120832D01*
X0120313Y0120880D01*
X0120344Y0120926D01*
X0120377Y0120970D01*
X0120413Y0121011D01*
X0120452Y0121050D01*
X0120493Y0121086D01*
X0120537Y0121119D01*
X0120583Y0121150D01*
X0120631Y0121177D01*
X0120681Y0121200D01*
X0120732Y0121220D01*
X0120785Y0121237D01*
X0120838Y0121250D01*
X0120892Y0121259D01*
X0120947Y0121265D01*
X0121002Y0121267D01*
X0121808Y0121267D01*
X0121808Y0118367D02*
X0120841Y0118367D01*
X0123721Y0118367D02*
X0124688Y0118367D01*
X0123721Y0118367D02*
X0123672Y0118369D01*
X0123623Y0118375D01*
X0123574Y0118384D01*
X0123527Y0118397D01*
X0123480Y0118414D01*
X0123435Y0118434D01*
X0123392Y0118457D01*
X0123350Y0118484D01*
X0123311Y0118514D01*
X0123274Y0118547D01*
X0123240Y0118583D01*
X0123209Y0118621D01*
X0123180Y0118661D01*
X0123155Y0118703D01*
X0123133Y0118748D01*
X0123115Y0118793D01*
X0123100Y0118840D01*
X0123089Y0118888D01*
X0123081Y0118937D01*
X0123077Y0118986D01*
X0123077Y0119036D01*
X0123081Y0119085D01*
X0123089Y0119134D01*
X0123100Y0119182D01*
X0123115Y0119229D01*
X0123133Y0119274D01*
X0123155Y0119319D01*
X0123180Y0119361D01*
X0123209Y0119401D01*
X0123240Y0119439D01*
X0123274Y0119475D01*
X0123311Y0119508D01*
X0123350Y0119538D01*
X0123392Y0119565D01*
X0123435Y0119588D01*
X0123480Y0119608D01*
X0123527Y0119625D01*
X0123574Y0119638D01*
X0123623Y0119647D01*
X0123672Y0119653D01*
X0123721Y0119655D01*
X0124366Y0119655D01*
X0123882Y0119655D02*
X0123827Y0119657D01*
X0123772Y0119663D01*
X0123718Y0119672D01*
X0123665Y0119685D01*
X0123612Y0119702D01*
X0123561Y0119722D01*
X0123511Y0119745D01*
X0123463Y0119772D01*
X0123417Y0119803D01*
X0123373Y0119836D01*
X0123332Y0119872D01*
X0123293Y0119911D01*
X0123257Y0119952D01*
X0123224Y0119996D01*
X0123193Y0120042D01*
X0123166Y0120090D01*
X0123143Y0120140D01*
X0123123Y0120191D01*
X0123106Y0120244D01*
X0123093Y0120297D01*
X0123084Y0120351D01*
X0123078Y0120406D01*
X0123076Y0120461D01*
X0123078Y0120516D01*
X0123084Y0120571D01*
X0123093Y0120625D01*
X0123106Y0120678D01*
X0123123Y0120731D01*
X0123143Y0120782D01*
X0123166Y0120832D01*
X0123193Y0120880D01*
X0123224Y0120926D01*
X0123257Y0120970D01*
X0123293Y0121011D01*
X0123332Y0121050D01*
X0123373Y0121086D01*
X0123417Y0121119D01*
X0123463Y0121150D01*
X0123511Y0121177D01*
X0123561Y0121200D01*
X0123612Y0121220D01*
X0123665Y0121237D01*
X0123718Y0121250D01*
X0123772Y0121259D01*
X0123827Y0121265D01*
X0123882Y0121267D01*
X0124688Y0121267D01*
X0125590Y0249561D02*
X0125590Y0252461D01*
X0124301Y0252461D01*
X0123035Y0251816D02*
X0121746Y0250205D01*
X0121826Y0249964D02*
X0121843Y0249921D01*
X0121863Y0249879D01*
X0121886Y0249839D01*
X0121912Y0249801D01*
X0121941Y0249765D01*
X0121973Y0249731D01*
X0122007Y0249700D01*
X0122044Y0249672D01*
X0122082Y0249647D01*
X0122123Y0249624D01*
X0122165Y0249605D01*
X0122208Y0249589D01*
X0122253Y0249577D01*
X0122298Y0249568D01*
X0122344Y0249563D01*
X0122390Y0249561D01*
X0122436Y0249563D01*
X0122482Y0249568D01*
X0122527Y0249577D01*
X0122572Y0249589D01*
X0122615Y0249605D01*
X0122657Y0249624D01*
X0122698Y0249647D01*
X0122736Y0249672D01*
X0122773Y0249700D01*
X0122807Y0249731D01*
X0122839Y0249765D01*
X0122868Y0249801D01*
X0122894Y0249839D01*
X0122917Y0249879D01*
X0122937Y0249921D01*
X0122954Y0249964D01*
X0121827Y0249964D02*
X0121789Y0250046D01*
X0121754Y0250129D01*
X0121722Y0250214D01*
X0121693Y0250299D01*
X0121668Y0250386D01*
X0121646Y0250474D01*
X0121628Y0250562D01*
X0121612Y0250651D01*
X0121600Y0250741D01*
X0121592Y0250830D01*
X0121587Y0250921D01*
X0121585Y0251011D01*
X0123196Y0251011D02*
X0123194Y0250921D01*
X0123189Y0250830D01*
X0123181Y0250741D01*
X0123169Y0250651D01*
X0123153Y0250562D01*
X0123135Y0250474D01*
X0123113Y0250386D01*
X0123088Y0250299D01*
X0123059Y0250214D01*
X0123027Y0250129D01*
X0122992Y0250046D01*
X0122954Y0249964D01*
X0121585Y0251011D02*
X0121587Y0251101D01*
X0121592Y0251192D01*
X0121600Y0251281D01*
X0121612Y0251371D01*
X0121628Y0251460D01*
X0121646Y0251548D01*
X0121668Y0251636D01*
X0121693Y0251723D01*
X0121722Y0251808D01*
X0121754Y0251893D01*
X0121789Y0251976D01*
X0121827Y0252058D01*
X0122390Y0252461D02*
X0122436Y0252459D01*
X0122482Y0252454D01*
X0122527Y0252445D01*
X0122572Y0252433D01*
X0122615Y0252417D01*
X0122657Y0252398D01*
X0122698Y0252375D01*
X0122736Y0252350D01*
X0122773Y0252322D01*
X0122807Y0252291D01*
X0122839Y0252257D01*
X0122868Y0252221D01*
X0122894Y0252183D01*
X0122917Y0252143D01*
X0122937Y0252101D01*
X0122954Y0252058D01*
X0122390Y0252461D02*
X0122344Y0252459D01*
X0122298Y0252454D01*
X0122253Y0252445D01*
X0122208Y0252433D01*
X0122165Y0252417D01*
X0122123Y0252398D01*
X0122082Y0252375D01*
X0122044Y0252350D01*
X0122007Y0252322D01*
X0121973Y0252291D01*
X0121941Y0252257D01*
X0121912Y0252221D01*
X0121886Y0252183D01*
X0121863Y0252143D01*
X0121843Y0252101D01*
X0121826Y0252058D01*
X0122954Y0252058D02*
X0122992Y0251976D01*
X0123027Y0251893D01*
X0123059Y0251808D01*
X0123088Y0251723D01*
X0123113Y0251636D01*
X0123135Y0251548D01*
X0123153Y0251460D01*
X0123169Y0251371D01*
X0123181Y0251281D01*
X0123189Y0251192D01*
X0123194Y0251101D01*
X0123196Y0251011D01*
X0120316Y0250850D02*
X0120316Y0251655D01*
X0120316Y0250850D02*
X0119349Y0250850D01*
X0120316Y0250850D02*
X0120314Y0250780D01*
X0120308Y0250711D01*
X0120299Y0250641D01*
X0120286Y0250573D01*
X0120269Y0250505D01*
X0120249Y0250438D01*
X0120224Y0250373D01*
X0120197Y0250309D01*
X0120166Y0250246D01*
X0120131Y0250185D01*
X0120094Y0250127D01*
X0120053Y0250070D01*
X0120009Y0250016D01*
X0119963Y0249964D01*
X0119913Y0249914D01*
X0119861Y0249868D01*
X0119807Y0249824D01*
X0119750Y0249783D01*
X0119692Y0249746D01*
X0119631Y0249711D01*
X0119568Y0249680D01*
X0119504Y0249653D01*
X0119439Y0249628D01*
X0119372Y0249608D01*
X0119304Y0249591D01*
X0119236Y0249578D01*
X0119166Y0249569D01*
X0119097Y0249563D01*
X0119027Y0249561D01*
X0117436Y0250366D02*
X0117436Y0250527D01*
X0117435Y0250527D02*
X0117433Y0250575D01*
X0117428Y0250623D01*
X0117419Y0250670D01*
X0117406Y0250717D01*
X0117390Y0250762D01*
X0117371Y0250806D01*
X0117349Y0250849D01*
X0117323Y0250890D01*
X0117294Y0250929D01*
X0117263Y0250965D01*
X0117229Y0250999D01*
X0117193Y0251030D01*
X0117154Y0251059D01*
X0117113Y0251085D01*
X0117070Y0251107D01*
X0117026Y0251126D01*
X0116981Y0251142D01*
X0116934Y0251155D01*
X0116887Y0251164D01*
X0116839Y0251169D01*
X0116791Y0251171D01*
X0116791Y0251172D02*
X0115825Y0251172D01*
X0115825Y0250366D01*
X0115824Y0250366D02*
X0115826Y0250311D01*
X0115832Y0250256D01*
X0115841Y0250202D01*
X0115854Y0250149D01*
X0115871Y0250096D01*
X0115891Y0250045D01*
X0115914Y0249995D01*
X0115941Y0249947D01*
X0115972Y0249901D01*
X0116005Y0249857D01*
X0116041Y0249816D01*
X0116080Y0249777D01*
X0116121Y0249741D01*
X0116165Y0249708D01*
X0116211Y0249677D01*
X0116259Y0249650D01*
X0116309Y0249627D01*
X0116360Y0249607D01*
X0116413Y0249590D01*
X0116466Y0249577D01*
X0116520Y0249568D01*
X0116575Y0249562D01*
X0116630Y0249560D01*
X0116685Y0249562D01*
X0116740Y0249568D01*
X0116794Y0249577D01*
X0116847Y0249590D01*
X0116900Y0249607D01*
X0116951Y0249627D01*
X0117001Y0249650D01*
X0117049Y0249677D01*
X0117095Y0249708D01*
X0117139Y0249741D01*
X0117180Y0249777D01*
X0117219Y0249816D01*
X0117255Y0249857D01*
X0117288Y0249901D01*
X0117319Y0249947D01*
X0117346Y0249995D01*
X0117369Y0250045D01*
X0117389Y0250096D01*
X0117406Y0250149D01*
X0117419Y0250202D01*
X0117428Y0250256D01*
X0117434Y0250311D01*
X0117436Y0250366D01*
X0115825Y0251172D02*
X0115827Y0251242D01*
X0115833Y0251311D01*
X0115842Y0251381D01*
X0115855Y0251449D01*
X0115872Y0251517D01*
X0115892Y0251584D01*
X0115917Y0251649D01*
X0115944Y0251713D01*
X0115975Y0251776D01*
X0116010Y0251837D01*
X0116047Y0251895D01*
X0116088Y0251952D01*
X0116132Y0252006D01*
X0116178Y0252058D01*
X0116228Y0252108D01*
X0116280Y0252154D01*
X0116334Y0252198D01*
X0116391Y0252239D01*
X0116449Y0252276D01*
X0116510Y0252311D01*
X0116573Y0252342D01*
X0116637Y0252369D01*
X0116702Y0252394D01*
X0116769Y0252414D01*
X0116837Y0252431D01*
X0116905Y0252444D01*
X0116975Y0252453D01*
X0117044Y0252459D01*
X0117114Y0252461D01*
X0118705Y0251655D02*
X0118705Y0251494D01*
X0118707Y0251446D01*
X0118712Y0251398D01*
X0118721Y0251351D01*
X0118734Y0251304D01*
X0118750Y0251259D01*
X0118769Y0251215D01*
X0118791Y0251172D01*
X0118817Y0251131D01*
X0118846Y0251092D01*
X0118877Y0251056D01*
X0118911Y0251022D01*
X0118947Y0250991D01*
X0118986Y0250962D01*
X0119027Y0250936D01*
X0119070Y0250914D01*
X0119114Y0250895D01*
X0119159Y0250879D01*
X0119206Y0250866D01*
X0119253Y0250857D01*
X0119301Y0250852D01*
X0119349Y0250850D01*
X0118704Y0251655D02*
X0118706Y0251710D01*
X0118712Y0251765D01*
X0118721Y0251819D01*
X0118734Y0251872D01*
X0118751Y0251925D01*
X0118771Y0251976D01*
X0118794Y0252026D01*
X0118821Y0252074D01*
X0118852Y0252120D01*
X0118885Y0252164D01*
X0118921Y0252205D01*
X0118960Y0252244D01*
X0119001Y0252280D01*
X0119045Y0252313D01*
X0119091Y0252344D01*
X0119139Y0252371D01*
X0119189Y0252394D01*
X0119240Y0252414D01*
X0119293Y0252431D01*
X0119346Y0252444D01*
X0119400Y0252453D01*
X0119455Y0252459D01*
X0119510Y0252461D01*
X0119565Y0252459D01*
X0119620Y0252453D01*
X0119674Y0252444D01*
X0119727Y0252431D01*
X0119780Y0252414D01*
X0119831Y0252394D01*
X0119881Y0252371D01*
X0119929Y0252344D01*
X0119975Y0252313D01*
X0120019Y0252280D01*
X0120060Y0252244D01*
X0120099Y0252205D01*
X0120135Y0252164D01*
X0120168Y0252120D01*
X0120199Y0252074D01*
X0120226Y0252026D01*
X0120249Y0251976D01*
X0120269Y0251925D01*
X0120286Y0251872D01*
X0120299Y0251819D01*
X0120308Y0251765D01*
X0120314Y0251710D01*
X0120316Y0251655D01*
X0126769Y0249561D02*
X0128380Y0249561D01*
X0127574Y0249561D02*
X0127574Y0252461D01*
X0087923Y0275681D02*
X0087885Y0275763D01*
X0087850Y0275846D01*
X0087818Y0275931D01*
X0087789Y0276016D01*
X0087764Y0276103D01*
X0087742Y0276191D01*
X0087724Y0276279D01*
X0087708Y0276368D01*
X0087696Y0276458D01*
X0087688Y0276547D01*
X0087683Y0276638D01*
X0087681Y0276728D01*
X0089293Y0276728D02*
X0089291Y0276818D01*
X0089286Y0276909D01*
X0089278Y0276998D01*
X0089266Y0277088D01*
X0089250Y0277177D01*
X0089232Y0277265D01*
X0089210Y0277353D01*
X0089185Y0277440D01*
X0089156Y0277525D01*
X0089124Y0277610D01*
X0089089Y0277693D01*
X0089051Y0277775D01*
X0089131Y0277534D02*
X0087842Y0275923D01*
X0087923Y0275682D02*
X0087940Y0275639D01*
X0087960Y0275597D01*
X0087983Y0275557D01*
X0088009Y0275519D01*
X0088038Y0275483D01*
X0088070Y0275449D01*
X0088104Y0275418D01*
X0088141Y0275390D01*
X0088179Y0275365D01*
X0088220Y0275342D01*
X0088262Y0275323D01*
X0088305Y0275307D01*
X0088350Y0275295D01*
X0088395Y0275286D01*
X0088441Y0275281D01*
X0088487Y0275279D01*
X0088487Y0275278D02*
X0088533Y0275280D01*
X0088579Y0275285D01*
X0088624Y0275294D01*
X0088669Y0275306D01*
X0088712Y0275322D01*
X0088754Y0275341D01*
X0088795Y0275364D01*
X0088833Y0275389D01*
X0088870Y0275417D01*
X0088904Y0275448D01*
X0088936Y0275482D01*
X0088965Y0275518D01*
X0088991Y0275556D01*
X0089014Y0275596D01*
X0089034Y0275638D01*
X0089051Y0275681D01*
X0087681Y0276728D02*
X0087683Y0276818D01*
X0087688Y0276909D01*
X0087696Y0276998D01*
X0087708Y0277088D01*
X0087724Y0277177D01*
X0087742Y0277265D01*
X0087764Y0277353D01*
X0087789Y0277440D01*
X0087818Y0277525D01*
X0087850Y0277610D01*
X0087885Y0277693D01*
X0087923Y0277775D01*
X0088487Y0278178D02*
X0088533Y0278176D01*
X0088579Y0278171D01*
X0088624Y0278162D01*
X0088669Y0278150D01*
X0088712Y0278134D01*
X0088754Y0278115D01*
X0088795Y0278092D01*
X0088833Y0278067D01*
X0088870Y0278039D01*
X0088904Y0278008D01*
X0088936Y0277974D01*
X0088965Y0277938D01*
X0088991Y0277900D01*
X0089014Y0277860D01*
X0089034Y0277818D01*
X0089051Y0277775D01*
X0088487Y0278178D02*
X0088441Y0278176D01*
X0088395Y0278171D01*
X0088350Y0278162D01*
X0088305Y0278150D01*
X0088262Y0278134D01*
X0088220Y0278115D01*
X0088179Y0278092D01*
X0088141Y0278067D01*
X0088104Y0278039D01*
X0088070Y0278008D01*
X0088038Y0277974D01*
X0088009Y0277938D01*
X0087983Y0277900D01*
X0087960Y0277860D01*
X0087940Y0277818D01*
X0087923Y0277775D01*
X0089292Y0276728D02*
X0089290Y0276638D01*
X0089285Y0276547D01*
X0089277Y0276458D01*
X0089265Y0276368D01*
X0089249Y0276279D01*
X0089231Y0276191D01*
X0089209Y0276103D01*
X0089184Y0276016D01*
X0089155Y0275931D01*
X0089123Y0275846D01*
X0089088Y0275763D01*
X0089050Y0275681D01*
X0085607Y0275278D02*
X0086412Y0278178D01*
X0084801Y0278178D01*
X0084801Y0277856D01*
X0083671Y0275440D02*
X0083671Y0275278D01*
X0083510Y0275278D01*
X0083510Y0275440D01*
X0083671Y0275440D01*
X0082381Y0276084D02*
X0082379Y0276029D01*
X0082373Y0275974D01*
X0082364Y0275920D01*
X0082351Y0275867D01*
X0082334Y0275814D01*
X0082314Y0275763D01*
X0082291Y0275713D01*
X0082264Y0275665D01*
X0082233Y0275619D01*
X0082200Y0275575D01*
X0082164Y0275534D01*
X0082125Y0275495D01*
X0082084Y0275459D01*
X0082040Y0275426D01*
X0081994Y0275395D01*
X0081946Y0275368D01*
X0081896Y0275345D01*
X0081845Y0275325D01*
X0081792Y0275308D01*
X0081739Y0275295D01*
X0081685Y0275286D01*
X0081630Y0275280D01*
X0081575Y0275278D01*
X0081520Y0275280D01*
X0081465Y0275286D01*
X0081411Y0275295D01*
X0081358Y0275308D01*
X0081305Y0275325D01*
X0081254Y0275345D01*
X0081204Y0275368D01*
X0081156Y0275395D01*
X0081110Y0275426D01*
X0081066Y0275459D01*
X0081025Y0275495D01*
X0080986Y0275534D01*
X0080950Y0275575D01*
X0080917Y0275619D01*
X0080886Y0275665D01*
X0080859Y0275713D01*
X0080836Y0275763D01*
X0080816Y0275814D01*
X0080799Y0275867D01*
X0080786Y0275920D01*
X0080777Y0275974D01*
X0080771Y0276029D01*
X0080769Y0276084D01*
X0080771Y0276139D01*
X0080777Y0276194D01*
X0080786Y0276248D01*
X0080799Y0276301D01*
X0080816Y0276354D01*
X0080836Y0276405D01*
X0080859Y0276455D01*
X0080886Y0276503D01*
X0080917Y0276549D01*
X0080950Y0276593D01*
X0080986Y0276634D01*
X0081025Y0276673D01*
X0081066Y0276709D01*
X0081110Y0276742D01*
X0081156Y0276773D01*
X0081204Y0276800D01*
X0081254Y0276823D01*
X0081305Y0276843D01*
X0081358Y0276860D01*
X0081411Y0276873D01*
X0081465Y0276882D01*
X0081520Y0276888D01*
X0081575Y0276890D01*
X0081630Y0276888D01*
X0081685Y0276882D01*
X0081739Y0276873D01*
X0081792Y0276860D01*
X0081845Y0276843D01*
X0081896Y0276823D01*
X0081946Y0276800D01*
X0081994Y0276773D01*
X0082040Y0276742D01*
X0082084Y0276709D01*
X0082125Y0276673D01*
X0082164Y0276634D01*
X0082200Y0276593D01*
X0082233Y0276549D01*
X0082264Y0276503D01*
X0082291Y0276455D01*
X0082314Y0276405D01*
X0082334Y0276354D01*
X0082351Y0276301D01*
X0082364Y0276248D01*
X0082373Y0276194D01*
X0082379Y0276139D01*
X0082381Y0276084D01*
X0082219Y0277534D02*
X0082217Y0277485D01*
X0082211Y0277436D01*
X0082202Y0277387D01*
X0082189Y0277340D01*
X0082172Y0277293D01*
X0082152Y0277248D01*
X0082129Y0277205D01*
X0082102Y0277163D01*
X0082072Y0277124D01*
X0082039Y0277087D01*
X0082003Y0277053D01*
X0081965Y0277022D01*
X0081925Y0276993D01*
X0081883Y0276968D01*
X0081838Y0276946D01*
X0081793Y0276928D01*
X0081746Y0276913D01*
X0081698Y0276902D01*
X0081649Y0276894D01*
X0081600Y0276890D01*
X0081550Y0276890D01*
X0081501Y0276894D01*
X0081452Y0276902D01*
X0081404Y0276913D01*
X0081357Y0276928D01*
X0081312Y0276946D01*
X0081267Y0276968D01*
X0081225Y0276993D01*
X0081185Y0277022D01*
X0081147Y0277053D01*
X0081111Y0277087D01*
X0081078Y0277124D01*
X0081048Y0277163D01*
X0081021Y0277205D01*
X0080998Y0277248D01*
X0080978Y0277293D01*
X0080961Y0277340D01*
X0080948Y0277387D01*
X0080939Y0277436D01*
X0080933Y0277485D01*
X0080931Y0277534D01*
X0080933Y0277583D01*
X0080939Y0277632D01*
X0080948Y0277681D01*
X0080961Y0277728D01*
X0080978Y0277775D01*
X0080998Y0277820D01*
X0081021Y0277863D01*
X0081048Y0277905D01*
X0081078Y0277944D01*
X0081111Y0277981D01*
X0081147Y0278015D01*
X0081185Y0278046D01*
X0081225Y0278075D01*
X0081267Y0278100D01*
X0081312Y0278122D01*
X0081357Y0278140D01*
X0081404Y0278155D01*
X0081452Y0278166D01*
X0081501Y0278174D01*
X0081550Y0278178D01*
X0081600Y0278178D01*
X0081649Y0278174D01*
X0081698Y0278166D01*
X0081746Y0278155D01*
X0081793Y0278140D01*
X0081838Y0278122D01*
X0081883Y0278100D01*
X0081925Y0278075D01*
X0081965Y0278046D01*
X0082003Y0278015D01*
X0082039Y0277981D01*
X0082072Y0277944D01*
X0082102Y0277905D01*
X0082129Y0277863D01*
X0082152Y0277820D01*
X0082172Y0277775D01*
X0082189Y0277728D01*
X0082202Y0277681D01*
X0082211Y0277632D01*
X0082217Y0277583D01*
X0082219Y0277534D01*
X0079259Y0276890D02*
X0077889Y0275278D01*
X0079500Y0275278D01*
X0077889Y0277534D02*
X0077909Y0277589D01*
X0077932Y0277643D01*
X0077959Y0277695D01*
X0077989Y0277745D01*
X0078021Y0277794D01*
X0078057Y0277840D01*
X0078096Y0277884D01*
X0078137Y0277925D01*
X0078181Y0277964D01*
X0078227Y0278000D01*
X0078276Y0278033D01*
X0078326Y0278063D01*
X0078378Y0278089D01*
X0078432Y0278113D01*
X0078487Y0278132D01*
X0078543Y0278149D01*
X0078600Y0278161D01*
X0078658Y0278171D01*
X0078716Y0278176D01*
X0078775Y0278178D01*
X0078827Y0278176D01*
X0078878Y0278171D01*
X0078929Y0278161D01*
X0078979Y0278149D01*
X0079028Y0278132D01*
X0079076Y0278112D01*
X0079122Y0278089D01*
X0079167Y0278063D01*
X0079209Y0278033D01*
X0079250Y0278001D01*
X0079288Y0277966D01*
X0079323Y0277928D01*
X0079355Y0277887D01*
X0079385Y0277845D01*
X0079411Y0277800D01*
X0079434Y0277754D01*
X0079454Y0277706D01*
X0079471Y0277657D01*
X0079483Y0277607D01*
X0079493Y0277556D01*
X0079498Y0277505D01*
X0079500Y0277453D01*
X0079501Y0277453D02*
X0079499Y0277400D01*
X0079494Y0277348D01*
X0079485Y0277296D01*
X0079473Y0277245D01*
X0079457Y0277195D01*
X0079438Y0277146D01*
X0079416Y0277099D01*
X0079390Y0277053D01*
X0079362Y0277008D01*
X0079330Y0276966D01*
X0079296Y0276926D01*
X0079259Y0276889D01*
D13*
X0083042Y0260360D02*
X0083042Y0253273D01*
X0083042Y0249848D02*
X0087963Y0249848D01*
X0087963Y0253273D02*
X0087963Y0260360D01*
X0121459Y0211903D02*
X0121459Y0197730D01*
X0128546Y0197730D01*
X0128546Y0211903D01*
X0121459Y0211903D01*
X0128483Y0158163D02*
X0113522Y0158163D01*
X0113522Y0151470D01*
X0128483Y0151470D01*
X0128483Y0158163D01*
X0128483Y0145663D02*
X0113522Y0145663D01*
X0113522Y0138970D01*
X0128483Y0138970D01*
X0128483Y0145663D01*
X0121790Y0143891D02*
X0121790Y0140742D01*
X0120215Y0142317D01*
X0121790Y0143891D01*
X0120215Y0143891D02*
X0120215Y0142317D01*
X0120215Y0140742D01*
X0120215Y0153242D02*
X0120215Y0154817D01*
X0121790Y0156391D01*
X0121790Y0153242D01*
X0120215Y0154817D01*
X0120215Y0156391D01*
X0113916Y0117860D02*
X0128089Y0117860D01*
X0128089Y0110773D01*
X0113916Y0110773D01*
X0113916Y0117860D01*
X0061046Y0155230D02*
X0053959Y0155230D01*
X0053959Y0169403D01*
X0061046Y0169403D01*
X0061046Y0155230D01*
X0051589Y0149860D02*
X0051589Y0142773D01*
X0037416Y0142773D01*
X0037416Y0149860D01*
X0051589Y0149860D01*
X0051983Y0134663D02*
X0037022Y0134663D01*
X0037022Y0127970D01*
X0051983Y0127970D01*
X0051983Y0134663D01*
X0045290Y0132891D02*
X0045290Y0129742D01*
X0043715Y0131317D01*
X0045290Y0132891D01*
X0043715Y0132891D02*
X0043715Y0131317D01*
X0043715Y0129742D01*
X0043502Y0106817D02*
X0051550Y0106817D01*
X0040502Y0094817D02*
X0040504Y0094989D01*
X0040510Y0095160D01*
X0040521Y0095332D01*
X0040536Y0095503D01*
X0040555Y0095674D01*
X0040578Y0095844D01*
X0040605Y0096014D01*
X0040637Y0096183D01*
X0040672Y0096351D01*
X0040712Y0096518D01*
X0040756Y0096684D01*
X0040803Y0096849D01*
X0040855Y0097013D01*
X0040911Y0097175D01*
X0040971Y0097336D01*
X0041035Y0097496D01*
X0041103Y0097654D01*
X0041174Y0097810D01*
X0041249Y0097964D01*
X0041329Y0098117D01*
X0041411Y0098267D01*
X0041498Y0098416D01*
X0041588Y0098562D01*
X0041682Y0098706D01*
X0041779Y0098848D01*
X0041880Y0098987D01*
X0041984Y0099124D01*
X0042091Y0099258D01*
X0042202Y0099389D01*
X0042315Y0099518D01*
X0042432Y0099644D01*
X0042552Y0099767D01*
X0042675Y0099887D01*
X0042801Y0100004D01*
X0042930Y0100117D01*
X0043061Y0100228D01*
X0043195Y0100335D01*
X0043332Y0100439D01*
X0043471Y0100540D01*
X0043613Y0100637D01*
X0043757Y0100731D01*
X0043903Y0100821D01*
X0044052Y0100908D01*
X0044202Y0100990D01*
X0044355Y0101070D01*
X0044509Y0101145D01*
X0044665Y0101216D01*
X0044823Y0101284D01*
X0044983Y0101348D01*
X0045144Y0101408D01*
X0045306Y0101464D01*
X0045470Y0101516D01*
X0045635Y0101563D01*
X0045801Y0101607D01*
X0045968Y0101647D01*
X0046136Y0101682D01*
X0046305Y0101714D01*
X0046475Y0101741D01*
X0046645Y0101764D01*
X0046816Y0101783D01*
X0046987Y0101798D01*
X0047159Y0101809D01*
X0047330Y0101815D01*
X0047502Y0101817D01*
X0047674Y0101815D01*
X0047845Y0101809D01*
X0048017Y0101798D01*
X0048188Y0101783D01*
X0048359Y0101764D01*
X0048529Y0101741D01*
X0048699Y0101714D01*
X0048868Y0101682D01*
X0049036Y0101647D01*
X0049203Y0101607D01*
X0049369Y0101563D01*
X0049534Y0101516D01*
X0049698Y0101464D01*
X0049860Y0101408D01*
X0050021Y0101348D01*
X0050181Y0101284D01*
X0050339Y0101216D01*
X0050495Y0101145D01*
X0050649Y0101070D01*
X0050802Y0100990D01*
X0050952Y0100908D01*
X0051101Y0100821D01*
X0051247Y0100731D01*
X0051391Y0100637D01*
X0051533Y0100540D01*
X0051672Y0100439D01*
X0051809Y0100335D01*
X0051943Y0100228D01*
X0052074Y0100117D01*
X0052203Y0100004D01*
X0052329Y0099887D01*
X0052452Y0099767D01*
X0052572Y0099644D01*
X0052689Y0099518D01*
X0052802Y0099389D01*
X0052913Y0099258D01*
X0053020Y0099124D01*
X0053124Y0098987D01*
X0053225Y0098848D01*
X0053322Y0098706D01*
X0053416Y0098562D01*
X0053506Y0098416D01*
X0053593Y0098267D01*
X0053675Y0098117D01*
X0053755Y0097964D01*
X0053830Y0097810D01*
X0053901Y0097654D01*
X0053969Y0097496D01*
X0054033Y0097336D01*
X0054093Y0097175D01*
X0054149Y0097013D01*
X0054201Y0096849D01*
X0054248Y0096684D01*
X0054292Y0096518D01*
X0054332Y0096351D01*
X0054367Y0096183D01*
X0054399Y0096014D01*
X0054426Y0095844D01*
X0054449Y0095674D01*
X0054468Y0095503D01*
X0054483Y0095332D01*
X0054494Y0095160D01*
X0054500Y0094989D01*
X0054502Y0094817D01*
X0054500Y0094645D01*
X0054494Y0094474D01*
X0054483Y0094302D01*
X0054468Y0094131D01*
X0054449Y0093960D01*
X0054426Y0093790D01*
X0054399Y0093620D01*
X0054367Y0093451D01*
X0054332Y0093283D01*
X0054292Y0093116D01*
X0054248Y0092950D01*
X0054201Y0092785D01*
X0054149Y0092621D01*
X0054093Y0092459D01*
X0054033Y0092298D01*
X0053969Y0092138D01*
X0053901Y0091980D01*
X0053830Y0091824D01*
X0053755Y0091670D01*
X0053675Y0091517D01*
X0053593Y0091367D01*
X0053506Y0091218D01*
X0053416Y0091072D01*
X0053322Y0090928D01*
X0053225Y0090786D01*
X0053124Y0090647D01*
X0053020Y0090510D01*
X0052913Y0090376D01*
X0052802Y0090245D01*
X0052689Y0090116D01*
X0052572Y0089990D01*
X0052452Y0089867D01*
X0052329Y0089747D01*
X0052203Y0089630D01*
X0052074Y0089517D01*
X0051943Y0089406D01*
X0051809Y0089299D01*
X0051672Y0089195D01*
X0051533Y0089094D01*
X0051391Y0088997D01*
X0051247Y0088903D01*
X0051101Y0088813D01*
X0050952Y0088726D01*
X0050802Y0088644D01*
X0050649Y0088564D01*
X0050495Y0088489D01*
X0050339Y0088418D01*
X0050181Y0088350D01*
X0050021Y0088286D01*
X0049860Y0088226D01*
X0049698Y0088170D01*
X0049534Y0088118D01*
X0049369Y0088071D01*
X0049203Y0088027D01*
X0049036Y0087987D01*
X0048868Y0087952D01*
X0048699Y0087920D01*
X0048529Y0087893D01*
X0048359Y0087870D01*
X0048188Y0087851D01*
X0048017Y0087836D01*
X0047845Y0087825D01*
X0047674Y0087819D01*
X0047502Y0087817D01*
X0047330Y0087819D01*
X0047159Y0087825D01*
X0046987Y0087836D01*
X0046816Y0087851D01*
X0046645Y0087870D01*
X0046475Y0087893D01*
X0046305Y0087920D01*
X0046136Y0087952D01*
X0045968Y0087987D01*
X0045801Y0088027D01*
X0045635Y0088071D01*
X0045470Y0088118D01*
X0045306Y0088170D01*
X0045144Y0088226D01*
X0044983Y0088286D01*
X0044823Y0088350D01*
X0044665Y0088418D01*
X0044509Y0088489D01*
X0044355Y0088564D01*
X0044202Y0088644D01*
X0044052Y0088726D01*
X0043903Y0088813D01*
X0043757Y0088903D01*
X0043613Y0088997D01*
X0043471Y0089094D01*
X0043332Y0089195D01*
X0043195Y0089299D01*
X0043061Y0089406D01*
X0042930Y0089517D01*
X0042801Y0089630D01*
X0042675Y0089747D01*
X0042552Y0089867D01*
X0042432Y0089990D01*
X0042315Y0090116D01*
X0042202Y0090245D01*
X0042091Y0090376D01*
X0041984Y0090510D01*
X0041880Y0090647D01*
X0041779Y0090786D01*
X0041682Y0090928D01*
X0041588Y0091072D01*
X0041498Y0091218D01*
X0041411Y0091367D01*
X0041329Y0091517D01*
X0041249Y0091670D01*
X0041174Y0091824D01*
X0041103Y0091980D01*
X0041035Y0092138D01*
X0040971Y0092298D01*
X0040911Y0092459D01*
X0040855Y0092621D01*
X0040803Y0092785D01*
X0040756Y0092950D01*
X0040712Y0093116D01*
X0040672Y0093283D01*
X0040637Y0093451D01*
X0040605Y0093620D01*
X0040578Y0093790D01*
X0040555Y0093960D01*
X0040536Y0094131D01*
X0040521Y0094302D01*
X0040510Y0094474D01*
X0040504Y0094645D01*
X0040502Y0094817D01*
X0035502Y0103317D02*
X0035502Y0086317D01*
X0043502Y0082817D02*
X0051431Y0082817D01*
X0059502Y0086317D02*
X0059502Y0103317D01*
D14*
X0069487Y0113844D02*
X0069487Y0154789D01*
X0092518Y0154789D01*
X0092518Y0113844D01*
X0069487Y0113844D01*
X0051391Y0137016D02*
X0051436Y0137018D01*
X0051481Y0137023D01*
X0051526Y0137032D01*
X0051570Y0137044D01*
X0051612Y0137060D01*
X0051653Y0137079D01*
X0051693Y0137101D01*
X0051731Y0137126D01*
X0051766Y0137154D01*
X0051800Y0137185D01*
X0051831Y0137219D01*
X0051859Y0137254D01*
X0051884Y0137292D01*
X0051906Y0137332D01*
X0051925Y0137373D01*
X0051941Y0137415D01*
X0051953Y0137459D01*
X0051962Y0137504D01*
X0051967Y0137549D01*
X0051969Y0137594D01*
X0051679Y0138100D02*
X0050885Y0138533D01*
X0051174Y0139617D02*
X0051243Y0139615D01*
X0051311Y0139609D01*
X0051380Y0139600D01*
X0051447Y0139586D01*
X0051514Y0139569D01*
X0051579Y0139548D01*
X0051644Y0139523D01*
X0051706Y0139495D01*
X0051767Y0139463D01*
X0051827Y0139428D01*
X0051884Y0139389D01*
X0051939Y0139348D01*
X0051991Y0139303D01*
X0052041Y0139256D01*
X0050885Y0138533D02*
X0050846Y0138559D01*
X0050808Y0138587D01*
X0050773Y0138618D01*
X0050741Y0138652D01*
X0050712Y0138689D01*
X0050685Y0138728D01*
X0050662Y0138768D01*
X0050642Y0138811D01*
X0050626Y0138855D01*
X0050613Y0138900D01*
X0050603Y0138946D01*
X0050598Y0138992D01*
X0050596Y0139039D01*
X0050598Y0139084D01*
X0050603Y0139129D01*
X0050612Y0139174D01*
X0050624Y0139218D01*
X0050640Y0139260D01*
X0050659Y0139301D01*
X0050681Y0139341D01*
X0050706Y0139379D01*
X0050734Y0139414D01*
X0050765Y0139448D01*
X0050799Y0139479D01*
X0050834Y0139507D01*
X0050872Y0139532D01*
X0050912Y0139554D01*
X0050953Y0139573D01*
X0050995Y0139589D01*
X0051039Y0139601D01*
X0051084Y0139610D01*
X0051129Y0139615D01*
X0051174Y0139617D01*
X0050741Y0137234D02*
X0050793Y0137197D01*
X0050847Y0137164D01*
X0050902Y0137133D01*
X0050960Y0137107D01*
X0051019Y0137083D01*
X0051079Y0137063D01*
X0051140Y0137047D01*
X0051202Y0137034D01*
X0051265Y0137024D01*
X0051328Y0137019D01*
X0051391Y0137017D01*
X0051969Y0137594D02*
X0051967Y0137641D01*
X0051962Y0137687D01*
X0051952Y0137733D01*
X0051939Y0137778D01*
X0051923Y0137822D01*
X0051903Y0137865D01*
X0051880Y0137905D01*
X0051853Y0137944D01*
X0051824Y0137981D01*
X0051792Y0138015D01*
X0051757Y0138046D01*
X0051719Y0138074D01*
X0051680Y0138100D01*
X0049449Y0137017D02*
X0048004Y0137017D01*
X0048726Y0137017D02*
X0048726Y0139617D01*
X0046905Y0139617D02*
X0046038Y0137017D01*
X0045172Y0139617D01*
X0045388Y0138967D02*
X0046688Y0138967D01*
X0044073Y0137017D02*
X0042628Y0137017D01*
X0043350Y0137017D02*
X0043350Y0139617D01*
X0041289Y0138894D02*
X0041289Y0137017D01*
X0039844Y0137017D02*
X0039844Y0138894D01*
X0039846Y0138947D01*
X0039852Y0138999D01*
X0039861Y0139051D01*
X0039875Y0139102D01*
X0039892Y0139152D01*
X0039912Y0139200D01*
X0039936Y0139247D01*
X0039964Y0139292D01*
X0039995Y0139335D01*
X0040028Y0139376D01*
X0040065Y0139414D01*
X0040104Y0139449D01*
X0040146Y0139481D01*
X0040190Y0139510D01*
X0040236Y0139536D01*
X0040284Y0139558D01*
X0040333Y0139577D01*
X0040383Y0139593D01*
X0040435Y0139604D01*
X0040487Y0139612D01*
X0040540Y0139616D01*
X0040592Y0139616D01*
X0040645Y0139612D01*
X0040697Y0139604D01*
X0040749Y0139593D01*
X0040799Y0139577D01*
X0040848Y0139558D01*
X0040896Y0139536D01*
X0040942Y0139510D01*
X0040986Y0139481D01*
X0041028Y0139449D01*
X0041067Y0139414D01*
X0041104Y0139376D01*
X0041137Y0139335D01*
X0041168Y0139292D01*
X0041196Y0139247D01*
X0041220Y0139200D01*
X0041240Y0139152D01*
X0041257Y0139102D01*
X0041271Y0139051D01*
X0041280Y0138999D01*
X0041286Y0138947D01*
X0041288Y0138894D01*
X0038047Y0138100D02*
X0037253Y0138533D01*
X0037542Y0139617D02*
X0037611Y0139615D01*
X0037679Y0139609D01*
X0037748Y0139600D01*
X0037815Y0139586D01*
X0037882Y0139569D01*
X0037947Y0139548D01*
X0038012Y0139523D01*
X0038074Y0139495D01*
X0038135Y0139463D01*
X0038195Y0139428D01*
X0038252Y0139389D01*
X0038307Y0139348D01*
X0038359Y0139303D01*
X0038409Y0139256D01*
X0037253Y0138533D02*
X0037214Y0138559D01*
X0037176Y0138587D01*
X0037141Y0138618D01*
X0037109Y0138652D01*
X0037080Y0138689D01*
X0037053Y0138728D01*
X0037030Y0138768D01*
X0037010Y0138811D01*
X0036994Y0138855D01*
X0036981Y0138900D01*
X0036971Y0138946D01*
X0036966Y0138992D01*
X0036964Y0139039D01*
X0036966Y0139084D01*
X0036971Y0139129D01*
X0036980Y0139174D01*
X0036992Y0139218D01*
X0037008Y0139260D01*
X0037027Y0139301D01*
X0037049Y0139341D01*
X0037074Y0139379D01*
X0037102Y0139414D01*
X0037133Y0139448D01*
X0037167Y0139479D01*
X0037202Y0139507D01*
X0037240Y0139532D01*
X0037280Y0139554D01*
X0037321Y0139573D01*
X0037363Y0139589D01*
X0037407Y0139601D01*
X0037452Y0139610D01*
X0037497Y0139615D01*
X0037542Y0139617D01*
X0037109Y0137234D02*
X0037161Y0137197D01*
X0037215Y0137164D01*
X0037270Y0137133D01*
X0037328Y0137107D01*
X0037387Y0137083D01*
X0037447Y0137063D01*
X0037508Y0137047D01*
X0037570Y0137034D01*
X0037633Y0137024D01*
X0037696Y0137019D01*
X0037759Y0137017D01*
X0037759Y0137016D02*
X0037804Y0137018D01*
X0037849Y0137023D01*
X0037894Y0137032D01*
X0037938Y0137044D01*
X0037980Y0137060D01*
X0038021Y0137079D01*
X0038061Y0137101D01*
X0038099Y0137126D01*
X0038134Y0137154D01*
X0038168Y0137185D01*
X0038199Y0137219D01*
X0038227Y0137254D01*
X0038252Y0137292D01*
X0038274Y0137332D01*
X0038293Y0137373D01*
X0038309Y0137415D01*
X0038321Y0137459D01*
X0038330Y0137504D01*
X0038335Y0137549D01*
X0038337Y0137594D01*
X0038335Y0137641D01*
X0038330Y0137687D01*
X0038320Y0137733D01*
X0038307Y0137778D01*
X0038291Y0137822D01*
X0038271Y0137865D01*
X0038248Y0137905D01*
X0038221Y0137944D01*
X0038192Y0137981D01*
X0038160Y0138015D01*
X0038125Y0138046D01*
X0038087Y0138074D01*
X0038048Y0138100D01*
X0040960Y0125617D02*
X0040960Y0124317D01*
X0040961Y0124317D02*
X0040963Y0124277D01*
X0040968Y0124237D01*
X0040978Y0124199D01*
X0040990Y0124161D01*
X0041006Y0124124D01*
X0041026Y0124089D01*
X0041048Y0124056D01*
X0041074Y0124025D01*
X0041102Y0123997D01*
X0041133Y0123971D01*
X0041166Y0123949D01*
X0041201Y0123929D01*
X0041238Y0123913D01*
X0041276Y0123901D01*
X0041314Y0123891D01*
X0041354Y0123886D01*
X0041394Y0123884D01*
X0041394Y0123883D02*
X0042116Y0123883D01*
X0042116Y0125617D01*
X0043600Y0125617D02*
X0045044Y0125617D01*
X0044322Y0125617D02*
X0044322Y0123017D01*
X0045044Y0123594D01*
X0034302Y0099485D02*
X0031702Y0099485D01*
X0031702Y0098763D02*
X0031702Y0100207D01*
X0031702Y0097720D02*
X0031702Y0096564D01*
X0034302Y0096564D01*
X0034302Y0097720D01*
X0032858Y0097431D02*
X0032858Y0096564D01*
X0033219Y0094830D02*
X0032786Y0094036D01*
X0031703Y0094325D02*
X0031705Y0094388D01*
X0031710Y0094451D01*
X0031720Y0094514D01*
X0031733Y0094576D01*
X0031749Y0094637D01*
X0031769Y0094697D01*
X0031793Y0094756D01*
X0031819Y0094814D01*
X0031850Y0094869D01*
X0031883Y0094923D01*
X0031920Y0094975D01*
X0032786Y0094036D02*
X0032760Y0093997D01*
X0032732Y0093959D01*
X0032701Y0093924D01*
X0032667Y0093892D01*
X0032630Y0093863D01*
X0032591Y0093836D01*
X0032551Y0093813D01*
X0032508Y0093793D01*
X0032464Y0093777D01*
X0032419Y0093764D01*
X0032373Y0093754D01*
X0032327Y0093749D01*
X0032280Y0093747D01*
X0032235Y0093749D01*
X0032190Y0093754D01*
X0032145Y0093763D01*
X0032101Y0093775D01*
X0032059Y0093791D01*
X0032018Y0093810D01*
X0031978Y0093832D01*
X0031940Y0093857D01*
X0031905Y0093885D01*
X0031871Y0093916D01*
X0031840Y0093950D01*
X0031812Y0093985D01*
X0031787Y0094023D01*
X0031765Y0094063D01*
X0031746Y0094104D01*
X0031730Y0094146D01*
X0031718Y0094190D01*
X0031709Y0094235D01*
X0031704Y0094280D01*
X0031702Y0094325D01*
X0033942Y0093675D02*
X0033989Y0093725D01*
X0034034Y0093777D01*
X0034075Y0093832D01*
X0034114Y0093889D01*
X0034149Y0093949D01*
X0034181Y0094010D01*
X0034209Y0094072D01*
X0034234Y0094137D01*
X0034255Y0094202D01*
X0034272Y0094269D01*
X0034286Y0094336D01*
X0034295Y0094405D01*
X0034301Y0094473D01*
X0034303Y0094542D01*
X0034301Y0094587D01*
X0034296Y0094632D01*
X0034287Y0094677D01*
X0034275Y0094721D01*
X0034259Y0094763D01*
X0034240Y0094804D01*
X0034218Y0094844D01*
X0034193Y0094882D01*
X0034165Y0094917D01*
X0034134Y0094951D01*
X0034100Y0094982D01*
X0034065Y0095010D01*
X0034027Y0095035D01*
X0033987Y0095057D01*
X0033946Y0095076D01*
X0033904Y0095092D01*
X0033860Y0095104D01*
X0033815Y0095113D01*
X0033770Y0095118D01*
X0033725Y0095120D01*
X0033725Y0095119D02*
X0033678Y0095117D01*
X0033632Y0095112D01*
X0033586Y0095102D01*
X0033541Y0095089D01*
X0033497Y0095073D01*
X0033454Y0095053D01*
X0033414Y0095030D01*
X0033375Y0095003D01*
X0033338Y0094974D01*
X0033304Y0094942D01*
X0033273Y0094907D01*
X0033245Y0094869D01*
X0033219Y0094830D01*
X0034302Y0092536D02*
X0034302Y0091380D01*
X0031702Y0091380D01*
X0031702Y0092536D01*
X0032858Y0092247D02*
X0032858Y0091380D01*
X0034302Y0089870D02*
X0033147Y0089293D01*
X0033147Y0089148D02*
X0033147Y0088426D01*
X0033147Y0089148D02*
X0033145Y0089201D01*
X0033139Y0089253D01*
X0033130Y0089305D01*
X0033116Y0089356D01*
X0033099Y0089406D01*
X0033079Y0089454D01*
X0033055Y0089501D01*
X0033027Y0089546D01*
X0032996Y0089589D01*
X0032963Y0089630D01*
X0032926Y0089668D01*
X0032887Y0089703D01*
X0032845Y0089735D01*
X0032801Y0089764D01*
X0032755Y0089790D01*
X0032707Y0089812D01*
X0032658Y0089831D01*
X0032608Y0089847D01*
X0032556Y0089858D01*
X0032504Y0089866D01*
X0032451Y0089870D01*
X0032399Y0089870D01*
X0032346Y0089866D01*
X0032294Y0089858D01*
X0032242Y0089847D01*
X0032192Y0089831D01*
X0032143Y0089812D01*
X0032095Y0089790D01*
X0032049Y0089764D01*
X0032005Y0089735D01*
X0031963Y0089703D01*
X0031924Y0089668D01*
X0031887Y0089630D01*
X0031854Y0089589D01*
X0031823Y0089546D01*
X0031795Y0089501D01*
X0031771Y0089454D01*
X0031751Y0089406D01*
X0031734Y0089356D01*
X0031720Y0089305D01*
X0031711Y0089253D01*
X0031705Y0089201D01*
X0031703Y0089148D01*
X0031702Y0089148D02*
X0031702Y0088426D01*
X0034302Y0088426D01*
X0040816Y0151517D02*
X0042261Y0153105D01*
X0041683Y0152528D02*
X0040816Y0154117D01*
X0042261Y0154117D02*
X0042261Y0151517D01*
X0043864Y0151517D02*
X0044586Y0154117D01*
X0045308Y0151805D02*
X0045308Y0151517D01*
X0043864Y0151517D01*
X0046744Y0153539D02*
X0048188Y0153539D01*
X0047610Y0151517D01*
X0047177Y0152961D02*
X0047177Y0154117D01*
X0071516Y0150950D02*
X0071518Y0151035D01*
X0071524Y0151119D01*
X0071534Y0151204D01*
X0071548Y0151287D01*
X0071565Y0151370D01*
X0071587Y0151452D01*
X0071613Y0151533D01*
X0071642Y0151613D01*
X0071675Y0151691D01*
X0071711Y0151767D01*
X0071751Y0151842D01*
X0071795Y0151915D01*
X0071842Y0151986D01*
X0071892Y0152054D01*
X0071945Y0152120D01*
X0072002Y0152183D01*
X0072061Y0152244D01*
X0072123Y0152302D01*
X0072188Y0152357D01*
X0072255Y0152409D01*
X0072324Y0152457D01*
X0072396Y0152502D01*
X0072470Y0152544D01*
X0072546Y0152582D01*
X0072623Y0152617D01*
X0072702Y0152648D01*
X0072782Y0152676D01*
X0072864Y0152699D01*
X0072946Y0152719D01*
X0073029Y0152735D01*
X0073113Y0152747D01*
X0073198Y0152755D01*
X0073283Y0152759D01*
X0073367Y0152759D01*
X0073452Y0152755D01*
X0073537Y0152747D01*
X0073621Y0152735D01*
X0073704Y0152719D01*
X0073786Y0152699D01*
X0073868Y0152676D01*
X0073948Y0152648D01*
X0074027Y0152617D01*
X0074104Y0152582D01*
X0074180Y0152544D01*
X0074254Y0152502D01*
X0074326Y0152457D01*
X0074395Y0152409D01*
X0074462Y0152357D01*
X0074527Y0152302D01*
X0074589Y0152244D01*
X0074648Y0152183D01*
X0074705Y0152120D01*
X0074758Y0152054D01*
X0074808Y0151986D01*
X0074855Y0151915D01*
X0074899Y0151842D01*
X0074939Y0151767D01*
X0074975Y0151691D01*
X0075008Y0151613D01*
X0075037Y0151533D01*
X0075063Y0151452D01*
X0075085Y0151370D01*
X0075102Y0151287D01*
X0075116Y0151204D01*
X0075126Y0151119D01*
X0075132Y0151035D01*
X0075134Y0150950D01*
X0075132Y0150865D01*
X0075126Y0150781D01*
X0075116Y0150696D01*
X0075102Y0150613D01*
X0075085Y0150530D01*
X0075063Y0150448D01*
X0075037Y0150367D01*
X0075008Y0150287D01*
X0074975Y0150209D01*
X0074939Y0150133D01*
X0074899Y0150058D01*
X0074855Y0149985D01*
X0074808Y0149914D01*
X0074758Y0149846D01*
X0074705Y0149780D01*
X0074648Y0149717D01*
X0074589Y0149656D01*
X0074527Y0149598D01*
X0074462Y0149543D01*
X0074395Y0149491D01*
X0074326Y0149443D01*
X0074254Y0149398D01*
X0074180Y0149356D01*
X0074104Y0149318D01*
X0074027Y0149283D01*
X0073948Y0149252D01*
X0073868Y0149224D01*
X0073786Y0149201D01*
X0073704Y0149181D01*
X0073621Y0149165D01*
X0073537Y0149153D01*
X0073452Y0149145D01*
X0073367Y0149141D01*
X0073283Y0149141D01*
X0073198Y0149145D01*
X0073113Y0149153D01*
X0073029Y0149165D01*
X0072946Y0149181D01*
X0072864Y0149201D01*
X0072782Y0149224D01*
X0072702Y0149252D01*
X0072623Y0149283D01*
X0072546Y0149318D01*
X0072470Y0149356D01*
X0072396Y0149398D01*
X0072324Y0149443D01*
X0072255Y0149491D01*
X0072188Y0149543D01*
X0072123Y0149598D01*
X0072061Y0149656D01*
X0072002Y0149717D01*
X0071945Y0149780D01*
X0071892Y0149846D01*
X0071842Y0149914D01*
X0071795Y0149985D01*
X0071751Y0150058D01*
X0071711Y0150133D01*
X0071675Y0150209D01*
X0071642Y0150287D01*
X0071613Y0150367D01*
X0071587Y0150448D01*
X0071565Y0150530D01*
X0071548Y0150613D01*
X0071534Y0150696D01*
X0071524Y0150781D01*
X0071518Y0150865D01*
X0071516Y0150950D01*
X0080802Y0163517D02*
X0106202Y0163517D01*
X0106364Y0157117D02*
X0108097Y0154517D01*
X0109196Y0154517D02*
X0110641Y0154517D01*
X0109919Y0154517D02*
X0109919Y0157117D01*
X0108097Y0157117D02*
X0106364Y0154517D01*
X0106283Y0144617D02*
X0108017Y0142017D01*
X0106283Y0142017D02*
X0108017Y0144617D01*
X0109277Y0144617D02*
X0109855Y0143461D01*
X0109999Y0143461D02*
X0110721Y0143461D01*
X0109999Y0143461D02*
X0109946Y0143459D01*
X0109894Y0143453D01*
X0109842Y0143444D01*
X0109791Y0143430D01*
X0109741Y0143413D01*
X0109693Y0143393D01*
X0109646Y0143369D01*
X0109601Y0143341D01*
X0109558Y0143310D01*
X0109517Y0143277D01*
X0109479Y0143240D01*
X0109444Y0143201D01*
X0109412Y0143159D01*
X0109383Y0143115D01*
X0109357Y0143069D01*
X0109335Y0143021D01*
X0109316Y0142972D01*
X0109300Y0142922D01*
X0109289Y0142870D01*
X0109281Y0142818D01*
X0109277Y0142765D01*
X0109277Y0142713D01*
X0109281Y0142660D01*
X0109289Y0142608D01*
X0109300Y0142556D01*
X0109316Y0142506D01*
X0109335Y0142457D01*
X0109357Y0142409D01*
X0109383Y0142363D01*
X0109412Y0142319D01*
X0109444Y0142277D01*
X0109479Y0142238D01*
X0109517Y0142201D01*
X0109558Y0142168D01*
X0109601Y0142137D01*
X0109646Y0142109D01*
X0109693Y0142085D01*
X0109741Y0142065D01*
X0109791Y0142048D01*
X0109842Y0142034D01*
X0109894Y0142025D01*
X0109946Y0142019D01*
X0109999Y0142017D01*
X0110721Y0142017D01*
X0110721Y0144617D01*
X0115363Y0137617D02*
X0115363Y0135017D01*
X0114208Y0135017D01*
X0114208Y0136172D02*
X0115363Y0136172D01*
X0116953Y0136317D02*
X0116953Y0137617D01*
X0118108Y0137617D02*
X0118108Y0135883D01*
X0117386Y0135883D01*
X0117386Y0135884D02*
X0117346Y0135886D01*
X0117306Y0135891D01*
X0117268Y0135901D01*
X0117230Y0135913D01*
X0117193Y0135929D01*
X0117158Y0135949D01*
X0117125Y0135971D01*
X0117094Y0135997D01*
X0117066Y0136025D01*
X0117040Y0136056D01*
X0117018Y0136089D01*
X0116998Y0136124D01*
X0116982Y0136161D01*
X0116970Y0136199D01*
X0116960Y0136237D01*
X0116955Y0136277D01*
X0116953Y0136317D01*
X0120820Y0137256D02*
X0120857Y0137176D01*
X0120891Y0137094D01*
X0120921Y0137011D01*
X0120948Y0136927D01*
X0120972Y0136842D01*
X0120992Y0136756D01*
X0121008Y0136669D01*
X0121021Y0136581D01*
X0121030Y0136494D01*
X0121035Y0136405D01*
X0121037Y0136317D01*
X0119592Y0136317D02*
X0119594Y0136229D01*
X0119599Y0136140D01*
X0119608Y0136053D01*
X0119621Y0135965D01*
X0119637Y0135878D01*
X0119657Y0135792D01*
X0119681Y0135707D01*
X0119708Y0135623D01*
X0119738Y0135540D01*
X0119772Y0135458D01*
X0119809Y0135378D01*
X0119737Y0135594D02*
X0120892Y0137039D01*
X0120315Y0137616D02*
X0120271Y0137614D01*
X0120227Y0137609D01*
X0120184Y0137600D01*
X0120142Y0137587D01*
X0120100Y0137571D01*
X0120061Y0137552D01*
X0120023Y0137529D01*
X0119987Y0137503D01*
X0119953Y0137475D01*
X0119922Y0137444D01*
X0119894Y0137410D01*
X0119868Y0137374D01*
X0119845Y0137336D01*
X0119826Y0137296D01*
X0119810Y0137255D01*
X0120315Y0137616D02*
X0120359Y0137614D01*
X0120403Y0137609D01*
X0120446Y0137600D01*
X0120488Y0137587D01*
X0120530Y0137571D01*
X0120569Y0137552D01*
X0120607Y0137529D01*
X0120643Y0137503D01*
X0120677Y0137475D01*
X0120708Y0137444D01*
X0120736Y0137410D01*
X0120762Y0137374D01*
X0120785Y0137336D01*
X0120804Y0137296D01*
X0120820Y0137255D01*
X0119809Y0137256D02*
X0119772Y0137176D01*
X0119738Y0137094D01*
X0119708Y0137011D01*
X0119681Y0136927D01*
X0119657Y0136842D01*
X0119637Y0136756D01*
X0119621Y0136669D01*
X0119608Y0136581D01*
X0119599Y0136494D01*
X0119594Y0136405D01*
X0119592Y0136317D01*
X0121037Y0136317D02*
X0121035Y0136229D01*
X0121030Y0136140D01*
X0121021Y0136053D01*
X0121008Y0135965D01*
X0120992Y0135878D01*
X0120972Y0135792D01*
X0120948Y0135707D01*
X0120921Y0135623D01*
X0120891Y0135540D01*
X0120857Y0135458D01*
X0120820Y0135378D01*
X0120315Y0135017D02*
X0120271Y0135019D01*
X0120227Y0135024D01*
X0120184Y0135033D01*
X0120142Y0135046D01*
X0120100Y0135062D01*
X0120061Y0135081D01*
X0120023Y0135104D01*
X0119987Y0135130D01*
X0119953Y0135158D01*
X0119922Y0135189D01*
X0119893Y0135223D01*
X0119868Y0135259D01*
X0119845Y0135297D01*
X0119826Y0135337D01*
X0119810Y0135378D01*
X0120315Y0135017D02*
X0120359Y0135019D01*
X0120403Y0135024D01*
X0120446Y0135033D01*
X0120488Y0135046D01*
X0120530Y0135062D01*
X0120569Y0135081D01*
X0120607Y0135104D01*
X0120643Y0135130D01*
X0120677Y0135158D01*
X0120708Y0135189D01*
X0120736Y0135223D01*
X0120762Y0135259D01*
X0120785Y0135297D01*
X0120804Y0135337D01*
X0120820Y0135378D01*
X0123917Y0136317D02*
X0123915Y0136405D01*
X0123910Y0136494D01*
X0123901Y0136581D01*
X0123888Y0136669D01*
X0123872Y0136756D01*
X0123852Y0136842D01*
X0123828Y0136927D01*
X0123801Y0137011D01*
X0123771Y0137094D01*
X0123737Y0137176D01*
X0123700Y0137256D01*
X0123772Y0137039D02*
X0122617Y0135594D01*
X0122690Y0135378D02*
X0122706Y0135337D01*
X0122725Y0135297D01*
X0122748Y0135259D01*
X0122773Y0135223D01*
X0122802Y0135189D01*
X0122833Y0135158D01*
X0122867Y0135130D01*
X0122903Y0135104D01*
X0122941Y0135081D01*
X0122980Y0135062D01*
X0123022Y0135046D01*
X0123064Y0135033D01*
X0123107Y0135024D01*
X0123151Y0135019D01*
X0123195Y0135017D01*
X0123239Y0135019D01*
X0123283Y0135024D01*
X0123326Y0135033D01*
X0123368Y0135046D01*
X0123410Y0135062D01*
X0123449Y0135081D01*
X0123487Y0135104D01*
X0123523Y0135130D01*
X0123557Y0135158D01*
X0123588Y0135189D01*
X0123616Y0135223D01*
X0123642Y0135259D01*
X0123665Y0135297D01*
X0123684Y0135337D01*
X0123700Y0135378D01*
X0122689Y0135378D02*
X0122652Y0135458D01*
X0122618Y0135540D01*
X0122588Y0135623D01*
X0122561Y0135707D01*
X0122537Y0135792D01*
X0122517Y0135878D01*
X0122501Y0135965D01*
X0122488Y0136053D01*
X0122479Y0136140D01*
X0122474Y0136229D01*
X0122472Y0136317D01*
X0123917Y0136317D02*
X0123915Y0136229D01*
X0123910Y0136140D01*
X0123901Y0136053D01*
X0123888Y0135965D01*
X0123872Y0135878D01*
X0123852Y0135792D01*
X0123828Y0135707D01*
X0123801Y0135623D01*
X0123771Y0135540D01*
X0123737Y0135458D01*
X0123700Y0135378D01*
X0122472Y0136317D02*
X0122474Y0136405D01*
X0122479Y0136494D01*
X0122488Y0136581D01*
X0122501Y0136669D01*
X0122517Y0136756D01*
X0122537Y0136842D01*
X0122561Y0136927D01*
X0122588Y0137011D01*
X0122618Y0137094D01*
X0122652Y0137176D01*
X0122689Y0137256D01*
X0122690Y0137255D02*
X0122706Y0137296D01*
X0122725Y0137336D01*
X0122748Y0137374D01*
X0122774Y0137410D01*
X0122802Y0137444D01*
X0122833Y0137475D01*
X0122867Y0137503D01*
X0122903Y0137529D01*
X0122941Y0137552D01*
X0122980Y0137571D01*
X0123022Y0137587D01*
X0123064Y0137600D01*
X0123107Y0137609D01*
X0123151Y0137614D01*
X0123195Y0137616D01*
X0123239Y0137614D01*
X0123283Y0137609D01*
X0123326Y0137600D01*
X0123368Y0137587D01*
X0123410Y0137571D01*
X0123449Y0137552D01*
X0123487Y0137529D01*
X0123523Y0137503D01*
X0123557Y0137475D01*
X0123588Y0137444D01*
X0123616Y0137410D01*
X0123642Y0137374D01*
X0123665Y0137336D01*
X0123684Y0137296D01*
X0123700Y0137255D01*
X0125352Y0137617D02*
X0126797Y0137617D01*
X0126075Y0137617D02*
X0126075Y0135017D01*
X0126797Y0135594D01*
X0126526Y0215017D02*
X0126526Y0217617D01*
X0127248Y0217617D02*
X0125804Y0217617D01*
X0124201Y0217617D02*
X0124201Y0215017D01*
X0123623Y0216028D02*
X0122756Y0217617D01*
X0124201Y0216605D02*
X0122756Y0215017D01*
X0126526Y0215017D02*
X0127248Y0215594D01*
X0125201Y0232017D02*
X0125201Y0234617D01*
X0126357Y0234617D01*
X0126357Y0233461D02*
X0125201Y0233461D01*
X0123612Y0233750D02*
X0123612Y0232017D01*
X0122890Y0232017D01*
X0122850Y0232019D01*
X0122810Y0232024D01*
X0122772Y0232034D01*
X0122734Y0232046D01*
X0122697Y0232062D01*
X0122662Y0232082D01*
X0122629Y0232104D01*
X0122598Y0232130D01*
X0122570Y0232158D01*
X0122544Y0232189D01*
X0122522Y0232222D01*
X0122502Y0232257D01*
X0122486Y0232294D01*
X0122474Y0232332D01*
X0122464Y0232370D01*
X0122459Y0232410D01*
X0122457Y0232450D01*
X0122456Y0232450D02*
X0122456Y0233750D01*
X0120756Y0233461D02*
X0119528Y0232017D01*
X0120972Y0232017D01*
X0119528Y0234039D02*
X0119546Y0234091D01*
X0119569Y0234142D01*
X0119594Y0234191D01*
X0119623Y0234238D01*
X0119654Y0234283D01*
X0119689Y0234326D01*
X0119726Y0234367D01*
X0119766Y0234405D01*
X0119809Y0234441D01*
X0119853Y0234473D01*
X0119900Y0234503D01*
X0119949Y0234529D01*
X0119999Y0234552D01*
X0120051Y0234572D01*
X0120104Y0234588D01*
X0120157Y0234601D01*
X0120212Y0234610D01*
X0120267Y0234615D01*
X0120322Y0234617D01*
X0120371Y0234615D01*
X0120419Y0234610D01*
X0120467Y0234601D01*
X0120514Y0234588D01*
X0120559Y0234572D01*
X0120604Y0234553D01*
X0120647Y0234530D01*
X0120688Y0234504D01*
X0120727Y0234475D01*
X0120764Y0234443D01*
X0120798Y0234409D01*
X0120830Y0234372D01*
X0120859Y0234333D01*
X0120885Y0234292D01*
X0120908Y0234249D01*
X0120927Y0234204D01*
X0120943Y0234159D01*
X0120956Y0234112D01*
X0120965Y0234064D01*
X0120970Y0234016D01*
X0120972Y0233967D01*
X0120970Y0233916D01*
X0120964Y0233865D01*
X0120955Y0233814D01*
X0120942Y0233764D01*
X0120925Y0233716D01*
X0120905Y0233669D01*
X0120881Y0233623D01*
X0120854Y0233579D01*
X0120824Y0233538D01*
X0120791Y0233498D01*
X0120755Y0233462D01*
X0117876Y0233461D02*
X0116648Y0232017D01*
X0118092Y0232017D01*
X0116648Y0234039D02*
X0116666Y0234091D01*
X0116689Y0234142D01*
X0116714Y0234191D01*
X0116743Y0234238D01*
X0116774Y0234283D01*
X0116809Y0234326D01*
X0116846Y0234367D01*
X0116886Y0234405D01*
X0116929Y0234441D01*
X0116973Y0234473D01*
X0117020Y0234503D01*
X0117069Y0234529D01*
X0117119Y0234552D01*
X0117171Y0234572D01*
X0117224Y0234588D01*
X0117277Y0234601D01*
X0117332Y0234610D01*
X0117387Y0234615D01*
X0117442Y0234617D01*
X0117491Y0234615D01*
X0117539Y0234610D01*
X0117587Y0234601D01*
X0117634Y0234588D01*
X0117679Y0234572D01*
X0117724Y0234553D01*
X0117767Y0234530D01*
X0117808Y0234504D01*
X0117847Y0234475D01*
X0117884Y0234443D01*
X0117918Y0234409D01*
X0117950Y0234372D01*
X0117979Y0234333D01*
X0118005Y0234292D01*
X0118028Y0234249D01*
X0118047Y0234204D01*
X0118063Y0234159D01*
X0118076Y0234112D01*
X0118085Y0234064D01*
X0118090Y0234016D01*
X0118092Y0233967D01*
X0118090Y0233916D01*
X0118084Y0233865D01*
X0118075Y0233814D01*
X0118062Y0233764D01*
X0118045Y0233716D01*
X0118025Y0233669D01*
X0118001Y0233623D01*
X0117974Y0233579D01*
X0117944Y0233538D01*
X0117911Y0233498D01*
X0117875Y0233462D01*
X0111602Y0241917D02*
X0111602Y0258717D01*
X0103847Y0264017D02*
X0104424Y0266039D01*
X0102980Y0266039D01*
X0103413Y0265461D02*
X0103413Y0266617D01*
X0101544Y0264305D02*
X0101544Y0264017D01*
X0100100Y0264017D01*
X0100822Y0266617D01*
X0097436Y0266256D02*
X0097399Y0266176D01*
X0097365Y0266094D01*
X0097335Y0266011D01*
X0097308Y0265927D01*
X0097284Y0265842D01*
X0097264Y0265756D01*
X0097248Y0265669D01*
X0097235Y0265581D01*
X0097226Y0265494D01*
X0097221Y0265405D01*
X0097219Y0265317D01*
X0098665Y0265317D02*
X0098663Y0265229D01*
X0098658Y0265140D01*
X0098649Y0265053D01*
X0098636Y0264965D01*
X0098620Y0264878D01*
X0098600Y0264792D01*
X0098576Y0264707D01*
X0098549Y0264623D01*
X0098519Y0264540D01*
X0098485Y0264458D01*
X0098448Y0264378D01*
X0097942Y0264017D02*
X0097898Y0264019D01*
X0097854Y0264024D01*
X0097811Y0264033D01*
X0097769Y0264046D01*
X0097727Y0264062D01*
X0097688Y0264081D01*
X0097650Y0264104D01*
X0097614Y0264130D01*
X0097580Y0264158D01*
X0097549Y0264189D01*
X0097520Y0264223D01*
X0097495Y0264259D01*
X0097472Y0264297D01*
X0097453Y0264337D01*
X0097437Y0264378D01*
X0097364Y0264594D02*
X0098520Y0266039D01*
X0097942Y0266616D02*
X0097898Y0266614D01*
X0097854Y0266609D01*
X0097811Y0266600D01*
X0097769Y0266587D01*
X0097727Y0266571D01*
X0097688Y0266552D01*
X0097650Y0266529D01*
X0097614Y0266503D01*
X0097580Y0266475D01*
X0097549Y0266444D01*
X0097521Y0266410D01*
X0097495Y0266374D01*
X0097472Y0266336D01*
X0097453Y0266296D01*
X0097437Y0266255D01*
X0097942Y0266616D02*
X0097986Y0266614D01*
X0098030Y0266609D01*
X0098073Y0266600D01*
X0098115Y0266587D01*
X0098157Y0266571D01*
X0098196Y0266552D01*
X0098234Y0266529D01*
X0098270Y0266503D01*
X0098304Y0266475D01*
X0098335Y0266444D01*
X0098363Y0266410D01*
X0098389Y0266374D01*
X0098412Y0266336D01*
X0098431Y0266296D01*
X0098447Y0266255D01*
X0097219Y0265317D02*
X0097221Y0265229D01*
X0097226Y0265140D01*
X0097235Y0265053D01*
X0097248Y0264965D01*
X0097264Y0264878D01*
X0097284Y0264792D01*
X0097308Y0264707D01*
X0097335Y0264623D01*
X0097365Y0264540D01*
X0097399Y0264458D01*
X0097436Y0264378D01*
X0097942Y0264017D02*
X0097986Y0264019D01*
X0098030Y0264024D01*
X0098073Y0264033D01*
X0098115Y0264046D01*
X0098157Y0264062D01*
X0098196Y0264081D01*
X0098234Y0264104D01*
X0098270Y0264130D01*
X0098304Y0264158D01*
X0098335Y0264189D01*
X0098363Y0264223D01*
X0098389Y0264259D01*
X0098412Y0264297D01*
X0098431Y0264337D01*
X0098447Y0264378D01*
X0098665Y0265317D02*
X0098663Y0265405D01*
X0098658Y0265494D01*
X0098649Y0265581D01*
X0098636Y0265669D01*
X0098620Y0265756D01*
X0098600Y0265842D01*
X0098576Y0265927D01*
X0098549Y0266011D01*
X0098519Y0266094D01*
X0098485Y0266176D01*
X0098448Y0266256D01*
X0095736Y0266617D02*
X0095736Y0264883D01*
X0095014Y0264883D01*
X0095014Y0264884D02*
X0094974Y0264886D01*
X0094934Y0264891D01*
X0094896Y0264901D01*
X0094858Y0264913D01*
X0094821Y0264929D01*
X0094786Y0264949D01*
X0094753Y0264971D01*
X0094722Y0264997D01*
X0094694Y0265025D01*
X0094668Y0265056D01*
X0094646Y0265089D01*
X0094626Y0265124D01*
X0094610Y0265161D01*
X0094598Y0265199D01*
X0094588Y0265237D01*
X0094583Y0265277D01*
X0094581Y0265317D01*
X0094580Y0265317D02*
X0094580Y0266617D01*
X0089753Y0267617D02*
X0089031Y0267617D01*
X0089031Y0267616D02*
X0088978Y0267614D01*
X0088926Y0267608D01*
X0088874Y0267599D01*
X0088823Y0267585D01*
X0088773Y0267568D01*
X0088725Y0267548D01*
X0088678Y0267524D01*
X0088633Y0267496D01*
X0088590Y0267465D01*
X0088549Y0267432D01*
X0088511Y0267395D01*
X0088476Y0267356D01*
X0088444Y0267314D01*
X0088415Y0267270D01*
X0088389Y0267224D01*
X0088367Y0267176D01*
X0088348Y0267127D01*
X0088332Y0267077D01*
X0088321Y0267025D01*
X0088313Y0266973D01*
X0088309Y0266920D01*
X0088309Y0266868D01*
X0088313Y0266815D01*
X0088321Y0266763D01*
X0088332Y0266711D01*
X0088348Y0266661D01*
X0088367Y0266612D01*
X0088389Y0266564D01*
X0088415Y0266518D01*
X0088444Y0266474D01*
X0088476Y0266432D01*
X0088511Y0266393D01*
X0088549Y0266356D01*
X0088590Y0266323D01*
X0088633Y0266292D01*
X0088678Y0266264D01*
X0088725Y0266240D01*
X0088773Y0266220D01*
X0088823Y0266203D01*
X0088874Y0266189D01*
X0088926Y0266180D01*
X0088978Y0266174D01*
X0089031Y0266172D01*
X0088886Y0266172D02*
X0089464Y0266172D01*
X0088886Y0266172D02*
X0088839Y0266170D01*
X0088793Y0266165D01*
X0088748Y0266155D01*
X0088703Y0266142D01*
X0088659Y0266126D01*
X0088617Y0266106D01*
X0088577Y0266083D01*
X0088539Y0266056D01*
X0088503Y0266027D01*
X0088469Y0265994D01*
X0088438Y0265960D01*
X0088410Y0265922D01*
X0088385Y0265883D01*
X0088364Y0265842D01*
X0088346Y0265799D01*
X0088331Y0265755D01*
X0088320Y0265710D01*
X0088312Y0265664D01*
X0088308Y0265617D01*
X0088308Y0265571D01*
X0088312Y0265524D01*
X0088320Y0265478D01*
X0088331Y0265433D01*
X0088346Y0265389D01*
X0088364Y0265346D01*
X0088385Y0265305D01*
X0088410Y0265266D01*
X0088438Y0265228D01*
X0088469Y0265194D01*
X0088503Y0265161D01*
X0088539Y0265132D01*
X0088577Y0265105D01*
X0088617Y0265082D01*
X0088659Y0265062D01*
X0088703Y0265046D01*
X0088748Y0265033D01*
X0088793Y0265023D01*
X0088839Y0265018D01*
X0088886Y0265016D01*
X0088886Y0265017D02*
X0089753Y0265017D01*
X0087087Y0267472D02*
X0086942Y0267472D01*
X0086942Y0267617D01*
X0087087Y0267617D01*
X0087087Y0267472D01*
X0085721Y0267617D02*
X0084999Y0267617D01*
X0084999Y0267616D02*
X0084946Y0267614D01*
X0084894Y0267608D01*
X0084842Y0267599D01*
X0084791Y0267585D01*
X0084741Y0267568D01*
X0084693Y0267548D01*
X0084646Y0267524D01*
X0084601Y0267496D01*
X0084558Y0267465D01*
X0084517Y0267432D01*
X0084479Y0267395D01*
X0084444Y0267356D01*
X0084412Y0267314D01*
X0084383Y0267270D01*
X0084357Y0267224D01*
X0084335Y0267176D01*
X0084316Y0267127D01*
X0084300Y0267077D01*
X0084289Y0267025D01*
X0084281Y0266973D01*
X0084277Y0266920D01*
X0084277Y0266868D01*
X0084281Y0266815D01*
X0084289Y0266763D01*
X0084300Y0266711D01*
X0084316Y0266661D01*
X0084335Y0266612D01*
X0084357Y0266564D01*
X0084383Y0266518D01*
X0084412Y0266474D01*
X0084444Y0266432D01*
X0084479Y0266393D01*
X0084517Y0266356D01*
X0084558Y0266323D01*
X0084601Y0266292D01*
X0084646Y0266264D01*
X0084693Y0266240D01*
X0084741Y0266220D01*
X0084791Y0266203D01*
X0084842Y0266189D01*
X0084894Y0266180D01*
X0084946Y0266174D01*
X0084999Y0266172D01*
X0084854Y0266172D02*
X0085432Y0266172D01*
X0084854Y0266172D02*
X0084807Y0266170D01*
X0084761Y0266165D01*
X0084716Y0266155D01*
X0084671Y0266142D01*
X0084627Y0266126D01*
X0084585Y0266106D01*
X0084545Y0266083D01*
X0084507Y0266056D01*
X0084471Y0266027D01*
X0084437Y0265994D01*
X0084406Y0265960D01*
X0084378Y0265922D01*
X0084353Y0265883D01*
X0084332Y0265842D01*
X0084314Y0265799D01*
X0084299Y0265755D01*
X0084288Y0265710D01*
X0084280Y0265664D01*
X0084276Y0265617D01*
X0084276Y0265571D01*
X0084280Y0265524D01*
X0084288Y0265478D01*
X0084299Y0265433D01*
X0084314Y0265389D01*
X0084332Y0265346D01*
X0084353Y0265305D01*
X0084378Y0265266D01*
X0084406Y0265228D01*
X0084437Y0265194D01*
X0084471Y0265161D01*
X0084507Y0265132D01*
X0084545Y0265105D01*
X0084585Y0265082D01*
X0084627Y0265062D01*
X0084671Y0265046D01*
X0084716Y0265033D01*
X0084761Y0265023D01*
X0084807Y0265018D01*
X0084854Y0265016D01*
X0084854Y0265017D02*
X0085721Y0265017D01*
X0082985Y0265017D02*
X0082119Y0267617D01*
X0081252Y0265017D01*
X0074997Y0267617D02*
X0073552Y0267617D01*
X0072117Y0267617D02*
X0070672Y0267617D01*
X0072117Y0267617D02*
X0070889Y0266172D01*
X0071322Y0265017D02*
X0071377Y0265019D01*
X0071432Y0265024D01*
X0071487Y0265033D01*
X0071540Y0265046D01*
X0071593Y0265062D01*
X0071645Y0265082D01*
X0071695Y0265105D01*
X0071744Y0265131D01*
X0071791Y0265161D01*
X0071835Y0265193D01*
X0071878Y0265229D01*
X0071918Y0265267D01*
X0071955Y0265308D01*
X0071990Y0265351D01*
X0072021Y0265396D01*
X0072050Y0265443D01*
X0072075Y0265492D01*
X0072098Y0265543D01*
X0072116Y0265595D01*
X0070889Y0266172D02*
X0070853Y0266136D01*
X0070820Y0266096D01*
X0070790Y0266055D01*
X0070763Y0266011D01*
X0070739Y0265965D01*
X0070719Y0265918D01*
X0070702Y0265870D01*
X0070689Y0265820D01*
X0070680Y0265769D01*
X0070674Y0265718D01*
X0070672Y0265667D01*
X0070674Y0265618D01*
X0070679Y0265570D01*
X0070688Y0265522D01*
X0070701Y0265475D01*
X0070717Y0265430D01*
X0070736Y0265385D01*
X0070759Y0265342D01*
X0070785Y0265301D01*
X0070814Y0265262D01*
X0070846Y0265225D01*
X0070880Y0265191D01*
X0070917Y0265159D01*
X0070956Y0265130D01*
X0070997Y0265104D01*
X0071040Y0265081D01*
X0071085Y0265062D01*
X0071130Y0265046D01*
X0071177Y0265033D01*
X0071225Y0265024D01*
X0071273Y0265019D01*
X0071322Y0265017D01*
X0069164Y0265883D02*
X0068441Y0265883D01*
X0068441Y0265884D02*
X0068401Y0265886D01*
X0068361Y0265891D01*
X0068323Y0265901D01*
X0068285Y0265913D01*
X0068248Y0265929D01*
X0068213Y0265949D01*
X0068180Y0265971D01*
X0068149Y0265997D01*
X0068121Y0266025D01*
X0068095Y0266056D01*
X0068073Y0266089D01*
X0068053Y0266124D01*
X0068037Y0266161D01*
X0068025Y0266199D01*
X0068015Y0266237D01*
X0068010Y0266277D01*
X0068008Y0266317D01*
X0068008Y0267183D01*
X0068010Y0267223D01*
X0068015Y0267263D01*
X0068025Y0267301D01*
X0068037Y0267339D01*
X0068053Y0267376D01*
X0068073Y0267411D01*
X0068095Y0267444D01*
X0068121Y0267475D01*
X0068149Y0267503D01*
X0068180Y0267529D01*
X0068213Y0267551D01*
X0068248Y0267571D01*
X0068285Y0267587D01*
X0068323Y0267599D01*
X0068361Y0267609D01*
X0068401Y0267614D01*
X0068441Y0267616D01*
X0068441Y0267617D02*
X0069164Y0267617D01*
X0069164Y0268483D02*
X0069164Y0265883D01*
X0073769Y0266172D02*
X0074997Y0267617D01*
X0074996Y0265595D02*
X0074978Y0265543D01*
X0074955Y0265492D01*
X0074930Y0265443D01*
X0074901Y0265396D01*
X0074870Y0265351D01*
X0074835Y0265308D01*
X0074798Y0265267D01*
X0074758Y0265229D01*
X0074715Y0265193D01*
X0074671Y0265161D01*
X0074624Y0265131D01*
X0074575Y0265105D01*
X0074525Y0265082D01*
X0074473Y0265062D01*
X0074420Y0265046D01*
X0074367Y0265033D01*
X0074312Y0265024D01*
X0074257Y0265019D01*
X0074202Y0265017D01*
X0074153Y0265019D01*
X0074105Y0265024D01*
X0074057Y0265033D01*
X0074010Y0265046D01*
X0073965Y0265062D01*
X0073920Y0265081D01*
X0073877Y0265104D01*
X0073836Y0265130D01*
X0073797Y0265159D01*
X0073760Y0265191D01*
X0073726Y0265225D01*
X0073694Y0265262D01*
X0073665Y0265301D01*
X0073639Y0265342D01*
X0073616Y0265385D01*
X0073597Y0265430D01*
X0073581Y0265475D01*
X0073568Y0265522D01*
X0073559Y0265570D01*
X0073554Y0265618D01*
X0073552Y0265667D01*
X0073554Y0265718D01*
X0073560Y0265769D01*
X0073569Y0265820D01*
X0073582Y0265870D01*
X0073599Y0265918D01*
X0073619Y0265965D01*
X0073643Y0266011D01*
X0073670Y0266055D01*
X0073700Y0266096D01*
X0073733Y0266136D01*
X0073769Y0266172D01*
X0073881Y0249617D02*
X0072436Y0249617D01*
X0073159Y0249617D02*
X0073159Y0247017D01*
X0073881Y0247594D01*
X0070857Y0247017D02*
X0069991Y0248461D01*
X0069124Y0247017D01*
X0069124Y0249617D01*
X0070857Y0249617D02*
X0070857Y0247017D01*
X0059902Y0245417D02*
X0059902Y0256217D01*
X0052402Y0263717D02*
X0041602Y0263717D01*
X0047002Y0267917D02*
X0046968Y0267919D01*
X0046935Y0267925D01*
X0046903Y0267934D01*
X0046872Y0267947D01*
X0046842Y0267963D01*
X0046815Y0267982D01*
X0046790Y0268005D01*
X0046767Y0268030D01*
X0046748Y0268057D01*
X0046732Y0268087D01*
X0046719Y0268118D01*
X0046710Y0268150D01*
X0046704Y0268183D01*
X0046702Y0268217D01*
X0046704Y0268251D01*
X0046710Y0268284D01*
X0046719Y0268316D01*
X0046732Y0268347D01*
X0046748Y0268377D01*
X0046767Y0268404D01*
X0046790Y0268429D01*
X0046815Y0268452D01*
X0046842Y0268471D01*
X0046872Y0268487D01*
X0046903Y0268500D01*
X0046935Y0268509D01*
X0046968Y0268515D01*
X0047002Y0268517D01*
X0047036Y0268515D01*
X0047069Y0268509D01*
X0047101Y0268500D01*
X0047132Y0268487D01*
X0047162Y0268471D01*
X0047189Y0268452D01*
X0047214Y0268429D01*
X0047237Y0268404D01*
X0047256Y0268377D01*
X0047272Y0268347D01*
X0047285Y0268316D01*
X0047294Y0268284D01*
X0047300Y0268251D01*
X0047302Y0268217D01*
X0047300Y0268183D01*
X0047294Y0268150D01*
X0047285Y0268118D01*
X0047272Y0268087D01*
X0047256Y0268057D01*
X0047237Y0268030D01*
X0047214Y0268005D01*
X0047189Y0267982D01*
X0047162Y0267963D01*
X0047132Y0267947D01*
X0047101Y0267934D01*
X0047069Y0267925D01*
X0047036Y0267919D01*
X0047002Y0267917D01*
X0035102Y0255717D02*
X0035102Y0245917D01*
X0034102Y0245417D02*
X0034102Y0256217D01*
X0041602Y0237917D02*
X0052402Y0237917D01*
X0056923Y0215483D02*
X0056923Y0212883D01*
X0060025Y0213317D02*
X0060023Y0213405D01*
X0060018Y0213494D01*
X0060009Y0213581D01*
X0059996Y0213669D01*
X0059980Y0213756D01*
X0059960Y0213842D01*
X0059936Y0213927D01*
X0059909Y0214011D01*
X0059879Y0214094D01*
X0059845Y0214176D01*
X0059808Y0214256D01*
X0059880Y0214039D02*
X0058725Y0212594D01*
X0058798Y0212378D02*
X0058814Y0212337D01*
X0058833Y0212297D01*
X0058856Y0212259D01*
X0058881Y0212223D01*
X0058910Y0212189D01*
X0058941Y0212158D01*
X0058975Y0212130D01*
X0059011Y0212104D01*
X0059049Y0212081D01*
X0059088Y0212062D01*
X0059130Y0212046D01*
X0059172Y0212033D01*
X0059215Y0212024D01*
X0059259Y0212019D01*
X0059303Y0212017D01*
X0059347Y0212019D01*
X0059391Y0212024D01*
X0059434Y0212033D01*
X0059476Y0212046D01*
X0059518Y0212062D01*
X0059557Y0212081D01*
X0059595Y0212104D01*
X0059631Y0212130D01*
X0059665Y0212158D01*
X0059696Y0212189D01*
X0059724Y0212223D01*
X0059750Y0212259D01*
X0059773Y0212297D01*
X0059792Y0212337D01*
X0059808Y0212378D01*
X0058797Y0212378D02*
X0058760Y0212458D01*
X0058726Y0212540D01*
X0058696Y0212623D01*
X0058669Y0212707D01*
X0058645Y0212792D01*
X0058625Y0212878D01*
X0058609Y0212965D01*
X0058596Y0213053D01*
X0058587Y0213140D01*
X0058582Y0213229D01*
X0058580Y0213317D01*
X0060025Y0213317D02*
X0060023Y0213229D01*
X0060018Y0213140D01*
X0060009Y0213053D01*
X0059996Y0212965D01*
X0059980Y0212878D01*
X0059960Y0212792D01*
X0059936Y0212707D01*
X0059909Y0212623D01*
X0059879Y0212540D01*
X0059845Y0212458D01*
X0059808Y0212378D01*
X0058580Y0213317D02*
X0058582Y0213405D01*
X0058587Y0213494D01*
X0058596Y0213581D01*
X0058609Y0213669D01*
X0058625Y0213756D01*
X0058645Y0213842D01*
X0058669Y0213927D01*
X0058696Y0214011D01*
X0058726Y0214094D01*
X0058760Y0214176D01*
X0058797Y0214256D01*
X0058798Y0214255D02*
X0058814Y0214296D01*
X0058833Y0214336D01*
X0058856Y0214374D01*
X0058882Y0214410D01*
X0058910Y0214444D01*
X0058941Y0214475D01*
X0058975Y0214503D01*
X0059011Y0214529D01*
X0059049Y0214552D01*
X0059088Y0214571D01*
X0059130Y0214587D01*
X0059172Y0214600D01*
X0059215Y0214609D01*
X0059259Y0214614D01*
X0059303Y0214616D01*
X0059347Y0214614D01*
X0059391Y0214609D01*
X0059434Y0214600D01*
X0059476Y0214587D01*
X0059518Y0214571D01*
X0059557Y0214552D01*
X0059595Y0214529D01*
X0059631Y0214503D01*
X0059665Y0214475D01*
X0059696Y0214444D01*
X0059724Y0214410D01*
X0059750Y0214374D01*
X0059773Y0214336D01*
X0059792Y0214296D01*
X0059808Y0214255D01*
X0061460Y0214617D02*
X0062905Y0214617D01*
X0062183Y0214617D02*
X0062183Y0212017D01*
X0062905Y0212594D01*
X0056923Y0214039D02*
X0056921Y0214086D01*
X0056916Y0214132D01*
X0056906Y0214177D01*
X0056893Y0214222D01*
X0056877Y0214266D01*
X0056857Y0214308D01*
X0056834Y0214348D01*
X0056807Y0214386D01*
X0056778Y0214422D01*
X0056745Y0214456D01*
X0056711Y0214487D01*
X0056673Y0214515D01*
X0056634Y0214540D01*
X0056593Y0214561D01*
X0056550Y0214579D01*
X0056506Y0214594D01*
X0056461Y0214605D01*
X0056415Y0214613D01*
X0056368Y0214617D01*
X0056322Y0214617D01*
X0056275Y0214613D01*
X0056229Y0214605D01*
X0056184Y0214594D01*
X0056140Y0214579D01*
X0056097Y0214561D01*
X0056056Y0214540D01*
X0056017Y0214515D01*
X0055979Y0214487D01*
X0055945Y0214456D01*
X0055912Y0214422D01*
X0055883Y0214386D01*
X0055856Y0214348D01*
X0055833Y0214308D01*
X0055813Y0214266D01*
X0055797Y0214222D01*
X0055784Y0214177D01*
X0055774Y0214132D01*
X0055769Y0214086D01*
X0055767Y0214039D01*
X0055767Y0214328D01*
X0055768Y0214328D02*
X0055766Y0214360D01*
X0055761Y0214392D01*
X0055752Y0214423D01*
X0055739Y0214453D01*
X0055724Y0214482D01*
X0055705Y0214508D01*
X0055683Y0214532D01*
X0055659Y0214554D01*
X0055633Y0214573D01*
X0055604Y0214588D01*
X0055574Y0214601D01*
X0055543Y0214610D01*
X0055511Y0214615D01*
X0055479Y0214617D01*
X0055767Y0214039D02*
X0055767Y0212883D01*
X0054255Y0213172D02*
X0053100Y0213172D01*
X0053100Y0212017D02*
X0054255Y0212017D01*
X0054255Y0214617D01*
X0086008Y0241878D02*
X0086045Y0241958D01*
X0086079Y0242040D01*
X0086109Y0242123D01*
X0086136Y0242207D01*
X0086160Y0242292D01*
X0086180Y0242378D01*
X0086196Y0242465D01*
X0086209Y0242553D01*
X0086218Y0242640D01*
X0086223Y0242729D01*
X0086225Y0242817D01*
X0084780Y0242817D02*
X0084782Y0242905D01*
X0084787Y0242994D01*
X0084796Y0243081D01*
X0084809Y0243169D01*
X0084825Y0243256D01*
X0084845Y0243342D01*
X0084869Y0243427D01*
X0084896Y0243511D01*
X0084926Y0243594D01*
X0084960Y0243676D01*
X0084997Y0243756D01*
X0085502Y0244116D02*
X0085546Y0244114D01*
X0085590Y0244109D01*
X0085633Y0244100D01*
X0085675Y0244087D01*
X0085717Y0244071D01*
X0085756Y0244052D01*
X0085794Y0244029D01*
X0085830Y0244003D01*
X0085864Y0243975D01*
X0085895Y0243944D01*
X0085924Y0243910D01*
X0085949Y0243874D01*
X0085972Y0243836D01*
X0085991Y0243796D01*
X0086007Y0243755D01*
X0086080Y0243539D02*
X0084925Y0242094D01*
X0085502Y0241517D02*
X0085546Y0241519D01*
X0085590Y0241524D01*
X0085633Y0241533D01*
X0085675Y0241546D01*
X0085717Y0241562D01*
X0085756Y0241581D01*
X0085794Y0241604D01*
X0085830Y0241630D01*
X0085864Y0241658D01*
X0085895Y0241689D01*
X0085924Y0241723D01*
X0085949Y0241759D01*
X0085972Y0241797D01*
X0085991Y0241837D01*
X0086007Y0241878D01*
X0085502Y0241517D02*
X0085458Y0241519D01*
X0085414Y0241524D01*
X0085371Y0241533D01*
X0085329Y0241546D01*
X0085287Y0241562D01*
X0085248Y0241581D01*
X0085210Y0241604D01*
X0085174Y0241630D01*
X0085140Y0241658D01*
X0085109Y0241689D01*
X0085081Y0241723D01*
X0085055Y0241759D01*
X0085032Y0241797D01*
X0085013Y0241837D01*
X0084997Y0241878D01*
X0086225Y0242817D02*
X0086223Y0242905D01*
X0086218Y0242994D01*
X0086209Y0243081D01*
X0086196Y0243169D01*
X0086180Y0243256D01*
X0086160Y0243342D01*
X0086136Y0243427D01*
X0086109Y0243511D01*
X0086079Y0243594D01*
X0086045Y0243676D01*
X0086008Y0243756D01*
X0085502Y0244116D02*
X0085458Y0244114D01*
X0085414Y0244109D01*
X0085371Y0244100D01*
X0085329Y0244087D01*
X0085287Y0244071D01*
X0085248Y0244052D01*
X0085210Y0244029D01*
X0085174Y0244003D01*
X0085140Y0243975D01*
X0085109Y0243944D01*
X0085081Y0243910D01*
X0085055Y0243874D01*
X0085032Y0243836D01*
X0085013Y0243796D01*
X0084997Y0243755D01*
X0084780Y0242817D02*
X0084782Y0242729D01*
X0084787Y0242640D01*
X0084796Y0242553D01*
X0084809Y0242465D01*
X0084825Y0242378D01*
X0084845Y0242292D01*
X0084869Y0242207D01*
X0084896Y0242123D01*
X0084926Y0242040D01*
X0084960Y0241958D01*
X0084997Y0241878D01*
X0096277Y0243383D02*
X0096277Y0245117D01*
X0097000Y0245117D01*
X0097000Y0245116D02*
X0097040Y0245114D01*
X0097080Y0245109D01*
X0097118Y0245099D01*
X0097156Y0245087D01*
X0097193Y0245071D01*
X0097228Y0245051D01*
X0097261Y0245029D01*
X0097292Y0245003D01*
X0097320Y0244975D01*
X0097346Y0244944D01*
X0097368Y0244911D01*
X0097388Y0244876D01*
X0097404Y0244839D01*
X0097416Y0244801D01*
X0097426Y0244763D01*
X0097431Y0244723D01*
X0097433Y0244683D01*
X0097433Y0243383D01*
X0098917Y0245117D02*
X0100361Y0245117D01*
X0099639Y0245117D02*
X0099639Y0242517D01*
X0100361Y0243094D01*
X0101583Y0244972D02*
X0101583Y0245117D01*
X0101727Y0245117D01*
X0101727Y0244972D01*
X0101583Y0244972D01*
X0132402Y0241917D02*
X0132402Y0258717D01*
D15*
X0061939Y0209710D02*
X0054065Y0209710D01*
X0079252Y0071817D02*
X0079252Y0019317D01*
X0126752Y0019317D01*
X0126752Y0071817D01*
D16*
X0091880Y0114482D02*
X0070124Y0114482D01*
X0070124Y0154151D01*
X0091880Y0154151D01*
X0091880Y0114482D01*
X0090502Y0171756D02*
X0092169Y0172756D01*
X0090502Y0173756D01*
X0093502Y0173756D01*
X0093502Y0171756D02*
X0090502Y0171756D01*
X0091752Y0175411D02*
X0092252Y0176328D01*
X0093502Y0175995D02*
X0093500Y0175921D01*
X0093494Y0175847D01*
X0093484Y0175774D01*
X0093471Y0175701D01*
X0093454Y0175629D01*
X0093432Y0175558D01*
X0093407Y0175488D01*
X0093379Y0175419D01*
X0093347Y0175353D01*
X0093311Y0175288D01*
X0093272Y0175225D01*
X0093230Y0175164D01*
X0093185Y0175105D01*
X0093137Y0175049D01*
X0093085Y0174995D01*
X0092253Y0176328D02*
X0092280Y0176370D01*
X0092310Y0176410D01*
X0092343Y0176448D01*
X0092379Y0176483D01*
X0092417Y0176516D01*
X0092457Y0176545D01*
X0092500Y0176572D01*
X0092545Y0176595D01*
X0092591Y0176615D01*
X0092638Y0176631D01*
X0092687Y0176644D01*
X0092736Y0176654D01*
X0092786Y0176659D01*
X0092836Y0176661D01*
X0092836Y0176662D02*
X0092886Y0176660D01*
X0092935Y0176655D01*
X0092984Y0176645D01*
X0093033Y0176632D01*
X0093080Y0176616D01*
X0093125Y0176596D01*
X0093170Y0176573D01*
X0093212Y0176546D01*
X0093252Y0176516D01*
X0093290Y0176484D01*
X0093325Y0176449D01*
X0093357Y0176411D01*
X0093387Y0176371D01*
X0093414Y0176329D01*
X0093437Y0176284D01*
X0093457Y0176239D01*
X0093473Y0176192D01*
X0093486Y0176143D01*
X0093496Y0176094D01*
X0093501Y0176045D01*
X0093503Y0175995D01*
X0090752Y0176495D02*
X0090713Y0176440D01*
X0090677Y0176384D01*
X0090645Y0176325D01*
X0090615Y0176265D01*
X0090589Y0176203D01*
X0090566Y0176140D01*
X0090547Y0176076D01*
X0090531Y0176011D01*
X0090518Y0175945D01*
X0090509Y0175879D01*
X0090504Y0175812D01*
X0090502Y0175745D01*
X0090504Y0175695D01*
X0090509Y0175646D01*
X0090519Y0175597D01*
X0090532Y0175548D01*
X0090548Y0175501D01*
X0090568Y0175456D01*
X0090591Y0175412D01*
X0090618Y0175369D01*
X0090648Y0175329D01*
X0090680Y0175291D01*
X0090715Y0175256D01*
X0090753Y0175224D01*
X0090793Y0175194D01*
X0090836Y0175167D01*
X0090880Y0175144D01*
X0090925Y0175124D01*
X0090972Y0175108D01*
X0091021Y0175095D01*
X0091070Y0175085D01*
X0091119Y0175080D01*
X0091169Y0175078D01*
X0091219Y0175080D01*
X0091269Y0175085D01*
X0091318Y0175095D01*
X0091367Y0175108D01*
X0091414Y0175124D01*
X0091460Y0175144D01*
X0091505Y0175167D01*
X0091548Y0175194D01*
X0091588Y0175223D01*
X0091626Y0175256D01*
X0091662Y0175291D01*
X0091695Y0175329D01*
X0091725Y0175369D01*
X0091752Y0175411D01*
X0092169Y0177913D02*
X0092169Y0178746D01*
X0092167Y0178803D01*
X0092161Y0178859D01*
X0092152Y0178915D01*
X0092138Y0178971D01*
X0092121Y0179025D01*
X0092100Y0179078D01*
X0092076Y0179129D01*
X0092048Y0179179D01*
X0092017Y0179226D01*
X0091982Y0179272D01*
X0091945Y0179315D01*
X0091905Y0179355D01*
X0091862Y0179392D01*
X0091816Y0179427D01*
X0091769Y0179458D01*
X0091719Y0179486D01*
X0091668Y0179510D01*
X0091615Y0179531D01*
X0091561Y0179548D01*
X0091505Y0179562D01*
X0091449Y0179571D01*
X0091393Y0179577D01*
X0091336Y0179579D01*
X0091279Y0179577D01*
X0091223Y0179571D01*
X0091167Y0179562D01*
X0091111Y0179548D01*
X0091057Y0179531D01*
X0091004Y0179510D01*
X0090953Y0179486D01*
X0090903Y0179458D01*
X0090856Y0179427D01*
X0090810Y0179392D01*
X0090767Y0179355D01*
X0090727Y0179315D01*
X0090690Y0179272D01*
X0090655Y0179226D01*
X0090624Y0179179D01*
X0090596Y0179129D01*
X0090572Y0179078D01*
X0090551Y0179025D01*
X0090534Y0178971D01*
X0090520Y0178915D01*
X0090511Y0178859D01*
X0090505Y0178803D01*
X0090503Y0178746D01*
X0090502Y0178746D02*
X0090502Y0177913D01*
X0093502Y0177913D01*
X0092836Y0180659D02*
X0092836Y0182325D01*
X0093502Y0181825D02*
X0092169Y0181825D01*
X0092836Y0180659D02*
X0090502Y0181325D01*
X0090502Y0183539D02*
X0090502Y0184539D01*
X0090504Y0184589D01*
X0090509Y0184638D01*
X0090519Y0184687D01*
X0090532Y0184736D01*
X0090548Y0184783D01*
X0090568Y0184828D01*
X0090591Y0184873D01*
X0090618Y0184915D01*
X0090648Y0184955D01*
X0090680Y0184993D01*
X0090715Y0185028D01*
X0090753Y0185060D01*
X0090793Y0185090D01*
X0090836Y0185117D01*
X0090880Y0185140D01*
X0090925Y0185160D01*
X0090972Y0185176D01*
X0091021Y0185189D01*
X0091070Y0185199D01*
X0091119Y0185204D01*
X0091169Y0185206D01*
X0091219Y0185204D01*
X0091268Y0185199D01*
X0091317Y0185189D01*
X0091366Y0185176D01*
X0091413Y0185160D01*
X0091458Y0185140D01*
X0091503Y0185117D01*
X0091545Y0185090D01*
X0091585Y0185060D01*
X0091623Y0185028D01*
X0091658Y0184993D01*
X0091690Y0184955D01*
X0091720Y0184915D01*
X0091747Y0184873D01*
X0091770Y0184828D01*
X0091790Y0184783D01*
X0091806Y0184736D01*
X0091819Y0184687D01*
X0091829Y0184638D01*
X0091834Y0184589D01*
X0091836Y0184539D01*
X0091836Y0183872D01*
X0091836Y0184372D02*
X0091838Y0184429D01*
X0091844Y0184485D01*
X0091853Y0184541D01*
X0091867Y0184597D01*
X0091884Y0184651D01*
X0091905Y0184704D01*
X0091929Y0184755D01*
X0091957Y0184805D01*
X0091988Y0184852D01*
X0092023Y0184898D01*
X0092060Y0184941D01*
X0092100Y0184981D01*
X0092143Y0185018D01*
X0092189Y0185053D01*
X0092236Y0185084D01*
X0092286Y0185112D01*
X0092337Y0185136D01*
X0092390Y0185157D01*
X0092444Y0185174D01*
X0092500Y0185188D01*
X0092556Y0185197D01*
X0092612Y0185203D01*
X0092669Y0185205D01*
X0092726Y0185203D01*
X0092782Y0185197D01*
X0092838Y0185188D01*
X0092894Y0185174D01*
X0092948Y0185157D01*
X0093001Y0185136D01*
X0093052Y0185112D01*
X0093102Y0185084D01*
X0093149Y0185053D01*
X0093195Y0185018D01*
X0093238Y0184981D01*
X0093278Y0184941D01*
X0093315Y0184898D01*
X0093350Y0184852D01*
X0093381Y0184805D01*
X0093409Y0184755D01*
X0093433Y0184704D01*
X0093454Y0184651D01*
X0093471Y0184597D01*
X0093485Y0184541D01*
X0093494Y0184485D01*
X0093500Y0184429D01*
X0093502Y0184372D01*
X0093502Y0183539D01*
X0093085Y0187835D02*
X0093000Y0187874D01*
X0092914Y0187910D01*
X0092827Y0187943D01*
X0092738Y0187973D01*
X0092648Y0187999D01*
X0092558Y0188022D01*
X0092466Y0188041D01*
X0092374Y0188057D01*
X0092282Y0188069D01*
X0092189Y0188078D01*
X0092095Y0188083D01*
X0092002Y0188085D01*
X0092002Y0186419D02*
X0091909Y0186421D01*
X0091815Y0186426D01*
X0091722Y0186435D01*
X0091630Y0186447D01*
X0091538Y0186463D01*
X0091446Y0186482D01*
X0091356Y0186505D01*
X0091266Y0186531D01*
X0091177Y0186561D01*
X0091090Y0186594D01*
X0091004Y0186630D01*
X0090919Y0186669D01*
X0090502Y0187252D02*
X0090504Y0187300D01*
X0090509Y0187347D01*
X0090519Y0187394D01*
X0090531Y0187440D01*
X0090548Y0187485D01*
X0090568Y0187529D01*
X0090591Y0187571D01*
X0090617Y0187611D01*
X0090646Y0187648D01*
X0090678Y0187684D01*
X0090713Y0187717D01*
X0090750Y0187747D01*
X0090790Y0187774D01*
X0090831Y0187798D01*
X0090874Y0187818D01*
X0090919Y0187836D01*
X0091169Y0187919D02*
X0092836Y0186585D01*
X0093503Y0187252D02*
X0093501Y0187300D01*
X0093496Y0187347D01*
X0093486Y0187394D01*
X0093474Y0187440D01*
X0093457Y0187485D01*
X0093437Y0187529D01*
X0093414Y0187571D01*
X0093388Y0187611D01*
X0093359Y0187648D01*
X0093327Y0187684D01*
X0093292Y0187717D01*
X0093255Y0187747D01*
X0093215Y0187774D01*
X0093174Y0187798D01*
X0093131Y0187818D01*
X0093086Y0187836D01*
X0093503Y0187252D02*
X0093501Y0187204D01*
X0093496Y0187157D01*
X0093486Y0187110D01*
X0093474Y0187064D01*
X0093457Y0187019D01*
X0093437Y0186975D01*
X0093414Y0186933D01*
X0093388Y0186893D01*
X0093359Y0186856D01*
X0093327Y0186820D01*
X0093292Y0186787D01*
X0093255Y0186757D01*
X0093215Y0186730D01*
X0093174Y0186706D01*
X0093131Y0186686D01*
X0093086Y0186668D01*
X0092002Y0188085D02*
X0091909Y0188083D01*
X0091815Y0188078D01*
X0091722Y0188069D01*
X0091630Y0188057D01*
X0091538Y0188041D01*
X0091446Y0188022D01*
X0091356Y0187999D01*
X0091266Y0187973D01*
X0091177Y0187943D01*
X0091090Y0187910D01*
X0091004Y0187874D01*
X0090919Y0187835D01*
X0090502Y0187252D02*
X0090504Y0187204D01*
X0090509Y0187157D01*
X0090519Y0187110D01*
X0090531Y0187064D01*
X0090548Y0187019D01*
X0090568Y0186975D01*
X0090591Y0186933D01*
X0090617Y0186893D01*
X0090646Y0186856D01*
X0090678Y0186820D01*
X0090713Y0186787D01*
X0090750Y0186757D01*
X0090790Y0186730D01*
X0090831Y0186706D01*
X0090874Y0186686D01*
X0090919Y0186668D01*
X0092002Y0186419D02*
X0092095Y0186421D01*
X0092189Y0186426D01*
X0092282Y0186435D01*
X0092374Y0186447D01*
X0092466Y0186463D01*
X0092558Y0186482D01*
X0092648Y0186505D01*
X0092738Y0186531D01*
X0092827Y0186561D01*
X0092914Y0186594D01*
X0093000Y0186630D01*
X0093085Y0186669D01*
X0093502Y0189400D02*
X0090502Y0189400D01*
X0090502Y0190733D01*
X0090502Y0191907D02*
X0090502Y0192740D01*
X0090502Y0191907D02*
X0093502Y0191907D01*
X0092169Y0191907D02*
X0092169Y0192740D01*
X0092169Y0192907D02*
X0093502Y0193574D01*
X0093502Y0194771D02*
X0093502Y0196437D01*
X0093502Y0197651D02*
X0093502Y0198484D01*
X0093500Y0198541D01*
X0093494Y0198597D01*
X0093485Y0198653D01*
X0093471Y0198709D01*
X0093454Y0198763D01*
X0093433Y0198816D01*
X0093409Y0198867D01*
X0093381Y0198917D01*
X0093350Y0198964D01*
X0093315Y0199010D01*
X0093278Y0199053D01*
X0093238Y0199093D01*
X0093195Y0199130D01*
X0093149Y0199165D01*
X0093102Y0199196D01*
X0093052Y0199224D01*
X0093001Y0199248D01*
X0092948Y0199269D01*
X0092894Y0199286D01*
X0092838Y0199300D01*
X0092782Y0199309D01*
X0092726Y0199315D01*
X0092669Y0199317D01*
X0092612Y0199315D01*
X0092556Y0199309D01*
X0092500Y0199300D01*
X0092444Y0199286D01*
X0092390Y0199269D01*
X0092337Y0199248D01*
X0092286Y0199224D01*
X0092236Y0199196D01*
X0092189Y0199165D01*
X0092143Y0199130D01*
X0092100Y0199093D01*
X0092060Y0199053D01*
X0092023Y0199010D01*
X0091988Y0198964D01*
X0091957Y0198917D01*
X0091929Y0198867D01*
X0091905Y0198816D01*
X0091884Y0198763D01*
X0091867Y0198709D01*
X0091853Y0198653D01*
X0091844Y0198597D01*
X0091838Y0198541D01*
X0091836Y0198484D01*
X0091836Y0198651D02*
X0091836Y0197984D01*
X0091836Y0198651D02*
X0091834Y0198701D01*
X0091829Y0198750D01*
X0091819Y0198799D01*
X0091806Y0198848D01*
X0091790Y0198895D01*
X0091770Y0198940D01*
X0091747Y0198985D01*
X0091720Y0199027D01*
X0091690Y0199067D01*
X0091658Y0199105D01*
X0091623Y0199140D01*
X0091585Y0199172D01*
X0091545Y0199202D01*
X0091503Y0199229D01*
X0091458Y0199252D01*
X0091413Y0199272D01*
X0091366Y0199288D01*
X0091317Y0199301D01*
X0091268Y0199311D01*
X0091219Y0199316D01*
X0091169Y0199318D01*
X0091119Y0199316D01*
X0091070Y0199311D01*
X0091021Y0199301D01*
X0090972Y0199288D01*
X0090925Y0199272D01*
X0090880Y0199252D01*
X0090836Y0199229D01*
X0090793Y0199202D01*
X0090753Y0199172D01*
X0090715Y0199140D01*
X0090680Y0199105D01*
X0090648Y0199067D01*
X0090618Y0199027D01*
X0090591Y0198985D01*
X0090568Y0198940D01*
X0090548Y0198895D01*
X0090532Y0198848D01*
X0090519Y0198799D01*
X0090509Y0198750D01*
X0090504Y0198701D01*
X0090502Y0198651D01*
X0090502Y0197651D01*
X0091836Y0196187D02*
X0093502Y0194771D01*
X0091169Y0194770D02*
X0091112Y0194790D01*
X0091056Y0194814D01*
X0091002Y0194842D01*
X0090950Y0194873D01*
X0090900Y0194907D01*
X0090852Y0194944D01*
X0090807Y0194984D01*
X0090764Y0195027D01*
X0090724Y0195072D01*
X0090686Y0195120D01*
X0090652Y0195170D01*
X0090621Y0195222D01*
X0090594Y0195276D01*
X0090570Y0195332D01*
X0090549Y0195389D01*
X0090532Y0195447D01*
X0090519Y0195506D01*
X0090510Y0195566D01*
X0090504Y0195626D01*
X0090502Y0195687D01*
X0090504Y0195741D01*
X0090510Y0195794D01*
X0090519Y0195846D01*
X0090532Y0195898D01*
X0090549Y0195949D01*
X0090570Y0195999D01*
X0090594Y0196046D01*
X0090621Y0196092D01*
X0090652Y0196136D01*
X0090685Y0196178D01*
X0090722Y0196217D01*
X0090761Y0196254D01*
X0090803Y0196287D01*
X0090847Y0196318D01*
X0090893Y0196345D01*
X0090940Y0196369D01*
X0090990Y0196390D01*
X0091041Y0196407D01*
X0091093Y0196420D01*
X0091145Y0196429D01*
X0091198Y0196435D01*
X0091252Y0196437D01*
X0091252Y0196438D02*
X0091306Y0196436D01*
X0091360Y0196431D01*
X0091414Y0196422D01*
X0091467Y0196409D01*
X0091519Y0196393D01*
X0091569Y0196373D01*
X0091619Y0196350D01*
X0091666Y0196323D01*
X0091712Y0196294D01*
X0091756Y0196261D01*
X0091797Y0196226D01*
X0091836Y0196188D01*
X0092169Y0192740D02*
X0092167Y0192797D01*
X0092161Y0192853D01*
X0092152Y0192909D01*
X0092138Y0192965D01*
X0092121Y0193019D01*
X0092100Y0193072D01*
X0092076Y0193123D01*
X0092048Y0193173D01*
X0092017Y0193220D01*
X0091982Y0193266D01*
X0091945Y0193309D01*
X0091905Y0193349D01*
X0091862Y0193386D01*
X0091816Y0193421D01*
X0091769Y0193452D01*
X0091719Y0193480D01*
X0091668Y0193504D01*
X0091615Y0193525D01*
X0091561Y0193542D01*
X0091505Y0193556D01*
X0091449Y0193565D01*
X0091393Y0193571D01*
X0091336Y0193573D01*
X0091279Y0193571D01*
X0091223Y0193565D01*
X0091167Y0193556D01*
X0091111Y0193542D01*
X0091057Y0193525D01*
X0091004Y0193504D01*
X0090953Y0193480D01*
X0090903Y0193452D01*
X0090856Y0193421D01*
X0090810Y0193386D01*
X0090767Y0193349D01*
X0090727Y0193309D01*
X0090690Y0193266D01*
X0090655Y0193220D01*
X0090624Y0193173D01*
X0090596Y0193123D01*
X0090572Y0193072D01*
X0090551Y0193019D01*
X0090534Y0192965D01*
X0090520Y0192909D01*
X0090511Y0192853D01*
X0090505Y0192797D01*
X0090503Y0192740D01*
X0091836Y0190733D02*
X0091836Y0189400D01*
X0091836Y0200531D02*
X0090502Y0200531D01*
X0090502Y0202197D01*
X0090502Y0203411D02*
X0090502Y0205077D01*
X0091836Y0204411D02*
X0091836Y0203411D01*
X0090502Y0203411D01*
X0091836Y0201531D02*
X0091836Y0200531D01*
X0091835Y0201531D02*
X0091837Y0201581D01*
X0091842Y0201630D01*
X0091852Y0201679D01*
X0091865Y0201728D01*
X0091881Y0201775D01*
X0091901Y0201820D01*
X0091924Y0201865D01*
X0091951Y0201907D01*
X0091981Y0201947D01*
X0092013Y0201985D01*
X0092048Y0202020D01*
X0092086Y0202052D01*
X0092126Y0202082D01*
X0092169Y0202109D01*
X0092213Y0202132D01*
X0092258Y0202152D01*
X0092305Y0202168D01*
X0092354Y0202181D01*
X0092403Y0202191D01*
X0092452Y0202196D01*
X0092502Y0202198D01*
X0092502Y0202197D02*
X0092836Y0202197D01*
X0092836Y0202198D02*
X0092886Y0202196D01*
X0092935Y0202191D01*
X0092984Y0202181D01*
X0093033Y0202168D01*
X0093080Y0202152D01*
X0093125Y0202132D01*
X0093170Y0202109D01*
X0093212Y0202082D01*
X0093252Y0202052D01*
X0093290Y0202020D01*
X0093325Y0201985D01*
X0093357Y0201947D01*
X0093387Y0201907D01*
X0093414Y0201865D01*
X0093437Y0201820D01*
X0093457Y0201775D01*
X0093473Y0201728D01*
X0093486Y0201679D01*
X0093496Y0201630D01*
X0093501Y0201581D01*
X0093503Y0201531D01*
X0093502Y0201531D02*
X0093502Y0200531D01*
X0093502Y0203411D02*
X0093502Y0204411D01*
X0093503Y0204411D02*
X0093501Y0204461D01*
X0093496Y0204510D01*
X0093486Y0204559D01*
X0093473Y0204608D01*
X0093457Y0204655D01*
X0093437Y0204700D01*
X0093414Y0204745D01*
X0093387Y0204787D01*
X0093357Y0204827D01*
X0093325Y0204865D01*
X0093290Y0204900D01*
X0093252Y0204932D01*
X0093212Y0204962D01*
X0093170Y0204989D01*
X0093125Y0205012D01*
X0093080Y0205032D01*
X0093033Y0205048D01*
X0092984Y0205061D01*
X0092935Y0205071D01*
X0092886Y0205076D01*
X0092836Y0205078D01*
X0092836Y0205077D02*
X0092502Y0205077D01*
X0092502Y0205078D02*
X0092452Y0205076D01*
X0092403Y0205071D01*
X0092354Y0205061D01*
X0092305Y0205048D01*
X0092258Y0205032D01*
X0092213Y0205012D01*
X0092169Y0204989D01*
X0092126Y0204962D01*
X0092086Y0204932D01*
X0092048Y0204900D01*
X0092013Y0204865D01*
X0091981Y0204827D01*
X0091951Y0204787D01*
X0091924Y0204745D01*
X0091901Y0204700D01*
X0091881Y0204655D01*
X0091865Y0204608D01*
X0091852Y0204559D01*
X0091842Y0204510D01*
X0091837Y0204461D01*
X0091835Y0204411D01*
X0051336Y0237250D02*
X0051336Y0238583D01*
D17*
X0087254Y0093324D02*
X0118750Y0093324D01*
D18*
X0116782Y0102773D03*
D19*
X0109696Y0089387D02*
X0109698Y0089480D01*
X0109704Y0089572D01*
X0109714Y0089664D01*
X0109728Y0089755D01*
X0109745Y0089846D01*
X0109767Y0089936D01*
X0109792Y0090025D01*
X0109821Y0090113D01*
X0109854Y0090199D01*
X0109891Y0090284D01*
X0109931Y0090368D01*
X0109975Y0090449D01*
X0110022Y0090529D01*
X0110072Y0090607D01*
X0110126Y0090682D01*
X0110183Y0090755D01*
X0110243Y0090825D01*
X0110306Y0090893D01*
X0110372Y0090958D01*
X0110440Y0091020D01*
X0110511Y0091080D01*
X0110585Y0091136D01*
X0110661Y0091189D01*
X0110739Y0091238D01*
X0110819Y0091285D01*
X0110901Y0091327D01*
X0110985Y0091367D01*
X0111070Y0091402D01*
X0111157Y0091434D01*
X0111245Y0091463D01*
X0111334Y0091487D01*
X0111424Y0091508D01*
X0111515Y0091524D01*
X0111607Y0091537D01*
X0111699Y0091546D01*
X0111792Y0091551D01*
X0111884Y0091552D01*
X0111977Y0091549D01*
X0112069Y0091542D01*
X0112161Y0091531D01*
X0112252Y0091516D01*
X0112343Y0091498D01*
X0112433Y0091475D01*
X0112521Y0091449D01*
X0112609Y0091419D01*
X0112695Y0091385D01*
X0112779Y0091348D01*
X0112862Y0091306D01*
X0112943Y0091262D01*
X0113023Y0091214D01*
X0113100Y0091163D01*
X0113174Y0091108D01*
X0113247Y0091050D01*
X0113317Y0090990D01*
X0113384Y0090926D01*
X0113448Y0090860D01*
X0113510Y0090790D01*
X0113568Y0090719D01*
X0113623Y0090645D01*
X0113675Y0090568D01*
X0113724Y0090489D01*
X0113770Y0090409D01*
X0113812Y0090326D01*
X0113850Y0090242D01*
X0113885Y0090156D01*
X0113916Y0090069D01*
X0113943Y0089981D01*
X0113966Y0089891D01*
X0113986Y0089801D01*
X0114002Y0089710D01*
X0114014Y0089618D01*
X0114022Y0089526D01*
X0114026Y0089433D01*
X0114026Y0089341D01*
X0114022Y0089248D01*
X0114014Y0089156D01*
X0114002Y0089064D01*
X0113986Y0088973D01*
X0113966Y0088883D01*
X0113943Y0088793D01*
X0113916Y0088705D01*
X0113885Y0088618D01*
X0113850Y0088532D01*
X0113812Y0088448D01*
X0113770Y0088365D01*
X0113724Y0088285D01*
X0113675Y0088206D01*
X0113623Y0088129D01*
X0113568Y0088055D01*
X0113510Y0087984D01*
X0113448Y0087914D01*
X0113384Y0087848D01*
X0113317Y0087784D01*
X0113247Y0087724D01*
X0113174Y0087666D01*
X0113100Y0087611D01*
X0113023Y0087560D01*
X0112944Y0087512D01*
X0112862Y0087468D01*
X0112779Y0087426D01*
X0112695Y0087389D01*
X0112609Y0087355D01*
X0112521Y0087325D01*
X0112433Y0087299D01*
X0112343Y0087276D01*
X0112252Y0087258D01*
X0112161Y0087243D01*
X0112069Y0087232D01*
X0111977Y0087225D01*
X0111884Y0087222D01*
X0111792Y0087223D01*
X0111699Y0087228D01*
X0111607Y0087237D01*
X0111515Y0087250D01*
X0111424Y0087266D01*
X0111334Y0087287D01*
X0111245Y0087311D01*
X0111157Y0087340D01*
X0111070Y0087372D01*
X0110985Y0087407D01*
X0110901Y0087447D01*
X0110819Y0087489D01*
X0110739Y0087536D01*
X0110661Y0087585D01*
X0110585Y0087638D01*
X0110511Y0087694D01*
X0110440Y0087754D01*
X0110372Y0087816D01*
X0110306Y0087881D01*
X0110243Y0087949D01*
X0110183Y0088019D01*
X0110126Y0088092D01*
X0110072Y0088167D01*
X0110022Y0088245D01*
X0109975Y0088325D01*
X0109931Y0088406D01*
X0109891Y0088490D01*
X0109854Y0088575D01*
X0109821Y0088661D01*
X0109792Y0088749D01*
X0109767Y0088838D01*
X0109745Y0088928D01*
X0109728Y0089019D01*
X0109714Y0089110D01*
X0109704Y0089202D01*
X0109698Y0089294D01*
X0109696Y0089387D01*
X0091979Y0089387D02*
X0091981Y0089480D01*
X0091987Y0089572D01*
X0091997Y0089664D01*
X0092011Y0089755D01*
X0092028Y0089846D01*
X0092050Y0089936D01*
X0092075Y0090025D01*
X0092104Y0090113D01*
X0092137Y0090199D01*
X0092174Y0090284D01*
X0092214Y0090368D01*
X0092258Y0090449D01*
X0092305Y0090529D01*
X0092355Y0090607D01*
X0092409Y0090682D01*
X0092466Y0090755D01*
X0092526Y0090825D01*
X0092589Y0090893D01*
X0092655Y0090958D01*
X0092723Y0091020D01*
X0092794Y0091080D01*
X0092868Y0091136D01*
X0092944Y0091189D01*
X0093022Y0091238D01*
X0093102Y0091285D01*
X0093184Y0091327D01*
X0093268Y0091367D01*
X0093353Y0091402D01*
X0093440Y0091434D01*
X0093528Y0091463D01*
X0093617Y0091487D01*
X0093707Y0091508D01*
X0093798Y0091524D01*
X0093890Y0091537D01*
X0093982Y0091546D01*
X0094075Y0091551D01*
X0094167Y0091552D01*
X0094260Y0091549D01*
X0094352Y0091542D01*
X0094444Y0091531D01*
X0094535Y0091516D01*
X0094626Y0091498D01*
X0094716Y0091475D01*
X0094804Y0091449D01*
X0094892Y0091419D01*
X0094978Y0091385D01*
X0095062Y0091348D01*
X0095145Y0091306D01*
X0095226Y0091262D01*
X0095306Y0091214D01*
X0095383Y0091163D01*
X0095457Y0091108D01*
X0095530Y0091050D01*
X0095600Y0090990D01*
X0095667Y0090926D01*
X0095731Y0090860D01*
X0095793Y0090790D01*
X0095851Y0090719D01*
X0095906Y0090645D01*
X0095958Y0090568D01*
X0096007Y0090489D01*
X0096053Y0090409D01*
X0096095Y0090326D01*
X0096133Y0090242D01*
X0096168Y0090156D01*
X0096199Y0090069D01*
X0096226Y0089981D01*
X0096249Y0089891D01*
X0096269Y0089801D01*
X0096285Y0089710D01*
X0096297Y0089618D01*
X0096305Y0089526D01*
X0096309Y0089433D01*
X0096309Y0089341D01*
X0096305Y0089248D01*
X0096297Y0089156D01*
X0096285Y0089064D01*
X0096269Y0088973D01*
X0096249Y0088883D01*
X0096226Y0088793D01*
X0096199Y0088705D01*
X0096168Y0088618D01*
X0096133Y0088532D01*
X0096095Y0088448D01*
X0096053Y0088365D01*
X0096007Y0088285D01*
X0095958Y0088206D01*
X0095906Y0088129D01*
X0095851Y0088055D01*
X0095793Y0087984D01*
X0095731Y0087914D01*
X0095667Y0087848D01*
X0095600Y0087784D01*
X0095530Y0087724D01*
X0095457Y0087666D01*
X0095383Y0087611D01*
X0095306Y0087560D01*
X0095227Y0087512D01*
X0095145Y0087468D01*
X0095062Y0087426D01*
X0094978Y0087389D01*
X0094892Y0087355D01*
X0094804Y0087325D01*
X0094716Y0087299D01*
X0094626Y0087276D01*
X0094535Y0087258D01*
X0094444Y0087243D01*
X0094352Y0087232D01*
X0094260Y0087225D01*
X0094167Y0087222D01*
X0094075Y0087223D01*
X0093982Y0087228D01*
X0093890Y0087237D01*
X0093798Y0087250D01*
X0093707Y0087266D01*
X0093617Y0087287D01*
X0093528Y0087311D01*
X0093440Y0087340D01*
X0093353Y0087372D01*
X0093268Y0087407D01*
X0093184Y0087447D01*
X0093102Y0087489D01*
X0093022Y0087536D01*
X0092944Y0087585D01*
X0092868Y0087638D01*
X0092794Y0087694D01*
X0092723Y0087754D01*
X0092655Y0087816D01*
X0092589Y0087881D01*
X0092526Y0087949D01*
X0092466Y0088019D01*
X0092409Y0088092D01*
X0092355Y0088167D01*
X0092305Y0088245D01*
X0092258Y0088325D01*
X0092214Y0088406D01*
X0092174Y0088490D01*
X0092137Y0088575D01*
X0092104Y0088661D01*
X0092075Y0088749D01*
X0092050Y0088838D01*
X0092028Y0088928D01*
X0092011Y0089019D01*
X0091997Y0089110D01*
X0091987Y0089202D01*
X0091981Y0089294D01*
X0091979Y0089387D01*
D20*
X0112252Y0165035D02*
X0112252Y0166535D01*
X0113252Y0166535D01*
X0113252Y0165035D01*
X0112252Y0165035D01*
X0112252Y0165071D02*
X0113252Y0165071D01*
X0113252Y0165170D02*
X0112252Y0165170D01*
X0112252Y0165268D02*
X0113252Y0165268D01*
X0113252Y0165367D02*
X0112252Y0165367D01*
X0112252Y0165465D02*
X0113252Y0165465D01*
X0113252Y0165564D02*
X0112252Y0165564D01*
X0112252Y0165662D02*
X0113252Y0165662D01*
X0113252Y0165761D02*
X0112252Y0165761D01*
X0112252Y0165859D02*
X0113252Y0165859D01*
X0113252Y0165958D02*
X0112252Y0165958D01*
X0112252Y0166056D02*
X0113252Y0166056D01*
X0113252Y0166155D02*
X0112252Y0166155D01*
X0112252Y0166253D02*
X0113252Y0166253D01*
X0113252Y0166352D02*
X0112252Y0166352D01*
X0112252Y0166450D02*
X0113252Y0166450D01*
X0113252Y0190626D02*
X0112252Y0190626D01*
X0112252Y0192126D01*
X0113252Y0192126D01*
X0113252Y0190626D01*
X0113252Y0190684D02*
X0112252Y0190684D01*
X0112252Y0190783D02*
X0113252Y0190783D01*
X0113252Y0190881D02*
X0112252Y0190881D01*
X0112252Y0190980D02*
X0113252Y0190980D01*
X0113252Y0191078D02*
X0112252Y0191078D01*
X0112252Y0191177D02*
X0113252Y0191177D01*
X0113252Y0191275D02*
X0112252Y0191275D01*
X0112252Y0191374D02*
X0113252Y0191374D01*
X0113252Y0191472D02*
X0112252Y0191472D01*
X0112252Y0191571D02*
X0113252Y0191571D01*
X0113252Y0191669D02*
X0112252Y0191669D01*
X0112252Y0191768D02*
X0113252Y0191768D01*
X0113252Y0191866D02*
X0112252Y0191866D01*
X0112252Y0191965D02*
X0113252Y0191965D01*
X0113252Y0192063D02*
X0112252Y0192063D01*
X0074752Y0189567D02*
X0074752Y0188067D01*
X0073752Y0188067D01*
X0073752Y0189567D01*
X0074752Y0189567D01*
X0074752Y0189502D02*
X0073752Y0189502D01*
X0073752Y0189404D02*
X0074752Y0189404D01*
X0074752Y0189305D02*
X0073752Y0189305D01*
X0073752Y0189207D02*
X0074752Y0189207D01*
X0074752Y0189108D02*
X0073752Y0189108D01*
X0073752Y0189010D02*
X0074752Y0189010D01*
X0074752Y0188911D02*
X0073752Y0188911D01*
X0073752Y0188812D02*
X0074752Y0188812D01*
X0074752Y0188714D02*
X0073752Y0188714D01*
X0073752Y0188615D02*
X0074752Y0188615D01*
X0074752Y0188517D02*
X0073752Y0188517D01*
X0073752Y0188418D02*
X0074752Y0188418D01*
X0074752Y0188320D02*
X0073752Y0188320D01*
X0073752Y0188221D02*
X0074752Y0188221D01*
X0074752Y0188123D02*
X0073752Y0188123D01*
M02*
