G75*
%MOIN*%
%OFA0B0*%
%FSLAX25Y25*%
%IPPOS*%
%LPD*%
%AMOC8*
5,1,8,0,0,1.08239X$1,22.5*
%
%ADD10R,0.03950X0.05524*%
%ADD11R,0.10131X0.09580*%
%ADD12R,0.04068X0.03280*%
%ADD13C,0.05131*%
%ADD14C,0.06422*%
%ADD15R,0.06422X0.06422*%
%ADD16C,0.07493*%
%ADD17R,0.05524X0.05524*%
%ADD18R,0.05918X0.06706*%
%ADD19C,0.09800*%
%ADD20C,0.10250*%
%ADD21C,0.08200*%
%ADD22R,0.07099X0.06706*%
%ADD23R,0.07400X0.02200*%
%ADD24R,0.02900X0.08600*%
%ADD25R,0.06300X0.02170*%
%ADD26R,0.04737X0.05131*%
%ADD27C,0.03778*%
D10*
X0049459Y0170583D03*
X0056546Y0170583D03*
X0079459Y0185583D03*
X0086546Y0185583D03*
X0158459Y0217583D03*
X0165546Y0217583D03*
X0165546Y0090583D03*
X0158459Y0090583D03*
X0158459Y0073583D03*
X0165546Y0073583D03*
D11*
X0170727Y0108583D03*
X0151278Y0108583D03*
D12*
X0069002Y0219055D03*
X0069002Y0228110D03*
D13*
X0099144Y0072654D03*
X0116861Y0072654D03*
D14*
X0111939Y0080921D03*
X0104065Y0080921D03*
X0094223Y0080921D03*
D15*
X0121782Y0080921D03*
D16*
X0130443Y0076000D02*
X0130443Y0069307D01*
X0085561Y0069307D02*
X0085561Y0076000D01*
D17*
X0158869Y0122583D03*
X0167136Y0122583D03*
X0167136Y0154583D03*
X0158869Y0154583D03*
X0105002Y0212449D03*
X0105002Y0220717D03*
X0045817Y0190520D03*
X0045817Y0182646D03*
D18*
X0079262Y0170583D03*
X0086743Y0170583D03*
X0097262Y0197583D03*
X0104743Y0197583D03*
X0159262Y0168583D03*
X0166743Y0168583D03*
X0166743Y0138583D03*
X0159262Y0138583D03*
D19*
X0047002Y0217583D03*
D20*
X0037002Y0227583D03*
X0037002Y0207583D03*
X0057002Y0207583D03*
X0057002Y0227583D03*
D21*
X0051102Y0067783D03*
X0068902Y0067783D03*
X0068902Y0093383D03*
X0064081Y0105094D03*
X0064081Y0115094D03*
X0064081Y0125094D03*
X0064081Y0135094D03*
X0064002Y0145583D03*
X0064002Y0155583D03*
X0054002Y0155583D03*
X0054002Y0145583D03*
X0054081Y0135094D03*
X0054081Y0125094D03*
X0054081Y0115094D03*
X0054081Y0105094D03*
X0051102Y0093383D03*
X0074081Y0105094D03*
X0074081Y0115094D03*
X0074081Y0125094D03*
X0074081Y0135094D03*
X0074002Y0145583D03*
X0074002Y0155583D03*
X0084002Y0155583D03*
X0084002Y0145583D03*
X0084081Y0135094D03*
X0084081Y0125094D03*
X0084081Y0115094D03*
X0084081Y0105094D03*
X0084002Y0210583D03*
X0094002Y0210583D03*
X0116002Y0211583D03*
X0126002Y0211583D03*
X0136002Y0211583D03*
X0146002Y0211583D03*
D22*
X0058908Y0186583D03*
D23*
X0104552Y0187614D03*
X0104552Y0185055D03*
X0104552Y0182496D03*
X0104552Y0179937D03*
X0104552Y0177378D03*
X0104552Y0174819D03*
X0104552Y0172260D03*
X0104552Y0169701D03*
X0104552Y0167142D03*
X0104552Y0164583D03*
X0104552Y0162024D03*
X0104552Y0159465D03*
X0104552Y0156906D03*
X0104552Y0154346D03*
X0104552Y0151787D03*
X0104552Y0149228D03*
X0104552Y0146669D03*
X0104552Y0144110D03*
X0104552Y0141551D03*
X0133452Y0141551D03*
X0133452Y0144110D03*
X0133452Y0146669D03*
X0133452Y0149228D03*
X0133452Y0151787D03*
X0133452Y0154346D03*
X0133452Y0156906D03*
X0133452Y0159465D03*
X0133452Y0162024D03*
X0133452Y0164583D03*
X0133452Y0167142D03*
X0133452Y0169701D03*
X0133452Y0172260D03*
X0133452Y0174819D03*
X0133452Y0177378D03*
X0133452Y0179937D03*
X0133452Y0182496D03*
X0133452Y0185055D03*
X0133452Y0187614D03*
D24*
X0155502Y0182883D03*
X0160502Y0182883D03*
X0165502Y0182883D03*
X0170502Y0182883D03*
X0170502Y0202283D03*
X0165502Y0202283D03*
X0160502Y0202283D03*
X0155502Y0202283D03*
D25*
X0133396Y0127217D03*
X0133396Y0124657D03*
X0133396Y0122098D03*
X0133396Y0119539D03*
X0133396Y0116980D03*
X0133396Y0114421D03*
X0133396Y0111862D03*
X0133396Y0109303D03*
X0133396Y0106744D03*
X0133396Y0104185D03*
X0133396Y0101626D03*
X0133396Y0099067D03*
X0133396Y0096508D03*
X0133396Y0093949D03*
X0104609Y0093949D03*
X0104609Y0096508D03*
X0104609Y0099067D03*
X0104609Y0101626D03*
X0104609Y0104185D03*
X0104609Y0106744D03*
X0104609Y0109303D03*
X0104609Y0111862D03*
X0104609Y0114421D03*
X0104609Y0116980D03*
X0104609Y0119539D03*
X0104609Y0122098D03*
X0104609Y0124657D03*
X0104609Y0127217D03*
D26*
X0069002Y0204236D03*
X0069002Y0210929D03*
D27*
X0064402Y0201183D03*
X0046402Y0205383D03*
X0091402Y0150183D03*
X0113602Y0160383D03*
X0125002Y0182583D03*
X0122602Y0187383D03*
X0174202Y0150183D03*
X0126802Y0099183D03*
X0123802Y0096183D03*
X0123802Y0092583D03*
X0121402Y0085983D03*
X0113602Y0108783D03*
X0089602Y0121983D03*
M02*
